<?xml version="1.0" standalone="no"?>
<!DOCTYPE svg PUBLIC "-//W3C//DTD SVG 1.1//EN" "http://www.w3.org/Graphics/SVG/1.1/DTD/svg11.dtd" >
<svg xmlns="http://www.w3.org/2000/svg" width="100%" height="100%">
<metadata>
Created by FontXChange 20110222 at Mon Jun  4 14:23:22 2018
 By Suzi Rubino
2011 published by Monotype GmbH
</metadata>
<defs>
<font id="tisaSanReg" horiz-adv-x="570" >
  <font-face 
    font-family="tisaSanReg"
    font-weight="400"
    font-stretch="normal"
    units-per-em="1000"
    panose-1="2 11 5 4 2 2 1 2 1 4"
    ascent="729"
    descent="-271"
    x-height="482"
    cap-height="695"
    bbox="-399 -375 1426 1017"
    underline-thickness="76"
    underline-position="-125"
    stemh="79"
    stemv="87"
    unicode-range="U+000D-FEFF"
  />
<missing-glyph horiz-adv-x="736" 
d="M102 0v724h532v-724h-532zM245 587c-13 -17 -19 -51 -16 -75c37 32 85 50 132 50c56 0 77 -26 77 -54c0 -70 -137 -96 -137 -195c0 -32 14 -59 38 -76c21 2 40 14 51 31c-14 14 -20 23 -20 43c0 63 145 92 145 205c0 71 -49 111 -138 111c-63 0 -106 -20 -132 -40z
M365 185c-27 0 -46 -17 -46 -45c0 -30 17 -46 46 -46c28 0 45 16 45 46c0 29 -18 45 -45 45z" />
    <glyph glyph-name="I_J" unicode="IJ" horiz-adv-x="615" 
d="M100 5v685c9 5 24 7 46 7s36 -2 45 -7v-685c-9 -5 -23 -7 -45 -7s-37 2 -46 7zM519 690v-540c0 -181 -67 -286 -201 -351c-21 14 -37 44 -41 74c109 58 151 134 151 264v553c9 5 24 7 46 7s36 -2 45 -7z" />
    <glyph glyph-name="f_b" unicode="fb" horiz-adv-x="873" 
d="M392 660c-25 12 -51 16 -76 16c-62 0 -125 -23 -125 -139v-55h127c4 -8 6 -21 6 -39s-2 -32 -6 -40h-127v-398c-9 -5 -22 -7 -43 -7s-35 2 -44 7v398h-75c0 30 4 58 12 79h63v50c0 173 95 224 206 224c68 0 127 -18 169 -50v-159c0 -41 -2 -88 -7 -126h4
c19 45 66 81 147 81c103 0 202 -62 202 -244c0 -185 -99 -278 -268 -278c-55 0 -115 10 -165 31v649zM479 355v-288c20 -7 50 -11 79 -11c129 0 178 77 178 192s-49 174 -136 174c-63 0 -97 -32 -121 -67z" />
    <glyph glyph-name="f_f" unicode="ff" horiz-adv-x="622" 
d="M41 482h63v78c0 134 64 177 150 177c38 0 69 -8 90 -23c14 -19 20 -56 15 -84c-28 21 -56 28 -85 28c-64 0 -83 -36 -83 -92v-84h209v89c0 142 68 185 159 185c41 0 73 -9 99 -27c14 -19 20 -57 15 -85c-32 24 -62 33 -96 33c-70 0 -90 -38 -90 -100v-95h134
c4 -8 6 -21 6 -39s-2 -32 -6 -40h-134v-398c-9 -5 -22 -7 -43 -7s-35 2 -44 7v398h-209v-398c-9 -5 -22 -7 -43 -7s-35 2 -44 7v398h-75c0 30 4 58 12 79z" />
    <glyph glyph-name="f_f_b" unicode="ffb" horiz-adv-x="1169" 
d="M688 660c-25 12 -51 16 -76 16c-62 0 -125 -23 -125 -139v-55h127c4 -8 6 -21 6 -39s-2 -32 -6 -40h-127v-398c-9 -5 -22 -7 -43 -7s-35 2 -44 7v398h-209v-398c-9 -5 -22 -7 -43 -7s-35 2 -44 7v398h-75c0 30 4 58 12 79h63v78c0 134 64 177 150 177c38 0 69 -8 90 -23
c14 -19 20 -56 15 -84c-28 21 -56 28 -85 28c-64 0 -83 -36 -83 -92v-84h209v50c0 173 95 224 206 224c68 0 127 -18 169 -50v-159c0 -41 -2 -88 -7 -126h4c19 45 66 81 147 81c103 0 202 -62 202 -244c0 -185 -99 -278 -268 -278c-55 0 -115 10 -165 31v649zM775 355v-288
c20 -7 50 -11 79 -11c129 0 178 77 178 192s-49 174 -136 174c-63 0 -97 -32 -121 -67z" />
    <glyph glyph-name="f_f_h" unicode="ffh" horiz-adv-x="1186" 
d="M775 344v-339c-9 -5 -22 -7 -43 -7s-35 2 -44 7v655c-25 12 -51 16 -76 16c-62 0 -125 -23 -125 -139v-55h127c4 -8 6 -21 6 -39s-2 -32 -6 -40h-127v-398c-9 -5 -22 -7 -43 -7s-35 2 -44 7v398h-209v-398c-9 -5 -22 -7 -43 -7s-35 2 -44 7v398h-75c0 30 4 58 12 79h63
v78c0 134 64 177 150 177c38 0 69 -8 90 -23c14 -19 20 -56 15 -84c-28 21 -56 28 -85 28c-64 0 -83 -36 -83 -92v-84h209v50c0 173 95 224 206 224c68 0 127 -18 169 -50v-152c0 -56 -2 -98 -8 -138h4c21 44 67 86 165 86c81 0 171 -28 171 -190v-307c-9 -5 -22 -7 -43 -7
s-35 2 -44 7v289c0 79 -26 127 -109 127c-73 0 -115 -37 -136 -77z" />
    <glyph glyph-name="f_f_i" unicode="ffi" horiz-adv-x="856" 
d="M41 482h63v78c0 134 64 177 150 177c38 0 69 -8 90 -23c14 -19 20 -56 15 -84c-28 21 -56 28 -85 28c-64 0 -83 -36 -83 -92v-84h209v49c0 156 74 225 203 225c49 0 92 -10 129 -35c14 -18 21 -58 16 -87c-40 27 -82 41 -132 41c-66 0 -129 -23 -129 -139v-54h127
c4 -8 6 -21 6 -39s-2 -32 -6 -40h-127v-398c-9 -5 -22 -7 -43 -7s-35 2 -44 7v398h-209v-398c-9 -5 -22 -7 -43 -7s-35 2 -44 7v398h-75c0 30 4 58 12 79zM684 5v472c9 5 23 7 44 7s34 -2 43 -7v-472c-9 -5 -22 -7 -43 -7s-35 2 -44 7z" />
    <glyph glyph-name="f_f_iogonek" unicode="ff&#x12f;" horiz-adv-x="856" 
d="M41 482h63v78c0 134 64 177 150 177c38 0 69 -8 90 -23c14 -19 20 -56 15 -84c-28 21 -56 28 -85 28c-64 0 -83 -36 -83 -92v-84h209v49c0 156 74 225 203 225c49 0 92 -10 129 -35c14 -18 21 -58 16 -87c-40 27 -82 41 -132 41c-66 0 -129 -23 -129 -139v-54h127
c4 -8 6 -21 6 -39s-2 -32 -6 -40h-127v-398c-9 -5 -22 -7 -43 -7s-35 2 -44 7v398h-209v-398c-9 -5 -22 -7 -43 -7s-35 2 -44 7v398h-75c0 30 4 58 12 79zM771 -151c11 -15 18 -43 18 -62c-18 -7 -37 -11 -65 -11c-67 0 -122 32 -122 106c0 50 25 96 82 119v476
c9 5 23 7 44 7s34 -2 43 -7v-472c-57 -30 -85 -66 -85 -105c0 -37 26 -55 61 -55c8 0 17 1 24 4z" />
    <glyph glyph-name="f_f_j" unicode="ffj" horiz-adv-x="863" 
d="M400 482v49c0 156 76 225 207 225c50 0 94 -10 132 -35c14 -18 21 -58 16 -87c-41 27 -84 41 -136 41c-67 0 -132 -23 -132 -139v-54h134c4 -8 6 -21 6 -39s-2 -32 -6 -40h-134v-398c-9 -5 -22 -7 -43 -7s-35 2 -44 7v398h-209v-398c-9 -5 -22 -7 -43 -7s-35 2 -44 7v398
h-75c0 30 4 58 12 79h63v78c0 134 64 177 150 177c38 0 69 -8 90 -23c14 -19 20 -56 15 -84c-28 21 -56 28 -85 28c-64 0 -83 -36 -83 -92v-84h209zM780 477v-387c0 -173 -58 -258 -146 -330c-25 9 -44 30 -51 58c63 54 110 119 110 249v410c9 5 23 7 44 7s34 -2 43 -7z" />
    <glyph glyph-name="f_f_k" unicode="ffk" horiz-adv-x="1128" 
d="M688 660c-25 12 -51 16 -76 16c-62 0 -125 -23 -125 -139v-55h127c4 -8 6 -21 6 -39s-2 -32 -6 -40h-127v-398c-9 -5 -22 -7 -43 -7s-35 2 -44 7v398h-209v-398c-9 -5 -22 -7 -43 -7s-35 2 -44 7v398h-75c0 30 4 58 12 79h63v78c0 134 64 177 150 177c38 0 69 -8 90 -23
c14 -19 20 -56 15 -84c-28 21 -56 28 -85 28c-64 0 -83 -36 -83 -92v-84h209v50c0 173 95 224 206 224c68 0 127 -18 169 -50v-409h71l147 184c7 3 23 5 37 5c26 0 50 -5 60 -11l-175 -216c62 -90 117 -166 199 -254c-8 -5 -30 -8 -51 -8c-26 0 -52 3 -63 8
c-61 70 -109 137 -163 220h-62v-220c-9 -5 -22 -7 -43 -7s-35 2 -44 7v655z" />
    <glyph glyph-name="f_f_l" unicode="ffl" horiz-adv-x="893" 
d="M860 -2c-17 -11 -43 -18 -72 -18c-68 0 -102 39 -102 119v561c-25 12 -50 16 -75 16c-62 0 -124 -23 -124 -139v-55h127c4 -8 6 -21 6 -39s-2 -32 -6 -40h-127v-398c-9 -5 -22 -7 -43 -7s-35 2 -44 7v398h-209v-398c-9 -5 -22 -7 -43 -7s-35 2 -44 7v398h-75
c0 30 4 58 12 79h63v78c0 134 64 177 150 177c38 0 69 -8 90 -23c14 -19 20 -56 15 -84c-28 21 -56 28 -85 28c-64 0 -83 -36 -83 -92v-84h209v50c0 173 94 224 205 224c68 0 126 -18 168 -50v-591c0 -44 16 -55 45 -55c24 0 46 8 61 20c2 -29 -5 -64 -19 -82z" />
    <glyph glyph-name="f_f_lcaron" unicode="ff&#x13e;" horiz-adv-x="901" 
d="M860 -2c-17 -11 -43 -18 -72 -18c-68 0 -102 39 -102 119v561c-25 12 -50 16 -75 16c-62 0 -124 -23 -124 -139v-55h127c4 -8 6 -21 6 -39s-2 -32 -6 -40h-127v-398c-9 -5 -22 -7 -43 -7s-35 2 -44 7v398h-209v-398c-9 -5 -22 -7 -43 -7s-35 2 -44 7v398h-75
c0 30 4 58 12 79h63v78c0 134 64 177 150 177c38 0 69 -8 90 -23c14 -19 20 -56 15 -84c-28 21 -56 28 -85 28c-64 0 -83 -36 -83 -92v-84h209v50c0 173 94 224 205 224c68 0 126 -18 168 -50v-591c0 -44 16 -55 45 -55c24 0 46 8 61 20c2 -29 -5 -64 -19 -82zM858 727
c22 11 47 17 81 17c-3 -71 -31 -161 -56 -207c-26 2 -50 13 -61 28c17 45 32 103 36 162z" />
    <glyph glyph-name="f_f_ldot" unicode="ff&#x140;" horiz-adv-x="970" 
d="M860 -2c-17 -11 -43 -18 -72 -18c-68 0 -102 39 -102 119v561c-25 12 -50 16 -75 16c-62 0 -124 -23 -124 -139v-55h127c4 -8 6 -21 6 -39s-2 -32 -6 -40h-127v-398c-9 -5 -22 -7 -43 -7s-35 2 -44 7v398h-209v-398c-9 -5 -22 -7 -43 -7s-35 2 -44 7v398h-75
c0 30 4 58 12 79h63v78c0 134 64 177 150 177c38 0 69 -8 90 -23c14 -19 20 -56 15 -84c-28 21 -56 28 -85 28c-64 0 -83 -36 -83 -92v-84h209v50c0 173 94 224 205 224c68 0 126 -18 168 -50v-591c0 -44 16 -55 45 -55c24 0 46 8 61 20c2 -29 -5 -64 -19 -82zM912 331
c33 0 55 -19 55 -54c0 -36 -22 -56 -55 -56c-37 0 -56 19 -56 55c0 34 23 55 56 55z" />
    <glyph glyph-name="f_f_t" unicode="fft" horiz-adv-x="966" 
d="M41 482h63v78c0 134 64 177 150 177c38 0 69 -8 90 -23c14 -19 20 -56 15 -84c-28 21 -56 28 -85 28c-64 0 -83 -36 -83 -92v-84h209v82c0 142 68 185 159 185c41 0 73 -9 99 -27c14 -19 20 -57 15 -85c-32 24 -62 33 -96 33c-70 0 -90 -38 -90 -100v-88h203v110
c21 17 54 26 87 27v-137h147c4 -8 6 -21 6 -39s-2 -32 -6 -40h-147v-257c0 -54 14 -85 74 -85c30 0 66 11 96 36c4 -31 -6 -71 -21 -89c-26 -18 -58 -28 -101 -28c-96 0 -135 50 -135 155v268h-203v-398c-9 -5 -22 -7 -43 -7s-35 2 -44 7v398h-209v-398c-9 -5 -22 -7 -43 -7
s-35 2 -44 7v398h-75c0 30 4 58 12 79z" />
    <glyph glyph-name="f_f_tbar" unicode="ff&#x167;" horiz-adv-x="968" 
d="M902 220h-124v-74c0 -54 14 -85 74 -85c30 0 66 11 96 36c4 -31 -6 -71 -21 -89c-26 -18 -58 -28 -101 -28c-96 0 -135 50 -135 155v85h-68c0 23 4 49 11 66h57v117h-204v-398c-9 -5 -22 -7 -43 -7s-35 2 -44 7v398h-209v-398c-9 -5 -22 -7 -43 -7s-35 2 -44 7v398h-75
c0 30 4 58 12 79h63v78c0 134 64 177 150 177c38 0 69 -8 90 -23c14 -19 20 -56 15 -84c-28 21 -56 28 -85 28c-64 0 -83 -36 -83 -92v-84h209v82c0 142 68 185 159 185c41 0 73 -9 99 -27c14 -19 20 -57 15 -85c-32 24 -62 33 -96 33c-70 0 -90 -38 -90 -100v-88h204v110
c21 17 54 26 87 27v-137h147c4 -8 6 -21 6 -39s-2 -32 -6 -40h-147v-117h124c4 -5 7 -18 7 -33s-3 -28 -7 -33z" />
    <glyph glyph-name="f_f_tcaron" unicode="ff&#x165;" horiz-adv-x="970" 
d="M41 482h63v78c0 134 64 177 150 177c38 0 69 -8 90 -23c14 -19 20 -56 15 -84c-28 21 -56 28 -85 28c-64 0 -83 -36 -83 -92v-84h209v82c0 142 68 185 159 185c41 0 73 -9 99 -27c14 -19 20 -57 15 -85c-32 24 -62 33 -96 33c-70 0 -90 -38 -90 -100v-88h203v110
c21 17 54 26 87 27v-137h147c4 -8 6 -21 6 -39s-2 -32 -6 -40h-147v-257c0 -54 14 -85 74 -85c30 0 66 11 96 36c4 -31 -6 -71 -21 -89c-26 -18 -58 -28 -101 -28c-96 0 -135 50 -135 155v268h-203v-398c-9 -5 -22 -7 -43 -7s-35 2 -44 7v398h-209v-398c-9 -5 -22 -7 -43 -7
s-35 2 -44 7v398h-75c0 30 4 58 12 79zM910 707c23 13 48 19 84 19c-3 -67 -28 -150 -50 -193c-27 4 -51 14 -63 29c13 41 25 94 29 145z" />
    <glyph glyph-name="f_f_uni0137" unicode="ff&#x137;" horiz-adv-x="1128" 
d="M688 660c-25 12 -51 16 -76 16c-62 0 -125 -23 -125 -139v-55h127c4 -8 6 -21 6 -39s-2 -32 -6 -40h-127v-398c-9 -5 -22 -7 -43 -7s-35 2 -44 7v398h-209v-398c-9 -5 -22 -7 -43 -7s-35 2 -44 7v398h-75c0 30 4 58 12 79h63v78c0 134 64 177 150 177c38 0 69 -8 90 -23
c14 -19 20 -56 15 -84c-28 21 -56 28 -85 28c-64 0 -83 -36 -83 -92v-84h209v50c0 173 95 224 206 224c68 0 127 -18 169 -50v-409h71l147 184c7 3 23 5 37 5c26 0 50 -5 60 -11l-175 -216c62 -90 117 -166 199 -254c-8 -5 -30 -8 -51 -8c-26 0 -52 3 -63 8
c-61 70 -109 137 -163 220h-62v-220c-9 -5 -22 -7 -43 -7s-35 2 -44 7v655zM852 -61c23 11 49 17 84 17c-3 -69 -29 -156 -53 -200c-27 2 -52 13 -64 28c16 43 29 99 33 155z" />
    <glyph glyph-name="f_f_uni013C" unicode="ff&#x13c;" horiz-adv-x="893" 
d="M860 -2c-17 -11 -43 -18 -72 -18c-68 0 -102 39 -102 119v561c-25 12 -50 16 -75 16c-62 0 -124 -23 -124 -139v-55h127c4 -8 6 -21 6 -39s-2 -32 -6 -40h-127v-398c-9 -5 -22 -7 -43 -7s-35 2 -44 7v398h-209v-398c-9 -5 -22 -7 -43 -7s-35 2 -44 7v398h-75
c0 30 4 58 12 79h63v78c0 134 64 177 150 177c38 0 69 -8 90 -23c14 -19 20 -56 15 -84c-28 21 -56 28 -85 28c-64 0 -83 -36 -83 -92v-84h209v50c0 173 94 224 205 224c68 0 126 -18 168 -50v-591c0 -44 16 -55 45 -55c24 0 46 8 61 20c2 -29 -5 -64 -19 -82zM741 -61
c23 11 49 17 84 17c-3 -69 -29 -156 -53 -200c-27 2 -52 13 -64 28c16 43 29 99 33 155z" />
    <glyph glyph-name="f_f_uni0163" unicode="ff&#x163;" horiz-adv-x="966" 
d="M762 -84l21 68c-66 14 -93 63 -93 151v268h-203v-398c-9 -5 -22 -7 -43 -7s-35 2 -44 7v398h-209v-398c-9 -5 -22 -7 -43 -7s-35 2 -44 7v398h-75c0 30 4 58 12 79h63v78c0 134 64 177 150 177c38 0 69 -8 90 -23c14 -19 20 -56 15 -84c-28 21 -56 28 -85 28
c-64 0 -83 -36 -83 -92v-84h209v82c0 142 68 185 159 185c41 0 73 -9 99 -27c14 -19 20 -57 15 -85c-32 24 -62 33 -96 33c-70 0 -90 -38 -90 -100v-88h203v110c21 17 54 26 87 27v-137h147c4 -8 6 -21 6 -39s-2 -32 -6 -40h-147v-257c0 -54 14 -85 74 -85c30 0 66 11 96 36
c4 -31 -6 -71 -21 -89c-21 -14 -44 -24 -76 -27l-7 -32c35 -12 61 -36 61 -78c0 -61 -54 -98 -118 -108c-20 10 -37 27 -46 48c46 6 82 25 82 56c0 26 -27 43 -60 49z" />
    <glyph glyph-name="f_f_uni021B" unicode="ff&#x21b;" horiz-adv-x="966" 
d="M41 482h63v78c0 134 64 177 150 177c38 0 69 -8 90 -23c14 -19 20 -56 15 -84c-28 21 -56 28 -85 28c-64 0 -83 -36 -83 -92v-84h209v82c0 142 68 185 159 185c41 0 73 -9 99 -27c14 -19 20 -57 15 -85c-32 24 -62 33 -96 33c-70 0 -90 -38 -90 -100v-88h203v110
c21 17 54 26 87 27v-137h147c4 -8 6 -21 6 -39s-2 -32 -6 -40h-147v-257c0 -54 14 -85 74 -85c30 0 66 11 96 36c4 -31 -6 -71 -21 -89c-26 -18 -58 -28 -101 -28c-96 0 -135 50 -135 155v268h-203v-398c-9 -5 -22 -7 -43 -7s-35 2 -44 7v398h-209v-398c-9 -5 -22 -7 -43 -7
s-35 2 -44 7v398h-75c0 30 4 58 12 79zM781 -61c23 11 49 17 84 17c-3 -69 -29 -156 -53 -200c-27 2 -52 13 -64 28c16 43 29 99 33 155z" />
    <glyph glyph-name="f_h" unicode="fh" horiz-adv-x="890" 
d="M479 344v-339c-9 -5 -22 -7 -43 -7s-35 2 -44 7v655c-25 12 -51 16 -76 16c-62 0 -125 -23 -125 -139v-55h127c4 -8 6 -21 6 -39s-2 -32 -6 -40h-127v-398c-9 -5 -22 -7 -43 -7s-35 2 -44 7v398h-75c0 30 4 58 12 79h63v50c0 173 95 224 206 224c68 0 127 -18 169 -50
v-152c0 -56 -2 -98 -8 -138h4c21 44 67 86 165 86c81 0 171 -28 171 -190v-307c-9 -5 -22 -7 -43 -7s-35 2 -44 7v289c0 79 -26 127 -109 127c-73 0 -115 -37 -136 -77z" />
    <glyph glyph-name="f_i" unicode="fi" horiz-adv-x="560" 
d="M41 482h63v49c0 156 74 225 203 225c49 0 92 -10 129 -35c14 -18 21 -58 16 -87c-40 27 -82 41 -132 41c-66 0 -129 -23 -129 -139v-54h127c4 -8 6 -21 6 -39s-2 -32 -6 -40h-127v-398c-9 -5 -22 -7 -43 -7s-35 2 -44 7v398h-75c0 30 4 58 12 79zM388 5v472
c9 5 23 7 44 7s34 -2 43 -7v-472c-9 -5 -22 -7 -43 -7s-35 2 -44 7z" />
    <glyph glyph-name="f_iacute" unicode="f&#xed;" horiz-adv-x="567" 
d="M41 482h63v85c0 140 64 182 150 182c39 0 69 -8 94 -24c14 -19 20 -57 15 -85c-30 22 -57 30 -89 30c-65 0 -83 -37 -83 -97v-91h128c4 -8 6 -21 6 -39s-2 -32 -6 -40h-128v-398c-9 -5 -22 -7 -43 -7s-35 2 -44 7v398h-75c0 30 4 58 12 79zM395 5v472c9 5 23 7 44 7
s34 -2 43 -7v-472c-9 -5 -22 -7 -43 -7s-35 2 -44 7zM571 712l-148 -158c-24 6 -40 19 -50 37l117 149c26 0 62 -10 81 -28z" />
    <glyph glyph-name="f_iogonek" unicode="f&#x12f;" horiz-adv-x="560" 
d="M41 482h63v49c0 156 74 225 203 225c49 0 92 -10 129 -35c14 -18 21 -58 16 -87c-40 27 -82 41 -132 41c-66 0 -129 -23 -129 -139v-54h127c4 -8 6 -21 6 -39s-2 -32 -6 -40h-127v-398c-9 -5 -22 -7 -43 -7s-35 2 -44 7v398h-75c0 30 4 58 12 79zM475 -151
c11 -15 18 -43 18 -62c-18 -7 -37 -11 -65 -11c-67 0 -122 32 -122 106c0 50 25 96 82 119v476c9 5 23 7 44 7s34 -2 43 -7v-472c-57 -30 -85 -66 -85 -105c0 -37 26 -55 61 -55c8 0 17 1 24 4z" />
    <glyph glyph-name="f_j" unicode="fj" horiz-adv-x="567" 
d="M104 482v49c0 156 76 225 207 225c50 0 94 -10 132 -35c14 -18 21 -58 16 -87c-41 27 -84 41 -136 41c-67 0 -132 -23 -132 -139v-54h134c4 -8 6 -21 6 -39s-2 -32 -6 -40h-134v-398c-9 -5 -22 -7 -43 -7s-35 2 -44 7v398h-75c0 30 4 58 12 79h63zM484 477v-387
c0 -173 -58 -258 -146 -330c-25 9 -44 30 -51 58c63 54 110 119 110 249v410c9 5 23 7 44 7s34 -2 43 -7z" />
    <glyph glyph-name="f_k" unicode="fk" horiz-adv-x="832" 
d="M392 660c-25 12 -51 16 -76 16c-62 0 -125 -23 -125 -139v-55h127c4 -8 6 -21 6 -39s-2 -32 -6 -40h-127v-398c-9 -5 -22 -7 -43 -7s-35 2 -44 7v398h-75c0 30 4 58 12 79h63v50c0 173 95 224 206 224c68 0 127 -18 169 -50v-409h71l147 184c7 3 23 5 37 5
c26 0 50 -5 60 -11l-175 -216c62 -90 117 -166 199 -254c-8 -5 -30 -8 -51 -8c-26 0 -52 3 -63 8c-61 70 -109 137 -163 220h-62v-220c-9 -5 -22 -7 -43 -7s-35 2 -44 7v655z" />
    <glyph glyph-name="f_l" unicode="fl" horiz-adv-x="597" 
d="M564 -2c-17 -11 -43 -18 -72 -18c-68 0 -102 39 -102 119v561c-25 12 -50 16 -75 16c-62 0 -124 -23 -124 -139v-55h127c4 -8 6 -21 6 -39s-2 -32 -6 -40h-127v-398c-9 -5 -22 -7 -43 -7s-35 2 -44 7v398h-75c0 30 4 58 12 79h63v50c0 173 94 224 205 224
c68 0 126 -18 168 -50v-591c0 -44 16 -55 45 -55c24 0 46 8 61 20c2 -29 -5 -64 -19 -82z" />
    <glyph glyph-name="f_lcaron" unicode="f&#x13e;" horiz-adv-x="605" 
d="M564 -2c-17 -11 -43 -18 -72 -18c-68 0 -102 39 -102 119v561c-25 12 -50 16 -75 16c-62 0 -124 -23 -124 -139v-55h127c4 -8 6 -21 6 -39s-2 -32 -6 -40h-127v-398c-9 -5 -22 -7 -43 -7s-35 2 -44 7v398h-75c0 30 4 58 12 79h63v50c0 173 94 224 205 224
c68 0 126 -18 168 -50v-591c0 -44 16 -55 45 -55c24 0 46 8 61 20c2 -29 -5 -64 -19 -82zM562 727c22 11 47 17 81 17c-3 -71 -31 -161 -56 -207c-26 2 -50 13 -61 28c17 45 32 103 36 162z" />
    <glyph glyph-name="f_ldot" unicode="f&#x140;" horiz-adv-x="674" 
d="M564 -2c-17 -11 -43 -18 -72 -18c-68 0 -102 39 -102 119v561c-25 12 -50 16 -75 16c-62 0 -124 -23 -124 -139v-55h127c4 -8 6 -21 6 -39s-2 -32 -6 -40h-127v-398c-9 -5 -22 -7 -43 -7s-35 2 -44 7v398h-75c0 30 4 58 12 79h63v50c0 173 94 224 205 224
c68 0 126 -18 168 -50v-591c0 -44 16 -55 45 -55c24 0 46 8 61 20c2 -29 -5 -64 -19 -82zM616 331c33 0 55 -19 55 -54c0 -36 -22 -56 -55 -56c-37 0 -56 19 -56 55c0 34 23 55 56 55z" />
    <glyph glyph-name="f_t" unicode="ft" horiz-adv-x="670" 
d="M41 482h63v82c0 142 68 185 159 185c41 0 73 -9 99 -27c14 -19 20 -57 15 -85c-32 24 -62 33 -96 33c-70 0 -90 -38 -90 -100v-88h203v110c21 17 54 26 87 27v-137h147c4 -8 6 -21 6 -39s-2 -32 -6 -40h-147v-257c0 -54 14 -85 74 -85c30 0 66 11 96 36
c4 -31 -6 -71 -21 -89c-26 -18 -58 -28 -101 -28c-96 0 -135 50 -135 155v268h-203v-398c-9 -5 -22 -7 -43 -7s-35 2 -44 7v398h-75c0 30 4 58 12 79z" />
    <glyph glyph-name="f_tbar" unicode="f&#x167;" horiz-adv-x="672" 
d="M606 220h-124v-74c0 -54 14 -85 74 -85c30 0 66 11 96 36c4 -31 -6 -71 -21 -89c-26 -18 -58 -28 -101 -28c-96 0 -135 50 -135 155v85h-68c0 23 4 49 11 66h57v117h-204v-398c-9 -5 -22 -7 -43 -7s-35 2 -44 7v398h-75c0 30 4 58 12 79h63v82c0 142 68 185 159 185
c41 0 73 -9 99 -27c14 -19 20 -57 15 -85c-32 24 -62 33 -96 33c-70 0 -90 -38 -90 -100v-88h204v110c21 17 54 26 87 27v-137h147c4 -8 6 -21 6 -39s-2 -32 -6 -40h-147v-117h124c4 -5 7 -18 7 -33s-3 -28 -7 -33z" />
    <glyph glyph-name="f_tcaron" unicode="f&#x165;" horiz-adv-x="674" 
d="M41 482h63v82c0 142 68 185 159 185c41 0 73 -9 99 -27c14 -19 20 -57 15 -85c-32 24 -62 33 -96 33c-70 0 -90 -38 -90 -100v-88h203v110c21 17 54 26 87 27v-137h147c4 -8 6 -21 6 -39s-2 -32 -6 -40h-147v-257c0 -54 14 -85 74 -85c30 0 66 11 96 36
c4 -31 -6 -71 -21 -89c-26 -18 -58 -28 -101 -28c-96 0 -135 50 -135 155v268h-203v-398c-9 -5 -22 -7 -43 -7s-35 2 -44 7v398h-75c0 30 4 58 12 79zM614 707c23 13 48 19 84 19c-3 -67 -28 -150 -50 -193c-27 4 -51 14 -63 29c13 41 25 94 29 145z" />
    <glyph glyph-name="f_uni0137" unicode="f&#x137;" horiz-adv-x="832" 
d="M392 660c-25 12 -51 16 -76 16c-62 0 -125 -23 -125 -139v-55h127c4 -8 6 -21 6 -39s-2 -32 -6 -40h-127v-398c-9 -5 -22 -7 -43 -7s-35 2 -44 7v398h-75c0 30 4 58 12 79h63v50c0 173 95 224 206 224c68 0 127 -18 169 -50v-409h71l147 184c7 3 23 5 37 5
c26 0 50 -5 60 -11l-175 -216c62 -90 117 -166 199 -254c-8 -5 -30 -8 -51 -8c-26 0 -52 3 -63 8c-61 70 -109 137 -163 220h-62v-220c-9 -5 -22 -7 -43 -7s-35 2 -44 7v655zM556 -61c23 11 49 17 84 17c-3 -69 -29 -156 -53 -200c-27 2 -52 13 -64 28c16 43 29 99 33 155z
" />
    <glyph glyph-name="f_uni013C" unicode="f&#x13c;" horiz-adv-x="597" 
d="M564 -2c-17 -11 -43 -18 -72 -18c-68 0 -102 39 -102 119v561c-25 12 -50 16 -75 16c-62 0 -124 -23 -124 -139v-55h127c4 -8 6 -21 6 -39s-2 -32 -6 -40h-127v-398c-9 -5 -22 -7 -43 -7s-35 2 -44 7v398h-75c0 30 4 58 12 79h63v50c0 173 94 224 205 224
c68 0 126 -18 168 -50v-591c0 -44 16 -55 45 -55c24 0 46 8 61 20c2 -29 -5 -64 -19 -82zM445 -61c23 11 49 17 84 17c-3 -69 -29 -156 -53 -200c-27 2 -52 13 -64 28c16 43 29 99 33 155z" />
    <glyph glyph-name="f_uni0163" unicode="f&#x163;" horiz-adv-x="670" 
d="M466 -84l21 68c-66 14 -93 63 -93 151v268h-203v-398c-9 -5 -22 -7 -43 -7s-35 2 -44 7v398h-75c0 30 4 58 12 79h63v82c0 142 68 185 159 185c41 0 73 -9 99 -27c14 -19 20 -57 15 -85c-32 24 -62 33 -96 33c-70 0 -90 -38 -90 -100v-88h203v110c21 17 54 26 87 27v-137
h147c4 -8 6 -21 6 -39s-2 -32 -6 -40h-147v-257c0 -54 14 -85 74 -85c30 0 66 11 96 36c4 -31 -6 -71 -21 -89c-21 -14 -44 -24 -76 -27l-7 -32c35 -12 61 -36 61 -78c0 -61 -54 -98 -118 -108c-20 10 -37 27 -46 48c46 6 82 25 82 56c0 26 -27 43 -60 49z" />
    <glyph glyph-name="f_uni021B" unicode="f&#x21b;" horiz-adv-x="670" 
d="M41 482h63v82c0 142 68 185 159 185c41 0 73 -9 99 -27c14 -19 20 -57 15 -85c-32 24 -62 33 -96 33c-70 0 -90 -38 -90 -100v-88h203v110c21 17 54 26 87 27v-137h147c4 -8 6 -21 6 -39s-2 -32 -6 -40h-147v-257c0 -54 14 -85 74 -85c30 0 66 11 96 36
c4 -31 -6 -71 -21 -89c-26 -18 -58 -28 -101 -28c-96 0 -135 50 -135 155v268h-203v-398c-9 -5 -22 -7 -43 -7s-35 2 -44 7v398h-75c0 30 4 58 12 79zM485 -61c23 11 49 17 84 17c-3 -69 -29 -156 -53 -200c-27 2 -52 13 -64 28c16 43 29 99 33 155z" />
    <glyph glyph-name="i_j" unicode="ij" horiz-adv-x="521" 
d="M85 5v472c9 5 23 7 44 7s34 -2 43 -7v-472c-9 -5 -22 -7 -43 -7s-35 2 -44 7zM129 711c35 0 58 -20 58 -57c0 -39 -23 -60 -58 -60c-38 0 -58 20 -58 59c0 36 24 58 58 58zM438 477v-387c0 -173 -58 -258 -146 -330c-25 9 -44 30 -51 58c63 54 110 119 110 249v410
c9 5 23 7 44 7s34 -2 43 -7zM394 711c35 0 58 -20 58 -57c0 -39 -23 -60 -58 -60c-38 0 -58 20 -58 59c0 36 24 58 58 58z" />
    <glyph glyph-name=".notdef" horiz-adv-x="736" 
d="M102 0v724h532v-724h-532zM245 587c-13 -17 -19 -51 -16 -75c37 32 85 50 132 50c56 0 77 -26 77 -54c0 -70 -137 -96 -137 -195c0 -32 14 -59 38 -76c21 2 40 14 51 31c-14 14 -20 23 -20 43c0 63 145 92 145 205c0 71 -49 111 -138 111c-63 0 -106 -20 -132 -40z
M365 185c-27 0 -46 -17 -46 -45c0 -30 17 -46 46 -46c28 0 45 16 45 46c0 29 -18 45 -45 45z" />
    <glyph glyph-name=".null" horiz-adv-x="0" 
 />
    <glyph glyph-name=".null" horiz-adv-x="0" 
 />
    <glyph glyph-name="CR" unicode="&#xd;" horiz-adv-x="196" 
 />
    <glyph glyph-name="space" unicode=" " horiz-adv-x="196" 
 />
    <glyph glyph-name="exclam" unicode="!" horiz-adv-x="296" 
d="M197 695l-11 -488c-7 -4 -22 -7 -41 -7s-33 3 -40 7l-12 481c14 6 34 12 63 12c18 0 31 -2 41 -5zM146 104c36 0 59 -20 59 -58c0 -40 -22 -61 -59 -61c-38 0 -60 20 -60 60c0 38 24 59 60 59z" />
    <glyph glyph-name="quotedbl" unicode="&#x22;" horiz-adv-x="372" 
d="M130 496c-28 0 -53 3 -72 12c7 72 11 159 11 227c33 0 57 -4 84 -14c0 -57 -11 -160 -23 -225zM306 496c-28 0 -53 3 -72 12c7 72 11 159 11 227c33 0 57 -4 84 -14c0 -57 -11 -160 -23 -225z" />
    <glyph glyph-name="numbersign" unicode="#" horiz-adv-x="559" 
d="M68 419h88l18 103c16 9 47 15 76 15l-20 -118h156l17 103c16 9 46 15 75 15l-19 -118h84c3 -6 4 -15 4 -23c0 -17 -4 -35 -9 -42h-89l-26 -159h85c3 -6 4 -15 4 -23c0 -17 -4 -35 -9 -42h-91l-20 -125c-6 -5 -20 -7 -41 -7c-16 0 -29 2 -36 7l21 125h-155l-22 -125
c-6 -5 -20 -7 -41 -7c-16 0 -29 2 -36 7l22 125h-92c1 20 8 50 18 65h86l28 159h-94c1 20 8 50 18 65zM219 354l-27 -159h155l28 159h-156z" />
    <glyph glyph-name="dollar" unicode="$" horiz-adv-x="480" 
d="M46 102c47 -27 118 -45 183 -45c86 0 121 31 121 83c0 127 -287 65 -287 256c0 88 56 142 150 153v70c20 7 46 11 75 11v-81c40 -4 74 -14 105 -32c14 -21 23 -61 18 -88c-42 29 -92 46 -152 46c-76 0 -107 -27 -107 -69c0 -119 286 -64 286 -257
c0 -113 -74 -158 -168 -167v-73c-6 -4 -19 -7 -37 -7s-30 3 -38 7v72c-50 4 -95 16 -127 31c-17 24 -26 61 -22 90z" />
    <glyph glyph-name="percent" unicode="%" horiz-adv-x="909" 
d="M688 536l-387 -570c-25 4 -52 21 -61 43l371 549c29 0 56 -7 77 -22zM197 551c95 0 157 -56 157 -158c0 -105 -63 -165 -157 -165c-101 0 -158 59 -158 165c0 99 64 158 158 158zM114 393c0 -62 30 -100 83 -100s82 40 82 100c0 58 -31 93 -82 93c-54 0 -83 -35 -83 -93z
M713 303c95 0 157 -56 157 -158c0 -105 -63 -165 -157 -165c-101 0 -158 59 -158 165c0 99 64 158 158 158zM630 145c0 -62 30 -100 83 -100s82 40 82 100c0 58 -31 93 -82 93c-54 0 -83 -35 -83 -93z" />
    <glyph glyph-name="ampersand" unicode="&#x26;" horiz-adv-x="717" 
d="M482 152c-84 86 -160 139 -225 175c-75 -23 -127 -71 -127 -149c0 -92 75 -123 158 -123c89 0 150 37 194 97zM284 405c72 23 105 68 105 123c0 69 -53 92 -103 92c-43 0 -106 -20 -106 -94c0 -63 42 -93 104 -121zM611 -2c-26 36 -47 64 -73 92
c-59 -68 -140 -113 -259 -113s-238 47 -238 193c0 109 67 175 147 199v4c-58 31 -92 80 -92 152c0 121 97 168 192 168c93 0 184 -44 184 -158c0 -80 -46 -145 -117 -170v-4c52 -31 121 -82 174 -136c26 46 42 108 45 171c19 12 50 17 87 17c-4 -85 -28 -180 -72 -249
c43 -46 89 -107 119 -156c-13 -9 -35 -15 -61 -15c-15 0 -30 2 -36 5z" />
    <glyph glyph-name="quotesingle" unicode="'" horiz-adv-x="196" 
d="M130 496c-28 0 -53 3 -72 12c7 72 11 159 11 227c33 0 57 -4 84 -14c0 -57 -11 -160 -23 -225z" />
    <glyph glyph-name="parenleft" unicode="(" horiz-adv-x="312" 
d="M235 -219c-118 168 -162 350 -162 504c0 169 55 348 157 495c31 -7 49 -24 62 -45c-83 -128 -132 -288 -132 -449c0 -166 50 -324 145 -463c-14 -22 -42 -37 -70 -42z" />
    <glyph glyph-name="parenright" unicode=")" horiz-adv-x="312" 
d="M9 -177c94 141 143 293 143 461c0 166 -48 321 -130 448c11 21 37 42 64 49c114 -164 153 -344 153 -492c0 -159 -45 -340 -160 -511c-31 6 -58 23 -70 45z" />
    <glyph glyph-name="asterisk" unicode="*" horiz-adv-x="417" 
d="M181 592l4 2c-7 15 -10 28 -11 43l-4 98c17 8 39 11 67 11l-4 -108c-1 -14 -5 -31 -11 -44l4 -2c9 14 20 24 32 32l86 54c15 -11 31 -33 42 -55l-98 -52c-10 -5 -30 -10 -45 -12v-4c14 -2 31 -7 44 -13l94 -47c0 -21 -17 -51 -34 -62l-90 58c-13 8 -23 20 -31 31l-4 -2
c5 -12 10 -29 11 -42l5 -104c-7 -4 -19 -6 -34 -6s-28 2 -35 6l5 104c1 13 6 30 12 41l-4 2c-6 -9 -22 -23 -31 -29l-87 -58c-17 11 -32 40 -34 63l91 46c10 5 29 10 42 11v4c-16 2 -31 6 -42 12l-88 47c2 17 11 45 24 65l92 -57c13 -8 23 -18 32 -33z" />
    <glyph glyph-name="plus" unicode="+" 
d="M54 310h189v190c21 9 50 13 82 13v-203h195c4 -8 6 -20 6 -39s-2 -31 -6 -39h-195v-197c-7 -4 -22 -7 -41 -7s-34 3 -41 7v197h-202c0 24 5 61 13 78z" />
    <glyph glyph-name="comma" unicode="," horiz-adv-x="230" 
d="M79 73c23 11 53 17 90 17c-4 -87 -40 -199 -71 -252c-28 3 -52 13 -67 29c26 59 44 136 48 206z" />
    <glyph glyph-name="hyphen" unicode="-" horiz-adv-x="341" 
d="M53 314h239c4 -8 6 -22 6 -40c0 -19 -2 -34 -6 -42h-253c0 29 5 62 14 82z" />
    <glyph glyph-name="period" unicode="." horiz-adv-x="241" 
d="M120 104c36 0 59 -20 59 -58c0 -40 -22 -61 -59 -61c-38 0 -60 20 -60 60c0 38 24 59 60 59z" />
    <glyph glyph-name="slash" unicode="/" horiz-adv-x="425" 
d="M411 723l-341 -900c-30 0 -61 14 -74 30l339 888c31 0 56 -5 76 -18z" />
    <glyph glyph-name="zero" unicode="0" horiz-adv-x="616" 
d="M309 551c152 0 254 -99 254 -280c0 -185 -100 -291 -254 -291c-163 0 -256 103 -256 291c0 176 105 280 256 280zM144 271c0 -132 58 -211 165 -211c106 0 163 83 163 211c0 122 -62 201 -163 201c-108 0 -165 -79 -165 -201z" />
    <glyph glyph-name="one" unicode="1" horiz-adv-x="384" 
d="M184 5v448l-156 -27c1 26 10 60 20 80c42 15 146 36 225 44v-545c-9 -5 -23 -7 -44 -7s-36 2 -45 7z" />
    <glyph glyph-name="two" unicode="2" horiz-adv-x="548" 
d="M190 81h303c0 -29 -3 -58 -11 -81h-416c-9 22 -15 52 -15 86c113 74 326 172 326 294c0 60 -51 89 -127 89c-65 0 -126 -21 -186 -62c-4 29 7 71 22 92c40 27 101 52 184 52c117 0 200 -48 200 -155c0 -154 -179 -262 -280 -311v-4z" />
    <glyph glyph-name="three" unicode="3" horiz-adv-x="544" 
d="M136 183c-6 20 -3 59 7 77c110 1 229 42 229 128c0 62 -64 83 -133 83c-64 0 -130 -18 -177 -44c-4 22 4 65 22 87c41 22 111 37 177 37c110 0 204 -43 204 -149c0 -91 -66 -151 -152 -169v-4c93 -10 171 -48 171 -155c0 -137 -133 -197 -278 -197c-54 0 -108 8 -146 21
c-16 23 -24 59 -20 87c43 -17 106 -26 159 -26c98 0 192 32 192 119c0 72 -64 105 -255 105z" />
    <glyph glyph-name="four" unicode="4" horiz-adv-x="592" 
d="M470 72v-164c-9 -5 -23 -7 -44 -7s-36 2 -45 7v164h-344c-9 21 -14 50 -14 79c97 137 209 265 336 391c37 -1 82 -9 111 -22v-369h88c4 -8 6 -21 6 -39s-2 -32 -6 -40h-88zM381 151v221c0 29 3 66 8 86h-4c-96 -95 -186 -205 -258 -307v-4c22 4 49 4 77 4h177z" />
    <glyph glyph-name="five" unicode="5" horiz-adv-x="545" 
d="M110 531h387c0 -31 -3 -58 -12 -82h-301l-15 -177c24 7 65 12 106 12c133 0 215 -54 215 -180c0 -161 -136 -227 -282 -227c-51 0 -105 8 -136 18c-16 20 -25 59 -22 87c37 -13 97 -22 150 -22c106 0 199 35 199 137c0 79 -55 108 -164 108c-49 0 -101 -6 -153 -21z" />
    <glyph glyph-name="six" unicode="6" horiz-adv-x="583" 
d="M384 565c-129 0 -218 -82 -231 -253h4c31 51 83 84 172 84c138 0 207 -83 207 -198c0 -132 -91 -218 -236 -218c-161 0 -238 104 -238 289c0 247 133 376 313 376c46 0 85 -8 118 -26c16 -19 25 -62 21 -88c-38 24 -85 34 -130 34zM307 317c-71 0 -115 -31 -155 -80v-4
c0 -109 55 -174 152 -174c91 0 142 57 142 133c0 74 -50 125 -139 125z" />
    <glyph glyph-name="seven" unicode="7" horiz-adv-x="515" 
d="M392 447h-364c0 26 6 61 15 84h437c8 -17 14 -49 14 -76c-120 -162 -234 -379 -278 -546c-11 -6 -30 -9 -53 -9c-28 0 -42 4 -49 8c47 167 158 382 278 535v4z" />
    <glyph glyph-name="eight" unicode="8" horiz-adv-x="574" 
d="M194 331v4c-64 22 -111 69 -111 146c0 118 103 164 209 164c105 0 205 -42 205 -154c0 -88 -54 -139 -109 -155v-4c70 -22 129 -72 129 -169c0 -127 -105 -183 -234 -183c-110 0 -227 42 -227 174c0 102 63 155 138 177zM275 290c-83 -20 -130 -59 -130 -125
c0 -80 72 -108 143 -108c68 0 138 27 138 101c0 79 -68 108 -151 132zM306 373c68 21 105 58 105 109c0 65 -64 87 -122 87c-56 0 -117 -20 -117 -85c0 -66 58 -86 134 -111z" />
    <glyph glyph-name="nine" unicode="9" horiz-adv-x="577" 
d="M193 -42c134 0 221 91 231 262h-4c-28 -47 -78 -85 -167 -85c-131 0 -204 81 -204 198c0 133 91 218 232 218c157 0 235 -108 235 -290c0 -255 -133 -384 -313 -384c-46 0 -91 7 -127 25c-17 19 -27 66 -23 90c39 -23 93 -34 140 -34zM275 214c68 0 112 30 151 78v4
c0 105 -57 177 -149 177c-87 0 -137 -57 -137 -134c0 -75 47 -125 135 -125z" />
    <glyph glyph-name="colon" unicode=":" horiz-adv-x="251" 
d="M126 116c36 0 59 -20 59 -58c0 -40 -22 -61 -59 -61c-38 0 -60 20 -60 60c0 38 24 59 60 59zM126 481c35 0 58 -20 58 -57c0 -39 -22 -60 -58 -60c-37 0 -59 20 -59 59c0 37 24 58 59 58z" />
    <glyph glyph-name="semicolon" unicode=";" horiz-adv-x="249" 
d="M88 73c23 11 53 17 90 17c-4 -87 -40 -199 -71 -252c-28 3 -52 13 -67 29c26 59 44 136 48 206zM132 481c35 0 58 -20 58 -57c0 -39 -22 -60 -58 -60c-37 0 -59 20 -59 59c0 37 24 58 59 58z" />
    <glyph glyph-name="less" unicode="&#x3c;" 
d="M97 309l309 213c23 -9 48 -28 64 -49l-296 -199v-4l290 -197c-5 -25 -25 -54 -48 -64l-329 229c0 24 2 52 10 71z" />
    <glyph glyph-name="equal" unicode="=" 
d="M69 408h437c4 -8 6 -20 6 -38c0 -17 -2 -30 -6 -38h-450c0 24 5 60 13 76zM69 209h437c4 -8 6 -20 6 -38c0 -17 -2 -30 -6 -38h-450c0 24 5 60 13 76z" />
    <glyph glyph-name="greater" unicode="&#x3e;" 
d="M484 242l-331 -233c-24 12 -43 39 -47 65l291 195v4l-297 203c18 21 40 38 66 48l307 -211c7 -19 11 -47 11 -71z" />
    <glyph glyph-name="question" unicode="?" horiz-adv-x="409" 
d="M9 566c-3 31 6 75 23 97c35 28 95 55 180 55c122 0 188 -55 188 -152c0 -153 -199 -192 -199 -282c0 -29 8 -43 29 -63c-15 -21 -41 -35 -68 -38c-31 24 -51 59 -51 103c0 134 188 168 188 269c0 41 -29 79 -109 79c-64 0 -129 -24 -181 -68zM195 104c36 0 59 -20 59 -58
c0 -40 -22 -61 -59 -61c-38 0 -60 20 -60 60c0 38 24 59 60 59z" />
    <glyph glyph-name="at" unicode="@" horiz-adv-x="1007" 
d="M705 431l-37 -276c-8 -59 13 -78 51 -78c76 0 181 80 181 256c0 220 -169 317 -357 317c-260 0 -423 -177 -423 -430c0 -240 148 -386 388 -386c97 0 197 24 264 66c15 -9 30 -35 33 -55c-79 -52 -197 -80 -306 -80c-275 0 -453 174 -453 450c0 298 196 503 501 503
c240 0 425 -134 425 -384c0 -226 -153 -330 -270 -330c-58 0 -96 23 -107 71h-4c-26 -47 -85 -71 -143 -71c-92 0 -153 53 -153 179c0 147 84 291 260 291c65 0 118 -20 150 -43zM585 149l35 239c-15 10 -43 15 -69 15c-122 0 -169 -116 -169 -211c0 -80 33 -110 87 -110
c46 0 92 22 116 67z" />
    <glyph glyph-name="A" unicode="A" horiz-adv-x="656" 
d="M543 6l-70 194h-292l-69 -194c-10 -5 -25 -8 -49 -8c-22 0 -37 3 -45 8l255 691c11 4 35 6 56 6s45 -2 56 -6l253 -691c-8 -5 -24 -8 -46 -8c-24 0 -39 3 -49 8zM208 278h238l-53 150c-26 73 -48 143 -64 216h-4c-15 -70 -40 -147 -64 -215z" />
    <glyph glyph-name="B" unicode="B" horiz-adv-x="652" 
d="M465 369v-4c85 -21 145 -69 145 -169c0 -144 -125 -201 -286 -201c-81 0 -161 2 -224 8v684c59 11 118 17 194 17c162 0 279 -51 279 -182c0 -81 -44 -135 -108 -153zM191 321v-242c38 -3 81 -4 126 -4c126 0 200 38 200 122c0 83 -72 124 -189 124h-137zM191 618v-218
h137c93 0 153 37 153 110c0 81 -74 115 -188 115c-39 0 -71 -1 -102 -7z" />
    <glyph glyph-name="C" unicode="C" horiz-adv-x="624" 
d="M571 595c-50 26 -102 39 -158 39c-152 0 -263 -86 -263 -288c0 -196 104 -284 253 -284c67 0 130 18 176 41c1 -25 -10 -66 -25 -86c-43 -22 -106 -40 -178 -40c-200 0 -320 136 -320 362c0 249 144 379 340 379c57 0 114 -11 154 -34c15 -21 24 -61 21 -89z" />
    <glyph glyph-name="D" unicode="D" horiz-adv-x="697" 
d="M100 1v688c60 10 115 13 175 13c223 0 381 -113 381 -355c0 -241 -157 -352 -356 -352c-66 0 -133 1 -200 6zM191 616v-536c35 -3 73 -4 107 -4c163 0 264 88 264 266c0 191 -117 280 -289 280c-27 0 -56 -1 -82 -6z" />
    <glyph glyph-name="E" unicode="E" horiz-adv-x="608" 
d="M100 695h441c5 -10 7 -23 7 -40s-2 -30 -7 -40h-350v-222h325c5 -10 7 -22 7 -39s-2 -30 -7 -40h-325v-233h359c5 -10 7 -23 7 -40s-2 -31 -7 -41h-450v695z" />
    <glyph glyph-name="F" unicode="F" horiz-adv-x="552" 
d="M100 5v690h419c5 -10 7 -23 7 -40s-2 -31 -7 -41h-328v-240h305c5 -10 7 -23 7 -40s-2 -30 -7 -40h-305v-289c-9 -5 -23 -7 -45 -7s-37 2 -46 7z" />
    <glyph glyph-name="G" unicode="G" horiz-adv-x="698" 
d="M633 31c-57 -29 -149 -54 -240 -54c-212 0 -337 133 -337 360c0 249 149 381 359 381c66 0 126 -12 170 -36c14 -22 23 -60 19 -89c-55 28 -114 42 -177 42c-161 0 -277 -87 -277 -291c0 -196 104 -283 256 -283c53 0 105 11 140 26v214h-176c-3 7 -6 21 -6 40
c0 17 3 31 6 38h263v-348z" />
    <glyph glyph-name="H" unicode="H" horiz-adv-x="750" 
d="M559 5v315h-368v-315c-9 -5 -23 -7 -45 -7s-37 2 -46 7v685c9 5 24 7 46 7s36 -2 45 -7v-290h368v290c9 5 24 7 46 7s36 -2 45 -7v-685c-9 -5 -23 -7 -45 -7s-37 2 -46 7z" />
    <glyph glyph-name="I" unicode="I" horiz-adv-x="291" 
d="M100 5v685c9 5 24 7 46 7s36 -2 45 -7v-685c-9 -5 -23 -7 -45 -7s-37 2 -46 7z" />
    <glyph glyph-name="J" unicode="J" horiz-adv-x="324" 
d="M228 690v-540c0 -181 -67 -286 -201 -351c-21 14 -37 44 -41 74c109 58 151 134 151 264v553c9 5 24 7 46 7s36 -2 45 -7z" />
    <glyph glyph-name="K" unicode="K" horiz-adv-x="638" 
d="M100 5v685c9 5 24 7 46 7s36 -2 45 -7v-294h83l219 293c11 5 31 8 56 8c26 0 40 -3 49 -8l-250 -332l274 -351c-8 -6 -26 -8 -53 -8s-47 2 -60 8l-241 310h-77v-311c-9 -5 -23 -7 -45 -7s-37 2 -46 7z" />
    <glyph glyph-name="L" unicode="L" horiz-adv-x="568" 
d="M531 0h-431v690c9 5 24 7 46 7s36 -2 45 -7v-608h340c5 -10 7 -24 7 -41s-2 -31 -7 -41z" />
    <glyph glyph-name="M" unicode="M" horiz-adv-x="881" 
d="M699 5v627h-4c-12 -58 -31 -120 -50 -175l-158 -458c-8 -4 -26 -7 -47 -7s-39 3 -47 7l-160 459c-15 42 -35 116 -47 174h-4v-627c-9 -5 -20 -7 -41 -7c-20 0 -32 2 -41 7v684c15 5 34 8 65 8c33 0 52 -3 67 -8l153 -428c21 -59 42 -129 54 -195h4c12 67 35 138 55 195
l149 428c15 5 34 8 66 8s53 -3 68 -8v-684c-9 -5 -20 -7 -41 -7c-20 0 -32 2 -41 7z" />
    <glyph glyph-name="N" unicode="N" horiz-adv-x="746" 
d="M185 611v-606c-9 -5 -21 -7 -42 -7s-34 2 -43 7v686c14 4 31 7 60 7c28 0 44 -3 57 -7l272 -447c29 -47 53 -100 68 -153h4v599c9 5 21 7 42 7s34 -2 43 -7v-688c-12 -4 -28 -7 -57 -7c-27 0 -44 3 -55 7l-284 467c-25 40 -47 93 -61 142h-4z" />
    <glyph glyph-name="O" unicode="O" horiz-adv-x="744" 
d="M372 718c187 0 314 -127 314 -363c0 -244 -123 -378 -314 -378c-200 0 -314 127 -314 378c0 227 129 363 314 363zM152 355c0 -187 79 -295 220 -295c143 0 220 110 220 295c0 174 -86 281 -220 281c-144 0 -220 -107 -220 -281z" />
    <glyph glyph-name="P" unicode="P" horiz-adv-x="606" 
d="M100 5v684c56 11 120 16 186 16c187 0 299 -71 299 -232c0 -163 -114 -234 -270 -234c-37 0 -97 4 -124 8v-242c-9 -5 -23 -7 -45 -7s-37 2 -46 7zM287 625c-33 0 -66 -2 -96 -8v-289c27 -5 74 -9 111 -9c121 0 190 41 190 147c0 114 -79 159 -205 159z" />
    <glyph glyph-name="Q" unicode="Q" horiz-adv-x="744" 
d="M373 718c188 0 315 -127 315 -363c0 -162 -54 -275 -147 -334c30 -74 84 -105 163 -105c37 0 68 7 96 18c2 -24 -7 -60 -23 -77c-25 -11 -57 -20 -101 -20c-106 0 -180 56 -218 150c-24 -7 -55 -10 -85 -10c-201 0 -315 127 -315 378c0 227 129 363 315 363zM152 355
c0 -187 79 -295 221 -295c144 0 221 110 221 295c0 174 -86 281 -221 281c-145 0 -221 -107 -221 -281z" />
    <glyph glyph-name="R" unicode="R" horiz-adv-x="650" 
d="M100 5v684c55 11 119 16 184 16c185 0 296 -67 296 -221c0 -105 -52 -170 -132 -199l178 -279c-8 -6 -26 -8 -48 -8c-29 0 -46 2 -60 8l-160 258c-8 -1 -30 -2 -45 -2c-36 0 -95 4 -122 8v-265c-9 -5 -23 -7 -45 -7s-37 2 -46 7zM285 625c-32 0 -64 -2 -94 -8v-267
c27 -5 73 -9 109 -9c120 0 187 39 187 137c0 105 -78 147 -202 147z" />
    <glyph glyph-name="S" unicode="S" horiz-adv-x="561" 
d="M50 119c57 -37 142 -59 217 -59c110 0 157 46 157 118c0 187 -354 102 -354 348c0 123 83 192 221 192c65 0 123 -15 171 -47c14 -23 23 -66 18 -97c-51 38 -115 62 -184 62c-89 0 -134 -39 -134 -98c0 -174 353 -97 353 -348c0 -161 -115 -213 -249 -213
c-79 0 -150 18 -198 45c-16 25 -22 67 -18 97z" />
    <glyph glyph-name="T" unicode="T" horiz-adv-x="578" 
d="M551 614h-216v-609c-9 -5 -23 -7 -45 -7s-37 2 -46 7v609h-217c-5 10 -7 24 -7 41s2 30 7 40h524c5 -10 7 -23 7 -40s-2 -31 -7 -41z" />
    <glyph glyph-name="U" unicode="U" horiz-adv-x="724" 
d="M182 690v-435c0 -137 58 -195 180 -195c131 0 186 79 186 198v432c9 5 23 7 45 7s35 -2 44 -7v-425c0 -177 -85 -288 -279 -288c-179 0 -267 89 -267 270v443c9 5 24 7 46 7s36 -2 45 -7z" />
    <glyph glyph-name="V" unicode="V" horiz-adv-x="640" 
d="M321 60h4c11 57 27 120 43 165l163 464c11 6 21 8 46 8c24 0 36 -3 47 -8l-248 -691c-12 -4 -34 -6 -56 -6s-43 2 -55 6l-247 691c8 5 25 8 47 8c23 0 38 -3 48 -8l165 -467c15 -43 32 -105 43 -162z" />
    <glyph glyph-name="W" unicode="W" horiz-adv-x="954" 
d="M684 55h4c6 50 14 95 25 137l127 498c8 5 24 7 44 7c22 0 34 -2 42 -7l-182 -692c-13 -4 -37 -6 -61 -6s-50 2 -63 6l-112 480c-11 48 -23 108 -30 161h-4c-6 -51 -18 -116 -30 -163l-119 -478c-13 -4 -38 -6 -62 -6s-48 2 -61 6l-173 691c9 5 22 8 44 8
c21 0 37 -2 47 -8l119 -491c9 -36 18 -92 24 -143h4c6 51 15 104 24 141l125 501c13 4 38 6 62 6s50 -2 63 -6l117 -501c10 -45 20 -92 26 -141z" />
    <glyph glyph-name="X" unicode="X" horiz-adv-x="617" 
d="M159 689l124 -194c15 -23 27 -43 35 -65h4c9 22 22 44 37 66l127 193c12 5 31 8 54 8c25 0 39 -3 48 -8l-217 -325l230 -358c-9 -6 -25 -8 -51 -8c-25 0 -43 2 -55 8l-145 229c-15 23 -27 43 -35 65h-4c-9 -22 -22 -44 -37 -66l-150 -228c-12 -6 -31 -8 -54 -8
s-42 2 -50 8l241 361l-205 322c7 6 23 8 46 8c25 0 45 -3 57 -8z" />
    <glyph glyph-name="Y" unicode="Y" horiz-adv-x="583" 
d="M248 255l-237 434c8 5 27 8 49 8c25 0 41 -3 51 -8l136 -253c19 -36 35 -75 46 -118h4c11 41 30 87 47 120l134 251c10 5 26 8 50 8c21 0 38 -3 46 -8l-235 -433v-251c-9 -5 -23 -7 -45 -7s-37 2 -46 7v250z" />
    <glyph glyph-name="Z" unicode="Z" horiz-adv-x="584" 
d="M530 624l-370 -539v-4h377c5 -10 7 -23 7 -40s-2 -31 -7 -41h-479c-9 22 -12 46 -12 73l372 538v4h-354c-5 10 -7 23 -7 40s2 30 7 40h455c8 -21 11 -43 11 -71z" />
    <glyph glyph-name="bracketleft" unicode="[" horiz-adv-x="302" 
d="M89 -194v945h179c6 -18 9 -48 9 -76h-104v-792h101c4 -7 6 -21 6 -38s-2 -32 -6 -39h-185z" />
    <glyph glyph-name="backslash" unicode="\" horiz-adv-x="425" 
d="M83 756l346 -905c-18 -19 -46 -30 -76 -31l-335 888c12 20 39 41 65 48z" />
    <glyph glyph-name="bracketright" unicode="]" horiz-adv-x="302" 
d="M213 751v-945h-185c-4 7 -6 22 -6 39s2 31 6 38h101v792h-103c0 28 3 58 9 76h178z" />
    <glyph glyph-name="asciicircum" unicode="^" 
d="M314 678l198 -317c-14 -21 -40 -35 -69 -38l-126 202c-14 23 -29 54 -39 88h-4c-9 -31 -24 -66 -38 -89l-130 -207c-23 14 -43 37 -52 62l181 290c20 5 52 8 79 9z" />
    <glyph glyph-name="underscore" unicode="_" horiz-adv-x="500" 
d="M-1 -163h502c4 -7 6 -20 6 -37c0 -18 -2 -31 -6 -39h-515c0 27 4 58 13 76z" />
    <glyph glyph-name="grave" unicode="`" horiz-adv-x="434" 
d="M306 591c-11 -20 -31 -32 -56 -36l-140 158c19 19 53 28 84 28z" />
    <glyph glyph-name="a" unicode="a" horiz-adv-x="521" 
d="M349 39h-4c-29 -38 -75 -59 -141 -59c-86 0 -161 41 -161 150c0 117 87 165 200 165c33 0 71 -4 100 -16v26c0 83 -32 118 -110 118c-57 0 -111 -18 -153 -44c-7 25 -4 64 10 87c34 20 93 36 159 36c119 0 180 -51 180 -188v-218c0 -29 15 -37 35 -37c19 0 37 7 47 14
c2 -26 -4 -57 -17 -75c-17 -10 -39 -18 -66 -18c-45 0 -71 22 -79 59zM343 111v98c-25 9 -53 15 -87 15c-83 0 -126 -37 -126 -90c0 -52 42 -75 96 -75c43 0 91 14 117 52z" />
    <glyph glyph-name="b" unicode="b" horiz-adv-x="566" 
d="M172 735v-188c0 -41 -2 -88 -7 -126h4c19 45 66 81 147 81c103 0 202 -62 202 -244c0 -185 -99 -278 -268 -278c-55 0 -115 10 -165 31v705c20 12 50 19 87 19zM172 355v-288c20 -7 50 -11 79 -11c129 0 178 77 178 192s-49 174 -136 174c-63 0 -97 -32 -121 -67z" />
    <glyph glyph-name="c" unicode="c" horiz-adv-x="481" 
d="M136 244c0 -124 65 -182 171 -182c51 0 94 15 131 37c3 -27 -8 -69 -24 -87c-32 -18 -77 -32 -136 -32c-148 0 -231 98 -231 257c0 182 107 265 241 265c54 0 96 -12 124 -30c14 -19 21 -57 16 -86c-39 24 -76 35 -123 35c-102 0 -169 -56 -169 -177z" />
    <glyph glyph-name="d" unicode="d" horiz-adv-x="567" 
d="M395 483v233c20 12 50 19 87 19v-729c-17 -10 -40 -14 -65 -14l-12 57h-4c-30 -43 -80 -69 -149 -69c-121 0 -204 81 -204 246c0 179 96 276 244 276c42 0 79 -8 103 -19zM395 114v295c-23 11 -53 16 -84 16c-124 0 -174 -81 -174 -194c0 -111 49 -169 139 -169
c61 0 94 27 119 52z" />
    <glyph glyph-name="e" unicode="e" horiz-adv-x="526" 
d="M466 214h-329c4 -109 72 -155 180 -155c61 0 112 15 151 38c3 -28 -8 -65 -22 -81c-31 -19 -83 -36 -149 -36c-161 0 -250 100 -250 256c0 155 90 266 238 266c132 0 193 -86 193 -207c0 -30 -4 -57 -12 -81zM138 287h254c7 66 -14 140 -111 140
c-85 0 -136 -56 -143 -140z" />
    <glyph glyph-name="f" unicode="f" horiz-adv-x="326" 
d="M41 482h63v82c0 142 68 185 159 185c41 0 73 -9 99 -27c14 -19 20 -57 15 -85c-32 24 -62 33 -96 33c-70 0 -90 -38 -90 -100v-88h134c4 -8 6 -21 6 -39s-2 -32 -6 -40h-134v-398c-9 -5 -22 -7 -43 -7s-35 2 -44 7v398h-75c0 30 4 58 12 79z" />
    <glyph glyph-name="g" unicode="g" horiz-adv-x="515" 
d="M249 142c-26 0 -54 3 -77 11c-12 -10 -19 -29 -19 -43c0 -37 46 -47 125 -47c130 0 225 -25 225 -147c0 -119 -95 -169 -243 -169c-133 0 -234 41 -234 151c0 66 37 103 77 120v4c-24 16 -37 40 -37 72c0 36 16 66 47 83v4c-33 27 -58 68 -58 141c0 117 78 180 193 180
c36 0 70 -7 98 -20h138c8 -18 12 -45 12 -69h-78v-4c14 -18 24 -45 24 -89c0 -111 -69 -178 -193 -178zM262 -11c-35 0 -61 2 -91 7c-37 -17 -59 -49 -59 -86c0 -68 75 -90 155 -90c89 0 151 27 151 91c0 53 -40 78 -156 78zM138 323c0 -69 39 -108 110 -108
c72 0 111 41 111 108s-40 106 -111 106c-73 0 -110 -41 -110 -106z" />
    <glyph glyph-name="h" unicode="h" horiz-adv-x="583" 
d="M172 344v-339c-9 -5 -22 -7 -43 -7s-35 2 -44 7v711c20 12 50 19 87 19v-181c0 -56 -2 -98 -8 -138h4c21 44 67 86 165 86c81 0 171 -28 171 -190v-307c-9 -5 -22 -7 -43 -7s-35 2 -44 7v289c0 79 -26 127 -109 127c-73 0 -115 -37 -136 -77z" />
    <glyph glyph-name="i" unicode="i" horiz-adv-x="257" 
d="M85 5v472c9 5 23 7 44 7s34 -2 43 -7v-472c-9 -5 -22 -7 -43 -7s-35 2 -44 7zM129 711c35 0 58 -20 58 -57c0 -39 -23 -60 -58 -60c-38 0 -58 20 -58 59c0 36 24 58 58 58z" />
    <glyph glyph-name="j" unicode="j" horiz-adv-x="264" 
d="M181 477v-387c0 -173 -58 -258 -146 -330c-25 9 -44 30 -51 58c63 54 110 119 110 249v410c9 5 23 7 44 7s34 -2 43 -7zM137 711c35 0 58 -20 58 -57c0 -39 -23 -60 -58 -60c-38 0 -58 20 -58 59c0 36 24 58 58 58z" />
    <glyph glyph-name="k" unicode="k" horiz-adv-x="525" 
d="M172 297h71l147 184c7 3 23 5 37 5c26 0 50 -5 60 -11l-175 -216c62 -90 117 -166 199 -254c-8 -5 -30 -8 -51 -8c-26 0 -52 3 -63 8c-61 70 -109 137 -163 220h-62v-220c-9 -5 -22 -7 -43 -7s-35 2 -44 7v711c20 12 50 19 87 19v-438z" />
    <glyph glyph-name="l" unicode="l" horiz-adv-x="290" 
d="M257 -2c-17 -11 -43 -18 -72 -18c-68 0 -102 39 -102 119v617c20 12 50 19 87 19v-620c0 -44 16 -55 45 -55c24 0 46 8 61 20c2 -29 -5 -64 -19 -82z" />
    <glyph glyph-name="m" unicode="m" horiz-adv-x="895" 
d="M172 344v-339c-9 -5 -22 -7 -43 -7s-35 2 -44 7v471c17 9 43 14 71 14l6 -75h4c22 44 67 87 162 87c64 0 123 -18 151 -90h4c20 44 68 90 166 90c80 0 167 -28 167 -190v-307c-9 -5 -22 -7 -43 -7s-35 2 -44 7v290c0 77 -25 126 -105 126c-72 0 -109 -36 -131 -78
c1 -6 2 -27 2 -44v-294c-9 -5 -22 -7 -43 -7s-35 2 -44 7v289c0 77 -25 127 -105 127c-70 0 -111 -37 -131 -77z" />
    <glyph glyph-name="n" unicode="n" horiz-adv-x="579" 
d="M172 344v-339c-9 -5 -22 -7 -43 -7s-35 2 -44 7v471c17 9 43 14 71 14l6 -75h4c22 46 72 87 166 87c79 0 168 -28 168 -190v-307c-9 -5 -22 -7 -43 -7s-35 2 -44 7v290c0 77 -25 126 -108 126c-71 0 -112 -37 -133 -77z" />
    <glyph glyph-name="o" unicode="o" horiz-adv-x="555" 
d="M278 502c139 0 228 -89 228 -254c0 -174 -87 -268 -228 -268c-148 0 -229 90 -229 268c0 160 90 254 229 254zM138 248c0 -121 47 -192 140 -192s139 72 139 192c0 110 -51 178 -139 178c-94 0 -140 -69 -140 -178z" />
    <glyph glyph-name="p" unicode="p" horiz-adv-x="559" 
d="M162 417h4c20 44 65 85 152 85c102 0 201 -61 201 -243c0 -158 -73 -279 -245 -279c-35 0 -77 5 -102 18v-226c-9 -5 -22 -7 -43 -7s-35 2 -44 7v704c18 9 45 14 71 14zM172 353v-279c24 -10 53 -16 86 -16c124 0 172 82 172 193c0 113 -49 170 -136 170
c-66 0 -99 -35 -122 -68z" />
    <glyph glyph-name="q" unicode="q" horiz-adv-x="565" 
d="M402 56h-4c-20 -40 -63 -76 -144 -76c-105 0 -206 60 -206 243s101 279 266 279c61 0 116 -13 168 -43v-687c-9 -5 -22 -7 -43 -7s-35 2 -44 7v153c0 44 2 92 7 131zM395 128v282c-22 11 -45 17 -81 17c-126 0 -177 -78 -177 -194c0 -114 50 -172 138 -172
c63 0 97 31 120 67z" />
    <glyph glyph-name="r" unicode="r" horiz-adv-x="385" 
d="M167 402c21 60 60 100 137 100c22 0 41 -3 52 -9c8 -14 13 -31 13 -56c0 -18 -3 -30 -6 -37c-16 9 -38 15 -62 15c-61 0 -104 -39 -129 -113v-297c-9 -5 -22 -7 -43 -7s-35 2 -44 7v471c17 9 43 14 71 14l7 -88h4z" />
    <glyph glyph-name="s" unicode="s" horiz-adv-x="444" 
d="M50 103c39 -29 105 -47 158 -47c65 0 102 26 102 69c0 113 -242 71 -242 236c0 92 57 141 161 141c46 0 93 -10 130 -35c13 -20 20 -62 16 -87c-39 31 -88 47 -137 47c-58 0 -82 -22 -82 -57c0 -103 242 -64 242 -234c0 -113 -83 -156 -188 -156c-51 0 -107 10 -144 32
c-15 22 -20 66 -16 91z" />
    <glyph glyph-name="t" unicode="t" horiz-adv-x="376" 
d="M38 482h62v110c21 17 54 26 87 27v-137h147c4 -8 6 -21 6 -39s-2 -32 -6 -40h-147v-257c0 -54 14 -85 74 -85c30 0 66 11 96 36c4 -31 -6 -71 -21 -89c-26 -18 -58 -28 -101 -28c-96 0 -135 50 -135 155v268h-74c0 30 4 58 12 79z" />
    <glyph glyph-name="u" unicode="u" horiz-adv-x="575" 
d="M411 55h-4c-18 -34 -62 -75 -160 -75c-80 0 -168 29 -168 191v299c21 11 50 18 87 18v-300c0 -81 25 -126 107 -126c65 0 108 29 130 63v352c9 5 23 7 44 7s34 -2 43 -7v-471c-16 -10 -40 -14 -67 -14z" />
    <glyph glyph-name="v" unicode="v" horiz-adv-x="487" 
d="M246 59h4c6 36 17 76 26 102l115 319c7 3 17 6 36 6c24 0 39 -5 50 -12l-176 -470c-32 -9 -67 -12 -107 -12l-182 482c11 7 29 12 53 12c18 0 29 -3 35 -6l118 -319c10 -28 21 -66 28 -102z" />
    <glyph glyph-name="w" unicode="w" horiz-adv-x="755" 
d="M543 63h4c6 42 16 93 27 132l82 285c7 3 17 6 35 6c21 0 36 -5 47 -11l-141 -472c-28 -9 -64 -13 -104 -13l-85 302c-11 38 -20 81 -24 122h-4c-4 -41 -15 -86 -27 -125l-89 -286c-28 -9 -62 -13 -101 -13l-144 484c10 7 24 12 48 12c17 0 29 -3 35 -6l84 -287
c13 -44 22 -86 28 -130h4c4 41 14 87 23 118l89 292c27 10 60 15 106 15l81 -305c8 -31 19 -80 26 -120z" />
    <glyph glyph-name="x" unicode="x" horiz-adv-x="502" 
d="M145 481l81 -117c12 -17 25 -40 31 -55h4c4 14 19 39 30 55l78 117c6 2 19 5 38 5c25 0 42 -5 53 -12l-152 -221l174 -248c-9 -5 -24 -8 -47 -8c-21 0 -45 3 -52 7l-96 138c-13 19 -26 40 -32 56h-4c-4 -15 -19 -38 -31 -55l-96 -139c-11 -5 -32 -7 -53 -7
c-22 0 -37 2 -45 8l177 250l-152 219c11 7 30 12 55 12c20 0 33 -3 39 -5z" />
    <glyph glyph-name="y" unicode="y" horiz-adv-x="490" 
d="M254 42h4c6 41 15 82 26 113l111 325c7 3 17 6 35 6c24 0 39 -5 50 -12l-76 -214c-36 -102 -79 -221 -121 -300c-54 -102 -120 -165 -231 -201c-22 17 -35 41 -38 71c96 27 155 86 191 154l-192 490c11 7 30 12 53 12c18 0 29 -3 35 -6l124 -325c11 -29 22 -73 29 -113z
" />
    <glyph glyph-name="z" unicode="z" horiz-adv-x="457" 
d="M408 418l-251 -337v-4h257c4 -8 6 -20 6 -38s-2 -31 -6 -39h-361c-7 16 -11 39 -11 62l255 340v4h-248c0 29 4 57 12 76h335c7 -16 12 -39 12 -64z" />
    <glyph glyph-name="braceleft" unicode="{" horiz-adv-x="321" 
d="M34 257c0 24 5 56 13 73c60 8 68 45 68 134v103c0 107 17 199 178 201c0 -28 -5 -56 -15 -76c-57 -3 -79 -30 -79 -97v-154c0 -84 -17 -129 -71 -145v-4c53 -17 71 -57 71 -139v-183c0 -72 27 -98 92 -101c7 -19 4 -62 -6 -78c-161 4 -170 86 -170 212v117
c0 81 -4 124 -81 137z" />
    <glyph glyph-name="bar" unicode="|" horiz-adv-x="272" 
d="M177 751v-932c-6 -4 -21 -7 -41 -7s-35 3 -41 7v919c22 9 48 13 82 13z" />
    <glyph glyph-name="braceright" unicode="}" horiz-adv-x="321" 
d="M49 767c142 -15 157 -85 157 -198v-110c0 -81 6 -121 68 -129c8 -19 13 -48 13 -73c-67 -7 -81 -40 -81 -114v-128c0 -142 -21 -220 -169 -224c-10 16 -12 60 -5 78c75 1 90 35 90 123v153c0 80 15 128 68 145v4c-55 19 -68 64 -68 139v158c0 74 -28 98 -93 101
c0 28 9 56 20 75z" />
    <glyph glyph-name="asciitilde" unicode="~" 
d="M90 209c-19 14 -31 34 -36 61c20 45 65 75 128 75c89 0 123 -58 203 -58c36 0 57 17 69 44c25 -2 51 -11 65 -28c-23 -59 -70 -96 -138 -96c-95 0 -122 59 -204 59c-44 0 -72 -26 -87 -57z" />
    <glyph glyph-name="uni00A0" unicode="&#xa0;" horiz-adv-x="196" 
 />
    <glyph glyph-name="exclamdown" unicode="&#xa1;" horiz-adv-x="296" 
d="M100 -210l10 482c11 5 27 10 46 10c14 0 26 -1 36 -5l11 -487c-9 -5 -28 -9 -52 -9s-42 4 -51 9zM152 497c36 0 59 -20 59 -58c0 -40 -22 -61 -59 -61c-38 0 -60 20 -60 60c0 38 24 59 60 59z" />
    <glyph glyph-name="cent" unicode="&#xa2;" horiz-adv-x="472" 
d="M135 263c0 -110 65 -162 171 -162c51 0 94 15 131 37c3 -27 -8 -69 -24 -87c-25 -14 -58 -26 -98 -30v-76c-6 -4 -19 -7 -37 -7s-30 3 -38 7v76c-125 14 -194 101 -194 235c0 148 83 226 195 242v71c20 7 46 11 75 11v-80c42 -4 72 -15 95 -29c14 -19 21 -57 16 -86
c-39 24 -76 35 -123 35c-102 0 -169 -50 -169 -157z" />
    <glyph glyph-name="sterling" unicode="&#xa3;" horiz-adv-x="492" 
d="M54 304h58c-8 22 -15 49 -15 78c0 108 68 169 189 169c53 0 100 -12 133 -35c15 -21 21 -65 19 -90c-41 29 -87 45 -142 45c-74 0 -110 -28 -110 -88c0 -32 7 -55 16 -79h190c3 -6 6 -16 6 -33s-3 -27 -6 -33h-170c3 -14 4 -26 4 -41c0 -48 -23 -95 -56 -118v-4h296
c4 -8 7 -19 7 -37s-3 -30 -7 -38h-388c-9 17 -13 42 -13 66c43 31 72 72 72 124c0 17 -2 33 -6 48h-89c0 23 4 50 12 66z" />
    <glyph glyph-name="currency" unicode="&#xa4;" horiz-adv-x="555" 
d="M278 478c44 0 85 -9 115 -26l62 76c25 -9 49 -27 61 -48l-66 -75c27 -32 42 -79 42 -135c0 -59 -16 -110 -42 -142l67 -76c-11 -21 -36 -40 -62 -48l-61 75c-32 -18 -72 -27 -116 -27c-46 0 -88 9 -118 26l-61 -75c-25 8 -49 27 -61 48l66 75c-28 36 -41 83 -41 144
c0 54 15 98 42 132l-67 78c11 21 36 41 62 48l64 -77c31 18 71 27 114 27zM143 270c0 -94 48 -149 135 -149s134 56 134 149c0 85 -54 139 -134 139c-88 0 -135 -53 -135 -139z" />
    <glyph glyph-name="yen" unicode="&#xa5;" horiz-adv-x="524" 
d="M59 159h158v34l-39 66h-130c0 22 3 47 11 62h82l-120 202c10 7 27 13 54 13c19 0 32 -3 41 -7l107 -182c17 -29 33 -66 42 -99h4c7 34 23 78 36 100l110 181c8 4 21 7 41 7c25 0 40 -5 52 -11l-126 -204h86c3 -6 5 -16 5 -31s-2 -25 -5 -31h-124l-39 -64v-36h163
c3 -6 5 -16 5 -31s-2 -25 -5 -31h-163v-92c-9 -5 -22 -7 -43 -7c-22 0 -36 2 -45 7v92h-169c0 22 3 47 11 62z" />
    <glyph glyph-name="brokenbar" unicode="&#xa6;" horiz-adv-x="272" 
d="M177 751v-342c-6 -4 -21 -7 -41 -7s-35 3 -41 7v329c22 9 48 13 82 13zM177 176v-357c-6 -4 -21 -7 -41 -7s-35 3 -41 7v344c22 9 48 13 82 13z" />
    <glyph glyph-name="section" unicode="&#xa7;" horiz-adv-x="477" 
d="M38 330c0 61 25 106 64 134c-3 11 -5 23 -5 39c0 92 65 142 171 142c49 0 98 -10 133 -33c15 -20 21 -55 19 -79c-40 28 -88 44 -145 44c-70 0 -100 -25 -100 -69c0 -122 273 -90 273 -290c0 -55 -24 -106 -54 -134c4 -12 7 -31 7 -48c0 -121 -89 -159 -194 -159
c-67 0 -120 12 -157 31c-14 22 -22 55 -19 81c41 -26 105 -42 168 -42c86 0 123 31 123 85c0 137 -284 108 -284 298zM115 338c0 -100 157 -112 238 -190c10 16 17 36 17 62c0 112 -155 123 -231 195c-14 -16 -24 -40 -24 -67z" />
    <glyph glyph-name="dieresis" unicode="&#xa8;" horiz-adv-x="434" 
d="M320 676c31 0 52 -18 52 -51s-21 -52 -52 -52c-34 0 -52 18 -52 51c0 32 22 52 52 52zM114 676c31 0 52 -18 52 -51s-21 -52 -52 -52c-34 0 -52 18 -52 51c0 32 22 52 52 52z" />
    <glyph glyph-name="copyright" unicode="&#xa9;" horiz-adv-x="805" 
d="M760 336c0 -207 -151 -359 -360 -359c-206 0 -355 149 -355 356c0 206 155 360 359 360s356 -154 356 -357zM702 334c0 171 -123 305 -299 305c-174 0 -300 -131 -300 -304c0 -177 124 -304 300 -304s299 126 299 303zM530 440c-30 16 -58 24 -96 24
c-75 0 -126 -40 -126 -125c0 -88 49 -128 124 -128c40 0 76 9 105 25c2 -21 -7 -57 -20 -74c-24 -14 -65 -24 -105 -24c-118 0 -186 75 -186 196c0 133 83 201 196 201c40 0 70 -7 93 -21c12 -18 18 -50 15 -74z" />
    <glyph glyph-name="ordfeminine" unicode="&#xaa;" horiz-adv-x="369" 
d="M242 347h-4c-19 -24 -49 -39 -92 -39c-55 0 -108 25 -108 97c0 74 57 109 135 109c23 0 46 -3 64 -9v17c0 39 -17 64 -70 64c-39 0 -79 -13 -104 -29c-6 20 -3 48 7 63c25 15 65 25 111 25c82 0 125 -32 125 -122v-130c0 -21 9 -25 22 -25s24 4 31 10
c3 -19 -3 -45 -12 -57c-11 -8 -27 -13 -47 -13c-36 0 -55 17 -58 39zM238 397v59c-14 5 -34 8 -54 8c-53 0 -78 -20 -78 -53c0 -31 24 -45 60 -45c27 0 53 8 72 31zM54 257h283c3 -5 5 -19 5 -31s-2 -26 -5 -31h-294c0 19 3 45 11 62z" />
    <glyph glyph-name="guillemotleft" unicode="&#xab;" horiz-adv-x="523" 
d="M158 255c28 -61 59 -126 94 -185c-17 -21 -41 -32 -70 -34c-43 66 -88 146 -119 215c31 69 65 129 101 190c23 11 55 18 97 18c-39 -69 -73 -136 -103 -204zM358 255c28 -61 59 -126 94 -185c-17 -21 -41 -32 -70 -34c-43 66 -88 146 -119 215c31 69 65 129 101 190
c23 11 55 18 97 18c-39 -69 -73 -136 -103 -204z" />
    <glyph glyph-name="logicalnot" unicode="&#xac;" 
d="M506 324v-209c-7 -4 -24 -7 -43 -7s-34 3 -41 7v131h-376c0 25 5 61 13 78h447z" />
    <glyph glyph-name="uni00AD" unicode="&#xad;" horiz-adv-x="341" 
d="M53 314h239c4 -8 6 -22 6 -40c0 -19 -2 -34 -6 -42h-253c0 29 5 62 14 82z" />
    <glyph glyph-name="registered" unicode="&#xae;" horiz-adv-x="542" 
d="M506 548c0 -136 -98 -238 -235 -238c-140 0 -235 98 -235 238c0 137 98 237 235 237c139 0 235 -99 235 -237zM454 548c0 109 -72 188 -183 188c-110 0 -183 -79 -183 -188c0 -110 72 -189 183 -189s183 78 183 189zM321 441l-41 68c-5 -1 -12 -1 -15 -1
c-13 0 -21 1 -26 2v-69c-6 -3 -15 -5 -29 -5c-15 0 -24 2 -30 5v221c25 9 55 12 83 12c68 0 111 -26 111 -78c0 -33 -13 -56 -38 -70l53 -85c-5 -3 -17 -5 -32 -5c-17 0 -28 2 -36 5zM239 623v-63c7 -2 18 -3 29 -3c28 0 45 11 45 37c0 23 -19 32 -49 32c-9 0 -17 -1 -25 -3
z" />
    <glyph glyph-name="macron" unicode="&#xaf;" horiz-adv-x="434" 
d="M85 656h268c4 -7 6 -19 6 -34s-2 -28 -6 -35h-280c0 22 5 51 12 69z" />
    <glyph glyph-name="degree" unicode="&#xb0;" horiz-adv-x="388" 
d="M190 645c86 0 145 -49 145 -140c0 -92 -59 -145 -145 -145c-93 0 -146 52 -146 145c0 88 60 140 146 140zM115 505c0 -50 26 -81 75 -81c47 0 74 32 74 81c0 47 -28 76 -74 76c-50 0 -75 -29 -75 -76z" />
    <glyph glyph-name="plusminus" unicode="&#xb1;" 
d="M89 414h154v154c20 9 50 12 80 12v-166h160c3 -6 6 -20 6 -38c0 -17 -3 -30 -6 -37h-160v-162c-7 -4 -21 -7 -40 -7s-33 3 -40 7v162h-166c0 23 4 59 12 75zM87 75h400c3 -6 6 -20 6 -38c0 -17 -3 -30 -6 -37h-412c0 23 4 59 12 75z" />
    <glyph glyph-name="twosuperior" unicode="&#xb2;" horiz-adv-x="385" 
d="M164 449h158c4 -7 6 -19 6 -34s-2 -28 -6 -35h-266c-7 17 -9 36 -9 58c68 59 189 134 189 213c0 37 -26 54 -68 54c-38 0 -79 -14 -110 -38c-4 26 5 57 16 74c23 16 61 31 111 31c77 0 130 -36 130 -109c0 -88 -77 -160 -151 -210v-4z" />
    <glyph glyph-name="threesuperior" unicode="&#xb3;" horiz-adv-x="385" 
d="M111 545c-6 17 -4 48 3 61c71 1 124 14 124 59c0 33 -27 43 -64 43c-40 0 -79 -12 -107 -28c-3 22 4 53 18 69c22 14 65 23 105 23c73 0 125 -28 125 -97c0 -51 -27 -83 -67 -91v-4c41 -7 78 -34 78 -93c0 -82 -70 -116 -158 -116c-35 0 -74 6 -100 15
c-12 22 -17 48 -14 71c26 -12 72 -20 111 -20c46 0 84 12 84 53c0 38 -33 55 -138 55z" />
    <glyph glyph-name="acute" unicode="&#xb4;" horiz-adv-x="434" 
d="M329 712l-148 -158c-24 6 -40 19 -50 37l117 149c26 0 62 -10 81 -28z" />
    <glyph glyph-name="mu" unicode="&#xb5;" horiz-adv-x="607" 
d="M418 124v353c9 5 23 7 44 7s34 -2 43 -7v-375c0 -38 16 -43 37 -43c20 0 40 8 50 16c3 -26 -5 -57 -16 -75c-17 -13 -40 -20 -68 -20c-52 0 -74 29 -79 62h-4c-16 -26 -57 -62 -141 -62c-63 0 -102 22 -119 61h-4c8 -38 12 -97 12 -154v-115c-9 -5 -22 -7 -43 -7
s-35 2 -44 7v698c21 11 50 18 87 18v-297c0 -79 29 -128 115 -128c66 0 110 29 130 61z" />
    <glyph glyph-name="paragraph" unicode="&#xb6;" horiz-adv-x="557" 
d="M323 642v-807c-6 -4 -18 -6 -35 -6c-16 0 -29 2 -35 6v505c-13 -2 -24 -3 -39 -3c-99 0 -191 43 -191 177c0 124 80 192 268 192c60 0 124 -7 178 -22v-849c-6 -4 -18 -6 -35 -6c-16 0 -29 2 -35 6v800c-23 4 -45 7 -76 7z" />
    <glyph glyph-name="periodcentered" unicode="&#xb7;" horiz-adv-x="247" 
d="M124 312c36 0 59 -20 59 -58c0 -40 -22 -61 -59 -61c-38 0 -60 20 -60 60c0 38 24 59 60 59z" />
    <glyph glyph-name="cedilla" unicode="&#xb8;" horiz-adv-x="434" 
d="M162 -84l27 87c18 8 42 11 68 11l-14 -65c35 -12 61 -36 61 -78c0 -61 -54 -98 -118 -108c-20 10 -37 27 -46 48c46 6 82 25 82 56c0 26 -27 43 -60 49z" />
    <glyph glyph-name="onesuperior" unicode="&#xb9;" horiz-adv-x="385" 
d="M170 384v307l-101 -17c1 23 8 51 16 67c31 10 100 24 160 30v-387c-8 -4 -19 -6 -38 -6c-18 0 -29 2 -37 6z" />
    <glyph glyph-name="ordmasculine" unicode="&#xba;" horiz-adv-x="386" 
d="M58 257h276c3 -5 5 -19 5 -31s-2 -26 -5 -31h-287c0 19 3 45 11 62zM194 645c95 0 157 -58 157 -165c0 -111 -61 -172 -157 -172c-104 0 -159 60 -159 172c0 104 64 165 159 165zM106 480c0 -70 29 -110 88 -110c58 0 86 42 86 110c0 64 -31 104 -86 104
c-60 0 -88 -40 -88 -104z" />
    <glyph glyph-name="guillemotright" unicode="&#xbb;" horiz-adv-x="523" 
d="M148 36c-30 1 -55 17 -69 36c36 60 66 117 92 176c-30 66 -62 128 -96 189c21 15 49 23 77 23c43 -68 83 -143 114 -208c-34 -71 -77 -148 -118 -216zM342 36c-30 1 -55 17 -69 36c36 60 66 117 92 176c-30 66 -62 128 -96 189c21 15 49 23 77 23
c43 -68 83 -143 114 -208c-34 -71 -77 -148 -118 -216z" />
    <glyph glyph-name="onequarter" unicode="&#xbc;" horiz-adv-x="905" 
d="M795 93v-89c-7 -4 -19 -6 -35 -6c-19 0 -31 2 -39 6v89h-188c-9 20 -11 41 -11 64l179 231c33 0 68 -5 94 -15v-217h47c3 -6 5 -17 5 -31s-2 -26 -5 -32h-47zM722 155v117c0 14 3 32 5 43h-4l-119 -160v-4c13 3 28 4 43 4h75zM703 679l-475 -710c-28 6 -51 20 -63 43
l464 689c32 0 53 -7 74 -22zM136 291v307l-101 -17c1 23 8 51 16 67c31 10 100 24 160 30v-387c-8 -4 -19 -6 -38 -6c-18 0 -29 2 -37 6z" />
    <glyph glyph-name="onehalf" unicode="&#xbd;" horiz-adv-x="905" 
d="M696 679l-475 -710c-28 6 -51 20 -63 43l464 689c32 0 53 -7 74 -22zM136 291v307l-101 -17c1 23 8 51 16 67c31 10 100 24 160 30v-387c-8 -4 -19 -6 -38 -6c-18 0 -29 2 -37 6zM689 69h158c4 -7 6 -19 6 -34s-2 -28 -6 -35h-266c-7 17 -9 36 -9 58
c68 59 189 134 189 213c0 37 -26 54 -68 54c-38 0 -79 -14 -110 -38c-4 26 5 57 16 74c23 16 61 31 111 31c77 0 130 -36 130 -109c0 -88 -77 -160 -151 -210v-4z" />
    <glyph glyph-name="threequarters" unicode="&#xbe;" horiz-adv-x="905" 
d="M810 93v-89c-7 -4 -19 -6 -35 -6c-19 0 -31 2 -39 6v89h-188c-9 20 -11 41 -11 64l179 231c33 0 68 -5 94 -15v-217h47c3 -6 5 -17 5 -31s-2 -26 -5 -32h-47zM737 155v117c0 14 3 32 5 43h-4l-119 -160v-4c13 3 28 4 43 4h75zM748 679l-475 -710c-28 6 -51 20 -63 43
l464 689c32 0 53 -7 74 -22zM113 452c-6 17 -4 48 3 61c71 1 124 14 124 59c0 33 -27 43 -64 43c-40 0 -79 -12 -107 -28c-3 22 4 53 18 69c22 14 65 23 105 23c73 0 125 -28 125 -97c0 -51 -27 -83 -67 -91v-4c41 -7 78 -34 78 -93c0 -82 -70 -116 -158 -116
c-35 0 -74 6 -100 15c-12 22 -17 48 -14 71c26 -12 72 -20 111 -20c46 0 84 12 84 53c0 38 -33 55 -138 55z" />
    <glyph glyph-name="questiondown" unicode="&#xbf;" horiz-adv-x="409" 
d="M215 497c36 0 59 -20 59 -58c0 -40 -22 -61 -59 -61c-38 0 -60 20 -60 60c0 38 24 59 60 59zM198 -242c-122 0 -188 55 -188 152c0 153 199 192 199 282c0 29 -8 43 -29 63c15 21 41 35 68 38c31 -24 51 -59 51 -103c0 -134 -188 -168 -188 -269c0 -40 29 -77 109 -77
c64 0 129 24 181 68c3 -32 -6 -77 -23 -99c-35 -28 -95 -55 -180 -55z" />
    <glyph glyph-name="Agrave" unicode="&#xc0;" horiz-adv-x="656" 
d="M543 6l-70 194h-292l-69 -194c-10 -5 -25 -8 -49 -8c-22 0 -37 3 -45 8l255 691c11 4 35 6 56 6s45 -2 56 -6l253 -691c-8 -5 -24 -8 -46 -8c-24 0 -39 3 -49 8zM208 278h238l-53 150c-26 73 -48 143 -64 216h-4c-15 -70 -40 -147 -64 -215zM199 907l199 -100
c-1 -23 -9 -48 -25 -63l-220 93c5 28 23 54 46 70z" />
    <glyph glyph-name="Aacute" unicode="&#xc1;" horiz-adv-x="656" 
d="M543 6l-70 194h-292l-69 -194c-10 -5 -25 -8 -49 -8c-22 0 -37 3 -45 8l255 691c11 4 35 6 56 6s45 -2 56 -6l253 -691c-8 -5 -24 -8 -46 -8c-24 0 -39 3 -49 8zM208 278h238l-53 150c-26 73 -48 143 -64 216h-4c-15 -70 -40 -147 -64 -215zM469 908
c21 -17 30 -47 32 -74l-222 -91c-13 16 -18 40 -19 65z" />
    <glyph glyph-name="Acircumflex" unicode="&#xc2;" horiz-adv-x="656" 
d="M543 6l-70 194h-292l-69 -194c-10 -5 -25 -8 -49 -8c-22 0 -37 3 -45 8l255 691c11 4 35 6 56 6s45 -2 56 -6l253 -691c-8 -5 -24 -8 -46 -8c-24 0 -39 3 -49 8zM208 278h238l-53 150c-26 73 -48 143 -64 216h-4c-15 -70 -40 -147 -64 -215zM325 829l-142 -82
c-15 14 -22 34 -24 61l119 81c11 3 25 7 47 7c20 0 35 -3 43 -5l128 -88c-4 -27 -18 -47 -35 -57z" />
    <glyph glyph-name="Atilde" unicode="&#xc3;" horiz-adv-x="656" 
d="M543 6l-70 194h-292l-69 -194c-10 -5 -25 -8 -49 -8c-22 0 -37 3 -45 8l255 691c11 4 35 6 56 6s45 -2 56 -6l253 -691c-8 -5 -24 -8 -46 -8c-24 0 -39 3 -49 8zM208 278h238l-53 150c-26 73 -48 143 -64 216h-4c-15 -70 -40 -147 -64 -215zM136 790c10 52 50 95 116 95
c73 0 99 -51 151 -51c28 0 49 17 56 42c23 -1 42 -6 59 -18c-9 -54 -47 -99 -119 -99c-69 0 -94 52 -151 52c-29 0 -48 -18 -57 -47c-22 3 -41 11 -55 26z" />
    <glyph glyph-name="Adieresis" unicode="&#xc4;" horiz-adv-x="656" 
d="M543 6l-70 194h-292l-69 -194c-10 -5 -25 -8 -49 -8c-22 0 -37 3 -45 8l255 691c11 4 35 6 56 6s45 -2 56 -6l253 -691c-8 -5 -24 -8 -46 -8c-24 0 -39 3 -49 8zM208 278h238l-53 150c-26 73 -48 143 -64 216h-4c-15 -70 -40 -147 -64 -215zM438 868c31 0 55 -18 55 -53
c0 -37 -22 -56 -55 -56c-35 0 -56 19 -56 55c0 34 23 54 56 54zM218 868c31 0 55 -18 55 -53c0 -37 -22 -56 -55 -56c-35 0 -56 19 -56 55c0 34 23 54 56 54z" />
    <glyph glyph-name="Aring" unicode="&#xc5;" horiz-adv-x="656" 
d="M327 861c73 0 119 -39 119 -107c0 -44 -19 -74 -51 -91l243 -657c-8 -5 -24 -8 -46 -8c-24 0 -39 3 -49 8l-70 194h-292l-69 -194c-10 -5 -25 -8 -49 -8c-22 0 -37 3 -45 8l244 655c-36 16 -54 49 -54 93c0 65 46 107 119 107zM208 278h238l-53 150
c-26 73 -48 143 -64 216h-4c-15 -70 -40 -147 -64 -215zM327 806c-32 0 -55 -19 -55 -52s22 -51 55 -51c32 0 56 18 56 51c0 34 -22 52 -56 52z" />
    <glyph glyph-name="AE" unicode="&#xc6;" horiz-adv-x="992" 
d="M435 695h490c5 -10 7 -23 7 -40s-2 -30 -7 -40h-350v-222h325c5 -10 7 -22 7 -39s-2 -30 -7 -40h-325v-233h359c5 -10 7 -23 7 -40s-2 -31 -7 -41h-450v214h-248l-128 -208c-12 -6 -32 -8 -56 -8s-40 2 -47 8zM484 292v334h-4c-25 -50 -58 -109 -93 -166l-103 -168h200z
" />
    <glyph glyph-name="Ccedilla" unicode="&#xc7;" horiz-adv-x="624" 
d="M307 -90l22 70c-172 20 -273 151 -273 359c0 249 144 379 340 379c57 0 114 -11 154 -34c15 -21 24 -61 21 -89c-50 26 -102 39 -158 39c-152 0 -263 -86 -263 -288c0 -196 104 -284 253 -284c67 0 130 18 176 41c1 -25 -10 -66 -25 -86c-37 -19 -92 -36 -155 -39l-7 -33
c38 -13 67 -39 67 -85c0 -65 -58 -106 -127 -116c-20 10 -38 28 -48 50c50 6 90 28 90 62c0 28 -30 48 -67 54z" />
    <glyph glyph-name="Egrave" unicode="&#xc8;" horiz-adv-x="608" 
d="M100 695h441c5 -10 7 -23 7 -40s-2 -30 -7 -40h-350v-222h325c5 -10 7 -22 7 -39s-2 -30 -7 -40h-325v-233h359c5 -10 7 -23 7 -40s-2 -31 -7 -41h-450v695zM200 907l199 -100c-1 -23 -9 -48 -25 -63l-220 93c5 28 23 54 46 70z" />
    <glyph glyph-name="Eacute" unicode="&#xc9;" horiz-adv-x="608" 
d="M100 695h441c5 -10 7 -23 7 -40s-2 -30 -7 -40h-350v-222h325c5 -10 7 -22 7 -39s-2 -30 -7 -40h-325v-233h359c5 -10 7 -23 7 -40s-2 -31 -7 -41h-450v695zM474 908c21 -17 30 -47 32 -74l-222 -91c-13 16 -18 40 -19 65z" />
    <glyph glyph-name="Ecircumflex" unicode="&#xca;" horiz-adv-x="608" 
d="M100 695h441c5 -10 7 -23 7 -40s-2 -30 -7 -40h-350v-222h325c5 -10 7 -22 7 -39s-2 -30 -7 -40h-325v-233h359c5 -10 7 -23 7 -40s-2 -31 -7 -41h-450v695zM328 829l-142 -82c-15 14 -22 34 -24 61l119 81c11 3 25 7 47 7c20 0 35 -3 43 -5l128 -88
c-4 -27 -18 -47 -35 -57z" />
    <glyph glyph-name="Edieresis" unicode="&#xcb;" horiz-adv-x="608" 
d="M100 695h441c5 -10 7 -23 7 -40s-2 -30 -7 -40h-350v-222h325c5 -10 7 -22 7 -39s-2 -30 -7 -40h-325v-233h359c5 -10 7 -23 7 -40s-2 -31 -7 -41h-450v695zM440 868c31 0 55 -18 55 -53c0 -37 -22 -56 -55 -56c-35 0 -56 19 -56 55c0 34 23 54 56 54zM220 868
c31 0 55 -18 55 -53c0 -37 -22 -56 -55 -56c-35 0 -56 19 -56 55c0 34 23 54 56 54z" />
    <glyph glyph-name="Igrave" unicode="&#xcc;" horiz-adv-x="291" 
d="M100 5v685c9 5 24 7 46 7s36 -2 45 -7v-685c-9 -5 -23 -7 -45 -7s-37 2 -46 7zM20 907l199 -100c-1 -23 -9 -48 -25 -63l-220 93c5 28 23 54 46 70z" />
    <glyph glyph-name="Iacute" unicode="&#xcd;" horiz-adv-x="291" 
d="M100 5v685c9 5 24 7 46 7s36 -2 45 -7v-685c-9 -5 -23 -7 -45 -7s-37 2 -46 7zM282 908c21 -17 30 -47 32 -74l-222 -91c-13 16 -18 40 -19 65z" />
    <glyph glyph-name="Icircumflex" unicode="&#xce;" horiz-adv-x="291" 
d="M100 5v685c9 5 24 7 46 7s36 -2 45 -7v-685c-9 -5 -23 -7 -45 -7s-37 2 -46 7zM144 829l-142 -82c-15 14 -22 34 -24 61l119 81c11 3 25 7 47 7c20 0 35 -3 43 -5l128 -88c-4 -27 -18 -47 -35 -57z" />
    <glyph glyph-name="Idieresis" unicode="&#xcf;" horiz-adv-x="291" 
d="M100 5v685c9 5 24 7 46 7s36 -2 45 -7v-685c-9 -5 -23 -7 -45 -7s-37 2 -46 7zM236 868c31 0 55 -18 55 -53c0 -37 -22 -56 -55 -56c-35 0 -56 19 -56 55c0 34 23 54 56 54zM56 868c31 0 55 -18 55 -53c0 -37 -22 -56 -55 -56c-35 0 -56 19 -56 55c0 34 23 54 56 54z" />
    <glyph glyph-name="Eth" unicode="&#xd0;" horiz-adv-x="702" 
d="M20 391h85v298c60 10 115 13 175 13c223 0 381 -113 381 -355c0 -241 -157 -352 -356 -352c-66 0 -133 1 -200 6v312h-85c-5 9 -7 22 -7 39s2 30 7 39zM196 616v-225h197c5 -9 7 -22 7 -39s-2 -30 -7 -39h-197v-233c35 -3 73 -4 107 -4c163 0 264 88 264 266
c0 191 -117 280 -289 280c-27 0 -56 -1 -82 -6z" />
    <glyph glyph-name="Ntilde" unicode="&#xd1;" horiz-adv-x="746" 
d="M185 611v-606c-9 -5 -21 -7 -42 -7s-34 2 -43 7v686c14 4 31 7 60 7c28 0 44 -3 57 -7l272 -447c29 -47 53 -100 68 -153h4v599c9 5 21 7 42 7s34 -2 43 -7v-688c-12 -4 -28 -7 -57 -7c-27 0 -44 3 -55 7l-284 467c-25 40 -47 93 -61 142h-4zM182 790c10 52 50 95 116 95
c73 0 99 -51 151 -51c28 0 49 17 56 42c23 -1 42 -6 59 -18c-9 -54 -47 -99 -119 -99c-69 0 -94 52 -151 52c-29 0 -48 -18 -57 -47c-22 3 -41 11 -55 26z" />
    <glyph glyph-name="Ograve" unicode="&#xd2;" horiz-adv-x="744" 
d="M372 718c187 0 314 -127 314 -363c0 -244 -123 -378 -314 -378c-200 0 -314 127 -314 378c0 227 129 363 314 363zM152 355c0 -187 79 -295 220 -295c143 0 220 110 220 295c0 174 -86 281 -220 281c-144 0 -220 -107 -220 -281zM247 907l199 -100c-1 -23 -9 -48 -25 -63
l-220 93c5 28 23 54 46 70z" />
    <glyph glyph-name="Oacute" unicode="&#xd3;" horiz-adv-x="744" 
d="M372 718c187 0 314 -127 314 -363c0 -244 -123 -378 -314 -378c-200 0 -314 127 -314 378c0 227 129 363 314 363zM152 355c0 -187 79 -295 220 -295c143 0 220 110 220 295c0 174 -86 281 -220 281c-144 0 -220 -107 -220 -281zM513 908c21 -17 30 -47 32 -74l-222 -91
c-13 16 -18 40 -19 65z" />
    <glyph glyph-name="Ocircumflex" unicode="&#xd4;" horiz-adv-x="744" 
d="M372 718c187 0 314 -127 314 -363c0 -244 -123 -378 -314 -378c-200 0 -314 127 -314 378c0 227 129 363 314 363zM152 355c0 -187 79 -295 220 -295c143 0 220 110 220 295c0 174 -86 281 -220 281c-144 0 -220 -107 -220 -281zM371 829l-142 -82c-15 14 -22 34 -24 61
l119 81c11 3 25 7 47 7c20 0 35 -3 43 -5l128 -88c-4 -27 -18 -47 -35 -57z" />
    <glyph glyph-name="Otilde" unicode="&#xd5;" horiz-adv-x="744" 
d="M372 718c187 0 314 -127 314 -363c0 -244 -123 -378 -314 -378c-200 0 -314 127 -314 378c0 227 129 363 314 363zM152 355c0 -187 79 -295 220 -295c143 0 220 110 220 295c0 174 -86 281 -220 281c-144 0 -220 -107 -220 -281zM181 790c10 52 50 95 116 95
c73 0 99 -51 151 -51c28 0 49 17 56 42c23 -1 42 -6 59 -18c-9 -54 -47 -99 -119 -99c-69 0 -94 52 -151 52c-29 0 -48 -18 -57 -47c-22 3 -41 11 -55 26z" />
    <glyph glyph-name="Odieresis" unicode="&#xd6;" horiz-adv-x="744" 
d="M372 718c187 0 314 -127 314 -363c0 -244 -123 -378 -314 -378c-200 0 -314 127 -314 378c0 227 129 363 314 363zM152 355c0 -187 79 -295 220 -295c143 0 220 110 220 295c0 174 -86 281 -220 281c-144 0 -220 -107 -220 -281zM236 868c31 0 55 -18 55 -53
c0 -37 -22 -56 -55 -56c-35 0 -56 19 -56 55c0 34 23 54 56 54zM510 868c31 0 55 -18 55 -53c0 -37 -22 -56 -55 -56c-35 0 -56 19 -56 55c0 34 23 54 56 54z" />
    <glyph glyph-name="multiply" unicode="&#xd7;" 
d="M133 482l153 -153l149 152c27 -7 51 -22 70 -42l-164 -165l166 -164c-9 -24 -30 -47 -56 -58l-166 165l-164 -164c-26 12 -46 32 -55 57l165 161l-168 166c18 20 41 36 70 45z" />
    <glyph glyph-name="Oslash" unicode="&#xd8;" horiz-adv-x="744" 
d="M372 718c78 0 146 -22 199 -66l77 94c28 -8 53 -26 64 -51l-86 -105c38 -59 60 -138 60 -235c0 -244 -123 -378 -314 -378c-83 0 -153 23 -200 64l-83 -102c-29 10 -53 31 -61 58l89 108c-39 61 -59 145 -59 250c0 227 129 363 314 363zM152 355c0 -70 11 -129 32 -176
l330 402c-37 36 -85 55 -142 55c-144 0 -220 -107 -220 -281zM592 355c0 62 -11 117 -32 160l-330 -402c35 -34 84 -53 142 -53c143 0 220 110 220 295z" />
    <glyph glyph-name="Ugrave" unicode="&#xd9;" horiz-adv-x="724" 
d="M182 690v-435c0 -137 58 -195 180 -195c131 0 186 79 186 198v432c9 5 23 7 45 7s35 -2 44 -7v-425c0 -177 -85 -288 -279 -288c-179 0 -267 89 -267 270v443c9 5 24 7 46 7s36 -2 45 -7zM240 907l199 -100c-1 -23 -9 -48 -25 -63l-220 93c5 28 23 54 46 70z" />
    <glyph glyph-name="Uacute" unicode="&#xda;" horiz-adv-x="724" 
d="M182 690v-435c0 -137 58 -195 180 -195c131 0 186 79 186 198v432c9 5 23 7 45 7s35 -2 44 -7v-425c0 -177 -85 -288 -279 -288c-179 0 -267 89 -267 270v443c9 5 24 7 46 7s36 -2 45 -7zM501 908c21 -17 30 -47 32 -74l-222 -91c-13 16 -18 40 -19 65z" />
    <glyph glyph-name="Ucircumflex" unicode="&#xdb;" horiz-adv-x="724" 
d="M182 690v-435c0 -137 58 -195 180 -195c131 0 186 79 186 198v432c9 5 23 7 45 7s35 -2 44 -7v-425c0 -177 -85 -288 -279 -288c-179 0 -267 89 -267 270v443c9 5 24 7 46 7s36 -2 45 -7zM363 829l-142 -82c-15 14 -22 34 -24 61l119 81c11 3 25 7 47 7c20 0 35 -3 43 -5
l128 -88c-4 -27 -18 -47 -35 -57z" />
    <glyph glyph-name="Udieresis" unicode="&#xdc;" horiz-adv-x="724" 
d="M182 690v-435c0 -137 58 -195 180 -195c131 0 186 79 186 198v432c9 5 23 7 45 7s35 -2 44 -7v-425c0 -177 -85 -288 -279 -288c-179 0 -267 89 -267 270v443c9 5 24 7 46 7s36 -2 45 -7zM475 868c31 0 55 -18 55 -53c0 -37 -22 -56 -55 -56c-35 0 -56 19 -56 55
c0 34 23 54 56 54zM255 868c31 0 55 -18 55 -53c0 -37 -22 -56 -55 -56c-35 0 -56 19 -56 55c0 34 23 54 56 54z" />
    <glyph glyph-name="Yacute" unicode="&#xdd;" horiz-adv-x="583" 
d="M248 255l-237 434c8 5 27 8 49 8c25 0 41 -3 51 -8l136 -253c19 -36 35 -75 46 -118h4c11 41 30 87 47 120l134 251c10 5 26 8 50 8c21 0 38 -3 46 -8l-235 -433v-251c-9 -5 -23 -7 -45 -7s-37 2 -46 7v250zM436 908c21 -17 30 -47 32 -74l-222 -91c-13 16 -18 40 -19 65
z" />
    <glyph glyph-name="Thorn" unicode="&#xde;" horiz-adv-x="581" 
d="M100 5v685c9 5 24 7 46 7s36 -2 45 -7v-125c23 4 59 7 93 7c171 0 286 -62 286 -220c0 -155 -110 -222 -259 -222c-40 0 -90 5 -120 10v-135c-9 -5 -23 -7 -45 -7s-37 2 -46 7zM191 484v-265c26 -6 65 -10 105 -10c115 0 181 37 181 137c0 106 -76 146 -199 146
c-30 0 -59 -2 -87 -8z" />
    <glyph glyph-name="germandbls" unicode="&#xdf;" horiz-adv-x="634" 
d="M252 100c39 -28 105 -46 159 -46c69 0 110 28 110 80c0 122 -231 84 -231 254c0 141 133 133 133 214c0 51 -49 72 -101 72c-84 0 -150 -56 -150 -222v-447c-9 -5 -22 -7 -43 -7s-35 2 -44 7v443c0 223 106 301 241 301c81 0 182 -28 182 -135
c0 -135 -131 -122 -131 -214c0 -120 231 -74 231 -259c0 -117 -88 -161 -198 -161c-52 0 -106 10 -142 32c-15 23 -20 63 -16 88z" />
    <glyph glyph-name="agrave" unicode="&#xe0;" horiz-adv-x="521" 
d="M349 39h-4c-29 -38 -75 -59 -141 -59c-86 0 -161 41 -161 150c0 117 87 165 200 165c33 0 71 -4 100 -16v26c0 83 -32 118 -110 118c-57 0 -111 -18 -153 -44c-7 25 -4 64 10 87c34 20 93 36 159 36c119 0 180 -51 180 -188v-218c0 -29 15 -37 35 -37c19 0 37 7 47 14
c2 -26 -4 -57 -17 -75c-17 -10 -39 -18 -66 -18c-45 0 -71 22 -79 59zM343 111v98c-25 9 -53 15 -87 15c-83 0 -126 -37 -126 -90c0 -52 42 -75 96 -75c43 0 91 14 117 52zM314 591c-11 -20 -31 -32 -56 -36l-140 158c19 19 53 28 84 28z" />
    <glyph glyph-name="aacute" unicode="&#xe1;" horiz-adv-x="521" 
d="M349 39h-4c-29 -38 -75 -59 -141 -59c-86 0 -161 41 -161 150c0 117 87 165 200 165c33 0 71 -4 100 -16v26c0 83 -32 118 -110 118c-57 0 -111 -18 -153 -44c-7 25 -4 64 10 87c34 20 93 36 159 36c119 0 180 -51 180 -188v-218c0 -29 15 -37 35 -37c19 0 37 7 47 14
c2 -26 -4 -57 -17 -75c-17 -10 -39 -18 -66 -18c-45 0 -71 22 -79 59zM343 111v98c-25 9 -53 15 -87 15c-83 0 -126 -37 -126 -90c0 -52 42 -75 96 -75c43 0 91 14 117 52zM382 712l-148 -158c-24 6 -40 19 -50 37l117 149c26 0 62 -10 81 -28z" />
    <glyph glyph-name="acircumflex" unicode="&#xe2;" horiz-adv-x="521" 
d="M349 39h-4c-29 -38 -75 -59 -141 -59c-86 0 -161 41 -161 150c0 117 87 165 200 165c33 0 71 -4 100 -16v26c0 83 -32 118 -110 118c-57 0 -111 -18 -153 -44c-7 25 -4 64 10 87c34 20 93 36 159 36c119 0 180 -51 180 -188v-218c0 -29 15 -37 35 -37c19 0 37 7 47 14
c2 -26 -4 -57 -17 -75c-17 -10 -39 -18 -66 -18c-45 0 -71 22 -79 59zM343 111v98c-25 9 -53 15 -87 15c-83 0 -126 -37 -126 -90c0 -52 42 -75 96 -75c43 0 91 14 117 52zM102 603l107 125c19 7 48 9 72 9l120 -144c-8 -20 -27 -35 -50 -42l-105 115l-111 -119
c-19 15 -28 33 -33 56z" />
    <glyph glyph-name="atilde" unicode="&#xe3;" horiz-adv-x="521" 
d="M349 39h-4c-29 -38 -75 -59 -141 -59c-86 0 -161 41 -161 150c0 117 87 165 200 165c33 0 71 -4 100 -16v26c0 83 -32 118 -110 118c-57 0 -111 -18 -153 -44c-7 25 -4 64 10 87c34 20 93 36 159 36c119 0 180 -51 180 -188v-218c0 -29 15 -37 35 -37c19 0 37 7 47 14
c2 -26 -4 -57 -17 -75c-17 -10 -39 -18 -66 -18c-45 0 -71 22 -79 59zM343 111v98c-25 9 -53 15 -87 15c-83 0 -126 -37 -126 -90c0 -52 42 -75 96 -75c43 0 91 14 117 52zM413 661c-4 -57 -38 -97 -95 -97c-63 0 -89 49 -131 49c-26 0 -41 -16 -48 -45c-20 3 -44 16 -53 34
c10 49 46 83 96 83c66 0 93 -49 132 -49c24 0 37 14 41 42c23 -2 43 -8 58 -17z" />
    <glyph glyph-name="adieresis" unicode="&#xe4;" horiz-adv-x="521" 
d="M349 39h-4c-29 -38 -75 -59 -141 -59c-86 0 -161 41 -161 150c0 117 87 165 200 165c33 0 71 -4 100 -16v26c0 83 -32 118 -110 118c-57 0 -111 -18 -153 -44c-7 25 -4 64 10 87c34 20 93 36 159 36c119 0 180 -51 180 -188v-218c0 -29 15 -37 35 -37c19 0 37 7 47 14
c2 -26 -4 -57 -17 -75c-17 -10 -39 -18 -66 -18c-45 0 -71 22 -79 59zM343 111v98c-25 9 -53 15 -87 15c-83 0 -126 -37 -126 -90c0 -52 42 -75 96 -75c43 0 91 14 117 52zM354 676c31 0 52 -18 52 -51s-21 -52 -52 -52c-34 0 -52 18 -52 51c0 32 22 52 52 52zM148 676
c31 0 52 -18 52 -51s-21 -52 -52 -52c-34 0 -52 18 -52 51c0 32 22 52 52 52z" />
    <glyph glyph-name="aring" unicode="&#xe5;" horiz-adv-x="521" 
d="M349 39h-4c-29 -38 -75 -59 -141 -59c-86 0 -161 41 -161 150c0 117 87 165 200 165c33 0 71 -4 100 -16v26c0 83 -32 118 -110 118c-57 0 -111 -18 -153 -44c-7 25 -4 64 10 87c34 20 93 36 159 36c119 0 180 -51 180 -188v-218c0 -29 15 -37 35 -37c19 0 37 7 47 14
c2 -26 -4 -57 -17 -75c-17 -10 -39 -18 -66 -18c-45 0 -71 22 -79 59zM343 111v98c-25 9 -53 15 -87 15c-83 0 -126 -37 -126 -90c0 -52 42 -75 96 -75c43 0 91 14 117 52zM250 751c65 0 107 -37 107 -101c0 -65 -44 -101 -108 -101c-68 0 -107 36 -107 101
c0 60 42 101 108 101zM250 699c-30 0 -51 -18 -51 -49c0 -32 20 -49 51 -49c27 0 50 18 50 49c0 32 -20 49 -50 49z" />
    <glyph glyph-name="ae" unicode="&#xe6;" horiz-adv-x="820" 
d="M760 214h-329c4 -109 72 -155 180 -155c61 0 112 15 151 38c3 -28 -8 -65 -22 -81c-31 -19 -83 -36 -149 -36c-93 0 -164 33 -200 88h-4c-25 -42 -81 -88 -179 -88c-90 0 -166 39 -166 148c0 118 88 170 198 170c35 0 74 -5 102 -14v21c0 84 -32 118 -111 118
c-57 0 -110 -18 -152 -44c-7 25 -4 64 10 87c35 22 95 36 158 36c94 0 137 -29 150 -90h4c25 53 93 90 178 90c132 0 193 -86 193 -207c0 -30 -4 -57 -12 -81zM228 58c61 0 102 27 131 70c-11 27 -15 54 -17 87c-27 7 -52 13 -87 13c-83 0 -128 -34 -128 -91
c0 -56 43 -79 101 -79zM432 287h254c7 66 -14 140 -111 140c-85 0 -136 -56 -143 -140z" />
    <glyph glyph-name="ccedilla" unicode="&#xe7;" horiz-adv-x="481" 
d="M218 -84l21 67c-125 16 -192 110 -192 254c0 182 107 265 241 265c54 0 96 -12 124 -30c14 -19 21 -57 16 -86c-39 24 -76 35 -123 35c-102 0 -169 -56 -169 -177c0 -124 65 -182 171 -182c51 0 94 15 131 37c3 -27 -8 -69 -24 -87c-27 -15 -63 -27 -108 -31l-7 -32
c35 -12 61 -36 61 -78c0 -61 -54 -98 -118 -108c-20 10 -37 27 -46 48c46 6 82 25 82 56c0 26 -27 43 -60 49z" />
    <glyph glyph-name="egrave" unicode="&#xe8;" horiz-adv-x="526" 
d="M466 214h-329c4 -109 72 -155 180 -155c61 0 112 15 151 38c3 -28 -8 -65 -22 -81c-31 -19 -83 -36 -149 -36c-161 0 -250 100 -250 256c0 155 90 266 238 266c132 0 193 -86 193 -207c0 -30 -4 -57 -12 -81zM138 287h254c7 66 -14 140 -111 140
c-85 0 -136 -56 -143 -140zM337 591c-11 -20 -31 -32 -56 -36l-140 158c19 19 53 28 84 28z" />
    <glyph glyph-name="eacute" unicode="&#xe9;" horiz-adv-x="526" 
d="M466 214h-329c4 -109 72 -155 180 -155c61 0 112 15 151 38c3 -28 -8 -65 -22 -81c-31 -19 -83 -36 -149 -36c-161 0 -250 100 -250 256c0 155 90 266 238 266c132 0 193 -86 193 -207c0 -30 -4 -57 -12 -81zM138 287h254c7 66 -14 140 -111 140
c-85 0 -136 -56 -143 -140zM408 712l-148 -158c-24 6 -40 19 -50 37l117 149c26 0 62 -10 81 -28z" />
    <glyph glyph-name="ecircumflex" unicode="&#xea;" horiz-adv-x="526" 
d="M466 214h-329c4 -109 72 -155 180 -155c61 0 112 15 151 38c3 -28 -8 -65 -22 -81c-31 -19 -83 -36 -149 -36c-161 0 -250 100 -250 256c0 155 90 266 238 266c132 0 193 -86 193 -207c0 -30 -4 -57 -12 -81zM138 287h254c7 66 -14 140 -111 140
c-85 0 -136 -56 -143 -140zM130 603l107 125c19 7 48 9 72 9l120 -144c-8 -20 -27 -35 -50 -42l-105 115l-111 -119c-19 15 -28 33 -33 56z" />
    <glyph glyph-name="edieresis" unicode="&#xeb;" horiz-adv-x="526" 
d="M466 214h-329c4 -109 72 -155 180 -155c61 0 112 15 151 38c3 -28 -8 -65 -22 -81c-31 -19 -83 -36 -149 -36c-161 0 -250 100 -250 256c0 155 90 266 238 266c132 0 193 -86 193 -207c0 -30 -4 -57 -12 -81zM138 287h254c7 66 -14 140 -111 140
c-85 0 -136 -56 -143 -140zM377 676c31 0 52 -18 52 -51s-21 -52 -52 -52c-34 0 -52 18 -52 51c0 32 22 52 52 52zM171 676c31 0 52 -18 52 -51s-21 -52 -52 -52c-34 0 -52 18 -52 51c0 32 22 52 52 52z" />
    <glyph glyph-name="igrave" unicode="&#xec;" horiz-adv-x="257" 
d="M85 5v472c9 5 23 7 44 7s34 -2 43 -7v-472c-9 -5 -22 -7 -43 -7s-35 2 -44 7zM193 591c-11 -20 -31 -32 -56 -36l-140 158c19 19 53 28 84 28z" />
    <glyph glyph-name="iacute" unicode="&#xed;" horiz-adv-x="257" 
d="M85 5v472c9 5 23 7 44 7s34 -2 43 -7v-472c-9 -5 -22 -7 -43 -7s-35 2 -44 7zM261 712l-148 -158c-24 6 -40 19 -50 37l117 149c26 0 62 -10 81 -28z" />
    <glyph glyph-name="icircumflex" unicode="&#xee;" horiz-adv-x="257" 
d="M-18 603l107 125c19 7 48 9 72 9l120 -144c-8 -20 -27 -35 -50 -42l-105 115l-111 -119c-19 15 -28 33 -33 56zM85 5v472c9 5 23 7 44 7s34 -2 43 -7v-472c-9 -5 -22 -7 -43 -7s-35 2 -44 7z" />
    <glyph glyph-name="idieresis" unicode="&#xef;" horiz-adv-x="257" 
d="M85 5v472c9 5 23 7 44 7s34 -2 43 -7v-472c-9 -5 -22 -7 -43 -7s-35 2 -44 7zM38 676c31 0 52 -18 52 -51s-21 -52 -52 -52c-34 0 -52 18 -52 51c0 32 22 52 52 52zM218 676c31 0 52 -18 52 -51s-21 -52 -52 -52c-34 0 -52 18 -52 51c0 32 22 52 52 52z" />
    <glyph glyph-name="eth" unicode="&#xf0;" horiz-adv-x="566" 
d="M155 748c72 -15 139 -39 196 -79l105 55c15 -13 26 -37 28 -58l-80 -43c67 -70 108 -172 108 -314c0 -177 -62 -329 -246 -329c-133 0 -219 82 -219 231c0 141 77 250 220 250c66 0 119 -22 150 -61h4c-13 83 -45 144 -92 189l-156 -80c-10 20 -11 47 -11 68l109 55
c-44 26 -95 44 -152 57c5 22 20 45 36 59zM423 323c-34 35 -79 60 -137 60c-96 0 -152 -66 -152 -167c0 -98 53 -156 138 -156c120 0 154 112 154 217c0 12 -1 34 -3 46z" />
    <glyph glyph-name="ntilde" unicode="&#xf1;" horiz-adv-x="579" 
d="M172 344v-339c-9 -5 -22 -7 -43 -7s-35 2 -44 7v471c17 9 43 14 71 14l6 -75h4c22 46 72 87 166 87c79 0 168 -28 168 -190v-307c-9 -5 -22 -7 -43 -7s-35 2 -44 7v290c0 77 -25 126 -108 126c-71 0 -112 -37 -133 -77zM461 661c-4 -57 -38 -97 -95 -97
c-63 0 -89 49 -131 49c-26 0 -41 -16 -48 -45c-20 3 -44 16 -53 34c10 49 46 83 96 83c66 0 93 -49 132 -49c24 0 37 14 41 42c23 -2 43 -8 58 -17z" />
    <glyph glyph-name="ograve" unicode="&#xf2;" horiz-adv-x="555" 
d="M278 502c139 0 228 -89 228 -254c0 -174 -87 -268 -228 -268c-148 0 -229 90 -229 268c0 160 90 254 229 254zM138 248c0 -121 47 -192 140 -192s139 72 139 192c0 110 -51 178 -139 178c-94 0 -140 -69 -140 -178zM341 591c-11 -20 -31 -32 -56 -36l-140 158
c19 19 53 28 84 28z" />
    <glyph glyph-name="oacute" unicode="&#xf3;" horiz-adv-x="555" 
d="M278 502c139 0 228 -89 228 -254c0 -174 -87 -268 -228 -268c-148 0 -229 90 -229 268c0 160 90 254 229 254zM138 248c0 -121 47 -192 140 -192s139 72 139 192c0 110 -51 178 -139 178c-94 0 -140 -69 -140 -178zM410 712l-148 -158c-24 6 -40 19 -50 37l117 149
c26 0 62 -10 81 -28z" />
    <glyph glyph-name="ocircumflex" unicode="&#xf4;" horiz-adv-x="555" 
d="M278 502c139 0 228 -89 228 -254c0 -174 -87 -268 -228 -268c-148 0 -229 90 -229 268c0 160 90 254 229 254zM138 248c0 -121 47 -192 140 -192s139 72 139 192c0 110 -51 178 -139 178c-94 0 -140 -69 -140 -178zM131 603l107 125c19 7 48 9 72 9l120 -144
c-8 -20 -27 -35 -50 -42l-105 115l-111 -119c-19 15 -28 33 -33 56z" />
    <glyph glyph-name="otilde" unicode="&#xf5;" horiz-adv-x="555" 
d="M278 502c139 0 228 -89 228 -254c0 -174 -87 -268 -228 -268c-148 0 -229 90 -229 268c0 160 90 254 229 254zM138 248c0 -121 47 -192 140 -192s139 72 139 192c0 110 -51 178 -139 178c-94 0 -140 -69 -140 -178zM442 661c-4 -57 -38 -97 -95 -97c-63 0 -89 49 -131 49
c-26 0 -41 -16 -48 -45c-20 3 -44 16 -53 34c10 49 46 83 96 83c66 0 93 -49 132 -49c24 0 37 14 41 42c23 -2 43 -8 58 -17z" />
    <glyph glyph-name="odieresis" unicode="&#xf6;" horiz-adv-x="555" 
d="M278 502c139 0 228 -89 228 -254c0 -174 -87 -268 -228 -268c-148 0 -229 90 -229 268c0 160 90 254 229 254zM138 248c0 -121 47 -192 140 -192s139 72 139 192c0 110 -51 178 -139 178c-94 0 -140 -69 -140 -178zM169 676c31 0 52 -18 52 -51s-21 -52 -52 -52
c-34 0 -52 18 -52 51c0 32 22 52 52 52zM387 676c31 0 52 -18 52 -51s-21 -52 -52 -52c-34 0 -52 18 -52 51c0 32 22 52 52 52z" />
    <glyph glyph-name="divide" unicode="&#xf7;" 
d="M61 311h451c5 -8 7 -20 7 -39s-2 -31 -7 -39h-464c0 25 5 61 13 78zM284 140c31 0 51 -17 51 -50c0 -35 -19 -53 -51 -53c-33 0 -52 17 -52 52c0 33 21 51 52 51zM284 506c31 0 51 -17 51 -50c0 -35 -19 -53 -51 -53c-33 0 -52 17 -52 52c0 33 21 51 52 51z" />
    <glyph glyph-name="oslash" unicode="&#xf8;" horiz-adv-x="555" 
d="M278 502c51 0 96 -11 132 -35l50 64c25 -8 49 -25 60 -45l-57 -72c29 -40 45 -97 45 -166c0 -174 -88 -268 -230 -268c-55 0 -101 12 -135 36l-62 -78c-20 15 -36 41 -43 67l52 65c-29 43 -43 103 -43 178c0 160 91 254 231 254zM136 248c0 -42 6 -78 18 -107l208 257
c-21 18 -51 28 -84 28c-95 0 -142 -69 -142 -178zM419 248c0 37 -6 70 -17 96l-209 -260c21 -18 50 -28 85 -28c94 0 141 72 141 192z" />
    <glyph glyph-name="ugrave" unicode="&#xf9;" horiz-adv-x="575" 
d="M411 55h-4c-18 -34 -62 -75 -160 -75c-80 0 -168 29 -168 191v299c21 11 50 18 87 18v-300c0 -81 25 -126 107 -126c65 0 108 29 130 63v352c9 5 23 7 44 7s34 -2 43 -7v-471c-16 -10 -40 -14 -67 -14zM352 591c-11 -20 -31 -32 -56 -36l-140 158c19 19 53 28 84 28z" />
    <glyph glyph-name="uacute" unicode="&#xfa;" horiz-adv-x="575" 
d="M411 55h-4c-18 -34 -62 -75 -160 -75c-80 0 -168 29 -168 191v299c21 11 50 18 87 18v-300c0 -81 25 -126 107 -126c65 0 108 29 130 63v352c9 5 23 7 44 7s34 -2 43 -7v-471c-16 -10 -40 -14 -67 -14zM423 712l-148 -158c-24 6 -40 19 -50 37l117 149
c26 0 62 -10 81 -28z" />
    <glyph glyph-name="ucircumflex" unicode="&#xfb;" horiz-adv-x="575" 
d="M411 55h-4c-18 -34 -62 -75 -160 -75c-80 0 -168 29 -168 191v299c21 11 50 18 87 18v-300c0 -81 25 -126 107 -126c65 0 108 29 130 63v352c9 5 23 7 44 7s34 -2 43 -7v-471c-16 -10 -40 -14 -67 -14zM143 603l107 125c19 7 48 9 72 9l120 -144c-8 -20 -27 -35 -50 -42
l-105 115l-111 -119c-19 15 -28 33 -33 56z" />
    <glyph glyph-name="udieresis" unicode="&#xfc;" horiz-adv-x="575" 
d="M411 55h-4c-18 -34 -62 -75 -160 -75c-80 0 -168 29 -168 191v299c21 11 50 18 87 18v-300c0 -81 25 -126 107 -126c65 0 108 29 130 63v352c9 5 23 7 44 7s34 -2 43 -7v-471c-16 -10 -40 -14 -67 -14zM393 676c31 0 52 -18 52 -51s-21 -52 -52 -52c-34 0 -52 18 -52 51
c0 32 22 52 52 52zM187 676c31 0 52 -18 52 -51s-21 -52 -52 -52c-34 0 -52 18 -52 51c0 32 22 52 52 52z" />
    <glyph glyph-name="yacute" unicode="&#xfd;" horiz-adv-x="490" 
d="M254 42h4c6 41 15 82 26 113l111 325c7 3 17 6 35 6c24 0 39 -5 50 -12l-76 -214c-36 -102 -79 -221 -121 -300c-54 -102 -120 -165 -231 -201c-22 17 -35 41 -38 71c96 27 155 86 191 154l-192 490c11 7 30 12 53 12c18 0 29 -3 35 -6l124 -325c11 -29 22 -73 29 -113z
M385 712l-148 -158c-24 6 -40 19 -50 37l117 149c26 0 62 -10 81 -28z" />
    <glyph glyph-name="thorn" unicode="&#xfe;" horiz-adv-x="558" 
d="M172 735v-188c0 -41 -2 -88 -7 -126h4c19 45 66 81 147 81c103 0 202 -62 202 -244c0 -157 -73 -278 -244 -278c-35 0 -77 5 -102 18v-226c-9 -5 -22 -7 -43 -7s-35 2 -44 7v944c20 12 50 19 87 19zM172 355v-281c24 -10 53 -16 86 -16c123 0 171 81 171 190
c0 115 -49 174 -136 174c-63 0 -97 -32 -121 -67z" />
    <glyph glyph-name="ydieresis" unicode="&#xff;" horiz-adv-x="490" 
d="M254 42h4c6 41 15 82 26 113l111 325c7 3 17 6 35 6c24 0 39 -5 50 -12l-76 -214c-36 -102 -79 -221 -121 -300c-54 -102 -120 -165 -231 -201c-22 17 -35 41 -38 71c96 27 155 86 191 154l-192 490c11 7 30 12 53 12c18 0 29 -3 35 -6l124 -325c11 -29 22 -73 29 -113z
M355 676c31 0 52 -18 52 -51s-21 -52 -52 -52c-34 0 -52 18 -52 51c0 32 22 52 52 52zM149 676c31 0 52 -18 52 -51s-21 -52 -52 -52c-34 0 -52 18 -52 51c0 32 22 52 52 52z" />
    <glyph glyph-name="Amacron" unicode="&#x100;" horiz-adv-x="656" 
d="M543 6l-70 194h-292l-69 -194c-10 -5 -25 -8 -49 -8c-22 0 -37 3 -45 8l255 691c11 4 35 6 56 6s45 -2 56 -6l253 -691c-8 -5 -24 -8 -46 -8c-24 0 -39 3 -49 8zM208 278h238l-53 150c-26 73 -48 143 -64 216h-4c-15 -70 -40 -147 -64 -215zM176 856h303
c5 -8 7 -21 7 -36s-2 -28 -7 -36h-303c-5 8 -7 21 -7 36s2 28 7 36z" />
    <glyph glyph-name="amacron" unicode="&#x101;" horiz-adv-x="521" 
d="M349 39h-4c-29 -38 -75 -59 -141 -59c-86 0 -161 41 -161 150c0 117 87 165 200 165c33 0 71 -4 100 -16v26c0 83 -32 118 -110 118c-57 0 -111 -18 -153 -44c-7 25 -4 64 10 87c34 20 93 36 159 36c119 0 180 -51 180 -188v-218c0 -29 15 -37 35 -37c19 0 37 7 47 14
c2 -26 -4 -57 -17 -75c-17 -10 -39 -18 -66 -18c-45 0 -71 22 -79 59zM343 111v98c-25 9 -53 15 -87 15c-83 0 -126 -37 -126 -90c0 -52 42 -75 96 -75c43 0 91 14 117 52zM119 656h268c4 -7 6 -19 6 -34s-2 -28 -6 -35h-280c0 22 5 51 12 69z" />
    <glyph glyph-name="Abreve" unicode="&#x102;" horiz-adv-x="656" 
d="M543 6l-70 194h-292l-69 -194c-10 -5 -25 -8 -49 -8c-22 0 -37 3 -45 8l255 691c11 4 35 6 56 6s45 -2 56 -6l253 -691c-8 -5 -24 -8 -46 -8c-24 0 -39 3 -49 8zM208 278h238l-53 150c-26 73 -48 143 -64 216h-4c-15 -70 -40 -147 -64 -215zM435 901c23 0 45 -4 62 -17
c-16 -76 -76 -128 -175 -128c-96 0 -151 44 -163 122c16 16 39 24 66 26c12 -56 45 -79 104 -79c53 0 89 27 106 76z" />
    <glyph glyph-name="abreve" unicode="&#x103;" horiz-adv-x="521" 
d="M349 39h-4c-29 -38 -75 -59 -141 -59c-86 0 -161 41 -161 150c0 117 87 165 200 165c33 0 71 -4 100 -16v26c0 83 -32 118 -110 118c-57 0 -111 -18 -153 -44c-7 25 -4 64 10 87c34 20 93 36 159 36c119 0 180 -51 180 -188v-218c0 -29 15 -37 35 -37c19 0 37 7 47 14
c2 -26 -4 -57 -17 -75c-17 -10 -39 -18 -66 -18c-45 0 -71 22 -79 59zM343 111v98c-25 9 -53 15 -87 15c-83 0 -126 -37 -126 -90c0 -52 42 -75 96 -75c43 0 91 14 117 52zM164 726c6 -70 40 -99 88 -99s80 34 92 94c23 0 46 -6 61 -18c-13 -87 -69 -144 -159 -144
c-86 0 -136 51 -148 138c13 15 39 27 66 29z" />
    <glyph glyph-name="Aogonek" unicode="&#x104;" horiz-adv-x="656" 
d="M208 278h238l-53 150c-26 73 -48 143 -64 216h-4c-15 -70 -40 -147 -64 -215zM625 -163c11 -15 18 -43 18 -62c-18 -7 -37 -11 -65 -11c-67 0 -122 34 -122 112c0 53 27 104 88 127l-71 197h-292l-69 -194c-10 -5 -25 -8 -49 -8c-22 0 -37 3 -45 8l255 691
c11 4 35 6 56 6s45 -2 56 -6l253 -691c-67 -30 -98 -72 -98 -116c0 -39 26 -57 61 -57c8 0 17 1 24 4z" />
    <glyph glyph-name="aogonek" unicode="&#x105;" horiz-adv-x="521" 
d="M487 -151c11 -15 18 -43 18 -62c-18 -7 -37 -11 -65 -11c-67 0 -122 32 -122 106c0 44 26 83 69 103v4c-22 10 -33 28 -38 50h-4c-29 -38 -77 -59 -141 -59c-86 0 -161 41 -161 150c0 117 87 165 200 165c33 0 71 -4 100 -16v26c0 83 -32 118 -110 118
c-57 0 -111 -18 -153 -44c-7 25 -4 64 10 87c34 20 93 36 159 36c119 0 180 -51 180 -188v-218c0 -29 15 -37 35 -37c19 0 37 7 47 14c2 -26 -4 -57 -17 -75c-66 -29 -92 -63 -92 -98c0 -37 26 -55 61 -55c8 0 17 1 24 4zM343 111v98c-25 9 -53 15 -87 15
c-83 0 -126 -37 -126 -90c0 -52 42 -75 96 -75c43 0 91 14 117 52z" />
    <glyph glyph-name="Cacute" unicode="&#x106;" horiz-adv-x="624" 
d="M571 595c-50 26 -102 39 -158 39c-152 0 -263 -86 -263 -288c0 -196 104 -284 253 -284c67 0 130 18 176 41c1 -25 -10 -66 -25 -86c-43 -22 -106 -40 -178 -40c-200 0 -320 136 -320 362c0 249 144 379 340 379c57 0 114 -11 154 -34c15 -21 24 -61 21 -89zM518 908
c21 -17 30 -47 32 -74l-222 -91c-13 16 -18 40 -19 65z" />
    <glyph glyph-name="cacute" unicode="&#x107;" horiz-adv-x="481" 
d="M136 244c0 -124 65 -182 171 -182c51 0 94 15 131 37c3 -27 -8 -69 -24 -87c-32 -18 -77 -32 -136 -32c-148 0 -231 98 -231 257c0 182 107 265 241 265c54 0 96 -12 124 -30c14 -19 21 -57 16 -86c-39 24 -76 35 -123 35c-102 0 -169 -56 -169 -177zM410 712l-148 -158
c-24 6 -40 19 -50 37l117 149c26 0 62 -10 81 -28z" />
    <glyph glyph-name="Ccircumflex" unicode="&#x108;" horiz-adv-x="624" 
d="M571 595c-50 26 -102 39 -158 39c-152 0 -263 -86 -263 -288c0 -196 104 -284 253 -284c67 0 130 18 176 41c1 -25 -10 -66 -25 -86c-43 -22 -106 -40 -178 -40c-200 0 -320 136 -320 362c0 249 144 379 340 379c57 0 114 -11 154 -34c15 -21 24 -61 21 -89zM377 829
l-142 -82c-15 14 -22 34 -24 61l119 81c11 3 25 7 47 7c20 0 35 -3 43 -5l128 -88c-4 -27 -18 -47 -35 -57z" />
    <glyph glyph-name="ccircumflex" unicode="&#x109;" horiz-adv-x="481" 
d="M136 244c0 -124 65 -182 171 -182c51 0 94 15 131 37c3 -27 -8 -69 -24 -87c-32 -18 -77 -32 -136 -32c-148 0 -231 98 -231 257c0 182 107 265 241 265c54 0 96 -12 124 -30c14 -19 21 -57 16 -86c-39 24 -76 35 -123 35c-102 0 -169 -56 -169 -177zM126 603l107 125
c19 7 48 9 72 9l120 -144c-8 -20 -27 -35 -50 -42l-105 115l-111 -119c-19 15 -28 33 -33 56z" />
    <glyph glyph-name="Cdotaccent" unicode="&#x10a;" horiz-adv-x="624" 
d="M571 595c-50 26 -102 39 -158 39c-152 0 -263 -86 -263 -288c0 -196 104 -284 253 -284c67 0 130 18 176 41c1 -25 -10 -66 -25 -86c-43 -22 -106 -40 -178 -40c-200 0 -320 136 -320 362c0 249 144 379 340 379c57 0 114 -11 154 -34c15 -21 24 -61 21 -89zM381 879
c35 0 58 -20 58 -56c0 -37 -23 -58 -58 -58c-39 0 -59 20 -59 57c0 35 24 57 59 57z" />
    <glyph glyph-name="cdotaccent" unicode="&#x10b;" horiz-adv-x="481" 
d="M136 244c0 -124 65 -182 171 -182c51 0 94 15 131 37c3 -27 -8 -69 -24 -87c-32 -18 -77 -32 -136 -32c-148 0 -231 98 -231 257c0 182 107 265 241 265c54 0 96 -12 124 -30c14 -19 21 -57 16 -86c-39 24 -76 35 -123 35c-102 0 -169 -56 -169 -177zM276 684
c33 0 55 -19 55 -54c0 -36 -22 -56 -55 -56c-37 0 -56 19 -56 55c0 34 23 55 56 55z" />
    <glyph glyph-name="Ccaron" unicode="&#x10c;" horiz-adv-x="624" 
d="M571 595c-50 26 -102 39 -158 39c-152 0 -263 -86 -263 -288c0 -196 104 -284 253 -284c67 0 130 18 176 41c1 -25 -10 -66 -25 -86c-43 -22 -106 -40 -178 -40c-200 0 -320 136 -320 362c0 249 144 379 340 379c57 0 114 -11 154 -34c15 -21 24 -61 21 -89zM251 906
l128 -81l136 78c17 -9 33 -29 37 -54l-131 -87c-8 -2 -22 -5 -43 -5c-19 0 -34 3 -41 5l-130 92c7 25 25 43 44 52z" />
    <glyph glyph-name="ccaron" unicode="&#x10d;" horiz-adv-x="481" 
d="M136 244c0 -124 65 -182 171 -182c51 0 94 15 131 37c3 -27 -8 -69 -24 -87c-32 -18 -77 -32 -136 -32c-148 0 -231 98 -231 257c0 182 107 265 241 265c54 0 96 -12 124 -30c14 -19 21 -57 16 -86c-39 24 -76 35 -123 35c-102 0 -169 -56 -169 -177zM240 558l-119 146
c13 18 37 29 59 31l97 -108l103 112c21 -5 38 -21 48 -38l-115 -136c-19 -5 -47 -7 -73 -7z" />
    <glyph glyph-name="Dcaron" unicode="&#x10e;" horiz-adv-x="697" 
d="M100 1v688c60 10 115 13 175 13c223 0 381 -113 381 -355c0 -241 -157 -352 -356 -352c-66 0 -133 1 -200 6zM191 616v-536c35 -3 73 -4 107 -4c163 0 264 88 264 266c0 191 -117 280 -289 280c-27 0 -56 -1 -82 -6zM222 906l128 -81l136 78c17 -9 33 -29 37 -54
l-131 -87c-8 -2 -22 -5 -43 -5c-19 0 -34 3 -41 5l-130 92c7 25 25 43 44 52z" />
    <glyph glyph-name="dcaron" unicode="&#x10f;" horiz-adv-x="572" 
d="M395 483v233c20 12 50 19 87 19v-729c-17 -10 -40 -14 -65 -14l-12 57h-4c-30 -43 -80 -69 -149 -69c-121 0 -204 81 -204 246c0 179 96 276 244 276c42 0 79 -8 103 -19zM395 114v295c-23 11 -53 16 -84 16c-124 0 -174 -81 -174 -194c0 -111 49 -169 139 -169
c61 0 94 27 119 52zM562 727c22 11 47 17 81 17c-3 -71 -31 -161 -56 -207c-26 2 -50 13 -61 28c17 45 32 103 36 162z" />
    <glyph glyph-name="Dcroat" unicode="&#x110;" horiz-adv-x="702" 
d="M20 391h85v298c60 10 115 13 175 13c223 0 381 -113 381 -355c0 -241 -157 -352 -356 -352c-66 0 -133 1 -200 6v312h-85c-5 9 -7 22 -7 39s2 30 7 39zM196 616v-225h197c5 -9 7 -22 7 -39s-2 -30 -7 -39h-197v-233c35 -3 73 -4 107 -4c163 0 264 88 264 266
c0 191 -117 280 -289 280c-27 0 -56 -1 -82 -6z" />
    <glyph glyph-name="dcroat" unicode="&#x111;" horiz-adv-x="573" 
d="M558 562h-74v-556c-17 -10 -40 -14 -65 -14l-12 57h-4c-30 -43 -80 -69 -149 -69c-121 0 -204 80 -204 242c0 176 96 271 244 271c42 0 79 -8 103 -19v88h-178c0 24 4 50 12 68h166v86c20 12 50 19 87 19v-105h74c4 -5 7 -18 7 -34c0 -15 -3 -29 -7 -34zM397 114v286
c-23 11 -53 16 -84 16c-124 0 -174 -79 -174 -189c0 -108 49 -165 139 -165c61 0 94 27 119 52z" />
    <glyph glyph-name="Emacron" unicode="&#x112;" horiz-adv-x="608" 
d="M100 695h441c5 -10 7 -23 7 -40s-2 -30 -7 -40h-350v-222h325c5 -10 7 -22 7 -39s-2 -30 -7 -40h-325v-233h359c5 -10 7 -23 7 -40s-2 -31 -7 -41h-450v695zM179 856h303c5 -8 7 -21 7 -36s-2 -28 -7 -36h-303c-5 8 -7 21 -7 36s2 28 7 36z" />
    <glyph glyph-name="emacron" unicode="&#x113;" horiz-adv-x="526" 
d="M466 214h-329c4 -109 72 -155 180 -155c61 0 112 15 151 38c3 -28 -8 -65 -22 -81c-31 -19 -83 -36 -149 -36c-161 0 -250 100 -250 256c0 155 90 266 238 266c132 0 193 -86 193 -207c0 -30 -4 -57 -12 -81zM138 287h254c7 66 -14 140 -111 140
c-85 0 -136 -56 -143 -140zM144 656h268c4 -7 6 -19 6 -34s-2 -28 -6 -35h-280c0 22 5 51 12 69z" />
    <glyph glyph-name="Ebreve" unicode="&#x114;" horiz-adv-x="608" 
d="M100 695h441c5 -10 7 -23 7 -40s-2 -30 -7 -40h-350v-222h325c5 -10 7 -22 7 -39s-2 -30 -7 -40h-325v-233h359c5 -10 7 -23 7 -40s-2 -31 -7 -41h-450v695zM438 901c23 0 45 -4 62 -17c-16 -76 -76 -128 -175 -128c-96 0 -151 44 -163 122c16 16 39 24 66 26
c12 -56 45 -79 104 -79c53 0 89 27 106 76z" />
    <glyph glyph-name="ebreve" unicode="&#x115;" horiz-adv-x="526" 
d="M466 214h-329c4 -109 72 -155 180 -155c61 0 112 15 151 38c3 -28 -8 -65 -22 -81c-31 -19 -83 -36 -149 -36c-161 0 -250 100 -250 256c0 155 90 266 238 266c132 0 193 -86 193 -207c0 -30 -4 -57 -12 -81zM138 287h254c7 66 -14 140 -111 140
c-85 0 -136 -56 -143 -140zM193 726c6 -70 40 -99 88 -99s80 34 92 94c23 0 46 -6 61 -18c-13 -87 -69 -144 -159 -144c-86 0 -136 51 -148 138c13 15 39 27 66 29z" />
    <glyph glyph-name="Edotaccent" unicode="&#x116;" horiz-adv-x="608" 
d="M100 695h441c5 -10 7 -23 7 -40s-2 -30 -7 -40h-350v-222h325c5 -10 7 -22 7 -39s-2 -30 -7 -40h-325v-233h359c5 -10 7 -23 7 -40s-2 -31 -7 -41h-450v695zM331 879c35 0 58 -20 58 -56c0 -37 -23 -58 -58 -58c-39 0 -59 20 -59 57c0 35 24 57 59 57z" />
    <glyph glyph-name="edotaccent" unicode="&#x117;" horiz-adv-x="526" 
d="M466 214h-329c4 -109 72 -155 180 -155c61 0 112 15 151 38c3 -28 -8 -65 -22 -81c-31 -19 -83 -36 -149 -36c-161 0 -250 100 -250 256c0 155 90 266 238 266c132 0 193 -86 193 -207c0 -30 -4 -57 -12 -81zM138 287h254c7 66 -14 140 -111 140
c-85 0 -136 -56 -143 -140zM277 684c33 0 55 -19 55 -54c0 -36 -22 -56 -55 -56c-37 0 -56 19 -56 55c0 34 23 55 56 55z" />
    <glyph glyph-name="Eogonek" unicode="&#x118;" horiz-adv-x="608" 
d="M557 -163c11 -15 18 -43 18 -62c-18 -7 -37 -11 -65 -11c-67 0 -122 34 -122 112c0 53 25 99 77 120v4h-365v695h441c5 -10 7 -23 7 -40s-2 -30 -7 -40h-350v-222h325c5 -10 7 -22 7 -39s-2 -30 -7 -40h-325v-233h359c5 -10 7 -23 7 -40s-2 -31 -7 -41
c-52 -31 -78 -68 -78 -108s26 -59 61 -59c8 0 17 1 24 4z" />
    <glyph glyph-name="eogonek" unicode="&#x119;" horiz-adv-x="526" 
d="M424 -151c11 -15 18 -43 18 -62c-18 -7 -37 -11 -65 -11c-67 0 -122 32 -122 106c0 45 18 78 53 94v4h-11c-161 0 -250 100 -250 256c0 155 90 266 238 266c132 0 193 -86 193 -207c0 -30 -4 -57 -12 -81h-329c4 -109 72 -155 180 -155c61 0 112 15 151 38
c3 -28 -8 -65 -22 -81c-42 -20 -107 -56 -107 -116c0 -37 26 -55 61 -55c8 0 17 1 24 4zM138 287h254c7 66 -14 140 -111 140c-85 0 -136 -56 -143 -140z" />
    <glyph glyph-name="Ecaron" unicode="&#x11a;" horiz-adv-x="608" 
d="M100 695h441c5 -10 7 -23 7 -40s-2 -30 -7 -40h-350v-222h325c5 -10 7 -22 7 -39s-2 -30 -7 -40h-325v-233h359c5 -10 7 -23 7 -40s-2 -31 -7 -41h-450v695zM201 906l128 -81l136 78c17 -9 33 -29 37 -54l-131 -87c-8 -2 -22 -5 -43 -5c-19 0 -34 3 -41 5l-130 92
c7 25 25 43 44 52z" />
    <glyph glyph-name="ecaron" unicode="&#x11b;" horiz-adv-x="526" 
d="M466 214h-329c4 -109 72 -155 180 -155c61 0 112 15 151 38c3 -28 -8 -65 -22 -81c-31 -19 -83 -36 -149 -36c-161 0 -250 100 -250 256c0 155 90 266 238 266c132 0 193 -86 193 -207c0 -30 -4 -57 -12 -81zM138 287h254c7 66 -14 140 -111 140
c-85 0 -136 -56 -143 -140zM241 558l-119 146c13 18 37 29 59 31l97 -108l103 112c21 -5 38 -21 48 -38l-115 -136c-19 -5 -47 -7 -73 -7z" />
    <glyph glyph-name="Gcircumflex" unicode="&#x11c;" horiz-adv-x="698" 
d="M633 31c-57 -29 -149 -54 -240 -54c-212 0 -337 133 -337 360c0 249 149 381 359 381c66 0 126 -12 170 -36c14 -22 23 -60 19 -89c-55 28 -114 42 -177 42c-161 0 -277 -87 -277 -291c0 -196 104 -283 256 -283c53 0 105 11 140 26v214h-176c-3 7 -6 21 -6 40
c0 17 3 31 6 38h263v-348zM395 829l-142 -82c-15 14 -22 34 -24 61l119 81c11 3 25 7 47 7c20 0 35 -3 43 -5l128 -88c-4 -27 -18 -47 -35 -57z" />
    <glyph glyph-name="gcircumflex" unicode="&#x11d;" horiz-adv-x="515" 
d="M249 142c-26 0 -54 3 -77 11c-12 -10 -19 -29 -19 -43c0 -37 46 -47 125 -47c130 0 225 -25 225 -147c0 -119 -95 -169 -243 -169c-133 0 -234 41 -234 151c0 66 37 103 77 120v4c-24 16 -37 40 -37 72c0 36 16 66 47 83v4c-33 27 -58 68 -58 141c0 117 78 180 193 180
c36 0 70 -7 98 -20h138c8 -18 12 -45 12 -69h-78v-4c14 -18 24 -45 24 -89c0 -111 -69 -178 -193 -178zM262 -11c-35 0 -61 2 -91 7c-37 -17 -59 -49 -59 -86c0 -68 75 -90 155 -90c89 0 151 27 151 91c0 53 -40 78 -156 78zM138 323c0 -69 39 -108 110 -108
c72 0 111 41 111 108s-40 106 -111 106c-73 0 -110 -41 -110 -106zM106 603l107 125c19 7 48 9 72 9l120 -144c-8 -20 -27 -35 -50 -42l-105 115l-111 -119c-19 15 -28 33 -33 56z" />
    <glyph glyph-name="Gbreve" unicode="&#x11e;" horiz-adv-x="698" 
d="M633 31c-57 -29 -149 -54 -240 -54c-212 0 -337 133 -337 360c0 249 149 381 359 381c66 0 126 -12 170 -36c14 -22 23 -60 19 -89c-55 28 -114 42 -177 42c-161 0 -277 -87 -277 -291c0 -196 104 -283 256 -283c53 0 105 11 140 26v214h-176c-3 7 -6 21 -6 40
c0 17 3 31 6 38h263v-348zM504 901c23 0 45 -4 62 -17c-16 -76 -76 -128 -175 -128c-96 0 -151 44 -163 122c16 16 39 24 66 26c12 -56 45 -79 104 -79c53 0 89 27 106 76z" />
    <glyph glyph-name="gbreve" unicode="&#x11f;" horiz-adv-x="515" 
d="M249 142c-26 0 -54 3 -77 11c-12 -10 -19 -29 -19 -43c0 -37 46 -47 125 -47c130 0 225 -25 225 -147c0 -119 -95 -169 -243 -169c-133 0 -234 41 -234 151c0 66 37 103 77 120v4c-24 16 -37 40 -37 72c0 36 16 66 47 83v4c-33 27 -58 68 -58 141c0 117 78 180 193 180
c36 0 70 -7 98 -20h138c8 -18 12 -45 12 -69h-78v-4c14 -18 24 -45 24 -89c0 -111 -69 -178 -193 -178zM262 -11c-35 0 -61 2 -91 7c-37 -17 -59 -49 -59 -86c0 -68 75 -90 155 -90c89 0 151 27 151 91c0 53 -40 78 -156 78zM138 323c0 -69 39 -108 110 -108
c72 0 111 41 111 108s-40 106 -111 106c-73 0 -110 -41 -110 -106zM167 726c6 -70 40 -99 88 -99s80 34 92 94c23 0 46 -6 61 -18c-13 -87 -69 -144 -159 -144c-86 0 -136 51 -148 138c13 15 39 27 66 29z" />
    <glyph glyph-name="Gdotaccent" unicode="&#x120;" horiz-adv-x="698" 
d="M633 31c-57 -29 -149 -54 -240 -54c-212 0 -337 133 -337 360c0 249 149 381 359 381c66 0 126 -12 170 -36c14 -22 23 -60 19 -89c-55 28 -114 42 -177 42c-161 0 -277 -87 -277 -291c0 -196 104 -283 256 -283c53 0 105 11 140 26v214h-176c-3 7 -6 21 -6 40
c0 17 3 31 6 38h263v-348zM398 879c35 0 58 -20 58 -56c0 -37 -23 -58 -58 -58c-39 0 -59 20 -59 57c0 35 24 57 59 57z" />
    <glyph glyph-name="gdotaccent" unicode="&#x121;" horiz-adv-x="515" 
d="M249 142c-26 0 -54 3 -77 11c-12 -10 -19 -29 -19 -43c0 -37 46 -47 125 -47c130 0 225 -25 225 -147c0 -119 -95 -169 -243 -169c-133 0 -234 41 -234 151c0 66 37 103 77 120v4c-24 16 -37 40 -37 72c0 36 16 66 47 83v4c-33 27 -58 68 -58 141c0 117 78 180 193 180
c36 0 70 -7 98 -20h138c8 -18 12 -45 12 -69h-78v-4c14 -18 24 -45 24 -89c0 -111 -69 -178 -193 -178zM262 -11c-35 0 -61 2 -91 7c-37 -17 -59 -49 -59 -86c0 -68 75 -90 155 -90c89 0 151 27 151 91c0 53 -40 78 -156 78zM138 323c0 -69 39 -108 110 -108
c72 0 111 41 111 108s-40 106 -111 106c-73 0 -110 -41 -110 -106zM252 684c33 0 55 -19 55 -54c0 -36 -22 -56 -55 -56c-37 0 -56 19 -56 55c0 34 23 55 56 55z" />
    <glyph glyph-name="uni0122" unicode="&#x122;" horiz-adv-x="698" 
d="M633 31c-57 -29 -149 -54 -240 -54c-212 0 -337 133 -337 360c0 249 149 381 359 381c66 0 126 -12 170 -36c14 -22 23 -60 19 -89c-55 28 -114 42 -177 42c-161 0 -277 -87 -277 -291c0 -196 104 -283 256 -283c53 0 105 11 140 26v214h-176c-3 7 -6 21 -6 40
c0 17 3 31 6 38h263v-348zM351 -65c23 12 51 17 88 17c-4 -71 -28 -162 -54 -208c-26 3 -53 14 -66 30c16 45 28 104 32 161z" />
    <glyph glyph-name="uni0123" unicode="&#x123;" horiz-adv-x="515" 
d="M249 142c-26 0 -54 3 -77 11c-12 -10 -19 -29 -19 -43c0 -37 46 -47 125 -47c130 0 225 -25 225 -147c0 -119 -95 -169 -243 -169c-133 0 -234 41 -234 151c0 66 37 103 77 120v4c-24 16 -37 40 -37 72c0 36 16 66 47 83v4c-33 27 -58 68 -58 141c0 117 78 180 193 180
c36 0 70 -7 98 -20h138c8 -18 12 -45 12 -69h-78v-4c14 -18 24 -45 24 -89c0 -111 -69 -178 -193 -178zM262 -11c-35 0 -61 2 -91 7c-37 -17 -59 -49 -59 -86c0 -68 75 -90 155 -90c89 0 151 27 151 91c0 53 -40 78 -156 78zM138 323c0 -69 39 -108 110 -108
c72 0 111 41 111 108s-40 106 -111 106c-73 0 -110 -41 -110 -106zM205 567c3 59 24 126 44 167c19 12 45 18 78 18c-20 -51 -35 -121 -39 -179c-11 -6 -26 -10 -46 -10c-17 0 -31 2 -37 4z" />
    <glyph glyph-name="Hcircumflex" unicode="&#x124;" horiz-adv-x="750" 
d="M559 5v315h-368v-315c-9 -5 -23 -7 -45 -7s-37 2 -46 7v685c9 5 24 7 46 7s36 -2 45 -7v-290h368v290c9 5 24 7 46 7s36 -2 45 -7v-685c-9 -5 -23 -7 -45 -7s-37 2 -46 7zM372 829l-142 -82c-15 14 -22 34 -24 61l119 81c11 3 25 7 47 7c20 0 35 -3 43 -5l128 -88
c-4 -27 -18 -47 -35 -57z" />
    <glyph glyph-name="hcircumflex" unicode="&#x125;" horiz-adv-x="583" 
d="M172 344v-339c-9 -5 -22 -7 -43 -7s-35 2 -44 7v711c20 12 50 19 87 19v-181c0 -56 -2 -98 -8 -138h4c21 44 67 86 165 86c81 0 171 -28 171 -190v-307c-9 -5 -22 -7 -43 -7s-35 2 -44 7v289c0 79 -26 127 -109 127c-73 0 -115 -37 -136 -77zM131 830l-139 -79
c-14 18 -18 38 -19 60l114 76c18 6 47 8 76 8l134 -92c-5 -23 -18 -44 -33 -54z" />
    <glyph glyph-name="Hbar" unicode="&#x126;" horiz-adv-x="756" 
d="M27 562h76v128c9 5 24 7 46 7s36 -2 45 -7v-128h368v128c9 5 24 7 46 7s36 -2 45 -7v-128h76c5 -9 7 -19 7 -36s-2 -27 -7 -36h-76v-485c-9 -5 -23 -7 -45 -7s-37 2 -46 7v293h-368v-293c-9 -5 -23 -7 -45 -7s-37 2 -46 7v485h-76c-5 9 -7 19 -7 36s2 27 7 36zM194 378
h368v112h-368v-112z" />
    <glyph glyph-name="hbar" unicode="&#x127;" horiz-adv-x="586" 
d="M353 562h-178v-20c0 -56 -2 -98 -8 -138h4c21 44 67 86 165 86c81 0 171 -28 171 -190v-295c-9 -5 -22 -7 -43 -7s-35 2 -44 7v277c0 79 -26 127 -109 127c-73 0 -115 -37 -136 -77v-327c-9 -5 -22 -7 -43 -7s-35 2 -44 7v557h-73c0 24 4 50 12 68h61v86
c20 12 50 19 87 19v-105h178c4 -5 7 -18 7 -34c0 -15 -3 -29 -7 -34z" />
    <glyph glyph-name="Itilde" unicode="&#x128;" horiz-adv-x="291" 
d="M100 5v685c9 5 24 7 46 7s36 -2 45 -7v-685c-9 -5 -23 -7 -45 -7s-37 2 -46 7zM-46 790c10 52 50 95 116 95c73 0 99 -51 151 -51c28 0 49 17 56 42c23 -1 42 -6 59 -18c-9 -54 -47 -99 -119 -99c-69 0 -94 52 -151 52c-29 0 -48 -18 -57 -47c-22 3 -41 11 -55 26z" />
    <glyph glyph-name="itilde" unicode="&#x129;" horiz-adv-x="257" 
d="M85 5v472c9 5 23 7 44 7s34 -2 43 -7v-472c-9 -5 -22 -7 -43 -7s-35 2 -44 7zM292 661c-4 -57 -38 -97 -95 -97c-63 0 -89 49 -131 49c-26 0 -41 -16 -48 -45c-20 3 -44 16 -53 34c10 49 46 83 96 83c66 0 93 -49 132 -49c24 0 37 14 41 42c23 -2 43 -8 58 -17z" />
    <glyph glyph-name="Imacron" unicode="&#x12a;" horiz-adv-x="291" 
d="M100 5v685c9 5 24 7 46 7s36 -2 45 -7v-685c-9 -5 -23 -7 -45 -7s-37 2 -46 7zM23 856h245c5 -8 7 -21 7 -36s-2 -28 -7 -36h-245c-5 8 -7 21 -7 36s2 28 7 36z" />
    <glyph glyph-name="imacron" unicode="&#x12b;" horiz-adv-x="257" 
d="M85 5v472c9 5 23 7 44 7s34 -2 43 -7v-472c-9 -5 -22 -7 -43 -7s-35 2 -44 7zM25 656h212c4 -7 6 -19 6 -34s-2 -28 -6 -35h-224c0 22 5 51 12 69z" />
    <glyph glyph-name="Ibreve" unicode="&#x12c;" horiz-adv-x="291" 
d="M100 5v685c9 5 24 7 46 7s36 -2 45 -7v-685c-9 -5 -23 -7 -45 -7s-37 2 -46 7zM252 901c23 0 45 -4 62 -17c-16 -76 -76 -128 -175 -128c-96 0 -151 44 -163 122c16 16 39 24 66 26c12 -56 45 -79 104 -79c53 0 89 27 106 76z" />
    <glyph glyph-name="ibreve" unicode="&#x12d;" horiz-adv-x="257" 
d="M43 726c6 -70 40 -99 88 -99s80 34 92 94c23 0 46 -6 61 -18c-13 -87 -69 -144 -159 -144c-86 0 -136 51 -148 138c13 15 39 27 66 29zM85 5v472c9 5 23 7 44 7s34 -2 43 -7v-472c-9 -5 -22 -7 -43 -7s-35 2 -44 7z" />
    <glyph glyph-name="Iogonek" unicode="&#x12e;" horiz-adv-x="291" 
d="M185 -163c11 -15 18 -43 18 -62c-18 -7 -37 -11 -65 -11c-67 0 -122 34 -122 112c0 52 25 102 84 128v686c9 5 24 7 46 7s36 -2 45 -7v-683c-60 -31 -91 -72 -91 -115c0 -40 26 -59 61 -59c8 0 17 1 24 4z" />
    <glyph glyph-name="iogonek" unicode="&#x12f;" horiz-adv-x="257" 
d="M172 -151c11 -15 18 -43 18 -62c-18 -7 -37 -11 -65 -11c-67 0 -122 32 -122 106c0 50 25 96 82 119v476c9 5 23 7 44 7s34 -2 43 -7v-472c-57 -30 -85 -66 -85 -105c0 -37 26 -55 61 -55c8 0 17 1 24 4zM129 711c35 0 58 -20 58 -57c0 -39 -23 -60 -58 -60
c-38 0 -58 20 -58 59c0 36 24 58 58 58z" />
    <glyph glyph-name="Idotaccent" unicode="&#x130;" horiz-adv-x="291" 
d="M100 5v685c9 5 24 7 46 7s36 -2 45 -7v-685c-9 -5 -23 -7 -45 -7s-37 2 -46 7zM146 879c35 0 58 -20 58 -56c0 -37 -23 -58 -58 -58c-39 0 -59 20 -59 57c0 35 24 57 59 57z" />
    <glyph glyph-name="dotlessi" unicode="&#x131;" horiz-adv-x="257" 
d="M85 5v472c9 5 23 7 44 7s34 -2 43 -7v-472c-9 -5 -22 -7 -43 -7s-35 2 -44 7z" />
    <glyph glyph-name="IJ" unicode="&#x132;" horiz-adv-x="615" 
d="M100 5v685c9 5 24 7 46 7s36 -2 45 -7v-685c-9 -5 -23 -7 -45 -7s-37 2 -46 7zM519 690v-540c0 -181 -67 -286 -201 -351c-21 14 -37 44 -41 74c109 58 151 134 151 264v553c9 5 24 7 46 7s36 -2 45 -7z" />
    <glyph glyph-name="ij" unicode="&#x133;" horiz-adv-x="521" 
d="M85 5v472c9 5 23 7 44 7s34 -2 43 -7v-472c-9 -5 -22 -7 -43 -7s-35 2 -44 7zM129 711c35 0 58 -20 58 -57c0 -39 -23 -60 -58 -60c-38 0 -58 20 -58 59c0 36 24 58 58 58zM438 477v-387c0 -173 -58 -258 -146 -330c-25 9 -44 30 -51 58c63 54 110 119 110 249v410
c9 5 23 7 44 7s34 -2 43 -7zM394 711c35 0 58 -20 58 -57c0 -39 -23 -60 -58 -60c-38 0 -58 20 -58 59c0 36 24 58 58 58z" />
    <glyph glyph-name="Jcircumflex" unicode="&#x134;" horiz-adv-x="324" 
d="M228 690v-540c0 -181 -67 -286 -201 -351c-21 14 -37 44 -41 74c109 58 151 134 151 264v553c9 5 24 7 46 7s36 -2 45 -7zM176 829l-142 -82c-15 14 -22 34 -24 61l119 81c11 3 25 7 47 7c20 0 35 -3 43 -5l128 -88c-4 -27 -18 -47 -35 -57z" />
    <glyph glyph-name="jcircumflex" unicode="&#x135;" horiz-adv-x="264" 
d="M-11 603l107 125c19 7 48 9 72 9l120 -144c-8 -20 -27 -35 -50 -42l-105 115l-111 -119c-19 15 -28 33 -33 56zM181 477v-387c0 -173 -58 -258 -146 -330c-25 9 -44 30 -51 58c63 54 110 119 110 249v410c9 5 23 7 44 7s34 -2 43 -7z" />
    <glyph glyph-name="uni0136" unicode="&#x136;" horiz-adv-x="638" 
d="M100 5v685c9 5 24 7 46 7s36 -2 45 -7v-294h83l219 293c11 5 31 8 56 8c26 0 40 -3 49 -8l-250 -332l274 -351c-8 -6 -26 -8 -53 -8s-47 2 -60 8l-241 310h-77v-311c-9 -5 -23 -7 -45 -7s-37 2 -46 7zM310 -65c23 12 51 17 88 17c-4 -71 -28 -162 -54 -208
c-26 3 -53 14 -66 30c16 45 28 104 32 161z" />
    <glyph glyph-name="uni0137" unicode="&#x137;" horiz-adv-x="525" 
d="M172 297h71l147 184c7 3 23 5 37 5c26 0 50 -5 60 -11l-175 -216c62 -90 117 -166 199 -254c-8 -5 -30 -8 -51 -8c-26 0 -52 3 -63 8c-61 70 -109 137 -163 220h-62v-220c-9 -5 -22 -7 -43 -7s-35 2 -44 7v711c20 12 50 19 87 19v-438zM249 -61c23 11 49 17 84 17
c-3 -69 -29 -156 -53 -200c-27 2 -52 13 -64 28c16 43 29 99 33 155z" />
    <glyph glyph-name="kgreenlandic" unicode="&#x138;" horiz-adv-x="524" 
d="M172 282h71l153 199c7 3 22 5 36 5c25 0 49 -5 59 -11l-178 -229c61 -87 114 -157 195 -241c-8 -5 -29 -8 -50 -8c-26 0 -51 3 -62 8c-60 65 -106 128 -159 205h-65v-205c-9 -5 -22 -7 -43 -7s-35 2 -44 7v472c9 5 23 7 44 7s34 -2 43 -7v-195z" />
    <glyph glyph-name="Lacute" unicode="&#x139;" horiz-adv-x="568" 
d="M531 0h-431v690c9 5 24 7 46 7s36 -2 45 -7v-608h340c5 -10 7 -24 7 -41s-2 -31 -7 -41zM289 908c21 -17 30 -47 32 -74l-222 -91c-13 16 -18 40 -19 65z" />
    <glyph glyph-name="lacute" unicode="&#x13a;" horiz-adv-x="290" 
d="M257 -2c-17 -11 -43 -18 -72 -18c-68 0 -102 39 -102 119v617c20 12 50 19 87 19v-620c0 -44 16 -55 45 -55c24 0 46 8 61 20c2 -29 -5 -64 -19 -82zM253 907c19 -17 28 -43 29 -70l-208 -84c-9 15 -13 38 -13 62z" />
    <glyph glyph-name="uni013B" unicode="&#x13b;" horiz-adv-x="568" 
d="M531 0h-431v690c9 5 24 7 46 7s36 -2 45 -7v-608h340c5 -10 7 -24 7 -41s-2 -31 -7 -41zM294 -65c23 12 51 17 88 17c-4 -71 -28 -162 -54 -208c-26 3 -53 14 -66 30c16 45 28 104 32 161z" />
    <glyph glyph-name="uni013C" unicode="&#x13c;" horiz-adv-x="290" 
d="M257 -2c-17 -11 -43 -18 -72 -18c-68 0 -102 39 -102 119v617c20 12 50 19 87 19v-620c0 -44 16 -55 45 -55c24 0 46 8 61 20c2 -29 -5 -64 -19 -82zM138 -61c23 11 49 17 84 17c-3 -69 -29 -156 -53 -200c-27 2 -52 13 -64 28c16 43 29 99 33 155z" />
    <glyph glyph-name="Lcaron" unicode="&#x13d;" horiz-adv-x="568" 
d="M531 0h-431v690c9 5 24 7 46 7s36 -2 45 -7v-608h340c5 -10 7 -24 7 -41s-2 -31 -7 -41zM387 683c22 11 48 17 82 17c-3 -71 -31 -161 -56 -207c-26 2 -51 13 -62 28c17 45 32 103 36 162z" />
    <glyph glyph-name="lcaron" unicode="&#x13e;" horiz-adv-x="298" 
d="M257 -2c-17 -11 -43 -18 -72 -18c-68 0 -102 39 -102 119v617c20 12 50 19 87 19v-620c0 -44 16 -55 45 -55c24 0 46 8 61 20c2 -29 -5 -64 -19 -82zM255 727c22 11 47 17 81 17c-3 -71 -31 -161 -56 -207c-26 2 -50 13 -61 28c17 45 32 103 36 162z" />
    <glyph glyph-name="Ldot" unicode="&#x13f;" horiz-adv-x="573" 
d="M531 0h-431v690c9 5 24 7 46 7s36 -2 45 -7v-608h340c5 -10 7 -24 7 -41s-2 -31 -7 -41zM428 434c35 0 58 -20 58 -56c0 -37 -23 -58 -58 -58c-39 0 -59 20 -59 57c0 35 24 57 59 57z" />
    <glyph glyph-name="ldot" unicode="&#x140;" horiz-adv-x="367" 
d="M257 -2c-17 -11 -43 -18 -72 -18c-68 0 -102 39 -102 119v617c20 12 50 19 87 19v-620c0 -44 16 -55 45 -55c24 0 46 8 61 20c2 -29 -5 -64 -19 -82zM309 331c33 0 55 -19 55 -54c0 -36 -22 -56 -55 -56c-37 0 -56 19 -56 55c0 34 23 55 56 55z" />
    <glyph glyph-name="Lslash" unicode="&#x141;" horiz-adv-x="571" 
d="M534 0h-431v279l-71 -40c-16 16 -26 43 -27 68l98 56v327c9 5 24 7 46 7s36 -2 45 -7v-293l162 93c15 -15 30 -44 31 -65l-193 -111v-232h340c5 -10 7 -24 7 -41s-2 -31 -7 -41z" />
    <glyph glyph-name="lslash" unicode="&#x142;" horiz-adv-x="297" 
d="M261 -2c-17 -11 -43 -18 -72 -18c-68 0 -102 39 -102 119v179l-58 -33c-10 16 -17 45 -17 71l75 45v355c20 12 50 19 87 19v-339l68 41c16 -15 29 -41 32 -64l-100 -57v-201c0 -44 16 -55 45 -55c24 0 46 8 61 20c2 -29 -5 -64 -19 -82z" />
    <glyph glyph-name="Nacute" unicode="&#x143;" horiz-adv-x="746" 
d="M185 611v-606c-9 -5 -21 -7 -42 -7s-34 2 -43 7v686c14 4 31 7 60 7c28 0 44 -3 57 -7l272 -447c29 -47 53 -100 68 -153h4v599c9 5 21 7 42 7s34 -2 43 -7v-688c-12 -4 -28 -7 -57 -7c-27 0 -44 3 -55 7l-284 467c-25 40 -47 93 -61 142h-4zM514 908
c21 -17 30 -47 32 -74l-222 -91c-13 16 -18 40 -19 65z" />
    <glyph glyph-name="nacute" unicode="&#x144;" horiz-adv-x="579" 
d="M172 344v-339c-9 -5 -22 -7 -43 -7s-35 2 -44 7v471c17 9 43 14 71 14l6 -75h4c22 46 72 87 166 87c79 0 168 -28 168 -190v-307c-9 -5 -22 -7 -43 -7s-35 2 -44 7v290c0 77 -25 126 -108 126c-71 0 -112 -37 -133 -77zM428 712l-148 -158c-24 6 -40 19 -50 37l117 149
c26 0 62 -10 81 -28z" />
    <glyph glyph-name="uni0145" unicode="&#x145;" horiz-adv-x="746" 
d="M185 611v-606c-9 -5 -21 -7 -42 -7s-34 2 -43 7v686c14 4 31 7 60 7c28 0 44 -3 57 -7l272 -447c29 -47 53 -100 68 -153h4v599c9 5 21 7 42 7s34 -2 43 -7v-688c-12 -4 -28 -7 -57 -7c-27 0 -44 3 -55 7l-284 467c-25 40 -47 93 -61 142h-4zM336 -65c23 12 51 17 88 17
c-4 -71 -28 -162 -54 -208c-26 3 -53 14 -66 30c16 45 28 104 32 161z" />
    <glyph glyph-name="uni0146" unicode="&#x146;" horiz-adv-x="579" 
d="M172 344v-339c-9 -5 -22 -7 -43 -7s-35 2 -44 7v471c17 9 43 14 71 14l6 -75h4c22 46 72 87 166 87c79 0 168 -28 168 -190v-307c-9 -5 -22 -7 -43 -7s-35 2 -44 7v290c0 77 -25 126 -108 126c-71 0 -112 -37 -133 -77zM258 -61c23 11 49 17 84 17
c-3 -69 -29 -156 -53 -200c-27 2 -52 13 -64 28c16 43 29 99 33 155z" />
    <glyph glyph-name="Ncaron" unicode="&#x147;" horiz-adv-x="746" 
d="M185 611v-606c-9 -5 -21 -7 -42 -7s-34 2 -43 7v686c14 4 31 7 60 7c28 0 44 -3 57 -7l272 -447c29 -47 53 -100 68 -153h4v599c9 5 21 7 42 7s34 -2 43 -7v-688c-12 -4 -28 -7 -57 -7c-27 0 -44 3 -55 7l-284 467c-25 40 -47 93 -61 142h-4zM245 906l128 -81l136 78
c17 -9 33 -29 37 -54l-131 -87c-8 -2 -22 -5 -43 -5c-19 0 -34 3 -41 5l-130 92c7 25 25 43 44 52z" />
    <glyph glyph-name="ncaron" unicode="&#x148;" horiz-adv-x="579" 
d="M172 344v-339c-9 -5 -22 -7 -43 -7s-35 2 -44 7v471c17 9 43 14 71 14l6 -75h4c22 46 72 87 166 87c79 0 168 -28 168 -190v-307c-9 -5 -22 -7 -43 -7s-35 2 -44 7v290c0 77 -25 126 -108 126c-71 0 -112 -37 -133 -77zM262 558l-119 146c13 18 37 29 59 31l97 -108
l103 112c21 -5 38 -21 48 -38l-115 -136c-19 -5 -47 -7 -73 -7z" />
    <glyph glyph-name="napostrophe" unicode="&#x149;" horiz-adv-x="607" 
d="M12 714c22 11 47 17 81 17c-3 -74 -33 -168 -60 -216c-26 2 -49 13 -60 27c18 48 35 109 39 172zM200 344v-339c-9 -5 -22 -7 -43 -7s-35 2 -44 7v471c17 9 43 14 71 14l6 -75h4c22 46 72 87 166 87c79 0 168 -28 168 -190v-307c-9 -5 -22 -7 -43 -7s-35 2 -44 7v290
c0 77 -25 126 -108 126c-71 0 -112 -37 -133 -77z" />
    <glyph glyph-name="Eng" unicode="&#x14a;" horiz-adv-x="752" 
d="M185 614v-609c-9 -5 -21 -7 -42 -7s-34 2 -43 7v686c13 4 31 7 59 7c29 0 46 -3 59 -7l278 -424c25 -38 51 -97 67 -147h4v570c9 5 21 7 42 7s34 -2 43 -7v-632c0 -164 -57 -259 -168 -321c-19 13 -34 41 -37 69c72 47 108 107 117 198l-313 476c-25 38 -48 88 -62 134
h-4z" />
    <glyph glyph-name="eng" unicode="&#x14b;" horiz-adv-x="577" 
d="M172 344v-339c-9 -5 -22 -7 -43 -7s-35 2 -44 7v471c17 9 43 14 71 14l6 -75h4c22 46 71 87 165 87c80 0 169 -28 169 -190v-176c0 -173 -58 -258 -146 -330c-23 8 -43 31 -52 57c64 54 111 120 111 250v182c0 77 -25 126 -108 126c-71 0 -112 -37 -133 -77z" />
    <glyph glyph-name="Omacron" unicode="&#x14c;" horiz-adv-x="744" 
d="M372 718c187 0 314 -127 314 -363c0 -244 -123 -378 -314 -378c-200 0 -314 127 -314 378c0 227 129 363 314 363zM152 355c0 -187 79 -295 220 -295c143 0 220 110 220 295c0 174 -86 281 -220 281c-144 0 -220 -107 -220 -281zM195 856h355c5 -8 7 -21 7 -36
s-2 -28 -7 -36h-355c-5 8 -7 21 -7 36s2 28 7 36z" />
    <glyph glyph-name="omacron" unicode="&#x14d;" horiz-adv-x="555" 
d="M278 502c139 0 228 -89 228 -254c0 -174 -87 -268 -228 -268c-148 0 -229 90 -229 268c0 160 90 254 229 254zM138 248c0 -121 47 -192 140 -192s139 72 139 192c0 110 -51 178 -139 178c-94 0 -140 -69 -140 -178zM128 656h304c4 -7 6 -19 6 -34s-2 -28 -6 -35h-316
c0 22 5 51 12 69z" />
    <glyph glyph-name="Obreve" unicode="&#x14e;" horiz-adv-x="744" 
d="M372 718c187 0 314 -127 314 -363c0 -244 -123 -378 -314 -378c-200 0 -314 127 -314 378c0 227 129 363 314 363zM152 355c0 -187 79 -295 220 -295c143 0 220 110 220 295c0 174 -86 281 -220 281c-144 0 -220 -107 -220 -281zM481 901c23 0 45 -4 62 -17
c-16 -76 -76 -128 -175 -128c-96 0 -151 44 -163 122c16 16 39 24 66 26c12 -56 45 -79 104 -79c53 0 89 27 106 76z" />
    <glyph glyph-name="obreve" unicode="&#x14f;" horiz-adv-x="555" 
d="M278 502c139 0 228 -89 228 -254c0 -174 -87 -268 -228 -268c-148 0 -229 90 -229 268c0 160 90 254 229 254zM138 248c0 -121 47 -192 140 -192s139 72 139 192c0 110 -51 178 -139 178c-94 0 -140 -69 -140 -178zM190 726c6 -70 40 -99 88 -99s80 34 92 94
c23 0 46 -6 61 -18c-13 -87 -69 -144 -159 -144c-86 0 -136 51 -148 138c13 15 39 27 66 29z" />
    <glyph glyph-name="Ohungarumlaut" unicode="&#x150;" horiz-adv-x="744" 
d="M372 718c187 0 314 -127 314 -363c0 -244 -123 -378 -314 -378c-200 0 -314 127 -314 378c0 227 129 363 314 363zM152 355c0 -187 79 -295 220 -295c143 0 220 110 220 295c0 174 -86 281 -220 281c-144 0 -220 -107 -220 -281zM275 740c-19 9 -35 26 -43 50l136 134
c27 -7 49 -27 61 -50zM478 740c-19 9 -35 26 -43 50l136 134c27 -7 49 -27 61 -50z" />
    <glyph glyph-name="ohungarumlaut" unicode="&#x151;" horiz-adv-x="555" 
d="M278 502c139 0 228 -89 228 -254c0 -174 -87 -268 -228 -268c-148 0 -229 90 -229 268c0 160 90 254 229 254zM138 248c0 -121 47 -192 140 -192s139 72 139 192c0 110 -51 178 -139 178c-94 0 -140 -69 -140 -178zM312 720l-113 -165c-24 3 -43 13 -55 31l92 159
c29 0 56 -8 76 -25zM499 720l-113 -165c-24 3 -43 13 -55 31l92 159c29 0 56 -8 76 -25z" />
    <glyph glyph-name="OE" unicode="&#x152;" horiz-adv-x="1012" 
d="M385 713c45 0 88 -7 124 -18h436c5 -10 7 -23 7 -40s-2 -30 -7 -40h-350v-222h325c5 -10 7 -22 7 -39s-2 -30 -7 -40h-325v-233h359c5 -10 7 -23 7 -40s-2 -31 -7 -41h-447c-35 -11 -75 -19 -125 -19c-205 0 -326 131 -326 360c0 238 130 372 329 372zM504 82v529
c-33 12 -70 20 -114 20c-161 0 -240 -108 -240 -288c0 -181 82 -279 245 -279c40 0 79 6 109 18z" />
    <glyph glyph-name="oe" unicode="&#x153;" horiz-adv-x="894" 
d="M836 97c3 -28 -8 -65 -22 -81c-31 -19 -83 -36 -149 -36c-99 0 -180 41 -201 100h-4c-21 -60 -92 -100 -182 -100c-148 0 -229 90 -229 268c0 160 90 254 229 254c95 0 166 -42 185 -105h4c20 59 91 105 186 105c132 0 193 -86 193 -207c0 -30 -4 -57 -12 -81h-329
c4 -109 72 -155 180 -155c61 0 112 15 151 38zM138 248c0 -121 47 -192 140 -192s139 72 139 192c0 110 -51 178 -139 178c-94 0 -140 -69 -140 -178zM506 287h254c7 66 -14 140 -111 140c-85 0 -136 -56 -143 -140z" />
    <glyph glyph-name="Racute" unicode="&#x154;" horiz-adv-x="650" 
d="M100 5v684c55 11 119 16 184 16c185 0 296 -67 296 -221c0 -105 -52 -170 -132 -199l178 -279c-8 -6 -26 -8 -48 -8c-29 0 -46 2 -60 8l-160 258c-8 -1 -30 -2 -45 -2c-36 0 -95 4 -122 8v-265c-9 -5 -23 -7 -45 -7s-37 2 -46 7zM285 625c-32 0 -64 -2 -94 -8v-267
c27 -5 73 -9 109 -9c120 0 187 39 187 137c0 105 -78 147 -202 147zM466 908c21 -17 30 -47 32 -74l-222 -91c-13 16 -18 40 -19 65z" />
    <glyph glyph-name="racute" unicode="&#x155;" horiz-adv-x="385" 
d="M167 402c21 60 60 100 137 100c22 0 41 -3 52 -9c8 -14 13 -31 13 -56c0 -18 -3 -30 -6 -37c-16 9 -38 15 -62 15c-61 0 -104 -39 -129 -113v-297c-9 -5 -22 -7 -43 -7s-35 2 -44 7v471c17 9 43 14 71 14l7 -88h4zM371 712l-148 -158c-24 6 -40 19 -50 37l117 149
c26 0 62 -10 81 -28z" />
    <glyph glyph-name="uni0156" unicode="&#x156;" horiz-adv-x="650" 
d="M100 5v684c55 11 119 16 184 16c185 0 296 -67 296 -221c0 -105 -52 -170 -132 -199l178 -279c-8 -6 -26 -8 -48 -8c-29 0 -46 2 -60 8l-160 258c-8 -1 -30 -2 -45 -2c-36 0 -95 4 -122 8v-265c-9 -5 -23 -7 -45 -7s-37 2 -46 7zM285 625c-32 0 -64 -2 -94 -8v-267
c27 -5 73 -9 109 -9c120 0 187 39 187 137c0 105 -78 147 -202 147zM310 -65c23 12 51 17 88 17c-4 -71 -28 -162 -54 -208c-26 3 -53 14 -66 30c16 45 28 104 32 161z" />
    <glyph glyph-name="uni0157" unicode="&#x157;" horiz-adv-x="385" 
d="M167 402c21 60 60 100 137 100c22 0 41 -3 52 -9c8 -14 13 -31 13 -56c0 -18 -3 -30 -6 -37c-16 9 -38 15 -62 15c-61 0 -104 -39 -129 -113v-297c-9 -5 -22 -7 -43 -7s-35 2 -44 7v471c17 9 43 14 71 14l7 -88h4zM87 -61c23 11 49 17 84 17c-3 -69 -29 -156 -53 -200
c-27 2 -52 13 -64 28c16 43 29 99 33 155z" />
    <glyph glyph-name="Rcaron" unicode="&#x158;" horiz-adv-x="650" 
d="M100 5v684c55 11 119 16 184 16c185 0 296 -67 296 -221c0 -105 -52 -170 -132 -199l178 -279c-8 -6 -26 -8 -48 -8c-29 0 -46 2 -60 8l-160 258c-8 -1 -30 -2 -45 -2c-36 0 -95 4 -122 8v-265c-9 -5 -23 -7 -45 -7s-37 2 -46 7zM285 625c-32 0 -64 -2 -94 -8v-267
c27 -5 73 -9 109 -9c120 0 187 39 187 137c0 105 -78 147 -202 147zM203 906l128 -81l136 78c17 -9 33 -29 37 -54l-131 -87c-8 -2 -22 -5 -43 -5c-19 0 -34 3 -41 5l-130 92c7 25 25 43 44 52z" />
    <glyph glyph-name="rcaron" unicode="&#x159;" horiz-adv-x="385" 
d="M167 402c21 60 60 100 137 100c22 0 41 -3 52 -9c8 -14 13 -31 13 -56c0 -18 -3 -30 -6 -37c-16 9 -38 15 -62 15c-61 0 -104 -39 -129 -113v-297c-9 -5 -22 -7 -43 -7s-35 2 -44 7v471c17 9 43 14 71 14l7 -88h4zM198 558l-119 146c13 18 37 29 59 31l97 -108l103 112
c21 -5 38 -21 48 -38l-115 -136c-19 -5 -47 -7 -73 -7z" />
    <glyph glyph-name="Sacute" unicode="&#x15a;" horiz-adv-x="561" 
d="M50 119c57 -37 142 -59 217 -59c110 0 157 46 157 118c0 187 -354 102 -354 348c0 123 83 192 221 192c65 0 123 -15 171 -47c14 -23 23 -66 18 -97c-51 38 -115 62 -184 62c-89 0 -134 -39 -134 -98c0 -174 353 -97 353 -348c0 -161 -115 -213 -249 -213
c-79 0 -150 18 -198 45c-16 25 -22 67 -18 97zM424 908c21 -17 30 -47 32 -74l-222 -91c-13 16 -18 40 -19 65z" />
    <glyph glyph-name="sacute" unicode="&#x15b;" horiz-adv-x="444" 
d="M50 103c39 -29 105 -47 158 -47c65 0 102 26 102 69c0 113 -242 71 -242 236c0 92 57 141 161 141c46 0 93 -10 130 -35c13 -20 20 -62 16 -87c-39 31 -88 47 -137 47c-58 0 -82 -22 -82 -57c0 -103 242 -64 242 -234c0 -113 -83 -156 -188 -156c-51 0 -107 10 -144 32
c-15 22 -20 66 -16 91zM361 712l-148 -158c-24 6 -40 19 -50 37l117 149c26 0 62 -10 81 -28z" />
    <glyph glyph-name="Scircumflex" unicode="&#x15c;" horiz-adv-x="561" 
d="M50 119c57 -37 142 -59 217 -59c110 0 157 46 157 118c0 187 -354 102 -354 348c0 123 83 192 221 192c65 0 123 -15 171 -47c14 -23 23 -66 18 -97c-51 38 -115 62 -184 62c-89 0 -134 -39 -134 -98c0 -174 353 -97 353 -348c0 -161 -115 -213 -249 -213
c-79 0 -150 18 -198 45c-16 25 -22 67 -18 97zM284 829l-142 -82c-15 14 -22 34 -24 61l119 81c11 3 25 7 47 7c20 0 35 -3 43 -5l128 -88c-4 -27 -18 -47 -35 -57z" />
    <glyph glyph-name="scircumflex" unicode="&#x15d;" horiz-adv-x="444" 
d="M50 103c39 -29 105 -47 158 -47c65 0 102 26 102 69c0 113 -242 71 -242 236c0 92 57 141 161 141c46 0 93 -10 130 -35c13 -20 20 -62 16 -87c-39 31 -88 47 -137 47c-58 0 -82 -22 -82 -57c0 -103 242 -64 242 -234c0 -113 -83 -156 -188 -156c-51 0 -107 10 -144 32
c-15 22 -20 66 -16 91zM80 603l107 125c19 7 48 9 72 9l120 -144c-8 -20 -27 -35 -50 -42l-105 115l-111 -119c-19 15 -28 33 -33 56z" />
    <glyph glyph-name="Scedilla" unicode="&#x15e;" horiz-adv-x="561" 
d="M211 -90l22 68c-68 5 -124 21 -165 44c-16 25 -22 67 -18 97c57 -37 142 -59 217 -59c110 0 157 46 157 118c0 187 -354 102 -354 348c0 123 83 192 221 192c65 0 123 -15 171 -47c14 -23 23 -66 18 -97c-51 38 -115 62 -184 62c-89 0 -134 -39 -134 -98
c0 -174 353 -97 353 -348c0 -146 -95 -203 -212 -211l-7 -34c38 -13 67 -39 67 -85c0 -65 -58 -106 -127 -116c-20 10 -38 28 -48 50c50 6 90 28 90 62c0 28 -30 48 -67 54z" />
    <glyph glyph-name="scedilla" unicode="&#x15f;" horiz-adv-x="444" 
d="M161 -84l20 65c-42 3 -85 13 -115 31c-15 22 -20 66 -16 91c39 -29 105 -47 158 -47c65 0 102 26 102 69c0 113 -242 71 -242 236c0 92 57 141 161 141c46 0 93 -10 130 -35c13 -20 20 -62 16 -87c-39 31 -88 47 -137 47c-58 0 -82 -22 -82 -57c0 -103 242 -64 242 -234
c0 -99 -64 -144 -149 -154l-7 -33c35 -12 61 -36 61 -78c0 -61 -54 -98 -118 -108c-20 10 -37 27 -46 48c46 6 82 25 82 56c0 26 -27 43 -60 49z" />
    <glyph glyph-name="Scaron" unicode="&#x160;" horiz-adv-x="561" 
d="M50 119c57 -37 142 -59 217 -59c110 0 157 46 157 118c0 187 -354 102 -354 348c0 123 83 192 221 192c65 0 123 -15 171 -47c14 -23 23 -66 18 -97c-51 38 -115 62 -184 62c-89 0 -134 -39 -134 -98c0 -174 353 -97 353 -348c0 -161 -115 -213 -249 -213
c-79 0 -150 18 -198 45c-16 25 -22 67 -18 97zM157 906l128 -81l136 78c17 -9 33 -29 37 -54l-131 -87c-8 -2 -22 -5 -43 -5c-19 0 -34 3 -41 5l-130 92c7 25 25 43 44 52z" />
    <glyph glyph-name="scaron" unicode="&#x161;" horiz-adv-x="444" 
d="M50 103c39 -29 105 -47 158 -47c65 0 102 26 102 69c0 113 -242 71 -242 236c0 92 57 141 161 141c46 0 93 -10 130 -35c13 -20 20 -62 16 -87c-39 31 -88 47 -137 47c-58 0 -82 -22 -82 -57c0 -103 242 -64 242 -234c0 -113 -83 -156 -188 -156c-51 0 -107 10 -144 32
c-15 22 -20 66 -16 91zM192 558l-119 146c13 18 37 29 59 31l97 -108l103 112c21 -5 38 -21 48 -38l-115 -136c-19 -5 -47 -7 -73 -7z" />
    <glyph glyph-name="uni0162" unicode="&#x162;" horiz-adv-x="578" 
d="M227 -90l29 91c-5 1 -9 2 -12 4v609h-217c-5 10 -7 24 -7 41s2 30 7 40h524c5 -10 7 -23 7 -40s-2 -31 -7 -41h-216v-609c-3 -2 -6 -3 -11 -4l-12 -56c38 -13 67 -39 67 -85c0 -65 -58 -106 -127 -116c-20 10 -38 28 -48 50c50 6 90 28 90 62c0 28 -30 48 -67 54z" />
    <glyph glyph-name="uni0163" unicode="&#x163;" horiz-adv-x="376" 
d="M172 -84l21 68c-66 14 -93 63 -93 151v268h-74c0 30 4 58 12 79h62v110c21 17 54 26 87 27v-137h147c4 -8 6 -21 6 -39s-2 -32 -6 -40h-147v-257c0 -54 14 -85 74 -85c30 0 66 11 96 36c4 -31 -6 -71 -21 -89c-21 -14 -44 -24 -76 -27l-7 -32c35 -12 61 -36 61 -78
c0 -61 -54 -98 -118 -108c-20 10 -37 27 -46 48c46 6 82 25 82 56c0 26 -27 43 -60 49z" />
    <glyph glyph-name="Tcaron" unicode="&#x164;" horiz-adv-x="578" 
d="M551 614h-216v-609c-9 -5 -23 -7 -45 -7s-37 2 -46 7v609h-217c-5 10 -7 24 -7 41s2 30 7 40h524c5 -10 7 -23 7 -40s-2 -31 -7 -41zM161 906l128 -81l136 78c17 -9 33 -29 37 -54l-131 -87c-8 -2 -22 -5 -43 -5c-19 0 -34 3 -41 5l-130 92c7 25 25 43 44 52z" />
    <glyph glyph-name="tcaron" unicode="&#x165;" horiz-adv-x="380" 
d="M38 482h62v110c21 17 54 26 87 27v-137h147c4 -8 6 -21 6 -39s-2 -32 -6 -40h-147v-257c0 -54 14 -85 74 -85c30 0 66 11 96 36c4 -31 -6 -71 -21 -89c-26 -18 -58 -28 -101 -28c-96 0 -135 50 -135 155v268h-74c0 30 4 58 12 79zM320 707c23 13 48 19 84 19
c-3 -67 -28 -150 -50 -193c-27 4 -51 14 -63 29c13 41 25 94 29 145z" />
    <glyph glyph-name="Tbar" unicode="&#x166;" horiz-adv-x="578" 
d="M103 384h141v230h-217c-5 10 -7 24 -7 41s2 30 7 40h524c5 -10 7 -23 7 -40s-2 -31 -7 -41h-216v-230h141c5 -9 7 -21 7 -38s-2 -29 -7 -38h-141v-303c-9 -5 -23 -7 -45 -7s-37 2 -46 7v303h-141c-5 9 -7 21 -7 38s2 29 7 38z" />
    <glyph glyph-name="tbar" unicode="&#x167;" horiz-adv-x="376" 
d="M311 220h-124v-74c0 -54 14 -85 74 -85c30 0 66 11 96 36c4 -31 -6 -71 -21 -89c-26 -18 -58 -28 -101 -28c-96 0 -135 50 -135 155v85h-68c0 23 4 49 11 66h57v117h-74c0 30 4 58 12 79h62v110c21 17 54 26 87 27v-137h147c4 -8 6 -21 6 -39s-2 -32 -6 -40h-147v-117
h124c4 -5 7 -18 7 -33s-3 -28 -7 -33z" />
    <glyph glyph-name="Utilde" unicode="&#x168;" horiz-adv-x="724" 
d="M182 690v-435c0 -137 58 -195 180 -195c131 0 186 79 186 198v432c9 5 23 7 45 7s35 -2 44 -7v-425c0 -177 -85 -288 -279 -288c-179 0 -267 89 -267 270v443c9 5 24 7 46 7s36 -2 45 -7zM173 790c10 52 50 95 116 95c73 0 99 -51 151 -51c28 0 49 17 56 42
c23 -1 42 -6 59 -18c-9 -54 -47 -99 -119 -99c-69 0 -94 52 -151 52c-29 0 -48 -18 -57 -47c-22 3 -41 11 -55 26z" />
    <glyph glyph-name="utilde" unicode="&#x169;" horiz-adv-x="575" 
d="M411 55h-4c-18 -34 -62 -75 -160 -75c-80 0 -168 29 -168 191v299c21 11 50 18 87 18v-300c0 -81 25 -126 107 -126c65 0 108 29 130 63v352c9 5 23 7 44 7s34 -2 43 -7v-471c-16 -10 -40 -14 -67 -14zM453 661c-4 -57 -38 -97 -95 -97c-63 0 -89 49 -131 49
c-26 0 -41 -16 -48 -45c-20 3 -44 16 -53 34c10 49 46 83 96 83c66 0 93 -49 132 -49c24 0 37 14 41 42c23 -2 43 -8 58 -17z" />
    <glyph glyph-name="Umacron" unicode="&#x16a;" horiz-adv-x="724" 
d="M182 690v-435c0 -137 58 -195 180 -195c131 0 186 79 186 198v432c9 5 23 7 45 7s35 -2 44 -7v-425c0 -177 -85 -288 -279 -288c-179 0 -267 89 -267 270v443c9 5 24 7 46 7s36 -2 45 -7zM213 856h303c5 -8 7 -21 7 -36s-2 -28 -7 -36h-303c-5 8 -7 21 -7 36s2 28 7 36z
" />
    <glyph glyph-name="umacron" unicode="&#x16b;" horiz-adv-x="575" 
d="M411 55h-4c-18 -34 -62 -75 -160 -75c-80 0 -168 29 -168 191v299c21 11 50 18 87 18v-300c0 -81 25 -126 107 -126c65 0 108 29 130 63v352c9 5 23 7 44 7s34 -2 43 -7v-471c-16 -10 -40 -14 -67 -14zM156 656h268c4 -7 6 -19 6 -34s-2 -28 -6 -35h-280c0 22 5 51 12 69
z" />
    <glyph glyph-name="Ubreve" unicode="&#x16c;" horiz-adv-x="724" 
d="M182 690v-435c0 -137 58 -195 180 -195c131 0 186 79 186 198v432c9 5 23 7 45 7s35 -2 44 -7v-425c0 -177 -85 -288 -279 -288c-179 0 -267 89 -267 270v443c9 5 24 7 46 7s36 -2 45 -7zM475 901c23 0 45 -4 62 -17c-16 -76 -76 -128 -175 -128c-96 0 -151 44 -163 122
c16 16 39 24 66 26c12 -56 45 -79 104 -79c53 0 89 27 106 76z" />
    <glyph glyph-name="ubreve" unicode="&#x16d;" horiz-adv-x="575" 
d="M411 55h-4c-18 -34 -62 -75 -160 -75c-80 0 -168 29 -168 191v299c21 11 50 18 87 18v-300c0 -81 25 -126 107 -126c65 0 108 29 130 63v352c9 5 23 7 44 7s34 -2 43 -7v-471c-16 -10 -40 -14 -67 -14zM206 726c6 -70 40 -99 88 -99s80 34 92 94c23 0 46 -6 61 -18
c-13 -87 -69 -144 -159 -144c-86 0 -136 51 -148 138c13 15 39 27 66 29z" />
    <glyph glyph-name="Uring" unicode="&#x16e;" horiz-adv-x="724" 
d="M182 690v-435c0 -137 58 -195 180 -195c131 0 186 79 186 198v432c9 5 23 7 45 7s35 -2 44 -7v-425c0 -177 -85 -288 -279 -288c-179 0 -267 89 -267 270v443c9 5 24 7 46 7s36 -2 45 -7zM365 948c73 0 119 -39 119 -107c0 -69 -48 -106 -119 -106
c-77 0 -119 38 -119 106c0 65 46 107 119 107zM365 893c-32 0 -55 -19 -55 -52s22 -51 55 -51c32 0 56 18 56 51c0 34 -22 52 -56 52z" />
    <glyph glyph-name="uring" unicode="&#x16f;" horiz-adv-x="575" 
d="M411 55h-4c-18 -34 -62 -75 -160 -75c-80 0 -168 29 -168 191v299c21 11 50 18 87 18v-300c0 -81 25 -126 107 -126c65 0 108 29 130 63v352c9 5 23 7 44 7s34 -2 43 -7v-471c-16 -10 -40 -14 -67 -14zM290 751c65 0 107 -37 107 -101c0 -65 -44 -101 -108 -101
c-68 0 -107 36 -107 101c0 60 42 101 108 101zM290 699c-30 0 -51 -18 -51 -49c0 -32 20 -49 51 -49c27 0 50 18 50 49c0 32 -20 49 -50 49z" />
    <glyph glyph-name="Uhungarumlaut" unicode="&#x170;" horiz-adv-x="724" 
d="M182 690v-435c0 -137 58 -195 180 -195c131 0 186 79 186 198v432c9 5 23 7 45 7s35 -2 44 -7v-425c0 -177 -85 -288 -279 -288c-179 0 -267 89 -267 270v443c9 5 24 7 46 7s36 -2 45 -7zM268 740c-19 9 -35 26 -43 50l136 134c27 -7 49 -27 61 -50zM471 740
c-19 9 -35 26 -43 50l136 134c27 -7 49 -27 61 -50z" />
    <glyph glyph-name="uhungarumlaut" unicode="&#x171;" horiz-adv-x="575" 
d="M411 55h-4c-18 -34 -62 -75 -160 -75c-80 0 -168 29 -168 191v299c21 11 50 18 87 18v-300c0 -81 25 -126 107 -126c65 0 108 29 130 63v352c9 5 23 7 44 7s34 -2 43 -7v-471c-16 -10 -40 -14 -67 -14zM320 720l-113 -165c-24 3 -43 13 -55 31l92 159c29 0 56 -8 76 -25z
M507 720l-113 -165c-24 3 -43 13 -55 31l92 159c29 0 56 -8 76 -25z" />
    <glyph glyph-name="Uogonek" unicode="&#x172;" horiz-adv-x="724" 
d="M487 -163c11 -15 18 -43 18 -62c-18 -7 -37 -11 -65 -11c-67 0 -122 34 -122 112c0 47 20 79 50 97v4h-10c-179 0 -267 89 -267 270v443c9 5 24 7 46 7s36 -2 45 -7v-435c0 -137 58 -195 180 -195c131 0 186 79 186 198v432c9 5 23 7 45 7s35 -2 44 -7v-425
c0 -125 -42 -216 -134 -259c-46 -22 -101 -55 -101 -114c0 -40 26 -59 61 -59c8 0 17 1 24 4z" />
    <glyph glyph-name="uogonek" unicode="&#x173;" horiz-adv-x="575" 
d="M412 50h-7c-20 -31 -65 -70 -158 -70c-80 0 -168 29 -168 191v299c21 11 50 18 87 18v-300c0 -81 25 -126 107 -126c65 0 108 29 130 63v352c9 5 23 7 44 7s34 -2 43 -7v-483c-41 -24 -66 -59 -66 -94c0 -37 26 -55 61 -55c8 0 17 1 24 4c11 -15 18 -43 18 -62
c-18 -7 -37 -11 -65 -11c-67 0 -122 32 -122 106c0 49 25 95 81 119z" />
    <glyph glyph-name="Wcircumflex" unicode="&#x174;" horiz-adv-x="954" 
d="M684 55h4c6 50 14 95 25 137l127 498c8 5 24 7 44 7c22 0 34 -2 42 -7l-182 -692c-13 -4 -37 -6 -61 -6s-50 2 -63 6l-112 480c-11 48 -23 108 -30 161h-4c-6 -51 -18 -116 -30 -163l-119 -478c-13 -4 -38 -6 -62 -6s-48 2 -61 6l-173 691c9 5 22 8 44 8
c21 0 37 -2 47 -8l119 -491c9 -36 18 -92 24 -143h4c6 51 15 104 24 141l125 501c13 4 38 6 62 6s50 -2 63 -6l117 -501c10 -45 20 -92 26 -141zM477 829l-142 -82c-15 14 -22 34 -24 61l119 81c11 3 25 7 47 7c20 0 35 -3 43 -5l128 -88c-4 -27 -18 -47 -35 -57z" />
    <glyph glyph-name="wcircumflex" unicode="&#x175;" horiz-adv-x="755" 
d="M543 63h4c6 42 16 93 27 132l82 285c7 3 17 6 35 6c21 0 36 -5 47 -11l-141 -472c-28 -9 -64 -13 -104 -13l-85 302c-11 38 -20 81 -24 122h-4c-4 -41 -15 -86 -27 -125l-89 -286c-28 -9 -62 -13 -101 -13l-144 484c10 7 24 12 48 12c17 0 29 -3 35 -6l84 -287
c13 -44 22 -86 28 -130h4c4 41 14 87 23 118l89 292c27 10 60 15 106 15l81 -305c8 -31 19 -80 26 -120zM237 603l107 125c19 7 48 9 72 9l120 -144c-8 -20 -27 -35 -50 -42l-105 115l-111 -119c-19 15 -28 33 -33 56z" />
    <glyph glyph-name="Ycircumflex" unicode="&#x176;" horiz-adv-x="583" 
d="M248 255l-237 434c8 5 27 8 49 8c25 0 41 -3 51 -8l136 -253c19 -36 35 -75 46 -118h4c11 41 30 87 47 120l134 251c10 5 26 8 50 8c21 0 38 -3 46 -8l-235 -433v-251c-9 -5 -23 -7 -45 -7s-37 2 -46 7v250zM293 829l-142 -82c-15 14 -22 34 -24 61l119 81
c11 3 25 7 47 7c20 0 35 -3 43 -5l128 -88c-4 -27 -18 -47 -35 -57z" />
    <glyph glyph-name="ycircumflex" unicode="&#x177;" horiz-adv-x="490" 
d="M254 42h4c6 41 15 82 26 113l111 325c7 3 17 6 35 6c24 0 39 -5 50 -12l-76 -214c-36 -102 -79 -221 -121 -300c-54 -102 -120 -165 -231 -201c-22 17 -35 41 -38 71c96 27 155 86 191 154l-192 490c11 7 30 12 53 12c18 0 29 -3 35 -6l124 -325c11 -29 22 -73 29 -113z
M105 603l107 125c19 7 48 9 72 9l120 -144c-8 -20 -27 -35 -50 -42l-105 115l-111 -119c-19 15 -28 33 -33 56z" />
    <glyph glyph-name="Ydieresis" unicode="&#x178;" horiz-adv-x="583" 
d="M248 255l-237 434c8 5 27 8 49 8c25 0 41 -3 51 -8l136 -253c19 -36 35 -75 46 -118h4c11 41 30 87 47 120l134 251c10 5 26 8 50 8c21 0 38 -3 46 -8l-235 -433v-251c-9 -5 -23 -7 -45 -7s-37 2 -46 7v250zM405 868c31 0 55 -18 55 -53c0 -37 -22 -56 -55 -56
c-35 0 -56 19 -56 55c0 34 23 54 56 54zM185 868c31 0 55 -18 55 -53c0 -37 -22 -56 -55 -56c-35 0 -56 19 -56 55c0 34 23 54 56 54z" />
    <glyph glyph-name="Zacute" unicode="&#x179;" horiz-adv-x="584" 
d="M530 624l-370 -539v-4h377c5 -10 7 -23 7 -40s-2 -31 -7 -41h-479c-9 22 -12 46 -12 73l372 538v4h-354c-5 10 -7 23 -7 40s2 30 7 40h455c8 -21 11 -43 11 -71zM434 908c21 -17 30 -47 32 -74l-222 -91c-13 16 -18 40 -19 65z" />
    <glyph glyph-name="zacute" unicode="&#x17a;" horiz-adv-x="457" 
d="M408 418l-251 -337v-4h257c4 -8 6 -20 6 -38s-2 -31 -6 -39h-361c-7 16 -11 39 -11 62l255 340v4h-248c0 29 4 57 12 76h335c7 -16 12 -39 12 -64zM367 712l-148 -158c-24 6 -40 19 -50 37l117 149c26 0 62 -10 81 -28z" />
    <glyph glyph-name="Zdotaccent" unicode="&#x17b;" horiz-adv-x="584" 
d="M530 624l-370 -539v-4h377c5 -10 7 -23 7 -40s-2 -31 -7 -41h-479c-9 22 -12 46 -12 73l372 538v4h-354c-5 10 -7 23 -7 40s2 30 7 40h455c8 -21 11 -43 11 -71zM294 879c35 0 58 -20 58 -56c0 -37 -23 -58 -58 -58c-39 0 -59 20 -59 57c0 35 24 57 59 57z" />
    <glyph glyph-name="zdotaccent" unicode="&#x17c;" horiz-adv-x="457" 
d="M408 418l-251 -337v-4h257c4 -8 6 -20 6 -38s-2 -31 -6 -39h-361c-7 16 -11 39 -11 62l255 340v4h-248c0 29 4 57 12 76h335c7 -16 12 -39 12 -64zM232 684c33 0 55 -19 55 -54c0 -36 -22 -56 -55 -56c-37 0 -56 19 -56 55c0 34 23 55 56 55z" />
    <glyph glyph-name="Zcaron" unicode="&#x17d;" horiz-adv-x="584" 
d="M530 624l-370 -539v-4h377c5 -10 7 -23 7 -40s-2 -31 -7 -41h-479c-9 22 -12 46 -12 73l372 538v4h-354c-5 10 -7 23 -7 40s2 30 7 40h455c8 -21 11 -43 11 -71zM165 906l128 -81l136 78c17 -9 33 -29 37 -54l-131 -87c-8 -2 -22 -5 -43 -5c-19 0 -34 3 -41 5l-130 92
c7 25 25 43 44 52z" />
    <glyph glyph-name="zcaron" unicode="&#x17e;" horiz-adv-x="457" 
d="M408 418l-251 -337v-4h257c4 -8 6 -20 6 -38s-2 -31 -6 -39h-361c-7 16 -11 39 -11 62l255 340v4h-248c0 29 4 57 12 76h335c7 -16 12 -39 12 -64zM196 558l-119 146c13 18 37 29 59 31l97 -108l103 112c21 -5 38 -21 48 -38l-115 -136c-19 -5 -47 -7 -73 -7z" />
    <glyph glyph-name="longs" unicode="&#x17f;" horiz-adv-x="281" 
d="M85 5v562c0 141 64 182 150 182c38 0 69 -8 92 -24c14 -19 20 -57 15 -85c-29 22 -57 30 -87 30c-65 0 -83 -36 -83 -97v-568c-9 -5 -22 -7 -43 -7s-35 2 -44 7z" />
    <glyph glyph-name="uni018F" unicode="&#x18f;" horiz-adv-x="693" 
d="M93 377h461c-14 169 -102 259 -261 259c-62 0 -124 -13 -179 -40c-2 27 7 67 23 86c42 21 113 36 178 36c216 0 332 -163 332 -381c0 -223 -119 -360 -312 -360c-183 0 -264 124 -264 273c0 45 8 94 22 127zM554 299h-386c-3 -13 -5 -32 -5 -50c0 -91 47 -190 180 -190
s206 98 211 240z" />
    <glyph glyph-name="florin" unicode="&#x192;" horiz-adv-x="433" 
d="M59 291h117l7 76c13 141 80 184 164 184c38 0 69 -7 92 -23c13 -20 16 -56 10 -82c-29 19 -56 26 -88 26c-65 0 -87 -38 -93 -104l-7 -77h130c3 -6 4 -16 4 -25c0 -18 -4 -37 -10 -45h-130l-17 -199c-12 -141 -81 -184 -170 -184c-38 0 -68 8 -91 22
c-13 23 -16 58 -10 86c28 -18 57 -27 91 -27c66 0 86 38 92 100l19 202h-129c1 22 8 54 19 70z" />
    <glyph glyph-name="uni01B5" unicode="&#x1b5;" horiz-adv-x="584" 
d="M530 624l-161 -234h118c5 -9 7 -21 7 -38s-2 -29 -7 -38h-170l-157 -229v-4h377c5 -10 7 -23 7 -40s-2 -31 -7 -41h-479c-9 22 -12 46 -12 73l167 241h-116c-5 9 -7 21 -7 38s2 29 7 38h168l153 221v4h-354c-5 10 -7 23 -7 40s2 30 7 40h455c8 -21 11 -43 11 -71z" />
    <glyph glyph-name="uni01B6" unicode="&#x1b6;" horiz-adv-x="457" 
d="M408 418l-105 -140h79c4 -5 7 -18 7 -33s-3 -28 -7 -33h-127l-98 -131v-4h257c4 -8 6 -20 6 -38s-2 -31 -6 -39h-361c-7 16 -11 39 -11 62l112 150h-82c0 23 4 49 11 66h120l94 124v4h-248c0 29 4 57 12 76h335c7 -16 12 -39 12 -64z" />
    <glyph glyph-name="Aringacute" unicode="&#x1fa;" horiz-adv-x="656" 
d="M327 861c73 0 119 -39 119 -107c0 -44 -19 -74 -51 -91l243 -657c-8 -5 -24 -8 -46 -8c-24 0 -39 3 -49 8l-70 194h-292l-69 -194c-10 -5 -25 -8 -49 -8c-22 0 -37 3 -45 8l244 655c-36 16 -54 49 -54 93c0 65 46 107 119 107zM208 278h238l-53 150
c-26 73 -48 143 -64 216h-4c-15 -70 -40 -147 -64 -215zM327 806c-32 0 -55 -19 -55 -52s22 -51 55 -51c32 0 56 18 56 51c0 34 -22 52 -56 52zM413 1017c18 -15 27 -40 28 -65l-216 -90c-12 15 -16 36 -17 58z" />
    <glyph glyph-name="aringacute" unicode="&#x1fb;" horiz-adv-x="521" 
d="M349 39h-4c-29 -38 -75 -59 -141 -59c-86 0 -161 41 -161 150c0 117 87 165 200 165c33 0 71 -4 100 -16v26c0 83 -32 118 -110 118c-57 0 -111 -18 -153 -44c-7 25 -4 64 10 87c34 20 93 36 159 36c119 0 180 -51 180 -188v-218c0 -29 15 -37 35 -37c19 0 37 7 47 14
c2 -26 -4 -57 -17 -75c-17 -10 -39 -18 -66 -18c-45 0 -71 22 -79 59zM343 111v98c-25 9 -53 15 -87 15c-83 0 -126 -37 -126 -90c0 -52 42 -75 96 -75c43 0 91 14 117 52zM250 726c65 0 107 -37 107 -101c0 -65 -44 -101 -108 -101c-68 0 -107 36 -107 101
c0 60 42 101 108 101zM250 674c-30 0 -51 -18 -51 -49c0 -32 20 -49 51 -49c27 0 50 18 50 49c0 32 -20 49 -50 49zM322 877c18 -16 27 -41 27 -66l-186 -75c-9 14 -13 36 -13 59z" />
    <glyph glyph-name="AEacute" unicode="&#x1fc;" horiz-adv-x="992" 
d="M435 695h490c5 -10 7 -23 7 -40s-2 -30 -7 -40h-350v-222h325c5 -10 7 -22 7 -39s-2 -30 -7 -40h-325v-233h359c5 -10 7 -23 7 -40s-2 -31 -7 -41h-450v214h-248l-128 -208c-12 -6 -32 -8 -56 -8s-40 2 -47 8zM484 292v334h-4c-25 -50 -58 -109 -93 -166l-103 -168h200z
M649 908c21 -17 30 -47 32 -74l-222 -91c-13 16 -18 40 -19 65z" />
    <glyph glyph-name="aeacute" unicode="&#x1fd;" horiz-adv-x="820" 
d="M760 214h-329c4 -109 72 -155 180 -155c61 0 112 15 151 38c3 -28 -8 -65 -22 -81c-31 -19 -83 -36 -149 -36c-93 0 -164 33 -200 88h-4c-25 -42 -81 -88 -179 -88c-90 0 -166 39 -166 148c0 118 88 170 198 170c35 0 74 -5 102 -14v21c0 84 -32 118 -111 118
c-57 0 -110 -18 -152 -44c-7 25 -4 64 10 87c35 22 95 36 158 36c94 0 137 -29 150 -90h4c25 53 93 90 178 90c132 0 193 -86 193 -207c0 -30 -4 -57 -12 -81zM228 58c61 0 102 27 131 70c-11 27 -15 54 -17 87c-27 7 -52 13 -87 13c-83 0 -128 -34 -128 -91
c0 -56 43 -79 101 -79zM432 287h254c7 66 -14 140 -111 140c-85 0 -136 -56 -143 -140zM531 712l-148 -158c-24 6 -40 19 -50 37l117 149c26 0 62 -10 81 -28z" />
    <glyph glyph-name="Oslashacute" unicode="&#x1fe;" horiz-adv-x="744" 
d="M372 718c78 0 146 -22 199 -66l77 94c28 -8 53 -26 64 -51l-86 -105c38 -59 60 -138 60 -235c0 -244 -123 -378 -314 -378c-83 0 -153 23 -200 64l-83 -102c-29 10 -53 31 -61 58l89 108c-39 61 -59 145 -59 250c0 227 129 363 314 363zM152 355c0 -70 11 -129 32 -176
l330 402c-37 36 -85 55 -142 55c-144 0 -220 -107 -220 -281zM592 355c0 62 -11 117 -32 160l-330 -402c35 -34 84 -53 142 -53c143 0 220 110 220 295zM507 908c21 -17 30 -47 32 -74l-222 -91c-13 16 -18 40 -19 65z" />
    <glyph glyph-name="oslashacute" unicode="&#x1ff;" horiz-adv-x="555" 
d="M278 502c51 0 96 -11 132 -35l50 64c25 -8 49 -25 60 -45l-57 -72c29 -40 45 -97 45 -166c0 -174 -88 -268 -230 -268c-55 0 -101 12 -135 36l-62 -78c-20 15 -36 41 -43 67l52 65c-29 43 -43 103 -43 178c0 160 91 254 231 254zM136 248c0 -42 6 -78 18 -107l208 257
c-21 18 -51 28 -84 28c-95 0 -142 -69 -142 -178zM419 248c0 37 -6 70 -17 96l-209 -260c21 -18 50 -28 85 -28c94 0 141 72 141 192zM411 712l-148 -158c-24 6 -40 19 -50 37l117 149c26 0 62 -10 81 -28z" />
    <glyph glyph-name="uni0218" unicode="&#x218;" horiz-adv-x="561" 
d="M50 119c57 -37 142 -59 217 -59c110 0 157 46 157 118c0 187 -354 102 -354 348c0 123 83 192 221 192c65 0 123 -15 171 -47c14 -23 23 -66 18 -97c-51 38 -115 62 -184 62c-89 0 -134 -39 -134 -98c0 -174 353 -97 353 -348c0 -161 -115 -213 -249 -213
c-79 0 -150 18 -198 45c-16 25 -22 67 -18 97zM237 -65c23 12 51 17 88 17c-4 -71 -28 -162 -54 -208c-26 3 -53 14 -66 30c16 45 28 104 32 161z" />
    <glyph glyph-name="uni0219" unicode="&#x219;" horiz-adv-x="444" 
d="M50 103c39 -29 105 -47 158 -47c65 0 102 26 102 69c0 113 -242 71 -242 236c0 92 57 141 161 141c46 0 93 -10 130 -35c13 -20 20 -62 16 -87c-39 31 -88 47 -137 47c-58 0 -82 -22 -82 -57c0 -103 242 -64 242 -234c0 -113 -83 -156 -188 -156c-51 0 -107 10 -144 32
c-15 22 -20 66 -16 91zM181 -61c23 11 49 17 84 17c-3 -69 -29 -156 -53 -200c-27 2 -52 13 -64 28c16 43 29 99 33 155z" />
    <glyph glyph-name="uni021A" unicode="&#x21a;" horiz-adv-x="578" 
d="M551 614h-216v-609c-9 -5 -23 -7 -45 -7s-37 2 -46 7v609h-217c-5 10 -7 24 -7 41s2 30 7 40h524c5 -10 7 -23 7 -40s-2 -31 -7 -41zM244 -65c23 12 51 17 88 17c-4 -71 -28 -162 -54 -208c-26 3 -53 14 -66 30c16 45 28 104 32 161z" />
    <glyph glyph-name="uni021B" unicode="&#x21b;" horiz-adv-x="376" 
d="M38 482h62v110c21 17 54 26 87 27v-137h147c4 -8 6 -21 6 -39s-2 -32 -6 -40h-147v-257c0 -54 14 -85 74 -85c30 0 66 11 96 36c4 -31 -6 -71 -21 -89c-26 -18 -58 -28 -101 -28c-96 0 -135 50 -135 155v268h-74c0 30 4 58 12 79zM191 -61c23 11 49 17 84 17
c-3 -69 -29 -156 -53 -200c-27 2 -52 13 -64 28c16 43 29 99 33 155z" />
    <glyph glyph-name="uni0237" unicode="&#x237;" horiz-adv-x="264" 
d="M181 477v-387c0 -173 -58 -258 -146 -330c-25 9 -44 30 -51 58c63 54 110 119 110 249v410c9 5 23 7 44 7s34 -2 43 -7z" />
    <glyph glyph-name="uni0259" unicode="&#x259;" horiz-adv-x="533" 
d="M65 275h333c-6 96 -68 150 -174 150c-56 0 -106 -15 -140 -33c-2 27 7 59 22 77c28 17 78 33 140 33c159 0 242 -102 242 -258c0 -160 -87 -264 -233 -264c-134 0 -205 86 -205 202c0 31 5 69 15 93zM398 203h-261c-10 -67 15 -148 120 -148c88 0 136 57 141 148z" />
    <glyph glyph-name="uni02BB" unicode="&#x2bb;" horiz-adv-x="218" 
d="M61 506c5 75 31 158 57 209c21 11 50 17 83 17c-29 -64 -51 -150 -55 -222c-10 -7 -29 -10 -49 -10c-18 0 -31 3 -36 6z" />
    <glyph glyph-name="uni02BC" unicode="&#x2bc;" horiz-adv-x="218" 
d="M98 715c22 10 49 16 85 16c-4 -82 -34 -188 -64 -239c-26 3 -52 14 -65 29c24 55 40 127 44 194z" />
    <glyph glyph-name="circumflex" unicode="&#x2c6;" horiz-adv-x="434" 
d="M70 603l107 125c19 7 48 9 72 9l120 -144c-8 -20 -27 -35 -50 -42l-105 115l-111 -119c-19 15 -28 33 -33 56z" />
    <glyph glyph-name="caron" unicode="&#x2c7;" horiz-adv-x="434" 
d="M182 558l-119 146c13 18 37 29 59 31l97 -108l103 112c21 -5 38 -21 48 -38l-115 -136c-19 -5 -47 -7 -73 -7z" />
    <glyph glyph-name="breve" unicode="&#x2d8;" horiz-adv-x="434" 
d="M129 726c6 -70 40 -99 88 -99s80 34 92 94c23 0 46 -6 61 -18c-13 -87 -69 -144 -159 -144c-86 0 -136 51 -148 138c13 15 39 27 66 29z" />
    <glyph glyph-name="dotaccent" unicode="&#x2d9;" horiz-adv-x="434" 
d="M217 684c33 0 55 -19 55 -54c0 -36 -22 -56 -55 -56c-37 0 -56 19 -56 55c0 34 23 55 56 55z" />
    <glyph glyph-name="ring" unicode="&#x2da;" horiz-adv-x="434" 
d="M217 751c65 0 107 -37 107 -101c0 -65 -44 -101 -108 -101c-68 0 -107 36 -107 101c0 60 42 101 108 101zM217 699c-30 0 -51 -18 -51 -49c0 -32 20 -49 51 -49c27 0 50 18 50 49c0 32 -20 49 -50 49z" />
    <glyph glyph-name="ogonek" unicode="&#x2db;" horiz-adv-x="434" 
d="M293 -151c11 -15 18 -43 18 -62c-18 -7 -37 -11 -65 -11c-67 0 -122 32 -122 106c0 52 28 100 91 123c22 5 59 11 102 11c-72 -30 -109 -72 -109 -116c0 -37 26 -55 61 -55c8 0 17 1 24 4z" />
    <glyph glyph-name="tilde" unicode="&#x2dc;" horiz-adv-x="434" 
d="M379 661c-4 -57 -38 -97 -95 -97c-63 0 -89 49 -131 49c-26 0 -41 -16 -48 -45c-20 3 -44 16 -53 34c10 49 46 83 96 83c66 0 93 -49 132 -49c24 0 37 14 41 42c23 -2 43 -8 58 -17z" />
    <glyph glyph-name="hungarumlaut" unicode="&#x2dd;" horiz-adv-x="434" 
d="M222 720l-113 -165c-24 3 -43 13 -55 31l92 159c29 0 56 -8 76 -25zM409 720l-113 -165c-24 3 -43 13 -55 31l92 159c29 0 56 -8 76 -25z" />
    <glyph glyph-name="gravecomb" unicode="&#x300;" horiz-adv-x="1" 
d="M1 591c-11 -20 -31 -32 -56 -36l-140 158c19 19 53 28 84 28z" />
    <glyph glyph-name="acutecomb" unicode="&#x301;" horiz-adv-x="1" 
d="M1 712l-148 -158c-24 6 -40 19 -50 37l117 149c26 0 62 -10 81 -28z" />
    <glyph glyph-name="uni0302" unicode="&#x302;" horiz-adv-x="1" 
d="M-298 603l107 125c19 7 48 9 72 9l120 -144c-8 -20 -27 -35 -50 -42l-105 115l-111 -119c-19 15 -28 33 -33 56z" />
    <glyph glyph-name="tildecomb" unicode="&#x303;" horiz-adv-x="1" 
d="M1 661c-4 -57 -38 -97 -95 -97c-63 0 -89 49 -131 49c-26 0 -41 -16 -48 -45c-20 3 -44 16 -53 34c10 49 46 83 96 83c66 0 93 -49 132 -49c24 0 37 14 41 42c23 -2 43 -8 58 -17z" />
    <glyph glyph-name="uni0304" unicode="&#x304;" horiz-adv-x="1" 
d="M-273 656h268c4 -7 6 -19 6 -34s-2 -28 -6 -35h-280c0 22 5 51 12 69z" />
    <glyph glyph-name="uni0306" unicode="&#x306;" horiz-adv-x="1" 
d="M-240 726c6 -70 40 -99 88 -99s80 34 92 94c23 0 46 -6 61 -18c-13 -87 -69 -144 -159 -144c-86 0 -136 51 -148 138c13 15 39 27 66 29z" />
    <glyph glyph-name="uni0307" unicode="&#x307;" horiz-adv-x="1" 
d="M-54 684c33 0 55 -19 55 -54c0 -36 -22 -56 -55 -56c-37 0 -56 19 -56 55c0 34 23 55 56 55z" />
    <glyph glyph-name="uni0308" unicode="&#x308;" horiz-adv-x="1" 
d="M-51 676c31 0 52 -18 52 -51s-21 -52 -52 -52c-34 0 -52 18 -52 51c0 32 22 52 52 52zM-257 676c31 0 52 -18 52 -51s-21 -52 -52 -52c-34 0 -52 18 -52 51c0 32 22 52 52 52z" />
    <glyph glyph-name="uni030A" unicode="&#x30a;" horiz-adv-x="1" 
d="M-106 751c65 0 107 -37 107 -101c0 -65 -44 -101 -108 -101c-68 0 -107 36 -107 101c0 60 42 101 108 101zM-106 699c-30 0 -51 -18 -51 -49c0 -32 20 -49 51 -49c27 0 50 18 50 49c0 32 -20 49 -50 49z" />
    <glyph glyph-name="uni030B" unicode="&#x30b;" horiz-adv-x="1" 
d="M-186 720l-113 -165c-24 3 -43 13 -55 31l92 159c29 0 56 -8 76 -25zM1 720l-113 -165c-24 3 -43 13 -55 31l92 159c29 0 56 -8 76 -25z" />
    <glyph glyph-name="uni030C" unicode="&#x30c;" horiz-adv-x="1" 
d="M-187 558l-119 146c13 18 37 29 59 31l97 -108l103 112c21 -5 38 -21 48 -38l-115 -136c-19 -5 -47 -7 -73 -7z" />
    <glyph glyph-name="uni0312" unicode="&#x312;" horiz-adv-x="1" 
d="M-121 561c3 59 24 126 44 167c19 12 45 18 78 18c-20 -51 -35 -121 -39 -179c-11 -6 -26 -10 -46 -10c-17 0 -31 2 -37 4z" />
    <glyph glyph-name="uni0313" unicode="&#x313;" horiz-adv-x="1" 
d="M-83 708c23 13 48 19 84 19c-3 -67 -28 -150 -50 -193c-27 4 -51 14 -63 29c13 41 25 94 29 145z" />
    <glyph glyph-name="uni0326" unicode="&#x326;" horiz-adv-x="1" 
d="M-83 -61c23 11 49 17 84 17c-3 -69 -29 -156 -53 -200c-27 2 -52 13 -64 28c16 43 29 99 33 155z" />
    <glyph glyph-name="uni0327" unicode="&#x327;" horiz-adv-x="1" 
d="M-59 -84l27 87c18 8 42 11 68 11l-14 -65c35 -12 61 -36 61 -78c0 -61 -54 -98 -118 -108c-20 10 -37 27 -46 48c46 6 82 25 82 56c0 26 -27 43 -60 49z" />
    <glyph glyph-name="uni0328" unicode="&#x328;" horiz-adv-x="1" 
d="M73 -151c11 -15 18 -43 18 -62c-18 -7 -37 -11 -65 -11c-67 0 -122 32 -122 106c0 52 28 100 91 123c22 5 59 11 102 11c-72 -30 -109 -72 -109 -116c0 -37 26 -55 61 -55c8 0 17 1 24 4z" />
    <glyph glyph-name="uni037E" unicode="&#x37e;" horiz-adv-x="249" 
d="M88 73c23 11 53 17 90 17c-4 -87 -40 -199 -71 -252c-28 3 -52 13 -67 29c26 59 44 136 48 206zM132 481c35 0 58 -20 58 -57c0 -39 -22 -60 -58 -60c-37 0 -59 20 -59 59c0 37 24 58 59 58z" />
    <glyph glyph-name="tonos" unicode="&#x384;" horiz-adv-x="434" 
d="M316 720l-119 -176c-22 3 -44 16 -54 32l94 166c26 2 60 -4 79 -22z" />
    <glyph glyph-name="dieresistonos" unicode="&#x385;" horiz-adv-x="434" 
d="M305 723l-98 -178c-24 2 -44 12 -54 26l79 171c28 0 51 -4 73 -19zM90 674c29 0 48 -17 48 -47s-19 -48 -48 -48c-31 0 -48 17 -48 47s20 48 48 48zM344 674c29 0 48 -17 48 -47s-19 -48 -48 -48c-31 0 -48 17 -48 47s20 48 48 48z" />
    <glyph glyph-name="Alphatonos" unicode="&#x386;" horiz-adv-x="656" 
d="M543 6l-70 194h-292l-69 -194c-10 -5 -25 -8 -49 -8c-22 0 -37 3 -45 8l255 691c11 4 35 6 56 6s45 -2 56 -6l253 -691c-8 -5 -24 -8 -46 -8c-24 0 -39 3 -49 8zM208 278h238l-53 150c-26 73 -48 143 -64 216h-4c-15 -70 -40 -147 -64 -215zM150 682l-71 -202
c-26 -1 -51 7 -63 18l54 205c32 0 58 -6 80 -21z" />
    <glyph glyph-name="anoteleia" unicode="&#x387;" horiz-adv-x="247" 
d="M124 482c36 0 59 -20 59 -58c0 -40 -22 -61 -59 -61c-38 0 -60 20 -60 60c0 38 24 59 60 59z" />
    <glyph glyph-name="Epsilontonos" unicode="&#x388;" horiz-adv-x="608" 
d="M100 695h441c5 -10 7 -23 7 -40s-2 -30 -7 -40h-350v-222h325c5 -10 7 -22 7 -39s-2 -30 -7 -40h-325v-233h359c5 -10 7 -23 7 -40s-2 -31 -7 -41h-450v695zM51 682l-71 -202c-26 -1 -51 7 -63 18l54 205c32 0 58 -6 80 -21z" />
    <glyph glyph-name="Etatonos" unicode="&#x389;" horiz-adv-x="750" 
d="M559 5v315h-368v-315c-9 -5 -23 -7 -45 -7s-37 2 -46 7v685c9 5 24 7 46 7s36 -2 45 -7v-290h368v290c9 5 24 7 46 7s36 -2 45 -7v-685c-9 -5 -23 -7 -45 -7s-37 2 -46 7zM51 682l-71 -202c-26 -1 -51 7 -63 18l54 205c32 0 58 -6 80 -21z" />
    <glyph glyph-name="Iotatonos" unicode="&#x38a;" horiz-adv-x="291" 
d="M100 5v685c9 5 24 7 46 7s36 -2 45 -7v-685c-9 -5 -23 -7 -45 -7s-37 2 -46 7zM51 682l-71 -202c-26 -1 -51 7 -63 18l54 205c32 0 58 -6 80 -21z" />
    <glyph glyph-name="Omicrontonos" unicode="&#x38c;" horiz-adv-x="744" 
d="M372 718c187 0 314 -127 314 -363c0 -244 -123 -378 -314 -378c-200 0 -314 127 -314 378c0 227 129 363 314 363zM152 355c0 -187 79 -295 220 -295c143 0 220 110 220 295c0 174 -86 281 -220 281c-144 0 -220 -107 -220 -281zM51 682l-71 -202c-26 -1 -51 7 -63 18
l54 205c32 0 58 -6 80 -21z" />
    <glyph glyph-name="Upsilontonos" unicode="&#x38e;" horiz-adv-x="587" 
d="M247 5v83c0 138 -16 196 -156 457l-77 144c8 5 26 8 48 8c25 0 41 -3 51 -8l58 -110c77 -145 106 -208 124 -307h4c18 98 47 168 123 309l57 108c10 5 26 8 50 8c21 0 38 -3 46 -8l-80 -144c-142 -255 -157 -318 -157 -455v-85c-9 -5 -23 -7 -45 -7s-37 2 -46 7zM-6 682
l-71 -202c-26 -1 -51 7 -63 18l54 205c32 0 58 -6 80 -21z" />
    <glyph glyph-name="Omegatonos" unicode="&#x38f;" horiz-adv-x="796" 
d="M45 83h169v4c-78 43 -137 152 -137 294c0 203 131 337 324 337c197 0 319 -136 319 -335c0 -152 -68 -257 -141 -296v-4h172c5 -10 7 -25 7 -42s-2 -31 -7 -41h-279c-9 24 -12 49 -12 80c94 50 166 144 166 288c0 131 -59 268 -227 268c-165 0 -228 -131 -228 -266
c0 -136 67 -242 172 -290c0 -33 -4 -56 -13 -80h-285c-5 10 -7 24 -7 41s2 32 7 42zM70 682l-71 -202c-26 -1 -51 7 -63 18l54 205c32 0 58 -6 80 -21z" />
    <glyph glyph-name="iotadieresistonos" unicode="&#x390;" horiz-adv-x="301" 
d="M83 104v373c9 5 23 7 44 7s34 -2 43 -7v-356c0 -50 18 -61 55 -61c21 0 44 8 61 20c2 -29 -5 -63 -18 -81c-19 -12 -46 -19 -76 -19c-72 0 -109 38 -109 124zM239 723l-98 -178c-24 2 -44 12 -54 26l79 171c28 0 51 -4 73 -19zM24 674c29 0 48 -17 48 -47
s-19 -48 -48 -48c-31 0 -48 17 -48 47s20 48 48 48zM278 674c29 0 48 -17 48 -47s-19 -48 -48 -48c-31 0 -48 17 -48 47s20 48 48 48z" />
    <glyph glyph-name="Alpha" unicode="&#x391;" horiz-adv-x="656" 
d="M543 6l-70 194h-292l-69 -194c-10 -5 -25 -8 -49 -8c-22 0 -37 3 -45 8l255 691c11 4 35 6 56 6s45 -2 56 -6l253 -691c-8 -5 -24 -8 -46 -8c-24 0 -39 3 -49 8zM208 278h238l-53 150c-26 73 -48 143 -64 216h-4c-15 -70 -40 -147 -64 -215z" />
    <glyph glyph-name="Beta" unicode="&#x392;" horiz-adv-x="652" 
d="M465 369v-4c85 -21 145 -69 145 -169c0 -144 -125 -201 -286 -201c-81 0 -161 2 -224 8v684c59 11 118 17 194 17c162 0 279 -51 279 -182c0 -81 -44 -135 -108 -153zM191 321v-242c38 -3 81 -4 126 -4c126 0 200 38 200 122c0 83 -72 124 -189 124h-137zM191 618v-218
h137c93 0 153 37 153 110c0 81 -74 115 -188 115c-39 0 -71 -1 -102 -7z" />
    <glyph glyph-name="Gamma" unicode="&#x393;" horiz-adv-x="558" 
d="M191 612v-607c-9 -5 -23 -7 -45 -7s-37 2 -46 7v690h436c5 -10 7 -24 7 -41s-2 -32 -7 -42h-345z" />
    <glyph glyph-name="uni0394" unicode="&#x394;" horiz-adv-x="645" 
d="M597 0h-549c-10 23 -15 47 -15 76l228 621c12 4 37 6 60 6s48 -2 60 -6l231 -621c0 -29 -5 -53 -15 -76zM514 84l-116 318c-29 79 -57 161 -76 239h-4c-19 -77 -48 -162 -75 -238l-113 -319h384z" />
    <glyph glyph-name="Epsilon" unicode="&#x395;" horiz-adv-x="608" 
d="M100 695h441c5 -10 7 -23 7 -40s-2 -30 -7 -40h-350v-222h325c5 -10 7 -22 7 -39s-2 -30 -7 -40h-325v-233h359c5 -10 7 -23 7 -40s-2 -31 -7 -41h-450v695z" />
    <glyph glyph-name="Zeta" unicode="&#x396;" horiz-adv-x="584" 
d="M530 624l-370 -539v-4h377c5 -10 7 -23 7 -40s-2 -31 -7 -41h-479c-9 22 -12 46 -12 73l372 538v4h-354c-5 10 -7 23 -7 40s2 30 7 40h455c8 -21 11 -43 11 -71z" />
    <glyph glyph-name="Eta" unicode="&#x397;" horiz-adv-x="750" 
d="M559 5v315h-368v-315c-9 -5 -23 -7 -45 -7s-37 2 -46 7v685c9 5 24 7 46 7s36 -2 45 -7v-290h368v290c9 5 24 7 46 7s36 -2 45 -7v-685c-9 -5 -23 -7 -45 -7s-37 2 -46 7z" />
    <glyph glyph-name="Theta" unicode="&#x398;" horiz-adv-x="753" 
d="M377 718c188 0 318 -126 318 -362c0 -244 -126 -379 -318 -379c-202 0 -319 127 -319 379c0 226 131 362 319 362zM152 355c0 -188 81 -296 225 -296c145 0 224 110 224 296c0 175 -87 282 -224 282c-147 0 -225 -106 -225 -282zM226 398h303c5 -10 7 -22 7 -39
s-2 -30 -7 -40h-303c-5 10 -7 23 -7 40s2 29 7 39z" />
    <glyph glyph-name="Iota" unicode="&#x399;" horiz-adv-x="291" 
d="M100 5v685c9 5 24 7 46 7s36 -2 45 -7v-685c-9 -5 -23 -7 -45 -7s-37 2 -46 7z" />
    <glyph glyph-name="Kappa" unicode="&#x39a;" horiz-adv-x="638" 
d="M100 5v685c9 5 24 7 46 7s36 -2 45 -7v-294h83l219 293c11 5 31 8 56 8c26 0 40 -3 49 -8l-250 -332l274 -351c-8 -6 -26 -8 -53 -8s-47 2 -60 8l-241 310h-77v-311c-9 -5 -23 -7 -45 -7s-37 2 -46 7z" />
    <glyph glyph-name="Lambda" unicode="&#x39b;" horiz-adv-x="647" 
d="M534 6l-170 482c-15 44 -30 100 -40 151h-4c-9 -51 -24 -108 -40 -154l-167 -479c-10 -5 -24 -8 -48 -8c-22 0 -37 3 -45 8l250 691c11 3 30 6 53 6c24 0 43 -2 55 -6l251 -691c-8 -5 -24 -8 -46 -8c-24 0 -39 3 -49 8z" />
    <glyph glyph-name="Mu" unicode="&#x39c;" horiz-adv-x="881" 
d="M699 5v627h-4c-12 -58 -31 -120 -50 -175l-158 -458c-8 -4 -26 -7 -47 -7s-39 3 -47 7l-160 459c-15 42 -35 116 -47 174h-4v-627c-9 -5 -20 -7 -41 -7c-20 0 -32 2 -41 7v684c15 5 34 8 65 8c33 0 52 -3 67 -8l153 -428c21 -59 42 -129 54 -195h4c12 67 35 138 55 195
l149 428c15 5 34 8 66 8s53 -3 68 -8v-684c-9 -5 -20 -7 -41 -7c-20 0 -32 2 -41 7z" />
    <glyph glyph-name="Nu" unicode="&#x39d;" horiz-adv-x="746" 
d="M185 611v-606c-9 -5 -21 -7 -42 -7s-34 2 -43 7v686c14 4 31 7 60 7c28 0 44 -3 57 -7l272 -447c29 -47 53 -100 68 -153h4v599c9 5 21 7 42 7s34 -2 43 -7v-688c-12 -4 -28 -7 -57 -7c-27 0 -44 3 -55 7l-284 467c-25 40 -47 93 -61 142h-4z" />
    <glyph glyph-name="Xi" unicode="&#x39e;" horiz-adv-x="595" 
d="M69 695h456c5 -10 7 -22 7 -39s-2 -29 -7 -39h-456c-5 10 -7 22 -7 39s2 29 7 39zM102 394h390c5 -10 7 -22 7 -39s-2 -30 -7 -40h-390c-5 10 -7 23 -7 40s2 29 7 39zM62 80h471c5 -10 7 -23 7 -40s-2 -30 -7 -40h-471c-5 10 -7 23 -7 40s2 30 7 40z" />
    <glyph glyph-name="Omicron" unicode="&#x39f;" horiz-adv-x="744" 
d="M372 718c187 0 314 -127 314 -363c0 -244 -123 -378 -314 -378c-200 0 -314 127 -314 378c0 227 129 363 314 363zM152 355c0 -187 79 -295 220 -295c143 0 220 110 220 295c0 174 -86 281 -220 281c-144 0 -220 -107 -220 -281z" />
    <glyph glyph-name="Pi" unicode="&#x3a0;" horiz-adv-x="742" 
d="M551 5v607h-360v-607c-9 -5 -23 -7 -45 -7s-37 2 -46 7v690h542v-690c-9 -5 -23 -7 -45 -7s-37 2 -46 7z" />
    <glyph glyph-name="Rho" unicode="&#x3a1;" horiz-adv-x="606" 
d="M100 5v684c56 11 120 16 186 16c187 0 299 -71 299 -232c0 -163 -114 -234 -270 -234c-37 0 -97 4 -124 8v-242c-9 -5 -23 -7 -45 -7s-37 2 -46 7zM287 625c-33 0 -66 -2 -96 -8v-289c27 -5 74 -9 111 -9c121 0 190 41 190 147c0 114 -79 159 -205 159z" />
    <glyph glyph-name="Sigma" unicode="&#x3a3;" horiz-adv-x="602" 
d="M398 362l-225 -274v-4h369c4 -7 6 -23 6 -42c0 -18 -2 -35 -6 -42h-465c-10 22 -15 45 -15 72l227 282l-224 266c0 27 6 55 15 75h455c4 -7 6 -20 6 -38c0 -17 -2 -33 -6 -39h-355v-4z" />
    <glyph glyph-name="Tau" unicode="&#x3a4;" horiz-adv-x="578" 
d="M551 614h-216v-609c-9 -5 -23 -7 -45 -7s-37 2 -46 7v609h-217c-5 10 -7 24 -7 41s2 30 7 40h524c5 -10 7 -23 7 -40s-2 -31 -7 -41z" />
    <glyph glyph-name="Upsilon" unicode="&#x3a5;" horiz-adv-x="587" 
d="M247 5v83c0 138 -16 196 -156 457l-77 144c8 5 26 8 48 8c25 0 41 -3 51 -8l58 -110c77 -145 106 -208 124 -307h4c18 98 47 168 123 309l57 108c10 5 26 8 50 8c21 0 38 -3 46 -8l-80 -144c-142 -255 -157 -318 -157 -455v-85c-9 -5 -23 -7 -45 -7s-37 2 -46 7z" />
    <glyph glyph-name="Phi" unicode="&#x3a6;" horiz-adv-x="815" 
d="M453 39v-74c-9 -5 -23 -7 -45 -7s-37 2 -46 7v74c-207 10 -319 113 -319 315c0 182 126 289 319 302v74c9 5 24 7 46 7s36 -2 45 -7v-74c194 -11 319 -111 319 -302c0 -196 -122 -304 -319 -315zM682 354c0 140 -86 215 -231 225v-463c157 11 231 91 231 238zM133 354
c0 -146 75 -226 231 -237v462c-154 -10 -231 -86 -231 -225z" />
    <glyph glyph-name="Chi" unicode="&#x3a7;" horiz-adv-x="617" 
d="M159 689l124 -194c15 -23 27 -43 35 -65h4c9 22 22 44 37 66l127 193c12 5 31 8 54 8c25 0 39 -3 48 -8l-217 -325l230 -358c-9 -6 -25 -8 -51 -8c-25 0 -43 2 -55 8l-145 229c-15 23 -27 43 -35 65h-4c-9 -22 -22 -44 -37 -66l-150 -228c-12 -6 -31 -8 -54 -8
s-42 2 -50 8l241 361l-205 322c7 6 23 8 46 8c25 0 45 -3 57 -8z" />
    <glyph glyph-name="Psi" unicode="&#x3a8;" horiz-adv-x="751" 
d="M135 690v-166c0 -164 43 -230 196 -238v404c9 4 23 7 44 7s36 -3 45 -7v-404c151 9 196 78 196 233v171c9 4 24 7 45 7c20 0 36 -3 45 -7v-166c0 -209 -78 -309 -285 -319v-200c-9 -5 -23 -7 -45 -7s-37 2 -46 7v200c-219 9 -285 108 -285 311v174c9 4 24 7 45 7
c20 0 36 -3 45 -7z" />
    <glyph glyph-name="uni03A9" unicode="&#x3a9;" horiz-adv-x="796" 
d="M45 83h169v4c-78 43 -137 152 -137 294c0 203 131 337 324 337c197 0 319 -136 319 -335c0 -152 -68 -257 -141 -296v-4h172c5 -10 7 -25 7 -42s-2 -31 -7 -41h-279c-9 24 -12 49 -12 80c94 50 166 144 166 288c0 131 -59 268 -227 268c-165 0 -228 -131 -228 -266
c0 -136 67 -242 172 -290c0 -33 -4 -56 -13 -80h-285c-5 10 -7 24 -7 41s2 32 7 42z" />
    <glyph glyph-name="Iotadieresis" unicode="&#x3aa;" horiz-adv-x="291" 
d="M100 5v685c9 5 24 7 46 7s36 -2 45 -7v-685c-9 -5 -23 -7 -45 -7s-37 2 -46 7zM236 868c31 0 55 -18 55 -53c0 -37 -22 -56 -55 -56c-35 0 -56 19 -56 55c0 34 23 54 56 54zM56 868c31 0 55 -18 55 -53c0 -37 -22 -56 -55 -56c-35 0 -56 19 -56 55c0 34 23 54 56 54z" />
    <glyph glyph-name="Upsilondieresis" unicode="&#x3ab;" horiz-adv-x="587" 
d="M247 5v83c0 138 -16 196 -156 457l-77 144c8 5 26 8 48 8c25 0 41 -3 51 -8l58 -110c77 -145 106 -208 124 -307h4c18 98 47 168 123 309l57 108c10 5 26 8 50 8c21 0 38 -3 46 -8l-80 -144c-142 -255 -157 -318 -157 -455v-85c-9 -5 -23 -7 -45 -7s-37 2 -46 7zM183 868
c31 0 55 -18 55 -53c0 -37 -22 -56 -55 -56c-35 0 -56 19 -56 55c0 34 23 54 56 54zM403 868c31 0 55 -18 55 -53c0 -37 -22 -56 -55 -56c-35 0 -56 19 -56 55c0 34 23 54 56 54z" />
    <glyph glyph-name="alphatonos" unicode="&#x3ac;" horiz-adv-x="603" 
d="M514 478c-18 -64 -35 -155 -35 -255c0 -105 12 -162 79 -162c10 0 17 1 24 3c3 -25 -5 -59 -17 -76c-11 -4 -23 -6 -40 -6c-56 0 -96 29 -117 93h-4c-29 -62 -81 -95 -161 -95c-122 0 -187 86 -187 250c0 204 97 272 211 272c75 0 120 -31 143 -92h4c5 25 11 49 18 69
c9 5 24 7 41 7c14 0 30 -2 41 -8zM399 323c-17 67 -53 99 -116 99c-90 0 -138 -58 -138 -187c0 -114 40 -175 124 -175c64 0 103 35 125 90c-2 20 -3 41 -3 66c0 34 3 73 8 107zM419 720l-119 -176c-22 3 -44 16 -54 32l94 166c26 2 60 -4 79 -22z" />
    <glyph glyph-name="epsilontonos" unicode="&#x3ad;" horiz-adv-x="489" 
d="M396 720l-119 -176c-22 3 -44 16 -54 32l94 166c26 2 60 -4 79 -22zM156 251v4c-58 15 -78 57 -78 109c0 101 73 138 183 138c62 0 110 -12 149 -37c8 -17 13 -49 9 -73c-50 26 -88 37 -142 37c-76 0 -112 -19 -112 -70c0 -56 44 -74 120 -74h82c9 -18 12 -52 7 -69h-87
c-88 0 -141 -20 -141 -83c0 -57 45 -79 125 -79c64 0 123 14 171 36c2 -27 -10 -62 -26 -81c-45 -19 -101 -29 -161 -29c-119 0 -198 39 -198 144c0 71 36 108 99 127z" />
    <glyph glyph-name="etatonos" unicode="&#x3ae;" horiz-adv-x="596" 
d="M184 346v-341c-9 -5 -22 -7 -43 -7s-35 2 -44 7v352c0 37 -8 51 -44 51h-20c0 20 4 55 14 76h29c65 0 90 -23 98 -71h4c26 49 72 89 168 89c83 0 171 -29 171 -192v-538c-9 -5 -22 -7 -43 -7s-35 2 -44 7v521c0 78 -24 128 -109 128c-73 0 -116 -35 -137 -75zM448 720
l-119 -176c-22 3 -44 16 -54 32l94 166c26 2 60 -4 79 -22z" />
    <glyph glyph-name="iotatonos" unicode="&#x3af;" horiz-adv-x="301" 
d="M83 104v373c9 5 23 7 44 7s34 -2 43 -7v-356c0 -50 18 -61 55 -61c21 0 44 8 61 20c2 -29 -5 -63 -18 -81c-19 -12 -46 -19 -76 -19c-72 0 -109 38 -109 124zM266 720l-119 -176c-22 3 -44 16 -54 32l94 166c26 2 60 -4 79 -22z" />
    <glyph glyph-name="upsilondieresistonos" unicode="&#x3b0;" horiz-adv-x="569" 
d="M52 482h23c78 0 118 -23 118 -110c0 -79 -14 -107 -14 -182c0 -121 58 -134 110 -134c90 0 135 61 135 204c0 91 -23 166 -44 213c8 8 25 13 45 13c16 0 30 -2 38 -8c24 -45 49 -121 49 -212c0 -158 -44 -286 -232 -286c-103 0 -188 34 -188 200c0 75 14 107 14 177
c0 37 -10 49 -48 49h-20c0 20 4 55 14 76zM381 723l-98 -178c-24 2 -44 12 -54 26l79 171c28 0 51 -4 73 -19zM166 674c29 0 48 -17 48 -47s-19 -48 -48 -48c-31 0 -48 17 -48 47s20 48 48 48zM420 674c29 0 48 -17 48 -47s-19 -48 -48 -48c-31 0 -48 17 -48 47s20 48 48 48
z" />
    <glyph glyph-name="alpha" unicode="&#x3b1;" horiz-adv-x="603" 
d="M514 478c-18 -64 -35 -155 -35 -255c0 -105 12 -162 79 -162c10 0 17 1 24 3c3 -25 -5 -59 -17 -76c-11 -4 -23 -6 -40 -6c-56 0 -96 29 -117 93h-4c-29 -62 -81 -95 -161 -95c-122 0 -187 86 -187 250c0 204 97 272 211 272c75 0 120 -31 143 -92h4c5 25 11 49 18 69
c9 5 24 7 41 7c14 0 30 -2 41 -8zM399 323c-17 67 -53 99 -116 99c-90 0 -138 -58 -138 -187c0 -114 40 -175 124 -175c64 0 103 35 125 90c-2 20 -3 41 -3 66c0 34 3 73 8 107z" />
    <glyph glyph-name="beta" unicode="&#x3b2;" horiz-adv-x="595" 
d="M177 37h-4v-265c-9 -5 -22 -7 -43 -7s-35 2 -44 7v734c0 172 66 243 216 243c138 0 199 -76 199 -185c0 -80 -35 -146 -123 -170v-5c101 -16 164 -77 164 -194c0 -149 -87 -215 -215 -215c-67 0 -119 21 -150 57zM172 529v-423c28 -33 73 -51 135 -51
c101 0 147 51 147 148c0 111 -67 150 -163 150h-31c-1 21 2 50 11 69h15c63 0 131 34 131 136c0 75 -38 119 -119 119c-88 0 -126 -51 -126 -148z" />
    <glyph glyph-name="gamma" unicode="&#x3b3;" horiz-adv-x="444" 
d="M95 480c48 -72 83 -149 107 -231c15 -50 20 -88 23 -135h4c51 106 92 247 100 366c7 3 18 6 37 6c23 0 39 -5 50 -12c-16 -157 -80 -339 -168 -454c4 -25 7 -67 7 -99c0 -58 -1 -102 -6 -149c-8 -4 -22 -7 -42 -7c-18 0 -33 3 -42 7c4 43 6 84 6 147
c0 206 -58 392 -168 555c11 7 27 12 53 12c18 0 30 -2 39 -6z" />
    <glyph glyph-name="delta" unicode="&#x3b4;" horiz-adv-x="582" 
d="M60 186c0 117 59 179 171 219v4c-92 41 -134 77 -134 167c0 110 70 173 211 173c84 0 136 -16 178 -41c13 -21 19 -62 17 -85c-58 32 -100 53 -195 53s-129 -30 -129 -93c0 -70 25 -79 166 -139c88 -37 179 -95 179 -240s-90 -224 -242 -224c-137 0 -222 67 -222 206z
M435 196c0 102 -63 143 -132 175c-100 -36 -156 -78 -156 -176c0 -101 59 -141 142 -141c90 0 146 47 146 142z" />
    <glyph glyph-name="epsilon" unicode="&#x3b5;" horiz-adv-x="489" 
d="M156 251v4c-58 15 -78 57 -78 109c0 101 73 138 183 138c62 0 110 -12 149 -37c8 -17 13 -49 9 -73c-50 26 -88 37 -142 37c-76 0 -112 -19 -112 -70c0 -56 44 -74 120 -74h82c9 -18 12 -52 7 -69h-87c-88 0 -141 -20 -141 -83c0 -57 45 -79 125 -79c64 0 123 14 171 36
c2 -27 -10 -62 -26 -81c-45 -19 -101 -29 -161 -29c-119 0 -198 39 -198 144c0 71 36 108 99 127z" />
    <glyph glyph-name="zeta" unicode="&#x3b6;" horiz-adv-x="453" 
d="M100 723h93c86 0 143 5 217 20c12 -13 19 -44 17 -67c-141 -63 -293 -214 -293 -409c0 -113 41 -137 128 -158c104 -25 177 -54 177 -155c0 -64 -28 -111 -69 -152c-30 9 -43 23 -55 48c26 28 36 55 36 86c0 57 -28 75 -140 101c-87 20 -166 65 -166 213
c0 188 113 332 251 406v4c-39 -9 -73 -13 -138 -13h-72c0 20 4 55 14 76z" />
    <glyph glyph-name="eta" unicode="&#x3b7;" horiz-adv-x="596" 
d="M184 346v-341c-9 -5 -22 -7 -43 -7s-35 2 -44 7v352c0 37 -8 51 -44 51h-20c0 20 4 55 14 76h29c65 0 90 -23 98 -71h4c26 49 72 89 168 89c83 0 171 -29 171 -192v-538c-9 -5 -22 -7 -43 -7s-35 2 -44 7v521c0 78 -24 128 -109 128c-73 0 -116 -35 -137 -75z" />
    <glyph glyph-name="theta" unicode="&#x3b8;" horiz-adv-x="607" 
d="M304 749c150 0 242 -110 242 -375c0 -275 -88 -394 -242 -394c-162 0 -243 114 -243 394c0 254 91 375 243 375zM304 53c99 0 150 94 154 285h-309c4 -193 55 -285 155 -285zM304 676c-102 0 -152 -87 -155 -268h308c-4 182 -58 268 -153 268z" />
    <glyph glyph-name="iota" unicode="&#x3b9;" horiz-adv-x="301" 
d="M83 104v373c9 5 23 7 44 7s34 -2 43 -7v-356c0 -50 18 -61 55 -61c21 0 44 8 61 20c2 -29 -5 -63 -18 -81c-19 -12 -46 -19 -76 -19c-72 0 -109 38 -109 124z" />
    <glyph glyph-name="kappa" unicode="&#x3ba;" horiz-adv-x="556" 
d="M172 477v-218l140 146c70 73 109 86 188 86c4 -8 6 -19 6 -37s-2 -30 -6 -38c-55 0 -76 -4 -135 -63l-63 -64c70 -102 132 -185 227 -284c-8 -5 -29 -8 -50 -8c-26 0 -50 3 -61 8c-66 72 -119 141 -178 229l-68 -69v-160c-9 -5 -22 -7 -43 -7s-35 2 -44 7v472
c9 5 23 7 44 7s34 -2 43 -7z" />
    <glyph glyph-name="lambda" unicode="&#x3bb;" horiz-adv-x="533" 
d="M31 6l194 504c-54 148 -76 166 -128 166c-26 0 -44 -7 -57 -15c-2 21 5 56 20 76c13 7 35 12 59 12c89 0 118 -44 179 -203l209 -540c-8 -6 -22 -8 -45 -8c-20 0 -34 2 -44 8l-110 288c-16 43 -31 97 -40 143h-4c-8 -44 -21 -96 -38 -141l-108 -290c-10 -6 -24 -8 -44 -8
c-21 0 -35 2 -43 8z" />
    <glyph glyph-name="uni03BC" unicode="&#x3bc;" horiz-adv-x="607" 
d="M418 124v353c9 5 23 7 44 7s34 -2 43 -7v-375c0 -38 16 -43 37 -43c20 0 40 8 50 16c3 -26 -5 -57 -16 -75c-17 -13 -40 -20 -68 -20c-52 0 -74 29 -79 62h-4c-16 -26 -57 -62 -141 -62c-63 0 -102 22 -119 61h-4c8 -38 12 -97 12 -154v-115c-9 -5 -22 -7 -43 -7
s-35 2 -44 7v698c21 11 50 18 87 18v-297c0 -79 29 -128 115 -128c66 0 110 29 130 61z" />
    <glyph glyph-name="nu" unicode="&#x3bd;" horiz-adv-x="495" 
d="M168 7l-151 467c11 7 29 12 53 12c18 0 29 -3 35 -6l94 -307c12 -40 19 -71 25 -111h4c82 83 142 169 142 302c0 47 -6 82 -16 110c9 7 22 12 44 12c18 0 27 -3 37 -8c13 -26 21 -65 21 -109c0 -159 -90 -282 -205 -375c-31 0 -61 5 -83 13z" />
    <glyph glyph-name="xi" unicode="&#x3be;" horiz-adv-x="478" 
d="M407 338h-67c-93 0 -196 -34 -196 -135c0 -74 34 -88 129 -103c96 -15 177 -49 177 -149c0 -63 -26 -110 -69 -150c-30 9 -43 23 -55 48c26 28 36 54 36 84c0 65 -47 81 -142 98c-92 16 -165 49 -165 154c0 101 59 154 152 179v4c-74 13 -118 46 -118 122
c0 83 47 134 166 164v4c-41 -8 -70 -11 -112 -11h-52c0 20 4 55 14 76h84c82 0 146 4 229 17c11 -13 18 -43 16 -65c-166 -33 -257 -74 -257 -170c0 -83 73 -100 174 -100h50c8 -16 11 -49 6 -67z" />
    <glyph glyph-name="omicron" unicode="&#x3bf;" horiz-adv-x="555" 
d="M278 502c139 0 228 -89 228 -254c0 -174 -87 -268 -228 -268c-148 0 -229 90 -229 268c0 160 90 254 229 254zM138 248c0 -121 47 -192 140 -192s139 72 139 192c0 110 -51 178 -139 178c-94 0 -140 -69 -140 -178z" />
    <glyph glyph-name="pi" unicode="&#x3c0;" horiz-adv-x="568" 
d="M20 482h529c4 -8 6 -21 6 -39s-2 -31 -6 -39h-99v-294c0 -40 15 -48 40 -48c21 0 39 7 51 17c3 -26 -6 -64 -19 -79c-15 -10 -36 -17 -64 -17c-60 0 -95 30 -95 108v313h-174v-399c-8 -5 -22 -7 -43 -7s-35 2 -44 7v399h-94c0 30 4 57 12 78z" />
    <glyph glyph-name="rho" unicode="&#x3c1;" horiz-adv-x="579" 
d="M166 40v-268c-9 -5 -22 -7 -43 -7s-35 2 -44 7v479c0 165 74 251 229 251c123 0 221 -60 221 -251c0 -169 -81 -271 -209 -271c-67 0 -121 20 -150 60h-4zM165 111c24 -30 68 -55 126 -55c94 0 149 69 149 192c0 115 -42 179 -136 179c-95 0 -139 -66 -139 -172v-144z
" />
    <glyph glyph-name="sigma1" unicode="&#x3c2;" horiz-adv-x="467" 
d="M136 270c0 -109 50 -136 122 -158c102 -31 168 -61 168 -160c0 -61 -25 -106 -69 -144c-29 9 -44 21 -55 46c26 28 36 52 36 82c0 55 -36 73 -103 95c-101 33 -188 69 -188 229c0 156 86 242 227 242c55 0 94 -11 123 -30c15 -19 22 -55 17 -84c-37 22 -72 34 -123 34
c-101 0 -155 -47 -155 -152z" />
    <glyph glyph-name="sigma" unicode="&#x3c3;" horiz-adv-x="601" 
d="M591 405h-95c-45 0 -73 6 -94 14v-4c52 -35 98 -95 98 -205c0 -155 -90 -230 -231 -230c-144 0 -219 75 -219 244c0 178 80 268 266 268c65 0 87 -10 184 -10h91c4 -8 6 -20 6 -38s-2 -31 -6 -39zM411 223c0 98 -38 160 -92 193h-13c-120 0 -167 -74 -167 -187
c0 -123 45 -174 134 -174c91 0 138 59 138 168z" />
    <glyph glyph-name="tau" unicode="&#x3c4;" horiz-adv-x="475" 
d="M23 482h414c4 -8 6 -21 6 -39s-2 -32 -6 -40h-187v-265c0 -55 11 -78 71 -78c32 0 56 7 82 26c3 -29 -6 -64 -18 -82c-25 -16 -54 -24 -95 -24c-92 0 -127 41 -127 143v280h-152c0 30 4 58 12 79z" />
    <glyph glyph-name="upsilon" unicode="&#x3c5;" horiz-adv-x="569" 
d="M52 482h23c78 0 118 -23 118 -110c0 -79 -14 -107 -14 -182c0 -121 58 -134 110 -134c90 0 135 61 135 204c0 91 -23 166 -44 213c8 8 25 13 45 13c16 0 30 -2 38 -8c24 -45 49 -121 49 -212c0 -158 -44 -286 -232 -286c-103 0 -188 34 -188 200c0 75 14 107 14 177
c0 37 -10 49 -48 49h-20c0 20 4 55 14 76z" />
    <glyph glyph-name="phi" unicode="&#x3c6;" horiz-adv-x="716" 
d="M401 -16v-212c-9 -5 -22 -7 -43 -7s-35 2 -44 7v212c-177 9 -273 94 -273 265c0 151 104 238 273 249v218c20 12 50 19 87 19v-237c166 -8 274 -91 274 -249c0 -167 -105 -255 -274 -265zM591 248c0 110 -71 174 -192 180v-374c127 8 192 74 192 194zM125 248
c0 -121 64 -184 191 -193v373c-127 -7 -191 -72 -191 -180z" />
    <glyph glyph-name="chi" unicode="&#x3c7;" horiz-adv-x="474" 
d="M214 64h-4c-10 -36 -25 -74 -41 -106l-97 -187c-11 -5 -27 -8 -49 -8c-18 0 -31 3 -40 8l205 380l-41 163c-25 98 -42 102 -107 102h-9c0 23 4 54 14 73h6c105 0 145 -21 173 -149l29 -133h4c8 32 23 71 42 106l88 169c7 3 21 4 35 4c21 0 39 -4 49 -10l-194 -354
l47 -169c30 -111 46 -121 122 -121h12c4 -7 6 -19 6 -36s-2 -30 -6 -37h-21c-118 0 -157 21 -191 169z" />
    <glyph glyph-name="psi" unicode="&#x3c8;" horiz-adv-x="762" 
d="M138 478c17 -48 23 -101 23 -159v-98c0 -122 64 -161 182 -165v551c20 11 50 18 86 18v-569c124 6 189 71 189 204c0 94 -22 167 -43 214c8 7 24 12 45 12c20 0 32 -3 40 -8c27 -54 47 -127 47 -213c0 -165 -73 -273 -278 -285v-208c-9 -5 -22 -7 -43 -7s-34 2 -43 7v208
c-180 4 -269 77 -269 236v96c0 63 -5 111 -20 162c9 7 24 11 43 11c16 0 32 -1 41 -7z" />
    <glyph glyph-name="omega" unicode="&#x3c9;" horiz-adv-x="799" 
d="M442 363v-168c0 -114 50 -139 100 -139c71 0 113 53 113 175c0 99 -27 184 -58 242c8 8 25 13 45 13c16 0 30 -2 38 -8c33 -57 64 -140 64 -251c0 -126 -38 -247 -192 -247c-74 0 -127 28 -151 100h-4c-22 -71 -78 -100 -151 -100c-150 0 -191 120 -191 246
c0 110 31 196 64 252c8 6 22 8 38 8c20 0 36 -5 44 -13c-30 -57 -57 -142 -57 -240c0 -121 42 -177 116 -177c48 0 98 24 98 132v161c25 11 49 14 84 14z" />
    <glyph glyph-name="iotadieresis" unicode="&#x3ca;" horiz-adv-x="301" 
d="M83 104v373c9 5 23 7 44 7s34 -2 43 -7v-356c0 -50 18 -61 55 -61c21 0 44 8 61 20c2 -29 -5 -63 -18 -81c-19 -12 -46 -19 -76 -19c-72 0 -109 38 -109 124zM25 676c31 0 52 -18 52 -51s-21 -52 -52 -52c-34 0 -52 18 -52 51c0 32 22 52 52 52zM231 676
c31 0 52 -18 52 -51s-21 -52 -52 -52c-34 0 -52 18 -52 51c0 32 22 52 52 52z" />
    <glyph glyph-name="upsilondieresis" unicode="&#x3cb;" horiz-adv-x="569" 
d="M52 482h23c78 0 118 -23 118 -110c0 -79 -14 -107 -14 -182c0 -121 58 -134 110 -134c90 0 135 61 135 204c0 91 -23 166 -44 213c8 8 25 13 45 13c16 0 30 -2 38 -8c24 -45 49 -121 49 -212c0 -158 -44 -286 -232 -286c-103 0 -188 34 -188 200c0 75 14 107 14 177
c0 37 -10 49 -48 49h-20c0 20 4 55 14 76zM394 676c31 0 52 -18 52 -51s-21 -52 -52 -52c-34 0 -52 18 -52 51c0 32 22 52 52 52zM188 676c31 0 52 -18 52 -51s-21 -52 -52 -52c-34 0 -52 18 -52 51c0 32 22 52 52 52z" />
    <glyph glyph-name="omicrontonos" unicode="&#x3cc;" horiz-adv-x="555" 
d="M278 502c139 0 228 -89 228 -254c0 -174 -87 -268 -228 -268c-148 0 -229 90 -229 268c0 160 90 254 229 254zM138 248c0 -121 47 -192 140 -192s139 72 139 192c0 110 -51 178 -139 178c-94 0 -140 -69 -140 -178zM420 720l-119 -176c-22 3 -44 16 -54 32l94 166
c26 2 60 -4 79 -22z" />
    <glyph glyph-name="upsilontonos" unicode="&#x3cd;" horiz-adv-x="569" 
d="M425 720l-119 -176c-22 3 -44 16 -54 32l94 166c26 2 60 -4 79 -22zM52 482h23c78 0 118 -23 118 -110c0 -79 -14 -107 -14 -182c0 -121 58 -134 110 -134c90 0 135 61 135 204c0 91 -23 166 -44 213c8 8 25 13 45 13c16 0 30 -2 38 -8c24 -45 49 -121 49 -212
c0 -158 -44 -286 -232 -286c-103 0 -188 34 -188 200c0 75 14 107 14 177c0 37 -10 49 -48 49h-20c0 20 4 55 14 76z" />
    <glyph glyph-name="omegatonos" unicode="&#x3ce;" horiz-adv-x="799" 
d="M442 363v-168c0 -114 50 -139 100 -139c71 0 113 53 113 175c0 99 -27 184 -58 242c8 8 25 13 45 13c16 0 30 -2 38 -8c33 -57 64 -140 64 -251c0 -126 -38 -247 -192 -247c-74 0 -127 28 -151 100h-4c-22 -71 -78 -100 -151 -100c-150 0 -191 120 -191 246
c0 110 31 196 64 252c8 6 22 8 38 8c20 0 36 -5 44 -13c-30 -57 -57 -142 -57 -240c0 -121 42 -177 116 -177c48 0 98 24 98 132v161c25 11 49 14 84 14zM545 720l-119 -176c-22 3 -44 16 -54 32l94 166c26 2 60 -4 79 -22z" />
    <glyph glyph-name="uni03D0" unicode="&#x3d0;" horiz-adv-x="579" 
d="M497 596c0 -70 -30 -127 -86 -171v-4c76 -45 116 -117 116 -213c0 -136 -75 -228 -228 -228c-180 0 -241 144 -241 363c0 218 79 406 271 406c117 0 168 -64 168 -153zM352 379c-54 -35 -123 -61 -205 -86c7 -153 49 -239 155 -239c90 0 138 58 138 154
c0 75 -32 135 -88 171zM324 678c-109 0 -178 -110 -179 -312c170 49 267 118 267 222c0 56 -24 90 -88 90z" />
    <glyph glyph-name="theta1" unicode="&#x3d1;" horiz-adv-x="602" 
d="M454 337c-228 7 -350 94 -350 233c0 121 69 179 190 179c183 0 250 -167 250 -380c0 -242 -77 -389 -257 -389c-126 0 -196 67 -196 198v52c0 27 -7 38 -30 38c-15 0 -27 -6 -38 -15c-2 23 4 57 17 74c14 10 34 15 56 15c70 0 80 -44 80 -118v-27c0 -92 31 -141 116 -141
c112 0 160 105 162 281zM190 574c0 -103 89 -157 264 -163c-5 154 -49 267 -165 267c-60 0 -99 -31 -99 -104z" />
    <glyph glyph-name="phi1" unicode="&#x3d5;" horiz-adv-x="748" 
d="M141 251c0 -121 47 -183 180 -192v216c0 159 52 227 185 227c134 0 191 -86 191 -235c0 -178 -91 -275 -289 -286v-209c-8 -4 -23 -7 -43 -7c-21 0 -35 3 -44 7v209c-183 8 -269 90 -269 261c0 94 28 181 71 236c8 6 22 8 38 8c21 0 38 -5 46 -13
c-42 -60 -66 -134 -66 -222zM407 279v-220c147 8 202 78 202 205c0 107 -33 163 -107 163c-67 0 -95 -38 -95 -148z" />
    <glyph glyph-name="uni0400" unicode="&#x400;" horiz-adv-x="608" 
d="M100 695h441c5 -10 7 -23 7 -40s-2 -30 -7 -40h-350v-222h325c5 -10 7 -22 7 -39s-2 -30 -7 -40h-325v-233h359c5 -10 7 -23 7 -40s-2 -31 -7 -41h-450v695zM200 907l199 -100c-1 -23 -9 -48 -25 -63l-220 93c5 28 23 54 46 70z" />
    <glyph glyph-name="uni0401" unicode="&#x401;" horiz-adv-x="608" 
d="M100 695h441c5 -10 7 -23 7 -40s-2 -30 -7 -40h-350v-222h325c5 -10 7 -22 7 -39s-2 -30 -7 -40h-325v-233h359c5 -10 7 -23 7 -40s-2 -31 -7 -41h-450v695zM440 868c31 0 55 -18 55 -53c0 -37 -22 -56 -55 -56c-35 0 -56 19 -56 55c0 34 23 54 56 54zM220 868
c31 0 55 -18 55 -53c0 -37 -22 -56 -55 -56c-35 0 -56 19 -56 55c0 34 23 54 56 54z" />
    <glyph glyph-name="uni0402" unicode="&#x402;" horiz-adv-x="727" 
d="M557 616h-281v-203c38 12 84 19 139 19c140 0 265 -45 265 -220c0 -162 -108 -224 -285 -224h-10c-13 21 -17 47 -17 76h9c138 0 211 37 211 144c0 116 -79 144 -190 144c-44 0 -91 -5 -122 -16v-331c-9 -5 -23 -7 -45 -7s-37 2 -46 7v611h-160c-5 10 -7 23 -7 40
s2 29 7 39h532c5 -10 7 -22 7 -39s-2 -30 -7 -40z" />
    <glyph glyph-name="uni0403" unicode="&#x403;" horiz-adv-x="558" 
d="M191 612v-607c-9 -5 -23 -7 -45 -7s-37 2 -46 7v690h436c5 -10 7 -24 7 -41s-2 -32 -7 -42h-345zM452 908c21 -17 30 -47 32 -74l-222 -91c-13 16 -18 40 -19 65z" />
    <glyph glyph-name="uni0404" unicode="&#x404;" horiz-adv-x="637" 
d="M576 597c-50 26 -103 39 -159 39c-142 0 -251 -73 -266 -242h381c5 -10 7 -22 7 -39s-2 -29 -7 -39h-382c8 -176 113 -256 256 -256c68 0 132 18 178 41c1 -24 -10 -64 -25 -84c-43 -22 -107 -40 -179 -40c-202 0 -323 136 -323 362c0 249 145 379 343 379
c57 0 115 -11 155 -34c15 -21 24 -60 21 -87z" />
    <glyph glyph-name="uni0405" unicode="&#x405;" horiz-adv-x="561" 
d="M50 119c57 -37 142 -59 217 -59c110 0 157 46 157 118c0 187 -354 102 -354 348c0 123 83 192 221 192c65 0 123 -15 171 -47c14 -23 23 -66 18 -97c-51 38 -115 62 -184 62c-89 0 -134 -39 -134 -98c0 -174 353 -97 353 -348c0 -161 -115 -213 -249 -213
c-79 0 -150 18 -198 45c-16 25 -22 67 -18 97z" />
    <glyph glyph-name="uni0406" unicode="&#x406;" horiz-adv-x="291" 
d="M100 5v685c9 5 24 7 46 7s36 -2 45 -7v-685c-9 -5 -23 -7 -45 -7s-37 2 -46 7z" />
    <glyph glyph-name="uni0407" unicode="&#x407;" horiz-adv-x="291" 
d="M100 5v685c9 5 24 7 46 7s36 -2 45 -7v-685c-9 -5 -23 -7 -45 -7s-37 2 -46 7zM236 868c31 0 55 -18 55 -53c0 -37 -22 -56 -55 -56c-35 0 -56 19 -56 55c0 34 23 54 56 54zM56 868c31 0 55 -18 55 -53c0 -37 -22 -56 -55 -56c-35 0 -56 19 -56 55c0 34 23 54 56 54z" />
    <glyph glyph-name="uni0408" unicode="&#x408;" horiz-adv-x="324" 
d="M228 690v-540c0 -181 -67 -286 -201 -351c-21 14 -37 44 -41 74c109 58 151 134 151 264v553c9 5 24 7 46 7s36 -2 45 -7z" />
    <glyph glyph-name="uni0409" unicode="&#x409;" horiz-adv-x="1056" 
d="M628 695v-293c32 11 88 17 136 17c140 0 267 -49 267 -208c0 -158 -123 -215 -279 -215c-82 0 -153 3 -215 12v605h-257v-88c0 -316 -36 -527 -251 -547c-14 16 -20 55 -15 80c163 19 182 210 182 460v177h432zM627 324v-246c34 -4 75 -5 120 -5c128 0 193 38 193 134
c0 105 -87 132 -189 132c-47 0 -95 -6 -124 -15z" />
    <glyph glyph-name="uni040A" unicode="&#x40a;" horiz-adv-x="1061" 
d="M633 690v-288c32 11 88 17 136 17c140 0 267 -49 267 -208c0 -158 -123 -215 -279 -215c-82 0 -153 3 -215 12v312h-351v-315c-9 -5 -23 -7 -45 -7s-37 2 -46 7v685c9 5 24 7 46 7s36 -2 45 -7v-290h351v290c9 5 24 7 46 7s36 -2 45 -7zM632 324v-246c34 -4 75 -5 120 -5
c128 0 193 38 193 134c0 105 -87 132 -189 132c-47 0 -95 -6 -124 -15z" />
    <glyph glyph-name="uni040B" unicode="&#x40b;" horiz-adv-x="744" 
d="M554 616h-278v-210c41 16 93 25 157 25c140 0 235 -45 235 -209v-217c-9 -5 -23 -7 -45 -7s-37 2 -46 7v204c0 115 -61 141 -163 141c-59 0 -104 -9 -138 -22v-323c-9 -5 -23 -7 -45 -7s-37 2 -46 7v611h-160c-5 10 -7 23 -7 40s2 29 7 39h529c5 -10 7 -22 7 -39
s-2 -30 -7 -40z" />
    <glyph glyph-name="uni040C" unicode="&#x40c;" horiz-adv-x="674" 
d="M100 5v685c9 5 24 7 46 7s36 -2 45 -7v-299h77c95 0 128 28 153 103l20 60c32 97 63 152 159 152h12c3 -6 6 -20 6 -37s-3 -32 -6 -38h-11c-45 0 -56 -25 -79 -97l-19 -59c-24 -75 -56 -104 -112 -121v-4c56 -21 75 -35 127 -127l124 -217c-9 -6 -26 -8 -51 -8
c-27 0 -43 2 -56 8l-104 193c-49 92 -79 113 -175 113h-65v-307c-9 -5 -23 -7 -45 -7s-37 2 -46 7zM465 908c21 -17 30 -47 32 -74l-222 -91c-13 16 -18 40 -19 65z" />
    <glyph glyph-name="uni040D" unicode="&#x40d;" horiz-adv-x="762" 
d="M577 5v620h-4c-14 -47 -43 -111 -68 -150l-296 -473c-12 -4 -25 -7 -52 -7c-25 0 -45 3 -57 7v688c9 5 22 7 43 7c20 0 33 -2 42 -7v-613h4c16 51 48 117 75 160l284 453c13 4 27 7 54 7c26 0 47 -3 60 -7v-685c-9 -5 -22 -7 -43 -7c-20 0 -33 2 -42 7zM281 907l199 -100
c-1 -23 -9 -48 -25 -63l-220 93c5 28 23 54 46 70z" />
    <glyph glyph-name="uni040E" unicode="&#x40e;" horiz-adv-x="595" 
d="M61 76c28 -14 58 -19 87 -19c57 0 87 19 115 84l19 44l-239 504c8 5 26 8 48 8c24 0 39 -3 49 -8l143 -309c18 -38 36 -87 45 -130h4c7 42 20 92 36 129l134 310c9 5 25 8 47 8c20 0 36 -3 44 -8l-238 -545c-49 -111 -93 -167 -200 -167c-29 0 -55 4 -75 12
c-16 24 -21 58 -19 87zM437 907c24 0 46 -5 63 -16c-15 -89 -77 -140 -181 -140c-98 0 -155 45 -167 134c18 14 40 23 67 24c11 -69 47 -95 106 -95c60 0 95 26 112 93z" />
    <glyph glyph-name="uni040F" unicode="&#x40f;" horiz-adv-x="740" 
d="M191 690v-608h358v608c9 5 24 7 46 7s36 -2 45 -7v-690h-227v-189c-10 -5 -22 -7 -41 -7s-31 2 -41 7v189h-231v690c9 5 24 7 46 7s36 -2 45 -7z" />
    <glyph glyph-name="uni0410" unicode="&#x410;" horiz-adv-x="656" 
d="M543 6l-70 194h-292l-69 -194c-10 -5 -25 -8 -49 -8c-22 0 -37 3 -45 8l255 691c11 4 35 6 56 6s45 -2 56 -6l253 -691c-8 -5 -24 -8 -46 -8c-24 0 -39 3 -49 8zM208 278h238l-53 150c-26 73 -48 143 -64 216h-4c-15 -70 -40 -147 -64 -215z" />
    <glyph glyph-name="uni0411" unicode="&#x411;" horiz-adv-x="659" 
d="M566 615h-375v-213c33 11 91 17 142 17c145 0 277 -49 277 -208c0 -158 -127 -215 -288 -215c-85 0 -158 3 -222 12v687h466c5 -10 7 -23 7 -40s-2 -30 -7 -40zM190 325v-247c36 -4 79 -5 126 -5c136 0 203 38 203 134c0 106 -90 133 -199 133c-49 0 -100 -6 -130 -15z
" />
    <glyph glyph-name="uni0412" unicode="&#x412;" horiz-adv-x="652" 
d="M465 369v-4c85 -21 145 -69 145 -169c0 -144 -125 -201 -286 -201c-81 0 -161 2 -224 8v684c59 11 118 17 194 17c162 0 279 -51 279 -182c0 -81 -44 -135 -108 -153zM191 321v-242c38 -3 81 -4 126 -4c126 0 200 38 200 122c0 83 -72 124 -189 124h-137zM191 618v-218
h137c93 0 153 37 153 110c0 81 -74 115 -188 115c-39 0 -71 -1 -102 -7z" />
    <glyph glyph-name="uni0413" unicode="&#x413;" horiz-adv-x="558" 
d="M191 612v-607c-9 -5 -23 -7 -45 -7s-37 2 -46 7v690h436c5 -10 7 -24 7 -41s-2 -32 -7 -42h-345z" />
    <glyph glyph-name="uni0414" unicode="&#x414;" horiz-adv-x="737" 
d="M-5 82h57c107 140 147 304 147 474v139h409v-613h89v-271c-10 -5 -22 -7 -41 -7s-31 2 -41 7v189h-538v-189c-10 -5 -22 -7 -41 -7s-31 2 -41 7v271zM520 618h-239v-57c0 -181 -38 -346 -140 -481h379v538z" />
    <glyph glyph-name="uni0415" unicode="&#x415;" horiz-adv-x="608" 
d="M100 695h441c5 -10 7 -23 7 -40s-2 -30 -7 -40h-350v-222h325c5 -10 7 -22 7 -39s-2 -30 -7 -40h-325v-233h359c5 -10 7 -23 7 -40s-2 -31 -7 -41h-450v695z" />
    <glyph glyph-name="uni0416" unicode="&#x416;" horiz-adv-x="994" 
d="M541 690v-301h54c93 0 128 33 150 108l17 56c30 99 64 153 158 153h11c3 -6 6 -20 6 -37s-3 -32 -6 -38h-9c-42 0 -56 -23 -79 -99l-17 -56c-22 -74 -60 -108 -115 -122v-4c57 -21 81 -39 130 -127l121 -217c-9 -6 -26 -8 -51 -8c-27 0 -42 2 -55 8l-102 194
c-48 91 -77 112 -168 112h-45v-307c-9 -5 -22 -7 -44 -7s-36 2 -45 7v307h-43c-92 0 -122 -20 -169 -109l-103 -197c-13 -6 -28 -8 -54 -8c-25 0 -42 2 -51 8l121 216c48 85 76 107 132 126v4c-55 14 -91 41 -117 124l-18 58c-23 75 -36 97 -81 97h-6c-3 6 -6 21 -6 38
s3 31 6 37h14c91 0 123 -44 155 -148l19 -62c23 -75 57 -107 150 -107h51v301c9 5 22 7 44 7s36 -2 45 -7z" />
    <glyph glyph-name="uni0417" unicode="&#x417;" horiz-adv-x="611" 
d="M402 368v-4c90 -20 146 -81 146 -179c0 -150 -130 -208 -289 -208c-69 0 -137 11 -183 31c-14 25 -20 58 -18 87c50 -23 124 -37 198 -37c111 0 198 29 198 131c0 93 -74 133 -202 133h-89c-5 10 -7 22 -7 39s2 29 7 39h87c109 0 180 34 180 126c0 91 -70 113 -154 113
c-76 0 -142 -20 -194 -53c-3 23 6 65 23 86c45 29 117 46 192 46c132 0 227 -51 227 -180c0 -83 -39 -150 -122 -170z" />
    <glyph glyph-name="uni0418" unicode="&#x418;" horiz-adv-x="762" 
d="M577 5v620h-4c-14 -47 -43 -111 -68 -150l-296 -473c-12 -4 -25 -7 -52 -7c-25 0 -45 3 -57 7v688c9 5 22 7 43 7c20 0 33 -2 42 -7v-613h4c16 51 48 117 75 160l284 453c13 4 27 7 54 7c26 0 47 -3 60 -7v-685c-9 -5 -22 -7 -43 -7c-20 0 -33 2 -42 7z" />
    <glyph glyph-name="uni0419" unicode="&#x419;" horiz-adv-x="762" 
d="M577 5v620h-4c-14 -47 -43 -111 -68 -150l-296 -473c-12 -4 -25 -7 -52 -7c-25 0 -45 3 -57 7v688c9 5 22 7 43 7c20 0 33 -2 42 -7v-613h4c16 51 48 117 75 160l284 453c13 4 27 7 54 7c26 0 47 -3 60 -7v-685c-9 -5 -22 -7 -43 -7c-20 0 -33 2 -42 7zM496 907
c24 0 46 -5 63 -16c-15 -89 -77 -140 -181 -140c-98 0 -155 45 -167 134c18 14 40 23 67 24c11 -69 47 -95 106 -95c60 0 95 26 112 93z" />
    <glyph glyph-name="uni041A" unicode="&#x41a;" horiz-adv-x="674" 
d="M100 5v685c9 5 24 7 46 7s36 -2 45 -7v-299h77c95 0 128 28 153 103l20 60c32 97 63 152 159 152h12c3 -6 6 -20 6 -37s-3 -32 -6 -38h-11c-45 0 -56 -25 -79 -97l-19 -59c-24 -75 -56 -104 -112 -121v-4c56 -21 75 -35 127 -127l124 -217c-9 -6 -26 -8 -51 -8
c-27 0 -43 2 -56 8l-104 193c-49 92 -79 113 -175 113h-65v-307c-9 -5 -23 -7 -45 -7s-37 2 -46 7z" />
    <glyph glyph-name="uni041B" unicode="&#x41b;" horiz-adv-x="746" 
d="M196 695h450v-690c-9 -5 -23 -7 -45 -7s-37 2 -46 7v608h-275v-88c0 -316 -36 -527 -251 -547c-14 16 -20 55 -15 80c163 19 182 210 182 460v177z" />
    <glyph glyph-name="uni041C" unicode="&#x41c;" horiz-adv-x="881" 
d="M699 5v627h-4c-12 -58 -31 -120 -50 -175l-158 -458c-8 -4 -26 -7 -47 -7s-39 3 -47 7l-160 459c-15 42 -35 116 -47 174h-4v-627c-9 -5 -20 -7 -41 -7c-20 0 -32 2 -41 7v684c15 5 34 8 65 8c33 0 52 -3 67 -8l153 -428c21 -59 42 -129 54 -195h4c12 67 35 138 55 195
l149 428c15 5 34 8 66 8s53 -3 68 -8v-684c-9 -5 -20 -7 -41 -7c-20 0 -32 2 -41 7z" />
    <glyph glyph-name="uni041D" unicode="&#x41d;" horiz-adv-x="750" 
d="M559 5v315h-368v-315c-9 -5 -23 -7 -45 -7s-37 2 -46 7v685c9 5 24 7 46 7s36 -2 45 -7v-290h368v290c9 5 24 7 46 7s36 -2 45 -7v-685c-9 -5 -23 -7 -45 -7s-37 2 -46 7z" />
    <glyph glyph-name="uni041E" unicode="&#x41e;" horiz-adv-x="744" 
d="M372 718c187 0 314 -127 314 -363c0 -244 -123 -378 -314 -378c-200 0 -314 127 -314 378c0 227 129 363 314 363zM152 355c0 -187 79 -295 220 -295c143 0 220 110 220 295c0 174 -86 281 -220 281c-144 0 -220 -107 -220 -281z" />
    <glyph glyph-name="uni041F" unicode="&#x41f;" horiz-adv-x="742" 
d="M551 5v607h-360v-607c-9 -5 -23 -7 -45 -7s-37 2 -46 7v690h542v-690c-9 -5 -23 -7 -45 -7s-37 2 -46 7z" />
    <glyph glyph-name="uni0420" unicode="&#x420;" horiz-adv-x="606" 
d="M100 5v684c56 11 120 16 186 16c187 0 299 -71 299 -232c0 -163 -114 -234 -270 -234c-37 0 -97 4 -124 8v-242c-9 -5 -23 -7 -45 -7s-37 2 -46 7zM287 625c-33 0 -66 -2 -96 -8v-289c27 -5 74 -9 111 -9c121 0 190 41 190 147c0 114 -79 159 -205 159z" />
    <glyph glyph-name="uni0421" unicode="&#x421;" horiz-adv-x="624" 
d="M571 595c-50 26 -102 39 -158 39c-152 0 -263 -86 -263 -288c0 -196 104 -284 253 -284c67 0 130 18 176 41c1 -25 -10 -66 -25 -86c-43 -22 -106 -40 -178 -40c-200 0 -320 136 -320 362c0 249 144 379 340 379c57 0 114 -11 154 -34c15 -21 24 -61 21 -89z" />
    <glyph glyph-name="uni0422" unicode="&#x422;" horiz-adv-x="578" 
d="M551 614h-216v-609c-9 -5 -23 -7 -45 -7s-37 2 -46 7v609h-217c-5 10 -7 24 -7 41s2 30 7 40h524c5 -10 7 -23 7 -40s-2 -31 -7 -41z" />
    <glyph glyph-name="uni0423" unicode="&#x423;" horiz-adv-x="595" 
d="M61 76c28 -14 58 -19 87 -19c57 0 87 19 115 84l19 44l-239 504c8 5 26 8 48 8c24 0 39 -3 49 -8l143 -309c18 -38 36 -87 45 -130h4c7 42 20 92 36 129l134 310c9 5 25 8 47 8c20 0 36 -3 44 -8l-238 -545c-49 -111 -93 -167 -200 -167c-29 0 -55 4 -75 12
c-16 24 -21 58 -19 87z" />
    <glyph glyph-name="uni0424" unicode="&#x424;" horiz-adv-x="792" 
d="M440 56v-91c-9 -5 -23 -7 -44 -7c-22 0 -35 2 -44 7v91c-196 11 -306 107 -306 298c0 172 122 271 306 284v93c9 5 23 7 44 7c22 0 35 -2 44 -7v-92c184 -11 306 -106 306 -285c0 -185 -119 -287 -306 -298zM657 354c0 130 -82 202 -217 212v-437c143 10 217 86 217 225z
M135 354c0 -139 74 -214 217 -224v436c-144 -9 -217 -82 -217 -212z" />
    <glyph glyph-name="uni0425" unicode="&#x425;" horiz-adv-x="617" 
d="M159 689l124 -194c15 -23 27 -43 35 -65h4c9 22 22 44 37 66l127 193c12 5 31 8 54 8c25 0 39 -3 48 -8l-217 -325l230 -358c-9 -6 -25 -8 -51 -8c-25 0 -43 2 -55 8l-145 229c-15 23 -27 43 -35 65h-4c-9 -22 -22 -44 -37 -66l-150 -228c-12 -6 -31 -8 -54 -8
s-42 2 -50 8l241 361l-205 322c7 6 23 8 46 8c25 0 45 -3 57 -8z" />
    <glyph glyph-name="uni0426" unicode="&#x426;" horiz-adv-x="760" 
d="M191 690v-608h349v608c9 5 24 7 46 7s36 -2 45 -7v-608h89v-271c-10 -5 -22 -7 -41 -7s-31 2 -41 7v189h-538v690c9 5 24 7 46 7s36 -2 45 -7z" />
    <glyph glyph-name="uni0427" unicode="&#x427;" horiz-adv-x="674" 
d="M483 5v269c-55 -18 -111 -30 -175 -30c-141 0 -241 56 -241 225v221c9 5 24 7 46 7s36 -2 45 -7v-213c0 -123 67 -148 176 -148c59 0 105 8 149 24v337c9 5 24 7 46 7s36 -2 45 -7v-685c-9 -5 -23 -7 -45 -7s-37 2 -46 7z" />
    <glyph glyph-name="uni0428" unicode="&#x428;" horiz-adv-x="1041" 
d="M191 690v-608h285v608c9 5 23 7 45 7s35 -2 44 -7v-608h285v608c9 5 24 7 46 7s36 -2 45 -7v-690h-841v690c9 5 24 7 46 7s36 -2 45 -7z" />
    <glyph glyph-name="uni0429" unicode="&#x429;" horiz-adv-x="1058" 
d="M191 690v-608h279v608c9 5 23 7 45 7s35 -2 44 -7v-608h279v608c9 5 24 7 46 7s36 -2 45 -7v-608h89v-271c-10 -5 -22 -7 -41 -7s-31 2 -41 7v189h-836v690c9 5 24 7 46 7s36 -2 45 -7z" />
    <glyph glyph-name="uni042A" unicode="&#x42a;" horiz-adv-x="733" 
d="M302 695v-284c32 11 88 17 137 17c140 0 267 -50 267 -213c0 -160 -124 -219 -279 -219c-83 0 -154 3 -216 12v605h-189c-5 10 -7 24 -7 41s2 31 7 41h280zM301 332v-253c34 -4 76 -5 120 -5c129 0 193 40 193 137c0 108 -86 136 -189 136c-46 0 -95 -6 -124 -15z" />
    <glyph glyph-name="uni042B" unicode="&#x42b;" horiz-adv-x="890" 
d="M191 690v-276c33 11 90 17 140 17c144 0 274 -50 274 -214c0 -162 -126 -221 -285 -221c-84 0 -157 3 -220 12v682c9 5 24 7 46 7s36 -2 45 -7zM190 335v-256c35 -4 78 -5 124 -5c133 0 199 40 199 139c0 109 -89 137 -195 137c-48 0 -98 -6 -128 -15zM699 5v685
c9 5 24 7 46 7s36 -2 45 -7v-685c-9 -5 -23 -7 -45 -7s-37 2 -46 7z" />
    <glyph glyph-name="uni042C" unicode="&#x42c;" horiz-adv-x="640" 
d="M191 690v-276c34 11 92 17 143 17c146 0 279 -50 279 -214c0 -162 -128 -221 -290 -221c-85 0 -159 3 -223 12v682c9 5 24 7 46 7s36 -2 45 -7zM190 335v-256c36 -4 80 -5 127 -5c136 0 204 40 204 139c0 109 -91 137 -200 137c-49 0 -100 -6 -131 -15z" />
    <glyph glyph-name="uni042D" unicode="&#x42d;" horiz-adv-x="637" 
d="M75 595c-2 29 6 64 21 84c41 22 99 39 168 39c197 0 316 -132 316 -369c0 -250 -140 -372 -332 -372c-61 0 -119 10 -163 32c-16 21 -24 57 -22 85c54 -23 103 -34 164 -34c133 0 251 60 260 256h-377c-5 10 -7 22 -7 39s2 29 7 39h376c-13 178 -118 242 -246 242
c-64 0 -118 -16 -165 -41z" />
    <glyph glyph-name="uni042E" unicode="&#x42e;" horiz-adv-x="973" 
d="M614 718c178 0 299 -127 299 -363c0 -244 -117 -378 -299 -378c-181 0 -289 114 -298 341h-125v-313c-9 -5 -23 -7 -45 -7s-37 2 -46 7v685c9 5 24 7 46 7s36 -2 45 -7v-294h126c12 202 132 322 297 322zM408 355c0 -190 74 -296 206 -296c134 0 206 110 206 296
c0 175 -80 282 -206 282c-135 0 -206 -105 -206 -282z" />
    <glyph glyph-name="uni042F" unicode="&#x42f;" horiz-adv-x="686" 
d="M586 684v-679c-9 -5 -23 -7 -45 -7s-37 2 -46 7v269h-100c-92 0 -129 -31 -172 -115l-79 -153c-13 -6 -28 -8 -55 -8c-25 0 -42 2 -51 8l93 164c47 82 70 102 120 122v4c-93 21 -157 71 -157 188c0 158 116 222 308 222c62 0 126 -7 184 -22zM496 350v271
c-34 7 -69 9 -105 9c-129 0 -206 -40 -206 -144c0 -100 75 -136 180 -136h131z" />
    <glyph glyph-name="uni0430" unicode="&#x430;" horiz-adv-x="521" 
d="M349 39h-4c-29 -38 -75 -59 -141 -59c-86 0 -161 41 -161 150c0 117 87 165 200 165c33 0 71 -4 100 -16v26c0 83 -32 118 -110 118c-57 0 -111 -18 -153 -44c-7 25 -4 64 10 87c34 20 93 36 159 36c119 0 180 -51 180 -188v-218c0 -29 15 -37 35 -37c19 0 37 7 47 14
c2 -26 -4 -57 -17 -75c-17 -10 -39 -18 -66 -18c-45 0 -71 22 -79 59zM343 111v98c-25 9 -53 15 -87 15c-83 0 -126 -37 -126 -90c0 -52 42 -75 96 -75c43 0 91 14 117 52z" />
    <glyph glyph-name="uni0431" unicode="&#x431;" horiz-adv-x="581" 
d="M164 389c30 52 87 83 165 83c120 0 202 -73 202 -232c0 -162 -88 -260 -236 -260c-194 0 -227 168 -227 347c0 120 15 215 69 284c49 63 129 99 244 112l99 11c11 -19 18 -49 18 -76l-100 -12c-99 -12 -156 -34 -193 -84c-27 -37 -40 -85 -45 -173h4zM305 393
c-72 0 -119 -36 -148 -77c1 -189 42 -260 140 -260c102 0 145 81 145 177c0 75 -27 160 -137 160z" />
    <glyph glyph-name="uni0432" unicode="&#x432;" horiz-adv-x="533" 
d="M379 255v-4c62 -14 107 -51 107 -118c0 -102 -97 -141 -223 -141c-73 0 -132 4 -178 9v470c48 13 96 19 159 19c122 0 214 -37 214 -131c0 -54 -31 -92 -79 -104zM170 213v-148c22 -2 50 -3 88 -3c87 0 140 22 140 76c0 52 -48 75 -131 75h-97zM170 416v-134h92
c68 0 111 21 111 68c0 51 -52 72 -135 72c-25 0 -47 -2 -68 -6z" />
    <glyph glyph-name="uni0433" unicode="&#x433;" horiz-adv-x="434" 
d="M172 404v-399c-9 -5 -22 -7 -43 -7s-35 2 -44 7v477h327c4 -8 6 -20 6 -38s-2 -32 -6 -40h-240z" />
    <glyph glyph-name="uni0434" unicode="&#x434;" 
d="M11 -141v220h46c64 85 94 187 94 308v95h314v-403h68v-220c-8 -4 -19 -6 -38 -6c-18 0 -30 2 -38 6v141h-370v-141c-8 -4 -19 -6 -38 -6c-18 0 -30 2 -38 6zM382 409h-154v-11c0 -120 -22 -235 -91 -322h245v333z" />
    <glyph glyph-name="uni0435" unicode="&#x435;" horiz-adv-x="526" 
d="M466 214h-329c4 -109 72 -155 180 -155c61 0 112 15 151 38c3 -28 -8 -65 -22 -81c-31 -19 -83 -36 -149 -36c-161 0 -250 100 -250 256c0 155 90 266 238 266c132 0 193 -86 193 -207c0 -30 -4 -57 -12 -81zM138 287h254c7 66 -14 140 -111 140
c-85 0 -136 -56 -143 -140z" />
    <glyph glyph-name="uni0436" unicode="&#x436;" horiz-adv-x="769" 
d="M427 477v-193h35c66 0 98 24 112 80l8 31c16 62 45 98 113 98h7c9 -17 15 -42 15 -72h-13c-27 0 -39 -12 -49 -52l-7 -28c-14 -51 -38 -78 -85 -91v-4c35 -12 54 -30 73 -67c36 -72 64 -113 107 -174c-7 -5 -25 -8 -44 -8c-24 0 -46 3 -56 8c-33 44 -65 103 -89 156
c-18 40 -45 54 -95 54h-32v-210c-9 -5 -21 -7 -42 -7s-34 2 -43 7v210h-32c-52 0 -75 -12 -97 -60c-23 -51 -56 -105 -89 -150c-10 -5 -31 -8 -55 -8c-19 0 -36 3 -43 8c44 60 72 100 109 175c17 35 38 54 71 65v4c-47 12 -73 37 -85 90l-6 27c-9 42 -21 55 -51 55h-11
c0 29 6 55 15 72h10c66 0 96 -32 110 -94l7 -31c15 -59 47 -84 115 -84h32v193c9 5 22 7 43 7s33 -2 42 -7z" />
    <glyph glyph-name="uni0437" unicode="&#x437;" horiz-adv-x="488" 
d="M335 258v-4c63 -16 100 -58 100 -124c0 -103 -90 -150 -215 -150c-52 0 -109 9 -148 28c-12 21 -19 55 -17 81c46 -21 107 -35 164 -35c82 0 127 29 127 82c0 57 -53 80 -151 80h-64c-2 21 1 52 11 70h60c78 0 125 18 125 72c0 51 -41 70 -106 70c-45 0 -91 -9 -145 -38
c-2 22 4 58 19 79c40 23 89 33 144 33c104 0 177 -38 177 -132c0 -52 -22 -97 -81 -112z" />
    <glyph glyph-name="uni0438" unicode="&#x438;" horiz-adv-x="600" 
d="M436 5v407h-4c-19 -49 -40 -90 -64 -129l-180 -288c-39 0 -74 3 -103 15v467c7 4 20 7 40 7c19 0 32 -3 39 -7v-396h4c20 51 41 92 65 130l174 277c41 0 78 -4 108 -17v-466c-7 -4 -20 -7 -40 -7c-19 0 -32 3 -39 7z" />
    <glyph glyph-name="uni0439" unicode="&#x439;" horiz-adv-x="600" 
d="M436 5v407h-4c-19 -49 -40 -90 -64 -129l-180 -288c-39 0 -74 3 -103 15v467c7 4 20 7 40 7c19 0 32 -3 39 -7v-396h4c20 51 41 92 65 130l174 277c41 0 78 -4 108 -17v-466c-7 -4 -20 -7 -40 -7c-19 0 -32 3 -39 7zM213 733c6 -82 41 -108 90 -108c48 0 80 31 91 104
c24 0 48 -6 62 -17c-13 -98 -69 -151 -159 -151c-87 0 -138 47 -149 144c13 15 39 26 65 28z" />
    <glyph glyph-name="uni043A" unicode="&#x43a;" horiz-adv-x="537" 
d="M172 477v-192h54c69 0 97 22 114 82l8 28c17 61 46 98 116 98h7c9 -17 15 -42 15 -72h-13c-29 0 -40 -15 -51 -52l-8 -28c-15 -51 -37 -78 -84 -91v-4c34 -13 51 -29 71 -67c37 -72 66 -113 111 -174c-7 -5 -26 -8 -45 -8c-24 0 -46 3 -56 8c-34 44 -69 103 -94 155
c-20 42 -42 53 -96 53h-49v-208c-9 -5 -22 -7 -43 -7s-35 2 -44 7v472c9 5 23 7 44 7s34 -2 43 -7z" />
    <glyph glyph-name="uni043B" unicode="&#x43b;" horiz-adv-x="564" 
d="M142 482h337v-477c-9 -5 -22 -7 -43 -7s-35 2 -44 7v400h-169v-45c0 -228 -36 -363 -195 -381c-13 15 -19 52 -13 76c110 17 127 139 127 295v132z" />
    <glyph glyph-name="uni043C" unicode="&#x43c;" horiz-adv-x="720" 
d="M557 4v425h-4c-10 -38 -27 -91 -39 -124l-110 -303c-23 -7 -56 -9 -88 -9l-112 313c-12 34 -27 81 -37 123h-4v-425c-7 -4 -20 -6 -39 -6s-32 2 -39 6v469c34 9 77 15 133 15l106 -298c13 -37 28 -85 36 -127h4c7 42 19 87 33 127l108 298c55 0 96 -6 130 -15v-469
c-7 -4 -20 -6 -39 -6s-32 2 -39 6z" />
    <glyph glyph-name="uni043D" unicode="&#x43d;" horiz-adv-x="589" 
d="M417 5v209h-245v-209c-9 -5 -22 -7 -43 -7s-35 2 -44 7v472c9 5 23 7 44 7s34 -2 43 -7v-187h245v187c9 5 23 7 44 7s34 -2 43 -7v-472c-9 -5 -22 -7 -43 -7s-35 2 -44 7z" />
    <glyph glyph-name="uni043E" unicode="&#x43e;" horiz-adv-x="555" 
d="M278 502c139 0 228 -89 228 -254c0 -174 -87 -268 -228 -268c-148 0 -229 90 -229 268c0 160 90 254 229 254zM138 248c0 -121 47 -192 140 -192s139 72 139 192c0 110 -51 178 -139 178c-94 0 -140 -69 -140 -178z" />
    <glyph glyph-name="uni043F" unicode="&#x43f;" horiz-adv-x="582" 
d="M85 482h412v-477c-9 -5 -22 -7 -43 -7s-35 2 -44 7v399h-238v-399c-9 -5 -22 -7 -43 -7s-35 2 -44 7v477z" />
    <glyph glyph-name="uni0440" unicode="&#x440;" horiz-adv-x="567" 
d="M162 417h4c20 44 65 85 152 85c102 0 201 -61 201 -243c0 -158 -73 -279 -245 -279c-35 0 -77 5 -102 18v-226c-9 -5 -22 -7 -43 -7s-35 2 -44 7v704c18 9 45 14 71 14zM172 353v-279c24 -10 53 -16 86 -16c124 0 172 82 172 193c0 113 -49 170 -136 170
c-66 0 -99 -35 -122 -68z" />
    <glyph glyph-name="uni0441" unicode="&#x441;" horiz-adv-x="481" 
d="M136 244c0 -124 65 -182 171 -182c51 0 94 15 131 37c3 -27 -8 -69 -24 -87c-32 -18 -77 -32 -136 -32c-148 0 -231 98 -231 257c0 182 107 265 241 265c54 0 96 -12 124 -30c14 -19 21 -57 16 -86c-39 24 -76 35 -123 35c-102 0 -169 -56 -169 -177z" />
    <glyph glyph-name="uni0442" unicode="&#x442;" horiz-adv-x="468" 
d="M190 403h-171c0 30 4 58 12 79h412c4 -8 6 -21 6 -39s-2 -32 -6 -40h-166v-398c-9 -5 -22 -7 -43 -7s-35 2 -44 7v398z" />
    <glyph glyph-name="uni0443" unicode="&#x443;" horiz-adv-x="490" 
d="M254 42h4c6 41 15 82 26 113l111 325c7 3 17 6 35 6c24 0 39 -5 50 -12l-76 -214c-36 -102 -79 -221 -121 -300c-54 -102 -120 -165 -231 -201c-22 17 -35 41 -38 71c96 27 155 86 191 154l-192 490c11 7 30 12 53 12c18 0 29 -3 35 -6l124 -325c11 -29 22 -73 29 -113z
" />
    <glyph glyph-name="uni0444" unicode="&#x444;" horiz-adv-x="676" 
d="M294 -20c-158 12 -251 100 -251 260s92 248 251 262v214c21 12 48 19 85 19v-233c156 -10 254 -96 254 -256c0 -163 -98 -254 -254 -266v-208c-9 -5 -21 -7 -42 -7s-34 2 -43 7v208zM549 243c0 120 -57 180 -171 191v-387c114 10 171 77 171 196zM127 244
c0 -120 56 -184 168 -196v386c-116 -10 -168 -75 -168 -190z" />
    <glyph glyph-name="uni0445" unicode="&#x445;" horiz-adv-x="502" 
d="M145 481l81 -117c12 -17 25 -40 31 -55h4c4 14 19 39 30 55l78 117c6 2 19 5 38 5c25 0 42 -5 53 -12l-152 -221l174 -248c-9 -5 -24 -8 -47 -8c-21 0 -45 3 -52 7l-96 138c-13 19 -26 40 -32 56h-4c-4 -15 -19 -38 -31 -55l-96 -139c-11 -5 -32 -7 -53 -7
c-22 0 -37 2 -45 8l177 250l-152 219c11 7 30 12 55 12c20 0 33 -3 39 -5z" />
    <glyph glyph-name="uni0446" unicode="&#x446;" horiz-adv-x="591" 
d="M478 0h-393v477c9 5 23 7 44 7s34 -2 43 -7v-398h227v398c9 5 23 7 44 7s34 -2 43 -7v-398h68v-220c-8 -4 -19 -6 -38 -6c-18 0 -30 2 -38 6v141z" />
    <glyph glyph-name="uni0447" unicode="&#x447;" horiz-adv-x="526" 
d="M354 5v176c-38 -15 -85 -24 -136 -24c-133 0 -169 67 -169 175v138c20 11 51 18 87 18v-146c0 -70 7 -107 108 -107c41 0 76 7 110 22v220c9 5 23 7 44 7s34 -2 43 -7v-472c-9 -5 -22 -7 -43 -7s-35 2 -44 7z" />
    <glyph glyph-name="uni0448" unicode="&#x448;" horiz-adv-x="823" 
d="M738 0h-653v477c9 5 23 7 44 7s34 -2 43 -7v-399h197v399c9 5 22 7 43 7s33 -2 42 -7v-399h197v399c9 5 23 7 44 7s34 -2 43 -7v-477z" />
    <glyph glyph-name="uni0449" unicode="&#x449;" horiz-adv-x="823" 
d="M718 477v-398h68v-220c-8 -4 -19 -6 -38 -6c-18 0 -30 2 -38 6v141h-625v477c9 5 23 7 44 7s34 -2 43 -7v-399h187v399c9 5 22 7 43 7s33 -2 42 -7v-399h187v399c9 5 23 7 44 7s34 -2 43 -7z" />
    <glyph glyph-name="uni044A" unicode="&#x44a;" horiz-adv-x="600" 
d="M263 227v-158c19 -3 52 -4 85 -4c84 0 135 25 135 87c0 70 -63 89 -129 89c-36 0 -71 -6 -91 -14zM263 482v-186c29 10 65 16 107 16c101 0 200 -34 200 -157c0 -119 -95 -162 -219 -162c-73 0 -130 4 -175 12v398h-165c0 30 4 58 12 79h240z" />
    <glyph glyph-name="uni044B" unicode="&#x44b;" horiz-adv-x="732" 
d="M172 477v-181c29 10 66 16 108 16c101 0 201 -34 201 -157c0 -119 -96 -162 -220 -162c-74 0 -131 4 -176 12v472c9 5 23 7 44 7s34 -2 43 -7zM172 227v-158c19 -3 53 -4 86 -4c84 0 136 25 136 87c0 70 -63 89 -130 89c-37 0 -72 -6 -92 -14zM560 5v472c9 5 23 7 44 7
s34 -2 43 -7v-472c-9 -5 -22 -7 -43 -7s-35 2 -44 7z" />
    <glyph glyph-name="uni044C" unicode="&#x44c;" horiz-adv-x="517" 
d="M172 477v-181c30 10 67 16 110 16c103 0 205 -34 205 -157c0 -119 -97 -162 -223 -162c-75 0 -133 4 -179 12v472c9 5 23 7 44 7s34 -2 43 -7zM172 227v-158c20 -3 54 -4 88 -4c87 0 140 25 140 87c0 70 -65 89 -134 89c-37 0 -73 -6 -94 -14z" />
    <glyph glyph-name="uni044D" unicode="&#x44d;" horiz-adv-x="500" 
d="M55 87c43 -22 84 -31 135 -31c91 0 166 30 175 157h-271c0 27 5 51 12 70h257c-12 116 -85 144 -161 144c-56 0 -95 -15 -131 -36c-3 28 5 58 20 77c32 20 77 34 138 34c133 0 222 -91 222 -259c0 -183 -99 -263 -241 -263c-56 0 -100 10 -135 27c-14 19 -23 51 -20 80z
" />
    <glyph glyph-name="uni044E" unicode="&#x44e;" horiz-adv-x="767" 
d="M497 502c134 0 219 -89 219 -254c0 -174 -84 -268 -219 -268c-133 0 -210 79 -219 236h-106v-211c-9 -5 -22 -7 -43 -7s-35 2 -44 7v472c9 5 23 7 44 7s34 -2 43 -7v-189h107c13 135 95 214 218 214zM364 248c0 -122 45 -194 133 -194s132 73 132 194
c0 111 -49 180 -132 180c-89 0 -133 -70 -133 -180z" />
    <glyph glyph-name="uni044F" unicode="&#x44f;" horiz-adv-x="554" 
d="M382 5v183h-67c-58 0 -86 -13 -109 -66c-18 -41 -44 -82 -70 -117c-10 -5 -32 -8 -56 -8c-19 0 -36 3 -43 8c35 45 59 81 85 135c17 35 31 52 65 68v4c-56 14 -97 51 -97 125c0 119 93 158 222 158c57 0 107 -8 157 -26v-464c-9 -5 -22 -7 -43 -7s-35 2 -44 7zM383 258
v157c-19 7 -45 10 -73 10c-74 0 -134 -17 -134 -87c0 -68 53 -80 122 -80h85z" />
    <glyph glyph-name="uni0450" unicode="&#x450;" horiz-adv-x="526" 
d="M466 214h-329c4 -109 72 -155 180 -155c61 0 112 15 151 38c3 -28 -8 -65 -22 -81c-31 -19 -83 -36 -149 -36c-161 0 -250 100 -250 256c0 155 90 266 238 266c132 0 193 -86 193 -207c0 -30 -4 -57 -12 -81zM138 287h254c7 66 -14 140 -111 140
c-85 0 -136 -56 -143 -140zM337 591c-11 -20 -31 -32 -56 -36l-140 158c19 19 53 28 84 28z" />
    <glyph glyph-name="uni0451" unicode="&#x451;" horiz-adv-x="526" 
d="M466 214h-329c4 -109 72 -155 180 -155c61 0 112 15 151 38c3 -28 -8 -65 -22 -81c-31 -19 -83 -36 -149 -36c-161 0 -250 100 -250 256c0 155 90 266 238 266c132 0 193 -86 193 -207c0 -30 -4 -57 -12 -81zM138 287h254c7 66 -14 140 -111 140
c-85 0 -136 -56 -143 -140zM377 676c31 0 52 -18 52 -51s-21 -52 -52 -52c-34 0 -52 18 -52 51c0 32 22 52 52 52zM171 676c31 0 52 -18 52 -51s-21 -52 -52 -52c-34 0 -52 18 -52 51c0 32 22 52 52 52z" />
    <glyph glyph-name="uni0452" unicode="&#x452;" horiz-adv-x="574" 
d="M368 552h-189v-43c0 -39 -3 -70 -7 -98h4c31 32 75 50 138 50c160 0 208 -141 208 -292c0 -171 -63 -320 -248 -320h-8c-11 21 -16 46 -16 75h10c121 0 174 92 174 240c0 131 -41 219 -141 219c-45 0 -88 -17 -114 -41v-337c-9 -5 -22 -7 -43 -7s-35 2 -44 7v547h-74
c0 23 4 48 12 65h62v99c20 12 50 19 87 19v-118h189c4 -5 7 -17 7 -32s-3 -28 -7 -33z" />
    <glyph glyph-name="uni0453" unicode="&#x453;" horiz-adv-x="434" 
d="M172 404v-399c-9 -5 -22 -7 -43 -7s-35 2 -44 7v477h327c4 -8 6 -20 6 -38s-2 -32 -6 -40h-240zM379 712l-148 -158c-24 6 -40 19 -50 37l117 149c26 0 62 -10 81 -28z" />
    </font>
</defs>
</svg>
