<?xml version="1.0" standalone="no"?>
<!DOCTYPE svg PUBLIC "-//W3C//DTD SVG 1.1//EN" "http://www.w3.org/Graphics/SVG/1.1/DTD/svg11.dtd" >
<svg xmlns="http://www.w3.org/2000/svg" width="100%" height="100%">
<metadata>
Created by FontXChange 20110222 at Mon Jun  4 14:23:34 2018
 By Suzi Rubino
2011 published by Monotype GmbH
</metadata>
<defs>
<font id="TisaSansPro-Italic" horiz-adv-x="570" >
  <font-face 
    font-family="TisaSansPro"
    font-weight="400"
    font-style="italic"
    font-stretch="normal"
    units-per-em="1000"
    panose-1="2 11 5 4 2 2 1 2 1 4"
    ascent="729"
    descent="-271"
    x-height="482"
    cap-height="695"
    bbox="-435 -375 1426 1020"
    underline-thickness="74"
    underline-position="-128"
    slope="-6.79999"
    stemh="75"
    stemv="87"
    unicode-range="U+000D-FEFF"
  />
<missing-glyph horiz-adv-x="687" 
d="M90 0l90 723h494l-78 -723h-506zM351 238c20 3 37 13 49 29c-10 11 -16 21 -16 38c0 74 157 96 157 218c0 69 -41 104 -123 104c-58 0 -98 -19 -123 -42c-13 -17 -19 -48 -16 -68c37 32 78 49 119 49c51 0 69 -23 69 -52c0 -81 -148 -96 -148 -206c0 -30 11 -54 32 -70z
M362 184c-28 0 -46 -18 -46 -47c0 -28 17 -43 41 -43c27 0 47 19 47 47c0 29 -18 43 -42 43z" />
    <glyph glyph-name="I_J" unicode="IJ" horiz-adv-x="564" 
d="M90 4l79 687c8 5 22 7 42 7c19 0 32 -2 40 -7l-71 -687c-9 -5 -23 -7 -45 -7c-24 0 -37 2 -45 7zM551 691l-58 -562c-18 -174 -87 -271 -219 -332c-22 16 -33 40 -35 73c107 52 151 125 166 257l64 564c8 5 22 7 42 7c19 0 32 -2 40 -7z" />
    <glyph glyph-name="f_b" unicode="fb" horiz-adv-x="807" 
d="M481 329l-30 -262c17 -7 48 -13 79 -13c54 0 92 17 120 45c46 46 63 120 63 190c0 94 -29 137 -96 137c-65 0 -104 -42 -136 -97zM362 12l82 652c-20 13 -45 18 -72 18c-61 0 -123 -24 -136 -143l-6 -57h110c3 -5 6 -14 6 -31c0 -20 -4 -35 -9 -44h-115l-62 -558
c-8 -5 -21 -7 -43 -7s-35 2 -43 7l67 558h-69c0 25 7 58 16 75h62l6 54c19 173 111 220 217 220c64 0 111 -17 153 -51l-16 -141c-7 -60 -16 -106 -27 -156h4c30 58 87 94 161 94c99 0 150 -68 150 -195c0 -89 -25 -187 -72 -245c-45 -55 -120 -82 -208 -82
c-69 0 -127 17 -156 32z" />
    <glyph glyph-name="f_f" unicode="ff" horiz-adv-x="575" 
d="M231 482h199l12 99c17 138 85 175 165 175c31 0 64 -6 89 -24c13 -19 17 -55 10 -82c-30 23 -54 31 -88 31c-65 0 -89 -31 -97 -100l-11 -99h122c3 -5 6 -14 6 -31c0 -20 -4 -35 -9 -44h-127l-62 -558c-8 -5 -21 -7 -43 -7s-35 2 -43 7l67 558h-198l-45 -403
c-8 -5 -21 -7 -43 -7s-34 2 -42 7l49 403h-69c0 25 7 58 16 75h62l10 82c17 139 79 174 158 174c27 0 57 -4 80 -21c13 -20 17 -55 10 -82c-25 21 -49 28 -77 28c-62 0 -84 -35 -91 -96z" />
    <glyph glyph-name="f_f_b" unicode="ffb" horiz-adv-x="1087" 
d="M642 12l82 652c-20 13 -45 18 -72 18c-61 0 -123 -24 -136 -143l-6 -57h110c3 -5 6 -14 6 -31c0 -20 -4 -35 -9 -44h-115l-62 -558c-8 -5 -21 -7 -43 -7s-35 2 -43 7l67 558h-198l-45 -403c-8 -5 -21 -7 -43 -7s-34 2 -42 7l49 403h-69c0 25 7 58 16 75h62l10 82
c17 139 79 174 158 174c27 0 57 -4 80 -21c13 -20 17 -55 10 -82c-25 21 -49 28 -77 28c-62 0 -84 -35 -91 -96l-10 -85h199l6 54c19 173 111 220 217 220c64 0 111 -17 153 -51l-16 -141c-7 -60 -16 -106 -27 -156h4c30 58 87 94 161 94c99 0 150 -68 150 -195
c0 -89 -25 -187 -72 -245c-45 -55 -120 -82 -208 -82c-69 0 -127 17 -156 32zM761 329l-30 -262c17 -7 48 -13 79 -13c54 0 92 17 120 45c46 46 63 120 63 190c0 94 -29 137 -96 137c-65 0 -104 -42 -136 -97z" />
    <glyph glyph-name="f_f_h" unicode="ffh" horiz-adv-x="1120" 
d="M642 4l83 660c-20 13 -44 18 -72 18c-62 0 -124 -24 -137 -143l-6 -57h110c3 -5 6 -14 6 -31c0 -20 -4 -35 -9 -44h-115l-62 -558c-8 -5 -21 -7 -43 -7s-35 2 -43 7l67 558h-198l-45 -403c-8 -5 -21 -7 -43 -7s-34 2 -42 7l49 403h-69c0 25 7 58 16 75h62l10 82
c17 139 79 174 158 174c27 0 57 -4 80 -21c13 -20 17 -55 10 -82c-25 21 -49 28 -77 28c-62 0 -84 -35 -91 -96l-10 -85h199l6 54c19 173 111 220 218 220c64 0 112 -17 154 -52l-18 -148c-6 -53 -15 -108 -25 -152h4c24 49 76 98 165 98c90 0 135 -48 135 -138
c0 -19 -1 -38 -3 -54l-21 -196c-5 -48 9 -56 33 -56c20 0 31 5 45 13c4 -25 -5 -61 -18 -75c-15 -10 -33 -16 -61 -16c-68 0 -87 37 -87 91c0 12 1 26 3 40l24 187c2 15 3 27 3 41c0 47 -18 86 -83 86c-68 0 -110 -44 -140 -99l-37 -322c-8 -5 -21 -7 -43 -7s-34 2 -42 7z
" />
    <glyph glyph-name="f_f_i" unicode="ffi" horiz-adv-x="811" 
d="M231 482h199l7 58c18 152 94 216 213 216c48 0 81 -9 114 -32c14 -19 18 -56 13 -82c-36 25 -72 40 -123 40c-69 0 -126 -26 -138 -143l-6 -57h114c3 -5 6 -14 6 -31c0 -20 -4 -35 -9 -44h-119l-62 -558c-8 -5 -21 -7 -43 -7s-35 2 -43 7l67 558h-198l-45 -403
c-8 -5 -21 -7 -43 -7s-34 2 -42 7l49 403h-69c0 25 7 58 16 75h62l10 82c17 139 79 174 158 174c27 0 57 -4 80 -21c13 -20 17 -55 10 -82c-25 21 -49 28 -77 28c-62 0 -84 -35 -91 -96zM771 478l-41 -364c-6 -50 9 -56 35 -56c18 0 31 6 43 13c4 -25 -5 -61 -18 -75
c-15 -10 -33 -16 -61 -16c-68 0 -87 37 -87 91c0 12 1 26 3 40l47 367c9 5 20 7 40 7c19 0 32 -2 39 -7z" />
    <glyph glyph-name="f_f_iogonek" unicode="ff&#x12f;" horiz-adv-x="811" 
d="M231 482h199l7 58c18 152 94 216 213 216c48 0 81 -9 114 -32c14 -19 18 -56 13 -82c-36 25 -72 40 -123 40c-69 0 -126 -26 -138 -143l-6 -57h114c3 -5 6 -14 6 -31c0 -20 -4 -35 -9 -44h-119l-62 -558c-8 -5 -21 -7 -43 -7s-35 2 -43 7l67 558h-198l-45 -403
c-8 -5 -21 -7 -43 -7s-34 2 -42 7l49 403h-69c0 25 7 58 16 75h62l10 82c17 139 79 174 158 174c27 0 57 -4 80 -21c13 -20 17 -55 10 -82c-25 21 -49 28 -77 28c-62 0 -84 -35 -91 -96zM771 -152c10 -12 15 -38 12 -58c-13 -6 -35 -12 -58 -12c-55 0 -100 28 -100 97
c0 47 23 82 63 107v4c-36 15 -46 43 -46 85c0 12 1 26 3 40l47 367c9 5 20 7 40 7c19 0 32 -2 39 -7l-41 -364c-6 -50 9 -56 35 -56c18 0 31 6 43 13c4 -25 -4 -59 -17 -73c-46 -23 -89 -58 -89 -105c0 -37 21 -49 47 -49c8 0 13 1 22 4z" />
    <glyph glyph-name="f_f_j" unicode="ffj" horiz-adv-x="792" 
d="M230 482h199l7 58c18 152 94 216 213 216c48 0 81 -9 114 -32c14 -19 18 -56 13 -82c-36 25 -72 40 -123 40c-69 0 -126 -26 -138 -143l-6 -57h114c3 -5 6 -14 6 -31c0 -20 -4 -35 -9 -44h-119l-45 -403c-8 -5 -21 -7 -43 -7s-34 2 -42 7l49 403h-198l-62 -558
c-8 -5 -21 -7 -43 -7s-35 2 -43 7l67 558h-69c0 25 7 58 16 75h62l10 82c17 139 79 174 158 174c27 0 57 -4 80 -21c13 -20 17 -55 10 -82c-25 21 -49 28 -77 28c-62 0 -84 -35 -91 -96zM776 478l-49 -429c-17 -152 -88 -228 -171 -290c-25 8 -43 33 -47 61
c62 47 117 105 132 222l56 436c9 5 20 7 40 7c19 0 32 -2 39 -7z" />
    <glyph glyph-name="f_f_k" unicode="ffk" horiz-adv-x="1060" 
d="M642 4l83 660c-20 13 -44 18 -72 18c-62 0 -124 -24 -137 -143l-6 -57h110c3 -5 6 -14 6 -31c0 -20 -4 -35 -9 -44h-115l-62 -558c-8 -5 -21 -7 -43 -7s-35 2 -43 7l67 558h-198l-45 -403c-8 -5 -21 -7 -43 -7s-34 2 -42 7l49 403h-69c0 25 7 58 16 75h62l10 82
c17 139 79 174 158 174c27 0 57 -4 80 -21c13 -20 17 -55 10 -82c-25 21 -49 28 -77 28c-62 0 -84 -35 -91 -96l-10 -85h199l6 54c19 173 111 220 218 220c64 0 112 -17 154 -52l-47 -408h61l158 184c7 3 20 6 37 6c27 0 46 -6 54 -12l-186 -214c38 -117 78 -205 147 -205
c16 0 27 5 38 13c4 -24 -4 -61 -18 -76c-12 -8 -30 -12 -50 -12c-112 0 -163 147 -189 247h-60l-26 -223c-8 -5 -21 -7 -43 -7s-34 2 -42 7z" />
    <glyph glyph-name="f_f_l" unicode="ffl" horiz-adv-x="825" 
d="M231 482h199l6 54c19 173 110 220 215 220c64 0 111 -17 153 -51l-68 -591c-6 -48 10 -56 37 -56c24 0 40 7 54 16c4 -25 -5 -61 -18 -75c-18 -12 -41 -19 -70 -19c-56 0 -91 25 -91 89c0 11 2 31 3 42l71 552c-21 14 -44 19 -72 19c-60 0 -121 -24 -134 -143l-6 -57h110
c3 -5 6 -14 6 -31c0 -20 -4 -35 -9 -44h-115l-62 -558c-8 -5 -21 -7 -43 -7s-35 2 -43 7l67 558h-198l-45 -403c-8 -5 -21 -7 -43 -7s-34 2 -42 7l49 403h-69c0 25 7 58 16 75h62l10 82c17 139 79 174 158 174c27 0 57 -4 80 -21c13 -20 17 -55 10 -82c-25 21 -49 28 -77 28
c-62 0 -84 -35 -91 -96z" />
    <glyph glyph-name="f_f_lcaron" unicode="ff&#x13e;" horiz-adv-x="831" 
d="M231 482h199l6 54c19 173 110 220 215 220c64 0 111 -17 153 -51l-68 -591c-6 -48 10 -56 37 -56c24 0 40 7 54 16c4 -25 -5 -61 -18 -75c-18 -12 -41 -19 -70 -19c-56 0 -91 25 -91 89c0 11 2 31 3 42l71 552c-21 14 -44 19 -72 19c-60 0 -121 -24 -134 -143l-6 -57h110
c3 -5 6 -14 6 -31c0 -20 -4 -35 -9 -44h-115l-62 -558c-8 -5 -21 -7 -43 -7s-35 2 -43 7l67 558h-198l-45 -403c-8 -5 -21 -7 -43 -7s-34 2 -42 7l49 403h-69c0 25 7 58 16 75h62l10 82c17 139 79 174 158 174c27 0 57 -4 80 -21c13 -20 17 -55 10 -82c-25 21 -49 28 -77 28
c-62 0 -84 -35 -91 -96zM964 747c-10 -79 -43 -162 -75 -209c-25 3 -42 14 -52 31c27 50 42 99 50 162c21 12 40 16 77 16z" />
    <glyph glyph-name="f_f_ldot" unicode="ff&#x140;" horiz-adv-x="918" 
d="M892 340c28 0 49 -16 49 -51c0 -34 -23 -55 -55 -55c-29 0 -48 17 -48 51c0 35 20 55 54 55zM231 482h199l6 54c19 173 110 220 215 220c64 0 111 -17 153 -51l-68 -591c-6 -48 10 -56 37 -56c24 0 40 7 54 16c4 -25 -5 -61 -18 -75c-18 -12 -41 -19 -70 -19
c-56 0 -91 25 -91 89c0 11 2 31 3 42l71 552c-21 14 -44 19 -72 19c-60 0 -121 -24 -134 -143l-6 -57h110c3 -5 6 -14 6 -31c0 -20 -4 -35 -9 -44h-115l-62 -558c-8 -5 -21 -7 -43 -7s-35 2 -43 7l67 558h-198l-45 -403c-8 -5 -21 -7 -43 -7s-34 2 -42 7l49 403h-69
c0 25 7 58 16 75h62l10 82c17 139 79 174 158 174c27 0 57 -4 80 -21c13 -20 17 -55 10 -82c-25 21 -49 28 -77 28c-62 0 -84 -35 -91 -96z" />
    <glyph glyph-name="f_f_t" unicode="fft" horiz-adv-x="893" 
d="M231 482h199l12 100c17 139 79 174 158 174c27 0 57 -4 80 -21c13 -20 17 -55 10 -82c-25 21 -49 28 -77 28c-62 0 -84 -35 -91 -96l-12 -103h188l15 114c21 14 46 21 80 21l-16 -135h130c3 -5 6 -14 6 -31c0 -20 -4 -35 -9 -44h-136l-30 -258c-7 -57 2 -90 60 -90
c31 0 61 10 89 34c4 -29 -5 -64 -19 -83c-28 -20 -59 -30 -101 -30c-86 0 -117 42 -117 113c0 15 2 37 4 52l34 262h-186l-62 -558c-8 -5 -21 -7 -43 -7s-35 2 -43 7l67 558h-198l-45 -403c-8 -5 -21 -7 -43 -7s-34 2 -42 7l49 403h-69c0 25 7 58 16 75h62l10 82
c17 139 79 174 158 174c27 0 57 -4 80 -21c13 -20 17 -55 10 -82c-25 21 -49 28 -77 28c-62 0 -84 -35 -91 -96z" />
    <glyph glyph-name="f_f_tbar" unicode="ff&#x167;" horiz-adv-x="896" 
d="M230 482h199l12 100c17 139 79 174 158 174c27 0 57 -4 80 -21c13 -20 17 -55 10 -82c-25 21 -49 28 -77 28c-62 0 -84 -35 -91 -96l-12 -103h190l15 114c21 14 46 21 80 21l-16 -135h130c3 -5 6 -14 6 -31c0 -20 -4 -35 -9 -44h-136l-14 -123h116c2 -3 5 -11 5 -24
c0 -20 -4 -33 -8 -39h-121l-8 -72c-7 -57 2 -90 60 -90c31 0 61 10 89 34c4 -29 -5 -64 -19 -83c-28 -20 -59 -30 -101 -30c-86 0 -117 42 -117 113c0 15 2 37 4 52l10 76h-59c0 20 6 49 14 63h53l16 123h-188l-62 -558c-8 -5 -21 -7 -43 -7s-35 2 -43 7l67 558h-198
l-45 -403c-8 -5 -21 -7 -43 -7s-34 2 -42 7l49 403h-69c0 25 7 58 16 75h62l10 82c17 139 79 174 158 174c27 0 57 -4 80 -21c13 -20 17 -55 10 -82c-25 21 -49 28 -77 28c-62 0 -84 -35 -91 -96z" />
    <glyph glyph-name="f_f_tcaron" unicode="ff&#x165;" horiz-adv-x="895" 
d="M230 482h199l12 100c17 139 79 174 158 174c27 0 57 -4 80 -21c13 -20 17 -55 10 -82c-25 21 -49 28 -77 28c-62 0 -84 -35 -91 -96l-12 -103h188l15 114c21 14 46 21 80 21l-16 -135h130c3 -5 6 -14 6 -31c0 -20 -4 -35 -9 -44h-136l-30 -258c-7 -57 2 -90 60 -90
c31 0 61 10 89 34c4 -29 -5 -64 -19 -83c-28 -20 -59 -30 -101 -30c-86 0 -117 42 -117 113c0 15 2 37 4 52l34 262h-186l-62 -558c-8 -5 -21 -7 -43 -7s-35 2 -43 7l67 558h-198l-45 -403c-8 -5 -21 -7 -43 -7s-34 2 -42 7l49 403h-69c0 25 7 58 16 75h62l10 82
c17 139 79 174 158 174c27 0 57 -4 80 -21c13 -20 17 -55 10 -82c-25 21 -49 28 -77 28c-62 0 -84 -35 -91 -96zM1003 725c-9 -73 -38 -150 -67 -193c-25 3 -43 14 -53 31c23 45 36 89 43 146c21 12 40 16 77 16z" />
    <glyph glyph-name="f_f_uni0137" unicode="ff&#x137;" horiz-adv-x="1060" 
d="M642 4l83 660c-20 13 -44 18 -72 18c-62 0 -124 -24 -137 -143l-6 -57h110c3 -5 6 -14 6 -31c0 -20 -4 -35 -9 -44h-115l-62 -558c-8 -5 -21 -7 -43 -7s-35 2 -43 7l67 558h-198l-45 -403c-8 -5 -21 -7 -43 -7s-34 2 -42 7l49 403h-69c0 25 7 58 16 75h62l10 82
c17 139 79 174 158 174c27 0 57 -4 80 -21c13 -20 17 -55 10 -82c-25 21 -49 28 -77 28c-62 0 -84 -35 -91 -96l-10 -85h199l6 54c19 173 111 220 218 220c64 0 112 -17 154 -52l-47 -408h61l158 184c7 3 20 6 37 6c27 0 46 -6 54 -12l-186 -214c38 -117 78 -205 147 -205
c16 0 27 5 38 13c4 -24 -4 -61 -18 -76c-12 -8 -30 -12 -50 -12c-112 0 -163 147 -189 247h-60l-26 -223c-8 -5 -21 -7 -43 -7s-34 2 -42 7zM880 -46c-10 -75 -39 -154 -69 -199c-26 3 -44 15 -53 31c24 47 38 93 45 151c21 12 39 17 77 17z" />
    <glyph glyph-name="f_f_uni013C" unicode="ff&#x13c;" horiz-adv-x="825" 
d="M231 482h199l6 54c19 173 110 220 215 220c64 0 111 -17 153 -51l-68 -591c-6 -48 10 -56 37 -56c24 0 40 7 54 16c4 -25 -5 -61 -18 -75c-18 -12 -41 -19 -70 -19c-56 0 -91 25 -91 89c0 11 2 31 3 42l71 552c-21 14 -44 19 -72 19c-60 0 -121 -24 -134 -143l-6 -57h110
c3 -5 6 -14 6 -31c0 -20 -4 -35 -9 -44h-115l-62 -558c-8 -5 -21 -7 -43 -7s-35 2 -43 7l67 558h-198l-45 -403c-8 -5 -21 -7 -43 -7s-34 2 -42 7l49 403h-69c0 25 7 58 16 75h62l10 82c17 139 79 174 158 174c27 0 57 -4 80 -21c13 -20 17 -55 10 -82c-25 21 -49 28 -77 28
c-62 0 -84 -35 -91 -96zM769 -46c-10 -75 -39 -154 -69 -199c-26 3 -44 15 -53 31c24 47 38 93 45 151c21 12 39 17 77 17z" />
    <glyph glyph-name="f_f_uni0163" unicode="ff&#x163;" horiz-adv-x="893" 
d="M231 482h199l12 100c17 139 79 174 158 174c27 0 57 -4 80 -21c13 -20 17 -55 10 -82c-25 21 -49 28 -77 28c-62 0 -84 -35 -91 -96l-12 -103h188l15 114c21 14 46 21 80 21l-16 -135h130c3 -5 6 -14 6 -31c0 -20 -4 -35 -9 -44h-136l-30 -258c-7 -57 2 -90 60 -90
c31 0 61 10 89 34c4 -29 -5 -64 -19 -83c-23 -16 -47 -26 -80 -29l-10 -35c28 -12 49 -33 49 -72c0 -63 -53 -101 -121 -112c-19 10 -34 25 -39 46c36 5 84 21 84 61c0 26 -21 42 -48 49l27 65c-59 12 -80 50 -80 110c0 15 2 37 4 52l34 262h-186l-62 -558
c-8 -5 -21 -7 -43 -7s-35 2 -43 7l67 558h-198l-45 -403c-8 -5 -21 -7 -43 -7s-34 2 -42 7l49 403h-69c0 25 7 58 16 75h62l10 82c17 139 79 174 158 174c27 0 57 -4 80 -21c13 -20 17 -55 10 -82c-25 21 -49 28 -77 28c-62 0 -84 -35 -91 -96z" />
    <glyph glyph-name="f_f_uni021B" unicode="ff&#x21b;" horiz-adv-x="893" 
d="M231 482h199l12 100c17 139 79 174 158 174c27 0 57 -4 80 -21c13 -20 17 -55 10 -82c-25 21 -49 28 -77 28c-62 0 -84 -35 -91 -96l-12 -103h188l15 114c21 14 46 21 80 21l-16 -135h130c3 -5 6 -14 6 -31c0 -20 -4 -35 -9 -44h-136l-30 -258c-7 -57 2 -90 60 -90
c31 0 61 10 89 34c4 -29 -5 -64 -19 -83c-28 -20 -59 -30 -101 -30c-86 0 -117 42 -117 113c0 15 2 37 4 52l34 262h-186l-62 -558c-8 -5 -21 -7 -43 -7s-35 2 -43 7l67 558h-198l-45 -403c-8 -5 -21 -7 -43 -7s-34 2 -42 7l49 403h-69c0 25 7 58 16 75h62l10 82
c17 139 79 174 158 174c27 0 57 -4 80 -21c13 -20 17 -55 10 -82c-25 21 -49 28 -77 28c-62 0 -84 -35 -91 -96zM799 -46c-10 -75 -39 -154 -69 -199c-26 3 -44 15 -53 31c24 47 38 93 45 151c21 12 39 17 77 17z" />
    <glyph glyph-name="f_h" unicode="fh" horiz-adv-x="840" 
d="M362 4l83 660c-20 13 -44 18 -72 18c-62 0 -124 -24 -137 -143l-6 -57h110c3 -5 6 -14 6 -31c0 -20 -4 -35 -9 -44h-115l-62 -558c-8 -5 -21 -7 -43 -7s-35 2 -43 7l67 558h-69c0 25 7 58 16 75h62l6 54c19 173 111 220 218 220c64 0 112 -17 154 -52l-18 -148
c-6 -53 -15 -108 -25 -152h4c24 49 76 98 165 98c90 0 135 -48 135 -138c0 -19 -1 -38 -3 -54l-21 -196c-5 -48 9 -56 33 -56c20 0 31 5 45 13c4 -25 -5 -61 -18 -75c-15 -10 -33 -16 -61 -16c-68 0 -87 37 -87 91c0 12 1 26 3 40l24 187c2 15 3 27 3 41c0 47 -18 86 -83 86
c-68 0 -110 -44 -140 -99l-37 -322c-8 -5 -21 -7 -43 -7s-34 2 -42 7z" />
    <glyph glyph-name="f_i" unicode="fi" horiz-adv-x="531" 
d="M88 482h62l7 58c18 152 94 216 213 216c48 0 81 -9 114 -32c14 -19 18 -56 13 -82c-36 25 -72 40 -123 40c-69 0 -126 -26 -138 -143l-6 -57h114c3 -5 6 -14 6 -31c0 -20 -4 -35 -9 -44h-119l-62 -558c-8 -5 -21 -7 -43 -7s-35 2 -43 7l67 558h-69c0 25 7 58 16 75z
M491 478l-41 -364c-6 -50 9 -56 35 -56c18 0 31 6 43 13c4 -25 -5 -61 -18 -75c-15 -10 -33 -16 -61 -16c-68 0 -87 37 -87 91c0 12 1 26 3 40l47 367c9 5 20 7 40 7c19 0 32 -2 39 -7z" />
    <glyph glyph-name="f_iacute" unicode="f&#xed;" horiz-adv-x="532" 
d="M88 482h62l11 90c17 139 79 174 158 174c27 0 57 -4 80 -21c13 -20 17 -55 10 -82c-25 21 -49 28 -77 28c-62 0 -84 -35 -91 -96l-11 -93h114c3 -5 6 -14 6 -31c0 -20 -4 -35 -9 -44h-119l-62 -558c-8 -5 -21 -7 -43 -7s-35 2 -43 7l67 558h-69c0 25 7 58 16 75zM492 478
l-41 -364c-6 -50 9 -56 35 -56c18 0 31 6 43 13c4 -25 -5 -61 -18 -75c-15 -10 -33 -16 -61 -16c-68 0 -87 37 -87 91c0 12 1 26 3 40l47 367c9 5 20 7 40 7c19 0 32 -2 39 -7zM604 710l-153 -156c-22 7 -35 20 -42 42l122 144c27 0 58 -10 73 -30z" />
    <glyph glyph-name="f_iogonek" unicode="f&#x12f;" horiz-adv-x="531" 
d="M88 482h62l7 58c18 152 94 216 213 216c48 0 81 -9 114 -32c14 -19 18 -56 13 -82c-36 25 -72 40 -123 40c-69 0 -126 -26 -138 -143l-6 -57h114c3 -5 6 -14 6 -31c0 -20 -4 -35 -9 -44h-119l-62 -558c-8 -5 -21 -7 -43 -7s-35 2 -43 7l67 558h-69c0 25 7 58 16 75z
M491 -152c10 -12 15 -38 12 -58c-13 -6 -35 -12 -58 -12c-55 0 -100 28 -100 97c0 47 23 82 63 107v4c-36 15 -46 43 -46 85c0 12 1 26 3 40l47 367c9 5 20 7 40 7c19 0 32 -2 39 -7l-41 -364c-6 -50 9 -56 35 -56c18 0 31 6 43 13c4 -25 -4 -59 -17 -73
c-46 -23 -89 -58 -89 -105c0 -37 21 -49 47 -49c8 0 13 1 22 4z" />
    <glyph glyph-name="f_j" unicode="fj" horiz-adv-x="514" 
d="M89 482h62l7 58c18 152 94 216 213 216c48 0 81 -9 114 -32c14 -19 18 -56 13 -82c-36 25 -72 40 -123 40c-69 0 -126 -26 -138 -143l-6 -57h114c3 -5 6 -14 6 -31c0 -20 -4 -35 -9 -44h-119l-45 -403c-8 -5 -21 -7 -43 -7s-34 2 -42 7l49 403h-69c0 25 7 58 16 75z
M498 478l-49 -429c-17 -152 -88 -228 -171 -290c-25 8 -43 33 -47 61c62 47 117 105 132 222l56 436c9 5 20 7 40 7c19 0 32 -2 39 -7z" />
    <glyph glyph-name="f_k" unicode="fk" horiz-adv-x="780" 
d="M362 4l83 660c-20 13 -44 18 -72 18c-62 0 -124 -24 -137 -143l-6 -57h110c3 -5 6 -14 6 -31c0 -20 -4 -35 -9 -44h-115l-62 -558c-8 -5 -21 -7 -43 -7s-35 2 -43 7l67 558h-69c0 25 7 58 16 75h62l6 54c19 173 111 220 218 220c64 0 112 -17 154 -52l-47 -408h61
l158 184c7 3 20 6 37 6c27 0 46 -6 54 -12l-186 -214c38 -117 78 -205 147 -205c16 0 27 5 38 13c4 -24 -4 -61 -18 -76c-12 -8 -30 -12 -50 -12c-112 0 -163 147 -189 247h-60l-26 -223c-8 -5 -21 -7 -43 -7s-34 2 -42 7z" />
    <glyph glyph-name="f_l" unicode="fl" horiz-adv-x="545" 
d="M88 482h62l6 54c19 173 110 220 215 220c64 0 111 -17 153 -51l-68 -591c-6 -48 10 -56 37 -56c24 0 40 7 54 16c4 -25 -5 -61 -18 -75c-18 -12 -41 -19 -70 -19c-56 0 -91 25 -91 89c0 11 2 31 3 42l71 552c-21 14 -44 19 -72 19c-60 0 -121 -24 -134 -143l-6 -57h110
c3 -5 6 -14 6 -31c0 -20 -4 -35 -9 -44h-115l-62 -558c-8 -5 -21 -7 -43 -7s-35 2 -43 7l67 558h-69c0 25 7 58 16 75z" />
    <glyph glyph-name="f_lcaron" unicode="f&#x13e;" horiz-adv-x="551" 
d="M88 482h62l6 54c19 173 110 220 215 220c64 0 111 -17 153 -51l-68 -591c-6 -48 10 -56 37 -56c24 0 40 7 54 16c4 -25 -5 -61 -18 -75c-18 -12 -41 -19 -70 -19c-56 0 -91 25 -91 89c0 11 2 31 3 42l71 552c-21 14 -44 19 -72 19c-60 0 -121 -24 -134 -143l-6 -57h110
c3 -5 6 -14 6 -31c0 -20 -4 -35 -9 -44h-115l-62 -558c-8 -5 -21 -7 -43 -7s-35 2 -43 7l67 558h-69c0 25 7 58 16 75zM684 747c-10 -79 -43 -162 -75 -209c-25 3 -42 14 -52 31c27 50 42 99 50 162c21 12 40 16 77 16z" />
    <glyph glyph-name="f_ldot" unicode="f&#x140;" horiz-adv-x="638" 
d="M88 482h62l6 54c19 173 110 220 215 220c64 0 111 -17 153 -51l-68 -591c-6 -48 10 -56 37 -56c24 0 40 7 54 16c4 -25 -5 -61 -18 -75c-18 -12 -41 -19 -70 -19c-56 0 -91 25 -91 89c0 11 2 31 3 42l71 552c-21 14 -44 19 -72 19c-60 0 -121 -24 -134 -143l-6 -57h110
c3 -5 6 -14 6 -31c0 -20 -4 -35 -9 -44h-115l-62 -558c-8 -5 -21 -7 -43 -7s-35 2 -43 7l67 558h-69c0 25 7 58 16 75zM612 340c28 0 49 -16 49 -51c0 -34 -23 -55 -55 -55c-29 0 -48 17 -48 51c0 35 20 55 54 55z" />
    <glyph glyph-name="f_t" unicode="ft" horiz-adv-x="613" 
d="M88 482h62l11 93c16 139 79 174 158 174c27 0 57 -4 80 -21c13 -20 17 -55 10 -82c-25 21 -49 28 -77 28c-62 0 -84 -35 -91 -96l-11 -96h188l15 114c21 14 46 21 80 21l-16 -135h130c3 -5 6 -14 6 -31c0 -20 -4 -35 -9 -44h-136l-30 -258c-7 -57 2 -90 60 -90
c31 0 61 10 89 34c4 -29 -5 -64 -19 -83c-28 -20 -59 -30 -101 -30c-86 0 -117 42 -117 113c0 15 2 37 4 52l34 262h-186l-62 -558c-8 -5 -21 -7 -43 -7s-35 2 -43 7l67 558h-69c0 25 7 58 16 75z" />
    <glyph glyph-name="f_tbar" unicode="f&#x167;" horiz-adv-x="617" 
d="M88 482h62l11 93c16 139 79 174 158 174c27 0 57 -4 80 -21c13 -20 17 -55 10 -82c-25 21 -49 28 -77 28c-62 0 -84 -35 -91 -96l-11 -96h190l15 114c21 14 46 21 80 21l-16 -135h130c3 -5 6 -14 6 -31c0 -20 -4 -35 -9 -44h-136l-14 -123h116c2 -3 5 -11 5 -24
c0 -20 -4 -33 -8 -39h-121l-8 -72c-7 -57 2 -90 60 -90c31 0 61 10 89 34c4 -29 -5 -64 -19 -83c-28 -20 -59 -30 -101 -30c-86 0 -117 42 -117 113c0 15 2 37 4 52l10 76h-59c0 20 6 49 14 63h53l16 123h-188l-62 -558c-8 -5 -21 -7 -43 -7s-35 2 -43 7l67 558h-69
c0 25 7 58 16 75z" />
    <glyph glyph-name="f_tcaron" unicode="f&#x165;" horiz-adv-x="616" 
d="M88 482h62l11 93c16 139 79 174 158 174c27 0 57 -4 80 -21c13 -20 17 -55 10 -82c-25 21 -49 28 -77 28c-62 0 -84 -35 -91 -96l-11 -96h188l15 114c21 14 46 21 80 21l-16 -135h130c3 -5 6 -14 6 -31c0 -20 -4 -35 -9 -44h-136l-30 -258c-7 -57 2 -90 60 -90
c31 0 61 10 89 34c4 -29 -5 -64 -19 -83c-28 -20 -59 -30 -101 -30c-86 0 -117 42 -117 113c0 15 2 37 4 52l34 262h-186l-62 -558c-8 -5 -21 -7 -43 -7s-35 2 -43 7l67 558h-69c0 25 7 58 16 75zM724 725c-9 -73 -38 -150 -67 -193c-25 3 -43 14 -53 31c23 45 36 89 43 146
c21 12 40 16 77 16z" />
    <glyph glyph-name="f_uni0137" unicode="f&#x137;" horiz-adv-x="780" 
d="M362 4l83 660c-20 13 -44 18 -72 18c-62 0 -124 -24 -137 -143l-6 -57h110c3 -5 6 -14 6 -31c0 -20 -4 -35 -9 -44h-115l-62 -558c-8 -5 -21 -7 -43 -7s-35 2 -43 7l67 558h-69c0 25 7 58 16 75h62l6 54c19 173 111 220 218 220c64 0 112 -17 154 -52l-47 -408h61
l158 184c7 3 20 6 37 6c27 0 46 -6 54 -12l-186 -214c38 -117 78 -205 147 -205c16 0 27 5 38 13c4 -24 -4 -61 -18 -76c-12 -8 -30 -12 -50 -12c-112 0 -163 147 -189 247h-60l-26 -223c-8 -5 -21 -7 -43 -7s-34 2 -42 7zM600 -46c-10 -75 -39 -154 -69 -199
c-26 3 -44 15 -53 31c24 47 38 93 45 151c21 12 39 17 77 17z" />
    <glyph glyph-name="f_uni013C" unicode="f&#x13c;" horiz-adv-x="545" 
d="M88 482h62l6 54c19 173 110 220 215 220c64 0 111 -17 153 -51l-68 -591c-6 -48 10 -56 37 -56c24 0 40 7 54 16c4 -25 -5 -61 -18 -75c-18 -12 -41 -19 -70 -19c-56 0 -91 25 -91 89c0 11 2 31 3 42l71 552c-21 14 -44 19 -72 19c-60 0 -121 -24 -134 -143l-6 -57h110
c3 -5 6 -14 6 -31c0 -20 -4 -35 -9 -44h-115l-62 -558c-8 -5 -21 -7 -43 -7s-35 2 -43 7l67 558h-69c0 25 7 58 16 75zM489 -46c-10 -75 -39 -154 -69 -199c-26 3 -44 15 -53 31c24 47 38 93 45 151c21 12 39 17 77 17z" />
    <glyph glyph-name="f_uni0163" unicode="f&#x163;" horiz-adv-x="613" 
d="M88 482h62l11 93c16 139 79 174 158 174c27 0 57 -4 80 -21c13 -20 17 -55 10 -82c-25 21 -49 28 -77 28c-62 0 -84 -35 -91 -96l-11 -96h188l15 114c21 14 46 21 80 21l-16 -135h130c3 -5 6 -14 6 -31c0 -20 -4 -35 -9 -44h-136l-30 -258c-7 -57 2 -90 60 -90
c31 0 61 10 89 34c4 -29 -5 -64 -19 -83c-23 -16 -47 -26 -80 -29l-10 -35c28 -12 49 -33 49 -72c0 -63 -53 -101 -121 -112c-19 10 -34 25 -39 46c36 5 84 21 84 61c0 26 -21 42 -48 49l27 65c-59 12 -80 50 -80 110c0 15 2 37 4 52l34 262h-186l-62 -558
c-8 -5 -21 -7 -43 -7s-35 2 -43 7l67 558h-69c0 25 7 58 16 75z" />
    <glyph glyph-name="f_uni021B" unicode="f&#x21b;" horiz-adv-x="613" 
d="M88 482h62l11 93c16 139 79 174 158 174c27 0 57 -4 80 -21c13 -20 17 -55 10 -82c-25 21 -49 28 -77 28c-62 0 -84 -35 -91 -96l-11 -96h188l15 114c21 14 46 21 80 21l-16 -135h130c3 -5 6 -14 6 -31c0 -20 -4 -35 -9 -44h-136l-30 -258c-7 -57 2 -90 60 -90
c31 0 61 10 89 34c4 -29 -5 -64 -19 -83c-28 -20 -59 -30 -101 -30c-86 0 -117 42 -117 113c0 15 2 37 4 52l34 262h-186l-62 -558c-8 -5 -21 -7 -43 -7s-35 2 -43 7l67 558h-69c0 25 7 58 16 75zM519 -46c-10 -75 -39 -154 -69 -199c-26 3 -44 15 -53 31
c24 47 38 93 45 151c21 12 39 17 77 17z" />
    <glyph glyph-name="i_j" unicode="ij" horiz-adv-x="496" 
d="M217 478l-41 -364c-6 -50 9 -56 35 -56c18 0 31 6 43 13c4 -25 -5 -61 -18 -75c-15 -10 -33 -16 -61 -16c-68 0 -87 37 -87 91c0 12 1 26 3 40l47 367c9 5 20 7 40 7c19 0 32 -2 39 -7zM200 707c30 0 52 -17 52 -54c0 -35 -24 -58 -58 -58c-30 0 -51 18 -51 54
s22 58 57 58zM480 478l-49 -429c-17 -152 -88 -228 -171 -290c-25 8 -43 33 -47 61c62 47 117 105 132 222l56 436c9 5 20 7 40 7c19 0 32 -2 39 -7zM458 707c30 0 52 -17 52 -54c0 -35 -24 -58 -58 -58c-30 0 -51 18 -51 54s22 58 57 58z" />
    <glyph glyph-name=".notdef" horiz-adv-x="687" 
d="M90 0l90 723h494l-78 -723h-506zM351 238c20 3 37 13 49 29c-10 11 -16 21 -16 38c0 74 157 96 157 218c0 69 -41 104 -123 104c-58 0 -98 -19 -123 -42c-13 -17 -19 -48 -16 -68c37 32 78 49 119 49c51 0 69 -23 69 -52c0 -81 -148 -96 -148 -206c0 -30 11 -54 32 -70z
M362 184c-28 0 -46 -18 -46 -47c0 -28 17 -43 41 -43c27 0 47 19 47 47c0 29 -18 43 -42 43z" />
    <glyph glyph-name=".null" horiz-adv-x="0" 
 />
    <glyph glyph-name=".null" horiz-adv-x="0" 
 />
    <glyph glyph-name="CR" unicode="&#xd;" horiz-adv-x="170" 
 />
    <glyph glyph-name="space" unicode=" " horiz-adv-x="170" 
 />
    <glyph glyph-name="exclam" unicode="!" horiz-adv-x="271" 
d="M258 693l-63 -487c-7 -4 -18 -6 -36 -6c-19 0 -29 2 -36 6l45 482c10 6 28 11 50 11c18 0 31 -2 40 -6zM144 100c30 0 53 -18 53 -55c0 -36 -25 -60 -60 -60c-30 0 -52 19 -52 55c0 37 23 60 59 60z" />
    <glyph glyph-name="quotedbl" unicode="&#x22;" horiz-adv-x="347" 
d="M165 496c-26 0 -47 4 -63 14c17 71 31 155 39 225c28 0 54 -4 75 -15c-7 -61 -29 -159 -51 -224zM330 496c-26 0 -47 4 -63 14c17 71 31 155 39 225c28 0 54 -4 75 -15c-7 -61 -29 -159 -51 -224z" />
    <glyph glyph-name="numbersign" unicode="#" horiz-adv-x="513" 
d="M108 418h85l31 106c17 9 40 12 68 12l-32 -118h140l30 106c17 9 40 12 68 12l-31 -118h76c2 -3 4 -11 4 -24c0 -16 -5 -29 -9 -35h-86l-44 -168h78c2 -3 4 -11 4 -24c0 -16 -5 -29 -9 -35h-89l-33 -127c-8 -5 -20 -7 -39 -7c-18 0 -32 2 -37 7l36 127h-136l-35 -127
c-8 -5 -20 -7 -39 -7c-18 0 -32 2 -37 7l37 127h-83c0 22 9 45 18 59h83l49 168h-86c0 22 9 45 18 59zM244 359l-46 -168h138l47 168h-139z" />
    <glyph glyph-name="dollar" unicode="$" horiz-adv-x="437" 
d="M48 100c39 -27 104 -45 162 -45c71 0 122 26 122 86c0 128 -231 69 -231 253c0 92 57 147 153 156l9 70c20 7 41 10 69 10l-10 -82c32 -3 62 -14 84 -29c14 -18 20 -57 14 -84c-33 25 -81 44 -133 44c-56 0 -104 -21 -104 -77c0 -118 235 -67 235 -253
c0 -99 -64 -158 -173 -167l-8 -73c-7 -4 -19 -6 -37 -6c-20 0 -30 2 -37 6l9 73c-47 4 -86 16 -114 31c-15 23 -18 60 -10 87z" />
    <glyph glyph-name="percent" unicode="%" horiz-adv-x="830" 
d="M696 537l-432 -575c-25 5 -47 23 -55 45l422 552c25 0 49 -7 65 -22zM234 551c83 0 133 -51 133 -143c0 -94 -52 -180 -163 -180c-85 0 -132 51 -132 141c0 97 53 182 162 182zM229 491c-60 0 -89 -59 -89 -117c0 -54 25 -84 68 -84c61 0 91 57 91 116
c0 54 -25 85 -70 85zM689 303c83 0 133 -51 133 -143c0 -94 -52 -180 -163 -180c-85 0 -132 51 -132 141c0 97 53 182 162 182zM684 243c-60 0 -89 -59 -89 -117c0 -54 25 -84 68 -84c61 0 91 57 91 116c0 54 -25 85 -70 85z" />
    <glyph glyph-name="ampersand" unicode="&#x26;" horiz-adv-x="664" 
d="M658 407c-12 -86 -40 -180 -87 -247c34 -47 63 -95 90 -152c-13 -9 -34 -15 -58 -15c-15 0 -29 2 -34 5c-16 31 -34 63 -56 94c-54 -67 -129 -115 -240 -115s-219 47 -219 182c0 100 61 186 170 213v5c-47 29 -76 74 -76 138c0 106 81 178 189 178c82 0 162 -42 162 -148
c0 -82 -48 -153 -132 -179v-5c57 -41 106 -84 152 -138c28 45 46 105 54 169c21 11 50 15 85 15zM281 52c85 0 139 41 188 103c-53 69 -116 128 -189 174c-76 -24 -139 -71 -139 -157c0 -90 66 -120 140 -120zM309 405c62 21 113 61 113 131c0 66 -43 88 -89 88
c-60 0 -106 -38 -106 -106c0 -58 32 -84 82 -113z" />
    <glyph glyph-name="quotesingle" unicode="'" horiz-adv-x="182" 
d="M165 496c-26 0 -47 4 -63 14c17 71 31 155 39 225c28 0 54 -4 75 -15c-7 -61 -29 -159 -51 -224z" />
    <glyph glyph-name="parenleft" unicode="(" horiz-adv-x="283" 
d="M190 -220c-71 134 -101 275 -101 418c0 215 68 406 208 582c23 -6 42 -21 52 -44c-114 -153 -179 -332 -179 -533c0 -144 33 -266 91 -378c-16 -24 -43 -40 -71 -45z" />
    <glyph glyph-name="parenright" unicode=")" horiz-adv-x="283" 
d="M-16 -176c125 162 193 330 193 548c0 150 -30 263 -77 363c12 22 37 40 63 47c66 -131 95 -265 95 -408c0 -230 -73 -410 -214 -596c-28 6 -49 23 -60 46z" />
    <glyph glyph-name="asterisk" unicode="*" horiz-adv-x="380" 
d="M238 594l3 2c-4 15 -6 31 -5 43l9 102c15 6 33 8 59 8l-16 -109c-2 -14 -7 -30 -15 -45l3 -2c10 13 22 24 34 32l87 55c13 -13 25 -30 33 -53l-98 -52c-10 -5 -28 -10 -44 -12v-4c12 -2 28 -8 38 -14l85 -50c-3 -23 -18 -44 -34 -55l-83 59c-9 8 -18 18 -24 29l-4 -2
c3 -11 5 -30 5 -42l-7 -107c-6 -3 -17 -5 -33 -5c-15 0 -25 2 -31 5l19 110c2 13 8 27 13 37l-4 3c-7 -11 -19 -22 -29 -29l-91 -59c-15 12 -27 37 -27 61l96 49c9 4 28 8 40 9v4c-13 3 -29 10 -36 14l-80 48c4 19 13 41 27 58l83 -58c10 -8 19 -17 27 -30z" />
    <glyph glyph-name="plus" unicode="+" 
d="M84 310h189v190c21 9 50 13 82 13v-203h195c4 -8 6 -20 6 -39s-2 -31 -6 -39h-195v-197c-7 -4 -22 -7 -41 -7s-34 3 -41 7v197h-202c0 24 5 61 13 78z" />
    <glyph glyph-name="comma" unicode="," horiz-adv-x="213" 
d="M82 74c24 11 44 15 87 15c-13 -92 -52 -198 -93 -254c-29 4 -49 15 -61 35c36 61 58 129 67 204z" />
    <glyph glyph-name="hyphen" unicode="-" horiz-adv-x="312" 
d="M82 312h221c3 -5 6 -17 6 -31c0 -20 -5 -39 -10 -47h-234c0 25 7 59 17 78z" />
    <glyph glyph-name="period" unicode="." horiz-adv-x="221" 
d="M120 102c31 0 54 -18 54 -56c0 -37 -25 -61 -61 -61c-31 0 -53 19 -53 56c0 38 23 61 60 61z" />
    <glyph glyph-name="slash" unicode="/" horiz-adv-x="388" 
d="M459 723l-401 -901c-27 0 -58 14 -69 33l404 887c27 0 50 -7 66 -19z" />
    <glyph glyph-name="zero" unicode="0" horiz-adv-x="574" 
d="M341 551c134 0 215 -86 215 -249c0 -151 -72 -322 -263 -322c-136 0 -215 85 -215 250c0 170 85 321 263 321zM335 476c-124 0 -171 -127 -171 -242s46 -176 133 -176c130 0 173 139 173 244c0 111 -48 174 -135 174z" />
    <glyph glyph-name="one" unicode="1" horiz-adv-x="356" 
d="M166 4l56 452l-139 -25c3 28 13 58 24 76c41 16 133 35 207 43l-61 -546c-8 -5 -21 -7 -43 -7s-36 2 -44 7z" />
    <glyph glyph-name="two" unicode="2" horiz-adv-x="503" 
d="M191 79h286c0 -28 -5 -58 -13 -79h-396c-9 20 -14 48 -14 78c116 76 337 176 337 309c0 58 -41 86 -112 86c-56 0 -110 -18 -164 -56c-2 23 7 63 23 83c37 28 89 51 167 51c110 0 177 -48 177 -146c0 -151 -161 -257 -291 -320v-6z" />
    <glyph glyph-name="three" unicode="3" horiz-adv-x="503" 
d="M322 227c78 -13 140 -51 140 -148c0 -135 -120 -202 -275 -202c-53 0 -109 8 -142 21c-15 22 -20 57 -17 86c37 -15 98 -27 156 -27c95 0 187 33 187 123c0 72 -58 105 -220 105c-5 21 -1 57 10 74c92 1 227 30 227 132c0 62 -51 84 -119 84c-57 0 -110 -16 -151 -37
c-3 21 6 58 22 78c36 21 96 35 156 35c107 0 179 -44 179 -143c0 -93 -65 -157 -153 -177v-4z" />
    <glyph glyph-name="four" unicode="4" horiz-adv-x="545" 
d="M504 520l-42 -370h77c3 -4 5 -20 5 -33c0 -21 -4 -34 -8 -43h-82l-19 -167c-9 -4 -23 -6 -45 -6s-35 2 -43 6l22 167h-314c-7 18 -12 41 -12 69c107 139 235 277 367 399c32 -1 70 -8 94 -22zM377 149l30 218c4 33 9 63 16 89h-5c-96 -92 -201 -211 -275 -309v-5
c34 5 68 7 102 7h132z" />
    <glyph glyph-name="five" unicode="5" horiz-adv-x="503" 
d="M172 531h347c0 -29 -4 -56 -12 -78h-277l-36 -182c23 7 55 11 91 11c117 0 189 -52 189 -171c0 -151 -116 -234 -287 -234c-53 0 -103 8 -130 19c-17 26 -20 59 -17 87c32 -15 95 -25 147 -25c101 0 198 37 198 144c0 75 -47 104 -149 104c-47 0 -89 -6 -135 -20z" />
    <glyph glyph-name="six" unicode="6" horiz-adv-x="540" 
d="M179 317h5c29 45 82 78 162 78c121 0 182 -75 182 -186c0 -128 -80 -229 -235 -229c-141 0 -208 82 -208 244c0 197 104 421 329 421c41 0 78 -7 107 -23c14 -18 21 -58 16 -85c-31 21 -74 32 -118 32c-124 0 -212 -87 -240 -252zM318 319c-60 0 -107 -27 -144 -73
c-2 -10 -4 -24 -4 -42c0 -94 47 -147 129 -147c89 0 141 61 141 142c0 72 -42 120 -122 120z" />
    <glyph glyph-name="seven" unicode="7" horiz-adv-x="469" 
d="M405 451h-332c1 26 8 59 18 80h397c9 -21 13 -45 13 -77c-131 -161 -259 -379 -319 -546c-10 -4 -27 -8 -54 -8c-24 0 -38 3 -47 8c66 170 192 384 324 539v4z" />
    <glyph glyph-name="eight" unicode="8" horiz-adv-x="532" 
d="M392 334v-5c62 -27 111 -69 111 -154c0 -118 -96 -195 -233 -195c-101 0 -198 42 -198 162c0 96 63 160 157 189v5c-54 26 -93 64 -93 136c0 108 89 173 205 173c96 0 177 -43 177 -145c0 -78 -49 -140 -126 -166zM295 292c-66 -20 -136 -59 -136 -139
c0 -67 48 -99 116 -99c77 0 140 42 140 116c0 66 -46 94 -120 122zM324 371c59 19 115 54 115 119c0 58 -42 84 -102 84c-66 0 -120 -32 -120 -98c0 -62 43 -81 107 -105z" />
    <glyph glyph-name="nine" unicode="9" horiz-adv-x="530" 
d="M41 -11c31 -19 85 -33 135 -33c127 0 214 89 241 259h-5c-27 -40 -73 -78 -155 -78c-114 0 -174 74 -174 186c0 130 81 228 225 228c136 0 203 -86 203 -241c0 -190 -89 -433 -335 -433c-41 0 -87 7 -118 21c-16 20 -22 62 -17 91zM425 283c3 13 3 27 3 42
c0 99 -45 152 -123 152c-84 0 -137 -60 -137 -145c0 -75 40 -119 118 -119c62 0 103 29 139 70z" />
    <glyph glyph-name="colon" unicode=":" horiz-adv-x="233" 
d="M126 119c31 0 54 -18 54 -56c0 -37 -25 -61 -61 -61c-31 0 -53 19 -53 56c0 38 23 61 60 61zM166 481c31 0 53 -18 53 -55c0 -36 -24 -59 -59 -59c-31 0 -52 19 -52 55c0 37 22 59 58 59z" />
    <glyph glyph-name="semicolon" unicode=";" horiz-adv-x="229" 
d="M89 74c24 11 44 15 87 15c-13 -92 -52 -198 -93 -254c-29 4 -49 15 -61 35c36 61 58 129 67 204zM172 481c31 0 53 -18 53 -55c0 -36 -24 -59 -59 -59c-31 0 -52 19 -52 55c0 37 22 59 58 59z" />
    <glyph glyph-name="less" unicode="&#x3c;" 
d="M136 309l309 213c23 -9 48 -28 64 -49l-296 -199v-4l290 -197c-5 -25 -25 -54 -48 -64l-329 229c0 24 2 52 10 71z" />
    <glyph glyph-name="equal" unicode="=" 
d="M98 408h437c4 -8 6 -20 6 -38c0 -17 -2 -30 -6 -38h-450c0 24 5 60 13 76zM98 209h437c4 -8 6 -20 6 -38c0 -17 -2 -30 -6 -38h-450c0 24 5 60 13 76z" />
    <glyph glyph-name="greater" unicode="&#x3e;" 
d="M521 242l-331 -233c-24 12 -43 39 -47 65l291 195v4l-297 203c18 21 40 38 66 48l307 -211c7 -19 11 -47 11 -71z" />
    <glyph glyph-name="question" unicode="?" horiz-adv-x="374" 
d="M175 184c-27 22 -42 54 -42 94c0 143 206 173 206 284c0 44 -26 77 -96 77c-57 0 -116 -22 -167 -65c-3 22 6 67 22 89c34 28 93 55 171 55c106 0 161 -50 161 -144c0 -166 -216 -197 -216 -300c0 -24 7 -38 23 -54c-14 -20 -37 -32 -62 -36zM187 100c30 0 53 -18 53 -55
c0 -36 -25 -60 -60 -60c-30 0 -52 19 -52 55c0 37 23 60 59 60z" />
    <glyph glyph-name="at" unicode="@" horiz-adv-x="938" 
d="M567 146l48 245c-14 11 -44 16 -68 16c-50 0 -90 -20 -117 -50c-36 -40 -56 -110 -56 -174c0 -78 29 -105 78 -105c44 0 89 22 115 68zM691 431l-48 -278c-11 -61 8 -81 48 -81c105 0 188 133 188 290c0 202 -145 293 -313 293c-257 0 -434 -214 -434 -477
c0 -218 120 -347 327 -347c93 0 181 26 247 66c15 -10 28 -33 30 -54c-79 -48 -181 -78 -286 -78c-241 0 -386 156 -386 406c0 290 195 547 507 547c217 0 373 -123 373 -358c0 -228 -144 -356 -271 -356c-57 0 -93 26 -99 75h-4c-32 -51 -92 -75 -146 -75
c-77 0 -130 49 -130 169c0 76 21 158 73 219c44 51 104 82 185 82c63 0 108 -19 139 -43z" />
    <glyph glyph-name="A" unicode="A" horiz-adv-x="611" 
d="M511 5l-45 196h-269l-88 -196c-9 -6 -25 -8 -46 -8c-20 0 -36 2 -43 8l308 692c11 3 30 6 55 6c24 0 42 -3 52 -6l163 -692c-8 -6 -22 -8 -43 -8c-19 0 -36 2 -44 8zM228 276h223l-45 194c-12 51 -23 116 -28 176h-5c-16 -60 -38 -125 -61 -178z" />
    <glyph glyph-name="B" unicode="B" horiz-adv-x="611" 
d="M468 367v-5c72 -19 123 -68 123 -162c0 -148 -127 -205 -283 -205c-89 0 -155 3 -218 11l79 680c51 11 98 18 168 18c148 0 246 -51 246 -173c0 -73 -36 -143 -115 -164zM212 322l-26 -244c33 -4 76 -5 121 -5c93 0 196 23 196 129c0 81 -60 120 -162 120h-129zM243 622
l-24 -224h126c81 0 152 36 152 120c0 78 -62 111 -165 111c-29 0 -61 -2 -89 -7z" />
    <glyph glyph-name="C" unicode="C" horiz-adv-x="583" 
d="M549 95c2 -28 -7 -65 -27 -84c-40 -20 -88 -34 -158 -34c-176 0 -276 116 -276 323c0 213 108 418 348 418c56 0 105 -11 141 -33c14 -20 21 -58 14 -85c-45 26 -85 40 -141 40c-193 0 -273 -156 -273 -329c0 -179 84 -251 214 -251c62 0 116 16 158 35z" />
    <glyph glyph-name="D" unicode="D" horiz-adv-x="650" 
d="M89 5l80 680c47 11 93 17 153 17c199 0 327 -102 327 -329c0 -225 -124 -378 -375 -378c-64 0 -129 4 -185 10zM243 618l-56 -539c29 -4 67 -5 97 -5c189 0 276 126 276 296c0 177 -91 256 -239 256c-27 0 -55 -2 -78 -8z" />
    <glyph glyph-name="E" unicode="E" horiz-adv-x="562" 
d="M242 620l-25 -228h297c3 -5 6 -16 6 -30c0 -19 -5 -37 -10 -45h-300l-26 -238h331c3 -5 6 -15 6 -32c0 -20 -4 -38 -9 -47h-423l80 695h395c3 -5 6 -16 6 -30c0 -19 -5 -37 -10 -45h-318z" />
    <glyph glyph-name="F" unicode="F" horiz-adv-x="512" 
d="M243 618l-26 -246h277c3 -5 6 -16 6 -31c0 -19 -5 -37 -10 -45h-281l-30 -292c-9 -5 -22 -7 -45 -7s-37 2 -45 7l80 691h377c3 -5 6 -16 6 -31c0 -19 -5 -38 -10 -46h-299z" />
    <glyph glyph-name="G" unicode="G" horiz-adv-x="653" 
d="M595 29c-53 -28 -132 -52 -218 -52c-187 0 -290 114 -290 320c0 221 118 421 370 421c60 0 113 -12 152 -34c15 -20 21 -58 15 -85c-49 27 -101 41 -162 41c-197 0 -286 -155 -286 -335c0 -173 82 -246 214 -246c50 0 90 10 124 25l26 218h-162c-3 5 -6 17 -6 31
c0 19 5 36 10 44h248z" />
    <glyph glyph-name="H" unicode="H" horiz-adv-x="690" 
d="M515 4l37 317h-340l-33 -317c-9 -5 -22 -7 -45 -7c-22 0 -36 2 -44 7l79 687c8 5 22 7 42 7c19 0 32 -2 39 -7l-31 -293h341l33 293c9 5 22 7 42 7c19 0 32 -2 40 -7l-71 -687c-9 -5 -23 -7 -45 -7s-36 2 -44 7z" />
    <glyph glyph-name="I" unicode="I" horiz-adv-x="266" 
d="M90 4l79 687c8 5 22 7 42 7c19 0 32 -2 40 -7l-71 -687c-9 -5 -23 -7 -45 -7c-24 0 -37 2 -45 7z" />
    <glyph glyph-name="J" unicode="J" horiz-adv-x="298" 
d="M285 691l-58 -562c-18 -174 -87 -271 -219 -332c-22 16 -33 40 -35 73c107 52 151 125 166 257l64 564c8 5 22 7 42 7c19 0 32 -2 40 -7z" />
    <glyph glyph-name="K" unicode="K" horiz-adv-x="595" 
d="M90 4l79 687c8 5 22 7 42 7c19 0 32 -2 40 -7l-31 -296h75l234 295c12 5 30 8 53 8c21 0 36 -3 44 -8l-264 -335l219 -350c-8 -6 -24 -8 -50 -8c-25 0 -44 3 -55 8l-191 313h-73l-32 -314c-9 -5 -23 -7 -45 -7c-24 0 -37 2 -45 7z" />
    <glyph glyph-name="L" unicode="L" horiz-adv-x="529" 
d="M495 0h-406l79 691c8 5 22 7 42 7c19 0 32 -2 40 -7l-63 -611h313c2 -4 5 -15 5 -30c0 -22 -5 -40 -10 -50z" />
    <glyph glyph-name="M" unicode="M" horiz-adv-x="811" 
d="M647 4l70 633h-4c-17 -55 -51 -143 -72 -192l-190 -447c-10 -4 -24 -6 -45 -6c-19 0 -32 2 -41 6l-96 449c-12 57 -25 131 -31 189h-4l-64 -633c-7 -4 -21 -6 -40 -6c-18 0 -33 2 -40 6l79 687c12 4 32 7 62 7c31 0 47 -3 60 -7l92 -427c13 -59 29 -136 35 -198h4
c15 62 44 146 68 201l182 424c14 4 31 7 63 7s49 -3 61 -7l-69 -686c-8 -5 -21 -7 -41 -7c-19 0 -32 2 -39 7z" />
    <glyph glyph-name="N" unicode="N" horiz-adv-x="690" 
d="M237 623l-63 -620c-8 -4 -22 -6 -43 -6c-20 0 -35 2 -42 6l81 687c13 5 27 8 54 8c26 0 39 -3 51 -8l204 -453c20 -44 37 -103 46 -159h4l69 613c7 5 18 7 39 7c18 0 30 -2 37 -7l-70 -689c-12 -4 -32 -7 -59 -7c-26 0 -43 3 -54 7l-208 473c-19 43 -35 98 -42 148h-4z
" />
    <glyph glyph-name="O" unicode="O" horiz-adv-x="696" 
d="M91 298c0 214 98 420 326 420c162 0 266 -107 266 -322c0 -193 -83 -419 -329 -419c-168 0 -263 108 -263 321zM410 640c-171 0 -230 -183 -230 -337c0 -159 63 -245 180 -245c177 0 234 193 234 337c0 156 -64 245 -184 245z" />
    <glyph glyph-name="P" unicode="P" horiz-adv-x="563" 
d="M331 240c-48 0 -94 4 -126 10l-26 -246c-9 -5 -23 -7 -45 -7c-24 0 -37 2 -45 7l79 680c48 13 93 21 163 21c164 0 263 -68 263 -222c0 -146 -92 -243 -263 -243zM243 619l-31 -293c30 -6 65 -9 113 -9c112 0 182 50 182 161c0 109 -68 151 -173 151
c-34 0 -66 -4 -91 -10z" />
    <glyph glyph-name="Q" unicode="Q" horiz-adv-x="696" 
d="M91 298c0 214 98 420 327 420c163 0 267 -107 267 -322c0 -145 -47 -309 -174 -380c18 -76 64 -101 134 -101c38 0 63 5 93 17c4 -23 -6 -59 -22 -75c-24 -11 -57 -19 -97 -19c-97 0 -162 51 -183 149c-25 -7 -52 -10 -81 -10c-169 0 -264 108 -264 321zM411 640
c-172 0 -231 -183 -231 -337c0 -159 63 -245 181 -245c178 0 235 193 235 337c0 156 -64 245 -185 245z" />
    <glyph glyph-name="R" unicode="R" horiz-adv-x="600" 
d="M336 261c-51 0 -99 3 -130 9l-28 -266c-9 -5 -23 -7 -45 -7c-24 0 -36 2 -44 7l79 682c46 12 96 19 163 19c161 0 259 -65 259 -212c0 -105 -50 -180 -144 -213l139 -275c-8 -6 -23 -8 -48 -8c-24 0 -41 3 -51 8l-125 257c-4 -1 -21 -1 -25 -1zM242 619l-30 -273
c23 -5 63 -9 104 -9c119 0 188 44 188 150c0 103 -68 142 -171 142c-33 0 -66 -4 -91 -10z" />
    <glyph glyph-name="S" unicode="S" horiz-adv-x="525" 
d="M511 583c-42 32 -93 58 -163 58c-80 0 -140 -33 -140 -111c0 -169 297 -94 297 -334c0 -139 -90 -219 -256 -219c-76 0 -138 17 -179 39c-17 23 -25 65 -18 99c49 -32 121 -57 200 -57c93 0 165 35 165 129c0 176 -294 103 -294 334c0 122 79 197 220 197
c60 0 112 -14 152 -44c16 -22 22 -62 16 -91z" />
    <glyph glyph-name="T" unicode="T" horiz-adv-x="530" 
d="M577 618h-200l-64 -614c-9 -5 -23 -7 -45 -7c-24 0 -37 2 -45 7l71 614h-199c-3 6 -6 16 -6 31c0 19 5 38 10 46h482c3 -6 6 -16 6 -31c0 -19 -5 -38 -10 -46z" />
    <glyph glyph-name="U" unicode="U" horiz-adv-x="666" 
d="M241 691l-45 -438c-15 -142 37 -195 146 -195c119 0 175 65 189 193l48 440c8 5 21 7 39 7c20 0 33 -2 40 -7l-42 -441c-17 -178 -104 -273 -281 -273c-168 0 -229 85 -229 217c0 19 2 43 4 62l50 435c8 5 21 7 41 7c19 0 33 -2 40 -7z" />
    <glyph glyph-name="V" unicode="V" horiz-adv-x="581" 
d="M301 60h5c14 57 33 119 53 164l201 466c10 5 26 8 47 8c20 0 35 -3 42 -8l-298 -691c-10 -4 -32 -7 -58 -7c-25 0 -45 3 -56 7l-149 691c9 5 22 8 42 8c21 0 35 -3 45 -8l101 -464c10 -45 21 -108 25 -166z" />
    <glyph glyph-name="W" unicode="W" horiz-adv-x="872" 
d="M642 51h4c11 52 23 105 36 143l162 496c8 5 21 8 40 8s32 -3 39 -8l-225 -691c-12 -4 -34 -7 -62 -7c-27 0 -47 3 -59 7l-56 481c-6 48 -12 111 -12 166h-4c-10 -54 -26 -119 -42 -165l-162 -482c-12 -4 -34 -7 -61 -7s-45 3 -58 7l-79 691c9 5 21 8 40 8
c20 0 33 -3 42 -8l54 -489c5 -41 10 -99 10 -150h4c10 53 23 108 36 145l171 501c11 3 30 6 55 6c26 0 44 -3 55 -6l59 -494c5 -41 10 -100 13 -152z" />
    <glyph glyph-name="X" unicode="X" horiz-adv-x="572" 
d="M222 689l95 -191c11 -22 22 -51 28 -74h4c10 23 27 55 42 75l136 190c9 6 26 9 47 9s36 -3 44 -9l-235 -330l175 -354c-7 -6 -22 -8 -44 -8c-24 0 -39 2 -50 8l-110 227c-11 23 -21 48 -27 72h-4c-11 -23 -27 -51 -44 -74l-162 -225c-10 -6 -28 -8 -51 -8
c-21 0 -39 2 -46 8l267 369l-152 315c8 6 20 9 43 9c21 0 34 -3 44 -9z" />
    <glyph glyph-name="Y" unicode="Y" horiz-adv-x="533" 
d="M251 250l-167 440c9 5 23 8 44 8c20 0 35 -3 45 -8l101 -260c14 -35 24 -75 30 -117h5c11 43 28 87 46 117l156 260c10 5 27 8 47 8c21 0 37 -3 44 -8l-264 -445l-25 -241c-9 -5 -23 -7 -46 -7c-22 0 -36 2 -44 7z" />
    <glyph glyph-name="Z" unicode="Z" horiz-adv-x="544" 
d="M565 626l-398 -542v-5h348c3 -6 6 -16 6 -32c0 -20 -5 -38 -10 -47h-446c-9 19 -12 43 -12 71l408 543v5h-325c-3 6 -5 18 -5 32c0 19 4 35 9 44h415c7 -19 10 -40 10 -69z" />
    <glyph glyph-name="bracketleft" unicode="[" horiz-adv-x="277" 
d="M57 -194l107 945h155c6 -15 9 -42 9 -71h-96l-84 -799h95c3 -5 6 -16 6 -30c0 -19 -5 -37 -10 -45h-182z" />
    <glyph glyph-name="backslash" unicode="\" horiz-adv-x="388" 
d="M144 755l251 -908c-19 -17 -45 -25 -72 -26l-240 890c13 20 37 38 61 44z" />
    <glyph glyph-name="bracketright" unicode="]" horiz-adv-x="277" 
d="M280 751l-98 -945h-176c-3 5 -6 16 -6 30c0 19 5 37 10 45h96l91 799h-93c0 23 6 52 15 71h161z" />
    <glyph glyph-name="asciicircum" unicode="^" 
d="M359 678l198 -317c-14 -21 -40 -35 -69 -38l-126 202c-14 23 -29 54 -39 88h-4c-9 -31 -24 -66 -38 -89l-130 -207c-23 14 -43 37 -52 62l181 290c20 5 52 8 79 9z" />
    <glyph glyph-name="underscore" unicode="_" horiz-adv-x="500" 
d="M-1 -165h505c2 -4 5 -15 5 -30c0 -21 -4 -36 -8 -44h-518c0 24 6 54 16 74z" />
    <glyph glyph-name="grave" unicode="`" horiz-adv-x="434" 
d="M273 742l89 -152c-12 -18 -26 -29 -50 -34l-111 156c16 17 44 30 72 30z" />
    <glyph glyph-name="a" unicode="a" horiz-adv-x="544" 
d="M501 456l-39 -342c-6 -50 9 -56 35 -56c18 0 31 6 43 13c4 -25 -5 -61 -18 -75c-15 -11 -33 -16 -61 -16c-48 0 -80 22 -79 82h-4c-26 -45 -76 -82 -151 -82c-85 0 -154 46 -154 198c0 85 22 165 66 225c51 69 125 99 211 99c65 0 111 -17 151 -46zM382 133l35 281
c-18 12 -42 17 -71 17c-66 0 -111 -26 -139 -63c-36 -47 -49 -119 -49 -178c0 -89 29 -130 99 -130c60 0 96 32 125 73z" />
    <glyph glyph-name="b" unicode="b" horiz-adv-x="526" 
d="M81 12l89 706c20 11 45 16 79 16l-20 -170c-7 -60 -16 -106 -27 -156h4c30 58 87 94 161 94c99 0 150 -68 150 -195c0 -89 -25 -187 -72 -245c-45 -55 -120 -82 -208 -82c-69 0 -127 17 -156 32zM200 329l-30 -262c17 -7 48 -13 79 -13c54 0 92 17 120 45
c46 46 63 120 63 190c0 94 -29 137 -96 137c-65 0 -104 -42 -136 -97z" />
    <glyph glyph-name="c" unicode="c" horiz-adv-x="452" 
d="M400 9c-31 -17 -71 -29 -123 -29c-132 0 -202 79 -202 227c0 67 14 133 46 186c41 66 109 109 208 109c46 0 80 -9 106 -27c13 -19 19 -55 13 -82c-33 22 -64 33 -108 33c-70 0 -118 -29 -147 -76c-23 -38 -33 -81 -33 -131c0 -112 52 -159 144 -159c48 0 86 13 120 30
c3 -26 -7 -62 -24 -81z" />
    <glyph glyph-name="d" unicode="d" horiz-adv-x="547" 
d="M386 134l34 276c-22 14 -43 19 -73 19c-66 0 -111 -25 -140 -63c-35 -46 -49 -118 -49 -176c0 -87 32 -130 103 -130c61 0 96 33 125 74zM536 734l-70 -620c-6 -50 9 -56 35 -56c18 0 31 6 43 13c4 -25 -5 -61 -18 -75c-15 -11 -33 -16 -61 -16c-46 0 -82 22 -79 82h-4
c-26 -46 -75 -82 -151 -82c-88 0 -158 46 -158 200c0 85 21 163 63 222c50 70 121 100 203 100c36 0 65 -6 89 -19l29 235c20 11 45 16 79 16z" />
    <glyph glyph-name="e" unicode="e" horiz-adv-x="477" 
d="M482 382c0 -91 -71 -177 -323 -184c0 -108 35 -141 118 -141c66 0 118 21 169 61c1 -27 -9 -68 -25 -86c-32 -25 -90 -52 -166 -52c-123 0 -180 70 -180 202c0 88 26 172 76 232c46 55 112 88 190 88c90 0 141 -44 141 -120zM165 268c171 3 238 47 238 109
c0 32 -17 55 -70 55s-96 -23 -128 -66c-18 -25 -32 -57 -40 -98z" />
    <glyph glyph-name="f" unicode="f" horiz-adv-x="295" 
d="M88 482h62l11 92c17 138 85 175 165 175c31 0 64 -6 89 -24c13 -19 17 -55 10 -82c-30 23 -54 31 -88 31c-65 0 -90 -32 -97 -100l-10 -92h122c3 -5 6 -14 6 -31c0 -20 -4 -35 -9 -44h-127l-62 -558c-8 -5 -21 -7 -43 -7s-35 2 -43 7l67 558h-69c0 25 7 58 16 75z" />
    <glyph glyph-name="g" unicode="g" horiz-adv-x="523" 
d="M384 71h-4c-29 -46 -80 -78 -151 -78c-87 0 -157 45 -157 193c0 82 22 165 66 221c50 65 131 95 214 95c66 0 111 -18 151 -46l-53 -476c-16 -145 -71 -233 -230 -233c-53 0 -108 10 -149 32c-14 27 -14 67 -4 91c47 -30 102 -45 152 -45c95 0 133 52 146 150
c3 25 11 72 19 96zM386 142l33 272c-21 11 -45 17 -76 17c-65 0 -108 -27 -138 -64c-35 -43 -48 -112 -48 -167c0 -87 33 -127 103 -127c59 0 95 28 126 69z" />
    <glyph glyph-name="h" unicode="h" horiz-adv-x="559" 
d="M81 4l90 714c20 11 45 16 79 16l-21 -178c-6 -53 -15 -108 -25 -152h4c24 49 76 98 165 98c90 0 135 -48 135 -138c0 -19 -1 -38 -3 -54l-21 -196c-5 -48 9 -56 33 -56c20 0 31 5 45 13c4 -25 -5 -61 -18 -75c-15 -10 -33 -16 -61 -16c-68 0 -87 37 -87 91
c0 12 1 26 3 40l24 187c2 15 3 27 3 41c0 47 -18 86 -83 86c-68 0 -110 -44 -140 -99l-37 -322c-8 -5 -21 -7 -43 -7s-34 2 -42 7z" />
    <glyph glyph-name="i" unicode="i" horiz-adv-x="257" 
d="M217 478l-41 -364c-6 -50 9 -56 35 -56c18 0 31 6 43 13c4 -25 -5 -61 -18 -75c-15 -10 -33 -16 -61 -16c-68 0 -87 37 -87 91c0 12 1 26 3 40l47 367c9 5 20 7 40 7c19 0 32 -2 39 -7zM200 707c30 0 52 -17 52 -54c0 -35 -24 -58 -58 -58c-30 0 -51 18 -51 54
s22 58 57 58z" />
    <glyph glyph-name="j" unicode="j" horiz-adv-x="239" 
d="M223 478l-49 -429c-17 -152 -88 -228 -171 -290c-25 8 -43 33 -47 61c62 47 117 105 132 222l56 436c9 5 20 7 40 7c19 0 32 -2 39 -7zM201 707c30 0 52 -17 52 -54c0 -35 -24 -58 -58 -58c-30 0 -51 18 -51 54s22 58 57 58z" />
    <glyph glyph-name="k" unicode="k" horiz-adv-x="502" 
d="M80 4l90 714c20 11 45 16 79 16l-50 -438h62l157 184c7 3 20 6 37 6c27 0 46 -6 54 -12l-182 -210c38 -118 76 -209 145 -209c19 0 30 5 41 13c4 -24 -4 -61 -18 -76c-12 -8 -30 -12 -50 -12c-110 0 -162 147 -188 247h-66l-26 -223c-8 -5 -21 -7 -43 -7s-34 2 -42 7z
" />
    <glyph glyph-name="l" unicode="l" horiz-adv-x="265" 
d="M247 734l-71 -620c-6 -48 10 -56 37 -56c24 0 40 7 54 16c4 -25 -5 -61 -18 -75c-18 -12 -41 -19 -70 -19c-56 0 -91 25 -91 89c0 11 2 31 3 42l78 607c19 11 44 16 78 16z" />
    <glyph glyph-name="m" unicode="m" horiz-adv-x="842" 
d="M498 329l-35 -325c-8 -5 -21 -7 -43 -7c-20 0 -33 2 -41 7l36 293c7 58 6 128 -78 128c-65 0 -108 -44 -135 -99l-37 -322c-8 -5 -21 -7 -43 -7s-34 2 -42 7l59 474c15 7 38 11 67 11l-4 -87h4c26 53 76 100 163 100c78 0 116 -38 126 -102h5c24 53 73 102 163 102
c88 0 128 -47 128 -144c0 -17 -1 -33 -3 -48l-21 -196c-5 -48 9 -56 33 -56c20 0 31 5 45 13c4 -25 -5 -61 -18 -75c-15 -10 -33 -16 -61 -16c-68 0 -87 37 -87 91c0 12 1 26 3 40l24 187c2 15 3 27 3 41c0 47 -17 86 -79 86c-64 0 -104 -43 -132 -96z" />
    <glyph glyph-name="n" unicode="n" horiz-adv-x="554" 
d="M80 4l59 474c15 7 38 11 67 11l-4 -87h4c27 53 76 100 165 100c88 0 132 -48 132 -138c0 -19 -1 -38 -3 -54l-21 -196c-5 -48 9 -56 33 -56c20 0 31 5 45 13c4 -25 -5 -61 -18 -75c-15 -10 -33 -16 -61 -16c-68 0 -87 37 -87 91c0 12 1 26 3 40l24 187c2 15 3 27 3 41
c0 47 -17 86 -80 86c-68 0 -109 -43 -139 -99l-37 -322c-8 -5 -21 -7 -43 -7s-34 2 -42 7z" />
    <glyph glyph-name="o" unicode="o" horiz-adv-x="523" 
d="M319 502c117 0 192 -76 192 -221c0 -72 -18 -157 -58 -213c-37 -52 -99 -88 -183 -88c-126 0 -194 79 -194 217c0 65 15 135 44 188c38 69 106 117 199 117zM316 430c-58 0 -101 -31 -125 -80c-21 -42 -30 -107 -30 -148c0 -98 38 -148 114 -148c54 0 88 25 112 62
c27 41 39 103 39 161c0 96 -38 153 -110 153z" />
    <glyph glyph-name="p" unicode="p" horiz-adv-x="526" 
d="M52 -229l87 707c15 7 38 11 67 11l-4 -85h4c30 63 89 98 163 98c117 0 148 -89 148 -201c0 -85 -18 -177 -71 -240c-41 -49 -104 -81 -189 -81c-31 0 -68 3 -93 16l-26 -225c-8 -5 -21 -7 -43 -7s-35 2 -43 7zM200 324l-29 -252c18 -9 48 -16 81 -16c51 0 89 16 116 42
c47 45 64 121 64 190c0 94 -31 137 -96 137c-67 0 -105 -44 -136 -101z" />
    <glyph glyph-name="q" unicode="q" horiz-adv-x="524" 
d="M385 61h-4c-27 -44 -73 -81 -151 -81c-87 0 -157 45 -157 200c0 87 22 164 66 223c52 71 124 99 211 99c66 0 116 -18 155 -46l-78 -685c-8 -5 -21 -7 -43 -7s-35 2 -43 7l22 179c5 43 13 82 22 111zM385 129l36 283c-20 13 -46 19 -77 19c-67 0 -110 -27 -138 -65
c-34 -47 -48 -115 -48 -175c0 -90 31 -131 102 -131c60 0 96 30 125 69z" />
    <glyph glyph-name="r" unicode="r" horiz-adv-x="354" 
d="M206 489l-5 -102h4c21 78 69 115 134 115c23 0 37 -4 48 -10c6 -9 10 -22 10 -43c0 -19 -3 -34 -8 -45c-15 10 -36 15 -56 15c-65 0 -109 -50 -137 -143l-31 -272c-8 -5 -21 -7 -43 -7s-34 2 -42 7l59 474c15 7 38 11 67 11z" />
    <glyph glyph-name="s" unicode="s" horiz-adv-x="405" 
d="M54 96c34 -24 93 -42 145 -42c61 0 104 20 104 75c0 108 -202 68 -202 227c0 88 57 146 161 146c53 0 92 -15 117 -34c13 -18 20 -57 14 -84c-38 30 -77 47 -123 47c-51 0 -87 -18 -87 -66c0 -103 204 -66 204 -224c0 -102 -72 -161 -190 -161c-52 0 -110 12 -142 31
c-13 24 -12 63 -1 85z" />
    <glyph glyph-name="t" unicode="t" horiz-adv-x="344" 
d="M88 482h61l15 114c21 14 46 21 80 21l-16 -135h130c3 -5 6 -14 6 -31c0 -20 -4 -35 -9 -44h-136l-30 -258c-7 -57 2 -90 60 -90c31 0 61 10 89 34c4 -29 -5 -64 -19 -83c-28 -20 -59 -30 -101 -30c-86 0 -117 42 -117 113c0 15 2 37 4 52l34 262h-67c0 25 7 58 16 75z
" />
    <glyph glyph-name="u" unicode="u" horiz-adv-x="549" 
d="M214 487l-36 -311c-2 -15 -3 -28 -3 -39c0 -46 17 -77 79 -77c66 0 101 34 133 81l42 337c9 5 20 7 40 7c19 0 32 -2 39 -7l-40 -364c-6 -50 9 -56 35 -56c18 0 31 6 43 13c4 -25 -5 -61 -18 -75c-15 -11 -32 -16 -60 -16c-48 0 -83 22 -81 86h-4
c-25 -45 -71 -86 -161 -86c-100 0 -134 52 -134 132c0 16 2 37 4 52l41 308c22 11 45 15 81 15z" />
    <glyph glyph-name="v" unicode="v" horiz-adv-x="442" 
d="M171 4l-116 471c8 6 25 11 49 11c16 0 25 -2 32 -6l80 -324c8 -31 12 -61 14 -98h4c80 129 150 261 150 341c0 19 -9 33 -37 33c-21 0 -38 -8 -49 -16c-2 26 7 54 18 67c13 10 34 19 65 19c62 0 86 -37 86 -89c0 -107 -101 -289 -197 -423c-39 0 -70 4 -99 14z" />
    <glyph glyph-name="w" unicode="w" horiz-adv-x="714" 
d="M143 480l49 -321c5 -32 7 -70 6 -108h4c53 128 107 280 143 422c30 11 72 15 114 15l57 -333c5 -27 6 -73 5 -104h4c66 120 134 272 134 348c0 21 -8 33 -37 33c-17 0 -33 -7 -45 -15c-2 26 7 53 18 66c12 10 32 19 61 19c60 0 81 -39 81 -90c0 -113 -108 -328 -175 -422
c-36 0 -66 4 -92 13l-54 311c-6 35 -10 83 -11 119h-4c-16 -100 -98 -335 -154 -443c-42 0 -78 4 -110 13l-70 472c8 6 21 11 45 11c16 0 24 -2 31 -6z" />
    <glyph glyph-name="x" unicode="x" horiz-adv-x="464" 
d="M270 309c7 21 21 43 32 57l88 115c8 3 21 5 35 5c23 0 42 -5 50 -11l-174 -227c58 -151 79 -192 132 -192c21 0 37 7 49 17c5 -25 -4 -63 -18 -78c-13 -10 -32 -15 -55 -15c-91 0 -124 81 -170 215h-4c-5 -17 -20 -43 -32 -58l-104 -134c-11 -5 -33 -7 -54 -7
c-20 0 -36 2 -43 7l209 264l-86 208c8 6 25 11 48 11c16 0 27 -2 34 -6l44 -115c6 -15 12 -37 15 -56h4z" />
    <glyph glyph-name="y" unicode="y" horiz-adv-x="443" 
d="M239 41h4c70 121 147 283 147 357c0 22 -9 34 -38 34c-20 0 -38 -8 -48 -16c-3 24 7 54 18 67c14 10 33 19 65 19c62 0 85 -38 85 -89c0 -116 -123 -339 -190 -433c-81 -113 -155 -181 -271 -224c-19 15 -29 44 -29 76c85 25 153 82 204 151l-129 492c8 6 26 11 50 11
c16 0 25 -2 32 -6l84 -327c8 -29 16 -73 16 -112z" />
    <glyph glyph-name="z" unicode="z" horiz-adv-x="425" 
d="M429 416c-81 -120 -165 -231 -260 -337v-4h229c3 -4 5 -13 5 -31c0 -20 -4 -34 -8 -44h-336c-8 18 -12 37 -12 63c100 108 198 222 285 343v4h-234c1 24 7 53 16 72h301c9 -17 14 -40 14 -66z" />
    <glyph glyph-name="braceleft" unicode="{" horiz-adv-x="295" 
d="M149 296v-4c50 -19 59 -62 51 -146l-18 -182c-7 -73 13 -94 73 -97c7 -21 4 -58 -6 -76c-131 2 -161 57 -149 170l19 175c9 79 3 112 -60 122c0 21 9 53 18 71c55 7 68 39 76 104l19 164c12 104 53 168 181 171c0 -23 -7 -55 -16 -72c-56 -2 -83 -26 -90 -99l-16 -160
c-8 -77 -29 -126 -82 -141z" />
    <glyph glyph-name="bar" unicode="|" horiz-adv-x="268" 
d="M206 751v-932c-6 -4 -20 -7 -39 -7s-33 3 -39 7v920c21 8 45 12 78 12z" />
    <glyph glyph-name="braceright" unicode="}" horiz-adv-x="295" 
d="M129 767c116 -9 139 -76 129 -174l-16 -160c-7 -70 1 -94 51 -104c7 -17 11 -44 11 -71c-62 -5 -84 -36 -92 -111l-20 -186c-11 -106 -50 -165 -174 -170c-11 16 -12 55 -5 76c65 1 89 25 98 96l22 186c9 79 33 125 83 140v4c-51 16 -61 62 -52 134l19 161
c9 76 -14 102 -72 108c0 24 7 54 18 71z" />
    <glyph glyph-name="asciitilde" unicode="~" 
d="M126 209c-19 14 -31 34 -36 61c20 45 65 75 128 75c89 0 123 -58 203 -58c36 0 57 17 69 44c25 -2 51 -11 65 -28c-23 -59 -70 -96 -138 -96c-95 0 -122 59 -204 59c-44 0 -72 -26 -87 -57z" />
    <glyph glyph-name="uni00A0" unicode="&#xa0;" horiz-adv-x="170" 
 />
    <glyph glyph-name="exclamdown" unicode="&#xa1;" horiz-adv-x="271" 
d="M202 277l-42 -487c-9 -5 -23 -8 -47 -8s-37 3 -46 8l65 482c9 5 23 9 43 9c13 0 22 -2 27 -4zM189 498c30 0 53 -18 53 -55c0 -36 -25 -60 -60 -60c-30 0 -52 19 -52 55c0 37 23 60 59 60z" />
    <glyph glyph-name="cent" unicode="&#xa2;" horiz-adv-x="440" 
d="M424 130c3 -25 -5 -62 -23 -80c-25 -16 -55 -26 -98 -28l-8 -75c-7 -4 -18 -6 -38 -6c-18 0 -29 2 -36 6l10 78c-101 17 -155 91 -155 208c0 132 72 249 216 265l9 75c20 7 41 10 69 10l-10 -84c28 -3 54 -12 73 -25c15 -20 19 -56 13 -83c-35 22 -66 33 -111 33
c-111 0 -171 -76 -171 -182c0 -101 51 -143 139 -143c51 0 89 13 121 31z" />
    <glyph glyph-name="sterling" unicode="&#xa3;" horiz-adv-x="451" 
d="M88 303h54c-5 18 -10 40 -10 67c0 112 71 181 191 181c47 0 86 -11 115 -31c15 -21 22 -63 15 -91c-32 29 -74 46 -124 46c-67 0 -112 -30 -112 -105c0 -25 5 -48 12 -67h167c2 -3 5 -12 5 -25c0 -19 -4 -32 -8 -38h-152c2 -9 3 -20 3 -31c0 -52 -25 -100 -71 -131v-5
h269c3 -7 6 -15 6 -31c0 -19 -4 -34 -9 -42h-359c-6 17 -11 42 -11 66c50 30 88 71 88 138c0 14 -1 26 -4 36h-79c0 20 6 48 14 63z" />
    <glyph glyph-name="currency" unicode="&#xa4;" horiz-adv-x="516" 
d="M310 478c39 0 77 -9 107 -29l69 79c22 -8 43 -27 52 -49l-74 -79c17 -27 27 -65 27 -111c0 -69 -22 -126 -57 -165l54 -74c-12 -20 -37 -37 -62 -44l-50 72c-32 -17 -69 -26 -109 -26c-42 0 -77 9 -105 28l-70 -77c-24 9 -44 28 -54 50l76 79c-18 30 -27 68 -27 113
c0 71 22 125 57 163l-53 76c13 20 36 37 63 43l49 -74c33 17 69 25 107 25zM302 412c-92 0 -140 -73 -140 -164c0 -81 38 -129 112 -129c97 0 143 85 143 167c0 79 -42 126 -115 126z" />
    <glyph glyph-name="yen" unicode="&#xa5;" horiz-adv-x="479" 
d="M72 157h146l3 30l-31 74h-110c0 19 6 43 14 59h72l-85 204c8 6 22 12 47 12c20 0 31 -3 38 -7l79 -185c11 -26 20 -61 25 -98h4c10 35 27 75 43 99l120 184c7 4 21 7 39 7c25 0 42 -5 50 -11l-133 -205h68c2 -4 4 -12 4 -24c0 -17 -3 -29 -6 -35h-105l-47 -73l-3 -31h141
c2 -4 4 -12 4 -24c0 -17 -3 -29 -6 -35h-145l-10 -94c-9 -5 -22 -7 -44 -7c-23 0 -36 2 -44 7l11 94h-153c0 19 6 43 14 59z" />
    <glyph glyph-name="brokenbar" unicode="&#xa6;" horiz-adv-x="268" 
d="M206 176v-357c-6 -4 -20 -7 -39 -7s-33 3 -39 7v345c21 8 45 12 78 12zM206 751v-342c-6 -4 -20 -7 -39 -7s-33 3 -39 7v330c21 8 45 12 78 12z" />
    <glyph glyph-name="section" unicode="&#xa7;" horiz-adv-x="439" 
d="M434 232c0 -59 -25 -111 -69 -149c3 -13 5 -25 5 -41c0 -109 -77 -165 -203 -165c-60 0 -104 13 -135 30c-15 19 -21 54 -17 83c34 -25 93 -45 156 -45c65 0 122 21 122 93c0 125 -228 106 -228 283c0 61 28 110 80 146c-3 10 -4 20 -4 32c0 93 68 146 173 146
c46 0 82 -10 112 -30c13 -18 20 -54 16 -80c-33 28 -79 46 -129 46c-51 0 -99 -20 -99 -76c0 -111 220 -94 220 -273zM358 221c0 110 -131 118 -183 191c-23 -18 -37 -50 -37 -83c0 -102 140 -109 193 -189c17 20 27 49 27 81z" />
    <glyph glyph-name="dieresis" unicode="&#xa8;" horiz-adv-x="434" 
d="M189 674c27 0 46 -15 46 -48c0 -31 -21 -51 -51 -51c-27 0 -45 16 -45 48s19 51 50 51zM383 674c27 0 46 -15 46 -48c0 -31 -21 -51 -51 -51c-27 0 -45 16 -45 48s19 51 50 51z" />
    <glyph glyph-name="copyright" unicode="&#xa9;" horiz-adv-x="741" 
d="M742 368c0 -207 -142 -391 -365 -391c-186 0 -308 127 -308 318c0 211 147 398 368 398c186 0 305 -134 305 -325zM379 27c185 0 311 151 311 337c0 164 -99 282 -256 282c-178 0 -313 -153 -313 -343c0 -168 102 -276 258 -276zM533 446c-27 15 -51 23 -87 23
c-85 0 -131 -62 -131 -146c0 -82 40 -115 106 -115c39 0 69 9 95 21c3 -22 -6 -56 -20 -71c-21 -11 -51 -20 -94 -20c-103 0 -160 66 -160 177c0 115 65 220 199 220c34 0 59 -5 80 -17c12 -15 18 -50 12 -72z" />
    <glyph glyph-name="ordfeminine" unicode="&#xaa;" horiz-adv-x="357" 
d="M369 613l-23 -212c-3 -26 5 -33 21 -33c13 0 23 4 30 10c4 -19 -3 -48 -14 -59c-10 -7 -25 -11 -42 -11c-33 0 -54 14 -57 51h-4c-16 -29 -46 -51 -96 -51c-58 0 -105 29 -105 130c0 133 80 207 186 207c44 0 77 -12 104 -32zM283 415l21 163c-13 7 -26 11 -46 11
c-81 0 -113 -76 -113 -143c0 -52 18 -75 61 -75c35 0 59 18 77 44zM78 254h271c2 -3 5 -11 5 -25c0 -16 -4 -28 -8 -34h-281c0 19 5 44 13 59z" />
    <glyph glyph-name="guillemotleft" unicode="&#xab;" horiz-adv-x="489" 
d="M171 255c18 -65 41 -128 68 -188c-18 -18 -41 -27 -70 -31c-33 66 -64 145 -85 217c36 69 74 128 117 188c21 11 56 18 90 18c-46 -69 -86 -136 -120 -204zM358 255c18 -65 41 -128 68 -188c-18 -18 -41 -27 -70 -31c-33 66 -64 145 -85 217c36 69 74 128 117 188
c21 11 56 18 90 18c-46 -69 -86 -136 -120 -204z" />
    <glyph glyph-name="logicalnot" unicode="&#xac;" 
d="M540 324v-209c-7 -4 -24 -7 -43 -7s-34 3 -41 7v131h-376c0 25 5 61 13 78h447z" />
    <glyph glyph-name="uni00AD" unicode="&#xad;" horiz-adv-x="312" 
d="M82 312h221c3 -5 6 -17 6 -31c0 -20 -5 -39 -10 -47h-234c0 25 7 59 17 78z" />
    <glyph glyph-name="registered" unicode="&#xae;" horiz-adv-x="489" 
d="M527 573c0 -138 -91 -263 -244 -263c-125 0 -203 83 -203 212c0 140 94 263 244 263c124 0 203 -83 203 -212zM286 355c121 0 197 93 197 213c0 105 -58 174 -160 174c-118 0 -198 -94 -198 -216c0 -108 61 -171 161 -171zM339 441l-27 69c-16 -2 -37 0 -45 2l-8 -71
c-4 -3 -13 -5 -26 -5s-21 2 -26 5l29 223c23 7 46 10 70 10c61 0 96 -25 96 -77c0 -35 -16 -60 -43 -74l40 -82c-5 -3 -13 -5 -28 -5c-14 0 -26 3 -32 5zM280 626l-9 -68c7 -1 20 -2 33 -2c24 0 48 9 48 38c0 24 -18 35 -46 35c-10 0 -19 -1 -26 -3z" />
    <glyph glyph-name="macron" unicode="&#xaf;" horiz-adv-x="434" 
d="M167 654h249c3 -5 5 -12 5 -26c0 -19 -3 -32 -7 -39h-263c0 21 6 47 16 65z" />
    <glyph glyph-name="degree" unicode="&#xb0;" horiz-adv-x="363" 
d="M253 645c77 0 126 -46 126 -127c0 -83 -52 -158 -150 -158c-79 0 -125 47 -125 129c0 89 55 156 149 156zM249 585c-49 0 -81 -35 -81 -90c0 -46 22 -74 64 -74c52 0 83 44 83 94c0 43 -23 70 -66 70z" />
    <glyph glyph-name="plusminus" unicode="&#xb1;" 
d="M124 414h154v154c20 9 50 12 80 12v-166h160c3 -6 6 -20 6 -38c0 -17 -3 -30 -6 -37h-160v-162c-7 -4 -21 -7 -40 -7s-33 3 -40 7v162h-166c0 23 4 59 12 75zM122 75h400c3 -6 6 -20 6 -38c0 -17 -3 -30 -6 -37h-412c0 23 4 59 12 75z" />
    <glyph glyph-name="twosuperior" unicode="&#xb2;" horiz-adv-x="385" 
d="M161 738c22 20 60 34 106 34c71 0 117 -33 117 -102c0 -91 -82 -168 -163 -219v-4h149c2 -4 5 -13 5 -30c0 -18 -3 -30 -7 -37h-255c-6 14 -8 36 -8 58c68 55 205 133 205 219c0 33 -22 49 -66 49c-37 0 -63 -11 -96 -34c-3 22 2 48 13 66z" />
    <glyph glyph-name="threesuperior" unicode="&#xb3;" horiz-adv-x="385" 
d="M190 605h8c49 0 116 12 116 64c0 31 -27 41 -60 41c-37 0 -71 -12 -96 -27c-4 16 4 51 18 66c20 14 59 23 97 23c67 0 115 -27 115 -93c0 -51 -28 -87 -78 -98v-3c39 -9 70 -32 70 -88c0 -82 -72 -119 -163 -119c-35 0 -69 6 -93 15c-13 18 -17 49 -14 72
c26 -12 67 -22 107 -22c49 0 89 15 89 55c0 39 -32 54 -112 54h-8c-5 14 -4 45 4 60z" />
    <glyph glyph-name="acute" unicode="&#xb4;" horiz-adv-x="434" 
d="M405 710l-153 -156c-22 7 -35 20 -42 42l122 144c27 0 58 -10 73 -30z" />
    <glyph glyph-name="mu" unicode="&#xb5;" horiz-adv-x="561" 
d="M49 -229l90 701c22 11 45 15 81 15l-37 -311c-2 -15 -3 -28 -3 -39c0 -43 18 -77 81 -77c68 0 104 34 137 81l43 337c9 5 20 7 40 7c19 0 32 -2 39 -7l-40 -364c-6 -50 9 -56 35 -56c18 0 31 6 43 13c4 -25 -5 -61 -18 -75c-15 -11 -32 -16 -60 -16c-46 0 -77 21 -75 76
h-4c-22 -38 -65 -76 -142 -76c-48 0 -90 13 -100 52h-4c4 -33 0 -87 -7 -147l-13 -114c-8 -5 -21 -7 -43 -7s-35 2 -43 7z" />
    <glyph glyph-name="paragraph" unicode="&#xb6;" horiz-adv-x="513" 
d="M366 645l-85 -810c-6 -4 -17 -6 -33 -6c-17 0 -26 2 -32 6l57 505c-10 -2 -23 -3 -36 -3c-89 0 -166 39 -166 164c0 146 104 205 268 205c61 0 117 -8 163 -23l-84 -848c-6 -4 -17 -6 -34 -6c-15 0 -25 2 -31 6l86 803c-22 5 -48 7 -73 7z" />
    <glyph glyph-name="periodcentered" unicode="&#xb7;" horiz-adv-x="225" 
d="M144 309c31 0 54 -18 54 -56c0 -37 -25 -61 -61 -61c-31 0 -53 19 -53 56c0 38 23 61 60 61z" />
    <glyph glyph-name="cedilla" unicode="&#xb8;" horiz-adv-x="434" 
d="M256 16l-20 -70c28 -12 49 -33 49 -72c0 -63 -53 -101 -121 -112c-19 10 -34 25 -39 46c36 5 84 21 84 61c0 26 -21 42 -48 49l36 86c15 7 36 12 59 12z" />
    <glyph glyph-name="onesuperior" unicode="&#xb9;" horiz-adv-x="385" 
d="M210 385l36 309l-97 -18c2 22 9 47 19 63c30 13 98 27 156 32l-39 -386c-10 -5 -21 -7 -39 -7c-19 0 -28 2 -36 7z" />
    <glyph glyph-name="ordmasculine" unicode="&#xba;" horiz-adv-x="355" 
d="M252 645c83 0 135 -48 135 -147c0 -93 -47 -190 -168 -190c-88 0 -134 51 -134 144c0 95 50 193 167 193zM248 587c-71 0 -96 -71 -96 -131c0 -62 25 -88 70 -88c78 0 99 79 99 130c0 57 -25 89 -73 89zM80 254h258c2 -3 5 -11 5 -25c0 -16 -4 -28 -8 -34h-268
c0 19 5 44 13 59z" />
    <glyph glyph-name="guillemotright" unicode="&#xbb;" horiz-adv-x="489" 
d="M140 36c-28 2 -50 18 -61 37c43 63 79 120 111 182c-20 67 -40 125 -66 185c18 13 44 20 69 20c33 -68 63 -143 83 -209c-40 -74 -87 -147 -136 -215zM328 36c-28 2 -50 18 -61 37c43 63 79 120 111 182c-20 67 -40 125 -66 185c18 13 44 20 69 20
c33 -68 63 -143 83 -209c-40 -74 -87 -147 -136 -215z" />
    <glyph glyph-name="onequarter" unicode="&#xbc;" horiz-adv-x="905" 
d="M839 373l-23 -218h43c3 -5 5 -13 5 -26c0 -18 -4 -29 -8 -36h-46l-10 -88c-7 -4 -16 -7 -36 -7s-30 3 -36 7l12 88h-171c-9 17 -12 38 -12 61l197 234c31 0 64 -5 85 -15zM749 154l14 113c2 17 7 43 11 55h-4l-130 -167v-4c7 2 19 3 36 3h73zM754 677l-525 -710
c-27 5 -48 23 -56 46l517 689c28 -1 47 -7 64 -25zM155 292l36 309l-97 -18c2 22 9 47 19 63c30 13 98 27 156 32l-39 -386c-10 -5 -21 -7 -39 -7c-19 0 -28 2 -36 7z" />
    <glyph glyph-name="onehalf" unicode="&#xbd;" horiz-adv-x="905" 
d="M746 677l-525 -710c-27 5 -48 23 -56 46l517 689c28 -1 47 -7 64 -25zM153 292l36 309l-97 -18c2 22 9 47 19 63c30 13 98 27 156 32l-39 -386c-10 -5 -21 -7 -39 -7c-19 0 -28 2 -36 7zM655 358c22 20 60 34 106 34c71 0 117 -33 117 -102c0 -91 -82 -168 -163 -219v-4
h149c2 -4 5 -13 5 -30c0 -18 -3 -30 -7 -37h-255c-6 14 -8 36 -8 58c68 55 205 133 205 219c0 33 -22 49 -66 49c-37 0 -63 -11 -96 -34c-3 22 2 48 13 66z" />
    <glyph glyph-name="threequarters" unicode="&#xbe;" horiz-adv-x="905" 
d="M862 373l-23 -218h43c3 -5 5 -13 5 -26c0 -18 -4 -29 -8 -36h-46l-10 -88c-7 -4 -16 -7 -36 -7s-30 3 -36 7l12 88h-171c-9 17 -12 38 -12 61l197 234c31 0 64 -5 85 -15zM772 154l14 113c2 17 7 43 11 55h-4l-130 -167v-4c7 2 19 3 36 3h73zM812 677l-525 -710
c-27 5 -48 23 -56 46l517 689c28 -1 47 -7 64 -25zM173 512h8c49 0 116 12 116 64c0 31 -27 41 -60 41c-37 0 -71 -12 -96 -27c-4 16 4 51 18 66c20 14 59 23 97 23c67 0 115 -27 115 -93c0 -51 -28 -87 -78 -98v-3c39 -9 70 -32 70 -88c0 -82 -72 -119 -163 -119
c-35 0 -69 6 -93 15c-13 18 -17 49 -14 72c26 -12 67 -22 107 -22c49 0 89 15 89 55c0 39 -32 54 -112 54h-8c-5 14 -4 45 4 60z" />
    <glyph glyph-name="questiondown" unicode="&#xbf;" horiz-adv-x="374" 
d="M247 498c30 0 53 -18 53 -55c0 -36 -24 -60 -59 -60c-30 0 -53 19 -53 55c0 37 23 60 59 60zM250 292c27 -22 42 -54 42 -94c0 -143 -205 -173 -205 -284c0 -41 26 -73 95 -73c57 0 118 22 169 65c4 -23 -5 -71 -22 -94c-34 -28 -95 -54 -173 -54
c-106 0 -161 50 -161 144c0 166 216 197 216 300c0 24 -7 38 -23 54c14 20 37 32 62 36z" />
    <glyph glyph-name="Agrave" unicode="&#xc0;" horiz-adv-x="611" 
d="M511 5l-45 196h-269l-88 -196c-9 -6 -25 -8 -46 -8c-20 0 -36 2 -43 8l308 692c11 3 30 6 55 6c24 0 42 -3 52 -6l163 -692c-8 -6 -22 -8 -43 -8c-19 0 -36 2 -44 8zM228 276h223l-45 194c-12 51 -23 116 -28 176h-5c-16 -60 -38 -125 -61 -178zM289 902l176 -100
c-2 -23 -11 -43 -27 -58l-196 92c7 26 25 51 47 66z" />
    <glyph glyph-name="Aacute" unicode="&#xc1;" horiz-adv-x="611" 
d="M511 5l-45 196h-269l-88 -196c-9 -6 -25 -8 -46 -8c-20 0 -36 2 -43 8l308 692c11 3 30 6 55 6c24 0 42 -3 52 -6l163 -692c-8 -6 -22 -8 -43 -8c-19 0 -36 2 -44 8zM228 276h223l-45 194c-12 51 -23 116 -28 176h-5c-16 -60 -38 -125 -61 -178zM318 808l209 99
c17 -16 26 -43 26 -72l-221 -91c-11 15 -16 38 -14 64z" />
    <glyph glyph-name="Acircumflex" unicode="&#xc2;" horiz-adv-x="611" 
d="M511 5l-45 196h-269l-88 -196c-9 -6 -25 -8 -46 -8c-20 0 -36 2 -43 8l308 692c11 3 30 6 55 6c24 0 42 -3 52 -6l163 -692c-8 -6 -22 -8 -43 -8c-19 0 -36 2 -44 8zM228 276h223l-45 194c-12 51 -23 116 -28 176h-5c-16 -60 -38 -125 -61 -178zM440 889l106 -88
c-3 -25 -17 -45 -34 -56l-115 82l-143 -82c-12 15 -18 34 -18 60l121 82c9 4 23 6 44 6c18 0 31 -2 39 -4z" />
    <glyph glyph-name="Atilde" unicode="&#xc3;" horiz-adv-x="611" 
d="M511 5l-45 196h-269l-88 -196c-9 -6 -25 -8 -46 -8c-20 0 -36 2 -43 8l308 692c11 3 30 6 55 6c24 0 42 -3 52 -6l163 -692c-8 -6 -22 -8 -43 -8c-19 0 -36 2 -44 8zM228 276h223l-45 194c-12 51 -23 116 -28 176h-5c-16 -60 -38 -125 -61 -178zM213 789
c13 51 52 93 111 93c80 0 90 -51 150 -51c26 0 41 16 51 44c24 -1 40 -6 54 -20c-13 -54 -50 -96 -110 -96c-79 0 -90 51 -149 51c-28 0 -46 -17 -57 -46c-22 3 -40 10 -50 25z" />
    <glyph glyph-name="Adieresis" unicode="&#xc4;" horiz-adv-x="611" 
d="M511 5l-45 196h-269l-88 -196c-9 -6 -25 -8 -46 -8c-20 0 -36 2 -43 8l308 692c11 3 30 6 55 6c24 0 42 -3 52 -6l163 -692c-8 -6 -22 -8 -43 -8c-19 0 -36 2 -44 8zM228 276h223l-45 194c-12 51 -23 116 -28 176h-5c-16 -60 -38 -125 -61 -178zM499 866
c29 0 49 -16 49 -51c0 -33 -22 -54 -54 -54c-29 0 -49 17 -49 51s21 54 54 54zM295 866c29 0 49 -16 49 -51c0 -33 -22 -54 -54 -54c-29 0 -49 17 -49 51s21 54 54 54z" />
    <glyph glyph-name="Aring" unicode="&#xc5;" horiz-adv-x="611" 
d="M399 862c62 0 101 -32 101 -96c0 -45 -20 -83 -58 -103l156 -658c-8 -6 -22 -8 -43 -8c-19 0 -36 2 -44 8l-45 196h-269l-88 -196c-9 -6 -25 -8 -46 -8c-20 0 -36 2 -43 8l295 661c-25 17 -38 43 -38 79c0 66 46 117 122 117zM228 276h223l-45 194
c-12 51 -23 116 -28 176h-5c-16 -60 -38 -125 -61 -178zM396 811c-35 0 -63 -22 -63 -60c0 -33 21 -50 51 -50c37 0 61 27 61 61c0 31 -19 49 -49 49z" />
    <glyph glyph-name="AE" unicode="&#xc6;" horiz-adv-x="920" 
d="M600 620l-25 -228h297c3 -5 6 -16 6 -30c0 -19 -5 -37 -10 -45h-300l-26 -238h331c3 -5 6 -15 6 -32c0 -20 -4 -38 -9 -47h-423l25 216h-225l-144 -210c-10 -6 -30 -8 -55 -8c-20 0 -39 2 -46 8l479 689h441c3 -5 6 -16 6 -30c0 -19 -5 -37 -10 -45h-318zM444 508
l-149 -217h185l39 338h-4c-17 -34 -50 -91 -71 -121z" />
    <glyph glyph-name="Ccedilla" unicode="&#xc7;" horiz-adv-x="583" 
d="M549 95c2 -28 -7 -65 -27 -84c-37 -18 -80 -32 -143 -34l-11 -39c32 -14 56 -37 56 -78c0 -64 -59 -105 -131 -116c-21 10 -35 28 -40 51c41 6 94 19 94 61c0 28 -25 43 -56 50l29 74c-148 17 -232 131 -232 320c0 213 108 418 348 418c56 0 105 -11 141 -33
c14 -20 21 -58 14 -85c-45 26 -85 40 -141 40c-193 0 -273 -156 -273 -329c0 -179 84 -251 214 -251c62 0 116 16 158 35z" />
    <glyph glyph-name="Egrave" unicode="&#xc8;" horiz-adv-x="562" 
d="M242 620l-25 -228h297c3 -5 6 -16 6 -30c0 -19 -5 -37 -10 -45h-300l-26 -238h331c3 -5 6 -15 6 -32c0 -20 -4 -38 -9 -47h-423l80 695h395c3 -5 6 -16 6 -30c0 -19 -5 -37 -10 -45h-318zM279 902l176 -100c-2 -23 -11 -43 -27 -58l-196 92c7 26 25 51 47 66z" />
    <glyph glyph-name="Eacute" unicode="&#xc9;" horiz-adv-x="562" 
d="M242 620l-25 -228h297c3 -5 6 -16 6 -30c0 -19 -5 -37 -10 -45h-300l-26 -238h331c3 -5 6 -15 6 -32c0 -20 -4 -38 -9 -47h-423l80 695h395c3 -5 6 -16 6 -30c0 -19 -5 -37 -10 -45h-318zM315 808l209 99c17 -16 26 -43 26 -72l-221 -91c-11 15 -16 38 -14 64z" />
    <glyph glyph-name="Ecircumflex" unicode="&#xca;" horiz-adv-x="562" 
d="M242 620l-25 -228h297c3 -5 6 -16 6 -30c0 -19 -5 -37 -10 -45h-300l-26 -238h331c3 -5 6 -15 6 -32c0 -20 -4 -38 -9 -47h-423l80 695h395c3 -5 6 -16 6 -30c0 -19 -5 -37 -10 -45h-318zM432 889l106 -88c-3 -25 -17 -45 -34 -56l-115 82l-143 -82c-12 15 -18 34 -18 60
l121 82c9 4 23 6 44 6c18 0 31 -2 39 -4z" />
    <glyph glyph-name="Edieresis" unicode="&#xcb;" horiz-adv-x="562" 
d="M242 620l-25 -228h297c3 -5 6 -16 6 -30c0 -19 -5 -37 -10 -45h-300l-26 -238h331c3 -5 6 -15 6 -32c0 -20 -4 -38 -9 -47h-423l80 695h395c3 -5 6 -16 6 -30c0 -19 -5 -37 -10 -45h-318zM488 866c29 0 49 -16 49 -51c0 -33 -22 -54 -54 -54c-29 0 -49 17 -49 51
s21 54 54 54zM284 866c29 0 49 -16 49 -51c0 -33 -22 -54 -54 -54c-29 0 -49 17 -49 51s21 54 54 54z" />
    <glyph glyph-name="Igrave" unicode="&#xcc;" horiz-adv-x="266" 
d="M90 4l79 687c8 5 22 7 42 7c19 0 32 -2 40 -7l-71 -687c-9 -5 -23 -7 -45 -7c-24 0 -37 2 -45 7zM119 902l176 -100c-2 -23 -11 -43 -27 -58l-196 92c7 26 25 51 47 66z" />
    <glyph glyph-name="Iacute" unicode="&#xcd;" horiz-adv-x="266" 
d="M90 4l79 687c8 5 22 7 42 7c19 0 32 -2 40 -7l-71 -687c-9 -5 -23 -7 -45 -7c-24 0 -37 2 -45 7zM153 808l209 99c17 -16 26 -43 26 -72l-221 -91c-11 15 -16 38 -14 64z" />
    <glyph glyph-name="Icircumflex" unicode="&#xce;" horiz-adv-x="266" 
d="M90 4l79 687c8 5 22 7 42 7c19 0 32 -2 40 -7l-71 -687c-9 -5 -23 -7 -45 -7c-24 0 -37 2 -45 7zM271 889l106 -88c-3 -25 -17 -45 -34 -56l-115 82l-143 -82c-12 15 -18 34 -18 60l121 82c9 4 23 6 44 6c18 0 31 -2 39 -4z" />
    <glyph glyph-name="Idieresis" unicode="&#xcf;" horiz-adv-x="266" 
d="M90 4l79 687c8 5 22 7 42 7c19 0 32 -2 40 -7l-71 -687c-9 -5 -23 -7 -45 -7c-24 0 -37 2 -45 7zM131 866c29 0 49 -16 49 -51c0 -33 -22 -54 -54 -54c-29 0 -49 17 -49 51s21 54 54 54zM320 866c29 0 49 -16 49 -51c0 -33 -22 -54 -54 -54c-29 0 -49 17 -49 51
s21 54 54 54z" />
    <glyph glyph-name="Eth" unicode="&#xd0;" horiz-adv-x="657" 
d="M96 5l36 310h-78c-3 6 -6 15 -6 30c0 18 5 37 10 44h83l35 296c47 11 93 17 153 17c199 0 327 -102 327 -329c0 -225 -124 -378 -375 -378c-64 0 -129 4 -185 10zM406 315h-188l-24 -236c29 -4 67 -5 97 -5c189 0 276 126 276 296c0 177 -91 256 -239 256
c-27 0 -55 -2 -78 -8l-24 -229h184c3 -6 6 -15 6 -30c0 -18 -5 -37 -10 -44z" />
    <glyph glyph-name="Ntilde" unicode="&#xd1;" horiz-adv-x="690" 
d="M237 623l-63 -620c-8 -4 -22 -6 -43 -6c-20 0 -35 2 -42 6l81 687c13 5 27 8 54 8c26 0 39 -3 51 -8l204 -453c20 -44 37 -103 46 -159h4l69 613c7 5 18 7 39 7c18 0 30 -2 37 -7l-70 -689c-12 -4 -32 -7 -59 -7c-26 0 -43 3 -54 7l-208 473c-19 43 -35 98 -42 148h-4z
M256 789c13 51 52 93 111 93c80 0 90 -51 150 -51c26 0 41 16 51 44c24 -1 40 -6 54 -20c-13 -54 -50 -96 -110 -96c-79 0 -90 51 -149 51c-28 0 -46 -17 -57 -46c-22 3 -40 10 -50 25z" />
    <glyph glyph-name="Ograve" unicode="&#xd2;" horiz-adv-x="696" 
d="M91 298c0 214 98 420 326 420c162 0 266 -107 266 -322c0 -193 -83 -419 -329 -419c-168 0 -263 108 -263 321zM410 640c-171 0 -230 -183 -230 -337c0 -159 63 -245 180 -245c177 0 234 193 234 337c0 156 -64 245 -184 245zM329 902l176 -100c-2 -23 -11 -43 -27 -58
l-196 92c7 26 25 51 47 66z" />
    <glyph glyph-name="Oacute" unicode="&#xd3;" horiz-adv-x="696" 
d="M91 298c0 214 98 420 326 420c162 0 266 -107 266 -322c0 -193 -83 -419 -329 -419c-168 0 -263 108 -263 321zM410 640c-171 0 -230 -183 -230 -337c0 -159 63 -245 180 -245c177 0 234 193 234 337c0 156 -64 245 -184 245zM365 808l209 99c17 -16 26 -43 26 -72
l-221 -91c-11 15 -16 38 -14 64z" />
    <glyph glyph-name="Ocircumflex" unicode="&#xd4;" horiz-adv-x="696" 
d="M91 298c0 214 98 420 326 420c162 0 266 -107 266 -322c0 -193 -83 -419 -329 -419c-168 0 -263 108 -263 321zM410 640c-171 0 -230 -183 -230 -337c0 -159 63 -245 180 -245c177 0 234 193 234 337c0 156 -64 245 -184 245zM484 889l106 -88c-3 -25 -17 -45 -34 -56
l-115 82l-143 -82c-12 15 -18 34 -18 60l121 82c9 4 23 6 44 6c18 0 31 -2 39 -4z" />
    <glyph glyph-name="Otilde" unicode="&#xd5;" horiz-adv-x="696" 
d="M91 298c0 214 98 420 326 420c162 0 266 -107 266 -322c0 -193 -83 -419 -329 -419c-168 0 -263 108 -263 321zM410 640c-171 0 -230 -183 -230 -337c0 -159 63 -245 180 -245c177 0 234 193 234 337c0 156 -64 245 -184 245zM255 789c13 51 52 93 111 93
c80 0 90 -51 150 -51c26 0 41 16 51 44c24 -1 40 -6 54 -20c-13 -54 -50 -96 -110 -96c-79 0 -90 51 -149 51c-28 0 -46 -17 -57 -46c-22 3 -40 10 -50 25z" />
    <glyph glyph-name="Odieresis" unicode="&#xd6;" horiz-adv-x="696" 
d="M91 298c0 214 98 420 326 420c162 0 266 -107 266 -322c0 -193 -83 -419 -329 -419c-168 0 -263 108 -263 321zM410 640c-171 0 -230 -183 -230 -337c0 -159 63 -245 180 -245c177 0 234 193 234 337c0 156 -64 245 -184 245zM312 866c29 0 49 -16 49 -51
c0 -33 -22 -54 -54 -54c-29 0 -49 17 -49 51s21 54 54 54zM568 866c29 0 49 -16 49 -51c0 -33 -22 -54 -54 -54c-29 0 -49 17 -49 51s21 54 54 54z" />
    <glyph glyph-name="multiply" unicode="&#xd7;" 
d="M163 482l153 -153l149 152c27 -7 51 -22 70 -42l-164 -165l166 -164c-9 -24 -30 -47 -56 -58l-166 165l-164 -164c-26 12 -46 32 -55 57l165 161l-168 166c18 20 41 36 70 45z" />
    <glyph glyph-name="Oslash" unicode="&#xd8;" horiz-adv-x="696" 
d="M89 298c0 214 99 420 328 420c73 0 137 -22 180 -66l87 100c27 -8 48 -26 57 -53l-96 -110c26 -50 40 -114 40 -193c0 -193 -84 -419 -331 -419c-76 0 -137 22 -181 65l-93 -106c-28 11 -47 28 -54 56l100 115c-24 50 -37 113 -37 191zM410 640
c-172 0 -232 -183 -232 -337c0 -49 6 -89 18 -124l346 405c-31 36 -76 56 -132 56zM596 395c0 47 -6 91 -18 124l-346 -407c30 -35 73 -54 128 -54c179 0 236 193 236 337z" />
    <glyph glyph-name="Ugrave" unicode="&#xd9;" horiz-adv-x="666" 
d="M241 691l-45 -438c-15 -142 37 -195 146 -195c119 0 175 65 189 193l48 440c8 5 21 7 39 7c20 0 33 -2 40 -7l-42 -441c-17 -178 -104 -273 -281 -273c-168 0 -229 85 -229 217c0 19 2 43 4 62l50 435c8 5 21 7 41 7c19 0 33 -2 40 -7zM318 902l176 -100
c-2 -23 -11 -43 -27 -58l-196 92c7 26 25 51 47 66z" />
    <glyph glyph-name="Uacute" unicode="&#xda;" horiz-adv-x="666" 
d="M241 691l-45 -438c-15 -142 37 -195 146 -195c119 0 175 65 189 193l48 440c8 5 21 7 39 7c20 0 33 -2 40 -7l-42 -441c-17 -178 -104 -273 -281 -273c-168 0 -229 85 -229 217c0 19 2 43 4 62l50 435c8 5 21 7 41 7c19 0 33 -2 40 -7zM351 808l209 99
c17 -16 26 -43 26 -72l-221 -91c-11 15 -16 38 -14 64z" />
    <glyph glyph-name="Ucircumflex" unicode="&#xdb;" horiz-adv-x="666" 
d="M241 691l-45 -438c-15 -142 37 -195 146 -195c119 0 175 65 189 193l48 440c8 5 21 7 39 7c20 0 33 -2 40 -7l-42 -441c-17 -178 -104 -273 -281 -273c-168 0 -229 85 -229 217c0 19 2 43 4 62l50 435c8 5 21 7 41 7c19 0 33 -2 40 -7zM468 889l106 -88
c-3 -25 -17 -45 -34 -56l-115 82l-143 -82c-12 15 -18 34 -18 60l121 82c9 4 23 6 44 6c18 0 31 -2 39 -4z" />
    <glyph glyph-name="Udieresis" unicode="&#xdc;" horiz-adv-x="666" 
d="M241 691l-45 -438c-15 -142 37 -195 146 -195c119 0 175 65 189 193l48 440c8 5 21 7 39 7c20 0 33 -2 40 -7l-42 -441c-17 -178 -104 -273 -281 -273c-168 0 -229 85 -229 217c0 19 2 43 4 62l50 435c8 5 21 7 41 7c19 0 33 -2 40 -7zM527 866c29 0 49 -16 49 -51
c0 -33 -22 -54 -54 -54c-29 0 -49 17 -49 51s21 54 54 54zM323 866c29 0 49 -16 49 -51c0 -33 -22 -54 -54 -54c-29 0 -49 17 -49 51s21 54 54 54z" />
    <glyph glyph-name="Yacute" unicode="&#xdd;" horiz-adv-x="533" 
d="M251 250l-167 440c9 5 23 8 44 8c20 0 35 -3 45 -8l101 -260c14 -35 24 -75 30 -117h5c11 43 28 87 46 117l156 260c10 5 27 8 47 8c21 0 37 -3 44 -8l-264 -445l-25 -241c-9 -5 -23 -7 -46 -7c-22 0 -36 2 -44 7zM289 808l209 99c17 -16 26 -43 26 -72l-221 -91
c-11 15 -16 38 -14 64z" />
    <glyph glyph-name="Thorn" unicode="&#xde;" horiz-adv-x="542" 
d="M90 4l79 687c8 5 22 7 42 7c19 0 32 -2 40 -7l-13 -127c26 6 55 8 90 8c139 0 240 -58 240 -204c0 -144 -97 -237 -258 -237c-39 0 -83 2 -116 11l-14 -138c-9 -5 -23 -7 -45 -7c-24 0 -37 2 -45 7zM315 497c-30 0 -62 -3 -86 -10l-28 -270c28 -7 64 -11 109 -11
c100 0 171 50 171 154c0 97 -63 137 -166 137z" />
    <glyph glyph-name="germandbls" unicode="&#xdf;" horiz-adv-x="590" 
d="M247 93c32 -25 91 -42 142 -42c63 0 113 27 113 90c0 115 -187 85 -187 238c0 145 149 140 149 228c0 54 -37 71 -84 71c-79 0 -147 -50 -166 -224l-67 -605c-8 -5 -21 -7 -43 -7s-35 2 -43 7l74 604c27 223 129 296 251 296c71 0 157 -25 157 -130
c0 -144 -146 -126 -146 -230c0 -111 188 -75 188 -241c0 -109 -77 -168 -196 -168c-53 0 -108 12 -140 30c-13 22 -12 62 -2 83z" />
    <glyph glyph-name="agrave" unicode="&#xe0;" horiz-adv-x="544" 
d="M501 456l-39 -342c-6 -50 9 -56 35 -56c18 0 31 6 43 13c4 -25 -5 -61 -18 -75c-15 -11 -33 -16 -61 -16c-48 0 -80 22 -79 82h-4c-26 -45 -76 -82 -151 -82c-85 0 -154 46 -154 198c0 85 22 165 66 225c51 69 125 99 211 99c65 0 111 -17 151 -46zM382 133l35 281
c-18 12 -42 17 -71 17c-66 0 -111 -26 -139 -63c-36 -47 -49 -119 -49 -178c0 -89 29 -130 99 -130c60 0 96 32 125 73zM314 742l89 -152c-12 -18 -26 -29 -50 -34l-111 156c16 17 44 30 72 30z" />
    <glyph glyph-name="aacute" unicode="&#xe1;" horiz-adv-x="544" 
d="M501 456l-39 -342c-6 -50 9 -56 35 -56c18 0 31 6 43 13c4 -25 -5 -61 -18 -75c-15 -11 -33 -16 -61 -16c-48 0 -80 22 -79 82h-4c-26 -45 -76 -82 -151 -82c-85 0 -154 46 -154 198c0 85 22 165 66 225c51 69 125 99 211 99c65 0 111 -17 151 -46zM382 133l35 281
c-18 12 -42 17 -71 17c-66 0 -111 -26 -139 -63c-36 -47 -49 -119 -49 -178c0 -89 29 -130 99 -130c60 0 96 32 125 73zM480 710l-153 -156c-22 7 -35 20 -42 42l122 144c27 0 58 -10 73 -30z" />
    <glyph glyph-name="acircumflex" unicode="&#xe2;" horiz-adv-x="544" 
d="M501 456l-39 -342c-6 -50 9 -56 35 -56c18 0 31 6 43 13c4 -25 -5 -61 -18 -75c-15 -11 -33 -16 -61 -16c-48 0 -80 22 -79 82h-4c-26 -45 -76 -82 -151 -82c-85 0 -154 46 -154 198c0 85 22 165 66 225c51 69 125 99 211 99c65 0 111 -17 151 -46zM382 133l35 281
c-18 12 -42 17 -71 17c-66 0 -111 -26 -139 -63c-36 -47 -49 -119 -49 -178c0 -89 29 -130 99 -130c60 0 96 32 125 73zM208 606l115 120c20 9 45 10 70 10l95 -144c-9 -21 -26 -35 -48 -41l-85 115l-119 -119c-15 15 -25 34 -28 59z" />
    <glyph glyph-name="atilde" unicode="&#xe3;" horiz-adv-x="544" 
d="M501 456l-39 -342c-6 -50 9 -56 35 -56c18 0 31 6 43 13c4 -25 -5 -61 -18 -75c-15 -11 -33 -16 -61 -16c-48 0 -80 22 -79 82h-4c-26 -45 -76 -82 -151 -82c-85 0 -154 46 -154 198c0 85 22 165 66 225c51 69 125 99 211 99c65 0 111 -17 151 -46zM382 133l35 281
c-18 12 -42 17 -71 17c-66 0 -111 -26 -139 -63c-36 -47 -49 -119 -49 -178c0 -89 29 -130 99 -130c60 0 96 32 125 73zM284 617c-23 0 -39 -17 -48 -48c-19 3 -36 16 -45 36c13 48 48 80 96 80c69 0 79 -52 124 -52c22 0 38 14 42 42c22 0 39 -4 54 -15
c-10 -57 -44 -95 -97 -95c-66 0 -76 52 -126 52z" />
    <glyph glyph-name="adieresis" unicode="&#xe4;" horiz-adv-x="544" 
d="M501 456l-39 -342c-6 -50 9 -56 35 -56c18 0 31 6 43 13c4 -25 -5 -61 -18 -75c-15 -11 -33 -16 -61 -16c-48 0 -80 22 -79 82h-4c-26 -45 -76 -82 -151 -82c-85 0 -154 46 -154 198c0 85 22 165 66 225c51 69 125 99 211 99c65 0 111 -17 151 -46zM382 133l35 281
c-18 12 -42 17 -71 17c-66 0 -111 -26 -139 -63c-36 -47 -49 -119 -49 -178c0 -89 29 -130 99 -130c60 0 96 32 125 73zM256 674c27 0 46 -15 46 -48c0 -31 -21 -51 -51 -51c-27 0 -45 16 -45 48s19 51 50 51zM450 674c27 0 46 -15 46 -48c0 -31 -21 -51 -51 -51
c-27 0 -45 16 -45 48s19 51 50 51z" />
    <glyph glyph-name="aring" unicode="&#xe5;" horiz-adv-x="544" 
d="M501 456l-39 -342c-6 -50 9 -56 35 -56c18 0 31 6 43 13c4 -25 -5 -61 -18 -75c-15 -11 -33 -16 -61 -16c-48 0 -80 22 -79 82h-4c-26 -45 -76 -82 -151 -82c-85 0 -154 46 -154 198c0 85 22 165 66 225c51 69 125 99 211 99c65 0 111 -17 151 -46zM382 133l35 281
c-18 12 -42 17 -71 17c-66 0 -111 -26 -139 -63c-36 -47 -49 -119 -49 -178c0 -89 29 -130 99 -130c60 0 96 32 125 73zM362 751c56 0 91 -32 91 -91c0 -62 -38 -111 -110 -111c-58 0 -91 33 -91 91c0 61 39 111 110 111zM358 702c-33 0 -55 -22 -55 -57
c0 -32 17 -47 44 -47c34 0 56 23 56 59c0 30 -18 45 -45 45z" />
    <glyph glyph-name="ae" unicode="&#xe6;" horiz-adv-x="756" 
d="M761 382c0 -91 -71 -177 -323 -184c0 -108 35 -141 118 -141c66 0 118 21 169 61c1 -27 -9 -68 -25 -86c-32 -25 -90 -52 -166 -52c-77 0 -125 26 -157 81h-4c-31 -45 -84 -81 -164 -81c-79 0 -147 36 -147 135c0 109 81 177 205 177c33 0 70 -5 97 -15l5 32
c11 73 -5 118 -96 118c-51 0 -97 -17 -140 -44c-7 23 4 62 20 83c32 21 86 36 141 36c74 0 120 -27 137 -86c46 54 112 86 189 86c90 0 141 -44 141 -120zM232 56c53 0 95 25 127 64c-4 19 -5 39 -5 62v26c-23 9 -53 15 -83 15c-73 0 -126 -30 -126 -94c0 -51 36 -73 87 -73
zM444 268c171 3 238 47 238 109c0 32 -17 55 -70 55s-96 -23 -128 -66c-18 -25 -32 -57 -40 -98z" />
    <glyph glyph-name="ccedilla" unicode="&#xe7;" horiz-adv-x="452" 
d="M400 9c-28 -15 -63 -27 -108 -28l-10 -35c28 -12 49 -33 49 -72c0 -63 -53 -101 -121 -112c-19 10 -34 25 -39 46c36 5 84 21 84 61c0 26 -21 42 -48 49l27 65c-104 16 -159 93 -159 224c0 67 14 133 46 186c41 66 109 109 208 109c46 0 80 -9 106 -27
c13 -19 19 -55 13 -82c-33 22 -64 33 -108 33c-70 0 -118 -29 -147 -76c-23 -38 -33 -81 -33 -131c0 -112 52 -159 144 -159c48 0 86 13 120 30c3 -26 -7 -62 -24 -81z" />
    <glyph glyph-name="egrave" unicode="&#xe8;" horiz-adv-x="477" 
d="M482 382c0 -91 -71 -177 -323 -184c0 -108 35 -141 118 -141c66 0 118 21 169 61c1 -27 -9 -68 -25 -86c-32 -25 -90 -52 -166 -52c-123 0 -180 70 -180 202c0 88 26 172 76 232c46 55 112 88 190 88c90 0 141 -44 141 -120zM165 268c171 3 238 47 238 109
c0 32 -17 55 -70 55s-96 -23 -128 -66c-18 -25 -32 -57 -40 -98zM300 742l89 -152c-12 -18 -26 -29 -50 -34l-111 156c16 17 44 30 72 30z" />
    <glyph glyph-name="eacute" unicode="&#xe9;" horiz-adv-x="477" 
d="M482 382c0 -91 -71 -177 -323 -184c0 -108 35 -141 118 -141c66 0 118 21 169 61c1 -27 -9 -68 -25 -86c-32 -25 -90 -52 -166 -52c-123 0 -180 70 -180 202c0 88 26 172 76 232c46 55 112 88 190 88c90 0 141 -44 141 -120zM165 268c171 3 238 47 238 109
c0 32 -17 55 -70 55s-96 -23 -128 -66c-18 -25 -32 -57 -40 -98zM466 710l-153 -156c-22 7 -35 20 -42 42l122 144c27 0 58 -10 73 -30z" />
    <glyph glyph-name="ecircumflex" unicode="&#xea;" horiz-adv-x="477" 
d="M482 382c0 -91 -71 -177 -323 -184c0 -108 35 -141 118 -141c66 0 118 21 169 61c1 -27 -9 -68 -25 -86c-32 -25 -90 -52 -166 -52c-123 0 -180 70 -180 202c0 88 26 172 76 232c46 55 112 88 190 88c90 0 141 -44 141 -120zM165 268c171 3 238 47 238 109
c0 32 -17 55 -70 55s-96 -23 -128 -66c-18 -25 -32 -57 -40 -98zM196 606l115 120c20 9 45 10 70 10l95 -144c-9 -21 -26 -35 -48 -41l-85 115l-119 -119c-15 15 -25 34 -28 59z" />
    <glyph glyph-name="edieresis" unicode="&#xeb;" horiz-adv-x="477" 
d="M482 382c0 -91 -71 -177 -323 -184c0 -108 35 -141 118 -141c66 0 118 21 169 61c1 -27 -9 -68 -25 -86c-32 -25 -90 -52 -166 -52c-123 0 -180 70 -180 202c0 88 26 172 76 232c46 55 112 88 190 88c90 0 141 -44 141 -120zM165 268c171 3 238 47 238 109
c0 32 -17 55 -70 55s-96 -23 -128 -66c-18 -25 -32 -57 -40 -98zM240 674c27 0 46 -15 46 -48c0 -31 -21 -51 -51 -51c-27 0 -45 16 -45 48s19 51 50 51zM434 674c27 0 46 -15 46 -48c0 -31 -21 -51 -51 -51c-27 0 -45 16 -45 48s19 51 50 51z" />
    <glyph glyph-name="igrave" unicode="&#xec;" horiz-adv-x="257" 
d="M217 478l-41 -364c-6 -50 9 -56 35 -56c18 0 31 6 43 13c4 -25 -5 -61 -18 -75c-15 -10 -33 -16 -61 -16c-68 0 -87 37 -87 91c0 12 1 26 3 40l47 367c9 5 20 7 40 7c19 0 32 -2 39 -7zM161 742l89 -152c-12 -18 -26 -29 -50 -34l-111 156c16 17 44 30 72 30z" />
    <glyph glyph-name="iacute" unicode="&#xed;" horiz-adv-x="257" 
d="M217 478l-41 -364c-6 -50 9 -56 35 -56c18 0 31 6 43 13c4 -25 -5 -61 -18 -75c-15 -10 -33 -16 -61 -16c-68 0 -87 37 -87 91c0 12 1 26 3 40l47 367c9 5 20 7 40 7c19 0 32 -2 39 -7zM329 710l-153 -156c-22 7 -35 20 -42 42l122 144c27 0 58 -10 73 -30z" />
    <glyph glyph-name="icircumflex" unicode="&#xee;" horiz-adv-x="257" 
d="M56 606l115 120c20 9 45 10 70 10l95 -144c-9 -21 -26 -35 -48 -41l-85 115l-119 -119c-15 15 -25 34 -28 59zM217 478l-41 -364c-6 -50 9 -56 35 -56c18 0 31 6 43 13c4 -25 -5 -61 -18 -75c-15 -10 -33 -16 -61 -16c-68 0 -87 37 -87 91c0 12 1 26 3 40l47 367
c9 5 20 7 40 7c19 0 32 -2 39 -7z" />
    <glyph glyph-name="idieresis" unicode="&#xef;" horiz-adv-x="257" 
d="M217 478l-41 -364c-6 -50 9 -56 35 -56c18 0 31 6 43 13c4 -25 -5 -61 -18 -75c-15 -10 -33 -16 -61 -16c-68 0 -87 37 -87 91c0 12 1 26 3 40l47 367c9 5 20 7 40 7c19 0 32 -2 39 -7zM113 674c27 0 46 -15 46 -48c0 -31 -21 -51 -51 -51c-27 0 -45 16 -45 48
s19 51 50 51zM284 674c27 0 46 -15 46 -48c0 -31 -21 -51 -51 -51c-27 0 -45 16 -45 48s19 51 50 51z" />
    <glyph glyph-name="eth" unicode="&#xf0;" horiz-adv-x="524" 
d="M437 401c-4 84 -30 145 -67 189l-140 -70c-6 16 -9 47 -4 66l96 47c-42 31 -91 48 -135 59c5 23 21 47 36 57c72 -18 130 -43 176 -82l96 48c14 -10 25 -31 28 -53l-80 -40c50 -65 74 -149 74 -255c0 -151 -50 -387 -259 -387c-118 0 -190 74 -190 210
c0 140 78 271 227 271c62 0 110 -23 138 -60h4zM433 328c-30 33 -63 59 -122 59c-109 0 -159 -92 -159 -189c0 -90 42 -140 115 -140c134 0 162 169 166 270z" />
    <glyph glyph-name="ntilde" unicode="&#xf1;" horiz-adv-x="554" 
d="M80 4l59 474c15 7 38 11 67 11l-4 -87h4c27 53 76 100 165 100c88 0 132 -48 132 -138c0 -19 -1 -38 -3 -54l-21 -196c-5 -48 9 -56 33 -56c20 0 31 5 45 13c4 -25 -5 -61 -18 -75c-15 -10 -33 -16 -61 -16c-68 0 -87 37 -87 91c0 12 1 26 3 40l24 187c2 15 3 27 3 41
c0 47 -17 86 -80 86c-68 0 -109 -43 -139 -99l-37 -322c-8 -5 -21 -7 -43 -7s-34 2 -42 7zM282 617c-23 0 -39 -17 -48 -48c-19 3 -36 16 -45 36c13 48 48 80 96 80c69 0 79 -52 124 -52c22 0 38 14 42 42c22 0 39 -4 54 -15c-10 -57 -44 -95 -97 -95c-66 0 -76 52 -126 52z
" />
    <glyph glyph-name="ograve" unicode="&#xf2;" horiz-adv-x="523" 
d="M319 502c117 0 192 -76 192 -221c0 -72 -18 -157 -58 -213c-37 -52 -99 -88 -183 -88c-126 0 -194 79 -194 217c0 65 15 135 44 188c38 69 106 117 199 117zM316 430c-58 0 -101 -31 -125 -80c-21 -42 -30 -107 -30 -148c0 -98 38 -148 114 -148c54 0 88 25 112 62
c27 41 39 103 39 161c0 96 -38 153 -110 153zM299 742l89 -152c-12 -18 -26 -29 -50 -34l-111 156c16 17 44 30 72 30z" />
    <glyph glyph-name="oacute" unicode="&#xf3;" horiz-adv-x="523" 
d="M319 502c117 0 192 -76 192 -221c0 -72 -18 -157 -58 -213c-37 -52 -99 -88 -183 -88c-126 0 -194 79 -194 217c0 65 15 135 44 188c38 69 106 117 199 117zM316 430c-58 0 -101 -31 -125 -80c-21 -42 -30 -107 -30 -148c0 -98 38 -148 114 -148c54 0 88 25 112 62
c27 41 39 103 39 161c0 96 -38 153 -110 153zM467 710l-153 -156c-22 7 -35 20 -42 42l122 144c27 0 58 -10 73 -30z" />
    <glyph glyph-name="ocircumflex" unicode="&#xf4;" horiz-adv-x="523" 
d="M319 502c117 0 192 -76 192 -221c0 -72 -18 -157 -58 -213c-37 -52 -99 -88 -183 -88c-126 0 -194 79 -194 217c0 65 15 135 44 188c38 69 106 117 199 117zM316 430c-58 0 -101 -31 -125 -80c-21 -42 -30 -107 -30 -148c0 -98 38 -148 114 -148c54 0 88 25 112 62
c27 41 39 103 39 161c0 96 -38 153 -110 153zM197 606l115 120c20 9 45 10 70 10l95 -144c-9 -21 -26 -35 -48 -41l-85 115l-119 -119c-15 15 -25 34 -28 59z" />
    <glyph glyph-name="otilde" unicode="&#xf5;" horiz-adv-x="523" 
d="M319 502c117 0 192 -76 192 -221c0 -72 -18 -157 -58 -213c-37 -52 -99 -88 -183 -88c-126 0 -194 79 -194 217c0 65 15 135 44 188c38 69 106 117 199 117zM316 430c-58 0 -101 -31 -125 -80c-21 -42 -30 -107 -30 -148c0 -98 38 -148 114 -148c54 0 88 25 112 62
c27 41 39 103 39 161c0 96 -38 153 -110 153zM274 617c-23 0 -39 -17 -48 -48c-19 3 -36 16 -45 36c13 48 48 80 96 80c69 0 79 -52 124 -52c22 0 38 14 42 42c22 0 39 -4 54 -15c-10 -57 -44 -95 -97 -95c-66 0 -76 52 -126 52z" />
    <glyph glyph-name="odieresis" unicode="&#xf6;" horiz-adv-x="523" 
d="M319 502c117 0 192 -76 192 -221c0 -72 -18 -157 -58 -213c-37 -52 -99 -88 -183 -88c-126 0 -194 79 -194 217c0 65 15 135 44 188c38 69 106 117 199 117zM316 430c-58 0 -101 -31 -125 -80c-21 -42 -30 -107 -30 -148c0 -98 38 -148 114 -148c54 0 88 25 112 62
c27 41 39 103 39 161c0 96 -38 153 -110 153zM447 674c27 0 46 -15 46 -48c0 -31 -21 -51 -51 -51c-27 0 -45 16 -45 48s19 51 50 51zM235 674c27 0 46 -15 46 -48c0 -31 -21 -51 -51 -51c-27 0 -45 16 -45 48s19 51 50 51z" />
    <glyph glyph-name="divide" unicode="&#xf7;" 
d="M92 311h451c5 -8 7 -20 7 -39s-2 -31 -7 -39h-464c0 25 5 61 13 78zM315 140c31 0 51 -17 51 -50c0 -35 -19 -53 -51 -53c-33 0 -52 17 -52 52c0 33 21 51 52 51zM315 506c31 0 51 -17 51 -50c0 -35 -19 -53 -51 -53c-33 0 -52 17 -52 52c0 33 21 51 52 51z" />
    <glyph glyph-name="oslash" unicode="&#xf8;" horiz-adv-x="523" 
d="M319 502c49 0 91 -13 122 -39l56 65c23 -6 41 -20 50 -42l-64 -74c19 -33 29 -78 29 -131c0 -72 -18 -157 -58 -213c-37 -52 -100 -88 -184 -88c-53 0 -95 14 -127 39l-69 -80c-16 13 -30 38 -33 63l60 70c-18 34 -26 75 -26 125c0 65 15 135 44 188
c38 69 107 117 200 117zM427 277c0 25 -3 48 -8 67l-223 -262c19 -18 45 -28 79 -28c54 0 89 25 113 62c27 41 39 103 39 161zM316 430c-58 0 -102 -31 -126 -80c-21 -42 -30 -107 -30 -148c0 -23 2 -43 6 -60l223 260c-18 18 -43 28 -73 28z" />
    <glyph glyph-name="ugrave" unicode="&#xf9;" horiz-adv-x="549" 
d="M214 487l-36 -311c-2 -15 -3 -28 -3 -39c0 -46 17 -77 79 -77c66 0 101 34 133 81l42 337c9 5 20 7 40 7c19 0 32 -2 39 -7l-40 -364c-6 -50 9 -56 35 -56c18 0 31 6 43 13c4 -25 -5 -61 -18 -75c-15 -11 -32 -16 -60 -16c-48 0 -83 22 -81 86h-4
c-25 -45 -71 -86 -161 -86c-100 0 -134 52 -134 132c0 16 2 37 4 52l41 308c22 11 45 15 81 15zM304 742l89 -152c-12 -18 -26 -29 -50 -34l-111 156c16 17 44 30 72 30z" />
    <glyph glyph-name="uacute" unicode="&#xfa;" horiz-adv-x="549" 
d="M214 487l-36 -311c-2 -15 -3 -28 -3 -39c0 -46 17 -77 79 -77c66 0 101 34 133 81l42 337c9 5 20 7 40 7c19 0 32 -2 39 -7l-40 -364c-6 -50 9 -56 35 -56c18 0 31 6 43 13c4 -25 -5 -61 -18 -75c-15 -11 -32 -16 -60 -16c-48 0 -83 22 -81 86h-4
c-25 -45 -71 -86 -161 -86c-100 0 -134 52 -134 132c0 16 2 37 4 52l41 308c22 11 45 15 81 15zM471 710l-153 -156c-22 7 -35 20 -42 42l122 144c27 0 58 -10 73 -30z" />
    <glyph glyph-name="ucircumflex" unicode="&#xfb;" horiz-adv-x="549" 
d="M214 487l-36 -311c-2 -15 -3 -28 -3 -39c0 -46 17 -77 79 -77c66 0 101 34 133 81l42 337c9 5 20 7 40 7c19 0 32 -2 39 -7l-40 -364c-6 -50 9 -56 35 -56c18 0 31 6 43 13c4 -25 -5 -61 -18 -75c-15 -11 -32 -16 -60 -16c-48 0 -83 22 -81 86h-4
c-25 -45 -71 -86 -161 -86c-100 0 -134 52 -134 132c0 16 2 37 4 52l41 308c22 11 45 15 81 15zM199 606l115 120c20 9 45 10 70 10l95 -144c-9 -21 -26 -35 -48 -41l-85 115l-119 -119c-15 15 -25 34 -28 59z" />
    <glyph glyph-name="udieresis" unicode="&#xfc;" horiz-adv-x="549" 
d="M214 487l-36 -311c-2 -15 -3 -28 -3 -39c0 -46 17 -77 79 -77c66 0 101 34 133 81l42 337c9 5 20 7 40 7c19 0 32 -2 39 -7l-40 -364c-6 -50 9 -56 35 -56c18 0 31 6 43 13c4 -25 -5 -61 -18 -75c-15 -11 -32 -16 -60 -16c-48 0 -83 22 -81 86h-4
c-25 -45 -71 -86 -161 -86c-100 0 -134 52 -134 132c0 16 2 37 4 52l41 308c22 11 45 15 81 15zM244 674c27 0 46 -15 46 -48c0 -31 -21 -51 -51 -51c-27 0 -45 16 -45 48s19 51 50 51zM438 674c27 0 46 -15 46 -48c0 -31 -21 -51 -51 -51c-27 0 -45 16 -45 48s19 51 50 51z
" />
    <glyph glyph-name="yacute" unicode="&#xfd;" horiz-adv-x="443" 
d="M239 41h4c70 121 147 283 147 357c0 22 -9 34 -38 34c-20 0 -38 -8 -48 -16c-3 24 7 54 18 67c14 10 33 19 65 19c62 0 85 -38 85 -89c0 -116 -123 -339 -190 -433c-81 -113 -155 -181 -271 -224c-19 15 -29 44 -29 76c85 25 153 82 204 151l-129 492c8 6 26 11 50 11
c16 0 25 -2 32 -6l84 -327c8 -29 16 -73 16 -112zM435 710l-153 -156c-22 7 -35 20 -42 42l122 144c27 0 58 -10 73 -30z" />
    <glyph glyph-name="thorn" unicode="&#xfe;" horiz-adv-x="526" 
d="M200 329l-29 -257c18 -9 48 -16 81 -16c51 0 89 16 116 42c48 46 64 122 64 192c0 94 -30 136 -96 136c-65 0 -104 -42 -136 -97zM52 -229l118 947c20 11 45 16 79 16l-20 -170c-7 -60 -16 -106 -27 -156h4c30 58 87 94 161 94c101 0 150 -67 150 -203
c0 -86 -20 -175 -72 -239c-42 -51 -104 -80 -191 -80c-29 0 -67 4 -90 16l-26 -225c-8 -5 -21 -7 -43 -7s-35 2 -43 7z" />
    <glyph glyph-name="ydieresis" unicode="&#xff;" horiz-adv-x="443" 
d="M239 41h4c70 121 147 283 147 357c0 22 -9 34 -38 34c-20 0 -38 -8 -48 -16c-3 24 7 54 18 67c14 10 33 19 65 19c62 0 85 -38 85 -89c0 -116 -123 -339 -190 -433c-81 -113 -155 -181 -271 -224c-19 15 -29 44 -29 76c85 25 153 82 204 151l-129 492c8 6 26 11 50 11
c16 0 25 -2 32 -6l84 -327c8 -29 16 -73 16 -112zM212 674c27 0 46 -15 46 -48c0 -31 -21 -51 -51 -51c-27 0 -45 16 -45 48s19 51 50 51zM406 674c27 0 46 -15 46 -48c0 -31 -21 -51 -51 -51c-27 0 -45 16 -45 48s19 51 50 51z" />
    <glyph glyph-name="Amacron" unicode="&#x100;" horiz-adv-x="611" 
d="M511 5l-45 196h-269l-88 -196c-9 -6 -25 -8 -46 -8c-20 0 -36 2 -43 8l308 692c11 3 30 6 55 6c24 0 42 -3 52 -6l163 -692c-8 -6 -22 -8 -43 -8c-19 0 -36 2 -44 8zM228 276h223l-45 194c-12 51 -23 116 -28 176h-5c-16 -60 -38 -125 -61 -178zM538 786h-286
c-3 5 -5 12 -5 27c0 20 3 34 7 41h286c3 -5 5 -12 5 -27c0 -20 -3 -34 -7 -41z" />
    <glyph glyph-name="amacron" unicode="&#x101;" horiz-adv-x="544" 
d="M501 456l-39 -342c-6 -50 9 -56 35 -56c18 0 31 6 43 13c4 -25 -5 -61 -18 -75c-15 -11 -33 -16 -61 -16c-48 0 -80 22 -79 82h-4c-26 -45 -76 -82 -151 -82c-85 0 -154 46 -154 198c0 85 22 165 66 225c51 69 125 99 211 99c65 0 111 -17 151 -46zM382 133l35 281
c-18 12 -42 17 -71 17c-66 0 -111 -26 -139 -63c-36 -47 -49 -119 -49 -178c0 -89 29 -130 99 -130c60 0 96 32 125 73zM231 654h249c3 -5 5 -12 5 -26c0 -19 -3 -32 -7 -39h-263c0 21 6 47 16 65z" />
    <glyph glyph-name="Abreve" unicode="&#x102;" horiz-adv-x="611" 
d="M511 5l-45 196h-269l-88 -196c-9 -6 -25 -8 -46 -8c-20 0 -36 2 -43 8l308 692c11 3 30 6 55 6c24 0 42 -3 52 -6l163 -692c-8 -6 -22 -8 -43 -8c-19 0 -36 2 -44 8zM228 276h223l-45 194c-12 51 -23 116 -28 176h-5c-16 -60 -38 -125 -61 -178zM507 898
c24 0 40 -4 56 -19c-24 -77 -80 -123 -173 -123c-90 0 -140 45 -144 118c15 15 36 23 61 25c5 -55 37 -77 91 -77c55 0 88 25 109 76z" />
    <glyph glyph-name="abreve" unicode="&#x103;" horiz-adv-x="544" 
d="M501 456l-39 -342c-6 -50 9 -56 35 -56c18 0 31 6 43 13c4 -25 -5 -61 -18 -75c-15 -11 -33 -16 -61 -16c-48 0 -80 22 -79 82h-4c-26 -45 -76 -82 -151 -82c-85 0 -154 46 -154 198c0 85 22 165 66 225c51 69 125 99 211 99c65 0 111 -17 151 -46zM382 133l35 281
c-18 12 -42 17 -71 17c-66 0 -111 -26 -139 -63c-36 -47 -49 -119 -49 -178c0 -89 29 -130 99 -130c60 0 96 32 125 73zM275 724c-3 -70 27 -100 74 -100c48 0 81 31 99 96c22 0 42 -5 55 -19c-21 -89 -76 -142 -161 -142c-84 0 -128 53 -129 136c13 16 38 27 62 29z" />
    <glyph glyph-name="Aogonek" unicode="&#x104;" horiz-adv-x="611" 
d="M560 -164c10 -12 15 -40 12 -61c-13 -6 -36 -12 -59 -12c-56 0 -102 30 -102 101c0 64 38 111 100 139l-45 198h-269l-88 -196c-9 -6 -25 -8 -46 -8c-20 0 -36 2 -43 8l308 692c11 3 30 6 55 6c24 0 42 -3 52 -6l163 -691c-49 -22 -108 -62 -108 -125
c0 -39 21 -49 47 -49c9 0 15 1 23 4zM228 276h223l-45 194c-12 51 -23 116 -28 176h-5c-16 -60 -38 -125 -61 -178z" />
    <glyph glyph-name="aogonek" unicode="&#x105;" horiz-adv-x="544" 
d="M506 -152c10 -12 15 -38 12 -58c-13 -6 -35 -12 -58 -12c-55 0 -100 28 -100 97c0 47 22 81 62 107v4c-25 11 -41 34 -40 76h-4c-26 -45 -76 -82 -151 -82c-85 0 -154 46 -154 198c0 85 22 165 66 225c51 69 125 99 211 99c65 0 111 -17 151 -46l-39 -342
c-6 -50 9 -56 35 -56c18 0 31 6 43 13c4 -25 -5 -61 -18 -75c-46 -24 -85 -58 -85 -103c0 -37 21 -49 47 -49c8 0 13 1 22 4zM382 133l35 281c-18 12 -42 17 -71 17c-66 0 -111 -26 -139 -63c-36 -47 -49 -119 -49 -178c0 -89 29 -130 99 -130c60 0 96 32 125 73z" />
    <glyph glyph-name="Cacute" unicode="&#x106;" horiz-adv-x="583" 
d="M549 95c2 -28 -7 -65 -27 -84c-40 -20 -88 -34 -158 -34c-176 0 -276 116 -276 323c0 213 108 418 348 418c56 0 105 -11 141 -33c14 -20 21 -58 14 -85c-45 26 -85 40 -141 40c-193 0 -273 -156 -273 -329c0 -179 84 -251 214 -251c62 0 116 16 158 35zM360 808l209 99
c17 -16 26 -43 26 -72l-221 -91c-11 15 -16 38 -14 64z" />
    <glyph glyph-name="cacute" unicode="&#x107;" horiz-adv-x="452" 
d="M400 9c-31 -17 -71 -29 -123 -29c-132 0 -202 79 -202 227c0 67 14 133 46 186c41 66 109 109 208 109c46 0 80 -9 106 -27c13 -19 19 -55 13 -82c-33 22 -64 33 -108 33c-70 0 -118 -29 -147 -76c-23 -38 -33 -81 -33 -131c0 -112 52 -159 144 -159c48 0 86 13 120 30
c3 -26 -7 -62 -24 -81zM459 710l-153 -156c-22 7 -35 20 -42 42l122 144c27 0 58 -10 73 -30z" />
    <glyph glyph-name="Ccircumflex" unicode="&#x108;" horiz-adv-x="583" 
d="M549 95c2 -28 -7 -65 -27 -84c-40 -20 -88 -34 -158 -34c-176 0 -276 116 -276 323c0 213 108 418 348 418c56 0 105 -11 141 -33c14 -20 21 -58 14 -85c-45 26 -85 40 -141 40c-193 0 -273 -156 -273 -329c0 -179 84 -251 214 -251c62 0 116 16 158 35zM477 889l106 -88
c-3 -25 -17 -45 -34 -56l-115 82l-143 -82c-12 15 -18 34 -18 60l121 82c9 4 23 6 44 6c18 0 31 -2 39 -4z" />
    <glyph glyph-name="ccircumflex" unicode="&#x109;" horiz-adv-x="452" 
d="M400 9c-31 -17 -71 -29 -123 -29c-132 0 -202 79 -202 227c0 67 14 133 46 186c41 66 109 109 208 109c46 0 80 -9 106 -27c13 -19 19 -55 13 -82c-33 22 -64 33 -108 33c-70 0 -118 -29 -147 -76c-23 -38 -33 -81 -33 -131c0 -112 52 -159 144 -159c48 0 86 13 120 30
c3 -26 -7 -62 -24 -81zM187 606l115 120c20 9 45 10 70 10l95 -144c-9 -21 -26 -35 -48 -41l-85 115l-119 -119c-15 15 -25 34 -28 59z" />
    <glyph glyph-name="Cdotaccent" unicode="&#x10a;" horiz-adv-x="583" 
d="M549 95c2 -28 -7 -65 -27 -84c-40 -20 -88 -34 -158 -34c-176 0 -276 116 -276 323c0 213 108 418 348 418c56 0 105 -11 141 -33c14 -20 21 -58 14 -85c-45 26 -85 40 -141 40c-193 0 -273 -156 -273 -329c0 -179 84 -251 214 -251c62 0 116 16 158 35zM435 877
c28 0 50 -16 50 -52s-24 -58 -58 -58c-29 0 -49 17 -49 52c0 37 21 58 57 58z" />
    <glyph glyph-name="cdotaccent" unicode="&#x10b;" horiz-adv-x="452" 
d="M400 9c-31 -17 -71 -29 -123 -29c-132 0 -202 79 -202 227c0 67 14 133 46 186c41 66 109 109 208 109c46 0 80 -9 106 -27c13 -19 19 -55 13 -82c-33 22 -64 33 -108 33c-70 0 -118 -29 -147 -76c-23 -38 -33 -81 -33 -131c0 -112 52 -159 144 -159c48 0 86 13 120 30
c3 -26 -7 -62 -24 -81zM333 682c28 0 49 -16 49 -51c0 -34 -23 -55 -55 -55c-29 0 -48 17 -48 51c0 35 20 55 54 55z" />
    <glyph glyph-name="Ccaron" unicode="&#x10c;" horiz-adv-x="583" 
d="M549 95c2 -28 -7 -65 -27 -84c-40 -20 -88 -34 -158 -34c-176 0 -276 116 -276 323c0 213 108 418 348 418c56 0 105 -11 141 -33c14 -20 21 -58 14 -85c-45 26 -85 40 -141 40c-193 0 -273 -156 -273 -329c0 -179 84 -251 214 -251c62 0 116 16 158 35zM323 903l107 -81
l138 81c16 -10 30 -31 31 -54l-132 -88c-8 -3 -22 -5 -41 -5c-17 0 -30 2 -37 5l-108 92c7 22 22 39 42 50z" />
    <glyph glyph-name="ccaron" unicode="&#x10d;" horiz-adv-x="452" 
d="M400 9c-31 -17 -71 -29 -123 -29c-132 0 -202 79 -202 227c0 67 14 133 46 186c41 66 109 109 208 109c46 0 80 -9 106 -27c13 -19 19 -55 13 -82c-33 22 -64 33 -108 33c-70 0 -118 -29 -147 -76c-23 -38 -33 -81 -33 -131c0 -112 52 -159 144 -159c48 0 86 13 120 30
c3 -26 -7 -62 -24 -81zM290 557l-92 147c11 17 32 30 52 33l78 -109l112 112c20 -5 36 -22 41 -40l-121 -134c-18 -6 -47 -9 -70 -9z" />
    <glyph glyph-name="Dcaron" unicode="&#x10e;" horiz-adv-x="650" 
d="M89 5l80 680c47 11 93 17 153 17c199 0 327 -102 327 -329c0 -225 -124 -378 -375 -378c-64 0 -129 4 -185 10zM243 618l-56 -539c29 -4 67 -5 97 -5c189 0 276 126 276 296c0 177 -91 256 -239 256c-27 0 -55 -2 -78 -8zM306 903l107 -81l138 81c16 -10 30 -31 31 -54
l-132 -88c-8 -3 -22 -5 -41 -5c-17 0 -30 2 -37 5l-108 92c7 22 22 39 42 50z" />
    <glyph glyph-name="dcaron" unicode="&#x10f;" horiz-adv-x="552" 
d="M386 134l34 276c-22 14 -43 19 -73 19c-66 0 -111 -25 -140 -63c-35 -46 -49 -118 -49 -176c0 -87 32 -130 103 -130c61 0 96 33 125 74zM536 734l-70 -620c-6 -50 9 -56 35 -56c18 0 31 6 43 13c4 -25 -5 -61 -18 -75c-15 -11 -33 -16 -61 -16c-46 0 -82 22 -79 82h-4
c-26 -46 -75 -82 -151 -82c-88 0 -158 46 -158 200c0 85 21 163 63 222c50 70 121 100 203 100c36 0 65 -6 89 -19l29 235c20 11 45 16 79 16zM689 747c-10 -79 -43 -162 -75 -209c-25 3 -42 14 -52 31c27 50 42 99 50 162c21 12 40 16 77 16z" />
    <glyph glyph-name="Dcroat" unicode="&#x110;" horiz-adv-x="657" 
d="M96 5l36 310h-78c-3 6 -6 15 -6 30c0 18 5 37 10 44h83l35 296c47 11 93 17 153 17c199 0 327 -102 327 -329c0 -225 -124 -378 -375 -378c-64 0 -129 4 -185 10zM406 315h-188l-24 -236c29 -4 67 -5 97 -5c189 0 276 126 276 296c0 177 -91 256 -239 256
c-27 0 -55 -2 -78 -8l-24 -229h184c3 -6 6 -15 6 -30c0 -18 -5 -37 -10 -44z" />
    <glyph glyph-name="dcroat" unicode="&#x111;" horiz-adv-x="549" 
d="M285 628h161l11 90c20 11 45 16 79 16l-12 -106h69c2 -3 5 -12 5 -25c0 -20 -4 -33 -8 -39h-73l-51 -450c-6 -50 9 -56 35 -56c18 0 31 6 43 13c4 -25 -5 -61 -18 -75c-15 -11 -33 -16 -61 -16c-46 0 -82 22 -79 82h-4c-26 -46 -75 -82 -151 -82c-88 0 -158 45 -158 197
c0 84 21 160 63 219c50 68 121 98 202 98c36 0 65 -6 89 -19l11 89h-167c0 20 6 49 14 64zM386 134l33 268c-22 14 -43 19 -73 19c-65 0 -110 -24 -139 -62c-35 -45 -49 -115 -49 -172c0 -85 32 -127 103 -127c61 0 96 33 125 74z" />
    <glyph glyph-name="Emacron" unicode="&#x112;" horiz-adv-x="562" 
d="M242 620l-25 -228h297c3 -5 6 -16 6 -30c0 -19 -5 -37 -10 -45h-300l-26 -238h331c3 -5 6 -15 6 -32c0 -20 -4 -38 -9 -47h-423l80 695h395c3 -5 6 -16 6 -30c0 -19 -5 -37 -10 -45h-318zM527 786h-286c-3 5 -5 12 -5 27c0 20 3 34 7 41h286c3 -5 5 -12 5 -27
c0 -20 -3 -34 -7 -41z" />
    <glyph glyph-name="emacron" unicode="&#x113;" horiz-adv-x="477" 
d="M482 382c0 -91 -71 -177 -323 -184c0 -108 35 -141 118 -141c66 0 118 21 169 61c1 -27 -9 -68 -25 -86c-32 -25 -90 -52 -166 -52c-123 0 -180 70 -180 202c0 88 26 172 76 232c46 55 112 88 190 88c90 0 141 -44 141 -120zM165 268c171 3 238 47 238 109
c0 32 -17 55 -70 55s-96 -23 -128 -66c-18 -25 -32 -57 -40 -98zM217 654h249c3 -5 5 -12 5 -26c0 -19 -3 -32 -7 -39h-263c0 21 6 47 16 65z" />
    <glyph glyph-name="Ebreve" unicode="&#x114;" horiz-adv-x="562" 
d="M242 620l-25 -228h297c3 -5 6 -16 6 -30c0 -19 -5 -37 -10 -45h-300l-26 -238h331c3 -5 6 -15 6 -32c0 -20 -4 -38 -9 -47h-423l80 695h395c3 -5 6 -16 6 -30c0 -19 -5 -37 -10 -45h-318zM493 898c24 0 40 -4 56 -19c-24 -77 -80 -123 -173 -123c-90 0 -140 45 -144 118
c15 15 36 23 61 25c5 -55 37 -77 91 -77c55 0 88 25 109 76z" />
    <glyph glyph-name="ebreve" unicode="&#x115;" horiz-adv-x="477" 
d="M482 382c0 -91 -71 -177 -323 -184c0 -108 35 -141 118 -141c66 0 118 21 169 61c1 -27 -9 -68 -25 -86c-32 -25 -90 -52 -166 -52c-123 0 -180 70 -180 202c0 88 26 172 76 232c46 55 112 88 190 88c90 0 141 -44 141 -120zM165 268c171 3 238 47 238 109
c0 32 -17 55 -70 55s-96 -23 -128 -66c-18 -25 -32 -57 -40 -98zM262 724c-3 -70 27 -100 74 -100c48 0 81 31 99 96c22 0 42 -5 55 -19c-21 -89 -76 -142 -161 -142c-84 0 -128 53 -129 136c13 16 38 27 62 29z" />
    <glyph glyph-name="Edotaccent" unicode="&#x116;" horiz-adv-x="562" 
d="M242 620l-25 -228h297c3 -5 6 -16 6 -30c0 -19 -5 -37 -10 -45h-300l-26 -238h331c3 -5 6 -15 6 -32c0 -20 -4 -38 -9 -47h-423l80 695h395c3 -5 6 -16 6 -30c0 -19 -5 -37 -10 -45h-318zM390 877c28 0 50 -16 50 -52s-24 -58 -58 -58c-29 0 -49 17 -49 52
c0 37 21 58 57 58z" />
    <glyph glyph-name="edotaccent" unicode="&#x117;" horiz-adv-x="477" 
d="M482 382c0 -91 -71 -177 -323 -184c0 -108 35 -141 118 -141c66 0 118 21 169 61c1 -27 -9 -68 -25 -86c-32 -25 -90 -52 -166 -52c-123 0 -180 70 -180 202c0 88 26 172 76 232c46 55 112 88 190 88c90 0 141 -44 141 -120zM165 268c171 3 238 47 238 109
c0 32 -17 55 -70 55s-96 -23 -128 -66c-18 -25 -32 -57 -40 -98zM339 682c28 0 49 -16 49 -51c0 -34 -23 -55 -55 -55c-29 0 -48 17 -48 51c0 35 20 55 54 55z" />
    <glyph glyph-name="Eogonek" unicode="&#x118;" horiz-adv-x="562" 
d="M487 -164c10 -12 15 -40 12 -61c-13 -6 -36 -12 -59 -12c-56 0 -102 30 -102 101c0 61 33 103 86 132v4h-335l80 695h395c3 -5 6 -16 6 -30c0 -19 -5 -37 -10 -45h-318l-25 -228h297c3 -5 6 -16 6 -30c0 -19 -5 -37 -10 -45h-300l-26 -238h331c3 -5 6 -15 6 -32
c0 -20 -4 -38 -9 -47c-45 -24 -95 -61 -95 -119c0 -39 21 -49 47 -49c9 0 15 1 23 4z" />
    <glyph glyph-name="eogonek" unicode="&#x119;" horiz-adv-x="477" 
d="M482 382c0 -91 -71 -177 -323 -184c0 -108 35 -141 118 -141c66 0 118 21 169 61c1 -27 -10 -70 -28 -90c-60 -26 -145 -70 -145 -135c0 -37 21 -49 47 -49c8 0 13 1 22 4c10 -12 15 -38 12 -58c-13 -6 -35 -12 -58 -12c-55 0 -100 28 -100 97c0 47 23 81 56 101v4
c-122 1 -177 71 -177 202c0 88 26 172 76 232c46 55 112 88 190 88c90 0 141 -44 141 -120zM165 268c171 3 238 47 238 109c0 32 -17 55 -70 55s-96 -23 -128 -66c-18 -25 -32 -57 -40 -98z" />
    <glyph glyph-name="Ecaron" unicode="&#x11a;" horiz-adv-x="562" 
d="M242 620l-25 -228h297c3 -5 6 -16 6 -30c0 -19 -5 -37 -10 -45h-300l-26 -238h331c3 -5 6 -15 6 -32c0 -20 -4 -38 -9 -47h-423l80 695h395c3 -5 6 -16 6 -30c0 -19 -5 -37 -10 -45h-318zM277 903l107 -81l138 81c16 -10 30 -31 31 -54l-132 -88c-8 -3 -22 -5 -41 -5
c-17 0 -30 2 -37 5l-108 92c7 22 22 39 42 50z" />
    <glyph glyph-name="ecaron" unicode="&#x11b;" horiz-adv-x="477" 
d="M482 382c0 -91 -71 -177 -323 -184c0 -108 35 -141 118 -141c66 0 118 21 169 61c1 -27 -9 -68 -25 -86c-32 -25 -90 -52 -166 -52c-123 0 -180 70 -180 202c0 88 26 172 76 232c46 55 112 88 190 88c90 0 141 -44 141 -120zM165 268c171 3 238 47 238 109
c0 32 -17 55 -70 55s-96 -23 -128 -66c-18 -25 -32 -57 -40 -98zM298 557l-92 147c11 17 32 30 52 33l78 -109l112 112c20 -5 36 -22 41 -40l-121 -134c-18 -6 -47 -9 -70 -9z" />
    <glyph glyph-name="Gcircumflex" unicode="&#x11c;" horiz-adv-x="653" 
d="M595 29c-53 -28 -132 -52 -218 -52c-187 0 -290 114 -290 320c0 221 118 421 370 421c60 0 113 -12 152 -34c15 -20 21 -58 15 -85c-49 27 -101 41 -162 41c-197 0 -286 -155 -286 -335c0 -173 82 -246 214 -246c50 0 90 10 124 25l26 218h-162c-3 5 -6 17 -6 31
c0 19 5 36 10 44h248zM496 889l106 -88c-3 -25 -17 -45 -34 -56l-115 82l-143 -82c-12 15 -18 34 -18 60l121 82c9 4 23 6 44 6c18 0 31 -2 39 -4z" />
    <glyph glyph-name="gcircumflex" unicode="&#x11d;" horiz-adv-x="523" 
d="M384 71h-4c-29 -46 -80 -78 -151 -78c-87 0 -157 45 -157 193c0 82 22 165 66 221c50 65 131 95 214 95c66 0 111 -18 151 -46l-53 -476c-16 -145 -71 -233 -230 -233c-53 0 -108 10 -149 32c-14 27 -14 67 -4 91c47 -30 102 -45 152 -45c95 0 133 52 146 150
c3 25 11 72 19 96zM386 142l33 272c-21 11 -45 17 -76 17c-65 0 -108 -27 -138 -64c-35 -43 -48 -112 -48 -167c0 -87 33 -127 103 -127c59 0 95 28 126 69zM205 606l115 120c20 9 45 10 70 10l95 -144c-9 -21 -26 -35 -48 -41l-85 115l-119 -119c-15 15 -25 34 -28 59z" />
    <glyph glyph-name="Gbreve" unicode="&#x11e;" horiz-adv-x="653" 
d="M595 29c-53 -28 -132 -52 -218 -52c-187 0 -290 114 -290 320c0 221 118 421 370 421c60 0 113 -12 152 -34c15 -20 21 -58 15 -85c-49 27 -101 41 -162 41c-197 0 -286 -155 -286 -335c0 -173 82 -246 214 -246c50 0 90 10 124 25l26 218h-162c-3 5 -6 17 -6 31
c0 19 5 36 10 44h248zM560 898c24 0 40 -4 56 -19c-24 -77 -80 -123 -173 -123c-90 0 -140 45 -144 118c15 15 36 23 61 25c5 -55 37 -77 91 -77c55 0 88 25 109 76z" />
    <glyph glyph-name="gbreve" unicode="&#x11f;" horiz-adv-x="523" 
d="M384 71h-4c-29 -46 -80 -78 -151 -78c-87 0 -157 45 -157 193c0 82 22 165 66 221c50 65 131 95 214 95c66 0 111 -18 151 -46l-53 -476c-16 -145 -71 -233 -230 -233c-53 0 -108 10 -149 32c-14 27 -14 67 -4 91c47 -30 102 -45 152 -45c95 0 133 52 146 150
c3 25 11 72 19 96zM386 142l33 272c-21 11 -45 17 -76 17c-65 0 -108 -27 -138 -64c-35 -43 -48 -112 -48 -167c0 -87 33 -127 103 -127c59 0 95 28 126 69zM270 724c-3 -70 27 -100 74 -100c48 0 81 31 99 96c22 0 42 -5 55 -19c-21 -89 -76 -142 -161 -142
c-84 0 -128 53 -129 136c13 16 38 27 62 29z" />
    <glyph glyph-name="Gdotaccent" unicode="&#x120;" horiz-adv-x="653" 
d="M595 29c-53 -28 -132 -52 -218 -52c-187 0 -290 114 -290 320c0 221 118 421 370 421c60 0 113 -12 152 -34c15 -20 21 -58 15 -85c-49 27 -101 41 -162 41c-197 0 -286 -155 -286 -335c0 -173 82 -246 214 -246c50 0 90 10 124 25l26 218h-162c-3 5 -6 17 -6 31
c0 19 5 36 10 44h248zM453 877c28 0 50 -16 50 -52s-24 -58 -58 -58c-29 0 -49 17 -49 52c0 37 21 58 57 58z" />
    <glyph glyph-name="gdotaccent" unicode="&#x121;" horiz-adv-x="523" 
d="M384 71h-4c-29 -46 -80 -78 -151 -78c-87 0 -157 45 -157 193c0 82 22 165 66 221c50 65 131 95 214 95c66 0 111 -18 151 -46l-53 -476c-16 -145 -71 -233 -230 -233c-53 0 -108 10 -149 32c-14 27 -14 67 -4 91c47 -30 102 -45 152 -45c95 0 133 52 146 150
c3 25 11 72 19 96zM386 142l33 272c-21 11 -45 17 -76 17c-65 0 -108 -27 -138 -64c-35 -43 -48 -112 -48 -167c0 -87 33 -127 103 -127c59 0 95 28 126 69zM350 682c28 0 49 -16 49 -51c0 -34 -23 -55 -55 -55c-29 0 -48 17 -48 51c0 35 20 55 54 55z" />
    <glyph glyph-name="uni0122" unicode="&#x122;" horiz-adv-x="653" 
d="M595 29c-53 -28 -132 -52 -218 -52c-187 0 -290 114 -290 320c0 221 118 421 370 421c60 0 113 -12 152 -34c15 -20 21 -58 15 -85c-49 27 -101 41 -162 41c-197 0 -286 -155 -286 -335c0 -173 82 -246 214 -246c50 0 90 10 124 25l26 218h-162c-3 5 -6 17 -6 31
c0 19 5 36 10 44h248zM401 -48c-9 -75 -39 -157 -70 -202c-27 3 -45 15 -55 32c23 47 39 96 46 154c21 12 41 16 79 16z" />
    <glyph glyph-name="uni0123" unicode="&#x123;" horiz-adv-x="523" 
d="M384 71h-4c-29 -46 -80 -78 -151 -78c-87 0 -157 45 -157 193c0 82 22 165 66 221c50 65 131 95 214 95c66 0 111 -18 151 -46l-53 -476c-16 -145 -71 -233 -230 -233c-53 0 -108 10 -149 32c-14 27 -14 67 -4 91c47 -30 102 -45 152 -45c95 0 133 52 146 150
c3 25 11 72 19 96zM386 142l33 272c-21 11 -45 17 -76 17c-65 0 -108 -27 -138 -64c-35 -43 -48 -112 -48 -167c0 -87 33 -127 103 -127c59 0 95 28 126 69zM303 572c8 61 35 122 58 163c17 12 39 18 69 18c-25 -51 -44 -119 -53 -178c-8 -6 -29 -9 -45 -9
c-13 0 -24 2 -29 6z" />
    <glyph glyph-name="Hcircumflex" unicode="&#x124;" horiz-adv-x="690" 
d="M515 4l37 317h-340l-33 -317c-9 -5 -22 -7 -45 -7c-22 0 -36 2 -44 7l79 687c8 5 22 7 42 7c19 0 32 -2 39 -7l-31 -293h341l33 293c9 5 22 7 42 7c19 0 32 -2 40 -7l-71 -687c-9 -5 -23 -7 -45 -7s-36 2 -44 7zM485 889l106 -88c-3 -25 -17 -45 -34 -56l-115 82
l-143 -82c-12 15 -18 34 -18 60l121 82c9 4 23 6 44 6c18 0 31 -2 39 -4z" />
    <glyph glyph-name="hcircumflex" unicode="&#x125;" horiz-adv-x="559" 
d="M81 4l90 714c20 11 45 16 79 16l-21 -178c-6 -53 -15 -108 -25 -152h4c24 49 76 98 165 98c90 0 135 -48 135 -138c0 -19 -1 -38 -3 -54l-21 -196c-5 -48 9 -56 33 -56c20 0 31 5 45 13c4 -25 -5 -61 -18 -75c-15 -10 -33 -16 -61 -16c-68 0 -87 37 -87 91
c0 12 1 26 3 40l24 187c2 15 3 27 3 41c0 47 -18 86 -83 86c-68 0 -110 -44 -140 -99l-37 -322c-8 -5 -21 -7 -43 -7s-34 2 -42 7zM74 824l108 71c23 10 45 13 78 13l114 -93c-4 -23 -15 -41 -32 -52l-116 82l-141 -80c-9 17 -13 37 -11 59z" />
    <glyph glyph-name="Hbar" unicode="&#x126;" horiz-adv-x="696" 
d="M725 491h-68l-50 -487c-9 -5 -23 -7 -45 -7s-36 2 -44 7l35 297h-340l-31 -297c-9 -5 -22 -7 -45 -7c-22 0 -36 2 -44 7l56 487h-65c-3 7 -5 14 -5 28c0 17 5 35 9 41h69l15 131c8 5 22 7 42 7c19 0 32 -2 39 -7l-14 -131h343l14 131c9 5 22 7 42 7c19 0 32 -2 40 -7
l-14 -131h65c3 -7 5 -14 5 -28c0 -17 -5 -35 -9 -41zM220 378h341l13 113h-342z" />
    <glyph glyph-name="hbar" unicode="&#x127;" horiz-adv-x="561" 
d="M100 628h62l11 90c20 11 45 16 79 16l-12 -106h164c2 -3 5 -12 5 -25c0 -20 -4 -33 -8 -39h-169l-2 -21c-5 -53 -15 -108 -25 -152h4c24 49 76 98 165 98c90 0 135 -48 135 -138c0 -19 -1 -38 -3 -54l-20 -183c-5 -48 9 -56 33 -56c20 0 31 5 45 13c4 -25 -5 -61 -18 -75
c-15 -10 -33 -16 -61 -16c-68 0 -87 37 -87 91c0 12 1 26 3 40l23 174c2 15 3 27 3 41c0 47 -18 86 -83 86c-68 0 -110 -44 -140 -99l-36 -309c-8 -5 -21 -7 -43 -7s-34 2 -42 7l70 560h-67c0 20 6 49 14 64z" />
    <glyph glyph-name="Itilde" unicode="&#x128;" horiz-adv-x="266" 
d="M90 4l79 687c8 5 22 7 42 7c19 0 32 -2 40 -7l-71 -687c-9 -5 -23 -7 -45 -7c-24 0 -37 2 -45 7zM41 789c13 51 52 93 111 93c80 0 90 -51 150 -51c26 0 41 16 51 44c24 -1 40 -6 54 -20c-13 -54 -50 -96 -110 -96c-79 0 -90 51 -149 51c-28 0 -46 -17 -57 -46
c-22 3 -40 10 -50 25z" />
    <glyph glyph-name="itilde" unicode="&#x129;" horiz-adv-x="257" 
d="M217 478l-41 -364c-6 -50 9 -56 35 -56c18 0 31 6 43 13c4 -25 -5 -61 -18 -75c-15 -10 -33 -16 -61 -16c-68 0 -87 37 -87 91c0 12 1 26 3 40l47 367c9 5 20 7 40 7c19 0 32 -2 39 -7zM130 617c-23 0 -39 -17 -48 -48c-19 3 -36 16 -45 36c13 48 48 80 96 80
c69 0 79 -52 124 -52c22 0 38 14 42 42c22 0 39 -4 54 -15c-10 -57 -44 -95 -97 -95c-66 0 -76 52 -126 52z" />
    <glyph glyph-name="Imacron" unicode="&#x12a;" horiz-adv-x="266" 
d="M90 4l79 687c8 5 22 7 42 7c19 0 32 -2 40 -7l-71 -687c-9 -5 -23 -7 -45 -7c-24 0 -37 2 -45 7zM338 786h-231c-3 5 -5 12 -5 27c0 20 3 34 7 41h231c3 -5 5 -12 5 -27c0 -20 -3 -34 -7 -41z" />
    <glyph glyph-name="imacron" unicode="&#x12b;" horiz-adv-x="257" 
d="M217 478l-41 -364c-6 -50 9 -56 35 -56c18 0 31 6 43 13c4 -25 -5 -61 -18 -75c-15 -10 -33 -16 -61 -16c-68 0 -87 37 -87 91c0 12 1 26 3 40l47 367c9 5 20 7 40 7c19 0 32 -2 39 -7zM101 654h197c3 -5 5 -12 5 -26c0 -19 -3 -32 -7 -39h-211c0 21 6 47 16 65z" />
    <glyph glyph-name="Ibreve" unicode="&#x12c;" horiz-adv-x="266" 
d="M90 4l79 687c8 5 22 7 42 7c19 0 32 -2 40 -7l-71 -687c-9 -5 -23 -7 -45 -7c-24 0 -37 2 -45 7zM331 898c24 0 40 -4 56 -19c-24 -77 -80 -123 -173 -123c-90 0 -140 45 -144 118c15 15 36 23 61 25c5 -55 37 -77 91 -77c55 0 88 25 109 76z" />
    <glyph glyph-name="ibreve" unicode="&#x12d;" horiz-adv-x="257" 
d="M121 724c-3 -70 27 -100 74 -100c48 0 81 31 99 96c22 0 42 -5 55 -19c-21 -89 -76 -142 -161 -142c-84 0 -128 53 -129 136c13 16 38 27 62 29zM217 478l-41 -364c-6 -50 9 -56 35 -56c18 0 31 6 43 13c4 -25 -5 -61 -18 -75c-15 -10 -33 -16 -61 -16
c-68 0 -87 37 -87 91c0 12 1 26 3 40l47 367c9 5 20 7 40 7c19 0 32 -2 39 -7z" />
    <glyph glyph-name="Iogonek" unicode="&#x12e;" horiz-adv-x="266" 
d="M144 -164c10 -12 15 -40 12 -61c-13 -6 -36 -12 -59 -12c-56 0 -102 30 -102 101c0 63 36 109 94 136l80 691c8 5 22 7 42 7c19 0 32 -2 40 -7l-71 -687c-48 -22 -106 -61 -106 -123c0 -39 21 -49 47 -49c9 0 15 1 23 4z" />
    <glyph glyph-name="iogonek" unicode="&#x12f;" horiz-adv-x="257" 
d="M217 -152c10 -12 15 -38 12 -58c-13 -6 -35 -12 -58 -12c-55 0 -100 28 -100 97c0 47 23 82 63 107v4c-36 15 -46 43 -46 85c0 12 1 26 3 40l47 367c9 5 20 7 40 7c19 0 32 -2 39 -7l-41 -364c-6 -50 9 -56 35 -56c18 0 31 6 43 13c4 -25 -4 -59 -17 -73
c-46 -23 -89 -58 -89 -105c0 -37 21 -49 47 -49c8 0 13 1 22 4zM200 707c30 0 52 -17 52 -54c0 -35 -24 -58 -58 -58c-30 0 -51 18 -51 54s22 58 57 58z" />
    <glyph glyph-name="Idotaccent" unicode="&#x130;" horiz-adv-x="266" 
d="M90 4l79 687c8 5 22 7 42 7c19 0 32 -2 40 -7l-71 -687c-9 -5 -23 -7 -45 -7c-24 0 -37 2 -45 7zM227 877c28 0 50 -16 50 -52s-24 -58 -58 -58c-29 0 -49 17 -49 52c0 37 21 58 57 58z" />
    <glyph glyph-name="dotlessi" unicode="&#x131;" horiz-adv-x="257" 
d="M217 478l-41 -364c-6 -50 9 -56 35 -56c18 0 31 6 43 13c4 -25 -5 -61 -18 -75c-15 -10 -33 -16 -61 -16c-68 0 -87 37 -87 91c0 12 1 26 3 40l47 367c9 5 20 7 40 7c19 0 32 -2 39 -7z" />
    <glyph glyph-name="IJ" unicode="&#x132;" horiz-adv-x="564" 
d="M90 4l79 687c8 5 22 7 42 7c19 0 32 -2 40 -7l-71 -687c-9 -5 -23 -7 -45 -7c-24 0 -37 2 -45 7zM551 691l-58 -562c-18 -174 -87 -271 -219 -332c-22 16 -33 40 -35 73c107 52 151 125 166 257l64 564c8 5 22 7 42 7c19 0 32 -2 40 -7z" />
    <glyph glyph-name="ij" unicode="&#x133;" horiz-adv-x="496" 
d="M217 478l-41 -364c-6 -50 9 -56 35 -56c18 0 31 6 43 13c4 -25 -5 -61 -18 -75c-15 -10 -33 -16 -61 -16c-68 0 -87 37 -87 91c0 12 1 26 3 40l47 367c9 5 20 7 40 7c19 0 32 -2 39 -7zM200 707c30 0 52 -17 52 -54c0 -35 -24 -58 -58 -58c-30 0 -51 18 -51 54
s22 58 57 58zM480 478l-49 -429c-17 -152 -88 -228 -171 -290c-25 8 -43 33 -47 61c62 47 117 105 132 222l56 436c9 5 20 7 40 7c19 0 32 -2 39 -7zM458 707c30 0 52 -17 52 -54c0 -35 -24 -58 -58 -58c-30 0 -51 18 -51 54s22 58 57 58z" />
    <glyph glyph-name="Jcircumflex" unicode="&#x134;" horiz-adv-x="298" 
d="M285 691l-58 -562c-18 -174 -87 -271 -219 -332c-22 16 -33 40 -35 73c107 52 151 125 166 257l64 564c8 5 22 7 42 7c19 0 32 -2 40 -7zM302 889l106 -88c-3 -25 -17 -45 -34 -56l-115 82l-143 -82c-12 15 -18 34 -18 60l121 82c9 4 23 6 44 6c18 0 31 -2 39 -4z" />
    <glyph glyph-name="jcircumflex" unicode="&#x135;" horiz-adv-x="239" 
d="M56 606l115 120c20 9 45 10 70 10l95 -144c-9 -21 -26 -35 -48 -41l-85 115l-119 -119c-15 15 -25 34 -28 59zM223 478l-49 -429c-17 -152 -88 -228 -171 -290c-25 8 -43 33 -47 61c62 47 117 105 132 222l56 436c9 5 20 7 40 7c19 0 32 -2 39 -7z" />
    <glyph glyph-name="uni0136" unicode="&#x136;" horiz-adv-x="595" 
d="M90 4l79 687c8 5 22 7 42 7c19 0 32 -2 40 -7l-31 -296h75l234 295c12 5 30 8 53 8c21 0 36 -3 44 -8l-264 -335l219 -350c-8 -6 -24 -8 -50 -8c-25 0 -44 3 -55 8l-191 313h-73l-32 -314c-9 -5 -23 -7 -45 -7c-24 0 -37 2 -45 7zM364 -48c-9 -75 -39 -157 -70 -202
c-27 3 -45 15 -55 32c23 47 39 96 46 154c21 12 41 16 79 16z" />
    <glyph glyph-name="uni0137" unicode="&#x137;" horiz-adv-x="502" 
d="M80 4l90 714c20 11 45 16 79 16l-50 -438h62l157 184c7 3 20 6 37 6c27 0 46 -6 54 -12l-182 -210c38 -118 76 -209 145 -209c19 0 30 5 41 13c4 -24 -4 -61 -18 -76c-12 -8 -30 -12 -50 -12c-110 0 -162 147 -188 247h-66l-26 -223c-8 -5 -21 -7 -43 -7s-34 2 -42 7z
M320 -46c-10 -75 -39 -154 -69 -199c-26 3 -44 15 -53 31c24 47 38 93 45 151c21 12 39 17 77 17z" />
    <glyph glyph-name="kgreenlandic" unicode="&#x138;" horiz-adv-x="499" 
d="M78 4l61 474c9 5 20 7 40 7c19 0 32 -2 39 -7l-23 -198h61l161 200c7 3 20 6 37 6c27 0 46 -6 54 -12l-188 -227c38 -110 77 -192 146 -192c20 0 31 5 43 13c4 -24 -4 -61 -18 -76c-12 -8 -31 -12 -52 -12c-108 0 -163 133 -190 231h-62l-24 -207c-8 -5 -21 -7 -43 -7
s-34 2 -42 7z" />
    <glyph glyph-name="Lacute" unicode="&#x139;" horiz-adv-x="529" 
d="M495 0h-406l79 691c8 5 22 7 42 7c19 0 32 -2 40 -7l-63 -611h313c2 -4 5 -15 5 -30c0 -22 -5 -40 -10 -50zM153 808l209 99c17 -16 26 -43 26 -72l-221 -91c-11 15 -16 38 -14 64z" />
    <glyph glyph-name="lacute" unicode="&#x13a;" horiz-adv-x="265" 
d="M247 734l-71 -620c-6 -48 10 -56 37 -56c24 0 40 7 54 16c4 -25 -5 -61 -18 -75c-18 -12 -41 -19 -70 -19c-56 0 -91 25 -91 89c0 11 2 31 3 42l78 607c19 11 44 16 78 16zM146 812l189 91c15 -15 27 -38 27 -64l-204 -84c-8 13 -14 34 -12 57z" />
    <glyph glyph-name="uni013B" unicode="&#x13b;" horiz-adv-x="529" 
d="M495 0h-406l79 691c8 5 22 7 42 7c19 0 32 -2 40 -7l-63 -611h313c2 -4 5 -15 5 -30c0 -22 -5 -40 -10 -50zM345 -48c-9 -75 -39 -157 -70 -202c-27 3 -45 15 -55 32c23 47 39 96 46 154c21 12 41 16 79 16z" />
    <glyph glyph-name="uni013C" unicode="&#x13c;" horiz-adv-x="265" 
d="M247 734l-71 -620c-6 -48 10 -56 37 -56c24 0 40 7 54 16c4 -25 -5 -61 -18 -75c-18 -12 -41 -19 -70 -19c-56 0 -91 25 -91 89c0 11 2 31 3 42l78 607c19 11 44 16 78 16zM209 -46c-10 -75 -39 -154 -69 -199c-26 3 -44 15 -53 31c24 47 38 93 45 151c21 12 39 17 77 17
z" />
    <glyph glyph-name="Lcaron" unicode="&#x13d;" horiz-adv-x="532" 
d="M495 0h-406l79 691c8 5 22 7 42 7c19 0 32 -2 40 -7l-63 -611h313c2 -4 5 -15 5 -30c0 -22 -5 -40 -10 -50zM511 699c-10 -81 -43 -164 -75 -212c-26 3 -44 14 -54 31c28 52 42 100 50 165c21 12 40 16 79 16z" />
    <glyph glyph-name="lcaron" unicode="&#x13e;" horiz-adv-x="271" 
d="M247 734l-71 -620c-6 -48 10 -56 37 -56c24 0 40 7 54 16c4 -25 -5 -61 -18 -75c-18 -12 -41 -19 -70 -19c-56 0 -91 25 -91 89c0 11 2 31 3 42l78 607c19 11 44 16 78 16zM404 747c-10 -79 -43 -162 -75 -209c-25 3 -42 14 -52 31c27 50 42 99 50 162c21 12 40 16 77 16
z" />
    <glyph glyph-name="Ldot" unicode="&#x13f;" horiz-adv-x="540" 
d="M495 0h-406l79 691c8 5 22 7 42 7c19 0 32 -2 40 -7l-63 -611h313c2 -4 5 -15 5 -30c0 -22 -5 -40 -10 -50zM444 432c28 0 50 -16 50 -52s-24 -58 -58 -58c-29 0 -49 17 -49 52c0 37 21 58 57 58z" />
    <glyph glyph-name="ldot" unicode="&#x140;" horiz-adv-x="358" 
d="M247 734l-71 -620c-6 -48 10 -56 37 -56c24 0 40 7 54 16c4 -25 -5 -61 -18 -75c-18 -12 -41 -19 -70 -19c-56 0 -91 25 -91 89c0 11 2 31 3 42l78 607c19 11 44 16 78 16zM332 340c28 0 49 -16 49 -51c0 -34 -23 -55 -55 -55c-29 0 -48 17 -48 51c0 35 20 55 54 55z" />
    <glyph glyph-name="Lslash" unicode="&#x141;" horiz-adv-x="533" 
d="M499 0h-406l32 281l-64 -37c-17 15 -26 40 -27 68l101 57l37 322c8 5 22 7 42 7c19 0 32 -2 40 -7l-30 -292l153 87c17 -14 29 -39 30 -65l-192 -109l-24 -232h313c2 -4 5 -15 5 -30c0 -22 -5 -40 -10 -50z" />
    <glyph glyph-name="lslash" unicode="&#x142;" horiz-adv-x="271" 
d="M250 734l-39 -337l63 38c17 -13 29 -37 29 -61l-101 -58l-23 -202c-6 -48 10 -56 37 -56c24 0 40 7 54 16c4 -25 -5 -61 -18 -75c-18 -12 -41 -19 -70 -19c-56 0 -91 25 -91 89c0 11 2 31 3 42l23 175l-62 -37c-8 16 -14 47 -10 72l82 47l45 350c19 11 44 16 78 16z" />
    <glyph glyph-name="Nacute" unicode="&#x143;" horiz-adv-x="690" 
d="M237 623l-63 -620c-8 -4 -22 -6 -43 -6c-20 0 -35 2 -42 6l81 687c13 5 27 8 54 8c26 0 39 -3 51 -8l204 -453c20 -44 37 -103 46 -159h4l69 613c7 5 18 7 39 7c18 0 30 -2 37 -7l-70 -689c-12 -4 -32 -7 -59 -7c-26 0 -43 3 -54 7l-208 473c-19 43 -35 98 -42 148h-4z
M368 808l209 99c17 -16 26 -43 26 -72l-221 -91c-11 15 -16 38 -14 64z" />
    <glyph glyph-name="nacute" unicode="&#x144;" horiz-adv-x="554" 
d="M80 4l59 474c15 7 38 11 67 11l-4 -87h4c27 53 76 100 165 100c88 0 132 -48 132 -138c0 -19 -1 -38 -3 -54l-21 -196c-5 -48 9 -56 33 -56c20 0 31 5 45 13c4 -25 -5 -61 -18 -75c-15 -10 -33 -16 -61 -16c-68 0 -87 37 -87 91c0 12 1 26 3 40l24 187c2 15 3 27 3 41
c0 47 -17 86 -80 86c-68 0 -109 -43 -139 -99l-37 -322c-8 -5 -21 -7 -43 -7s-34 2 -42 7zM475 710l-153 -156c-22 7 -35 20 -42 42l122 144c27 0 58 -10 73 -30z" />
    <glyph glyph-name="uni0145" unicode="&#x145;" horiz-adv-x="690" 
d="M237 623l-63 -620c-8 -4 -22 -6 -43 -6c-20 0 -35 2 -42 6l81 687c13 5 27 8 54 8c26 0 39 -3 51 -8l204 -453c20 -44 37 -103 46 -159h4l69 613c7 5 18 7 39 7c18 0 30 -2 37 -7l-70 -689c-12 -4 -32 -7 -59 -7c-26 0 -43 3 -54 7l-208 473c-19 43 -35 98 -42 148h-4z
M387 -48c-9 -75 -39 -157 -70 -202c-27 3 -45 15 -55 32c23 47 39 96 46 154c21 12 41 16 79 16z" />
    <glyph glyph-name="uni0146" unicode="&#x146;" horiz-adv-x="554" 
d="M80 4l59 474c15 7 38 11 67 11l-4 -87h4c27 53 76 100 165 100c88 0 132 -48 132 -138c0 -19 -1 -38 -3 -54l-21 -196c-5 -48 9 -56 33 -56c20 0 31 5 45 13c4 -25 -5 -61 -18 -75c-15 -10 -33 -16 -61 -16c-68 0 -87 37 -87 91c0 12 1 26 3 40l24 187c2 15 3 27 3 41
c0 47 -17 86 -80 86c-68 0 -109 -43 -139 -99l-37 -322c-8 -5 -21 -7 -43 -7s-34 2 -42 7zM325 -46c-10 -75 -39 -154 -69 -199c-26 3 -44 15 -53 31c24 47 38 93 45 151c21 12 39 17 77 17z" />
    <glyph glyph-name="Ncaron" unicode="&#x147;" horiz-adv-x="690" 
d="M237 623l-63 -620c-8 -4 -22 -6 -43 -6c-20 0 -35 2 -42 6l81 687c13 5 27 8 54 8c26 0 39 -3 51 -8l204 -453c20 -44 37 -103 46 -159h4l69 613c7 5 18 7 39 7c18 0 30 -2 37 -7l-70 -689c-12 -4 -32 -7 -59 -7c-26 0 -43 3 -54 7l-208 473c-19 43 -35 98 -42 148h-4z
M329 903l107 -81l138 81c16 -10 30 -31 31 -54l-132 -88c-8 -3 -22 -5 -41 -5c-17 0 -30 2 -37 5l-108 92c7 22 22 39 42 50z" />
    <glyph glyph-name="ncaron" unicode="&#x148;" horiz-adv-x="554" 
d="M80 4l59 474c15 7 38 11 67 11l-4 -87h4c27 53 76 100 165 100c88 0 132 -48 132 -138c0 -19 -1 -38 -3 -54l-21 -196c-5 -48 9 -56 33 -56c20 0 31 5 45 13c4 -25 -5 -61 -18 -75c-15 -10 -33 -16 -61 -16c-68 0 -87 37 -87 91c0 12 1 26 3 40l24 187c2 15 3 27 3 41
c0 47 -17 86 -80 86c-68 0 -109 -43 -139 -99l-37 -322c-8 -5 -21 -7 -43 -7s-34 2 -42 7zM309 557l-92 147c11 17 32 30 52 33l78 -109l112 112c20 -5 36 -22 41 -40l-121 -134c-18 -6 -47 -9 -70 -9z" />
    <glyph glyph-name="napostrophe" unicode="&#x149;" horiz-adv-x="580" 
d="M166 731c-10 -81 -45 -166 -78 -214c-25 3 -42 14 -52 31c28 51 45 102 53 167c21 12 40 16 77 16zM106 4l59 474c15 7 38 11 67 11l-4 -87h4c27 53 76 100 165 100c88 0 132 -48 132 -138c0 -19 -1 -38 -3 -54l-21 -196c-5 -48 9 -56 33 -56c20 0 31 5 45 13
c4 -25 -5 -61 -18 -75c-15 -10 -33 -16 -61 -16c-68 0 -87 37 -87 91c0 12 1 26 3 40l24 187c2 15 3 27 3 41c0 47 -17 86 -80 86c-68 0 -109 -43 -139 -99l-37 -322c-8 -5 -21 -7 -43 -7s-34 2 -42 7z" />
    <glyph glyph-name="Eng" unicode="&#x14a;" horiz-adv-x="691" 
d="M235 608l-61 -605c-8 -4 -22 -6 -43 -6c-20 0 -35 2 -42 6l80 688c11 4 22 7 46 7s38 -3 48 -7l219 -426c22 -43 39 -93 49 -148h4l64 574c7 5 18 7 39 7c18 0 30 -2 37 -7l-67 -654c-16 -157 -78 -243 -186 -299c-19 14 -30 35 -32 65c75 42 116 106 132 202l-240 469
c-18 34 -35 85 -43 134h-4z" />
    <glyph glyph-name="eng" unicode="&#x14b;" horiz-adv-x="537" 
d="M80 4l59 474c15 7 38 11 67 11l-4 -87h4c27 53 77 100 167 100c89 0 133 -48 133 -138c0 -19 -1 -38 -3 -54l-24 -226c-17 -152 -89 -228 -172 -290c-25 8 -43 33 -47 61c62 47 117 105 132 222l29 221c2 15 3 27 3 41c0 47 -17 86 -81 86c-69 0 -111 -43 -141 -99
l-37 -322c-8 -5 -21 -7 -43 -7s-34 2 -42 7z" />
    <glyph glyph-name="Omacron" unicode="&#x14c;" horiz-adv-x="696" 
d="M91 298c0 214 98 420 326 420c162 0 266 -107 266 -322c0 -193 -83 -419 -329 -419c-168 0 -263 108 -263 321zM410 640c-171 0 -230 -183 -230 -337c0 -159 63 -245 180 -245c177 0 234 193 234 337c0 156 -64 245 -184 245zM602 786h-332c-3 5 -5 12 -5 27
c0 20 3 34 7 41h332c3 -5 5 -12 5 -27c0 -20 -3 -34 -7 -41z" />
    <glyph glyph-name="omacron" unicode="&#x14d;" horiz-adv-x="523" 
d="M319 502c117 0 192 -76 192 -221c0 -72 -18 -157 -58 -213c-37 -52 -99 -88 -183 -88c-126 0 -194 79 -194 217c0 65 15 135 44 188c38 69 106 117 199 117zM316 430c-58 0 -101 -31 -125 -80c-21 -42 -30 -107 -30 -148c0 -98 38 -148 114 -148c54 0 88 25 112 62
c27 41 39 103 39 161c0 96 -38 153 -110 153zM200 654h288c3 -5 5 -12 5 -26c0 -19 -3 -32 -7 -39h-302c0 21 6 47 16 65z" />
    <glyph glyph-name="Obreve" unicode="&#x14e;" horiz-adv-x="696" 
d="M91 298c0 214 98 420 326 420c162 0 266 -107 266 -322c0 -193 -83 -419 -329 -419c-168 0 -263 108 -263 321zM410 640c-171 0 -230 -183 -230 -337c0 -159 63 -245 180 -245c177 0 234 193 234 337c0 156 -64 245 -184 245zM549 898c24 0 40 -4 56 -19
c-24 -77 -80 -123 -173 -123c-90 0 -140 45 -144 118c15 15 36 23 61 25c5 -55 37 -77 91 -77c55 0 88 25 109 76z" />
    <glyph glyph-name="obreve" unicode="&#x14f;" horiz-adv-x="523" 
d="M319 502c117 0 192 -76 192 -221c0 -72 -18 -157 -58 -213c-37 -52 -99 -88 -183 -88c-126 0 -194 79 -194 217c0 65 15 135 44 188c38 69 106 117 199 117zM316 430c-58 0 -101 -31 -125 -80c-21 -42 -30 -107 -30 -148c0 -98 38 -148 114 -148c54 0 88 25 112 62
c27 41 39 103 39 161c0 96 -38 153 -110 153zM263 724c-3 -70 27 -100 74 -100c48 0 81 31 99 96c22 0 42 -5 55 -19c-21 -89 -76 -142 -161 -142c-84 0 -128 53 -129 136c13 16 38 27 62 29z" />
    <glyph glyph-name="Ohungarumlaut" unicode="&#x150;" horiz-adv-x="696" 
d="M91 298c0 214 98 420 326 420c162 0 266 -107 266 -322c0 -193 -83 -419 -329 -419c-168 0 -263 108 -263 321zM410 640c-171 0 -230 -183 -230 -337c0 -159 63 -245 180 -245c177 0 234 193 234 337c0 156 -64 245 -184 245zM497 874l-158 -134c-20 9 -32 26 -37 48
l143 134c25 -7 42 -25 52 -48zM694 874l-158 -134c-20 9 -32 26 -37 48l143 134c25 -7 42 -25 52 -48z" />
    <glyph glyph-name="ohungarumlaut" unicode="&#x151;" horiz-adv-x="523" 
d="M319 502c117 0 192 -76 192 -221c0 -72 -18 -157 -58 -213c-37 -52 -99 -88 -183 -88c-126 0 -194 79 -194 217c0 65 15 135 44 188c38 69 106 117 199 117zM316 430c-58 0 -101 -31 -125 -80c-21 -42 -30 -107 -30 -148c0 -98 38 -148 114 -148c54 0 88 25 112 62
c27 41 39 103 39 161c0 96 -38 153 -110 153zM383 716l-124 -161c-24 5 -39 16 -46 34l101 154c32 0 52 -9 69 -27zM550 716l-124 -161c-24 5 -39 16 -46 34l101 154c32 0 52 -9 69 -27z" />
    <glyph glyph-name="OE" unicode="&#x152;" horiz-adv-x="942" 
d="M622 620l-25 -228h297c3 -5 6 -16 6 -30c0 -19 -5 -37 -10 -45h-300l-26 -238h331c3 -5 6 -15 6 -32c0 -20 -4 -38 -9 -47h-417c-32 -11 -69 -19 -115 -19c-173 0 -273 115 -273 315c0 198 102 417 347 417c44 0 85 -7 118 -18h392c3 -5 6 -16 6 -30
c0 -19 -5 -37 -10 -45h-318zM378 62c34 0 72 5 100 16l62 540c-28 12 -67 19 -104 19c-190 0 -259 -171 -259 -333c0 -158 65 -242 201 -242z" />
    <glyph glyph-name="oe" unicode="&#x153;" horiz-adv-x="822" 
d="M319 502c80 0 143 -36 166 -107h4c37 72 120 107 197 107c90 0 141 -44 141 -120c0 -91 -71 -177 -323 -184c0 -108 35 -141 118 -141c66 0 118 21 169 61c1 -27 -9 -68 -25 -86c-32 -25 -90 -52 -166 -52c-83 0 -135 31 -152 87h-4c-28 -51 -87 -87 -174 -87
c-126 0 -194 79 -194 217c0 65 15 135 44 188c38 69 106 117 199 117zM316 430c-58 0 -101 -31 -125 -80c-21 -42 -30 -107 -30 -148c0 -98 38 -148 114 -148c54 0 88 25 112 62c27 41 39 103 39 161c0 96 -38 153 -110 153zM510 268c171 3 238 47 238 109
c0 32 -17 55 -70 55s-96 -23 -128 -66c-18 -25 -32 -57 -40 -98z" />
    <glyph glyph-name="Racute" unicode="&#x154;" horiz-adv-x="600" 
d="M336 261c-51 0 -99 3 -130 9l-28 -266c-9 -5 -23 -7 -45 -7c-24 0 -36 2 -44 7l79 682c46 12 96 19 163 19c161 0 259 -65 259 -212c0 -105 -50 -180 -144 -213l139 -275c-8 -6 -23 -8 -48 -8c-24 0 -41 3 -51 8l-125 257c-4 -1 -21 -1 -25 -1zM242 619l-30 -273
c23 -5 63 -9 104 -9c119 0 188 44 188 150c0 103 -68 142 -171 142c-33 0 -66 -4 -91 -10zM312 808l209 99c17 -16 26 -43 26 -72l-221 -91c-11 15 -16 38 -14 64z" />
    <glyph glyph-name="racute" unicode="&#x155;" horiz-adv-x="354" 
d="M206 489l-5 -102h4c21 78 69 115 134 115c23 0 37 -4 48 -10c6 -9 10 -22 10 -43c0 -19 -3 -34 -8 -45c-15 10 -36 15 -56 15c-65 0 -109 -50 -137 -143l-31 -272c-8 -5 -21 -7 -43 -7s-34 2 -42 7l59 474c15 7 38 11 67 11zM429 710l-153 -156c-22 7 -35 20 -42 42
l122 144c27 0 58 -10 73 -30z" />
    <glyph glyph-name="uni0156" unicode="&#x156;" horiz-adv-x="600" 
d="M336 261c-51 0 -99 3 -130 9l-28 -266c-9 -5 -23 -7 -45 -7c-24 0 -36 2 -44 7l79 682c46 12 96 19 163 19c161 0 259 -65 259 -212c0 -105 -50 -180 -144 -213l139 -275c-8 -6 -23 -8 -48 -8c-24 0 -41 3 -51 8l-125 257c-4 -1 -21 -1 -25 -1zM242 619l-30 -273
c23 -5 63 -9 104 -9c119 0 188 44 188 150c0 103 -68 142 -171 142c-33 0 -66 -4 -91 -10zM364 -48c-9 -75 -39 -157 -70 -202c-27 3 -45 15 -55 32c23 47 39 96 46 154c21 12 41 16 79 16z" />
    <glyph glyph-name="uni0157" unicode="&#x157;" horiz-adv-x="354" 
d="M206 489l-5 -102h4c21 78 69 115 134 115c23 0 37 -4 48 -10c6 -9 10 -22 10 -43c0 -19 -3 -34 -8 -45c-15 10 -36 15 -56 15c-65 0 -109 -50 -137 -143l-31 -272c-8 -5 -21 -7 -43 -7s-34 2 -42 7l59 474c15 7 38 11 67 11zM154 -46c-10 -75 -39 -154 -69 -199
c-26 3 -44 15 -53 31c24 47 38 93 45 151c21 12 39 17 77 17z" />
    <glyph glyph-name="Rcaron" unicode="&#x158;" horiz-adv-x="600" 
d="M336 261c-51 0 -99 3 -130 9l-28 -266c-9 -5 -23 -7 -45 -7c-24 0 -36 2 -44 7l79 682c46 12 96 19 163 19c161 0 259 -65 259 -212c0 -105 -50 -180 -144 -213l139 -275c-8 -6 -23 -8 -48 -8c-24 0 -41 3 -51 8l-125 257c-4 -1 -21 -1 -25 -1zM242 619l-30 -273
c23 -5 63 -9 104 -9c119 0 188 44 188 150c0 103 -68 142 -171 142c-33 0 -66 -4 -91 -10zM278 903l107 -81l138 81c16 -10 30 -31 31 -54l-132 -88c-8 -3 -22 -5 -41 -5c-17 0 -30 2 -37 5l-108 92c7 22 22 39 42 50z" />
    <glyph glyph-name="rcaron" unicode="&#x159;" horiz-adv-x="354" 
d="M206 489l-5 -102h4c21 78 69 115 134 115c23 0 37 -4 48 -10c6 -9 10 -22 10 -43c0 -19 -3 -34 -8 -45c-15 10 -36 15 -56 15c-65 0 -109 -50 -137 -143l-31 -272c-8 -5 -21 -7 -43 -7s-34 2 -42 7l59 474c15 7 38 11 67 11zM257 557l-92 147c11 17 32 30 52 33l78 -109
l112 112c20 -5 36 -22 41 -40l-121 -134c-18 -6 -47 -9 -70 -9z" />
    <glyph glyph-name="Sacute" unicode="&#x15a;" horiz-adv-x="525" 
d="M511 583c-42 32 -93 58 -163 58c-80 0 -140 -33 -140 -111c0 -169 297 -94 297 -334c0 -139 -90 -219 -256 -219c-76 0 -138 17 -179 39c-17 23 -25 65 -18 99c49 -32 121 -57 200 -57c93 0 165 35 165 129c0 176 -294 103 -294 334c0 122 79 197 220 197
c60 0 112 -14 152 -44c16 -22 22 -62 16 -91zM284 808l209 99c17 -16 26 -43 26 -72l-221 -91c-11 15 -16 38 -14 64z" />
    <glyph glyph-name="sacute" unicode="&#x15b;" horiz-adv-x="405" 
d="M54 96c34 -24 93 -42 145 -42c61 0 104 20 104 75c0 108 -202 68 -202 227c0 88 57 146 161 146c53 0 92 -15 117 -34c13 -18 20 -57 14 -84c-38 30 -77 47 -123 47c-51 0 -87 -18 -87 -66c0 -103 204 -66 204 -224c0 -102 -72 -161 -190 -161c-52 0 -110 12 -142 31
c-13 24 -12 63 -1 85zM407 710l-153 -156c-22 7 -35 20 -42 42l122 144c27 0 58 -10 73 -30z" />
    <glyph glyph-name="Scircumflex" unicode="&#x15c;" horiz-adv-x="525" 
d="M511 583c-42 32 -93 58 -163 58c-80 0 -140 -33 -140 -111c0 -169 297 -94 297 -334c0 -139 -90 -219 -256 -219c-76 0 -138 17 -179 39c-17 23 -25 65 -18 99c49 -32 121 -57 200 -57c93 0 165 35 165 129c0 176 -294 103 -294 334c0 122 79 197 220 197
c60 0 112 -14 152 -44c16 -22 22 -62 16 -91zM402 889l106 -88c-3 -25 -17 -45 -34 -56l-115 82l-143 -82c-12 15 -18 34 -18 60l121 82c9 4 23 6 44 6c18 0 31 -2 39 -4z" />
    <glyph glyph-name="scircumflex" unicode="&#x15d;" horiz-adv-x="405" 
d="M54 96c34 -24 93 -42 145 -42c61 0 104 20 104 75c0 108 -202 68 -202 227c0 88 57 146 161 146c53 0 92 -15 117 -34c13 -18 20 -57 14 -84c-38 30 -77 47 -123 47c-51 0 -87 -18 -87 -66c0 -103 204 -66 204 -224c0 -102 -72 -161 -190 -161c-52 0 -110 12 -142 31
c-13 24 -12 63 -1 85zM137 606l115 120c20 9 45 10 70 10l95 -144c-9 -21 -26 -35 -48 -41l-85 115l-119 -119c-15 15 -25 34 -28 59z" />
    <glyph glyph-name="Scedilla" unicode="&#x15e;" horiz-adv-x="525" 
d="M511 583c-42 32 -93 58 -163 58c-80 0 -140 -33 -140 -111c0 -169 297 -94 297 -334c0 -130 -79 -208 -224 -218l-11 -40c32 -14 56 -37 56 -78c0 -64 -59 -105 -131 -116c-21 10 -35 28 -40 51c41 6 94 19 94 61c0 28 -25 43 -56 50l28 72c-66 4 -115 19 -151 38
c-17 23 -25 65 -18 99c49 -32 121 -57 200 -57c93 0 165 35 165 129c0 176 -294 103 -294 334c0 122 79 197 220 197c60 0 112 -14 152 -44c16 -22 22 -62 16 -91z" />
    <glyph glyph-name="scedilla" unicode="&#x15f;" horiz-adv-x="405" 
d="M54 96c34 -24 93 -42 145 -42c61 0 104 20 104 75c0 108 -202 68 -202 227c0 88 57 146 161 146c53 0 92 -15 117 -34c13 -18 20 -57 14 -84c-38 30 -77 47 -123 47c-51 0 -87 -18 -87 -66c0 -103 204 -66 204 -224c0 -94 -61 -151 -163 -160l-10 -35
c28 -12 49 -33 49 -72c0 -63 -53 -101 -121 -112c-19 10 -34 25 -39 46c36 5 84 21 84 61c0 26 -21 42 -48 49l27 64c-44 3 -86 14 -111 29c-13 24 -12 63 -1 85z" />
    <glyph glyph-name="Scaron" unicode="&#x160;" horiz-adv-x="525" 
d="M511 583c-42 32 -93 58 -163 58c-80 0 -140 -33 -140 -111c0 -169 297 -94 297 -334c0 -139 -90 -219 -256 -219c-76 0 -138 17 -179 39c-17 23 -25 65 -18 99c49 -32 121 -57 200 -57c93 0 165 35 165 129c0 176 -294 103 -294 334c0 122 79 197 220 197
c60 0 112 -14 152 -44c16 -22 22 -62 16 -91zM249 903l107 -81l138 81c16 -10 30 -31 31 -54l-132 -88c-8 -3 -22 -5 -41 -5c-17 0 -30 2 -37 5l-108 92c7 22 22 39 42 50z" />
    <glyph glyph-name="scaron" unicode="&#x161;" horiz-adv-x="405" 
d="M54 96c34 -24 93 -42 145 -42c61 0 104 20 104 75c0 108 -202 68 -202 227c0 88 57 146 161 146c53 0 92 -15 117 -34c13 -18 20 -57 14 -84c-38 30 -77 47 -123 47c-51 0 -87 -18 -87 -66c0 -103 204 -66 204 -224c0 -102 -72 -161 -190 -161c-52 0 -110 12 -142 31
c-13 24 -12 63 -1 85zM241 557l-92 147c11 17 32 30 52 33l78 -109l112 112c20 -5 36 -22 41 -40l-121 -134c-18 -6 -47 -9 -70 -9z" />
    <glyph glyph-name="uni0162" unicode="&#x162;" horiz-adv-x="530" 
d="M577 618h-200l-64 -614c-5 -3 -10 -4 -17 -5l-17 -61c32 -14 56 -37 56 -78c0 -64 -59 -105 -131 -116c-21 10 -35 28 -40 51c41 6 94 19 94 61c0 28 -25 43 -56 50l36 93c-7 1 -10 2 -15 5l71 614h-199c-3 6 -6 16 -6 31c0 19 5 38 10 46h482c3 -6 6 -16 6 -31
c0 -19 -5 -38 -10 -46z" />
    <glyph glyph-name="uni0163" unicode="&#x163;" horiz-adv-x="344" 
d="M88 482h61l15 114c21 14 46 21 80 21l-16 -135h130c3 -5 6 -14 6 -31c0 -20 -4 -35 -9 -44h-136l-30 -258c-7 -57 2 -90 60 -90c31 0 61 10 89 34c4 -29 -5 -64 -19 -83c-23 -16 -47 -26 -80 -29l-10 -35c28 -12 49 -33 49 -72c0 -63 -53 -101 -121 -112
c-19 10 -34 25 -39 46c36 5 84 21 84 61c0 26 -21 42 -48 49l27 65c-59 12 -80 50 -80 110c0 15 2 37 4 52l34 262h-67c0 25 7 58 16 75z" />
    <glyph glyph-name="Tcaron" unicode="&#x164;" horiz-adv-x="530" 
d="M577 618h-200l-64 -614c-9 -5 -23 -7 -45 -7c-24 0 -37 2 -45 7l71 614h-199c-3 6 -6 16 -6 31c0 19 5 38 10 46h482c3 -6 6 -16 6 -31c0 -19 -5 -38 -10 -46zM251 903l107 -81l138 81c16 -10 30 -31 31 -54l-132 -88c-8 -3 -22 -5 -41 -5c-17 0 -30 2 -37 5l-108 92
c7 22 22 39 42 50z" />
    <glyph glyph-name="tcaron" unicode="&#x165;" horiz-adv-x="347" 
d="M88 482h61l15 114c21 14 46 21 80 21l-16 -135h130c3 -5 6 -14 6 -31c0 -20 -4 -35 -9 -44h-136l-30 -258c-7 -57 2 -90 60 -90c31 0 61 10 89 34c4 -29 -5 -64 -19 -83c-28 -20 -59 -30 -101 -30c-86 0 -117 42 -117 113c0 15 2 37 4 52l34 262h-67c0 25 7 58 16 75z
M455 725c-9 -73 -38 -150 -67 -193c-25 3 -43 14 -53 31c23 45 36 89 43 146c21 12 40 16 77 16z" />
    <glyph glyph-name="Tbar" unicode="&#x166;" horiz-adv-x="530" 
d="M474 310h-129l-32 -306c-9 -5 -23 -7 -45 -7c-24 0 -37 2 -45 7l35 306h-126c-3 7 -5 15 -5 29c0 18 5 37 9 43h130l28 236h-199c-3 6 -6 16 -6 31c0 19 5 38 10 46h482c3 -6 6 -16 6 -31c0 -19 -5 -38 -10 -46h-200l-25 -236h126c3 -7 5 -15 5 -29c0 -18 -5 -37 -9 -43z
" />
    <glyph glyph-name="tbar" unicode="&#x167;" horiz-adv-x="344" 
d="M228 482h130c3 -5 6 -14 6 -31c0 -20 -4 -35 -9 -44h-136l-14 -123h116c2 -3 5 -11 5 -24c0 -20 -4 -33 -8 -39h-121l-8 -72c-7 -57 2 -90 60 -90c31 0 61 10 89 34c4 -29 -5 -64 -19 -83c-28 -20 -59 -30 -101 -30c-86 0 -117 42 -117 113c0 15 2 37 4 52l10 76h-59
c0 20 6 49 14 63h53l16 123h-67c0 25 7 58 16 75h61l15 114c21 14 46 21 80 21z" />
    <glyph glyph-name="Utilde" unicode="&#x168;" horiz-adv-x="666" 
d="M241 691l-45 -438c-15 -142 37 -195 146 -195c119 0 175 65 189 193l48 440c8 5 21 7 39 7c20 0 33 -2 40 -7l-42 -441c-17 -178 -104 -273 -281 -273c-168 0 -229 85 -229 217c0 19 2 43 4 62l50 435c8 5 21 7 41 7c19 0 33 -2 40 -7zM241 789c13 51 52 93 111 93
c80 0 90 -51 150 -51c26 0 41 16 51 44c24 -1 40 -6 54 -20c-13 -54 -50 -96 -110 -96c-79 0 -90 51 -149 51c-28 0 -46 -17 -57 -46c-22 3 -40 10 -50 25z" />
    <glyph glyph-name="utilde" unicode="&#x169;" horiz-adv-x="549" 
d="M214 487l-36 -311c-2 -15 -3 -28 -3 -39c0 -46 17 -77 79 -77c66 0 101 34 133 81l42 337c9 5 20 7 40 7c19 0 32 -2 39 -7l-40 -364c-6 -50 9 -56 35 -56c18 0 31 6 43 13c4 -25 -5 -61 -18 -75c-15 -11 -32 -16 -60 -16c-48 0 -83 22 -81 86h-4
c-25 -45 -71 -86 -161 -86c-100 0 -134 52 -134 132c0 16 2 37 4 52l41 308c22 11 45 15 81 15zM274 617c-23 0 -39 -17 -48 -48c-19 3 -36 16 -45 36c13 48 48 80 96 80c69 0 79 -52 124 -52c22 0 38 14 42 42c22 0 39 -4 54 -15c-10 -57 -44 -95 -97 -95
c-66 0 -76 52 -126 52z" />
    <glyph glyph-name="Umacron" unicode="&#x16a;" horiz-adv-x="666" 
d="M241 691l-45 -438c-15 -142 37 -195 146 -195c119 0 175 65 189 193l48 440c8 5 21 7 39 7c20 0 33 -2 40 -7l-42 -441c-17 -178 -104 -273 -281 -273c-168 0 -229 85 -229 217c0 19 2 43 4 62l50 435c8 5 21 7 41 7c19 0 33 -2 40 -7zM566 786h-286c-3 5 -5 12 -5 27
c0 20 3 34 7 41h286c3 -5 5 -12 5 -27c0 -20 -3 -34 -7 -41z" />
    <glyph glyph-name="umacron" unicode="&#x16b;" horiz-adv-x="549" 
d="M214 487l-36 -311c-2 -15 -3 -28 -3 -39c0 -46 17 -77 79 -77c66 0 101 34 133 81l42 337c9 5 20 7 40 7c19 0 32 -2 39 -7l-40 -364c-6 -50 9 -56 35 -56c18 0 31 6 43 13c4 -25 -5 -61 -18 -75c-15 -11 -32 -16 -60 -16c-48 0 -83 22 -81 86h-4
c-25 -45 -71 -86 -161 -86c-100 0 -134 52 -134 132c0 16 2 37 4 52l41 308c22 11 45 15 81 15zM220 654h249c3 -5 5 -12 5 -26c0 -19 -3 -32 -7 -39h-263c0 21 6 47 16 65z" />
    <glyph glyph-name="Ubreve" unicode="&#x16c;" horiz-adv-x="666" 
d="M241 691l-45 -438c-15 -142 37 -195 146 -195c119 0 175 65 189 193l48 440c8 5 21 7 39 7c20 0 33 -2 40 -7l-42 -441c-17 -178 -104 -273 -281 -273c-168 0 -229 85 -229 217c0 19 2 43 4 62l50 435c8 5 21 7 41 7c19 0 33 -2 40 -7zM533 898c24 0 40 -4 56 -19
c-24 -77 -80 -123 -173 -123c-90 0 -140 45 -144 118c15 15 36 23 61 25c5 -55 37 -77 91 -77c55 0 88 25 109 76z" />
    <glyph glyph-name="ubreve" unicode="&#x16d;" horiz-adv-x="549" 
d="M214 487l-36 -311c-2 -15 -3 -28 -3 -39c0 -46 17 -77 79 -77c66 0 101 34 133 81l42 337c9 5 20 7 40 7c19 0 32 -2 39 -7l-40 -364c-6 -50 9 -56 35 -56c18 0 31 6 43 13c4 -25 -5 -61 -18 -75c-15 -11 -32 -16 -60 -16c-48 0 -83 22 -81 86h-4
c-25 -45 -71 -86 -161 -86c-100 0 -134 52 -134 132c0 16 2 37 4 52l41 308c22 11 45 15 81 15zM265 724c-3 -70 27 -100 74 -100c48 0 81 31 99 96c22 0 42 -5 55 -19c-21 -89 -76 -142 -161 -142c-84 0 -128 53 -129 136c13 16 38 27 62 29z" />
    <glyph glyph-name="Uring" unicode="&#x16e;" horiz-adv-x="666" 
d="M241 691l-45 -438c-15 -142 37 -195 146 -195c119 0 175 65 189 193l48 440c8 5 21 7 39 7c20 0 33 -2 40 -7l-42 -441c-17 -178 -104 -273 -281 -273c-168 0 -229 85 -229 217c0 19 2 43 4 62l50 435c8 5 21 7 41 7c19 0 33 -2 40 -7zM436 948c62 0 101 -32 101 -96
c0 -66 -43 -117 -121 -117c-64 0 -102 36 -102 96c0 66 46 117 122 117zM433 897c-35 0 -63 -22 -63 -60c0 -33 21 -50 51 -50c37 0 61 27 61 61c0 31 -19 49 -49 49z" />
    <glyph glyph-name="uring" unicode="&#x16f;" horiz-adv-x="549" 
d="M214 487l-36 -311c-2 -15 -3 -28 -3 -39c0 -46 17 -77 79 -77c66 0 101 34 133 81l42 337c9 5 20 7 40 7c19 0 32 -2 39 -7l-40 -364c-6 -50 9 -56 35 -56c18 0 31 6 43 13c4 -25 -5 -61 -18 -75c-15 -11 -32 -16 -60 -16c-48 0 -83 22 -81 86h-4
c-25 -45 -71 -86 -161 -86c-100 0 -134 52 -134 132c0 16 2 37 4 52l41 308c22 11 45 15 81 15zM352 751c56 0 91 -32 91 -91c0 -62 -38 -111 -110 -111c-58 0 -91 33 -91 91c0 61 39 111 110 111zM348 702c-33 0 -55 -22 -55 -57c0 -32 17 -47 44 -47c34 0 56 23 56 59
c0 30 -18 45 -45 45z" />
    <glyph glyph-name="Uhungarumlaut" unicode="&#x170;" horiz-adv-x="666" 
d="M241 691l-45 -438c-15 -142 37 -195 146 -195c119 0 175 65 189 193l48 440c8 5 21 7 39 7c20 0 33 -2 40 -7l-42 -441c-17 -178 -104 -273 -281 -273c-168 0 -229 85 -229 217c0 19 2 43 4 62l50 435c8 5 21 7 41 7c19 0 33 -2 40 -7zM481 874l-158 -134
c-20 9 -32 26 -37 48l143 134c25 -7 42 -25 52 -48zM678 874l-158 -134c-20 9 -32 26 -37 48l143 134c25 -7 42 -25 52 -48z" />
    <glyph glyph-name="uhungarumlaut" unicode="&#x171;" horiz-adv-x="549" 
d="M214 487l-36 -311c-2 -15 -3 -28 -3 -39c0 -46 17 -77 79 -77c66 0 101 34 133 81l42 337c9 5 20 7 40 7c19 0 32 -2 39 -7l-40 -364c-6 -50 9 -56 35 -56c18 0 31 6 43 13c4 -25 -5 -61 -18 -75c-15 -11 -32 -16 -60 -16c-48 0 -83 22 -81 86h-4
c-25 -45 -71 -86 -161 -86c-100 0 -134 52 -134 132c0 16 2 37 4 52l41 308c22 11 45 15 81 15zM388 716l-124 -161c-24 5 -39 16 -46 34l101 154c32 0 52 -9 69 -27zM555 716l-124 -161c-24 5 -39 16 -46 34l101 154c32 0 52 -9 69 -27z" />
    <glyph glyph-name="Uogonek" unicode="&#x172;" horiz-adv-x="666" 
d="M426 -164c10 -12 15 -40 12 -61c-13 -6 -36 -12 -59 -12c-56 0 -102 30 -102 101c0 47 22 82 60 109v4c-169 0 -231 85 -231 217c0 19 2 43 4 62l50 435c8 5 21 7 41 7c19 0 33 -2 40 -7l-45 -438c-15 -142 37 -195 146 -195c119 0 175 65 189 193l48 440c8 5 21 7 39 7
c20 0 33 -2 40 -7l-42 -441c-12 -129 -60 -211 -155 -252c-51 -22 -105 -58 -105 -117c0 -39 21 -49 47 -49c9 0 15 1 23 4z" />
    <glyph glyph-name="uogonek" unicode="&#x173;" horiz-adv-x="549" 
d="M214 487l-36 -311c-2 -15 -3 -28 -3 -39c0 -46 17 -77 79 -77c66 0 101 34 133 81l42 337c9 5 20 7 40 7c19 0 32 -2 39 -7l-40 -364c-6 -50 9 -56 35 -56c18 0 31 6 43 13c4 -25 -5 -61 -18 -75c-45 -23 -85 -57 -85 -103c0 -37 21 -49 47 -49c8 0 13 1 22 4
c10 -12 15 -38 12 -58c-13 -6 -35 -12 -58 -12c-55 0 -100 28 -100 97c0 47 23 82 63 108v4c-27 10 -44 34 -42 79h-4c-25 -45 -71 -86 -161 -86c-100 0 -134 52 -134 132c0 16 2 37 4 52l41 308c22 11 45 15 81 15z" />
    <glyph glyph-name="Wcircumflex" unicode="&#x174;" horiz-adv-x="872" 
d="M642 51h4c11 52 23 105 36 143l162 496c8 5 21 8 40 8s32 -3 39 -8l-225 -691c-12 -4 -34 -7 -62 -7c-27 0 -47 3 -59 7l-56 481c-6 48 -12 111 -12 166h-4c-10 -54 -26 -119 -42 -165l-162 -482c-12 -4 -34 -7 -61 -7s-45 3 -58 7l-79 691c9 5 21 8 40 8
c20 0 33 -3 42 -8l54 -489c5 -41 10 -99 10 -150h4c10 53 23 108 36 145l171 501c11 3 30 6 55 6c26 0 44 -3 55 -6l59 -494c5 -41 10 -100 13 -152zM572 889l106 -88c-3 -25 -17 -45 -34 -56l-115 82l-143 -82c-12 15 -18 34 -18 60l121 82c9 4 23 6 44 6c18 0 31 -2 39 -4
z" />
    <glyph glyph-name="wcircumflex" unicode="&#x175;" horiz-adv-x="714" 
d="M143 480l49 -321c5 -32 7 -70 6 -108h4c53 128 107 280 143 422c30 11 72 15 114 15l57 -333c5 -27 6 -73 5 -104h4c66 120 134 272 134 348c0 21 -8 33 -37 33c-17 0 -33 -7 -45 -15c-2 26 7 53 18 66c12 10 32 19 61 19c60 0 81 -39 81 -90c0 -113 -108 -328 -175 -422
c-36 0 -66 4 -92 13l-54 311c-6 35 -10 83 -11 119h-4c-16 -100 -98 -335 -154 -443c-42 0 -78 4 -110 13l-70 472c8 6 21 11 45 11c16 0 24 -2 31 -6zM285 606l115 120c20 9 45 10 70 10l95 -144c-9 -21 -26 -35 -48 -41l-85 115l-119 -119c-15 15 -25 34 -28 59z" />
    <glyph glyph-name="Ycircumflex" unicode="&#x176;" horiz-adv-x="533" 
d="M251 250l-167 440c9 5 23 8 44 8c20 0 35 -3 45 -8l101 -260c14 -35 24 -75 30 -117h5c11 43 28 87 46 117l156 260c10 5 27 8 47 8c21 0 37 -3 44 -8l-264 -445l-25 -241c-9 -5 -23 -7 -46 -7c-22 0 -36 2 -44 7zM411 889l106 -88c-3 -25 -17 -45 -34 -56l-115 82
l-143 -82c-12 15 -18 34 -18 60l121 82c9 4 23 6 44 6c18 0 31 -2 39 -4z" />
    <glyph glyph-name="ycircumflex" unicode="&#x177;" horiz-adv-x="443" 
d="M239 41h4c70 121 147 283 147 357c0 22 -9 34 -38 34c-20 0 -38 -8 -48 -16c-3 24 7 54 18 67c14 10 33 19 65 19c62 0 85 -38 85 -89c0 -116 -123 -339 -190 -433c-81 -113 -155 -181 -271 -224c-19 15 -29 44 -29 76c85 25 153 82 204 151l-129 492c8 6 26 11 50 11
c16 0 25 -2 32 -6l84 -327c8 -29 16 -73 16 -112zM164 606l115 120c20 9 45 10 70 10l95 -144c-9 -21 -26 -35 -48 -41l-85 115l-119 -119c-15 15 -25 34 -28 59z" />
    <glyph glyph-name="Ydieresis" unicode="&#x178;" horiz-adv-x="533" 
d="M251 250l-167 440c9 5 23 8 44 8c20 0 35 -3 45 -8l101 -260c14 -35 24 -75 30 -117h5c11 43 28 87 46 117l156 260c10 5 27 8 47 8c21 0 37 -3 44 -8l-264 -445l-25 -241c-9 -5 -23 -7 -46 -7c-22 0 -36 2 -44 7zM470 866c29 0 49 -16 49 -51c0 -33 -22 -54 -54 -54
c-29 0 -49 17 -49 51s21 54 54 54zM266 866c29 0 49 -16 49 -51c0 -33 -22 -54 -54 -54c-29 0 -49 17 -49 51s21 54 54 54z" />
    <glyph glyph-name="Zacute" unicode="&#x179;" horiz-adv-x="544" 
d="M565 626l-398 -542v-5h348c3 -6 6 -16 6 -32c0 -20 -5 -38 -10 -47h-446c-9 19 -12 43 -12 71l408 543v5h-325c-3 6 -5 18 -5 32c0 19 4 35 9 44h415c7 -19 10 -40 10 -69zM296 808l209 99c17 -16 26 -43 26 -72l-221 -91c-11 15 -16 38 -14 64z" />
    <glyph glyph-name="zacute" unicode="&#x17a;" horiz-adv-x="425" 
d="M429 416c-81 -120 -165 -231 -260 -337v-4h229c3 -4 5 -13 5 -31c0 -20 -4 -34 -8 -44h-336c-8 18 -12 37 -12 63c100 108 198 222 285 343v4h-234c1 24 7 53 16 72h301c9 -17 14 -40 14 -66zM419 710l-153 -156c-22 7 -35 20 -42 42l122 144c27 0 58 -10 73 -30z" />
    <glyph glyph-name="Zdotaccent" unicode="&#x17b;" horiz-adv-x="544" 
d="M565 626l-398 -542v-5h348c3 -6 6 -16 6 -32c0 -20 -5 -38 -10 -47h-446c-9 19 -12 43 -12 71l408 543v5h-325c-3 6 -5 18 -5 32c0 19 4 35 9 44h415c7 -19 10 -40 10 -69zM368 877c28 0 50 -16 50 -52s-24 -58 -58 -58c-29 0 -49 17 -49 52c0 37 21 58 57 58z" />
    <glyph glyph-name="zdotaccent" unicode="&#x17c;" horiz-adv-x="425" 
d="M429 416c-81 -120 -165 -231 -260 -337v-4h229c3 -4 5 -13 5 -31c0 -20 -4 -34 -8 -44h-336c-8 18 -12 37 -12 63c100 108 198 222 285 343v4h-234c1 24 7 53 16 72h301c9 -17 14 -40 14 -66zM291 682c28 0 49 -16 49 -51c0 -34 -23 -55 -55 -55c-29 0 -48 17 -48 51
c0 35 20 55 54 55z" />
    <glyph glyph-name="Zcaron" unicode="&#x17d;" horiz-adv-x="544" 
d="M565 626l-398 -542v-5h348c3 -6 6 -16 6 -32c0 -20 -5 -38 -10 -47h-446c-9 19 -12 43 -12 71l408 543v5h-325c-3 6 -5 18 -5 32c0 19 4 35 9 44h415c7 -19 10 -40 10 -69zM258 903l107 -81l138 81c16 -10 30 -31 31 -54l-132 -88c-8 -3 -22 -5 -41 -5c-17 0 -30 2 -37 5
l-108 92c7 22 22 39 42 50z" />
    <glyph glyph-name="zcaron" unicode="&#x17e;" horiz-adv-x="425" 
d="M429 416c-81 -120 -165 -231 -260 -337v-4h229c3 -4 5 -13 5 -31c0 -20 -4 -34 -8 -44h-336c-8 18 -12 37 -12 63c100 108 198 222 285 343v4h-234c1 24 7 53 16 72h301c9 -17 14 -40 14 -66zM250 557l-92 147c11 17 32 30 52 33l78 -109l112 112c20 -5 36 -22 41 -40
l-121 -134c-18 -6 -47 -9 -70 -9z" />
    <glyph glyph-name="longs" unicode="&#x17f;" horiz-adv-x="253" 
d="M62 -151l87 725c17 139 77 175 156 175c29 0 56 -5 79 -21c13 -19 17 -55 10 -82c-25 20 -51 28 -79 28c-58 0 -80 -35 -87 -100l-80 -725c-8 -5 -21 -7 -43 -7s-35 2 -43 7z" />
    <glyph glyph-name="uni018F" unicode="&#x18f;" horiz-adv-x="649" 
d="M84 215c0 56 11 114 34 161h433c-1 125 -38 264 -213 264c-55 0 -121 -14 -167 -43c-1 27 8 60 23 80c41 27 108 41 169 41c187 0 277 -135 277 -333c0 -200 -95 -408 -326 -408c-160 0 -230 100 -230 238zM322 56c135 0 203 112 223 245h-359c-7 -18 -13 -49 -13 -83
c0 -85 38 -162 149 -162z" />
    <glyph glyph-name="florin" unicode="&#x192;" horiz-adv-x="402" 
d="M89 290h114l15 73c31 147 82 188 169 188c36 0 60 -7 80 -20c12 -20 19 -53 12 -83c-25 20 -48 29 -80 29c-68 0 -88 -42 -101 -111l-14 -76h112c2 -5 4 -10 4 -23c0 -20 -5 -36 -10 -44h-119l-36 -189c-33 -174 -100 -196 -174 -196c-39 0 -62 7 -82 17
c-16 22 -21 61 -14 91c24 -17 50 -29 85 -29c69 0 84 47 98 112l40 194h-116c1 24 8 49 17 67z" />
    <glyph glyph-name="uni01B5" unicode="&#x1b5;" horiz-adv-x="544" 
d="M493 316h-156l-170 -232v-5h348c3 -6 6 -16 6 -32c0 -20 -5 -38 -10 -47h-446c-9 19 -12 43 -12 71l184 245h-107c-3 6 -5 16 -5 29c0 17 5 36 10 43h156l170 226v5h-325c-3 6 -5 18 -5 32c0 19 4 35 9 44h415c7 -19 10 -40 10 -69l-175 -238h108c3 -6 5 -16 5 -29
c0 -17 -5 -36 -10 -43z" />
    <glyph glyph-name="uni01B6" unicode="&#x1b6;" horiz-adv-x="425" 
d="M111 277h122c34 41 67 85 99 129v4h-234c1 24 7 53 16 72h301c9 -17 14 -40 14 -66c-32 -48 -65 -95 -99 -139h64c2 -3 5 -11 5 -24c0 -20 -4 -33 -8 -39h-109c-36 -47 -74 -91 -113 -135v-4h229c3 -4 5 -13 5 -31c0 -20 -4 -34 -8 -44h-336c-8 18 -12 37 -12 63
c45 49 90 98 134 151h-84c0 20 6 49 14 63z" />
    <glyph glyph-name="Aringacute" unicode="&#x1fa;" horiz-adv-x="611" 
d="M302 927l199 93c15 -14 23 -37 23 -63l-210 -85c-10 13 -14 32 -12 55zM399 862c62 0 101 -32 101 -96c0 -45 -20 -83 -58 -103l156 -658c-8 -6 -22 -8 -43 -8c-19 0 -36 2 -44 8l-45 196h-269l-88 -196c-9 -6 -25 -8 -46 -8c-20 0 -36 2 -43 8l295 661
c-25 17 -38 43 -38 79c0 66 46 117 122 117zM228 276h223l-45 194c-12 51 -23 116 -28 176h-5c-16 -60 -38 -125 -61 -178zM396 811c-35 0 -63 -22 -63 -60c0 -33 21 -50 51 -50c37 0 61 27 61 61c0 31 -19 49 -49 49z" />
    <glyph glyph-name="aringacute" unicode="&#x1fb;" horiz-adv-x="544" 
d="M501 456l-39 -342c-6 -50 9 -56 35 -56c18 0 31 6 43 13c4 -25 -5 -61 -18 -75c-15 -11 -33 -16 -61 -16c-48 0 -80 22 -79 82h-4c-26 -45 -76 -82 -151 -82c-85 0 -154 46 -154 198c0 85 22 165 66 225c51 69 125 99 211 99c65 0 111 -17 151 -46zM382 133l35 281
c-18 12 -42 17 -71 17c-66 0 -111 -26 -139 -63c-36 -47 -49 -119 -49 -178c0 -89 29 -130 99 -130c60 0 96 32 125 73zM360 729c56 0 91 -32 91 -91c0 -62 -38 -111 -110 -111c-58 0 -91 33 -91 91c0 61 39 111 110 111zM356 680c-33 0 -55 -22 -55 -57
c0 -32 17 -47 44 -47c34 0 56 23 56 59c0 30 -18 45 -45 45zM467 811l-184 -75c-8 14 -12 32 -9 52l163 79c16 -13 27 -34 30 -56z" />
    <glyph glyph-name="AEacute" unicode="&#x1fc;" horiz-adv-x="920" 
d="M600 620l-25 -228h297c3 -5 6 -16 6 -30c0 -19 -5 -37 -10 -45h-300l-26 -238h331c3 -5 6 -15 6 -32c0 -20 -4 -38 -9 -47h-423l25 216h-225l-144 -210c-10 -6 -30 -8 -55 -8c-20 0 -39 2 -46 8l479 689h441c3 -5 6 -16 6 -30c0 -19 -5 -37 -10 -45h-318zM444 508
l-149 -217h185l39 338h-4c-17 -34 -50 -91 -71 -121zM488 808l209 99c17 -16 26 -43 26 -72l-221 -91c-11 15 -16 38 -14 64z" />
    <glyph glyph-name="aeacute" unicode="&#x1fd;" horiz-adv-x="756" 
d="M761 382c0 -91 -71 -177 -323 -184c0 -108 35 -141 118 -141c66 0 118 21 169 61c1 -27 -9 -68 -25 -86c-32 -25 -90 -52 -166 -52c-77 0 -125 26 -157 81h-4c-31 -45 -84 -81 -164 -81c-79 0 -147 36 -147 135c0 109 81 177 205 177c33 0 70 -5 97 -15l5 32
c11 73 -5 118 -96 118c-51 0 -97 -17 -140 -44c-7 23 4 62 20 83c32 21 86 36 141 36c74 0 120 -27 137 -86c46 54 112 86 189 86c90 0 141 -44 141 -120zM232 56c53 0 95 25 127 64c-4 19 -5 39 -5 62v26c-23 9 -53 15 -83 15c-73 0 -126 -30 -126 -94c0 -51 36 -73 87 -73
zM444 268c171 3 238 47 238 109c0 32 -17 55 -70 55s-96 -23 -128 -66c-18 -25 -32 -57 -40 -98zM580 710l-153 -156c-22 7 -35 20 -42 42l122 144c27 0 58 -10 73 -30z" />
    <glyph glyph-name="Oslashacute" unicode="&#x1fe;" horiz-adv-x="696" 
d="M89 298c0 214 99 420 328 420c73 0 137 -22 180 -66l87 100c27 -8 48 -26 57 -53l-96 -110c26 -50 40 -114 40 -193c0 -193 -84 -419 -331 -419c-76 0 -137 22 -181 65l-93 -106c-28 11 -47 28 -54 56l100 115c-24 50 -37 113 -37 191zM410 640
c-172 0 -232 -183 -232 -337c0 -49 6 -89 18 -124l346 405c-31 36 -76 56 -132 56zM596 395c0 47 -6 91 -18 124l-346 -407c30 -35 73 -54 128 -54c179 0 236 193 236 337zM360 808l209 99c17 -16 26 -43 26 -72l-221 -91c-11 15 -16 38 -14 64z" />
    <glyph glyph-name="oslashacute" unicode="&#x1ff;" horiz-adv-x="523" 
d="M319 502c49 0 91 -13 122 -39l56 65c23 -6 41 -20 50 -42l-64 -74c19 -33 29 -78 29 -131c0 -72 -18 -157 -58 -213c-37 -52 -100 -88 -184 -88c-53 0 -95 14 -127 39l-69 -80c-16 13 -30 38 -33 63l60 70c-18 34 -26 75 -26 125c0 65 15 135 44 188
c38 69 107 117 200 117zM427 277c0 25 -3 48 -8 67l-223 -262c19 -18 45 -28 79 -28c54 0 89 25 113 62c27 41 39 103 39 161zM316 430c-58 0 -102 -31 -126 -80c-21 -42 -30 -107 -30 -148c0 -23 2 -43 6 -60l223 260c-18 18 -43 28 -73 28zM464 710l-153 -156
c-22 7 -35 20 -42 42l122 144c27 0 58 -10 73 -30z" />
    <glyph glyph-name="uni0218" unicode="&#x218;" horiz-adv-x="525" 
d="M511 583c-42 32 -93 58 -163 58c-80 0 -140 -33 -140 -111c0 -169 297 -94 297 -334c0 -139 -90 -219 -256 -219c-76 0 -138 17 -179 39c-17 23 -25 65 -18 99c49 -32 121 -57 200 -57c93 0 165 35 165 129c0 176 -294 103 -294 334c0 122 79 197 220 197
c60 0 112 -14 152 -44c16 -22 22 -62 16 -91zM301 -48c-9 -75 -39 -157 -70 -202c-27 3 -45 15 -55 32c23 47 39 96 46 154c21 12 41 16 79 16z" />
    <glyph glyph-name="uni0219" unicode="&#x219;" horiz-adv-x="405" 
d="M54 96c34 -24 93 -42 145 -42c61 0 104 20 104 75c0 108 -202 68 -202 227c0 88 57 146 161 146c53 0 92 -15 117 -34c13 -18 20 -57 14 -84c-38 30 -77 47 -123 47c-51 0 -87 -18 -87 -66c0 -103 204 -66 204 -224c0 -102 -72 -161 -190 -161c-52 0 -110 12 -142 31
c-13 24 -12 63 -1 85zM243 -46c-10 -75 -39 -154 -69 -199c-26 3 -44 15 -53 31c24 47 38 93 45 151c21 12 39 17 77 17z" />
    <glyph glyph-name="uni021A" unicode="&#x21a;" horiz-adv-x="530" 
d="M577 618h-200l-64 -614c-9 -5 -23 -7 -45 -7c-24 0 -37 2 -45 7l71 614h-199c-3 6 -6 16 -6 31c0 19 5 38 10 46h482c3 -6 6 -16 6 -31c0 -19 -5 -38 -10 -46zM299 -48c-9 -75 -39 -157 -70 -202c-27 3 -45 15 -55 32c23 47 39 96 46 154c21 12 41 16 79 16z" />
    <glyph glyph-name="uni021B" unicode="&#x21b;" horiz-adv-x="344" 
d="M88 482h61l15 114c21 14 46 21 80 21l-16 -135h130c3 -5 6 -14 6 -31c0 -20 -4 -35 -9 -44h-136l-30 -258c-7 -57 2 -90 60 -90c31 0 61 10 89 34c4 -29 -5 -64 -19 -83c-28 -20 -59 -30 -101 -30c-86 0 -117 42 -117 113c0 15 2 37 4 52l34 262h-67c0 25 7 58 16 75z
M250 -46c-10 -75 -39 -154 -69 -199c-26 3 -44 15 -53 31c24 47 38 93 45 151c21 12 39 17 77 17z" />
    <glyph glyph-name="uni0237" unicode="&#x237;" horiz-adv-x="239" 
d="M223 478l-49 -429c-17 -152 -88 -228 -171 -290c-25 8 -43 33 -47 61c62 47 117 105 132 222l56 436c9 5 20 7 40 7c19 0 32 -2 39 -7z" />
    <glyph glyph-name="uni0259" unicode="&#x259;" horiz-adv-x="479" 
d="M63 105c0 103 81 182 328 187c-1 98 -30 137 -112 137c-63 0 -121 -21 -170 -58c-1 26 10 64 24 81c31 24 91 50 162 50c119 0 179 -73 179 -209c0 -91 -28 -177 -78 -233c-43 -49 -113 -80 -189 -80c-93 0 -144 45 -144 125zM346 115c14 19 32 51 40 109
c-171 -1 -243 -47 -243 -114c0 -37 22 -58 72 -58c51 0 102 24 131 63z" />
    <glyph glyph-name="uni02BB" unicode="&#x2bb;" horiz-adv-x="199" 
d="M110 501c13 78 48 160 81 214c20 13 45 19 79 19c-36 -67 -68 -154 -79 -230c-10 -6 -28 -9 -47 -9c-17 0 -28 2 -34 6z" />
    <glyph glyph-name="uni02BC" unicode="&#x2bc;" horiz-adv-x="199" 
d="M161 717c23 12 43 16 84 16c-11 -90 -51 -193 -91 -247c-28 4 -47 16 -57 34c34 58 55 126 64 197z" />
    <glyph glyph-name="circumflex" unicode="&#x2c6;" horiz-adv-x="434" 
d="M147 606l115 120c20 9 45 10 70 10l95 -144c-9 -21 -26 -35 -48 -41l-85 115l-119 -119c-15 15 -25 34 -28 59z" />
    <glyph glyph-name="caron" unicode="&#x2c7;" horiz-adv-x="434" 
d="M247 557l-92 147c11 17 32 30 52 33l78 -109l112 112c20 -5 36 -22 41 -40l-121 -134c-18 -6 -47 -9 -70 -9z" />
    <glyph glyph-name="breve" unicode="&#x2d8;" horiz-adv-x="434" 
d="M212 724c-3 -70 27 -100 74 -100c48 0 81 31 99 96c22 0 42 -5 55 -19c-21 -89 -76 -142 -161 -142c-84 0 -128 53 -129 136c13 16 38 27 62 29z" />
    <glyph glyph-name="dotaccent" unicode="&#x2d9;" horiz-adv-x="434" 
d="M291 682c28 0 49 -16 49 -51c0 -34 -23 -55 -55 -55c-29 0 -48 17 -48 51c0 35 20 55 54 55z" />
    <glyph glyph-name="ring" unicode="&#x2da;" horiz-adv-x="434" 
d="M301 751c56 0 91 -32 91 -91c0 -62 -38 -111 -110 -111c-58 0 -91 33 -91 91c0 61 39 111 110 111zM297 702c-33 0 -55 -22 -55 -57c0 -32 17 -47 44 -47c34 0 56 23 56 59c0 30 -18 45 -45 45z" />
    <glyph glyph-name="ogonek" unicode="&#x2db;" horiz-adv-x="434" 
d="M274 -152c10 -12 15 -38 12 -58c-13 -6 -35 -12 -58 -12c-55 0 -100 28 -100 97c0 63 38 107 98 133c23 6 67 10 94 10c-50 -20 -115 -62 -115 -125c0 -37 21 -49 47 -49c8 0 13 1 22 4z" />
    <glyph glyph-name="tilde" unicode="&#x2dc;" horiz-adv-x="434" 
d="M225 617c-23 0 -39 -17 -48 -48c-19 3 -36 16 -45 36c13 48 48 80 96 80c69 0 79 -52 124 -52c22 0 38 14 42 42c22 0 39 -4 54 -15c-10 -57 -44 -95 -97 -95c-66 0 -76 52 -126 52z" />
    <glyph glyph-name="hungarumlaut" unicode="&#x2dd;" horiz-adv-x="434" 
d="M300 716l-124 -161c-24 5 -39 16 -46 34l101 154c32 0 52 -9 69 -27zM467 716l-124 -161c-24 5 -39 16 -46 34l101 154c32 0 52 -9 69 -27z" />
    <glyph glyph-name="gravecomb" unicode="&#x300;" horiz-adv-x="1" 
d="M-88 742l89 -152c-12 -18 -26 -29 -50 -34l-111 156c16 17 44 30 72 30z" />
    <glyph glyph-name="acutecomb" unicode="&#x301;" horiz-adv-x="1" 
d="M1 710l-153 -156c-22 7 -35 20 -42 42l122 144c27 0 58 -10 73 -30z" />
    <glyph glyph-name="uni0302" unicode="&#x302;" horiz-adv-x="1" 
d="M-279 606l115 120c20 9 45 10 70 10l95 -144c-9 -21 -26 -35 -48 -41l-85 115l-119 -119c-15 15 -25 34 -28 59z" />
    <glyph glyph-name="tildecomb" unicode="&#x303;" horiz-adv-x="1" 
d="M-222 617c-23 0 -39 -17 -48 -48c-19 3 -36 16 -45 36c13 48 48 80 96 80c69 0 79 -52 124 -52c22 0 38 14 42 42c22 0 39 -4 54 -15c-10 -57 -44 -95 -97 -95c-66 0 -76 52 -126 52z" />
    <glyph glyph-name="uni0304" unicode="&#x304;" horiz-adv-x="1" 
d="M-253 654h249c3 -5 5 -12 5 -26c0 -19 -3 -32 -7 -39h-263c0 21 6 47 16 65z" />
    <glyph glyph-name="uni0306" unicode="&#x306;" horiz-adv-x="1" 
d="M-227 724c-3 -70 27 -100 74 -100c48 0 81 31 99 96c22 0 42 -5 55 -19c-21 -89 -76 -142 -161 -142c-84 0 -128 53 -129 136c13 16 38 27 62 29z" />
    <glyph glyph-name="uni0307" unicode="&#x307;" horiz-adv-x="1" 
d="M-48 682c28 0 49 -16 49 -51c0 -34 -23 -55 -55 -55c-29 0 -48 17 -48 51c0 35 20 55 54 55z" />
    <glyph glyph-name="uni0308" unicode="&#x308;" horiz-adv-x="1" 
d="M-239 674c27 0 46 -15 46 -48c0 -31 -21 -51 -51 -51c-27 0 -45 16 -45 48s19 51 50 51zM-45 674c27 0 46 -15 46 -48c0 -31 -21 -51 -51 -51c-27 0 -45 16 -45 48s19 51 50 51z" />
    <glyph glyph-name="uni030A" unicode="&#x30a;" horiz-adv-x="1" 
d="M-90 751c56 0 91 -32 91 -91c0 -62 -38 -111 -110 -111c-58 0 -91 33 -91 91c0 61 39 111 110 111zM-94 702c-33 0 -55 -22 -55 -57c0 -32 17 -47 44 -47c34 0 56 23 56 59c0 30 -18 45 -45 45z" />
    <glyph glyph-name="uni030B" unicode="&#x30b;" horiz-adv-x="1" 
d="M-166 716l-124 -161c-24 5 -39 16 -46 34l101 154c32 0 52 -9 69 -27zM1 716l-124 -161c-24 5 -39 16 -46 34l101 154c32 0 52 -9 69 -27z" />
    <glyph glyph-name="uni030C" unicode="&#x30c;" horiz-adv-x="1" 
d="M-190 557l-92 147c11 17 32 30 52 33l78 -109l112 112c20 -5 36 -22 41 -40l-121 -134c-18 -6 -47 -9 -70 -9z" />
    <glyph glyph-name="uni0312" unicode="&#x312;" horiz-adv-x="1" 
d="M-126 564c8 61 35 122 58 163c17 12 39 18 69 18c-25 -51 -44 -119 -53 -178c-8 -6 -29 -9 -45 -9c-13 0 -24 2 -29 6z" />
    <glyph glyph-name="uni0313" unicode="&#x313;" horiz-adv-x="1" 
d="M1 726c-9 -73 -38 -150 -67 -193c-25 3 -43 14 -53 31c23 45 36 89 43 146c21 12 40 16 77 16z" />
    <glyph glyph-name="uni0326" unicode="&#x326;" horiz-adv-x="1" 
d="M1 -46c-10 -75 -39 -154 -69 -199c-26 3 -44 15 -53 31c24 47 38 93 45 151c21 12 39 17 77 17z" />
    <glyph glyph-name="uni0327" unicode="&#x327;" horiz-adv-x="1" 
d="M-54 16l-20 -70c28 -12 49 -33 49 -72c0 -63 -53 -101 -121 -112c-19 10 -34 25 -39 46c36 5 84 21 84 61c0 26 -21 42 -48 49l36 86c15 7 36 12 59 12z" />
    <glyph glyph-name="uni0328" unicode="&#x328;" horiz-adv-x="1" 
d="M-26 -152c10 -12 15 -38 12 -58c-13 -6 -35 -12 -58 -12c-55 0 -100 28 -100 97c0 63 38 107 98 133c23 6 67 10 94 10c-50 -20 -115 -62 -115 -125c0 -37 21 -49 47 -49c8 0 13 1 22 4z" />
    <glyph glyph-name="uni037E" unicode="&#x37e;" horiz-adv-x="229" 
d="M89 74c24 11 44 15 87 15c-13 -92 -52 -198 -93 -254c-29 4 -49 15 -61 35c36 61 58 129 67 204zM172 481c31 0 53 -18 53 -55c0 -36 -24 -59 -59 -59c-31 0 -52 19 -52 55c0 37 22 59 58 59z" />
    <glyph glyph-name="tonos" unicode="&#x384;" horiz-adv-x="434" 
d="M349 716l-128 -173c-23 3 -41 18 -49 37l104 162c27 2 56 -5 73 -26z" />
    <glyph glyph-name="dieresistonos" unicode="&#x385;" horiz-adv-x="434" 
d="M123 580c-29 0 -46 18 -41 51c3 26 21 40 45 40c29 0 46 -17 41 -50c-3 -26 -21 -41 -45 -41zM335 717l-106 -168c-23 2 -40 11 -50 27l91 165c27 0 47 -8 65 -24zM362 580c-29 0 -46 18 -41 51c3 26 21 40 45 40c29 0 46 -17 41 -50c-3 -26 -21 -41 -45 -41z" />
    <glyph glyph-name="Alphatonos" unicode="&#x386;" horiz-adv-x="611" 
d="M511 5l-45 196h-269l-88 -196c-9 -6 -25 -8 -46 -8c-20 0 -36 2 -43 8l308 692c11 3 30 6 55 6c24 0 42 -3 52 -6l163 -692c-8 -6 -22 -8 -43 -8c-19 0 -36 2 -44 8zM228 276h223l-45 194c-12 51 -23 116 -28 176h-5c-16 -60 -38 -125 -61 -178zM213 683l-88 -204
c-22 -1 -45 9 -55 23l71 202c31 0 52 -5 72 -21z" />
    <glyph glyph-name="anoteleia" unicode="&#x387;" horiz-adv-x="228" 
d="M159 482c31 0 54 -18 54 -56c0 -37 -25 -61 -61 -61c-31 0 -53 19 -53 56c0 38 23 61 60 61z" />
    <glyph glyph-name="Epsilontonos" unicode="&#x388;" horiz-adv-x="562" 
d="M242 620l-25 -228h297c3 -5 6 -16 6 -30c0 -19 -5 -37 -10 -45h-300l-26 -238h331c3 -5 6 -15 6 -32c0 -20 -4 -38 -9 -47h-423l80 695h395c3 -5 6 -16 6 -30c0 -19 -5 -37 -10 -45h-318zM121 683l-88 -204c-22 -1 -45 9 -55 23l71 202c31 0 52 -5 72 -21z" />
    <glyph glyph-name="Etatonos" unicode="&#x389;" horiz-adv-x="690" 
d="M515 4l37 317h-340l-33 -317c-9 -5 -22 -7 -45 -7c-22 0 -36 2 -44 7l79 687c8 5 22 7 42 7c19 0 32 -2 39 -7l-31 -293h341l33 293c9 5 22 7 42 7c19 0 32 -2 40 -7l-71 -687c-9 -5 -23 -7 -45 -7s-36 2 -44 7zM121 683l-88 -204c-22 -1 -45 9 -55 23l71 202
c31 0 52 -5 72 -21z" />
    <glyph glyph-name="Iotatonos" unicode="&#x38a;" horiz-adv-x="266" 
d="M90 4l79 687c8 5 22 7 42 7c19 0 32 -2 40 -7l-71 -687c-9 -5 -23 -7 -45 -7c-24 0 -37 2 -45 7zM121 683l-88 -204c-22 -1 -45 9 -55 23l71 202c31 0 52 -5 72 -21z" />
    <glyph glyph-name="Omicrontonos" unicode="&#x38c;" horiz-adv-x="696" 
d="M91 298c0 214 98 420 326 420c162 0 266 -107 266 -322c0 -193 -83 -419 -329 -419c-168 0 -263 108 -263 321zM410 640c-171 0 -230 -183 -230 -337c0 -159 63 -245 180 -245c177 0 234 193 234 337c0 156 -64 245 -184 245zM123 683l-88 -204c-22 -1 -45 9 -55 23
l71 202c31 0 52 -5 72 -21z" />
    <glyph glyph-name="Upsilontonos" unicode="&#x38e;" horiz-adv-x="544" 
d="M229 4l9 84c16 151 5 210 -99 466l-55 136c9 5 23 8 44 8c20 0 35 -3 45 -8l40 -104c50 -129 82 -213 88 -315h5c24 94 67 173 145 302l71 117c10 5 27 8 47 8c21 0 37 -3 44 -8l-97 -154c-155 -245 -175 -298 -189 -448l-8 -84c-9 -5 -23 -7 -46 -7c-22 0 -36 2 -44 7z
M66 683l-88 -204c-22 -1 -45 9 -55 23l71 202c31 0 52 -5 72 -21z" />
    <glyph glyph-name="Omegatonos" unicode="&#x38f;" horiz-adv-x="732" 
d="M49 81h171v5c-66 39 -111 136 -111 256c0 185 115 376 333 376c171 0 268 -117 268 -297c0 -130 -47 -273 -172 -335v-5h162c2 -4 6 -14 6 -33s-4 -39 -10 -48h-260c-6 16 -11 51 -6 79c125 66 191 183 191 329c0 122 -47 232 -185 232c-164 0 -239 -159 -239 -306
c0 -120 49 -209 126 -255c0 -30 -9 -58 -20 -79h-258c-2 4 -6 14 -6 33s4 39 10 48zM135 683l-88 -204c-22 -1 -45 9 -55 23l71 202c31 0 52 -5 72 -21z" />
    <glyph glyph-name="iotadieresistonos" unicode="&#x390;" horiz-adv-x="271" 
d="M216 478l-39 -357c-6 -51 9 -63 42 -63c21 0 40 6 56 16c4 -25 -5 -60 -18 -76c-18 -12 -42 -18 -71 -18c-82 0 -105 53 -95 133l46 365c9 5 20 7 40 7c19 0 32 -2 39 -7zM83 580c-29 0 -46 18 -41 51c3 26 21 40 45 40c29 0 46 -17 41 -50c-3 -26 -21 -41 -45 -41z
M295 717l-106 -168c-23 2 -40 11 -50 27l91 165c27 0 47 -8 65 -24zM322 580c-29 0 -46 18 -41 51c3 26 21 40 45 40c29 0 46 -17 41 -50c-3 -26 -21 -41 -45 -41z" />
    <glyph glyph-name="Alpha" unicode="&#x391;" horiz-adv-x="611" 
d="M511 5l-45 196h-269l-88 -196c-9 -6 -25 -8 -46 -8c-20 0 -36 2 -43 8l308 692c11 3 30 6 55 6c24 0 42 -3 52 -6l163 -692c-8 -6 -22 -8 -43 -8c-19 0 -36 2 -44 8zM228 276h223l-45 194c-12 51 -23 116 -28 176h-5c-16 -60 -38 -125 -61 -178z" />
    <glyph glyph-name="Beta" unicode="&#x392;" horiz-adv-x="611" 
d="M468 367v-5c72 -19 123 -68 123 -162c0 -148 -127 -205 -283 -205c-89 0 -155 3 -218 11l79 680c51 11 98 18 168 18c148 0 246 -51 246 -173c0 -73 -36 -143 -115 -164zM212 322l-26 -244c33 -4 76 -5 121 -5c93 0 196 23 196 129c0 81 -60 120 -162 120h-129zM243 622
l-24 -224h126c81 0 152 36 152 120c0 78 -62 111 -165 111c-29 0 -61 -2 -89 -7z" />
    <glyph glyph-name="Gamma" unicode="&#x393;" horiz-adv-x="521" 
d="M244 616l-64 -612c-9 -5 -23 -7 -45 -7c-24 0 -37 2 -45 7l80 691h399c2 -4 5 -16 5 -32c0 -19 -5 -39 -10 -47h-320z" />
    <glyph glyph-name="uni0394" unicode="&#x394;" horiz-adv-x="594" 
d="M560 0h-513c-8 20 -11 44 -11 73l285 624c10 3 30 6 56 6c23 0 42 -3 53 -6l150 -624c0 -28 -10 -55 -20 -73zM489 82l-93 398c-11 48 -20 110 -24 163h-5c-14 -52 -36 -115 -59 -166l-177 -395h358z" />
    <glyph glyph-name="Epsilon" unicode="&#x395;" horiz-adv-x="562" 
d="M242 620l-25 -228h297c3 -5 6 -16 6 -30c0 -19 -5 -37 -10 -45h-300l-26 -238h331c3 -5 6 -15 6 -32c0 -20 -4 -38 -9 -47h-423l80 695h395c3 -5 6 -16 6 -30c0 -19 -5 -37 -10 -45h-318z" />
    <glyph glyph-name="Zeta" unicode="&#x396;" horiz-adv-x="544" 
d="M565 626l-398 -542v-5h348c3 -6 6 -16 6 -32c0 -20 -5 -38 -10 -47h-446c-9 19 -12 43 -12 71l408 543v5h-325c-3 6 -5 18 -5 32c0 19 4 35 9 44h415c7 -19 10 -40 10 -69z" />
    <glyph glyph-name="Eta" unicode="&#x397;" horiz-adv-x="690" 
d="M515 4l37 317h-340l-33 -317c-9 -5 -22 -7 -45 -7c-22 0 -36 2 -44 7l79 687c8 5 22 7 42 7c19 0 32 -2 39 -7l-31 -293h341l33 293c9 5 22 7 42 7c19 0 32 -2 40 -7l-71 -687c-9 -5 -23 -7 -45 -7s-36 2 -44 7z" />
    <glyph glyph-name="Theta" unicode="&#x398;" horiz-adv-x="704" 
d="M91 299c0 213 99 419 331 419c165 0 269 -107 269 -323c0 -194 -83 -418 -335 -418c-169 0 -265 109 -265 322zM415 640c-174 0 -235 -182 -235 -335c0 -161 63 -247 184 -247c182 0 239 191 239 335c0 158 -66 247 -188 247zM532 319h-282c-3 5 -6 16 -6 30
c0 22 4 40 9 48h282c3 -5 6 -17 6 -31c0 -22 -4 -39 -9 -47z" />
    <glyph glyph-name="Iota" unicode="&#x399;" horiz-adv-x="266" 
d="M90 4l79 687c8 5 22 7 42 7c19 0 32 -2 40 -7l-71 -687c-9 -5 -23 -7 -45 -7c-24 0 -37 2 -45 7z" />
    <glyph glyph-name="Kappa" unicode="&#x39a;" horiz-adv-x="595" 
d="M90 4l79 687c8 5 22 7 42 7c19 0 32 -2 40 -7l-31 -296h75l234 295c12 5 30 8 53 8c21 0 36 -3 44 -8l-264 -335l219 -350c-8 -6 -24 -8 -50 -8c-25 0 -44 3 -55 8l-191 313h-73l-32 -314c-9 -5 -23 -7 -45 -7c-24 0 -37 2 -45 7z" />
    <glyph glyph-name="Lambda" unicode="&#x39b;" horiz-adv-x="608" 
d="M506 5l-109 479c-11 48 -19 106 -23 158h-4c-13 -51 -32 -110 -53 -159l-208 -478c-9 -6 -25 -8 -47 -8c-20 0 -35 2 -42 8l307 692c10 3 28 6 53 6c23 0 40 -3 51 -6l163 -692c-8 -6 -23 -8 -43 -8s-38 2 -45 8z" />
    <glyph glyph-name="Mu" unicode="&#x39c;" horiz-adv-x="811" 
d="M647 4l70 633h-4c-17 -55 -51 -143 -72 -192l-190 -447c-10 -4 -24 -6 -45 -6c-19 0 -32 2 -41 6l-96 449c-12 57 -25 131 -31 189h-4l-64 -633c-7 -4 -21 -6 -40 -6c-18 0 -33 2 -40 6l79 687c12 4 32 7 62 7c31 0 47 -3 60 -7l92 -427c13 -59 29 -136 35 -198h4
c15 62 44 146 68 201l182 424c14 4 31 7 63 7s49 -3 61 -7l-69 -686c-8 -5 -21 -7 -41 -7c-19 0 -32 2 -39 7z" />
    <glyph glyph-name="Nu" unicode="&#x39d;" horiz-adv-x="690" 
d="M237 623l-63 -620c-8 -4 -22 -6 -43 -6c-20 0 -35 2 -42 6l81 687c13 5 27 8 54 8c26 0 39 -3 51 -8l204 -453c20 -44 37 -103 46 -159h4l69 613c7 5 18 7 39 7c18 0 30 -2 37 -7l-70 -689c-12 -4 -32 -7 -59 -7c-26 0 -43 3 -54 7l-208 473c-19 43 -35 98 -42 148h-4z
" />
    <glyph glyph-name="Xi" unicode="&#x39e;" horiz-adv-x="553" 
d="M491 317h-359c-3 5 -6 16 -6 30c0 19 5 37 10 45h359c3 -5 6 -16 6 -30c0 -19 -5 -37 -10 -45zM499 0h-440c-3 5 -6 15 -6 32c0 20 4 38 9 47h440c3 -5 6 -15 6 -32c0 -20 -4 -38 -9 -47zM559 620h-428c-3 5 -6 16 -6 30c0 19 5 37 10 45h428c3 -5 6 -16 6 -30
c0 -19 -5 -37 -10 -45z" />
    <glyph glyph-name="Omicron" unicode="&#x39f;" horiz-adv-x="696" 
d="M91 298c0 214 98 420 326 420c162 0 266 -107 266 -322c0 -193 -83 -419 -329 -419c-168 0 -263 108 -263 321zM410 640c-171 0 -230 -183 -230 -337c0 -159 63 -245 180 -245c177 0 234 193 234 337c0 156 -64 245 -184 245z" />
    <glyph glyph-name="Pi" unicode="&#x3a0;" horiz-adv-x="680" 
d="M506 4l69 614h-332l-64 -614c-9 -5 -22 -7 -45 -7c-22 0 -36 2 -44 7l80 691h495l-70 -691c-9 -5 -22 -7 -45 -7c-22 0 -36 2 -44 7z" />
    <glyph glyph-name="Rho" unicode="&#x3a1;" horiz-adv-x="563" 
d="M331 240c-48 0 -94 4 -126 10l-26 -246c-9 -5 -23 -7 -45 -7c-24 0 -37 2 -45 7l79 680c48 13 93 21 163 21c164 0 263 -68 263 -222c0 -146 -92 -243 -263 -243zM243 619l-31 -293c30 -6 65 -9 113 -9c112 0 182 50 182 161c0 109 -68 151 -173 151
c-34 0 -66 -4 -91 -10z" />
    <glyph glyph-name="Sigma" unicode="&#x3a3;" horiz-adv-x="553" 
d="M408 356l-251 -272v-5h349c3 -5 6 -15 6 -32c0 -20 -4 -38 -9 -47h-440c-10 22 -14 44 -12 71l258 283l-192 268c2 26 8 51 19 73h422c3 -5 6 -15 6 -29c0 -18 -4 -35 -9 -43h-342v-5z" />
    <glyph glyph-name="Tau" unicode="&#x3a4;" horiz-adv-x="530" 
d="M577 618h-200l-64 -614c-9 -5 -23 -7 -45 -7c-24 0 -37 2 -45 7l71 614h-199c-3 6 -6 16 -6 31c0 19 5 38 10 46h482c3 -6 6 -16 6 -31c0 -19 -5 -38 -10 -46z" />
    <glyph glyph-name="Upsilon" unicode="&#x3a5;" horiz-adv-x="544" 
d="M229 4l9 84c16 151 5 210 -99 466l-55 136c9 5 23 8 44 8c20 0 35 -3 45 -8l40 -104c50 -129 82 -213 88 -315h5c24 94 67 173 145 302l71 117c10 5 27 8 47 8c21 0 37 -3 44 -8l-97 -154c-155 -245 -175 -298 -189 -448l-8 -84c-9 -5 -23 -7 -46 -7c-22 0 -36 2 -44 7z
" />
    <glyph glyph-name="Phi" unicode="&#x3a6;" horiz-adv-x="744" 
d="M73 369c21 178 135 279 331 288l8 73c8 5 22 7 42 7c19 0 33 -2 40 -7l-8 -75c164 -14 265 -112 265 -278c0 -14 -1 -29 -2 -44c-18 -186 -139 -287 -328 -294l-7 -74c-9 -5 -22 -7 -44 -7c-24 0 -36 2 -44 7l9 75c-186 15 -285 131 -262 329zM666 335
c15 147 -51 238 -188 249l-51 -473c148 10 225 87 239 224zM156 366c-17 -147 46 -238 188 -252l54 473c-154 -7 -226 -83 -242 -221z" />
    <glyph glyph-name="Chi" unicode="&#x3a7;" horiz-adv-x="572" 
d="M222 689l95 -191c11 -22 22 -51 28 -74h4c10 23 27 55 42 75l136 190c9 6 26 9 47 9s36 -3 44 -9l-235 -330l175 -354c-7 -6 -22 -8 -44 -8c-24 0 -39 2 -50 8l-110 227c-11 23 -21 48 -27 72h-4c-11 -23 -27 -51 -44 -74l-162 -225c-10 -6 -28 -8 -51 -8
c-21 0 -39 2 -46 8l267 369l-152 315c8 6 20 9 43 9c21 0 34 -3 44 -9z" />
    <glyph glyph-name="Psi" unicode="&#x3a8;" horiz-adv-x="701" 
d="M195 691l-18 -189c-11 -115 10 -210 162 -220l46 409c8 5 21 7 41 7c18 0 30 -2 38 -7l-42 -410c135 5 191 62 206 190l25 220c8 5 21 7 41 7c18 0 30 -2 38 -7l-22 -218c-18 -182 -112 -257 -294 -266l-21 -203c-9 -5 -23 -7 -45 -7c-24 0 -37 2 -45 7l24 204
c-185 14 -254 120 -234 296l21 187c8 5 21 7 41 7c18 0 30 -2 38 -7z" />
    <glyph glyph-name="uni03A9" unicode="&#x3a9;" horiz-adv-x="732" 
d="M49 81h171v5c-66 39 -111 136 -111 256c0 185 115 376 333 376c171 0 268 -117 268 -297c0 -130 -47 -273 -172 -335v-5h162c2 -4 6 -14 6 -33s-4 -39 -10 -48h-260c-6 16 -11 51 -6 79c125 66 191 183 191 329c0 122 -47 232 -185 232c-164 0 -239 -159 -239 -306
c0 -120 49 -209 126 -255c0 -30 -9 -58 -20 -79h-258c-2 4 -6 14 -6 33s4 39 10 48z" />
    <glyph glyph-name="Iotadieresis" unicode="&#x3aa;" horiz-adv-x="266" 
d="M90 4l79 687c8 5 22 7 42 7c19 0 32 -2 40 -7l-71 -687c-9 -5 -23 -7 -45 -7c-24 0 -37 2 -45 7zM131 866c29 0 49 -16 49 -51c0 -33 -22 -54 -54 -54c-29 0 -49 17 -49 51s21 54 54 54zM320 866c29 0 49 -16 49 -51c0 -33 -22 -54 -54 -54c-29 0 -49 17 -49 51
s21 54 54 54z" />
    <glyph glyph-name="Upsilondieresis" unicode="&#x3ab;" horiz-adv-x="544" 
d="M229 4l9 84c16 151 5 210 -99 466l-55 136c9 5 23 8 44 8c20 0 35 -3 45 -8l40 -104c50 -129 82 -213 88 -315h5c24 94 67 173 145 302l71 117c10 5 27 8 47 8c21 0 37 -3 44 -8l-97 -154c-155 -245 -175 -298 -189 -448l-8 -84c-9 -5 -23 -7 -46 -7c-22 0 -36 2 -44 7z
M476 866c29 0 49 -16 49 -51c0 -33 -22 -54 -54 -54c-29 0 -49 17 -49 51s21 54 54 54zM272 866c29 0 49 -16 49 -51c0 -33 -22 -54 -54 -54c-29 0 -49 17 -49 51s21 54 54 54z" />
    <glyph glyph-name="alphatonos" unicode="&#x3ac;" 
d="M541 478c-24 -61 -49 -149 -59 -245c-13 -125 -6 -175 53 -175c9 0 16 1 23 3c2 -25 -8 -58 -21 -74c-10 -4 -25 -5 -35 -5c-54 0 -89 28 -101 99h-4c-29 -66 -82 -101 -154 -101c-104 0 -164 69 -164 201c0 21 2 44 5 69c25 189 121 252 221 252c75 0 114 -34 131 -95h4
c8 26 17 49 27 71c11 5 22 8 39 8c13 0 27 -3 35 -8zM418 329c-11 67 -40 102 -101 102c-79 0 -131 -57 -148 -182c-18 -130 14 -194 100 -194c60 0 101 36 127 94c0 49 7 122 22 180zM484 716l-128 -173c-23 3 -41 18 -49 37l104 162c27 2 56 -5 73 -26z" />
    <glyph glyph-name="epsilontonos" unicode="&#x3ad;" horiz-adv-x="458" 
d="M190 256v4c-53 17 -75 59 -67 121c11 88 77 121 168 121c57 0 111 -13 148 -42c7 -15 11 -46 6 -67c-48 32 -87 42 -137 42c-61 0 -97 -17 -104 -67c-9 -61 33 -84 103 -84h75c7 -15 9 -49 2 -66h-77c-92 0 -138 -24 -147 -82c-9 -61 36 -83 120 -83c53 0 101 9 152 30
c0 -27 -13 -59 -31 -78c-44 -16 -94 -25 -147 -25c-106 0 -181 36 -181 128c0 8 1 17 2 26c9 70 50 106 115 122zM460 716l-128 -173c-23 3 -41 18 -49 37l104 162c27 2 56 -5 73 -26z" />
    <glyph glyph-name="etatonos" unicode="&#x3ae;" horiz-adv-x="548" 
d="M212 327l-37 -323c-8 -5 -21 -7 -43 -7s-34 2 -42 7l44 357c5 40 -3 55 -37 55h-15c2 24 9 49 19 68h24c68 0 87 -29 87 -82h4c28 55 75 100 166 100c99 0 137 -48 137 -144c0 -16 -1 -33 -3 -52l-57 -535c-8 -5 -21 -7 -43 -7s-35 2 -43 7l61 527c8 66 -1 127 -81 127
c-69 0 -111 -43 -141 -98zM491 716l-128 -173c-23 3 -41 18 -49 37l104 162c27 2 56 -5 73 -26z" />
    <glyph glyph-name="iotatonos" unicode="&#x3af;" horiz-adv-x="271" 
d="M216 478l-39 -357c-6 -51 9 -63 42 -63c21 0 40 6 56 16c4 -25 -5 -60 -18 -76c-18 -12 -42 -18 -71 -18c-82 0 -105 53 -95 133l46 365c9 5 20 7 40 7c19 0 32 -2 39 -7zM332 716l-128 -173c-23 3 -41 18 -49 37l104 162c27 2 56 -5 73 -26z" />
    <glyph glyph-name="upsilondieresistonos" unicode="&#x3b0;" horiz-adv-x="533" 
d="M102 483h17c73 0 110 -30 102 -106c-6 -59 -26 -114 -35 -179c-16 -111 32 -143 97 -143c80 0 129 51 141 186c9 104 -4 180 -29 233c10 7 23 12 42 12c18 0 29 -3 36 -9c21 -42 36 -104 36 -183c0 -20 -1 -40 -3 -62c-13 -146 -68 -252 -230 -252
c-94 0 -177 33 -177 164c0 17 1 35 4 55c9 64 30 104 38 167c5 37 -8 48 -39 48h-18c1 23 8 50 18 69zM225 580c-29 0 -46 18 -41 51c3 26 21 40 45 40c29 0 46 -17 41 -50c-3 -26 -21 -41 -45 -41zM437 717l-106 -168c-23 2 -40 11 -50 27l91 165c27 0 47 -8 65 -24z
M464 580c-29 0 -46 18 -41 51c3 26 21 40 45 40c29 0 46 -17 41 -50c-3 -26 -21 -41 -45 -41z" />
    <glyph glyph-name="alpha" unicode="&#x3b1;" 
d="M541 478c-24 -61 -49 -149 -59 -245c-13 -125 -6 -175 53 -175c9 0 16 1 23 3c2 -25 -8 -58 -21 -74c-10 -4 -25 -5 -35 -5c-54 0 -89 28 -101 99h-4c-29 -66 -82 -101 -154 -101c-104 0 -164 69 -164 201c0 21 2 44 5 69c25 189 121 252 221 252c75 0 114 -34 131 -95h4
c8 26 17 49 27 71c11 5 22 8 39 8c13 0 27 -3 35 -8zM418 329c-11 67 -40 102 -101 102c-79 0 -131 -57 -148 -182c-18 -130 14 -194 100 -194c60 0 101 36 127 94c0 49 7 122 22 180z" />
    <glyph glyph-name="beta" unicode="&#x3b2;" horiz-adv-x="535" 
d="M533 586c-7 -71 -40 -124 -96 -163v-4c54 -49 90 -121 79 -229c-14 -131 -89 -210 -220 -210c-181 0 -230 154 -199 388c28 211 116 381 292 381c112 0 153 -67 144 -163zM378 377c-55 -33 -123 -59 -203 -81c-12 -155 23 -244 122 -244c78 0 128 55 137 144
c8 79 -14 142 -56 181zM182 370c143 36 262 111 272 221c5 53 -15 91 -74 91c-101 0 -174 -117 -198 -312z" />
    <glyph glyph-name="gamma" unicode="&#x3b3;" horiz-adv-x="445" 
d="M135 481c43 -75 71 -152 84 -241c8 -52 9 -98 6 -150h4c71 102 133 247 156 390c7 4 16 7 37 7s37 -5 47 -12c-34 -181 -127 -366 -233 -473c0 -15 0 -37 -3 -62c-9 -68 -20 -118 -35 -169c-8 -4 -22 -7 -42 -7c-19 0 -33 3 -41 7c14 46 28 101 35 162
c22 203 -11 383 -101 542c9 6 23 12 50 12c17 0 29 -3 36 -6z" />
    <glyph glyph-name="delta" unicode="&#x3b4;" horiz-adv-x="538" 
d="M78 203c16 119 81 173 186 211v4c-69 42 -116 94 -103 187c14 97 80 144 196 144c69 0 129 -18 172 -58c12 -18 16 -61 13 -84c-52 42 -103 74 -182 74c-58 0 -114 -16 -123 -78c-10 -67 26 -94 132 -158c79 -47 158 -112 146 -256c-12 -139 -100 -209 -237 -209
s-219 78 -200 223zM431 184c9 101 -28 144 -115 197c-89 -35 -144 -78 -157 -175c-15 -107 42 -155 124 -155c85 0 140 43 148 133z" />
    <glyph glyph-name="epsilon" unicode="&#x3b5;" horiz-adv-x="458" 
d="M190 256v4c-53 17 -75 59 -67 121c11 88 77 121 168 121c57 0 111 -13 148 -42c7 -15 11 -46 6 -67c-48 32 -87 42 -137 42c-61 0 -97 -17 -104 -67c-9 -61 33 -84 103 -84h75c7 -15 9 -49 2 -66h-77c-92 0 -138 -24 -147 -82c-9 -61 36 -83 120 -83c53 0 101 9 152 30
c0 -27 -13 -59 -31 -78c-44 -16 -94 -25 -147 -25c-106 0 -181 36 -181 128c0 8 1 17 2 26c9 70 50 106 115 122z" />
    <glyph glyph-name="zeta" unicode="&#x3b6;" horiz-adv-x="408" 
d="M174 723h71c88 0 147 3 222 18c14 -13 21 -39 18 -60c-143 -59 -304 -205 -326 -394c-14 -116 28 -157 99 -181c97 -33 157 -69 147 -171c-6 -59 -37 -99 -78 -130c-27 8 -40 22 -49 46c24 20 41 42 44 73c6 64 -30 84 -107 112c-105 37 -145 100 -145 192
c0 17 1 35 4 54c24 176 125 297 278 375v4c-42 -9 -63 -11 -126 -11h-67c0 23 7 54 15 73z" />
    <glyph glyph-name="eta" unicode="&#x3b7;" horiz-adv-x="548" 
d="M212 327l-37 -323c-8 -5 -21 -7 -43 -7s-34 2 -42 7l44 357c5 40 -3 55 -37 55h-15c2 24 9 49 19 68h24c68 0 87 -29 87 -82h4c28 55 75 100 166 100c99 0 137 -48 137 -144c0 -16 -1 -33 -3 -52l-57 -535c-8 -5 -21 -7 -43 -7s-35 2 -43 7l61 527c8 66 -1 127 -81 127
c-69 0 -111 -43 -141 -98z" />
    <glyph glyph-name="theta" unicode="&#x3b8;" horiz-adv-x="559" 
d="M280 51c102 0 160 98 182 290c-212 8 -317 101 -297 247c14 105 82 161 184 161c149 0 205 -118 205 -290c0 -36 -3 -74 -7 -114c-26 -233 -113 -365 -273 -365c-125 0 -188 65 -171 196l8 62c3 23 -5 33 -25 33c-12 0 -25 -3 -35 -11c0 22 8 52 23 70c13 7 27 11 46 11
c60 0 80 -33 72 -94l-9 -70c-11 -83 22 -126 97 -126zM244 585c-16 -109 66 -168 225 -175c13 173 -19 273 -121 273c-53 0 -94 -27 -104 -98z" />
    <glyph glyph-name="iota" unicode="&#x3b9;" horiz-adv-x="271" 
d="M216 478l-39 -357c-6 -51 9 -63 42 -63c21 0 40 6 56 16c4 -25 -5 -60 -18 -76c-18 -12 -42 -18 -71 -18c-82 0 -105 53 -95 133l46 365c9 5 20 7 40 7c19 0 32 -2 39 -7z" />
    <glyph glyph-name="kappa" unicode="&#x3ba;" horiz-adv-x="524" 
d="M219 478l-25 -217l154 151c63 62 104 76 176 76c3 -5 6 -12 6 -28c0 -19 -4 -32 -9 -41c-49 0 -71 -3 -128 -58l-66 -63c45 -186 76 -244 153 -244c20 0 32 4 46 14c5 -26 -5 -59 -18 -76c-14 -7 -30 -12 -58 -12c-113 0 -154 116 -189 262l-78 -75l-18 -163
c-8 -5 -21 -7 -43 -7s-34 2 -42 7l60 474c9 5 20 7 40 7c19 0 32 -2 39 -7z" />
    <glyph glyph-name="lambda" unicode="&#x3bb;" horiz-adv-x="504" 
d="M320 443h-4c-21 -75 -54 -151 -85 -218l-101 -220c-11 -6 -30 -8 -49 -8c-22 0 -37 3 -42 8l257 526c-16 139 -51 150 -98 150c-29 0 -48 -7 -65 -19c-1 19 6 55 23 71c16 10 38 16 71 16c89 0 129 -34 163 -286c23 -169 50 -301 119 -458c-9 -5 -25 -8 -45 -8
s-36 2 -45 8c-69 175 -88 297 -99 438z" />
    <glyph glyph-name="uni03BC" unicode="&#x3bc;" horiz-adv-x="561" 
d="M49 -229l90 701c22 11 45 15 81 15l-37 -311c-2 -15 -3 -28 -3 -39c0 -43 18 -77 81 -77c68 0 104 34 137 81l43 337c9 5 20 7 40 7c19 0 32 -2 39 -7l-40 -364c-6 -50 9 -56 35 -56c18 0 31 6 43 13c4 -25 -5 -61 -18 -75c-15 -11 -32 -16 -60 -16c-46 0 -77 21 -75 76
h-4c-22 -38 -65 -76 -142 -76c-48 0 -90 13 -100 52h-4c4 -33 0 -87 -7 -147l-13 -114c-8 -5 -21 -7 -43 -7s-35 2 -43 7z" />
    <glyph glyph-name="nu" unicode="&#x3bd;" horiz-adv-x="457" 
d="M227 -8c-28 0 -59 7 -80 15l-84 468c9 6 25 12 51 12c18 0 28 -3 35 -6l47 -300c6 -39 10 -82 9 -126h4c88 79 160 166 173 295c6 60 2 94 -4 125c7 6 23 12 44 12c13 0 26 -3 33 -8c10 -35 14 -74 7 -132c-16 -147 -114 -269 -235 -355z" />
    <glyph glyph-name="xi" unicode="&#x3be;" horiz-adv-x="434" 
d="M422 339h-59c-94 0 -192 -29 -205 -119c-12 -80 39 -104 108 -124c81 -23 153 -56 142 -166c-6 -61 -34 -94 -78 -126c-29 8 -39 21 -48 46c25 20 40 39 43 69c6 61 -31 81 -95 103c-86 29 -174 63 -157 188c12 89 78 139 165 157v4c-72 15 -109 62 -97 140
c12 75 51 108 158 143v4c-38 -6 -56 -7 -95 -7h-41c1 24 7 53 16 72h74c75 0 140 3 217 15c13 -13 20 -39 17 -60c-164 -31 -251 -78 -263 -166c-13 -92 61 -109 160 -109h32c8 -14 11 -46 6 -64z" />
    <glyph glyph-name="omicron" unicode="&#x3bf;" horiz-adv-x="523" 
d="M319 502c117 0 192 -76 192 -221c0 -72 -18 -157 -58 -213c-37 -52 -99 -88 -183 -88c-126 0 -194 79 -194 217c0 65 15 135 44 188c38 69 106 117 199 117zM316 430c-58 0 -101 -31 -125 -80c-21 -42 -30 -107 -30 -148c0 -98 38 -148 114 -148c54 0 88 25 112 62
c27 41 39 103 39 161c0 96 -38 153 -110 153z" />
    <glyph glyph-name="pi" unicode="&#x3c0;" horiz-adv-x="519" 
d="M71 482h479c3 -5 6 -14 6 -31c0 -20 -4 -35 -9 -44h-89l-34 -293c-6 -50 9 -56 35 -56c18 0 31 6 43 13c4 -25 -5 -61 -18 -75c-15 -10 -32 -16 -60 -16c-68 0 -87 37 -87 91c0 12 1 26 3 40l39 296h-159l-46 -403c-8 -5 -21 -7 -43 -7s-34 2 -42 7l51 403h-85
c0 25 7 58 16 75z" />
    <glyph glyph-name="rho" unicode="&#x3c1;" horiz-adv-x="545" 
d="M311 -20c-69 0 -116 23 -143 64h-4l-31 -273c-9 -5 -22 -7 -43 -7s-34 2 -43 7l61 494c19 155 93 237 231 237c108 0 191 -52 191 -214c0 -17 -1 -35 -3 -55c-16 -161 -100 -253 -216 -253zM189 264l-18 -151c22 -36 57 -60 117 -60c89 0 145 66 157 187
c12 123 -20 193 -109 193c-87 0 -134 -59 -147 -169z" />
    <glyph glyph-name="sigma1" unicode="&#x3c2;" horiz-adv-x="432" 
d="M163 281c-15 -109 32 -144 104 -172c85 -33 139 -75 129 -171c-6 -55 -33 -95 -73 -129c-28 7 -44 21 -53 46c24 20 39 46 42 76c6 66 -31 81 -121 119c-64 27 -117 83 -117 185c0 14 2 31 4 48c20 143 107 219 237 219c47 0 86 -10 111 -26c13 -19 19 -58 14 -83
c-33 22 -66 33 -114 33c-93 0 -149 -46 -163 -145z" />
    <glyph glyph-name="sigma" unicode="&#x3c3;" horiz-adv-x="583" 
d="M610 412h-89c-45 0 -67 3 -94 8v-5c40 -37 79 -105 69 -219c-13 -149 -101 -216 -227 -216c-120 0 -190 69 -190 201c0 19 1 38 4 59c21 154 104 246 270 246c65 0 88 -4 171 -4h88c3 -5 6 -13 6 -29c0 -19 -4 -33 -8 -41zM417 214c9 102 -20 170 -57 205h-18
c-110 0 -161 -69 -176 -183c-17 -127 23 -182 108 -182c82 0 134 53 143 160z" />
    <glyph glyph-name="tau" unicode="&#x3c4;" horiz-adv-x="422" 
d="M67 482h386c3 -5 6 -13 6 -30c0 -20 -4 -34 -9 -43h-176l-30 -259c-7 -59 3 -86 57 -86c27 0 47 5 73 22c3 -27 -4 -63 -20 -81c-25 -15 -52 -21 -84 -21c-95 0 -125 46 -110 161l34 264h-143c0 25 7 56 16 73z" />
    <glyph glyph-name="upsilon" unicode="&#x3c5;" horiz-adv-x="533" 
d="M102 483h17c73 0 110 -30 102 -106c-6 -59 -26 -114 -35 -179c-16 -111 32 -143 97 -143c80 0 129 51 141 186c9 104 -4 180 -29 233c10 7 23 12 42 12c18 0 29 -3 36 -9c21 -42 36 -104 36 -183c0 -20 -1 -40 -3 -62c-13 -146 -68 -252 -230 -252
c-94 0 -177 33 -177 164c0 17 1 35 4 55c9 64 30 104 38 167c5 37 -8 48 -39 48h-18c1 23 8 50 18 69z" />
    <glyph glyph-name="phi" unicode="&#x3c6;" horiz-adv-x="703" 
d="M165 266c-18 -130 28 -199 144 -210l27 218c19 155 67 228 187 228c114 0 165 -73 165 -195c0 -16 -1 -33 -3 -51c-18 -180 -108 -270 -303 -276l-24 -209c-8 -4 -21 -7 -43 -7c-21 0 -34 3 -42 7l27 212c-146 12 -222 85 -222 222c0 18 1 37 4 58c12 92 47 163 97 214
c8 5 21 9 38 9c18 0 33 -5 39 -13c-50 -57 -79 -121 -91 -207zM421 303l-31 -249c140 6 203 72 216 209c11 113 -18 170 -88 170c-52 0 -85 -33 -97 -130z" />
    <glyph glyph-name="chi" unicode="&#x3c7;" horiz-adv-x="438" 
d="M208 58h-5c-21 -51 -49 -103 -78 -150l-83 -136c-9 -6 -28 -8 -50 -8c-19 0 -35 2 -42 10l242 386l-14 137c-12 115 -39 122 -96 122h-8c0 22 8 55 20 68h5c101 0 138 -29 153 -196l8 -87h4c22 58 52 112 86 169l62 107c8 5 22 7 37 7c24 0 43 -7 52 -12l-225 -363
l18 -136c15 -116 33 -147 110 -147h4c4 -5 7 -13 7 -30c0 -21 -4 -33 -10 -41h-9c-148 0 -163 52 -188 300z" />
    <glyph glyph-name="psi" unicode="&#x3c8;" horiz-adv-x="715" 
d="M181 479c11 -40 14 -87 7 -152l-10 -90c-15 -132 43 -177 150 -183l68 555c18 11 51 16 78 16l-66 -571c124 6 187 60 202 198c11 98 -3 171 -20 223c9 7 22 11 42 11c18 0 29 -3 35 -8c15 -42 27 -97 27 -168c0 -20 -1 -42 -3 -65c-16 -162 -94 -259 -290 -265l-24 -209
c-8 -5 -24 -7 -43 -7s-33 2 -42 7l26 209c-172 8 -243 90 -222 254l12 93c6 49 5 99 -4 148c10 7 22 11 40 11c15 0 30 -2 37 -7z" />
    <glyph glyph-name="omega" unicode="&#x3c9;" horiz-adv-x="756" 
d="M462 364l-18 -166c-13 -117 32 -145 83 -145c65 0 110 48 121 164c9 101 -8 197 -41 257c9 8 22 12 42 12c17 0 29 -3 35 -9c27 -49 49 -122 49 -213c0 -18 -1 -37 -3 -57c-11 -123 -58 -227 -195 -227c-77 0 -127 32 -139 103h-4c-29 -72 -79 -103 -150 -103
c-118 0 -158 89 -158 197c0 24 2 48 5 73c14 104 52 176 92 228c10 5 21 8 37 8c19 0 33 -5 40 -12c-36 -53 -73 -134 -86 -225c-18 -131 15 -196 87 -196c47 0 94 28 108 144l19 152c23 11 43 15 76 15z" />
    <glyph glyph-name="iotadieresis" unicode="&#x3ca;" horiz-adv-x="271" 
d="M216 478l-39 -357c-6 -51 9 -63 42 -63c21 0 40 6 56 16c4 -25 -5 -60 -18 -76c-18 -12 -42 -18 -71 -18c-82 0 -105 53 -95 133l46 365c9 5 20 7 40 7c19 0 32 -2 39 -7zM99 674c27 0 46 -15 46 -48c0 -31 -21 -51 -51 -51c-27 0 -45 16 -45 48s19 51 50 51zM293 674
c27 0 46 -15 46 -48c0 -31 -21 -51 -51 -51c-27 0 -45 16 -45 48s19 51 50 51z" />
    <glyph glyph-name="upsilondieresis" unicode="&#x3cb;" horiz-adv-x="533" 
d="M102 483h17c73 0 110 -30 102 -106c-6 -59 -26 -114 -35 -179c-16 -111 32 -143 97 -143c80 0 129 51 141 186c9 104 -4 180 -29 233c10 7 23 12 42 12c18 0 29 -3 36 -9c21 -42 36 -104 36 -183c0 -20 -1 -40 -3 -62c-13 -146 -68 -252 -230 -252
c-94 0 -177 33 -177 164c0 17 1 35 4 55c9 64 30 104 38 167c5 37 -8 48 -39 48h-18c1 23 8 50 18 69zM437 674c27 0 46 -15 46 -48c0 -31 -21 -51 -51 -51c-27 0 -45 16 -45 48s19 51 50 51zM243 674c27 0 46 -15 46 -48c0 -31 -21 -51 -51 -51c-27 0 -45 16 -45 48
s19 51 50 51z" />
    <glyph glyph-name="omicrontonos" unicode="&#x3cc;" horiz-adv-x="523" 
d="M319 502c117 0 192 -76 192 -221c0 -72 -18 -157 -58 -213c-37 -52 -99 -88 -183 -88c-126 0 -194 79 -194 217c0 65 15 135 44 188c38 69 106 117 199 117zM316 430c-58 0 -101 -31 -125 -80c-21 -42 -30 -107 -30 -148c0 -98 38 -148 114 -148c54 0 88 25 112 62
c27 41 39 103 39 161c0 96 -38 153 -110 153zM480 716l-128 -173c-23 3 -41 18 -49 37l104 162c27 2 56 -5 73 -26z" />
    <glyph glyph-name="upsilontonos" unicode="&#x3cd;" horiz-adv-x="533" 
d="M474 716l-128 -173c-23 3 -41 18 -49 37l104 162c27 2 56 -5 73 -26zM102 483h17c73 0 110 -30 102 -106c-6 -59 -26 -114 -35 -179c-16 -111 32 -143 97 -143c80 0 129 51 141 186c9 104 -4 180 -29 233c10 7 23 12 42 12c18 0 29 -3 36 -9c21 -42 36 -104 36 -183
c0 -20 -1 -40 -3 -62c-13 -146 -68 -252 -230 -252c-94 0 -177 33 -177 164c0 17 1 35 4 55c9 64 30 104 38 167c5 37 -8 48 -39 48h-18c1 23 8 50 18 69z" />
    <glyph glyph-name="omegatonos" unicode="&#x3ce;" horiz-adv-x="756" 
d="M462 364l-18 -166c-13 -117 32 -145 83 -145c65 0 110 48 121 164c9 101 -8 197 -41 257c9 8 22 12 42 12c17 0 29 -3 35 -9c27 -49 49 -122 49 -213c0 -18 -1 -37 -3 -57c-11 -123 -58 -227 -195 -227c-77 0 -127 32 -139 103h-4c-29 -72 -79 -103 -150 -103
c-118 0 -158 89 -158 197c0 24 2 48 5 73c14 104 52 176 92 228c10 5 21 8 37 8c19 0 33 -5 40 -12c-36 -53 -73 -134 -86 -225c-18 -131 15 -196 87 -196c47 0 94 28 108 144l19 152c23 11 43 15 76 15zM602 716l-128 -173c-23 3 -41 18 -49 37l104 162c27 2 56 -5 73 -26z
" />
    <glyph glyph-name="uni03D0" unicode="&#x3d0;" horiz-adv-x="552" 
d="M172 38h-4l-31 -267c-8 -5 -21 -7 -43 -7s-35 2 -43 7l93 753c20 160 95 225 216 225c122 0 190 -72 176 -199c-9 -79 -44 -134 -124 -159v-4c76 -24 135 -87 123 -207c-12 -121 -85 -199 -216 -199c-54 0 -108 13 -147 57zM303 422h15c63 0 130 33 140 129
c9 83 -24 131 -101 131c-85 0 -121 -52 -133 -156l-48 -424c23 -31 62 -49 122 -49c92 0 146 45 156 142c12 109 -54 160 -140 160h-25c1 22 5 50 14 67z" />
    <glyph glyph-name="theta1" unicode="&#x3d1;" horiz-adv-x="572" 
d="M364 749c144 0 219 -115 189 -395c-29 -270 -121 -374 -260 -374c-132 0 -201 81 -201 272c0 41 4 87 10 139c31 249 121 358 262 358zM296 52c88 0 149 89 172 287h-288c-21 -196 20 -287 116 -287zM359 680c-93 0 -149 -93 -171 -274h285c18 185 -24 274 -114 274z" />
    <glyph glyph-name="phi1" unicode="&#x3d5;" horiz-adv-x="684" 
d="M471 734l-28 -237c157 -16 231 -98 231 -230c0 -12 -1 -24 -2 -36c-14 -152 -106 -239 -287 -248l-25 -212c-8 -5 -21 -7 -43 -7s-35 2 -43 7l27 215c-155 12 -229 91 -229 223c0 17 1 36 4 55c19 140 114 228 288 235l28 219c19 11 49 15 79 16zM592 232
c10 111 -32 185 -156 199l-44 -380c126 10 190 69 200 181zM156 261c-17 -121 25 -193 153 -207l47 379c-129 -8 -186 -74 -200 -172z" />
    <glyph glyph-name="uni0400" unicode="&#x400;" horiz-adv-x="562" 
d="M242 620l-25 -228h297c3 -5 6 -16 6 -30c0 -19 -5 -37 -10 -45h-300l-26 -238h331c3 -5 6 -15 6 -32c0 -20 -4 -38 -9 -47h-423l80 695h395c3 -5 6 -16 6 -30c0 -19 -5 -37 -10 -45h-318zM279 902l176 -100c-2 -23 -11 -43 -27 -58l-196 92c7 26 25 51 47 66z" />
    <glyph glyph-name="uni0401" unicode="&#x401;" horiz-adv-x="562" 
d="M242 620l-25 -228h297c3 -5 6 -16 6 -30c0 -19 -5 -37 -10 -45h-300l-26 -238h331c3 -5 6 -15 6 -32c0 -20 -4 -38 -9 -47h-423l80 695h395c3 -5 6 -16 6 -30c0 -19 -5 -37 -10 -45h-318zM488 866c29 0 49 -16 49 -51c0 -33 -22 -54 -54 -54c-29 0 -49 17 -49 51
s21 54 54 54zM284 866c29 0 49 -16 49 -51c0 -33 -22 -54 -54 -54c-29 0 -49 17 -49 51s21 54 54 54z" />
    <glyph glyph-name="uni0402" unicode="&#x402;" horiz-adv-x="674" 
d="M580 621h-263l-22 -210c35 13 76 19 124 19c125 0 233 -42 233 -204c0 -157 -102 -238 -286 -238h-10c-13 25 -15 45 -15 75h13c125 0 209 40 209 155c0 107 -71 134 -167 134c-37 0 -75 -4 -109 -16l-34 -332c-9 -5 -22 -7 -44 -7c-24 0 -37 2 -45 7l72 617h-148
c-3 6 -6 15 -6 30c0 18 5 36 10 44h492c3 -6 6 -15 6 -30c0 -18 -5 -36 -10 -44z" />
    <glyph glyph-name="uni0403" unicode="&#x403;" horiz-adv-x="521" 
d="M244 616l-64 -612c-9 -5 -23 -7 -45 -7c-24 0 -37 2 -45 7l80 691h399c2 -4 5 -16 5 -32c0 -19 -5 -39 -10 -47h-320zM304 808l209 99c17 -16 26 -43 26 -72l-221 -91c-11 15 -16 38 -14 64z" />
    <glyph glyph-name="uni0404" unicode="&#x404;" horiz-adv-x="594" 
d="M597 602c-47 28 -87 41 -144 41c-136 0 -245 -80 -270 -251h355c3 -5 6 -16 6 -30c0 -19 -5 -37 -10 -45h-357c-3 -188 89 -259 218 -259c64 0 115 16 160 35c2 -26 -8 -62 -26 -81c-40 -19 -94 -35 -161 -35c-180 0 -280 116 -280 323c0 213 108 418 351 418
c56 0 108 -11 142 -35c14 -19 20 -56 16 -81z" />
    <glyph glyph-name="uni0405" unicode="&#x405;" horiz-adv-x="525" 
d="M511 583c-42 32 -93 58 -163 58c-80 0 -140 -33 -140 -111c0 -169 297 -94 297 -334c0 -139 -90 -219 -256 -219c-76 0 -138 17 -179 39c-17 23 -25 65 -18 99c49 -32 121 -57 200 -57c93 0 165 35 165 129c0 176 -294 103 -294 334c0 122 79 197 220 197
c60 0 112 -14 152 -44c16 -22 22 -62 16 -91z" />
    <glyph glyph-name="uni0406" unicode="&#x406;" horiz-adv-x="266" 
d="M90 4l79 687c8 5 22 7 42 7c19 0 32 -2 40 -7l-71 -687c-9 -5 -23 -7 -45 -7c-24 0 -37 2 -45 7z" />
    <glyph glyph-name="uni0407" unicode="&#x407;" horiz-adv-x="266" 
d="M90 4l79 687c8 5 22 7 42 7c19 0 32 -2 40 -7l-71 -687c-9 -5 -23 -7 -45 -7c-24 0 -37 2 -45 7zM131 866c29 0 49 -16 49 -51c0 -33 -22 -54 -54 -54c-29 0 -49 17 -49 51s21 54 54 54zM320 866c29 0 49 -16 49 -51c0 -33 -22 -54 -54 -54c-29 0 -49 17 -49 51
s21 54 54 54z" />
    <glyph glyph-name="uni0408" unicode="&#x408;" horiz-adv-x="298" 
d="M285 691l-58 -562c-18 -174 -87 -271 -219 -332c-22 16 -33 40 -35 73c107 52 151 125 166 257l64 564c8 5 22 7 42 7c19 0 32 -2 40 -7z" />
    <glyph glyph-name="uni0409" unicode="&#x409;" horiz-adv-x="993" 
d="M657 695l-30 -293c29 11 78 16 120 16c127 0 236 -41 236 -202c0 -169 -123 -222 -307 -222c-64 0 -136 7 -179 16l70 609h-236l-14 -130c-32 -299 -85 -486 -290 -509c-14 18 -18 56 -12 80c155 17 191 181 220 430l24 205h398zM619 326l-27 -249c21 -4 67 -6 98 -6
c107 0 206 22 206 141c0 104 -74 129 -167 129c-43 0 -84 -6 -110 -15z" />
    <glyph glyph-name="uni040A" unicode="&#x40a;" horiz-adv-x="996" 
d="M660 691l-30 -289c29 11 78 16 120 16c127 0 236 -41 236 -202c0 -169 -123 -222 -307 -222c-64 0 -136 7 -179 16l36 311h-324l-33 -317c-9 -5 -22 -7 -45 -7c-22 0 -36 2 -44 7l79 687c8 5 22 7 42 7c19 0 32 -2 39 -7l-31 -293h326l34 293c8 5 21 7 41 7
c19 0 32 -2 40 -7zM622 326l-27 -249c21 -4 67 -6 98 -6c107 0 206 22 206 141c0 104 -74 129 -167 129c-43 0 -84 -6 -110 -15z" />
    <glyph glyph-name="uni040B" unicode="&#x40b;" horiz-adv-x="688" 
d="M575 621h-258l-22 -216c38 15 85 23 136 23c140 0 208 -54 208 -186c0 -15 -1 -34 -3 -51l-18 -187c-9 -5 -22 -7 -44 -7c-24 0 -37 2 -45 7l21 186c12 105 -13 161 -137 161c-49 0 -91 -7 -126 -21l-34 -326c-9 -5 -22 -7 -44 -7c-24 0 -37 2 -45 7l72 617h-148
c-3 6 -6 15 -6 30c0 18 5 36 10 44h487c3 -6 6 -15 6 -30c0 -18 -5 -36 -10 -44z" />
    <glyph glyph-name="uni040C" unicode="&#x40c;" horiz-adv-x="627" 
d="M90 4l79 687c8 5 22 7 42 7c19 0 32 -2 40 -7l-31 -301h66c88 0 125 30 153 106l23 63c38 104 81 147 164 147h10c2 -4 5 -15 5 -30c0 -19 -5 -36 -9 -43h-7c-39 0 -59 -17 -91 -108l-20 -56c-26 -74 -62 -103 -115 -118v-4c50 -20 73 -48 108 -129l93 -213
c-8 -6 -23 -8 -48 -8c-24 0 -42 3 -53 8l-77 191c-38 95 -63 118 -152 118h-58l-32 -310c-9 -5 -23 -7 -45 -7c-24 0 -37 2 -45 7zM320 808l209 99c17 -16 26 -43 26 -72l-221 -91c-11 15 -16 38 -14 64z" />
    <glyph glyph-name="uni040D" unicode="&#x40d;" horiz-adv-x="698" 
d="M528 3l71 623h-4c-18 -47 -51 -108 -80 -151l-316 -473c-12 -4 -28 -7 -54 -7c-27 0 -43 3 -55 7l79 689c7 5 19 7 40 7c18 0 29 -2 36 -7l-67 -616h4c20 56 55 115 87 162l308 453c12 4 26 7 53 7s40 -3 53 -7l-71 -687c-8 -4 -23 -6 -44 -6c-20 0 -33 2 -40 6zM351 902
l176 -100c-2 -23 -11 -43 -27 -58l-196 92c7 26 25 51 47 66z" />
    <glyph glyph-name="uni040E" unicode="&#x40e;" horiz-adv-x="548" 
d="M278 185l-164 505c9 5 22 8 43 8c20 0 34 -3 44 -8l100 -309c13 -40 25 -86 31 -131h4c11 45 29 99 46 133l154 307c10 5 26 8 46 8c21 0 36 -3 43 -8l-283 -552c-53 -104 -101 -161 -199 -161c-29 0 -51 5 -70 12c-14 23 -18 60 -14 87c24 -12 46 -19 78 -19
c55 0 86 21 119 85zM305 908c3 -75 35 -97 84 -97c55 0 92 29 110 95c25 0 43 -5 59 -19c-24 -88 -80 -135 -173 -135c-91 0 -142 46 -144 131c16 15 37 23 64 25z" />
    <glyph glyph-name="uni040F" unicode="&#x40f;" horiz-adv-x="680" 
d="M251 691l-64 -610h328l69 610c8 5 22 7 42 7c19 0 32 -2 39 -7l-70 -691h-212l-19 -189c-7 -4 -21 -7 -40 -7c-21 0 -33 3 -41 7l23 189h-216l80 691c8 5 22 7 42 7c19 0 32 -2 39 -7z" />
    <glyph glyph-name="uni0410" unicode="&#x410;" horiz-adv-x="611" 
d="M511 5l-45 196h-269l-88 -196c-9 -6 -25 -8 -46 -8c-20 0 -36 2 -43 8l308 692c11 3 30 6 55 6c24 0 42 -3 52 -6l163 -692c-8 -6 -22 -8 -43 -8c-19 0 -36 2 -44 8zM228 276h223l-45 194c-12 51 -23 116 -28 176h-5c-16 -60 -38 -125 -61 -178z" />
    <glyph glyph-name="uni0411" unicode="&#x411;" horiz-adv-x="608" 
d="M588 619h-346l-22 -218c31 11 81 16 125 16c132 0 246 -41 246 -201c0 -169 -127 -222 -317 -222c-67 0 -139 7 -184 16l80 685h422c3 -5 6 -15 6 -30c0 -19 -5 -38 -10 -46zM212 325l-27 -248c21 -4 69 -6 103 -6c112 0 215 21 215 141c0 102 -77 128 -175 128
c-46 0 -88 -6 -116 -15z" />
    <glyph glyph-name="uni0412" unicode="&#x412;" horiz-adv-x="611" 
d="M468 367v-5c72 -19 123 -68 123 -162c0 -148 -127 -205 -283 -205c-89 0 -155 3 -218 11l79 680c51 11 98 18 168 18c148 0 246 -51 246 -173c0 -73 -36 -143 -115 -164zM212 322l-26 -244c33 -4 76 -5 121 -5c93 0 196 23 196 129c0 81 -60 120 -162 120h-129zM243 622
l-24 -224h126c81 0 152 36 152 120c0 78 -62 111 -165 111c-29 0 -61 -2 -89 -7z" />
    <glyph glyph-name="uni0413" unicode="&#x413;" horiz-adv-x="521" 
d="M244 616l-64 -612c-9 -5 -23 -7 -45 -7c-24 0 -37 2 -45 7l80 691h399c2 -4 5 -16 5 -32c0 -19 -5 -39 -10 -47h-320z" />
    <glyph glyph-name="uni0414" unicode="&#x414;" horiz-adv-x="679" 
d="M636 695l-62 -614h79l-27 -270c-7 -4 -21 -7 -40 -7c-21 0 -33 3 -41 7l23 189h-496l-19 -189c-7 -4 -21 -7 -40 -7c-21 0 -33 3 -41 7l32 270h51c129 152 175 315 194 493l13 121h374zM488 79l62 544h-219l-5 -45c-26 -232 -78 -367 -187 -499h349z" />
    <glyph glyph-name="uni0415" unicode="&#x415;" horiz-adv-x="562" 
d="M242 620l-25 -228h297c3 -5 6 -16 6 -30c0 -19 -5 -37 -10 -45h-300l-26 -238h331c3 -5 6 -15 6 -32c0 -20 -4 -38 -9 -47h-423l80 695h395c3 -5 6 -16 6 -30c0 -19 -5 -37 -10 -45h-318z" />
    <glyph glyph-name="uni0416" unicode="&#x416;" horiz-adv-x="930" 
d="M421 4l36 310h-37c-84 0 -116 -21 -169 -110l-119 -199c-11 -5 -29 -8 -53 -8c-25 0 -40 2 -48 8l137 219c55 89 86 107 139 127v4c-48 14 -80 42 -94 121l-11 64c-15 80 -24 93 -65 93h-4c-2 4 -5 15 -5 30c0 19 5 36 9 43h11c77 0 111 -27 132 -144l12 -67
c14 -79 41 -106 130 -106h43l35 302c8 5 22 7 41 7s32 -2 40 -7l-31 -302h40c90 0 125 31 153 107l23 63c36 101 80 147 163 147h10c2 -4 5 -15 5 -30c0 -19 -5 -36 -9 -43h-7c-39 0 -62 -24 -91 -106l-20 -57c-26 -73 -62 -104 -115 -119v-4c49 -20 74 -48 109 -130
l91 -212c-8 -6 -23 -8 -48 -8c-24 0 -42 3 -53 8l-75 192c-36 93 -63 117 -150 117h-34l-32 -310c-9 -5 -23 -7 -45 -7c-23 0 -36 2 -44 7z" />
    <glyph glyph-name="uni0417" unicode="&#x417;" horiz-adv-x="566" 
d="M410 364v-4c77 -22 119 -75 119 -164c0 -151 -117 -219 -284 -219c-68 0 -132 12 -174 30c-14 26 -19 58 -16 88c44 -23 119 -38 189 -38c107 0 195 34 195 139c0 89 -61 128 -171 128h-79c-3 5 -6 16 -6 30c0 19 5 38 10 46h76c101 0 185 31 185 134
c0 82 -59 108 -135 108c-64 0 -126 -18 -173 -49c-2 23 7 63 23 82c44 28 103 43 171 43c121 0 204 -50 204 -169c0 -83 -41 -162 -134 -185z" />
    <glyph glyph-name="uni0418" unicode="&#x418;" horiz-adv-x="698" 
d="M528 3l71 623h-4c-18 -47 -51 -108 -80 -151l-316 -473c-12 -4 -28 -7 -54 -7c-27 0 -43 3 -55 7l79 689c7 5 19 7 40 7c18 0 29 -2 36 -7l-67 -616h4c20 56 55 115 87 162l308 453c12 4 26 7 53 7s40 -3 53 -7l-71 -687c-8 -4 -23 -6 -44 -6c-20 0 -33 2 -40 6z" />
    <glyph glyph-name="uni0419" unicode="&#x419;" horiz-adv-x="698" 
d="M528 3l71 623h-4c-18 -47 -51 -108 -80 -151l-316 -473c-12 -4 -28 -7 -54 -7c-27 0 -43 3 -55 7l79 689c7 5 19 7 40 7c18 0 29 -2 36 -7l-67 -616h4c20 56 55 115 87 162l308 453c12 4 26 7 53 7s40 -3 53 -7l-71 -687c-8 -4 -23 -6 -44 -6c-20 0 -33 2 -40 6zM350 908
c3 -75 35 -97 84 -97c55 0 92 29 110 95c25 0 43 -5 59 -19c-24 -88 -80 -135 -173 -135c-91 0 -142 46 -144 131c16 15 37 23 64 25z" />
    <glyph glyph-name="uni041A" unicode="&#x41a;" horiz-adv-x="627" 
d="M90 4l79 687c8 5 22 7 42 7c19 0 32 -2 40 -7l-31 -301h66c88 0 125 30 153 106l23 63c38 104 81 147 164 147h10c2 -4 5 -15 5 -30c0 -19 -5 -36 -9 -43h-7c-39 0 -59 -17 -91 -108l-20 -56c-26 -74 -62 -103 -115 -118v-4c50 -20 73 -48 108 -129l93 -213
c-8 -6 -23 -8 -48 -8c-24 0 -42 3 -53 8l-77 191c-38 95 -63 118 -152 118h-58l-32 -310c-9 -5 -23 -7 -45 -7c-24 0 -37 2 -45 7z" />
    <glyph glyph-name="uni041B" unicode="&#x41b;" horiz-adv-x="689" 
d="M674 695l-70 -691c-9 -5 -22 -7 -45 -7c-22 0 -36 2 -44 7l68 615h-252l-14 -130c-32 -299 -85 -486 -290 -509c-14 18 -18 56 -12 80c155 17 191 181 220 430l24 205h415z" />
    <glyph glyph-name="uni041C" unicode="&#x41c;" horiz-adv-x="811" 
d="M647 4l70 633h-4c-17 -55 -51 -143 -72 -192l-190 -447c-10 -4 -24 -6 -45 -6c-19 0 -32 2 -41 6l-96 449c-12 57 -25 131 -31 189h-4l-64 -633c-7 -4 -21 -6 -40 -6c-18 0 -33 2 -40 6l79 687c12 4 32 7 62 7c31 0 47 -3 60 -7l92 -427c13 -59 29 -136 35 -198h4
c15 62 44 146 68 201l182 424c14 4 31 7 63 7s49 -3 61 -7l-69 -686c-8 -5 -21 -7 -41 -7c-19 0 -32 2 -39 7z" />
    <glyph glyph-name="uni041D" unicode="&#x41d;" horiz-adv-x="690" 
d="M515 4l37 317h-340l-33 -317c-9 -5 -22 -7 -45 -7c-22 0 -36 2 -44 7l79 687c8 5 22 7 42 7c19 0 32 -2 39 -7l-31 -293h341l33 293c9 5 22 7 42 7c19 0 32 -2 40 -7l-71 -687c-9 -5 -23 -7 -45 -7s-36 2 -44 7z" />
    <glyph glyph-name="uni041E" unicode="&#x41e;" horiz-adv-x="696" 
d="M91 298c0 214 98 420 326 420c162 0 266 -107 266 -322c0 -193 -83 -419 -329 -419c-168 0 -263 108 -263 321zM410 640c-171 0 -230 -183 -230 -337c0 -159 63 -245 180 -245c177 0 234 193 234 337c0 156 -64 245 -184 245z" />
    <glyph glyph-name="uni041F" unicode="&#x41f;" horiz-adv-x="680" 
d="M506 4l69 614h-332l-64 -614c-9 -5 -22 -7 -45 -7c-22 0 -36 2 -44 7l80 691h495l-70 -691c-9 -5 -22 -7 -45 -7c-22 0 -36 2 -44 7z" />
    <glyph glyph-name="uni0420" unicode="&#x420;" horiz-adv-x="563" 
d="M331 240c-48 0 -94 4 -126 10l-26 -246c-9 -5 -23 -7 -45 -7c-24 0 -37 2 -45 7l79 680c48 13 93 21 163 21c164 0 263 -68 263 -222c0 -146 -92 -243 -263 -243zM243 619l-31 -293c30 -6 65 -9 113 -9c112 0 182 50 182 161c0 109 -68 151 -173 151
c-34 0 -66 -4 -91 -10z" />
    <glyph glyph-name="uni0421" unicode="&#x421;" horiz-adv-x="583" 
d="M549 95c2 -28 -7 -65 -27 -84c-40 -20 -88 -34 -158 -34c-176 0 -276 116 -276 323c0 213 108 418 348 418c56 0 105 -11 141 -33c14 -20 21 -58 14 -85c-45 26 -85 40 -141 40c-193 0 -273 -156 -273 -329c0 -179 84 -251 214 -251c62 0 116 16 158 35z" />
    <glyph glyph-name="uni0422" unicode="&#x422;" horiz-adv-x="530" 
d="M577 618h-200l-64 -614c-9 -5 -23 -7 -45 -7c-24 0 -37 2 -45 7l71 614h-199c-3 6 -6 16 -6 31c0 19 5 38 10 46h482c3 -6 6 -16 6 -31c0 -19 -5 -38 -10 -46z" />
    <glyph glyph-name="uni0423" unicode="&#x423;" horiz-adv-x="548" 
d="M278 185l-164 505c9 5 22 8 43 8c20 0 34 -3 44 -8l100 -309c13 -40 25 -86 31 -131h4c11 45 29 99 46 133l154 307c10 5 26 8 46 8c21 0 36 -3 43 -8l-283 -552c-53 -104 -101 -161 -199 -161c-29 0 -51 5 -70 12c-14 23 -18 60 -14 87c24 -12 46 -19 78 -19
c55 0 86 21 119 85z" />
    <glyph glyph-name="uni0424" unicode="&#x424;" horiz-adv-x="721" 
d="M70 322c0 196 123 306 318 316l11 91c8 6 20 8 39 8s32 -2 39 -8l-9 -92c161 -12 257 -93 257 -262c0 -182 -113 -307 -316 -318l-10 -91c-8 -5 -23 -8 -45 -8s-36 3 -44 8l11 93c-162 12 -251 98 -251 263zM640 373c0 120 -64 182 -181 193l-45 -434
c152 10 226 111 226 241zM382 567c-135 -8 -227 -85 -227 -237c0 -121 58 -185 177 -196z" />
    <glyph glyph-name="uni0425" unicode="&#x425;" horiz-adv-x="572" 
d="M222 689l95 -191c11 -22 22 -51 28 -74h4c10 23 27 55 42 75l136 190c9 6 26 9 47 9s36 -3 44 -9l-235 -330l175 -354c-7 -6 -22 -8 -44 -8c-24 0 -39 2 -50 8l-110 227c-11 23 -21 48 -27 72h-4c-11 -23 -27 -51 -44 -74l-162 -225c-10 -6 -28 -8 -51 -8
c-21 0 -39 2 -46 8l267 369l-152 315c8 6 20 9 43 9c21 0 34 -3 44 -9z" />
    <glyph glyph-name="uni0426" unicode="&#x426;" horiz-adv-x="701" 
d="M251 691l-64 -610h321l69 610c8 5 22 7 42 7c19 0 32 -2 39 -7l-62 -610h79l-27 -270c-7 -4 -21 -7 -40 -7c-21 0 -33 3 -41 7l23 189h-500l80 691c8 5 22 7 42 7c19 0 32 -2 39 -7z" />
    <glyph glyph-name="uni0427" unicode="&#x427;" horiz-adv-x="615" 
d="M439 4l31 270c-52 -19 -103 -28 -155 -28c-126 0 -208 48 -208 179c0 18 2 42 4 60l25 206c8 5 22 7 41 7s32 -2 40 -7l-21 -205c-1 -14 -3 -29 -3 -46c0 -77 37 -112 143 -112c53 0 93 8 143 26l39 337c8 5 22 7 42 7c19 0 32 -2 40 -7l-71 -687c-9 -5 -23 -7 -45 -7
c-24 0 -37 2 -45 7z" />
    <glyph glyph-name="uni0428" unicode="&#x428;" horiz-adv-x="961" 
d="M250 691l-63 -611h261l70 611c8 5 21 7 41 7c18 0 30 -2 38 -7l-63 -611h262l69 611c8 5 22 7 42 7c19 0 32 -2 39 -7l-70 -691h-786l79 691c8 5 22 7 42 7c19 0 31 -2 39 -7z" />
    <glyph glyph-name="uni0429" unicode="&#x429;" horiz-adv-x="974" 
d="M251 691l-64 -611h254l70 611c8 5 21 7 41 7c18 0 30 -2 38 -7l-63 -611h254l69 611c8 5 22 7 42 7c19 0 32 -2 39 -7l-62 -610h79l-27 -270c-7 -4 -21 -7 -40 -7c-21 0 -33 3 -41 7l23 189h-773l80 691c8 5 22 7 42 7c19 0 31 -2 39 -7z" />
    </font>
</defs>
</svg>
