<?xml version="1.0" standalone="no"?>
<!DOCTYPE svg PUBLIC "-//W3C//DTD SVG 1.1//EN" "http://www.w3.org/Graphics/SVG/1.1/DTD/svg11.dtd" >
<svg xmlns="http://www.w3.org/2000/svg" width="100%" height="100%">
<metadata>
Created by FontXChange 20110222 at Mon Jun  4 13:41:13 2018
 By Suzi Rubino

</metadata>
<defs>
<font id="tisaBolIt" horiz-adv-x="570" >
  <font-face 
    font-family="tisaBolIt"
    font-weight="700"
    font-style="italic"
    font-stretch="normal"
    units-per-em="1000"
    panose-1="2 1 8 4 4 1 1 2 1 2"
    ascent="729"
    descent="-271"
    x-height="483"
    cap-height="709"
    bbox="-578 -342 1586 1162"
    underline-thickness="70"
    underline-position="-130"
    slope="-6.5"
    stemh="99"
    stemv="151"
    unicode-range="U+000D-FEFF"
  />
<missing-glyph horiz-adv-x="736" 
d="M69 0l75 723h518l-64 -723h-529zM340 498l5 45c8 4 23 7 34 7c30 0 40 -18 40 -36c0 -70 -134 -103 -134 -197c0 -29 17 -60 35 -77c26 3 65 20 82 36c-9 13 -15 30 -15 48c0 64 153 87 153 208c0 63 -51 97 -137 97c-51 0 -112 -12 -154 -26c-4 -39 -5 -91 0 -126
c22 0 70 10 91 21zM347 212c-37 0 -67 -26 -67 -62c0 -43 22 -65 67 -65c36 0 63 25 63 65c0 41 -25 62 -63 62z" />
    <glyph glyph-name="f_b" unicode="fb" horiz-adv-x="912" 
d="M391 18l77 617c-26 8 -57 12 -82 12c-74 0 -148 -37 -158 -130l-4 -34h131c3 -25 1 -73 -4 -99h-138l-52 -526c-20 -4 -53 -7 -82 -7c-22 0 -46 2 -62 7l65 526h-81c4 31 18 71 29 90c18 8 42 16 63 20l4 23c26 155 146 222 297 222c57 0 151 -11 218 -37l-12 -124
c-4 -46 -20 -116 -33 -159h15c16 43 59 81 133 81c70 0 147 -54 147 -188c0 -86 -30 -190 -81 -246c-50 -54 -119 -83 -200 -83c-60 0 -131 16 -190 35zM570 337l-28 -252c10 -4 26 -6 40 -6c31 0 68 14 88 38c31 36 45 105 45 169c0 72 -16 110 -55 110
c-33 0 -70 -28 -90 -59z" />
    <glyph glyph-name="f_f" unicode="ff" horiz-adv-x="728" 
d="M584 483h131c3 -25 1 -73 -4 -99h-138l-52 -526c-20 -4 -53 -7 -82 -7c-22 0 -46 2 -62 7l65 526h-229l-38 -380c-20 -4 -51 -7 -80 -7c-22 0 -45 3 -60 7l47 380h-81c4 31 18 71 29 90c18 8 42 16 63 20l5 32c22 144 111 201 216 201c32 0 77 -7 127 -24
c0 -40 -16 -105 -34 -143c-34 0 -83 14 -107 29l6 46c-6 2 -11 3 -18 3c-28 0 -51 -32 -59 -109l-5 -46h228l8 55c20 139 115 201 222 201c33 0 78 -7 129 -24c0 -40 -16 -105 -34 -143c-34 0 -83 14 -107 29l6 46c-5 2 -10 3 -15 3c-31 0 -61 -33 -70 -109z" />
    <glyph glyph-name="f_f_b" unicode="ffb" horiz-adv-x="1272" 
d="M751 18l77 617c-26 8 -57 12 -82 12c-74 0 -148 -37 -158 -130l-4 -34h131c3 -25 1 -73 -4 -99h-138l-52 -526c-20 -4 -53 -7 -82 -7c-22 0 -46 2 -62 7l64 526h-228l-38 -380c-20 -4 -51 -7 -80 -7c-22 0 -45 3 -60 7l47 380h-81c4 31 18 71 29 90c18 8 42 16 63 20
l5 32c22 144 111 201 216 201c32 0 77 -7 127 -24c0 -40 -16 -105 -34 -143c-34 0 -83 14 -107 29l6 46c-6 2 -11 3 -18 3c-28 0 -51 -32 -59 -109l-5 -46h227l6 34c25 155 146 222 297 222c57 0 151 -11 218 -37l-12 -124c-4 -46 -20 -116 -33 -159h15c16 43 59 81 133 81
c70 0 147 -54 147 -188c0 -86 -30 -190 -81 -246c-50 -54 -119 -83 -200 -83c-60 0 -131 16 -190 35zM930 337l-28 -252c10 -4 26 -6 40 -6c31 0 68 14 88 38c31 36 45 105 45 169c0 72 -16 110 -55 110c-33 0 -70 -28 -90 -59z" />
    <glyph glyph-name="f_f_h" unicode="ffh" horiz-adv-x="1291" 
d="M976 700l-13 -120c-5 -51 -18 -109 -34 -162h15c28 44 70 82 141 82c65 0 130 -33 130 -138c0 -57 -20 -175 -31 -251c0 -5 3 -15 4 -17l73 7c0 -24 -14 -69 -27 -90c-34 -14 -113 -28 -154 -28c-19 18 -46 68 -46 92c13 69 37 209 37 261c0 37 -13 62 -45 62
c-37 0 -73 -41 -93 -73l-35 -321c-22 -4 -54 -7 -85 -7c-24 0 -47 2 -64 7l85 628c-27 9 -58 14 -83 14c-76 0 -152 -36 -163 -129l-4 -34h131c3 -25 1 -73 -4 -99h-138l-52 -526c-20 -4 -53 -7 -82 -7c-22 0 -46 2 -62 7l65 526h-229l-38 -380c-20 -4 -51 -7 -80 -7
c-22 0 -45 3 -60 7l47 380h-81c4 31 18 71 29 90c18 8 42 16 63 20l5 32c22 144 111 201 216 201c32 0 77 -7 127 -24c0 -40 -16 -105 -34 -143c-34 0 -83 14 -107 29l6 46c-6 2 -11 3 -18 3c-28 0 -51 -32 -59 -109l-5 -46h228l5 34c23 155 148 222 301 222
c56 0 153 -12 218 -39z" />
    <glyph glyph-name="f_f_i" unicode="ffi" horiz-adv-x="1024" 
d="M229 529l-5 -46h227l6 36c23 149 146 220 305 220c63 0 147 -10 215 -35c0 -42 -16 -114 -35 -154c-38 0 -96 14 -122 29l6 54c-22 8 -51 13 -79 13c-75 0 -149 -40 -159 -127l-4 -36h115c3 -25 1 -73 -4 -99h-122l-52 -526c-20 -4 -53 -7 -82 -7c-22 0 -46 2 -62 7
l65 526h-229l-38 -380c-20 -4 -51 -7 -80 -7c-22 0 -45 3 -60 7l47 380h-81c4 31 18 71 29 90c18 8 42 16 63 20l5 32c22 144 111 201 216 201c32 0 77 -7 127 -24c0 -40 -16 -105 -34 -143c-34 0 -83 14 -107 29l6 46c-6 2 -11 3 -18 3c-28 0 -51 -32 -59 -109zM809 385
l-67 -6c0 18 12 74 25 87c30 18 80 28 126 28c17 0 43 -4 61 -9l-44 -374c0 -5 3 -15 4 -17l70 7c0 -24 -14 -69 -27 -90c-34 -14 -110 -28 -152 -28c-19 18 -46 68 -46 92z" />
    <glyph glyph-name="f_f_j" unicode="ffj" horiz-adv-x="1007" 
d="M229 529l-5 -46h227l6 36c25 149 146 220 305 220c63 0 147 -10 215 -35c0 -42 -16 -114 -35 -154c-38 0 -96 14 -122 29l6 54c-22 8 -51 13 -79 13c-75 0 -149 -40 -159 -127l-4 -36h115c3 -25 1 -73 -4 -99h-122l-38 -380c-20 -4 -51 -7 -80 -7c-22 0 -44 2 -60 7
l47 380h-229l-52 -526c-20 -4 -53 -7 -82 -7c-22 0 -46 2 -62 7l65 526h-81c4 31 18 71 29 90c18 8 42 16 63 20l5 32c22 144 111 201 216 201c32 0 77 -7 127 -24c0 -40 -16 -105 -34 -143c-34 0 -83 14 -107 29l6 46c-6 2 -11 3 -18 3c-28 0 -51 -32 -59 -109zM711 -237
c-25 11 -57 36 -71 60c58 60 118 167 134 286l37 276l-67 -6c0 18 12 74 25 87c30 18 80 28 126 28c17 0 43 -4 61 -9l-38 -339c-17 -158 -100 -285 -207 -383z" />
    <glyph glyph-name="f_f_k" unicode="ffk" horiz-adv-x="1251" 
d="M967 699l-47 -444c54 34 109 78 148 120c0 6 -2 14 -4 18l-64 -3c3 27 18 72 35 87c30 11 105 17 137 17c16 -14 45 -75 45 -102c-38 -47 -85 -100 -156 -147c27 -56 68 -120 94 -155l59 7c0 -25 -13 -74 -27 -100c-30 -11 -81 -18 -117 -21c-41 48 -87 133 -120 207
c-9 -5 -28 -14 -38 -18l-17 -161c-22 -4 -54 -7 -85 -7c-24 0 -47 2 -64 7l78 628c-26 9 -56 14 -80 14c-73 0 -146 -36 -156 -129l-4 -34h131c3 -25 1 -73 -4 -99h-138l-52 -526c-20 -4 -53 -7 -82 -7c-22 0 -46 2 -62 7l64 526h-228l-38 -380c-20 -4 -51 -7 -80 -7
c-22 0 -45 3 -60 7l47 380h-81c4 31 18 71 29 90c18 8 42 16 63 20l5 32c22 144 111 201 216 201c32 0 77 -7 127 -24c0 -40 -16 -105 -34 -143c-34 0 -83 14 -107 29l6 46c-6 2 -11 3 -18 3c-28 0 -51 -32 -59 -109l-5 -46h227l6 34c25 155 145 222 295 222
c55 0 151 -13 215 -40z" />
    <glyph glyph-name="f_f_l" unicode="ffl" horiz-adv-x="1013" 
d="M584 483h131c3 -25 1 -73 -4 -99h-138l-52 -526c-20 -4 -53 -7 -82 -7c-22 0 -46 2 -62 7l65 526h-229l-38 -380c-20 -4 -51 -7 -80 -7c-22 0 -45 3 -60 7l47 380h-81c4 31 18 71 29 90c18 8 42 16 63 20l5 32c22 144 111 201 216 201c32 0 77 -7 127 -24
c0 -40 -16 -105 -34 -143c-34 0 -83 14 -107 29l6 46c-6 2 -11 3 -18 3c-28 0 -51 -32 -59 -109l-5 -46h227l6 34c28 154 146 222 297 222c55 0 151 -10 215 -37l-67 -591c0 -5 3 -15 4 -17l70 7c0 -24 -14 -69 -27 -90c-34 -14 -110 -28 -152 -28c-19 18 -46 68 -46 92
l76 559c-26 8 -56 12 -81 12c-74 0 -148 -36 -158 -129z" />
    <glyph glyph-name="f_h" unicode="fh" horiz-adv-x="931" 
d="M616 700l-13 -120c-5 -51 -18 -109 -34 -162h15c28 44 70 82 141 82c65 0 130 -33 130 -138c0 -57 -20 -175 -31 -251c0 -5 3 -15 4 -17l73 7c0 -24 -14 -69 -27 -90c-34 -14 -113 -28 -154 -28c-19 18 -46 68 -46 92c13 69 37 209 37 261c0 37 -13 62 -45 62
c-37 0 -73 -41 -93 -73l-35 -321c-22 -4 -54 -7 -85 -7c-24 0 -47 2 -64 7l85 628c-27 9 -58 14 -83 14c-76 0 -153 -36 -163 -129l-4 -34h131c3 -25 1 -73 -4 -99h-138l-52 -526c-20 -4 -53 -7 -82 -7c-22 0 -46 2 -62 7l65 526h-81c4 31 18 71 29 90c18 8 42 16 63 20
l4 23c26 155 148 222 301 222c56 0 153 -12 218 -39z" />
    <glyph glyph-name="f_i" unicode="fi" horiz-adv-x="664" 
d="M449 385l-67 -6c0 18 12 74 25 87c30 18 80 28 126 28c17 0 43 -4 61 -9l-44 -374c0 -5 3 -15 4 -17l70 7c0 -24 -14 -69 -27 -90c-34 -14 -110 -28 -152 -28c-19 18 -46 68 -46 92zM82 384h-81c4 31 18 71 29 90c18 8 42 16 63 20l4 25c24 149 146 220 305 220
c63 0 147 -10 215 -35c0 -42 -16 -114 -35 -154c-38 0 -96 14 -122 29l6 54c-22 8 -51 13 -79 13c-75 0 -149 -40 -159 -127l-4 -36h115c3 -25 1 -73 -4 -99h-122l-52 -526c-20 -4 -53 -7 -82 -7c-22 0 -46 2 -62 7z" />
    <glyph glyph-name="f_iacute" unicode="f&#xed;" horiz-adv-x="662" 
d="M224 483h119c3 -25 1 -73 -4 -99h-126l-52 -526c-20 -4 -53 -7 -82 -7c-22 0 -46 2 -62 7l65 526h-81c4 31 18 71 29 90c18 8 42 16 63 20l6 44c20 144 113 201 218 201c32 0 76 -7 126 -24c0 -40 -16 -105 -34 -143c-34 0 -83 14 -107 29l6 46c-6 2 -10 3 -17 3
c-26 0 -53 -35 -61 -109zM449 385l-70 -6c0 18 12 74 25 87c31 18 81 28 128 28c17 0 44 -4 62 -9l-47 -374c0 -5 3 -15 4 -17l73 7c0 -24 -14 -69 -27 -90c-34 -14 -109 -28 -150 -28c-19 18 -46 68 -46 92zM734 728l-205 -180c-24 9 -55 36 -65 56l141 169
c37 0 107 -19 129 -45z" />
    <glyph glyph-name="f_j" unicode="fj" horiz-adv-x="647" 
d="M351 -237c-25 11 -57 36 -71 60c58 60 118 167 134 286l37 276l-67 -6c0 18 12 74 25 87c30 18 80 28 126 28c17 0 43 -4 61 -9l-38 -339c-17 -158 -100 -285 -207 -383zM82 384h-81c4 31 18 71 29 90c18 8 42 16 63 20l4 25c24 149 146 220 305 220
c63 0 147 -10 215 -35c0 -42 -16 -114 -35 -154c-38 0 -96 14 -122 29l6 54c-22 8 -51 13 -79 13c-75 0 -149 -40 -159 -127l-4 -36h115c3 -25 1 -73 -4 -99h-122l-38 -380c-20 -4 -51 -7 -80 -7c-22 0 -44 2 -60 7z" />
    <glyph glyph-name="f_k" unicode="fk" horiz-adv-x="891" 
d="M607 699l-47 -444c54 34 109 78 148 120c0 6 -2 14 -4 18l-64 -3c3 27 18 72 35 87c30 11 105 17 137 17c16 -14 45 -75 45 -102c-38 -47 -85 -100 -156 -147c27 -56 68 -120 94 -155l59 7c0 -25 -13 -74 -27 -100c-30 -11 -81 -18 -117 -21c-41 48 -87 133 -120 207
c-9 -5 -28 -14 -38 -18l-17 -161c-22 -4 -54 -7 -85 -7c-24 0 -47 2 -64 7l78 628c-26 9 -56 14 -80 14c-73 0 -146 -36 -156 -129l-4 -34h131c3 -25 1 -73 -4 -99h-138l-52 -526c-20 -4 -53 -7 -82 -7c-22 0 -46 2 -62 7l65 526h-81c4 31 18 71 29 90c18 8 42 16 63 20
l4 23c25 155 145 222 295 222c55 0 151 -13 215 -40z" />
    <glyph glyph-name="f_l" unicode="fl" horiz-adv-x="653" 
d="M224 483h131c3 -25 1 -73 -4 -99h-138l-52 -526c-20 -4 -53 -7 -82 -7c-22 0 -46 2 -62 7l65 526h-81c4 31 18 71 29 90c18 8 42 16 63 20l4 23c26 155 146 222 297 222c55 0 151 -10 215 -37l-67 -591c0 -5 3 -15 4 -17l70 7c0 -24 -14 -69 -27 -90
c-34 -14 -110 -28 -152 -28c-19 18 -46 68 -46 92l76 559c-26 8 -56 12 -81 12c-74 0 -148 -36 -158 -129z" />
    <glyph glyph-name=".notdef" horiz-adv-x="736" 
d="M69 0l75 723h518l-64 -723h-529zM340 498l5 45c8 4 23 7 34 7c30 0 40 -18 40 -36c0 -70 -134 -103 -134 -197c0 -29 17 -60 35 -77c26 3 65 20 82 36c-9 13 -15 30 -15 48c0 64 153 87 153 208c0 63 -51 97 -137 97c-51 0 -112 -12 -154 -26c-4 -39 -5 -91 0 -126
c22 0 70 10 91 21zM347 212c-37 0 -67 -26 -67 -62c0 -43 22 -65 67 -65c36 0 63 25 63 65c0 41 -25 62 -63 62z" />
    <glyph glyph-name=".null" horiz-adv-x="0" 
 />
    <glyph glyph-name=".null" horiz-adv-x="0" 
 />
    <glyph glyph-name="CR" unicode="&#xd;" horiz-adv-x="199" 
 />
    <glyph glyph-name="space" unicode=" " horiz-adv-x="199" 
 />
    <glyph glyph-name="exclam" unicode="!" horiz-adv-x="291" 
d="M260 712l-83 -487c-13 -3 -32 -5 -52 -5c-21 0 -40 2 -53 5l7 467c33 11 84 23 135 23c14 0 33 -1 46 -3zM108 152c49 0 82 -29 82 -84s-35 -88 -82 -88c-56 0 -85 30 -85 88c0 49 37 84 85 84z" />
    <glyph glyph-name="quotedbl" unicode="&#x22;" horiz-adv-x="423" 
d="M316 417c-29 0 -61 5 -86 11c16 86 33 206 41 288c40 0 91 -7 123 -16c-8 -74 -49 -212 -78 -283zM103 417c-29 0 -61 5 -86 11c16 86 33 206 41 288c40 0 91 -7 123 -16c-8 -74 -49 -212 -78 -283z" />
    <glyph glyph-name="numbersign" unicode="#" horiz-adv-x="659" 
d="M582 134h-101l-31 -131c-15 -4 -41 -6 -66 -6c-24 0 -50 2 -63 6l37 131h-137l-32 -131c-14 -4 -41 -6 -65 -6c-25 0 -50 2 -63 6l37 131h-100c4 26 17 64 28 86h96l34 119h-106c4 27 18 64 28 86h101l31 112c29 7 78 12 115 12l-29 -124h144l30 112c30 7 80 12 116 12
l-29 -124h94c0 -21 -8 -65 -16 -86h-100l-30 -119h93c0 -21 -8 -65 -16 -86zM271 341l-31 -124h144l34 124h-147z" />
    <glyph glyph-name="dollar" unicode="$" horiz-adv-x="540" 
d="M333 417l5 47c-13 5 -29 8 -45 8c-43 0 -64 -21 -64 -53c0 -92 242 -58 242 -234c0 -113 -73 -176 -176 -198l-10 -85c-13 -4 -41 -5 -65 -5s-49 1 -65 5l10 81c-52 6 -102 21 -143 46c-1 9 -1 17 -1 26c0 43 11 87 23 115c43 0 98 -7 134 -20l-7 -62
c19 -10 47 -15 70 -15c50 0 77 23 77 66c0 100 -244 64 -244 233c0 97 64 163 167 181l9 74c29 8 86 14 128 14l-11 -87c43 -6 86 -20 120 -39c0 -39 -11 -95 -26 -128c-45 0 -99 12 -128 30z" />
    <glyph glyph-name="percent" unicode="%" horiz-adv-x="960" 
d="M241 562c97 0 153 -49 153 -146c0 -117 -83 -188 -204 -188c-98 0 -152 47 -152 141c0 116 80 193 203 193zM226 476c-45 0 -68 -46 -68 -97c0 -42 17 -66 48 -66c43 0 66 45 66 98c0 40 -13 65 -46 65zM756 546l-456 -595c-30 6 -79 40 -94 59l438 562
c33 -1 82 -12 112 -26zM759 314c97 0 153 -49 153 -146c0 -117 -83 -188 -204 -188c-98 0 -152 47 -152 141c0 116 80 193 203 193zM744 228c-45 0 -68 -46 -68 -97c0 -42 17 -66 48 -66c43 0 66 45 66 98c0 40 -13 65 -46 65z" />
    <glyph glyph-name="ampersand" unicode="&#x26;" horiz-adv-x="823" 
d="M458 135c-57 68 -121 128 -186 179c-50 -31 -82 -75 -82 -132c0 -75 54 -104 123 -104c61 0 108 22 145 57zM338 425c44 27 67 70 67 117c0 53 -28 73 -54 73c-28 0 -70 -22 -70 -89c0 -43 18 -73 57 -101zM597 406l194 16c-1 -24 -16 -71 -29 -91
c-12 -6 -36 -12 -54 -15c-18 -58 -46 -120 -85 -174c11 -12 25 -28 37 -44c23 -2 48 -6 68 -13c6 -20 11 -62 11 -85h-177c-12 21 -28 43 -42 60c-61 -49 -137 -80 -230 -80c-118 0 -243 49 -243 179c0 102 77 182 165 206v9c-43 25 -72 69 -72 134c0 135 127 196 223 196
c81 0 178 -44 178 -148c0 -86 -66 -163 -140 -181v-9c47 -37 100 -85 149 -137c24 49 42 120 47 177z" />
    <glyph glyph-name="quotesingle" unicode="'" horiz-adv-x="210" 
d="M103 417c-29 0 -61 5 -86 11c16 86 33 206 41 288c40 0 91 -7 123 -16c-8 -74 -49 -212 -78 -283z" />
    <glyph glyph-name="parenleft" unicode="(" horiz-adv-x="324" 
d="M138 -219c-52 149 -73 290 -73 413c0 186 47 368 151 569c29 15 99 27 140 27c-96 -184 -149 -419 -149 -625c0 -117 15 -237 45 -340c-28 -17 -82 -36 -114 -44z" />
    <glyph glyph-name="parenright" unicode=")" horiz-adv-x="307" 
d="M-31 -178c98 194 139 413 139 630c0 112 -10 215 -34 307c27 19 76 38 116 41c43 -128 60 -272 60 -391c0 -209 -48 -388 -171 -631c-34 7 -85 26 -110 44z" />
    <glyph glyph-name="asterisk" unicode="*" horiz-adv-x="445" 
d="M344 406l-62 62c-12 12 -27 27 -34 40l-7 -5c5 -15 8 -41 8 -56l2 -85c-15 -4 -39 -6 -55 -6c-13 0 -42 2 -57 6l22 85c4 15 16 42 22 52l-6 6c-10 -10 -32 -28 -42 -37l-72 -59c-17 20 -38 70 -41 99l78 25c15 5 44 14 58 17l1 8c-14 1 -41 11 -54 16l-68 26
c6 28 33 81 55 103l63 -52c12 -10 29 -30 34 -39l8 5c-5 14 -9 38 -9 53v76c27 7 79 11 107 11l-18 -87c-3 -15 -14 -41 -25 -55l8 -6c13 14 31 30 45 40l74 52c17 -20 41 -61 52 -88l-94 -39c-14 -6 -40 -13 -56 -15l-1 -8c16 -1 40 -9 53 -14l83 -29
c-12 -29 -51 -83 -72 -102z" />
    <glyph glyph-name="plus" unicode="+" 
d="M344 325h179c4 -16 7 -48 7 -76c0 -12 -1 -23 -2 -32h-184v-194c-13 -4 -40 -7 -65 -7c-26 0 -53 3 -70 7v194h-189c0 31 8 80 17 108h172v185c33 8 93 12 135 12v-197z" />
    <glyph glyph-name="comma" unicode="," horiz-adv-x="218" 
d="M44 13l-53 12c11 32 36 76 56 96c14 5 37 7 54 7c31 0 75 -6 103 -15c-31 -105 -106 -250 -157 -321c-23 7 -64 26 -74 38c27 60 56 128 71 183z" />
    <glyph glyph-name="hyphen" unicode="-" horiz-adv-x="343" 
d="M285 220h-269c3 36 13 81 25 112h253c1 -8 1 -16 1 -25c0 -28 -3 -62 -10 -87z" />
    <glyph glyph-name="period" unicode="." horiz-adv-x="281" 
d="M130 175c53 0 89 -32 89 -91c0 -60 -38 -96 -89 -96c-61 0 -93 32 -93 96c0 53 40 91 93 91z" />
    <glyph glyph-name="slash" unicode="/" horiz-adv-x="454" 
d="M515 747l-426 -932c-32 6 -95 33 -116 49l418 898c37 0 91 -6 124 -15z" />
    <glyph glyph-name="zero" unicode="0" horiz-adv-x="625" 
d="M340 559c152 0 238 -83 238 -248c0 -200 -128 -331 -321 -331c-154 0 -236 82 -236 246c0 200 126 333 319 333zM320 464c-96 0 -146 -111 -146 -230c0 -99 35 -158 103 -158c91 0 149 107 149 231c0 97 -35 157 -106 157z" />
    <glyph glyph-name="one" unicode="1" horiz-adv-x="449" 
d="M139 111l36 319l-136 -19c7 38 17 75 32 100c45 16 145 43 261 48l-46 -448c31 -3 82 -14 106 -23c1 -7 2 -18 2 -30c0 -21 -2 -45 -5 -58h-382c7 26 21 63 35 85c23 10 71 22 97 26z" />
    <glyph glyph-name="two" unicode="2" horiz-adv-x="546" 
d="M185 355c-33 -17 -85 -26 -125 -27c-2 20 -4 42 -4 65c0 40 4 81 14 115c63 28 138 51 229 51c112 0 198 -33 198 -127c0 -134 -183 -246 -288 -309v-12c84 3 186 9 269 20c-1 -35 -11 -100 -21 -131h-435l-6 96c88 71 319 194 319 304c0 39 -23 59 -64 59
c-28 0 -58 -8 -75 -18z" />
    <glyph glyph-name="three" unicode="3" horiz-adv-x="531" 
d="M190 448l-8 -64c-29 -17 -85 -27 -124 -29c-9 56 -6 105 6 161c70 27 156 43 222 43c102 0 199 -44 199 -144c0 -81 -71 -150 -139 -170v-9c67 -13 118 -54 118 -131c0 -143 -162 -222 -314 -222c-50 0 -109 9 -151 23c-10 21 -18 59 -18 86c0 7 1 16 2 21
c49 -16 123 -26 167 -26c72 0 151 28 151 96c0 66 -57 95 -189 95c0 26 9 69 19 96c91 4 194 37 194 121c0 46 -33 65 -69 65c-20 0 -50 -6 -66 -12z" />
    <glyph glyph-name="four" unicode="4" horiz-adv-x="569" 
d="M437 67l-15 -163c-19 -5 -42 -7 -68 -7c-29 0 -57 2 -75 7l16 163h-292l-13 74c93 139 213 285 340 418l149 -23l-33 -363h75c1 -8 2 -19 2 -31c0 -25 -3 -54 -8 -75h-78zM306 172l13 141c2 25 11 72 19 98h-12c-61 -63 -137 -165 -180 -233v-12c25 4 60 6 85 6h75z" />
    <glyph glyph-name="five" unicode="5" horiz-adv-x="523" 
d="M99 542h394c-4 -41 -12 -82 -28 -126c-85 5 -169 8 -255 10l-16 -133c20 6 42 8 67 8c111 0 194 -50 194 -170c0 -164 -159 -248 -308 -248c-48 0 -99 8 -137 19c-11 21 -18 57 -18 84c0 7 1 15 2 21c45 -11 106 -19 144 -19c85 0 161 39 161 128c0 62 -37 86 -105 86
c-34 0 -86 -6 -154 -20z" />
    <glyph glyph-name="six" unicode="6" horiz-adv-x="567" 
d="M195 361h12c26 31 65 52 127 52c115 0 177 -76 177 -182c0 -146 -120 -251 -271 -251c-139 0 -211 91 -211 253c0 248 170 420 365 420c46 0 82 -8 116 -28c9 -20 16 -60 16 -89c0 -8 -1 -17 -2 -23c-32 19 -96 35 -137 35c-65 0 -157 -41 -192 -187zM184 273
c-3 -21 -5 -45 -5 -68c0 -80 28 -129 80 -129c63 0 105 70 105 146c0 61 -28 91 -79 91c-36 0 -74 -16 -101 -40z" />
    <glyph glyph-name="seven" unicode="7" horiz-adv-x="539" 
d="M507 539l13 -92c-130 -180 -234 -355 -296 -540c-25 -5 -50 -7 -78 -7c-32 0 -60 3 -83 8c76 199 175 342 303 500v12h-212c-8 -26 -25 -67 -37 -89c-28 0 -83 10 -106 21l32 187h464z" />
    <glyph glyph-name="eight" unicode="8" horiz-adv-x="568" 
d="M170 321v9c-54 25 -91 61 -91 133c0 132 124 190 243 190c99 0 202 -39 202 -147c0 -85 -64 -142 -122 -154v-9c62 -25 109 -69 109 -151c0 -140 -133 -212 -273 -212c-96 0 -216 36 -216 164c0 96 68 167 148 177zM246 286c-44 -22 -77 -65 -77 -122
c0 -68 45 -92 89 -92c47 0 106 27 106 94c0 64 -50 87 -118 120zM322 387c35 25 59 66 59 107c0 56 -43 73 -77 73c-33 0 -89 -17 -89 -74c0 -51 44 -76 107 -106z" />
    <glyph glyph-name="nine" unicode="9" 
d="M362 180h-12c-29 -31 -65 -53 -129 -53c-120 0 -179 80 -179 186c0 145 113 246 264 246c141 0 214 -90 214 -257c0 -238 -145 -419 -353 -419c-48 0 -100 12 -138 31c-10 20 -20 59 -20 89c0 7 1 15 2 20c39 -18 107 -31 149 -31c69 0 161 35 202 188zM374 277
c3 19 4 37 4 53c0 84 -31 135 -86 135c-63 0 -105 -66 -105 -141c0 -62 28 -97 75 -97c43 0 83 20 112 50z" />
    <glyph glyph-name="colon" unicode=":" horiz-adv-x="254" 
d="M148 507c53 0 88 -31 88 -88c0 -60 -37 -94 -88 -94c-59 0 -90 31 -90 94c0 52 38 88 90 88zM116 175c53 0 89 -32 89 -91c0 -60 -38 -96 -89 -96c-61 0 -93 32 -93 96c0 53 40 91 93 91z" />
    <glyph glyph-name="semicolon" unicode=";" horiz-adv-x="266" 
d="M155 507c53 0 88 -31 88 -88c0 -60 -37 -94 -88 -94c-59 0 -90 31 -90 94c0 52 38 88 90 88zM57 13l-53 12c11 32 36 76 56 96c14 5 37 7 54 7c31 0 75 -6 103 -15c-31 -105 -106 -250 -157 -321c-23 7 -64 26 -74 38c27 60 56 128 71 183z" />
    <glyph glyph-name="less" unicode="&#x3c;" 
d="M487 457l-261 -180v-12l247 -174c-10 -25 -50 -77 -74 -93l-323 234l5 79l308 226c31 -17 78 -56 98 -80z" />
    <glyph glyph-name="equal" unicode="=" 
d="M503 313h-454c0 31 8 79 16 107h433c4 -16 7 -47 7 -75c0 -12 -1 -23 -2 -32zM503 117h-454c0 31 8 79 16 107h433c4 -16 7 -47 7 -75c0 -12 -1 -23 -2 -32z" />
    <glyph glyph-name="greater" unicode="&#x3e;" 
d="M484 233l-322 -238c-25 15 -67 66 -77 92l247 173v12l-261 180c23 25 69 64 101 78l307 -220z" />
    <glyph glyph-name="question" unicode="?" horiz-adv-x="508" 
d="M213 619l-8 -88c-30 -17 -83 -27 -117 -29c-2 23 -3 49 -3 75c0 37 2 75 6 111c57 20 155 38 221 38c114 0 187 -49 187 -132c0 -164 -215 -196 -215 -298c0 -19 6 -42 16 -58c-26 -18 -76 -38 -113 -41c-22 25 -39 65 -39 100c0 129 192 171 192 276c0 27 -17 59 -65 59
c-17 0 -40 -4 -62 -13zM236 152c49 0 82 -29 82 -84s-35 -88 -82 -88c-56 0 -85 30 -85 88c0 49 37 84 85 84z" />
    <glyph glyph-name="at" unicode="@" horiz-adv-x="1011" 
d="M719 439l-67 -292c1 -10 4 -23 8 -31c136 29 195 157 195 267c0 167 -142 247 -293 247c-239 0 -419 -203 -419 -443c0 -195 117 -324 318 -324c81 0 183 25 258 65c13 -14 34 -54 39 -75c-97 -58 -219 -86 -326 -86c-254 0 -408 161 -408 404c0 306 246 553 560 553
c215 0 387 -117 387 -328c0 -187 -125 -381 -413 -396c-10 16 -18 47 -21 67h-9c-29 -35 -72 -67 -135 -67c-74 0 -130 52 -130 166c0 81 31 172 84 235c47 55 118 92 204 92c69 0 131 -24 168 -54zM527 153l52 242c-9 3 -25 5 -33 5c-44 0 -73 -23 -96 -53
c-33 -44 -48 -102 -48 -151c0 -65 15 -87 47 -87c27 0 60 17 78 44z" />
    <glyph glyph-name="A" unicode="A" horiz-adv-x="755" 
d="M723 0h-304c4 24 20 68 32 91c17 6 46 13 62 16c-12 18 -20 43 -27 66l-8 28h-237l-13 -33c-7 -17 -23 -47 -36 -65c21 -2 48 -7 65 -12c6 -23 12 -68 12 -91h-284c6 31 20 65 32 90c13 6 33 12 49 15l307 614h108l183 -611c16 -3 38 -9 51 -15c6 -27 8 -65 8 -93z
M401 573h-12c-6 -40 -31 -111 -45 -143l-60 -136h172l-35 136c-8 30 -20 102 -20 143z" />
    <glyph glyph-name="B" unicode="B" horiz-adv-x="672" 
d="M508 380v-9c74 -21 122 -72 122 -149c0 -167 -158 -229 -312 -229c-92 0 -227 5 -309 10c3 25 17 70 27 90c17 6 46 12 67 15l44 496c-20 2 -48 6 -63 10c-2 22 1 72 6 93c91 7 183 13 262 13c155 0 270 -55 270 -177c0 -72 -46 -142 -114 -163zM272 320l-18 -227
c21 -3 46 -4 65 -4c101 0 158 36 158 121c0 76 -59 110 -142 110h-63zM293 622l-15 -207h60c83 0 134 30 134 110c0 67 -51 101 -137 101c-10 0 -30 -2 -42 -4z" />
    <glyph glyph-name="C" unicode="C" horiz-adv-x="637" 
d="M472 517l9 98c-19 10 -41 15 -66 15c-124 0 -218 -121 -218 -304c0 -160 71 -229 180 -229c50 0 134 14 197 38c0 -28 -16 -76 -33 -102c-58 -30 -136 -53 -211 -53c-183 0 -294 132 -294 330c0 251 182 419 396 419c73 0 142 -19 194 -47c-6 -60 -21 -143 -36 -194
c-37 0 -90 13 -118 29z" />
    <glyph glyph-name="D" unicode="D" horiz-adv-x="736" 
d="M102 110l43 487c-19 2 -48 6 -63 9c-2 22 1 73 6 94c72 9 205 18 271 18c213 0 352 -98 352 -312c0 -274 -175 -414 -363 -414c-98 0 -246 4 -340 13c3 25 16 70 27 90c16 6 46 12 67 15zM292 615l-38 -519c19 -3 47 -5 68 -5c141 0 237 103 237 293
c0 161 -85 236 -213 236c-15 0 -38 -2 -54 -5z" />
    <glyph glyph-name="E" unicode="E" horiz-adv-x="639" 
d="M563 0h-559c3 25 16 70 27 90c15 6 49 13 69 16l44 499c-20 2 -49 7 -63 12c-2 22 0 71 6 92h528l-17 -181c-33 0 -80 5 -109 15c-3 18 -5 51 -5 72h-194l-14 -207h155c2 11 8 31 12 44c29 9 73 15 108 15l-14 -205c-33 -3 -79 -1 -107 8c-3 12 -5 34 -5 46h-156
l-17 -220h189c4 26 12 58 21 81c27 9 83 15 116 15z" />
    <glyph glyph-name="F" unicode="F" horiz-adv-x="581" 
d="M265 298l-12 -192c30 -2 72 -8 96 -14c6 -22 4 -71 -1 -92h-343c3 25 16 70 26 90c15 6 50 13 69 16l40 499c-20 2 -49 7 -63 12c-3 22 -1 71 5 92h509l-16 -190c-33 0 -82 7 -110 17c-3 18 -7 57 -7 79h-172l-14 -225h134c2 12 7 34 13 48c28 9 72 16 107 16l-17 -216
c-33 -3 -80 -1 -107 9c-2 13 -4 37 -5 51h-132z" />
    <glyph glyph-name="G" unicode="G" horiz-adv-x="733" 
d="M622 261l-20 -231c-58 -20 -184 -50 -274 -50c-188 0 -289 125 -289 316c0 249 171 433 416 433c84 0 152 -21 215 -62c-5 -50 -21 -137 -37 -182c-36 0 -97 15 -117 27l10 102c-24 13 -57 20 -86 20c-131 0 -239 -129 -239 -327c0 -158 67 -223 181 -223c24 0 58 3 83 6
l18 170c-31 0 -89 4 -121 11c-5 25 -8 63 -8 90h358c-2 -24 -11 -65 -21 -90c-17 -4 -52 -9 -69 -10z" />
    <glyph glyph-name="H" unicode="H" horiz-adv-x="823" 
d="M550 311h-278l-16 -205c23 -2 52 -8 70 -14c4 -22 2 -71 -4 -92h-316c4 25 17 70 28 90c15 6 50 13 69 16l47 499c-20 2 -49 7 -63 12c-2 22 1 71 7 92h278c2 -20 -4 -71 -11 -92c-16 -5 -48 -10 -66 -11l-14 -196h279l18 195c-18 2 -44 7 -57 12c-1 22 1 71 8 92h277
c1 -6 1 -11 1 -13c0 -24 -4 -62 -11 -79c-18 -5 -53 -10 -73 -11l-39 -500c25 -2 57 -8 77 -14c4 -22 2 -71 -4 -92h-315c4 25 16 70 26 90c14 6 45 13 63 16z" />
    <glyph glyph-name="I" unicode="I" horiz-adv-x="394" 
d="M328 0h-323c4 25 17 70 28 90c15 6 49 13 69 16l47 499c-20 2 -49 7 -63 12c-2 22 1 71 7 92h286c1 -6 1 -11 1 -13c0 -24 -4 -62 -11 -79c-18 -5 -53 -10 -73 -11l-41 -500c25 -2 57 -8 77 -14c3 -22 2 -71 -4 -92z" />
    <glyph glyph-name="J" unicode="J" horiz-adv-x="361" 
d="M288 606l-27 -364c-15 -198 -119 -344 -298 -425c-17 18 -36 55 -40 80c119 67 173 182 185 319l34 389c-27 2 -63 7 -82 12c-3 22 1 71 7 92h303c1 -6 1 -11 1 -13c0 -24 -4 -62 -11 -79c-17 -5 -53 -10 -72 -11z" />
    <glyph glyph-name="K" unicode="K" horiz-adv-x="742" 
d="M282 405h61l117 148c12 17 34 41 51 53c-16 2 -40 7 -50 10c-5 25 -4 69 -1 93h279c-4 -27 -16 -72 -27 -99c-19 -4 -45 -6 -62 -7l-199 -235l185 -265l64 4c-2 -32 -20 -82 -36 -107c-35 -9 -95 -18 -139 -20l-209 333h-40l-17 -207c23 -2 51 -8 69 -14
c4 -22 2 -71 -4 -92h-316c4 25 17 70 28 90c15 6 51 13 69 16l47 499c-20 2 -49 7 -63 12c-2 22 1 71 7 92h278c2 -20 -4 -71 -11 -92c-16 -5 -47 -10 -65 -11z" />
    <glyph glyph-name="L" unicode="L" horiz-adv-x="628" 
d="M104 106l47 499c-20 2 -49 7 -63 12c-2 22 1 71 7 92h313c2 -20 -4 -71 -12 -92c-23 -5 -73 -10 -100 -11l-40 -508h192c5 27 17 76 24 98c31 11 88 17 120 17l-19 -213h-566c4 25 17 70 28 90c16 6 49 13 69 16z" />
    <glyph glyph-name="M" unicode="M" horiz-adv-x="965" 
d="M381 -11l-105 429c-10 43 -19 122 -19 174h-12l-41 -487c19 -2 46 -8 62 -14c3 -22 1 -70 -5 -91h-256c4 25 16 70 25 90c14 6 42 13 58 16l47 499c-18 2 -45 7 -58 12c-2 22 1 71 7 92h263l94 -361c13 -49 21 -139 21 -193h12c7 50 32 135 51 176l173 378h254
c1 -6 1 -11 1 -13c0 -24 -4 -62 -11 -79c-18 -5 -53 -10 -73 -11l-42 -504c23 -2 55 -7 76 -12c5 -20 1 -71 -2 -90h-297c3 25 15 70 25 90c16 6 43 13 62 16l46 490h-12c-14 -58 -35 -133 -58 -186l-178 -421h-108z" />
    <glyph glyph-name="N" unicode="N" horiz-adv-x="772" 
d="M334 709l169 -390c18 -41 31 -101 35 -151h12l41 437c-24 2 -56 7 -73 12c-2 22 1 71 8 92h244c1 -6 1 -11 1 -13c0 -24 -4 -62 -11 -79c-15 -5 -49 -10 -66 -11l-52 -614h-160l-182 433c-17 40 -34 103 -37 146h-12l-37 -465c23 -2 53 -8 71 -14c4 -22 2 -71 -4 -92
h-276c4 25 16 70 25 90c16 6 47 13 64 16l47 499c-20 2 -49 7 -63 12c-2 22 1 71 7 92h249z" />
    <glyph glyph-name="O" unicode="O" horiz-adv-x="712" 
d="M407 729c173 0 280 -111 280 -327c0 -252 -145 -422 -364 -422c-178 0 -276 112 -276 321c0 249 143 428 360 428zM391 631c-125 0 -187 -158 -187 -323c0 -144 48 -229 138 -229c118 0 190 148 190 321c0 144 -49 231 -141 231z" />
    <glyph glyph-name="P" unicode="P" horiz-adv-x="623" 
d="M104 106l40 496c-19 0 -48 3 -64 6c-3 23 1 70 4 97c58 7 189 14 253 14c181 0 288 -51 288 -195c0 -175 -142 -256 -284 -256c-27 0 -59 3 -75 7l-12 -169c31 -2 74 -8 99 -14c5 -22 4 -71 -2 -92h-343c4 25 16 70 27 90c16 6 48 13 69 16zM286 620l-14 -250
c14 -3 52 -6 71 -6c73 0 134 45 134 139c0 81 -50 120 -140 120c-14 0 -40 -1 -51 -3z" />
    <glyph glyph-name="Q" unicode="Q" horiz-adv-x="746" 
d="M407 729c173 0 282 -111 282 -327c0 -143 -47 -255 -126 -327v-9c44 -44 117 -105 140 -108l87 10c0 -39 -20 -92 -38 -124c-14 -7 -56 -16 -70 -16c-53 0 -167 103 -228 175c-40 -15 -84 -23 -131 -23c-178 0 -278 112 -278 321c0 249 145 428 362 428zM391 631
c-125 0 -189 -158 -189 -323c0 -144 50 -229 140 -229c118 0 192 148 192 321c0 144 -51 231 -143 231z" />
    <glyph glyph-name="R" unicode="R" horiz-adv-x="690" 
d="M103 106l46 494c-19 0 -49 3 -64 7c-2 23 2 70 6 97c77 10 187 15 276 15c149 0 260 -59 260 -191c0 -103 -69 -182 -157 -212c45 -103 101 -191 128 -212l53 6c0 -31 -14 -80 -29 -104c-29 -9 -98 -20 -130 -22c-32 26 -114 180 -157 308c-26 0 -52 3 -68 7l-14 -193
c23 -2 53 -8 71 -14c4 -22 2 -71 -4 -92h-314c4 25 17 70 28 90c15 6 51 13 69 16zM292 619l-17 -227c18 -4 52 -6 77 -6c65 0 127 41 127 121c0 74 -53 116 -132 116c-19 0 -40 -2 -55 -4z" />
    <glyph glyph-name="S" unicode="S" horiz-adv-x="584" 
d="M408 540l8 82c-23 12 -42 16 -64 16c-67 0 -108 -39 -108 -90c0 -131 294 -115 294 -323c0 -182 -138 -245 -298 -245c-67 0 -148 11 -212 37c5 55 20 145 35 198c31 0 91 -7 121 -18l-9 -104c31 -12 63 -21 99 -21c71 0 120 36 120 105c0 136 -291 104 -291 328
c0 137 94 224 257 224c62 0 139 -13 198 -35c-4 -48 -21 -130 -38 -179c-32 0 -84 11 -112 25z" />
    <glyph glyph-name="T" unicode="T" horiz-adv-x="627" 
d="M415 615l-37 -509c31 -2 71 -8 95 -14c5 -22 3 -71 -2 -92h-359c3 25 19 69 30 89c20 6 59 14 83 17l45 509h-102c-4 -21 -14 -61 -21 -81c-36 -12 -80 -14 -114 -14l16 189h608l-16 -192c-38 0 -82 4 -114 14c-4 22 -7 60 -6 84h-106z" />
    <glyph glyph-name="U" unicode="U" horiz-adv-x="717" 
d="M258 606l-24 -331c-1 -12 -1 -24 -1 -35c0 -105 38 -159 126 -159c108 0 156 82 166 194l28 330c-19 2 -45 7 -59 12c-2 22 0 71 7 92h238c1 -6 1 -11 1 -13c0 -24 -5 -63 -11 -79c-14 -5 -45 -10 -61 -11l-24 -324c-14 -179 -108 -302 -319 -302
c-168 0 -245 80 -245 240c0 15 1 31 2 47l29 341c-19 2 -46 6 -63 11c-2 13 -3 33 -3 52c0 14 1 28 2 38h289c2 -20 -3 -71 -10 -92c-17 -5 -49 -10 -68 -11z" />
    <glyph glyph-name="V" unicode="V" horiz-adv-x="701" 
d="M352 153h12c10 45 28 101 43 138l82 206c13 33 37 80 58 110c-19 1 -48 5 -66 10c-6 21 -12 69 -12 92h273c-3 -27 -13 -73 -23 -96c-16 -4 -38 -7 -54 -8l-284 -617h-120l-162 618c-16 2 -36 7 -50 12c-6 22 -11 66 -11 91h310c-3 -25 -17 -70 -28 -96
c-15 -4 -59 -8 -75 -8c13 -26 31 -69 39 -105l48 -209c9 -38 19 -92 20 -138z" />
    <glyph glyph-name="W" unicode="W" horiz-adv-x="1007" 
d="M301 127h11c4 53 21 140 38 190l140 401h137l55 -382c7 -48 9 -143 9 -201h12c7 59 24 139 40 182l70 184c13 35 32 76 51 105c-17 1 -39 5 -55 10c-6 23 -10 68 -10 93h245c-3 -27 -13 -73 -23 -96c-15 -4 -35 -7 -51 -8l-247 -616h-128l-54 414c-5 43 -8 122 -8 172
h-12c-5 -52 -18 -123 -33 -168l-145 -419h-142l-114 618c-15 2 -35 7 -48 12c-6 25 -9 67 -9 91h290c-3 -25 -14 -70 -25 -96c-13 -4 -51 -8 -66 -8c12 -25 24 -67 30 -104l27 -173c9 -55 15 -148 15 -201z" />
    <glyph glyph-name="X" unicode="X" horiz-adv-x="726" 
d="M411 442l68 113c10 18 28 39 42 53c-13 1 -33 6 -43 10c-6 24 -10 67 -10 91h251c-3 -26 -15 -72 -27 -96c-13 -3 -38 -7 -52 -8l-179 -251l150 -248c14 -1 44 -7 63 -12c4 -22 9 -66 9 -94h-310c5 29 19 71 28 92c13 4 38 8 49 9c-16 13 -37 46 -50 69l-68 115l-65 -108
c-18 -29 -44 -56 -62 -74c15 -1 41 -6 54 -10c5 -22 9 -66 9 -93h-288c5 31 18 66 30 89c14 5 45 11 59 13l206 280l-128 222c-18 3 -42 9 -56 14c-7 26 -12 66 -12 91h311c-3 -25 -15 -70 -26 -96c-14 -4 -39 -7 -56 -8c13 -11 35 -40 45 -58z" />
    <glyph glyph-name="Y" unicode="Y" horiz-adv-x="642" 
d="M337 353h12c7 34 25 78 39 102l64 106c9 15 24 32 39 45c-15 2 -36 7 -47 12c-4 20 -9 70 -9 91h254c-3 -27 -13 -73 -23 -96c-16 -4 -36 -7 -52 -8l-227 -339l-11 -160c31 -2 71 -8 95 -14c5 -22 3 -71 -3 -92h-357c3 25 20 69 31 89c20 6 60 14 83 17l14 155l-151 345
c-15 2 -35 7 -48 12c-6 21 -7 63 -7 91h297c-3 -25 -15 -70 -24 -96c-15 -4 -43 -7 -59 -8c11 -10 23 -33 30 -51l38 -98c9 -23 21 -69 22 -103z" />
    <glyph glyph-name="Z" unicode="Z" horiz-adv-x="616" 
d="M10 0l6 89l386 513v12h-186c-4 -21 -15 -72 -22 -94c-31 -7 -85 -13 -122 -13l18 202h507l-8 -89l-375 -510v-12h204c6 28 19 74 26 98c27 11 85 18 120 18l-18 -214h-536z" />
    <glyph glyph-name="bracketleft" unicode="[" horiz-adv-x="336" 
d="M31 -212l94 996h208v-2c0 -25 -7 -66 -14 -87c-18 -4 -48 -8 -65 -9l-68 -801c21 -2 58 -8 78 -14c3 -18 -1 -63 -8 -83h-225z" />
    <glyph glyph-name="backslash" unicode="\" horiz-adv-x="425" 
d="M92 787l266 -926c-24 -14 -90 -35 -121 -38l-249 902c20 21 70 54 104 62z" />
    <glyph glyph-name="bracketright" unicode="]" horiz-adv-x="340" 
d="M277 784l-86 -996h-232c3 23 12 64 20 86c21 5 52 9 75 11l76 802c-19 1 -48 5 -63 8c-2 20 2 70 9 89h201z" />
    <glyph glyph-name="asciicircum" unicode="^" 
d="M41 379l185 306l95 10l207 -329c-23 -18 -73 -44 -105 -53l-101 165c-13 21 -35 68 -40 98h-12c-6 -28 -23 -72 -37 -95l-110 -183c-31 19 -68 58 -82 81z" />
    <glyph glyph-name="underscore" unicode="_" horiz-adv-x="500" 
d="M-3 -147h506c3 -14 6 -44 6 -71c0 -11 -1 -22 -2 -31h-526c0 29 7 75 16 102z" />
    <glyph glyph-name="grave" unicode="`" horiz-adv-x="435" 
d="M238 553l-147 182c26 21 91 42 131 42l103 -192c-19 -16 -64 -32 -87 -32z" />
    <glyph glyph-name="a" unicode="a" horiz-adv-x="539" 
d="M297 64h-9c-26 -47 -72 -81 -137 -81c-79 0 -140 56 -140 190c0 80 25 162 74 225c48 61 121 102 218 102c66 0 127 -25 167 -52l-40 -337c0 -5 3 -15 4 -17l70 7c0 -24 -14 -69 -27 -90c-34 -14 -113 -28 -154 -28c-13 23 -23 58 -26 81zM288 138l39 268
c-10 3 -25 4 -34 4c-38 0 -75 -28 -97 -61c-28 -42 -40 -115 -40 -166c0 -70 19 -94 50 -94c30 0 57 16 82 49z" />
    <glyph glyph-name="b" unicode="b" horiz-adv-x="544" 
d="M23 18l76 607l-68 -7c0 19 12 74 26 87c31 18 81 28 127 28c17 0 44 -4 62 -9l-14 -146c-4 -46 -20 -116 -33 -159h15c16 43 59 81 133 81c70 0 147 -54 147 -188c0 -86 -30 -190 -81 -246c-50 -54 -119 -83 -200 -83c-60 0 -131 16 -190 35zM202 337l-28 -252
c10 -4 26 -6 40 -6c31 0 68 14 88 38c31 36 45 105 45 169c0 72 -16 110 -55 110c-33 0 -70 -28 -90 -59z" />
    <glyph glyph-name="c" unicode="c" horiz-adv-x="481" 
d="M302 339l7 62c-8 3 -20 5 -30 5c-33 0 -61 -17 -78 -43c-30 -45 -40 -116 -40 -166c0 -68 27 -100 82 -100c51 0 120 20 162 41c0 -29 -16 -75 -33 -100c-38 -28 -93 -55 -160 -55c-133 0 -196 74 -196 192c0 88 24 174 76 236c46 54 116 89 200 89c60 0 111 -18 153 -44
c0 -47 -13 -102 -34 -147c-31 0 -84 11 -109 30z" />
    <glyph glyph-name="d" unicode="d" horiz-adv-x="547" 
d="M512 724l-71 -613c0 -5 3 -15 4 -17l70 7c0 -24 -14 -69 -27 -90c-34 -14 -113 -28 -154 -28c-13 23 -23 58 -26 81h-9c-27 -47 -74 -81 -141 -81c-84 0 -149 55 -149 187c0 79 26 164 70 227c41 59 120 103 199 103c24 0 51 -5 69 -14l19 139l-68 -7c0 19 12 74 26 87
c31 18 81 28 127 28c17 0 43 -4 61 -9zM301 137l34 265c-14 4 -23 6 -40 6c-39 0 -74 -23 -95 -55c-31 -45 -43 -117 -43 -170c0 -70 20 -94 55 -94c34 0 61 16 89 48z" />
    <glyph glyph-name="e" unicode="e" horiz-adv-x="470" 
d="M154 192v-13c0 -60 23 -80 67 -80c56 0 131 19 177 43c0 -28 -14 -74 -29 -100c-38 -29 -101 -59 -178 -59c-122 0 -180 66 -180 189c0 82 25 177 75 240c44 54 107 88 190 88c99 0 154 -48 154 -129c0 -80 -55 -164 -276 -179zM163 282c114 8 129 49 129 84
c0 26 -10 45 -35 45c-28 0 -54 -22 -70 -50c-13 -21 -21 -56 -24 -79z" />
    <glyph glyph-name="f" unicode="f" horiz-adv-x="368" 
d="M224 483h131c3 -25 1 -73 -4 -99h-138l-52 -526c-20 -4 -53 -7 -82 -7c-22 0 -46 2 -62 7l65 526h-81c4 31 18 71 29 90c18 8 42 16 63 20l6 44c20 144 116 201 223 201c33 0 78 -7 129 -24c0 -40 -16 -105 -34 -143c-34 0 -83 14 -107 29l6 46c-5 2 -10 3 -15 3
c-31 0 -61 -33 -70 -109z" />
    <glyph glyph-name="g" unicode="g" horiz-adv-x="510" 
d="M306 83h-16c-25 -52 -71 -90 -136 -90c-85 0 -146 54 -146 186c0 79 25 159 74 221c48 60 121 100 218 100c66 0 128 -25 168 -52l-46 -431c-15 -145 -72 -265 -256 -265c-46 0 -107 9 -154 24c-10 24 -16 54 -16 84c0 15 3 38 7 51c55 -33 116 -51 160 -51
c83 0 104 49 113 114c4 33 17 79 30 109zM325 406c-10 3 -26 4 -35 4c-38 0 -75 -27 -97 -59c-28 -41 -40 -112 -40 -161c0 -69 20 -90 56 -90c32 0 68 28 94 79z" />
    <glyph glyph-name="h" unicode="h" horiz-adv-x="563" 
d="M21 4l84 621l-68 -7c0 19 12 74 26 87c31 18 81 28 127 28c17 0 42 -4 60 -9l-15 -144c-5 -51 -18 -109 -34 -162h15c28 44 70 82 141 82c65 0 130 -33 130 -138c0 -57 -20 -175 -31 -251c0 -5 3 -15 4 -17l73 7c0 -24 -14 -69 -27 -90c-34 -14 -113 -28 -154 -28
c-19 18 -46 68 -46 92c13 69 37 209 37 261c0 37 -13 62 -45 62c-37 0 -73 -41 -93 -73l-35 -321c-22 -4 -54 -7 -85 -7c-24 0 -47 2 -64 7z" />
    <glyph glyph-name="i" unicode="i" horiz-adv-x="294" 
d="M79 385l-70 -6c0 18 12 74 25 87c31 18 81 28 128 28c17 0 44 -4 62 -9l-44 -374c0 -5 3 -15 4 -17l70 7c0 -24 -14 -69 -27 -90c-34 -14 -110 -28 -152 -28c-19 18 -46 68 -46 92zM170 765c50 0 84 -31 84 -86c0 -58 -36 -92 -84 -92c-56 0 -86 31 -86 92
c0 50 37 86 86 86z" />
    <glyph glyph-name="j" unicode="j" horiz-adv-x="279" 
d="M-17 -237c-25 11 -57 36 -71 60c58 60 118 167 134 286l37 276l-70 -6c0 18 12 74 25 87c31 18 81 28 128 28c17 0 44 -4 62 -9l-38 -339c-17 -158 -100 -285 -207 -383zM162 765c50 0 84 -31 84 -86c0 -58 -36 -92 -84 -92c-56 0 -86 31 -86 92c0 50 37 86 86 86z" />
    <glyph glyph-name="k" unicode="k" horiz-adv-x="523" 
d="M18 4l77 621l-68 -7c0 19 12 74 26 87c31 18 81 28 127 28c17 0 44 -4 62 -9l-50 -469c54 34 109 78 148 120c0 6 -2 14 -4 18l-64 -3c3 27 18 72 35 87c30 11 105 17 137 17c16 -14 45 -75 45 -102c-38 -47 -85 -100 -156 -147c27 -56 68 -120 94 -155l59 7
c0 -25 -13 -74 -27 -100c-30 -11 -81 -18 -117 -21c-41 48 -87 133 -120 207c-9 -5 -28 -14 -38 -18l-17 -161c-22 -4 -54 -7 -85 -7c-24 0 -47 2 -64 7z" />
    <glyph glyph-name="l" unicode="l" horiz-adv-x="285" 
d="M244 724l-70 -613c0 -5 3 -15 4 -17l70 7c0 -24 -14 -69 -27 -90c-34 -14 -110 -28 -152 -28c-19 18 -46 68 -46 92l74 550l-68 -7c0 19 12 74 26 87c31 18 81 28 127 28c17 0 44 -4 62 -9z" />
    <glyph glyph-name="m" unicode="m" horiz-adv-x="833" 
d="M298 4c23 137 43 288 43 332c0 37 -15 62 -47 62s-65 -37 -83 -68l-36 -326c-22 -4 -54 -7 -85 -7c-24 0 -47 2 -64 7l57 381l-70 -6c0 18 12 74 25 87c28 18 67 28 107 28c19 0 38 -3 56 -9l-9 -86h15c24 51 67 101 148 101c56 0 106 -27 119 -97h9c22 50 65 97 143 97
c64 0 128 -33 128 -138c0 -57 -20 -175 -31 -251c0 -5 3 -15 4 -17l73 7c0 -24 -14 -69 -27 -90c-34 -14 -113 -28 -154 -28c-19 18 -46 68 -46 92c13 69 37 209 37 261c0 37 -13 62 -44 62c-33 0 -67 -35 -86 -67l-37 -327c-22 -4 -51 -7 -82 -7c-24 0 -47 2 -63 7z" />
    <glyph glyph-name="n" unicode="n" horiz-adv-x="564" 
d="M191 399h15c25 51 68 101 152 101c65 0 130 -33 130 -138c0 -57 -20 -175 -31 -251c0 -5 3 -15 4 -17l73 7c0 -24 -14 -69 -27 -90c-34 -14 -113 -28 -154 -28c-19 18 -46 68 -46 92c13 69 37 209 37 261c0 37 -13 62 -45 62c-35 0 -70 -37 -89 -68l-36 -326
c-22 -4 -54 -7 -85 -7c-24 0 -47 2 -64 7l57 381l-70 -6c0 18 12 74 25 87c28 18 67 28 107 28c19 0 38 -3 56 -9z" />
    <glyph glyph-name="o" unicode="o" horiz-adv-x="521" 
d="M208 -17c-126 0 -192 70 -192 210c0 63 13 125 43 178c43 76 118 129 225 129c124 0 194 -70 194 -210c0 -68 -16 -137 -51 -192c-43 -68 -116 -115 -219 -115zM227 78c38 0 64 25 80 62c18 41 24 97 24 147c0 83 -17 119 -60 119c-36 0 -64 -26 -81 -64
c-20 -44 -26 -102 -26 -149c0 -82 21 -115 63 -115z" />
    <glyph glyph-name="p" unicode="p" horiz-adv-x="540" 
d="M-6 -227l82 612l-70 -6c0 18 12 74 25 87c28 18 67 28 107 28c19 0 38 -3 56 -9l-9 -86h15c30 62 79 101 153 101c80 0 144 -57 144 -192c0 -84 -25 -182 -76 -242c-41 -49 -109 -83 -186 -83c-26 0 -52 5 -71 12l-21 -222c-22 -4 -54 -7 -85 -7c-24 0 -47 2 -64 7z
M201 325l-27 -241c8 -3 24 -6 38 -6c43 0 73 13 94 39c36 44 47 119 47 176c0 79 -22 104 -60 104c-36 0 -64 -23 -92 -72z" />
    <glyph glyph-name="q" unicode="q" horiz-adv-x="529" 
d="M316 75h-16c-24 -53 -71 -92 -136 -92c-87 0 -150 55 -150 190c0 80 25 162 76 225c49 61 122 102 220 102c67 0 129 -25 169 -52l-55 -568c0 -5 3 -15 4 -17l70 7c0 -24 -14 -69 -27 -90c-34 -14 -108 -28 -149 -28c-19 18 -45 68 -45 92l10 124c2 32 17 81 29 107z
M336 406c-10 3 -26 4 -34 4c-39 0 -78 -28 -100 -61c-28 -43 -41 -116 -41 -167c0 -71 21 -93 58 -93c32 0 68 29 94 82z" />
    <glyph glyph-name="r" unicode="r" horiz-adv-x="392" 
d="M374 493c6 -17 10 -41 10 -66c0 -27 -4 -54 -11 -71c-19 11 -49 18 -71 18c-48 0 -85 -34 -106 -81l-27 -289c-21 -4 -53 -7 -84 -7c-23 0 -48 2 -64 7l51 381l-70 -6c0 18 12 74 25 87c28 18 67 28 107 28c19 0 38 -3 56 -9l-11 -106h15c17 62 53 121 131 121
c18 0 37 -3 49 -7z" />
    <glyph glyph-name="s" unicode="s" horiz-adv-x="446" 
d="M264 364l4 42c-5 3 -20 8 -31 8c-24 0 -47 -17 -47 -45c0 -68 195 -79 195 -219c0 -119 -109 -167 -219 -167c-101 0 -166 33 -170 110c21 32 85 53 135 53c3 -48 28 -74 58 -74c26 0 54 20 54 52c0 70 -189 68 -189 225c0 87 77 151 198 151c44 0 99 -12 148 -34
c-1 -36 -13 -94 -27 -130c-37 0 -87 13 -109 28z" />
    <glyph glyph-name="t" unicode="t" horiz-adv-x="379" 
d="M87 494l31 106c25 13 85 26 122 26l-17 -143h135c2 -11 2 -20 2 -31c0 -23 -2 -49 -6 -68h-144l-22 -217c-5 -45 4 -68 50 -68c29 0 59 7 93 18c0 -29 -14 -78 -33 -103c-44 -21 -89 -31 -126 -31c-94 0 -133 48 -133 127c0 50 19 181 36 274h-77c4 31 18 71 29 90
c17 8 40 16 60 20z" />
    <glyph glyph-name="u" unicode="u" horiz-adv-x="566" 
d="M225 485c-10 -74 -36 -286 -36 -338c0 -37 11 -62 40 -62c34 0 68 30 87 57l33 243l-62 -5c0 18 12 73 25 86c30 18 78 28 123 28c17 0 43 -4 60 -9l-36 -374c0 -5 3 -15 4 -17l69 7c0 -24 -14 -69 -27 -90c-34 -14 -112 -28 -153 -28c-13 23 -23 61 -26 86h-9
c-24 -42 -66 -86 -149 -86c-62 0 -126 33 -126 138c0 57 25 197 38 264l-70 -6c0 18 12 74 25 87c31 18 81 28 128 28c17 0 44 -4 62 -9z" />
    <glyph glyph-name="v" unicode="v" horiz-adv-x="494" 
d="M36 387l-61 -6c0 19 11 75 22 89c28 14 67 24 108 24c20 0 39 -3 58 -9l42 -260c5 -32 12 -88 12 -122h12c39 86 81 190 108 274c0 4 -2 12 -4 17l-70 -6c2 27 15 73 31 89c29 12 108 23 137 23c17 -13 48 -73 48 -98c-54 -135 -138 -281 -229 -427l-135 21z" />
    <glyph glyph-name="w" unicode="w" horiz-adv-x="814" 
d="M571 103c35 89 70 190 95 276c0 4 -2 12 -4 17l-63 -5c2 27 15 73 31 89c25 10 92 20 117 20c17 -13 49 -73 49 -98c-51 -128 -123 -280 -201 -427l-152 23l-34 372h-12c-35 -125 -81 -266 -129 -395l-166 23l-50 389l-61 -6c0 19 11 75 22 89c30 14 66 24 109 24
c20 0 41 -3 60 -9l24 -253c4 -38 5 -91 5 -129h12c37 120 74 251 105 380l189 13l33 -260c5 -38 9 -94 9 -133h12z" />
    <glyph glyph-name="x" unicode="x" horiz-adv-x="532" 
d="M236 489c18 -46 32 -96 54 -147h9c21 38 47 96 62 137c24 6 52 8 77 8s54 -2 77 -8c-43 -72 -121 -180 -172 -247c25 -62 58 -121 75 -141l75 10c0 -26 -11 -70 -24 -95c-30 -14 -95 -24 -136 -29c-26 21 -64 96 -87 154h-9c-30 -47 -83 -111 -123 -154
c-41 11 -87 31 -110 47c-6 16 -8 38 -8 56c0 17 2 36 5 48l62 -25c32 30 85 85 121 133c-25 55 -46 108 -63 153l-60 -9c0 20 9 72 19 88c27 17 69 26 107 26c17 0 34 -1 49 -5z" />
    <glyph glyph-name="y" unicode="y" horiz-adv-x="489" 
d="M37 392l-61 -4c0 19 13 74 24 88c28 13 67 21 107 21c19 0 38 -4 55 -10l56 -256c7 -32 15 -93 16 -128h12c33 85 65 188 89 271c0 4 -2 12 -4 17l-68 -4c3 27 17 72 33 88c30 11 106 19 136 19c15 -13 42 -74 42 -99c-61 -161 -167 -375 -234 -455
c-63 -74 -134 -141 -230 -181c-20 26 -42 91 -42 127c68 20 132 52 175 101z" />
    <glyph glyph-name="z" unicode="z" horiz-adv-x="485" 
d="M11 0l-6 66l257 318v12h-89c-6 -18 -20 -49 -31 -67c-30 0 -86 8 -108 18l21 136h390l6 -68l-258 -318v-12c34 1 76 4 111 7c6 21 16 47 26 66c26 5 83 7 114 0l-30 -158h-403z" />
    <glyph glyph-name="braceleft" unicode="{" horiz-adv-x="350" 
d="M30 254c2 26 15 70 23 89c57 6 66 40 72 98l17 176c9 101 59 176 227 183c-3 -24 -14 -71 -29 -94c-38 -6 -58 -33 -62 -84l-14 -173c-6 -72 -31 -123 -78 -145v-9c47 -20 63 -63 57 -138l-17 -198c-5 -57 12 -88 57 -91c3 -20 -4 -76 -13 -94c-162 8 -199 74 -190 171
l17 199c6 69 0 105 -67 110z" />
    <glyph glyph-name="bar" unicode="|" horiz-adv-x="348" 
d="M225 773v-962c-12 -4 -35 -6 -58 -6s-47 2 -62 6v951c29 7 83 11 120 11z" />
    <glyph glyph-name="braceright" unicode="}" horiz-adv-x="353" 
d="M143 294l1 9c-44 27 -56 72 -50 138l15 172c6 64 -14 90 -66 95c2 23 20 70 34 91c147 -11 175 -91 168 -177l-14 -178c-4 -55 -6 -97 60 -102c5 -23 8 -65 8 -90c-60 -4 -83 -31 -88 -97l-16 -203c-8 -102 -53 -172 -220 -180c-2 7 -4 21 -4 36c0 22 2 47 6 58
c39 2 69 32 73 79l17 201c7 74 25 121 76 148z" />
    <glyph glyph-name="asciitilde" unicode="~" 
d="M92 190c-20 14 -44 49 -53 72c29 50 84 86 148 86c78 0 118 -52 185 -52c33 0 60 19 72 41c24 -5 61 -21 79 -34c-28 -65 -93 -117 -166 -117c-90 0 -114 52 -184 52c-36 0 -66 -24 -81 -48z" />
    <glyph glyph-name="uni00A0" unicode="&#xa0;" horiz-adv-x="199" 
 />
    <glyph glyph-name="exclamdown" unicode="&#xa1;" horiz-adv-x="291" 
d="M-2 -207l79 469c18 9 50 15 77 15c11 0 18 -1 28 -3l-6 -481c-22 -6 -54 -9 -88 -9c-33 0 -66 3 -90 9zM147 514c49 0 82 -29 82 -84s-35 -88 -82 -88c-56 0 -85 30 -85 88c0 49 37 84 85 84z" />
    <glyph glyph-name="cent" unicode="&#xa2;" horiz-adv-x="542" 
d="M361 373l7 62c-10 3 -22 5 -36 5c-41 0 -70 -17 -91 -44c-33 -43 -42 -107 -42 -154c0 -80 28 -111 94 -111c53 0 127 21 171 41c0 -29 -16 -75 -33 -100c-27 -18 -58 -35 -95 -45l-9 -85c-13 -4 -39 -5 -64 -5c-23 0 -49 1 -65 5l9 78c-106 17 -157 90 -157 196
c0 79 29 174 80 230c35 38 87 68 146 81l9 63c30 8 88 15 127 15l-11 -77c39 -7 74 -21 103 -38c0 -47 -13 -102 -34 -147c-31 0 -84 11 -109 30z" />
    <glyph glyph-name="sterling" unicode="&#xa3;" horiz-adv-x="579" 
d="M443 236h-168c0 -55 -36 -112 -70 -132l-1 -9h174c5 16 17 44 25 57c27 6 73 11 105 9l-18 -161h-483c5 26 17 62 25 79c18 12 41 22 60 29c32 49 47 83 47 128h-79c2 28 10 61 18 83h58c-2 13 -3 29 -3 42c0 122 80 201 239 201c60 0 114 -13 163 -34
c0 -47 -14 -110 -29 -145c-41 2 -81 16 -106 31l6 47c-12 6 -28 9 -43 9c-75 0 -90 -50 -90 -113c0 -12 1 -27 3 -38h174c2 -21 0 -59 -7 -83z" />
    <glyph glyph-name="currency" unicode="&#xa4;" horiz-adv-x="599" 
d="M136 398l-58 77c17 21 51 51 82 62l50 -82c36 18 70 26 113 26c41 0 71 -8 101 -22l66 76c28 -9 60 -36 72 -56l-75 -76c18 -28 28 -60 28 -102c0 -67 -26 -136 -66 -178l58 -77c-16 -23 -47 -45 -81 -52l-49 75c-34 -16 -69 -23 -110 -23c-42 0 -77 8 -106 23l-70 -78
c-29 9 -55 32 -67 55l78 80c-17 27 -25 60 -25 101c0 62 19 128 59 171zM280 144c60 0 105 66 105 142c0 59 -28 97 -76 97c-64 0 -103 -67 -103 -138c0 -61 27 -101 74 -101z" />
    <glyph glyph-name="yen" unicode="&#xa5;" horiz-adv-x="615" 
d="M372 217l-2 -16h137c2 -19 0 -54 -6 -76h-140l-3 -26c22 -3 67 -13 85 -21c3 -19 0 -59 -5 -78h-332c5 23 19 56 27 72c21 11 50 21 73 28l3 25h-144c2 25 9 55 17 76h136v1l-28 52h-107c2 25 9 55 17 76h50l-53 99c-14 4 -29 10 -40 17c-3 17 -6 45 -6 69c0 9 0 17 1 24
h275c-3 -32 -12 -71 -22 -97c-9 -5 -34 -13 -48 -16c9 -9 19 -26 23 -38l13 -37c6 -16 15 -45 18 -66h11c7 21 21 50 33 66l26 38c9 12 24 30 34 38c-9 4 -25 12 -31 18c-5 26 -8 63 -3 94h233c-3 -29 -16 -76 -29 -100c-12 -5 -34 -10 -51 -12l-75 -97h66
c2 -19 0 -54 -6 -76h-119z" />
    <glyph glyph-name="brokenbar" unicode="&#xa6;" horiz-adv-x="348" 
d="M226 216v-405c-12 -4 -36 -6 -59 -6s-48 2 -63 6v394c29 7 85 11 122 11zM226 773v-376c-12 -4 -36 -6 -59 -6s-48 2 -63 6v365c29 7 85 11 122 11z" />
    <glyph glyph-name="section" unicode="&#xa7;" horiz-adv-x="530" 
d="M358 512l6 61c-14 5 -25 7 -44 7c-23 0 -63 -11 -63 -50c0 -90 213 -129 213 -273c0 -65 -56 -115 -87 -142c11 -18 18 -38 18 -61c0 -124 -119 -172 -229 -172c-101 0 -166 33 -170 110c21 32 85 44 135 44c3 -48 25 -78 58 -78c49 0 74 25 74 59
c0 90 -210 117 -210 261c0 63 43 110 93 154c-11 20 -17 42 -17 67c0 102 95 155 182 155c76 0 125 -12 174 -34c-1 -22 -19 -110 -27 -130c-37 0 -84 7 -106 22zM209 367c-12 -12 -29 -30 -29 -49c0 -58 82 -95 142 -142c10 10 27 29 27 47c0 58 -82 95 -140 144z" />
    <glyph glyph-name="dieresis" unicode="&#xa8;" horiz-adv-x="530" 
d="M141 727c45 0 75 -28 75 -76c0 -52 -32 -82 -75 -82c-49 0 -76 28 -76 82c0 44 33 76 76 76zM395 727c45 0 75 -28 75 -76c0 -52 -32 -82 -75 -82c-49 0 -76 28 -76 82c0 44 33 76 76 76z" />
    <glyph glyph-name="copyright" unicode="&#xa9;" horiz-adv-x="803" 
d="M453 407l5 49c-4 2 -16 4 -24 4c-46 0 -85 -65 -85 -145c0 -69 29 -91 82 -91c28 0 76 6 107 17c0 -22 -15 -60 -28 -80c-40 -19 -87 -30 -131 -30c-107 0 -170 69 -170 175c0 143 115 239 239 239c43 0 97 -12 129 -29c-2 -32 -16 -100 -26 -131c-35 0 -76 9 -98 22z
M446 704c189 0 315 -136 315 -321c0 -222 -184 -403 -408 -403c-188 0 -312 124 -312 313c0 227 186 411 405 411zM434 628c-162 0 -305 -147 -305 -322c0 -145 96 -249 239 -249c167 0 304 144 304 315c0 142 -95 256 -238 256z" />
    <glyph glyph-name="ordfeminine" unicode="&#xaa;" horiz-adv-x="412" 
d="M341 191h-317c2 28 10 62 19 85h305c2 -22 0 -60 -7 -85zM232 368h-6c-18 -31 -51 -53 -95 -53c-58 0 -101 37 -101 123c0 52 16 111 50 151c33 39 85 67 152 67c50 0 95 -15 127 -34l-25 -208c0 -4 2 -11 4 -14l45 5c0 -18 -9 -54 -18 -70c-23 -10 -84 -20 -116 -20
c-9 15 -15 38 -17 53zM226 424l25 162c-7 2 -15 3 -21 3c-25 0 -49 -17 -63 -38c-19 -26 -28 -67 -28 -100c0 -40 14 -56 36 -56c18 0 35 9 51 29z" />
    <glyph glyph-name="guillemotleft" unicode="&#xab;" horiz-adv-x="619" 
d="M192 258c13 -67 31 -130 58 -197c-30 -16 -87 -31 -123 -33c-38 75 -75 161 -95 230c37 70 74 126 127 196c40 14 104 27 151 27c-45 -74 -85 -149 -118 -223zM451 261c13 -67 31 -130 58 -197c-29 -16 -85 -32 -120 -33c-39 75 -76 161 -96 230c37 70 74 126 127 196
c40 14 103 27 149 27c-45 -74 -84 -149 -118 -223z" />
    <glyph glyph-name="logicalnot" unicode="&#xac;" 
d="M49 331h455v-209c-13 -4 -38 -7 -63 -7c-26 0 -52 3 -69 7v99h-340c0 32 8 81 17 110z" />
    <glyph glyph-name="uni00AD" unicode="&#xad;" horiz-adv-x="343" 
d="M285 220h-269c3 36 13 81 25 112h253c1 -8 1 -16 1 -25c0 -28 -3 -62 -10 -87z" />
    <glyph glyph-name="registered" unicode="&#xae;" horiz-adv-x="564" 
d="M196 481l15 137c-5 0 -15 1 -25 3c-1 12 1 35 5 49c38 4 95 5 123 5c61 0 106 -24 106 -68c0 -39 -22 -64 -51 -76c6 -15 17 -38 26 -50l30 3c-2 -15 -9 -37 -15 -49c-25 -7 -50 -11 -75 -11c-15 28 -34 71 -41 98c-3 0 -13 1 -16 2l-5 -42c7 -1 17 -5 23 -9
c0 -12 -2 -31 -5 -43h-138c3 17 12 35 15 42c11 5 19 8 28 9zM287 620l-5 -46c6 -1 18 -2 26 -2c18 0 33 9 33 27c0 14 -13 21 -33 21h-21zM334 805c146 0 227 -85 227 -220c0 -165 -127 -294 -299 -294c-147 0 -226 85 -226 222c0 167 126 292 298 292zM323 747
c-128 0 -219 -103 -219 -224c0 -103 56 -176 169 -176c127 0 217 100 217 224c0 103 -55 176 -167 176z" />
    <glyph glyph-name="macron" unicode="&#xaf;" horiz-adv-x="530" 
d="M430 597h-328c3 33 12 74 23 102h313c1 -11 1 -18 1 -23c0 -25 -3 -57 -9 -79z" />
    <glyph glyph-name="degree" unicode="&#xb0;" horiz-adv-x="392" 
d="M223 653c83 0 137 -42 137 -119c0 -109 -66 -172 -172 -172c-90 0 -137 42 -137 121c0 103 70 170 172 170zM213 570c-35 0 -56 -31 -56 -70c0 -33 16 -55 42 -55c33 0 55 34 55 77c0 28 -15 48 -41 48z" />
    <glyph glyph-name="plusminus" unicode="&#xb1;" 
d="M338 423h150c4 -14 7 -44 7 -70c0 -11 -1 -21 -2 -30h-155v-164c-15 -4 -36 -7 -60 -7c-22 0 -48 2 -66 7v164h-158c0 29 7 74 15 100h143v158c31 7 87 11 126 11v-169zM67 103h416c4 -15 7 -45 7 -72c0 -11 -1 -22 -2 -31h-436c0 30 7 76 15 103z" />
    <glyph glyph-name="twosuperior" unicode="&#xb2;" horiz-adv-x="385" 
d="M5 377l9 76c74 64 214 138 214 213c0 21 -13 32 -40 32c-14 0 -40 -4 -49 -8l-3 -44c-25 -9 -68 -14 -92 -14c-4 30 -5 73 -5 104c44 21 103 39 169 39c79 0 138 -25 138 -90c0 -99 -135 -173 -219 -217v-7c62 0 132 3 204 8c-3 -23 -12 -69 -19 -92h-307z" />
    <glyph glyph-name="threesuperior" unicode="&#xb3;" horiz-adv-x="385" 
d="M84 535c0 24 7 62 16 82c37 0 121 1 121 47c0 22 -20 29 -38 29c-32 0 -80 -10 -112 -24c0 22 7 62 22 86c34 15 75 20 108 20c73 0 138 -27 138 -92c0 -45 -33 -81 -80 -94v-9c39 -8 67 -29 67 -79c0 -89 -91 -131 -188 -131c-30 0 -74 5 -99 13c-6 15 -11 43 -11 67
c0 6 1 20 3 29c32 -16 88 -26 119 -26s56 11 56 40c0 33 -30 42 -122 42z" />
    <glyph glyph-name="acute" unicode="&#xb4;" horiz-adv-x="435" 
d="M369 725l-205 -180c-24 9 -55 36 -65 56l141 169c37 0 107 -19 129 -45z" />
    <glyph glyph-name="mu" unicode="&#xb5;" horiz-adv-x="622" 
d="M134 74h-12c7 -57 14 -154 14 -225c0 -50 -4 -89 -8 -126c-55 2 -113 17 -141 35c35 231 76 513 101 721c31 11 115 18 143 18c-16 -79 -34 -187 -34 -264c0 -96 27 -146 77 -146c41 0 78 33 103 69c0 94 22 235 40 324c31 11 100 17 130 17c-19 -94 -44 -242 -44 -331
c0 -63 13 -79 32 -79c15 0 37 4 51 12c-1 -26 -15 -72 -28 -91c-20 -14 -52 -25 -82 -25c-58 0 -84 48 -86 93h-9c-19 -39 -54 -93 -134 -93c-63 0 -102 31 -113 91z" />
    <glyph glyph-name="paragraph" unicode="&#xb6;" horiz-adv-x="628" 
d="M396 7l61 645c-25 3 -68 5 -98 5l-68 -738c0 -5 5 -15 8 -19l277 29c0 -16 -11 -54 -18 -69c-73 -20 -255 -46 -316 -47c-23 18 -50 71 -50 92l41 432c-12 -1 -34 -2 -46 -2c-79 0 -171 43 -171 160c0 153 113 236 330 236c104 0 227 -4 287 -9c0 -19 -4 -62 -8 -77
c-21 -1 -52 -1 -72 -1l-61 -637c-10 -2 -27 -4 -44 -4c-18 0 -39 2 -52 4z" />
    <glyph glyph-name="periodcentered" unicode="&#xb7;" horiz-adv-x="290" 
d="M125 340c54 0 91 -33 91 -93c0 -62 -39 -99 -91 -99c-63 0 -96 33 -96 99c0 54 41 93 96 93z" />
    <glyph glyph-name="cedilla" unicode="&#xb8;" horiz-adv-x="435" 
d="M129 -82l51 90c22 6 61 9 89 9l-24 -72c29 -7 53 -31 53 -69c0 -67 -81 -112 -150 -118c-19 13 -36 38 -43 61c36 5 71 24 71 56c0 24 -22 37 -47 43z" />
    <glyph glyph-name="onesuperior" unicode="&#xb9;" horiz-adv-x="385" 
d="M272 775l-31 -318c16 -1 52 -6 69 -10c1 -16 1 -27 1 -31c0 -7 -1 -29 -2 -39h-271c3 22 13 50 23 68c16 5 45 11 62 13l24 222l-87 -7c3 21 12 52 25 75c43 10 127 24 187 27z" />
    <glyph glyph-name="ordmasculine" unicode="&#xba;" horiz-adv-x="415" 
d="M242 656c93 0 151 -49 151 -137c0 -56 -16 -103 -44 -138c-34 -42 -87 -66 -149 -66c-97 0 -152 52 -152 146c0 50 14 95 41 128c35 43 89 67 153 67zM233 579c-23 0 -42 -10 -54 -28c-14 -21 -19 -51 -19 -82c0 -46 18 -75 50 -75c19 0 36 9 48 25c16 21 24 55 24 91
c0 41 -19 69 -49 69zM343 191h-308c2 28 10 62 19 85h296c2 -22 0 -60 -7 -85z" />
    <glyph glyph-name="guillemotright" unicode="&#xbb;" horiz-adv-x="612" 
d="M138 258c-16 66 -34 126 -57 192c28 15 88 33 123 33c40 -78 73 -159 93 -225c-38 -68 -97 -155 -150 -230c-39 2 -84 19 -113 39c40 66 74 125 104 191zM398 261c-15 66 -33 126 -56 192c27 15 86 33 120 33c40 -78 74 -159 93 -225c-38 -68 -96 -155 -150 -230
c-37 2 -82 19 -110 39c41 66 72 125 103 191z" />
    <glyph glyph-name="onequarter" unicode="&#xbc;" horiz-adv-x="926" 
d="M276 691l-31 -318c16 -1 52 -6 69 -10c1 -16 1 -27 1 -31c0 -7 -1 -29 -2 -39h-271c3 22 13 50 23 68c16 5 45 11 62 13l24 222l-87 -7c3 21 12 52 25 75c43 10 127 24 187 27zM812 89l-8 -86c-11 -4 -33 -5 -54 -5c-22 0 -43 1 -58 5l9 86h-178l8 64l183 238h129
l-24 -219h47c1 -5 1 -12 1 -20c0 -21 -3 -48 -7 -63h-48zM710 172l7 61c2 20 7 47 11 61h-7l-84 -118v-7c11 2 26 3 38 3h35zM833 697l-566 -741c-38 9 -77 35 -94 61l546 702c36 0 83 -8 114 -22z" />
    <glyph glyph-name="onehalf" unicode="&#xbd;" horiz-adv-x="926" 
d="M792 697l-566 -741c-38 9 -77 35 -94 61l546 702c36 0 83 -8 114 -22zM251 691l-31 -318c16 -1 52 -6 69 -10c1 -16 1 -27 1 -31c0 -7 -1 -29 -2 -39h-271c3 22 13 50 23 68c16 5 45 11 62 13l24 222l-87 -7c3 21 12 52 25 75c43 10 127 24 187 27zM556 0l9 76
c74 64 214 138 214 213c0 21 -13 32 -40 32c-14 0 -40 -4 -49 -8l-3 -44c-25 -9 -68 -14 -92 -14c-4 30 -5 73 -5 104c44 21 103 39 169 39c79 0 138 -25 138 -90c0 -99 -135 -173 -219 -217v-7c62 0 132 3 204 8c-3 -23 -12 -69 -19 -92h-307z" />
    <glyph glyph-name="threequarters" unicode="&#xbe;" horiz-adv-x="926" 
d="M806 697l-566 -741c-38 9 -77 35 -94 61l546 702c36 0 83 -8 114 -22zM85 451c0 24 7 62 16 82c37 0 121 1 121 47c0 22 -20 29 -38 29c-32 0 -80 -10 -112 -24c0 22 7 62 22 86c34 15 75 20 108 20c73 0 138 -27 138 -92c0 -45 -33 -81 -80 -94v-9c39 -8 67 -29 67 -79
c0 -89 -91 -131 -188 -131c-30 0 -74 5 -99 13c-6 15 -11 43 -11 67c0 6 1 20 3 29c32 -16 88 -26 119 -26s56 11 56 40c0 33 -30 42 -122 42zM785 89l-8 -86c-11 -4 -33 -5 -54 -5c-22 0 -43 1 -58 5l9 86h-178l8 64l183 238h129l-24 -219h47c1 -5 1 -12 1 -20
c0 -21 -3 -48 -7 -63h-48zM683 172l7 61c2 20 7 47 11 61h-7l-84 -118v-7c11 2 26 3 38 3h35z" />
    <glyph glyph-name="questiondown" unicode="&#xbf;" horiz-adv-x="455" 
d="M249 -130l9 88c31 17 82 27 117 29c1 -19 2 -41 2 -63c0 -40 -2 -83 -6 -123c-59 -20 -154 -38 -221 -38c-114 0 -187 51 -187 134c0 162 219 200 219 296c0 22 -6 44 -16 60c29 17 79 34 115 37c20 -21 39 -61 39 -95c0 -131 -196 -173 -196 -279c0 -27 16 -59 63 -59
c16 0 41 4 62 13zM237 514c49 0 82 -29 82 -84s-35 -88 -82 -88c-56 0 -85 30 -85 88c0 49 37 84 85 84z" />
    <glyph glyph-name="Agrave" unicode="&#xc0;" horiz-adv-x="755" 
d="M723 0h-304c4 24 20 68 32 91c17 6 46 13 62 16c-12 18 -20 43 -27 66l-8 28h-237l-13 -33c-7 -17 -23 -47 -36 -65c21 -2 48 -7 65 -12c6 -23 12 -68 12 -91h-284c6 31 20 65 32 90c13 6 33 12 49 15l307 614h108l183 -611c16 -3 38 -9 51 -15c6 -27 8 -65 8 -93z
M401 573h-12c-6 -40 -31 -111 -45 -143l-60 -136h172l-35 136c-8 30 -20 102 -20 143zM495 754l-271 108c23 32 79 78 115 92l200 -108c-5 -27 -26 -72 -44 -92z" />
    <glyph glyph-name="Aacute" unicode="&#xc1;" horiz-adv-x="755" 
d="M723 0h-304c4 24 20 68 32 91c17 6 46 13 62 16c-12 18 -20 43 -27 66l-8 28h-237l-13 -33c-7 -17 -23 -47 -36 -65c21 -2 48 -7 65 -12c6 -23 12 -68 12 -91h-284c6 31 20 65 32 90c13 6 33 12 49 15l307 614h108l183 -611c16 -3 38 -9 51 -15c6 -27 8 -65 8 -93z
M401 573h-12c-6 -40 -31 -111 -45 -143l-60 -136h172l-35 136c-8 30 -20 102 -20 143zM644 851l-296 -100c-5 18 -8 47 -8 71c0 4 0 13 1 23l239 114c25 -22 54 -72 64 -108z" />
    <glyph glyph-name="Acircumflex" unicode="&#xc2;" horiz-adv-x="755" 
d="M723 0h-304c4 24 20 68 32 91c17 6 46 13 62 16c-12 18 -20 43 -27 66l-8 28h-237l-13 -33c-7 -17 -23 -47 -36 -65c21 -2 48 -7 65 -12c6 -23 12 -68 12 -91h-284c6 31 20 65 32 90c13 6 33 12 49 15l307 614h108l183 -611c16 -3 38 -9 51 -15c6 -27 8 -65 8 -93z
M401 573h-12c-6 -40 -31 -111 -45 -143l-60 -136h172l-35 136c-8 30 -20 102 -20 143zM383 940h130l140 -108c-10 -26 -40 -65 -62 -79l-159 81l-190 -85c-13 24 -18 63 -18 90z" />
    <glyph glyph-name="Atilde" unicode="&#xc3;" horiz-adv-x="755" 
d="M723 0h-304c4 24 20 68 32 91c17 6 46 13 62 16c-12 18 -20 43 -27 66l-8 28h-237l-13 -33c-7 -17 -23 -47 -36 -65c21 -2 48 -7 65 -12c6 -23 12 -68 12 -91h-284c6 31 20 65 32 90c13 6 33 12 49 15l307 614h108l183 -611c16 -3 38 -9 51 -15c6 -27 8 -65 8 -93z
M401 573h-12c-6 -40 -31 -111 -45 -143l-60 -136h172l-35 136c-8 30 -20 102 -20 143zM579 926c28 0 59 -8 81 -20c-9 -68 -61 -142 -169 -142c-74 0 -97 47 -161 47c-30 0 -51 -26 -58 -44c-32 5 -59 28 -74 51c19 61 71 112 159 112c82 0 100 -45 163 -45
c30 0 49 18 59 41z" />
    <glyph glyph-name="Adieresis" unicode="&#xc4;" horiz-adv-x="755" 
d="M273 923c49 0 83 -29 83 -78c0 -53 -36 -83 -83 -83c-54 0 -85 28 -85 83c0 45 37 78 85 78zM582 923c49 0 83 -29 83 -78c0 -53 -36 -83 -83 -83c-54 0 -85 28 -85 83c0 45 37 78 85 78zM723 0h-304c4 24 20 68 32 91c17 6 46 13 62 16c-12 18 -20 43 -27 66l-8 28h-237
l-13 -33c-7 -17 -23 -47 -36 -65c21 -2 48 -7 65 -12c6 -23 12 -68 12 -91h-284c6 31 20 65 32 90c13 6 33 12 49 15l307 614h108l183 -611c16 -3 38 -9 51 -15c6 -27 8 -65 8 -93zM401 573h-12c-6 -40 -31 -111 -45 -143l-60 -136h172l-35 136c-8 30 -20 102 -20 143z" />
    <glyph glyph-name="Aring" unicode="&#xc5;" horiz-adv-x="755" 
d="M458 938c77 0 122 -32 122 -102c0 -64 -38 -107 -97 -124l181 -604c16 -3 38 -9 51 -15c6 -27 8 -65 8 -93h-304c4 24 20 68 32 91c17 6 46 13 62 16c-12 18 -20 43 -27 66l-8 28h-237l-13 -33c-7 -17 -23 -47 -36 -65c21 -2 48 -7 65 -12c6 -23 12 -68 12 -91h-284
c6 31 20 65 32 90c13 6 33 12 49 15l303 606c-44 13 -67 46 -67 95c0 80 59 132 156 132zM401 573h-12c-6 -40 -31 -111 -45 -143l-60 -136h172l-35 136c-8 30 -20 102 -20 143zM447 866c-35 0 -58 -21 -58 -50c0 -26 17 -40 45 -40c32 0 59 19 59 51c0 27 -21 39 -46 39z
" />
    <glyph glyph-name="AE" unicode="&#xc6;" horiz-adv-x="999" 
d="M975 709l-17 -181c-33 0 -80 5 -109 15c-3 18 -5 51 -5 72h-194l-14 -207h155c2 11 8 31 12 44c29 9 73 15 108 15l-14 -205c-33 -3 -79 -1 -107 8c-3 12 -5 34 -5 46h-156l-17 -220h189c4 26 12 58 21 81c27 9 83 15 116 15l-15 -192h-558c3 25 16 70 27 90
c15 6 48 13 68 16l12 130h-199l-45 -68c-11 -18 -36 -49 -52 -65c20 -2 50 -7 66 -12c8 -22 12 -66 11 -91h-273c5 31 17 65 28 90c13 6 33 12 48 15l336 500c-26 2 -60 7 -79 12c-2 22 -2 71 5 92h657zM429 481l-101 -154h156l24 276h-13c-16 -36 -42 -86 -66 -122z" />
    <glyph glyph-name="Ccedilla" unicode="&#xc7;" horiz-adv-x="637" 
d="M248 -94l39 77c-157 19 -251 145 -251 327c0 251 182 419 396 419c73 0 142 -19 194 -47c-6 -60 -21 -143 -36 -194c-37 0 -90 13 -118 29l9 98c-19 10 -41 15 -66 15c-124 0 -218 -121 -218 -304c0 -160 71 -229 180 -229c50 0 134 14 197 38c0 -28 -16 -76 -33 -102
c-42 -22 -95 -39 -149 -48l-12 -40c32 -6 64 -32 64 -77c0 -84 -92 -129 -171 -137c-20 13 -39 40 -47 65c41 6 75 25 75 62c0 27 -24 42 -53 48z" />
    <glyph glyph-name="Egrave" unicode="&#xc8;" horiz-adv-x="639" 
d="M563 0h-559c3 25 16 70 27 90c15 6 49 13 69 16l44 499c-20 2 -49 7 -63 12c-2 22 0 71 6 92h528l-17 -181c-33 0 -80 5 -109 15c-3 18 -5 51 -5 72h-194l-14 -207h155c2 11 8 31 12 44c29 9 73 15 108 15l-14 -205c-33 -3 -79 -1 -107 8c-3 12 -5 34 -5 46h-156
l-17 -220h189c4 26 12 58 21 81c27 9 83 15 116 15zM433 754l-271 108c23 32 79 78 115 92l200 -108c-5 -27 -26 -72 -44 -92z" />
    <glyph glyph-name="Eacute" unicode="&#xc9;" horiz-adv-x="639" 
d="M563 0h-559c3 25 16 70 27 90c15 6 49 13 69 16l44 499c-20 2 -49 7 -63 12c-2 22 0 71 6 92h528l-17 -181c-33 0 -80 5 -109 15c-3 18 -5 51 -5 72h-194l-14 -207h155c2 11 8 31 12 44c29 9 73 15 108 15l-14 -205c-33 -3 -79 -1 -107 8c-3 12 -5 34 -5 46h-156
l-17 -220h189c4 26 12 58 21 81c27 9 83 15 116 15zM600 851l-296 -100c-5 18 -8 47 -8 71c0 4 0 13 1 23l239 114c25 -22 54 -72 64 -108z" />
    <glyph glyph-name="Ecircumflex" unicode="&#xca;" horiz-adv-x="639" 
d="M563 0h-559c3 25 16 70 27 90c15 6 49 13 69 16l44 499c-20 2 -49 7 -63 12c-2 22 0 71 6 92h528l-17 -181c-33 0 -80 5 -109 15c-3 18 -5 51 -5 72h-194l-14 -207h155c2 11 8 31 12 44c29 9 73 15 108 15l-14 -205c-33 -3 -79 -1 -107 8c-3 12 -5 34 -5 46h-156
l-17 -220h189c4 26 12 58 21 81c27 9 83 15 116 15zM327 940h130l140 -108c-10 -26 -40 -65 -62 -79l-159 81l-190 -85c-13 24 -18 63 -18 90z" />
    <glyph glyph-name="Edieresis" unicode="&#xcb;" horiz-adv-x="639" 
d="M214 923c49 0 83 -29 83 -78c0 -53 -36 -83 -83 -83c-54 0 -85 28 -85 83c0 45 37 78 85 78zM523 923c49 0 83 -29 83 -78c0 -53 -36 -83 -83 -83c-54 0 -85 28 -85 83c0 45 37 78 85 78zM563 0h-559c3 25 16 70 27 90c15 6 49 13 69 16l44 499c-20 2 -49 7 -63 12
c-2 22 0 71 6 92h528l-17 -181c-33 0 -80 5 -109 15c-3 18 -5 51 -5 72h-194l-14 -207h155c2 11 8 31 12 44c29 9 73 15 108 15l-14 -205c-33 -3 -79 -1 -107 8c-3 12 -5 34 -5 46h-156l-17 -220h189c4 26 12 58 21 81c27 9 83 15 116 15z" />
    <glyph glyph-name="Igrave" unicode="&#xcc;" horiz-adv-x="394" 
d="M328 0h-323c4 25 17 70 28 90c15 6 49 13 69 16l47 499c-20 2 -49 7 -63 12c-2 22 1 71 7 92h286c1 -6 1 -11 1 -13c0 -24 -4 -62 -11 -79c-18 -5 -53 -10 -73 -11l-41 -500c25 -2 57 -8 77 -14c3 -22 2 -71 -4 -92zM297 754l-271 108c23 32 79 78 115 92l200 -108
c-5 -27 -26 -72 -44 -92z" />
    <glyph glyph-name="Iacute" unicode="&#xcd;" horiz-adv-x="394" 
d="M328 0h-323c4 25 17 70 28 90c15 6 49 13 69 16l47 499c-20 2 -49 7 -63 12c-2 22 1 71 7 92h286c1 -6 1 -11 1 -13c0 -24 -4 -62 -11 -79c-18 -5 -53 -10 -73 -11l-41 -500c25 -2 57 -8 77 -14c3 -22 2 -71 -4 -92zM474 851l-296 -100c-5 18 -8 47 -8 71c0 4 0 13 1 23
l239 114c25 -22 54 -72 64 -108z" />
    <glyph glyph-name="Icircumflex" unicode="&#xce;" horiz-adv-x="394" 
d="M328 0h-323c4 25 17 70 28 90c15 6 49 13 69 16l47 499c-20 2 -49 7 -63 12c-2 22 1 71 7 92h286c1 -6 1 -11 1 -13c0 -24 -4 -62 -11 -79c-18 -5 -53 -10 -73 -11l-41 -500c25 -2 57 -8 77 -14c3 -22 2 -71 -4 -92zM197 940h130l140 -108c-10 -26 -40 -65 -62 -79
l-159 81l-190 -85c-13 24 -18 63 -18 90z" />
    <glyph glyph-name="Idieresis" unicode="&#xcf;" horiz-adv-x="394" 
d="M104 923c49 0 83 -29 83 -78c0 -53 -36 -83 -83 -83c-54 0 -85 28 -85 83c0 45 37 78 85 78zM383 923c49 0 83 -29 83 -78c0 -53 -36 -83 -83 -83c-54 0 -85 28 -85 83c0 45 37 78 85 78zM328 0h-323c4 25 17 70 28 90c15 6 49 13 69 16l47 499c-20 2 -49 7 -63 12
c-2 22 1 71 7 92h286c1 -6 1 -11 1 -13c0 -24 -4 -62 -11 -79c-18 -5 -53 -10 -73 -11l-41 -500c25 -2 57 -8 77 -14c3 -22 2 -71 -4 -92z" />
    <glyph glyph-name="Eth" unicode="&#xd0;" horiz-adv-x="745" 
d="M110 110l17 195h-68c3 30 11 68 21 93h55l18 199c-19 2 -48 6 -63 9c-2 22 1 73 6 94c72 9 205 18 271 18c213 0 352 -98 352 -312c0 -274 -175 -414 -363 -414c-98 0 -246 4 -340 13c3 25 16 70 27 90c16 6 46 12 67 15zM431 305h-154l-15 -209c19 -3 47 -5 68 -5
c141 0 237 103 237 293c0 161 -85 236 -213 236c-15 0 -38 -2 -54 -5l-16 -217h154c3 -24 0 -65 -7 -93z" />
    <glyph glyph-name="Ntilde" unicode="&#xd1;" horiz-adv-x="772" 
d="M334 709l169 -390c18 -41 31 -101 35 -151h12l41 437c-24 2 -56 7 -73 12c-2 22 1 71 8 92h244c1 -6 1 -11 1 -13c0 -24 -4 -62 -11 -79c-15 -5 -49 -10 -66 -11l-52 -614h-160l-182 433c-17 40 -34 103 -37 146h-12l-37 -465c23 -2 53 -8 71 -14c4 -22 2 -71 -4 -92
h-276c4 25 16 70 25 90c16 6 47 13 64 16l47 499c-20 2 -49 7 -63 12c-2 22 1 71 7 92h249zM589 926c28 0 59 -8 81 -20c-9 -68 -61 -142 -169 -142c-74 0 -97 47 -161 47c-30 0 -51 -26 -58 -44c-32 5 -59 28 -74 51c19 61 71 112 159 112c82 0 100 -45 163 -45
c30 0 49 18 59 41z" />
    <glyph glyph-name="Ograve" unicode="&#xd2;" horiz-adv-x="712" 
d="M407 729c173 0 280 -111 280 -327c0 -252 -145 -422 -364 -422c-178 0 -276 112 -276 321c0 249 143 428 360 428zM391 631c-125 0 -187 -158 -187 -323c0 -144 48 -229 138 -229c118 0 190 148 190 321c0 144 -49 231 -141 231zM465 754l-271 108c23 32 79 78 115 92
l200 -108c-5 -27 -26 -72 -44 -92z" />
    <glyph glyph-name="Oacute" unicode="&#xd3;" horiz-adv-x="712" 
d="M407 729c173 0 280 -111 280 -327c0 -252 -145 -422 -364 -422c-178 0 -276 112 -276 321c0 249 143 428 360 428zM391 631c-125 0 -187 -158 -187 -323c0 -144 48 -229 138 -229c118 0 190 148 190 321c0 144 -49 231 -141 231zM638 851l-296 -100c-5 18 -8 47 -8 71
c0 4 0 13 1 23l239 114c25 -22 54 -72 64 -108z" />
    <glyph glyph-name="Ocircumflex" unicode="&#xd4;" horiz-adv-x="712" 
d="M407 729c173 0 280 -111 280 -327c0 -252 -145 -422 -364 -422c-178 0 -276 112 -276 321c0 249 143 428 360 428zM391 631c-125 0 -187 -158 -187 -323c0 -144 48 -229 138 -229c118 0 190 148 190 321c0 144 -49 231 -141 231zM364 940h130l140 -108
c-10 -26 -40 -65 -62 -79l-159 81l-190 -85c-13 24 -18 63 -18 90z" />
    <glyph glyph-name="Otilde" unicode="&#xd5;" horiz-adv-x="712" 
d="M407 729c173 0 280 -111 280 -327c0 -252 -145 -422 -364 -422c-178 0 -276 112 -276 321c0 249 143 428 360 428zM391 631c-125 0 -187 -158 -187 -323c0 -144 48 -229 138 -229c118 0 190 148 190 321c0 144 -49 231 -141 231zM560 926c28 0 59 -8 81 -20
c-9 -68 -61 -142 -169 -142c-74 0 -97 47 -161 47c-30 0 -51 -26 -58 -44c-32 5 -59 28 -74 51c19 61 71 112 159 112c82 0 100 -45 163 -45c30 0 49 18 59 41z" />
    <glyph glyph-name="Odieresis" unicode="&#xd6;" horiz-adv-x="712" 
d="M407 729c173 0 280 -111 280 -327c0 -252 -145 -422 -364 -422c-178 0 -276 112 -276 321c0 249 143 428 360 428zM391 631c-125 0 -187 -158 -187 -323c0 -144 48 -229 138 -229c118 0 190 148 190 321c0 144 -49 231 -141 231zM239 923c49 0 83 -29 83 -78
c0 -53 -36 -83 -83 -83c-54 0 -85 28 -85 83c0 45 37 78 85 78zM588 923c49 0 83 -29 83 -78c0 -53 -36 -83 -83 -83c-54 0 -85 28 -85 83c0 45 37 78 85 78z" />
    <glyph glyph-name="multiply" unicode="&#xd7;" 
d="M352 267l159 -153c-14 -27 -54 -67 -83 -83l-153 159l-152 -158c-32 18 -71 58 -84 82l158 153l-166 159c20 24 65 56 98 70l146 -151l142 148c35 -10 82 -44 101 -66z" />
    <glyph glyph-name="Oslash" unicode="&#xd8;" horiz-adv-x="761" 
d="M439 729c69 0 129 -18 175 -53l78 82c31 -6 89 -34 111 -51l-117 -119c24 -50 37 -112 37 -186c0 -252 -147 -422 -370 -422c-81 0 -146 22 -192 66l-113 -118c-23 14 -67 59 -78 81l128 134c-16 44 -25 97 -25 158c0 249 145 428 366 428zM568 400c0 27 -2 52 -6 75
l-306 -317c23 -51 62 -79 116 -79c122 0 196 148 196 321zM423 631c-129 0 -193 -158 -193 -323c0 -16 1 -31 2 -46l298 308c-24 39 -60 61 -107 61z" />
    <glyph glyph-name="Ugrave" unicode="&#xd9;" horiz-adv-x="717" 
d="M258 606l-24 -331c-1 -12 -1 -24 -1 -35c0 -105 38 -159 126 -159c108 0 156 82 166 194l28 330c-19 2 -45 7 -59 12c-2 22 0 71 7 92h238c1 -6 1 -11 1 -13c0 -24 -5 -63 -11 -79c-14 -5 -45 -10 -61 -11l-24 -324c-14 -179 -108 -302 -319 -302
c-168 0 -245 80 -245 240c0 15 1 31 2 47l29 341c-19 2 -46 6 -63 11c-2 13 -3 33 -3 52c0 14 1 28 2 38h289c2 -20 -3 -71 -10 -92c-17 -5 -49 -10 -68 -11zM479 754l-271 108c23 32 79 78 115 92l200 -108c-5 -27 -26 -72 -44 -92z" />
    <glyph glyph-name="Uacute" unicode="&#xda;" horiz-adv-x="717" 
d="M258 606l-24 -331c-1 -12 -1 -24 -1 -35c0 -105 38 -159 126 -159c108 0 156 82 166 194l28 330c-19 2 -45 7 -59 12c-2 22 0 71 7 92h238c1 -6 1 -11 1 -13c0 -24 -5 -63 -11 -79c-14 -5 -45 -10 -61 -11l-24 -324c-14 -179 -108 -302 -319 -302
c-168 0 -245 80 -245 240c0 15 1 31 2 47l29 341c-19 2 -46 6 -63 11c-2 13 -3 33 -3 52c0 14 1 28 2 38h289c2 -20 -3 -71 -10 -92c-17 -5 -49 -10 -68 -11zM659 851l-296 -100c-5 18 -8 47 -8 71c0 4 0 13 1 23l239 114c25 -22 54 -72 64 -108z" />
    <glyph glyph-name="Ucircumflex" unicode="&#xdb;" horiz-adv-x="717" 
d="M258 606l-24 -331c-1 -12 -1 -24 -1 -35c0 -105 38 -159 126 -159c108 0 156 82 166 194l28 330c-19 2 -45 7 -59 12c-2 22 0 71 7 92h238c1 -6 1 -11 1 -13c0 -24 -5 -63 -11 -79c-14 -5 -45 -10 -61 -11l-24 -324c-14 -179 -108 -302 -319 -302
c-168 0 -245 80 -245 240c0 15 1 31 2 47l29 341c-19 2 -46 6 -63 11c-2 13 -3 33 -3 52c0 14 1 28 2 38h289c2 -20 -3 -71 -10 -92c-17 -5 -49 -10 -68 -11zM379 940h130l140 -108c-10 -26 -40 -65 -62 -79l-159 81l-190 -85c-13 24 -18 63 -18 90z" />
    <glyph glyph-name="Udieresis" unicode="&#xdc;" horiz-adv-x="717" 
d="M274 923c49 0 83 -29 83 -78c0 -53 -36 -83 -83 -83c-54 0 -85 28 -85 83c0 45 37 78 85 78zM583 924c49 0 83 -29 83 -78c0 -53 -36 -83 -83 -83c-54 0 -85 28 -85 83c0 45 37 78 85 78zM258 606l-24 -331c-1 -12 -1 -24 -1 -35c0 -105 38 -159 126 -159
c108 0 156 82 166 194l28 330c-19 2 -45 7 -59 12c-2 22 0 71 7 92h238c1 -6 1 -11 1 -13c0 -24 -5 -63 -11 -79c-14 -5 -45 -10 -61 -11l-24 -324c-14 -179 -108 -302 -319 -302c-168 0 -245 80 -245 240c0 15 1 31 2 47l29 341c-19 2 -46 6 -63 11c-2 13 -3 33 -3 52
c0 14 1 28 2 38h289c2 -20 -3 -71 -10 -92c-17 -5 -49 -10 -68 -11z" />
    <glyph glyph-name="Yacute" unicode="&#xdd;" horiz-adv-x="642" 
d="M337 353h12c7 34 25 78 39 102l64 106c9 15 24 32 39 45c-15 2 -36 7 -47 12c-4 20 -9 70 -9 91h254c-3 -27 -13 -73 -23 -96c-16 -4 -36 -7 -52 -8l-227 -339l-11 -160c31 -2 71 -8 95 -14c5 -22 3 -71 -3 -92h-357c3 25 20 69 31 89c20 6 60 14 83 17l14 155l-151 345
c-15 2 -35 7 -48 12c-6 21 -7 63 -7 91h297c-3 -25 -15 -70 -24 -96c-15 -4 -43 -7 -59 -8c11 -10 23 -33 30 -51l38 -98c9 -23 21 -69 22 -103zM598 851l-296 -100c-5 18 -8 47 -8 71c0 4 0 13 1 23l239 114c25 -22 54 -72 64 -108z" />
    <glyph glyph-name="Thorn" unicode="&#xde;" horiz-adv-x="644" 
d="M330 0h-322c4 25 17 70 28 90c15 6 51 13 69 16l47 499c-20 2 -49 7 -63 12c-2 22 1 71 7 92h283c2 -20 -3 -71 -10 -92c-18 -5 -53 -10 -73 -11l-3 -44c26 2 52 2 76 2c159 0 266 -57 266 -177c0 -160 -148 -230 -291 -230c-29 0 -59 2 -84 8l-3 -59c25 -2 57 -8 77 -14
c3 -22 2 -71 -4 -92zM282 465l-15 -206c25 -5 63 -7 89 -7c72 0 129 39 129 120c0 60 -56 96 -138 96c-15 0 -45 -2 -65 -3z" />
    <glyph glyph-name="germandbls" unicode="&#xdf;" horiz-adv-x="676" 
d="M13 -142l66 519c-19 2 -49 9 -64 16c0 37 5 71 9 90h72c29 161 135 250 296 250c98 0 220 -32 220 -133c0 -110 -114 -125 -114 -194c0 -79 150 -92 150 -218c0 -132 -101 -205 -235 -205c-88 0 -165 28 -171 106c16 28 89 55 143 55c4 -47 26 -68 57 -68
c34 0 59 32 59 77c0 92 -155 97 -155 220c0 130 124 141 124 212c0 42 -50 58 -91 58c-90 0 -143 -80 -155 -196l-62 -589c-20 -4 -55 -7 -84 -7c-22 0 -49 2 -65 7z" />
    <glyph glyph-name="agrave" unicode="&#xe0;" horiz-adv-x="539" 
d="M297 64h-9c-26 -47 -72 -81 -137 -81c-79 0 -140 56 -140 190c0 80 25 162 74 225c48 61 121 102 218 102c66 0 127 -25 167 -52l-40 -337c0 -5 3 -15 4 -17l70 7c0 -24 -14 -69 -27 -90c-34 -14 -113 -28 -154 -28c-13 23 -23 58 -26 81zM288 138l39 268
c-10 3 -25 4 -34 4c-38 0 -75 -28 -97 -61c-28 -42 -40 -115 -40 -166c0 -70 19 -94 50 -94c30 0 57 16 82 49zM315 553l-147 182c26 21 91 42 131 42l103 -192c-19 -16 -64 -32 -87 -32z" />
    <glyph glyph-name="aacute" unicode="&#xe1;" horiz-adv-x="539" 
d="M297 64h-9c-26 -47 -72 -81 -137 -81c-79 0 -140 56 -140 190c0 80 25 162 74 225c48 61 121 102 218 102c66 0 127 -25 167 -52l-40 -337c0 -5 3 -15 4 -17l70 7c0 -24 -14 -69 -27 -90c-34 -14 -113 -28 -154 -28c-13 23 -23 58 -26 81zM288 138l39 268
c-10 3 -25 4 -34 4c-38 0 -75 -28 -97 -61c-28 -42 -40 -115 -40 -166c0 -70 19 -94 50 -94c30 0 57 16 82 49zM466 725l-205 -180c-24 9 -55 36 -65 56l141 169c37 0 107 -19 129 -45z" />
    <glyph glyph-name="acircumflex" unicode="&#xe2;" horiz-adv-x="539" 
d="M297 64h-9c-26 -47 -72 -81 -137 -81c-79 0 -140 56 -140 190c0 80 25 162 74 225c48 61 121 102 218 102c66 0 127 -25 167 -52l-40 -337c0 -5 3 -15 4 -17l70 7c0 -24 -14 -69 -27 -90c-34 -14 -113 -28 -154 -28c-13 23 -23 58 -26 81zM288 138l39 268
c-10 3 -25 4 -34 4c-38 0 -75 -28 -97 -61c-28 -42 -40 -115 -40 -166c0 -70 19 -94 50 -94c30 0 57 16 82 49zM256 756l102 6l114 -155c-14 -22 -47 -47 -73 -55l-102 105l-141 -107c-16 17 -32 57 -35 83z" />
    <glyph glyph-name="atilde" unicode="&#xe3;" horiz-adv-x="539" 
d="M297 64h-9c-26 -47 -72 -81 -137 -81c-79 0 -140 56 -140 190c0 80 25 162 74 225c48 61 121 102 218 102c66 0 127 -25 167 -52l-40 -337c0 -5 3 -15 4 -17l70 7c0 -24 -14 -69 -27 -90c-34 -14 -113 -28 -154 -28c-13 23 -23 58 -26 81zM288 138l39 268
c-10 3 -25 4 -34 4c-38 0 -75 -28 -97 -61c-28 -42 -40 -115 -40 -166c0 -70 19 -94 50 -94c30 0 57 16 82 49zM419 724c25 0 57 -3 79 -17c-10 -64 -61 -133 -151 -133c-63 0 -83 43 -133 43c-29 0 -44 -18 -52 -38c-27 4 -55 22 -65 43c15 59 61 107 139 107
c68 0 83 -42 131 -42c29 0 42 17 52 37z" />
    <glyph glyph-name="adieresis" unicode="&#xe4;" horiz-adv-x="539" 
d="M297 64h-9c-26 -47 -72 -81 -137 -81c-79 0 -140 56 -140 190c0 80 25 162 74 225c48 61 121 102 218 102c66 0 127 -25 167 -52l-40 -337c0 -5 3 -15 4 -17l70 7c0 -24 -14 -69 -27 -90c-34 -14 -113 -28 -154 -28c-13 23 -23 58 -26 81zM288 138l39 268
c-10 3 -25 4 -34 4c-38 0 -75 -28 -97 -61c-28 -42 -40 -115 -40 -166c0 -70 19 -94 50 -94c30 0 57 16 82 49zM171 727c45 0 75 -28 75 -76c0 -52 -32 -82 -75 -82c-49 0 -76 28 -76 82c0 44 33 76 76 76zM425 727c45 0 75 -28 75 -76c0 -52 -32 -82 -75 -82
c-49 0 -76 28 -76 82c0 44 33 76 76 76z" />
    <glyph glyph-name="aring" unicode="&#xe5;" horiz-adv-x="539" 
d="M297 64h-9c-26 -47 -72 -81 -137 -81c-79 0 -140 56 -140 190c0 80 25 162 74 225c48 61 121 102 218 102c66 0 127 -25 167 -52l-40 -337c0 -5 3 -15 4 -17l70 7c0 -24 -14 -69 -27 -90c-34 -14 -113 -28 -154 -28c-13 23 -23 58 -26 81zM288 138l39 268
c-10 3 -25 4 -34 4c-38 0 -75 -28 -97 -61c-28 -42 -40 -115 -40 -166c0 -70 19 -94 50 -94c30 0 57 16 82 49zM322 790c63 0 103 -29 103 -98c0 -80 -56 -133 -141 -133c-65 0 -102 30 -102 96c0 78 51 135 140 135zM315 727c-37 0 -58 -28 -58 -64c0 -28 12 -40 36 -40
c34 0 57 25 57 65c0 29 -12 39 -35 39z" />
    <glyph glyph-name="ae" unicode="&#xe6;" horiz-adv-x="756" 
d="M445 192v-13c0 -60 23 -80 66 -80c56 0 130 19 176 43c0 -28 -14 -74 -29 -100c-38 -29 -101 -59 -177 -59c-78 0 -131 27 -157 80h-9c-28 -41 -72 -80 -154 -80c-81 0 -145 38 -145 129c0 117 99 186 211 186c35 0 59 -5 88 -16c3 16 6 38 6 51c0 40 -27 60 -74 60
c-49 0 -126 -21 -167 -42c-2 7 -3 20 -3 30c0 29 11 69 25 96c39 15 127 28 188 28c76 0 112 -30 134 -63h9c24 34 62 58 132 58c100 0 154 -48 154 -129c0 -80 -55 -164 -274 -179zM220 83c38 0 68 23 84 42c-2 15 -3 29 -3 47c0 14 0 28 2 42c-19 3 -44 5 -57 5
c-53 0 -86 -34 -86 -80c0 -40 27 -56 60 -56zM454 284c110 8 125 48 125 82c0 25 -9 43 -33 43c-27 0 -53 -21 -69 -48c-12 -21 -20 -55 -23 -77z" />
    <glyph glyph-name="ccedilla" unicode="&#xe7;" horiz-adv-x="481" 
d="M130 -82l37 68c-102 15 -151 85 -151 189c0 88 24 174 76 236c46 54 116 89 200 89c60 0 111 -18 153 -44c0 -47 -13 -102 -34 -147c-31 0 -84 11 -109 30l7 62c-8 3 -20 5 -30 5c-33 0 -61 -17 -78 -43c-30 -45 -40 -116 -40 -166c0 -68 27 -100 82 -100
c50 0 119 18 162 36c0 -29 -16 -75 -33 -100c-30 -19 -68 -38 -113 -46l-13 -42c29 -7 53 -31 53 -69c0 -67 -81 -112 -150 -118c-19 13 -36 38 -43 61c36 5 71 24 71 56c0 24 -22 37 -47 43z" />
    <glyph glyph-name="egrave" unicode="&#xe8;" horiz-adv-x="470" 
d="M154 192v-13c0 -60 23 -80 67 -80c56 0 131 19 177 43c0 -28 -14 -74 -29 -100c-38 -29 -101 -59 -178 -59c-122 0 -180 66 -180 189c0 82 25 177 75 240c44 54 107 88 190 88c99 0 154 -48 154 -129c0 -80 -55 -164 -276 -179zM163 282c114 8 129 49 129 84
c0 26 -10 45 -35 45c-28 0 -54 -22 -70 -50c-13 -21 -21 -56 -24 -79zM278 553l-147 182c26 21 91 42 131 42l103 -192c-19 -16 -64 -32 -87 -32z" />
    <glyph glyph-name="eacute" unicode="&#xe9;" horiz-adv-x="470" 
d="M154 192v-13c0 -60 23 -80 67 -80c56 0 131 19 177 43c0 -28 -14 -74 -29 -100c-38 -29 -101 -59 -178 -59c-122 0 -180 66 -180 189c0 82 25 177 75 240c44 54 107 88 190 88c99 0 154 -48 154 -129c0 -80 -55 -164 -276 -179zM163 282c114 8 129 49 129 84
c0 26 -10 45 -35 45c-28 0 -54 -22 -70 -50c-13 -21 -21 -56 -24 -79zM444 725l-205 -180c-24 9 -55 36 -65 56l141 169c37 0 107 -19 129 -45z" />
    <glyph glyph-name="ecircumflex" unicode="&#xea;" horiz-adv-x="470" 
d="M154 192v-13c0 -60 23 -80 67 -80c56 0 131 19 177 43c0 -28 -14 -74 -29 -100c-38 -29 -101 -59 -178 -59c-122 0 -180 66 -180 189c0 82 25 177 75 240c44 54 107 88 190 88c99 0 154 -48 154 -129c0 -80 -55 -164 -276 -179zM163 282c114 8 129 49 129 84
c0 26 -10 45 -35 45c-28 0 -54 -22 -70 -50c-13 -21 -21 -56 -24 -79zM230 756l102 6l114 -155c-14 -22 -47 -47 -73 -55l-102 105l-141 -107c-16 17 -32 57 -35 83z" />
    <glyph glyph-name="edieresis" unicode="&#xeb;" horiz-adv-x="470" 
d="M154 192v-13c0 -60 23 -80 67 -80c56 0 131 19 177 43c0 -28 -14 -74 -29 -100c-38 -29 -101 -59 -178 -59c-122 0 -180 66 -180 189c0 82 25 177 75 240c44 54 107 88 190 88c99 0 154 -48 154 -129c0 -80 -55 -164 -276 -179zM163 282c114 8 129 49 129 84
c0 26 -10 45 -35 45c-28 0 -54 -22 -70 -50c-13 -21 -21 -56 -24 -79zM136 727c45 0 75 -28 75 -76c0 -52 -32 -82 -75 -82c-49 0 -76 28 -76 82c0 44 33 76 76 76zM390 727c45 0 75 -28 75 -76c0 -52 -32 -82 -75 -82c-49 0 -76 28 -76 82c0 44 33 76 76 76z" />
    <glyph glyph-name="igrave" unicode="&#xec;" horiz-adv-x="294" 
d="M81 385l-70 -6c0 18 12 74 25 87c31 18 81 28 128 28c17 0 44 -4 62 -9l-47 -374c0 -5 3 -15 4 -17l73 7c0 -24 -14 -69 -27 -90c-34 -14 -109 -28 -150 -28c-19 18 -46 68 -46 92zM167 553l-147 182c26 21 91 42 131 42l103 -192c-19 -16 -64 -32 -87 -32z" />
    <glyph glyph-name="iacute" unicode="&#xed;" horiz-adv-x="294" 
d="M81 385l-70 -6c0 18 12 74 25 87c31 18 81 28 128 28c17 0 44 -4 62 -9l-47 -374c0 -5 3 -15 4 -17l73 7c0 -24 -14 -69 -27 -90c-34 -14 -109 -28 -150 -28c-19 18 -46 68 -46 92zM339 725l-205 -180c-24 9 -55 36 -65 56l141 169c37 0 107 -19 129 -45z" />
    <glyph glyph-name="icircumflex" unicode="&#xee;" horiz-adv-x="294" 
d="M81 385l-70 -6c0 18 12 74 25 87c31 18 81 28 128 28c17 0 44 -4 62 -9l-47 -374c0 -5 3 -15 4 -17l73 7c0 -24 -14 -69 -27 -90c-34 -14 -109 -28 -150 -28c-19 18 -46 68 -46 92zM121 756l102 6l114 -155c-14 -22 -47 -47 -73 -55l-102 105l-141 -107
c-16 17 -32 57 -35 83z" />
    <glyph glyph-name="idieresis" unicode="&#xef;" horiz-adv-x="294" 
d="M47 727c45 0 75 -28 75 -76c0 -52 -32 -82 -75 -82c-49 0 -76 28 -76 82c0 44 33 76 76 76zM276 727c45 0 75 -28 75 -76c0 -52 -32 -82 -75 -82c-49 0 -76 28 -76 82c0 44 33 76 76 76zM81 385l-70 -6c0 18 12 74 25 87c31 18 81 28 128 28c17 0 44 -4 62 -9l-47 -374
c0 -5 3 -15 4 -17l73 7c0 -24 -14 -69 -27 -90c-34 -14 -109 -28 -150 -28c-19 18 -46 68 -46 92z" />
    <glyph glyph-name="eth" unicode="&#xf0;" horiz-adv-x="544" 
d="M356 435h15c-13 62 -41 105 -74 136l-137 -75c-10 23 -14 61 -14 86l80 41c-27 11 -66 22 -91 27c10 32 39 70 64 90c50 -13 104 -30 150 -56l107 56c12 -13 38 -49 43 -71l-77 -41c56 -58 93 -138 93 -264c0 -212 -108 -381 -307 -381c-122 0 -188 63 -188 195
c0 155 90 299 237 299c43 0 74 -13 99 -42zM369 342c-15 17 -48 40 -87 40c-77 0 -118 -91 -118 -185c0 -78 28 -116 74 -116c91 0 131 137 131 261z" />
    <glyph glyph-name="ntilde" unicode="&#xf1;" horiz-adv-x="564" 
d="M191 399h15c25 51 68 101 152 101c65 0 130 -33 130 -138c0 -57 -20 -175 -31 -251c0 -5 3 -15 4 -17l73 7c0 -24 -14 -69 -27 -90c-34 -14 -113 -28 -154 -28c-19 18 -46 68 -46 92c13 69 37 209 37 261c0 37 -13 62 -45 62c-35 0 -70 -37 -89 -68l-36 -326
c-22 -4 -54 -7 -85 -7c-24 0 -47 2 -64 7l57 381l-70 -6c0 18 12 74 25 87c28 18 67 28 107 28c19 0 38 -3 56 -9zM433 724c25 0 57 -3 79 -17c-10 -64 -61 -133 -151 -133c-63 0 -83 43 -133 43c-29 0 -44 -18 -52 -38c-27 4 -55 22 -65 43c15 59 61 107 139 107
c68 0 83 -42 131 -42c29 0 42 17 52 37z" />
    <glyph glyph-name="ograve" unicode="&#xf2;" horiz-adv-x="521" 
d="M208 -17c-126 0 -192 70 -192 210c0 63 13 125 43 178c43 76 118 129 225 129c124 0 194 -70 194 -210c0 -68 -16 -137 -51 -192c-43 -68 -116 -115 -219 -115zM227 78c38 0 64 25 80 62c18 41 24 97 24 147c0 83 -17 119 -60 119c-36 0 -64 -26 -81 -64
c-20 -44 -26 -102 -26 -149c0 -82 21 -115 63 -115zM299 553l-147 182c26 21 91 42 131 42l103 -192c-19 -16 -64 -32 -87 -32z" />
    <glyph glyph-name="oacute" unicode="&#xf3;" horiz-adv-x="521" 
d="M208 -17c-126 0 -192 70 -192 210c0 63 13 125 43 178c43 76 118 129 225 129c124 0 194 -70 194 -210c0 -68 -16 -137 -51 -192c-43 -68 -116 -115 -219 -115zM227 78c38 0 64 25 80 62c18 41 24 97 24 147c0 83 -17 119 -60 119c-36 0 -64 -26 -81 -64
c-20 -44 -26 -102 -26 -149c0 -82 21 -115 63 -115zM459 725l-205 -180c-24 9 -55 36 -65 56l141 169c37 0 107 -19 129 -45z" />
    <glyph glyph-name="ocircumflex" unicode="&#xf4;" horiz-adv-x="521" 
d="M208 -17c-126 0 -192 70 -192 210c0 63 13 125 43 178c43 76 118 129 225 129c124 0 194 -70 194 -210c0 -68 -16 -137 -51 -192c-43 -68 -116 -115 -219 -115zM227 78c38 0 64 25 80 62c18 41 24 97 24 147c0 83 -17 119 -60 119c-36 0 -64 -26 -81 -64
c-20 -44 -26 -102 -26 -149c0 -82 21 -115 63 -115zM246 756l102 6l114 -155c-14 -22 -47 -47 -73 -55l-102 105l-141 -107c-16 17 -32 57 -35 83z" />
    <glyph glyph-name="otilde" unicode="&#xf5;" horiz-adv-x="521" 
d="M208 -17c-126 0 -192 70 -192 210c0 63 13 125 43 178c43 76 118 129 225 129c124 0 194 -70 194 -210c0 -68 -16 -137 -51 -192c-43 -68 -116 -115 -219 -115zM227 78c38 0 64 25 80 62c18 41 24 97 24 147c0 83 -17 119 -60 119c-36 0 -64 -26 -81 -64
c-20 -44 -26 -102 -26 -149c0 -82 21 -115 63 -115zM411 724c25 0 57 -3 79 -17c-10 -64 -61 -133 -151 -133c-63 0 -83 43 -133 43c-29 0 -44 -18 -52 -38c-27 4 -55 22 -65 43c15 59 61 107 139 107c68 0 83 -42 131 -42c29 0 42 17 52 37z" />
    <glyph glyph-name="odieresis" unicode="&#xf6;" horiz-adv-x="521" 
d="M208 -17c-126 0 -192 70 -192 210c0 63 13 125 43 178c43 76 118 129 225 129c124 0 194 -70 194 -210c0 -68 -16 -137 -51 -192c-43 -68 -116 -115 -219 -115zM227 78c38 0 64 25 80 62c18 41 24 97 24 147c0 83 -17 119 -60 119c-36 0 -64 -26 -81 -64
c-20 -44 -26 -102 -26 -149c0 -82 21 -115 63 -115zM162 727c45 0 75 -28 75 -76c0 -52 -32 -82 -75 -82c-49 0 -76 28 -76 82c0 44 33 76 76 76zM416 727c45 0 75 -28 75 -76c0 -52 -32 -82 -75 -82c-49 0 -76 28 -76 82c0 44 33 76 76 76z" />
    <glyph glyph-name="divide" unicode="&#xf7;" 
d="M518 217h-486c0 32 8 80 16 109h465c4 -16 7 -47 7 -76c0 -12 -1 -24 -2 -33zM278 530c41 0 70 -23 70 -67c0 -48 -29 -73 -70 -73c-47 0 -72 24 -72 73c0 41 30 67 72 67zM278 147c41 0 70 -23 70 -67c0 -48 -29 -73 -70 -73c-47 0 -72 24 -72 73c0 41 30 67 72 67z" />
    <glyph glyph-name="oslash" unicode="&#xf8;" horiz-adv-x="550" 
d="M224 -17c-41 0 -75 7 -103 20l-69 -85c-15 14 -36 54 -45 77l52 65c-21 33 -31 78 -31 133c0 63 13 125 44 178c44 76 120 129 230 129c38 0 71 -7 99 -20l64 77c23 -9 57 -36 70 -54l-68 -81c21 -33 33 -77 33 -132c0 -68 -16 -137 -52 -192
c-44 -68 -119 -115 -224 -115zM243 78c40 0 68 25 85 62c19 41 25 97 25 147v9l-158 -196c11 -15 27 -22 48 -22zM176 193v-5l157 197c-10 14 -24 21 -44 21c-38 0 -67 -26 -85 -64c-22 -44 -28 -102 -28 -149z" />
    <glyph glyph-name="ugrave" unicode="&#xf9;" horiz-adv-x="566" 
d="M225 485c-10 -74 -36 -286 -36 -338c0 -37 11 -62 40 -62c34 0 68 30 87 57l33 243l-62 -5c0 18 12 73 25 86c30 18 78 28 123 28c17 0 43 -4 60 -9l-36 -374c0 -5 3 -15 4 -17l69 7c0 -24 -14 -69 -27 -90c-34 -14 -112 -28 -153 -28c-13 23 -23 61 -26 86h-9
c-24 -42 -66 -86 -149 -86c-62 0 -126 33 -126 138c0 57 25 197 38 264l-70 -6c0 18 12 74 25 87c31 18 81 28 128 28c17 0 44 -4 62 -9zM301 553l-147 182c26 21 91 42 131 42l103 -192c-19 -16 -64 -32 -87 -32z" />
    <glyph glyph-name="uacute" unicode="&#xfa;" horiz-adv-x="566" 
d="M225 485c-10 -74 -36 -286 -36 -338c0 -37 11 -62 40 -62c34 0 68 30 87 57l33 243l-62 -5c0 18 12 73 25 86c30 18 78 28 123 28c17 0 43 -4 60 -9l-36 -374c0 -5 3 -15 4 -17l69 7c0 -24 -14 -69 -27 -90c-34 -14 -112 -28 -153 -28c-13 23 -23 61 -26 86h-9
c-24 -42 -66 -86 -149 -86c-62 0 -126 33 -126 138c0 57 25 197 38 264l-70 -6c0 18 12 74 25 87c31 18 81 28 128 28c17 0 44 -4 62 -9zM474 725l-205 -180c-24 9 -55 36 -65 56l141 169c37 0 107 -19 129 -45z" />
    <glyph glyph-name="ucircumflex" unicode="&#xfb;" horiz-adv-x="566" 
d="M225 485c-10 -74 -36 -286 -36 -338c0 -37 11 -62 40 -62c34 0 68 30 87 57l33 243l-62 -5c0 18 12 73 25 86c30 18 78 28 123 28c17 0 43 -4 60 -9l-36 -374c0 -5 3 -15 4 -17l69 7c0 -24 -14 -69 -27 -90c-34 -14 -112 -28 -153 -28c-13 23 -23 61 -26 86h-9
c-24 -42 -66 -86 -149 -86c-62 0 -126 33 -126 138c0 57 25 197 38 264l-70 -6c0 18 12 74 25 87c31 18 81 28 128 28c17 0 44 -4 62 -9zM266 756l102 6l114 -155c-14 -22 -47 -47 -73 -55l-102 105l-141 -107c-16 17 -32 57 -35 83z" />
    <glyph glyph-name="udieresis" unicode="&#xfc;" horiz-adv-x="566" 
d="M225 485c-10 -74 -36 -286 -36 -338c0 -37 11 -62 40 -62c34 0 68 30 87 57l33 243l-62 -5c0 18 12 73 25 86c30 18 78 28 123 28c17 0 43 -4 60 -9l-36 -374c0 -5 3 -15 4 -17l69 7c0 -24 -14 -69 -27 -90c-34 -14 -112 -28 -153 -28c-13 23 -23 61 -26 86h-9
c-24 -42 -66 -86 -149 -86c-62 0 -126 33 -126 138c0 57 25 197 38 264l-70 -6c0 18 12 74 25 87c31 18 81 28 128 28c17 0 44 -4 62 -9zM163 727c45 0 75 -28 75 -76c0 -52 -32 -82 -75 -82c-49 0 -76 28 -76 82c0 44 33 76 76 76zM417 727c45 0 75 -28 75 -76
c0 -52 -32 -82 -75 -82c-49 0 -76 28 -76 82c0 44 33 76 76 76z" />
    <glyph glyph-name="yacute" unicode="&#xfd;" horiz-adv-x="489" 
d="M37 392l-61 -4c0 19 13 74 24 88c28 13 67 21 107 21c19 0 38 -4 55 -10l56 -256c7 -32 15 -93 16 -128h12c33 85 65 188 89 271c0 4 -2 12 -4 17l-68 -4c3 27 17 72 33 88c30 11 106 19 136 19c15 -13 42 -74 42 -99c-61 -161 -167 -375 -234 -455
c-63 -74 -134 -141 -230 -181c-20 26 -42 91 -42 127c68 20 132 52 175 101zM460 725l-205 -180c-24 9 -55 36 -65 56l141 169c37 0 107 -19 129 -45z" />
    <glyph glyph-name="thorn" unicode="&#xfe;" horiz-adv-x="539" 
d="M-6 -227l107 852l-68 -7c0 19 12 74 26 87c31 18 81 28 127 28c17 0 44 -4 62 -9l-14 -146c-4 -45 -20 -116 -33 -159h15c15 41 60 81 128 81c75 0 152 -49 152 -191c0 -89 -31 -187 -82 -246c-43 -49 -107 -80 -175 -80c-29 0 -59 6 -77 13l-19 -223
c-22 -4 -54 -7 -85 -7c-24 0 -47 2 -64 7zM204 337l-28 -252c9 -4 31 -6 44 -6c32 0 66 13 86 38c30 37 43 104 43 169c0 72 -16 110 -55 110c-33 0 -70 -28 -90 -59z" />
    <glyph glyph-name="ydieresis" unicode="&#xff;" horiz-adv-x="489" 
d="M37 392l-61 -4c0 19 13 74 24 88c28 13 67 21 107 21c19 0 38 -4 55 -10l56 -256c7 -32 15 -93 16 -128h12c33 85 65 188 89 271c0 4 -2 12 -4 17l-68 -4c3 27 17 72 33 88c30 11 106 19 136 19c15 -13 42 -74 42 -99c-61 -161 -167 -375 -234 -455
c-63 -74 -134 -141 -230 -181c-20 26 -42 91 -42 127c68 20 132 52 175 101zM149 727c45 0 75 -28 75 -76c0 -52 -32 -82 -75 -82c-49 0 -76 28 -76 82c0 44 33 76 76 76zM403 727c45 0 75 -28 75 -76c0 -52 -32 -82 -75 -82c-49 0 -76 28 -76 82c0 44 33 76 76 76z" />
    <glyph glyph-name="Amacron" unicode="&#x100;" horiz-adv-x="755" 
d="M723 0h-304c4 24 20 68 32 91c17 6 46 13 62 16c-12 18 -20 43 -27 66l-8 28h-237l-13 -33c-7 -17 -23 -47 -36 -65c21 -2 48 -7 65 -12c6 -23 12 -68 12 -91h-284c6 31 20 65 32 90c13 6 33 12 49 15l307 614h108l183 -611c16 -3 38 -9 51 -15c6 -27 8 -65 8 -93z
M401 573h-12c-6 -40 -31 -111 -45 -143l-60 -136h172l-35 136c-8 30 -20 102 -20 143zM632 788h-413c3 36 13 81 25 112h397c1 -12 1 -20 1 -25c0 -28 -3 -62 -10 -87z" />
    <glyph glyph-name="amacron" unicode="&#x101;" horiz-adv-x="539" 
d="M297 64h-9c-26 -47 -72 -81 -137 -81c-79 0 -140 56 -140 190c0 80 25 162 74 225c48 61 121 102 218 102c66 0 127 -25 167 -52l-40 -337c0 -5 3 -15 4 -17l70 7c0 -24 -14 -69 -27 -90c-34 -14 -113 -28 -154 -28c-13 23 -23 58 -26 81zM288 138l39 268
c-10 3 -25 4 -34 4c-38 0 -75 -28 -97 -61c-28 -42 -40 -115 -40 -166c0 -70 19 -94 50 -94c30 0 57 16 82 49zM464 597h-328c3 33 12 74 23 102h313c1 -10 1 -19 1 -23c0 -25 -3 -57 -9 -79z" />
    <glyph glyph-name="Abreve" unicode="&#x102;" horiz-adv-x="755" 
d="M723 0h-304c4 24 20 68 32 91c17 6 46 13 62 16c-12 18 -20 43 -27 66l-8 28h-237l-13 -33c-7 -17 -23 -47 -36 -65c21 -2 48 -7 65 -12c6 -23 12 -68 12 -91h-284c6 31 20 65 32 90c13 6 33 12 49 15l307 614h108l183 -611c16 -3 38 -9 51 -15c6 -27 8 -65 8 -93z
M401 573h-12c-6 -40 -31 -111 -45 -143l-60 -136h172l-35 136c-8 30 -20 102 -20 143zM329 953c10 -51 44 -78 106 -78c59 0 106 25 131 71c32 0 62 -12 85 -28c-25 -94 -109 -158 -235 -158c-115 0 -180 56 -188 150c18 20 64 39 101 43z" />
    <glyph glyph-name="abreve" unicode="&#x103;" horiz-adv-x="539" 
d="M297 64h-9c-26 -47 -72 -81 -137 -81c-79 0 -140 56 -140 190c0 80 25 162 74 225c48 61 121 102 218 102c66 0 127 -25 167 -52l-40 -337c0 -5 3 -15 4 -17l70 7c0 -24 -14 -69 -27 -90c-34 -14 -113 -28 -154 -28c-13 23 -23 58 -26 81zM288 138l39 268
c-10 3 -25 4 -34 4c-38 0 -75 -28 -97 -61c-28 -42 -40 -115 -40 -166c0 -70 19 -94 50 -94c30 0 57 16 82 49zM213 751c4 -60 30 -91 81 -91c50 0 81 32 104 86c28 -2 65 -12 83 -25c-28 -99 -99 -165 -203 -165c-99 0 -149 60 -151 158c17 17 55 32 86 37z" />
    <glyph glyph-name="Aogonek" unicode="&#x104;" horiz-adv-x="755" 
d="M612 -148c8 -18 14 -55 14 -82c-24 -10 -65 -15 -89 -15c-71 0 -135 35 -135 106c0 63 35 106 119 130v9h-102c4 24 20 68 32 91c17 6 46 13 62 16c-12 18 -20 43 -27 66l-8 28h-237l-13 -33c-7 -17 -23 -47 -36 -65c21 -2 48 -7 65 -12c6 -23 12 -68 12 -91h-284
c6 31 20 65 32 90c13 6 33 12 49 15l307 614h108l183 -611c16 -3 38 -9 51 -15c6 -27 8 -65 8 -93h-80c-68 -32 -105 -65 -105 -113c0 -27 18 -39 45 -39c10 0 20 2 29 4zM401 573h-12c-6 -40 -31 -111 -45 -143l-60 -136h172l-35 136c-8 30 -20 102 -20 143z" />
    <glyph glyph-name="aogonek" unicode="&#x105;" horiz-adv-x="539" 
d="M297 64h-9c-26 -47 -72 -81 -137 -81c-79 0 -140 56 -140 190c0 80 25 162 74 225c48 61 121 102 218 102c66 0 127 -25 167 -52l-40 -337c0 -5 3 -15 4 -17l70 7c0 -24 -14 -69 -27 -90c-69 -31 -114 -68 -114 -113c0 -25 18 -36 40 -36c9 0 19 2 25 4
c9 -21 13 -47 13 -73c-19 -9 -58 -15 -81 -15c-60 0 -116 30 -116 96c0 45 26 87 76 113c-12 23 -20 55 -23 77zM288 138l39 268c-10 3 -25 4 -34 4c-38 0 -75 -28 -97 -61c-28 -42 -40 -115 -40 -166c0 -70 19 -94 50 -94c30 0 57 16 82 49z" />
    <glyph glyph-name="Cacute" unicode="&#x106;" horiz-adv-x="637" 
d="M472 517l9 98c-19 10 -41 15 -66 15c-124 0 -218 -121 -218 -304c0 -160 71 -229 180 -229c50 0 134 14 197 38c0 -28 -16 -76 -33 -102c-58 -30 -136 -53 -211 -53c-183 0 -294 132 -294 330c0 251 182 419 396 419c73 0 142 -19 194 -47c-6 -60 -21 -143 -36 -194
c-37 0 -90 13 -118 29zM658 851l-296 -100c-5 18 -8 47 -8 71c0 4 0 13 1 23l239 114c25 -22 54 -72 64 -108z" />
    <glyph glyph-name="cacute" unicode="&#x107;" horiz-adv-x="481" 
d="M302 339l7 62c-8 3 -20 5 -30 5c-33 0 -61 -17 -78 -43c-30 -45 -40 -116 -40 -166c0 -68 27 -100 82 -100c51 0 120 20 162 41c0 -29 -16 -75 -33 -100c-38 -28 -93 -55 -160 -55c-133 0 -196 74 -196 192c0 88 24 174 76 236c46 54 116 89 200 89c60 0 111 -18 153 -44
c0 -47 -13 -102 -34 -147c-31 0 -84 11 -109 30zM475 725l-205 -180c-24 9 -55 36 -65 56l141 169c37 0 107 -19 129 -45z" />
    <glyph glyph-name="Ccircumflex" unicode="&#x108;" horiz-adv-x="637" 
d="M472 517l9 98c-19 10 -41 15 -66 15c-124 0 -218 -121 -218 -304c0 -160 71 -229 180 -229c50 0 134 14 197 38c0 -28 -16 -76 -33 -102c-58 -30 -136 -53 -211 -53c-183 0 -294 132 -294 330c0 251 182 419 396 419c73 0 142 -19 194 -47c-6 -60 -21 -143 -36 -194
c-37 0 -90 13 -118 29zM374 940h130l140 -108c-10 -26 -40 -65 -62 -79l-159 81l-190 -85c-13 24 -18 63 -18 90z" />
    <glyph glyph-name="ccircumflex" unicode="&#x109;" horiz-adv-x="481" 
d="M302 339l7 62c-8 3 -20 5 -30 5c-33 0 -61 -17 -78 -43c-30 -45 -40 -116 -40 -166c0 -68 27 -100 82 -100c51 0 120 20 162 41c0 -29 -16 -75 -33 -100c-38 -28 -93 -55 -160 -55c-133 0 -196 74 -196 192c0 88 24 174 76 236c46 54 116 89 200 89c60 0 111 -18 153 -44
c0 -47 -13 -102 -34 -147c-31 0 -84 11 -109 30zM252 756l102 6l114 -155c-14 -22 -47 -47 -73 -55l-102 105l-141 -107c-16 17 -32 57 -35 83z" />
    <glyph glyph-name="Cdotaccent" unicode="&#x10a;" horiz-adv-x="637" 
d="M472 517l9 98c-19 10 -41 15 -66 15c-124 0 -218 -121 -218 -304c0 -160 71 -229 180 -229c50 0 134 14 197 38c0 -28 -16 -76 -33 -102c-58 -30 -136 -53 -211 -53c-183 0 -294 132 -294 330c0 251 182 419 396 419c73 0 142 -19 194 -47c-6 -60 -21 -143 -36 -194
c-37 0 -90 13 -118 29zM424 925c50 0 85 -30 85 -80c0 -55 -37 -86 -85 -86c-56 0 -88 29 -88 86c0 46 38 80 88 80z" />
    <glyph glyph-name="cdotaccent" unicode="&#x10b;" horiz-adv-x="481" 
d="M302 339l7 62c-8 3 -20 5 -30 5c-33 0 -61 -17 -78 -43c-30 -45 -40 -116 -40 -166c0 -68 27 -100 82 -100c51 0 120 20 162 41c0 -29 -16 -75 -33 -100c-38 -28 -93 -55 -160 -55c-133 0 -196 74 -196 192c0 88 24 174 76 236c46 54 116 89 200 89c60 0 111 -18 153 -44
c0 -47 -13 -102 -34 -147c-31 0 -84 11 -109 30zM295 731c47 0 78 -29 78 -79c0 -54 -33 -85 -78 -85c-51 0 -79 29 -79 85c0 46 34 79 79 79z" />
    <glyph glyph-name="Ccaron" unicode="&#x10c;" horiz-adv-x="637" 
d="M472 517l9 98c-19 10 -41 15 -66 15c-124 0 -218 -121 -218 -304c0 -160 71 -229 180 -229c50 0 134 14 197 38c0 -28 -16 -76 -33 -102c-58 -30 -136 -53 -211 -53c-183 0 -294 132 -294 330c0 251 182 419 396 419c73 0 142 -19 194 -47c-6 -60 -21 -143 -36 -194
c-37 0 -90 13 -118 29zM476 761h-134l-142 124c19 21 70 44 105 49l130 -76l144 72c23 -8 51 -35 63 -54z" />
    <glyph glyph-name="ccaron" unicode="&#x10d;" horiz-adv-x="481" 
d="M302 339l7 62c-8 3 -20 5 -30 5c-33 0 -61 -17 -78 -43c-30 -45 -40 -116 -40 -166c0 -68 27 -100 82 -100c51 0 120 20 162 41c0 -29 -16 -75 -33 -100c-38 -28 -93 -55 -160 -55c-133 0 -196 74 -196 192c0 88 24 174 76 236c46 54 116 89 200 89c60 0 111 -18 153 -44
c0 -47 -13 -102 -34 -147c-31 0 -84 11 -109 30zM328 558l-109 -5l-119 167c19 19 65 36 91 38l105 -97l132 98c23 -7 57 -29 72 -47z" />
    <glyph glyph-name="Dcaron" unicode="&#x10e;" horiz-adv-x="736" 
d="M102 110l43 487c-19 2 -48 6 -63 9c-2 22 1 73 6 94c72 9 205 18 271 18c213 0 352 -98 352 -312c0 -274 -175 -414 -363 -414c-98 0 -246 4 -340 13c3 25 16 70 27 90c16 6 46 12 67 15zM292 615l-38 -519c19 -3 47 -5 68 -5c141 0 237 103 237 293
c0 161 -85 236 -213 236c-15 0 -38 -2 -54 -5zM451 761h-134l-142 124c19 21 70 44 105 49l130 -76l144 72c23 -8 51 -35 63 -54z" />
    <glyph glyph-name="dcaron" unicode="&#x10f;" horiz-adv-x="547" 
d="M512 724l-71 -613c0 -5 3 -15 4 -17l70 7c0 -24 -14 -69 -27 -90c-34 -14 -113 -28 -154 -28c-13 23 -23 58 -26 81h-9c-27 -47 -74 -81 -141 -81c-84 0 -149 55 -149 187c0 79 26 164 70 227c41 59 120 103 199 103c24 0 51 -5 69 -14l19 139l-68 -7c0 19 12 74 26 87
c31 18 81 28 127 28c17 0 43 -4 61 -9zM301 137l34 265c-14 4 -23 6 -40 6c-39 0 -74 -23 -95 -55c-31 -45 -43 -117 -43 -170c0 -70 20 -94 55 -94c34 0 61 16 89 48zM593 644l-43 10c10 27 32 62 49 81c12 3 31 5 47 5c26 0 62 -6 85 -15c-22 -76 -88 -199 -133 -258
c-20 5 -52 23 -63 33c23 42 46 100 58 144z" />
    <glyph glyph-name="Dcroat" unicode="&#x110;" horiz-adv-x="745" 
d="M110 110l17 195h-68c3 30 11 68 21 93h55l18 199c-19 2 -48 6 -63 9c-2 22 1 73 6 94c72 9 205 18 271 18c213 0 352 -98 352 -312c0 -274 -175 -414 -363 -414c-98 0 -246 4 -340 13c3 25 16 70 27 90c16 6 46 12 67 15zM431 305h-154l-15 -209c19 -3 47 -5 68 -5
c141 0 237 103 237 293c0 161 -85 236 -213 236c-15 0 -38 -2 -54 -5l-16 -217h154c3 -24 0 -65 -7 -93z" />
    <glyph glyph-name="dcroat" unicode="&#x111;" horiz-adv-x="599" 
d="M555 531h-63l-48 -420c0 -5 3 -15 4 -17l70 7c0 -24 -14 -69 -27 -90c-34 -14 -113 -28 -154 -28c-13 23 -23 58 -26 81h-9c-27 -47 -74 -81 -141 -81c-84 0 -149 54 -149 183c0 77 26 160 70 221c41 58 120 101 198 101c24 0 51 -5 69 -14l7 57h-151c2 24 9 52 17 72
h144l4 31l-68 -7c0 17 12 66 25 78c31 18 81 28 127 28c17 0 43 -4 61 -9l-14 -121h60c1 -10 1 -13 1 -16c0 -18 -3 -40 -7 -56zM304 137l33 253c-14 4 -23 6 -40 6c-38 0 -73 -22 -94 -53c-31 -43 -43 -113 -43 -164c0 -67 20 -90 55 -90c34 0 61 16 89 48z" />
    <glyph glyph-name="Emacron" unicode="&#x112;" horiz-adv-x="639" 
d="M563 0h-559c3 25 16 70 27 90c15 6 49 13 69 16l44 499c-20 2 -49 7 -63 12c-2 22 0 71 6 92h528l-17 -181c-33 0 -80 5 -109 15c-3 18 -5 51 -5 72h-194l-14 -207h155c2 11 8 31 12 44c29 9 73 15 108 15l-14 -205c-33 -3 -79 -1 -107 8c-3 12 -5 34 -5 46h-156
l-17 -220h189c4 26 12 58 21 81c27 9 83 15 116 15zM570 788h-413c3 36 13 81 25 112h397c1 -12 1 -20 1 -25c0 -28 -3 -62 -10 -87z" />
    <glyph glyph-name="emacron" unicode="&#x113;" horiz-adv-x="470" 
d="M154 192v-13c0 -60 23 -80 67 -80c56 0 131 19 177 43c0 -28 -14 -74 -29 -100c-38 -29 -101 -59 -178 -59c-122 0 -180 66 -180 189c0 82 25 177 75 240c44 54 107 88 190 88c99 0 154 -48 154 -129c0 -80 -55 -164 -276 -179zM163 282c114 8 129 49 129 84
c0 26 -10 45 -35 45c-28 0 -54 -22 -70 -50c-13 -21 -21 -56 -24 -79zM431 597h-328c3 33 12 74 23 102h313c1 -10 1 -19 1 -23c0 -25 -3 -57 -9 -79z" />
    <glyph glyph-name="Ebreve" unicode="&#x114;" horiz-adv-x="639" 
d="M563 0h-559c3 25 16 70 27 90c15 6 49 13 69 16l44 499c-20 2 -49 7 -63 12c-2 22 0 71 6 92h528l-17 -181c-33 0 -80 5 -109 15c-3 18 -5 51 -5 72h-194l-14 -207h155c2 11 8 31 12 44c29 9 73 15 108 15l-14 -205c-33 -3 -79 -1 -107 8c-3 12 -5 34 -5 46h-156
l-17 -220h189c4 26 12 58 21 81c27 9 83 15 116 15zM272 953c10 -51 44 -78 106 -78c59 0 106 25 131 71c32 0 62 -12 85 -28c-25 -94 -109 -158 -235 -158c-115 0 -180 56 -188 150c18 20 64 39 101 43z" />
    <glyph glyph-name="ebreve" unicode="&#x115;" horiz-adv-x="470" 
d="M154 192v-13c0 -60 23 -80 67 -80c56 0 131 19 177 43c0 -28 -14 -74 -29 -100c-38 -29 -101 -59 -178 -59c-122 0 -180 66 -180 189c0 82 25 177 75 240c44 54 107 88 190 88c99 0 154 -48 154 -129c0 -80 -55 -164 -276 -179zM163 282c114 8 129 49 129 84
c0 26 -10 45 -35 45c-28 0 -54 -22 -70 -50c-13 -21 -21 -56 -24 -79zM179 751c4 -60 30 -91 81 -91c50 0 81 32 104 86c28 -2 65 -12 83 -25c-28 -99 -99 -165 -203 -165c-99 0 -149 60 -151 158c17 17 55 32 86 37z" />
    <glyph glyph-name="Edotaccent" unicode="&#x116;" horiz-adv-x="639" 
d="M563 0h-559c3 25 16 70 27 90c15 6 49 13 69 16l44 499c-20 2 -49 7 -63 12c-2 22 0 71 6 92h528l-17 -181c-33 0 -80 5 -109 15c-3 18 -5 51 -5 72h-194l-14 -207h155c2 11 8 31 12 44c29 9 73 15 108 15l-14 -205c-33 -3 -79 -1 -107 8c-3 12 -5 34 -5 46h-156
l-17 -220h189c4 26 12 58 21 81c27 9 83 15 116 15zM379 925c50 0 85 -30 85 -80c0 -55 -37 -86 -85 -86c-56 0 -88 29 -88 86c0 46 38 80 88 80z" />
    <glyph glyph-name="edotaccent" unicode="&#x117;" horiz-adv-x="470" 
d="M154 192v-13c0 -60 23 -80 67 -80c56 0 131 19 177 43c0 -28 -14 -74 -29 -100c-38 -29 -101 -59 -178 -59c-122 0 -180 66 -180 189c0 82 25 177 75 240c44 54 107 88 190 88c99 0 154 -48 154 -129c0 -80 -55 -164 -276 -179zM163 282c114 8 129 49 129 84
c0 26 -10 45 -35 45c-28 0 -54 -22 -70 -50c-13 -21 -21 -56 -24 -79zM269 731c47 0 78 -29 78 -79c0 -54 -33 -85 -78 -85c-51 0 -79 29 -79 85c0 46 34 79 79 79z" />
    <glyph glyph-name="Eogonek" unicode="&#x118;" horiz-adv-x="639" 
d="M392 0h-388c3 25 16 70 27 90c15 6 49 13 69 16l44 499c-20 2 -49 7 -63 12c-2 22 0 71 6 92h528l-17 -181c-33 0 -80 5 -109 15c-3 18 -5 51 -5 72h-194l-14 -207h155c2 11 8 31 12 44c29 9 73 15 108 15l-14 -205c-33 -3 -79 -1 -107 8c-3 12 -5 34 -5 46h-156
l-17 -220h189c4 26 12 58 21 81c27 9 83 15 116 15l-15 -192h-51c-68 -32 -105 -65 -105 -113c0 -27 18 -39 45 -39c10 0 20 2 29 4c8 -18 14 -55 14 -82c-24 -10 -65 -15 -89 -15c-71 0 -135 35 -135 106c0 65 39 110 121 130v9z" />
    <glyph glyph-name="eogonek" unicode="&#x119;" horiz-adv-x="470" 
d="M154 192v-13c0 -60 23 -80 67 -80c56 0 131 19 177 43c0 -28 -14 -74 -29 -100c-18 -14 -42 -27 -70 -39c-63 -27 -97 -65 -97 -105c0 -25 18 -36 40 -36c9 0 19 2 25 4c9 -21 13 -47 13 -73c-19 -9 -58 -15 -81 -15c-60 0 -116 30 -116 96c0 45 24 86 71 104v9
c-93 12 -143 74 -143 185c0 82 25 177 75 240c44 54 107 88 190 88c99 0 154 -48 154 -129c0 -80 -55 -164 -276 -179zM163 282c114 8 129 49 129 84c0 26 -10 45 -35 45c-28 0 -54 -22 -70 -50c-13 -21 -21 -56 -24 -79z" />
    <glyph glyph-name="Ecaron" unicode="&#x11a;" horiz-adv-x="639" 
d="M563 0h-559c3 25 16 70 27 90c15 6 49 13 69 16l44 499c-20 2 -49 7 -63 12c-2 22 0 71 6 92h528l-17 -181c-33 0 -80 5 -109 15c-3 18 -5 51 -5 72h-194l-14 -207h155c2 11 8 31 12 44c29 9 73 15 108 15l-14 -205c-33 -3 -79 -1 -107 8c-3 12 -5 34 -5 46h-156
l-17 -220h189c4 26 12 58 21 81c27 9 83 15 116 15zM435 761h-134l-142 124c19 21 70 44 105 49l130 -76l144 72c23 -8 51 -35 63 -54z" />
    <glyph glyph-name="ecaron" unicode="&#x11b;" horiz-adv-x="470" 
d="M154 192v-13c0 -60 23 -80 67 -80c56 0 131 19 177 43c0 -28 -14 -74 -29 -100c-38 -29 -101 -59 -178 -59c-122 0 -180 66 -180 189c0 82 25 177 75 240c44 54 107 88 190 88c99 0 154 -48 154 -129c0 -80 -55 -164 -276 -179zM163 282c114 8 129 49 129 84
c0 26 -10 45 -35 45c-28 0 -54 -22 -70 -50c-13 -21 -21 -56 -24 -79zM302 558l-109 -5l-119 167c19 19 65 36 91 38l105 -97l132 98c23 -7 57 -29 72 -47z" />
    <glyph glyph-name="Gcircumflex" unicode="&#x11c;" horiz-adv-x="733" 
d="M622 261l-20 -231c-58 -20 -184 -50 -274 -50c-188 0 -289 125 -289 316c0 249 171 433 416 433c84 0 152 -21 215 -62c-5 -50 -21 -137 -37 -182c-36 0 -97 15 -117 27l10 102c-24 13 -57 20 -86 20c-131 0 -239 -129 -239 -327c0 -158 67 -223 181 -223c24 0 58 3 83 6
l18 170c-31 0 -89 4 -121 11c-5 25 -8 63 -8 90h358c-2 -24 -11 -65 -21 -90c-17 -4 -52 -9 -69 -10zM389 940h130l140 -108c-10 -26 -40 -65 -62 -79l-159 81l-190 -85c-13 24 -18 63 -18 90z" />
    <glyph glyph-name="gcircumflex" unicode="&#x11d;" horiz-adv-x="510" 
d="M306 83h-16c-25 -52 -71 -90 -136 -90c-85 0 -146 54 -146 186c0 79 25 159 74 221c48 60 121 100 218 100c66 0 128 -25 168 -52l-46 -431c-15 -145 -72 -265 -256 -265c-46 0 -107 9 -154 24c-10 24 -16 54 -16 84c0 15 3 38 7 51c55 -33 116 -51 160 -51
c83 0 104 49 113 114c4 33 17 79 30 109zM325 406c-10 3 -26 4 -35 4c-38 0 -75 -27 -97 -59c-28 -41 -40 -112 -40 -161c0 -69 20 -90 56 -90c32 0 68 28 94 79zM254 756l102 6l114 -155c-14 -22 -47 -47 -73 -55l-102 105l-141 -107c-16 17 -32 57 -35 83z" />
    <glyph glyph-name="Gbreve" unicode="&#x11e;" horiz-adv-x="733" 
d="M622 261l-20 -231c-58 -20 -184 -50 -274 -50c-188 0 -289 125 -289 316c0 249 171 433 416 433c84 0 152 -21 215 -62c-5 -50 -21 -137 -37 -182c-36 0 -97 15 -117 27l10 102c-24 13 -57 20 -86 20c-131 0 -239 -129 -239 -327c0 -158 67 -223 181 -223c24 0 58 3 83 6
l18 170c-31 0 -89 4 -121 11c-5 25 -8 63 -8 90h358c-2 -24 -11 -65 -21 -90c-17 -4 -52 -9 -69 -10zM327 953c10 -51 44 -78 106 -78c59 0 106 25 131 71c32 0 62 -12 85 -28c-25 -94 -109 -158 -235 -158c-115 0 -180 56 -188 150c18 20 64 39 101 43z" />
    <glyph glyph-name="gbreve" unicode="&#x11f;" horiz-adv-x="510" 
d="M306 83h-16c-25 -52 -71 -90 -136 -90c-85 0 -146 54 -146 186c0 79 25 159 74 221c48 60 121 100 218 100c66 0 128 -25 168 -52l-46 -431c-15 -145 -72 -265 -256 -265c-46 0 -107 9 -154 24c-10 24 -16 54 -16 84c0 15 3 38 7 51c55 -33 116 -51 160 -51
c83 0 104 49 113 114c4 33 17 79 30 109zM325 406c-10 3 -26 4 -35 4c-38 0 -75 -27 -97 -59c-28 -41 -40 -112 -40 -161c0 -69 20 -90 56 -90c32 0 68 28 94 79zM201 751c4 -60 30 -91 81 -91c50 0 81 32 104 86c28 -2 65 -12 83 -25c-28 -99 -99 -165 -203 -165
c-99 0 -149 60 -151 158c17 17 55 32 86 37z" />
    <glyph glyph-name="Gdotaccent" unicode="&#x120;" horiz-adv-x="733" 
d="M622 261l-20 -231c-58 -20 -184 -50 -274 -50c-188 0 -289 125 -289 316c0 249 171 433 416 433c84 0 152 -21 215 -62c-5 -50 -21 -137 -37 -182c-36 0 -97 15 -117 27l10 102c-24 13 -57 20 -86 20c-131 0 -239 -129 -239 -327c0 -158 67 -223 181 -223c24 0 58 3 83 6
l18 170c-31 0 -89 4 -121 11c-5 25 -8 63 -8 90h358c-2 -24 -11 -65 -21 -90c-17 -4 -52 -9 -69 -10zM438 925c50 0 85 -30 85 -80c0 -55 -37 -86 -85 -86c-56 0 -88 29 -88 86c0 46 38 80 88 80z" />
    <glyph glyph-name="gdotaccent" unicode="&#x121;" horiz-adv-x="510" 
d="M306 83h-16c-25 -52 -71 -90 -136 -90c-85 0 -146 54 -146 186c0 79 25 159 74 221c48 60 121 100 218 100c66 0 128 -25 168 -52l-46 -431c-15 -145 -72 -265 -256 -265c-46 0 -107 9 -154 24c-10 24 -16 54 -16 84c0 15 3 38 7 51c55 -33 116 -51 160 -51
c83 0 104 49 113 114c4 33 17 79 30 109zM325 406c-10 3 -26 4 -35 4c-38 0 -75 -27 -97 -59c-28 -41 -40 -112 -40 -161c0 -69 20 -90 56 -90c32 0 68 28 94 79zM283 731c47 0 78 -29 78 -79c0 -54 -33 -85 -78 -85c-51 0 -79 29 -79 85c0 46 34 79 79 79z" />
    <glyph glyph-name="Gcommaaccent" unicode="&#x122;" horiz-adv-x="733" 
d="M622 261l-20 -231c-58 -20 -184 -50 -274 -50c-188 0 -289 125 -289 316c0 249 171 433 416 433c84 0 152 -21 215 -62c-5 -50 -21 -137 -37 -182c-36 0 -97 15 -117 27l10 102c-24 13 -57 20 -86 20c-131 0 -239 -129 -239 -327c0 -158 67 -223 181 -223c24 0 58 3 83 6
l18 170c-31 0 -89 4 -121 11c-5 25 -8 63 -8 90h358c-2 -24 -11 -65 -21 -90c-17 -4 -52 -9 -69 -10zM291 -152l-51 11c11 29 34 69 52 88c16 4 34 6 52 6c32 0 65 -6 92 -16c-20 -82 -90 -217 -137 -279c-22 6 -58 23 -69 34c23 46 50 109 61 156z" />
    <glyph glyph-name="gcommaaccent" unicode="&#x123;" horiz-adv-x="510" 
d="M306 83h-16c-25 -52 -71 -90 -136 -90c-85 0 -146 54 -146 186c0 79 25 159 74 221c48 60 121 100 218 100c66 0 128 -25 168 -52l-46 -431c-15 -145 -72 -265 -256 -265c-46 0 -107 9 -154 24c-10 24 -16 54 -16 84c0 15 3 38 7 51c55 -33 116 -51 160 -51
c83 0 104 49 113 114c4 33 17 79 30 109zM325 406c-10 3 -26 4 -35 4c-38 0 -75 -27 -97 -59c-28 -41 -40 -112 -40 -161c0 -69 20 -90 56 -90c32 0 68 28 94 79zM391 812c-21 -43 -50 -116 -62 -154l53 -13c-8 -24 -35 -66 -55 -85c-45 5 -100 21 -131 41
c26 73 71 151 110 202c17 6 58 9 85 9z" />
    <glyph glyph-name="Hcircumflex" unicode="&#x124;" horiz-adv-x="823" 
d="M550 311h-278l-16 -205c23 -2 52 -8 70 -14c4 -22 2 -71 -4 -92h-316c4 25 17 70 28 90c15 6 50 13 69 16l47 499c-20 2 -49 7 -63 12c-2 22 1 71 7 92h278c2 -20 -4 -71 -11 -92c-16 -5 -48 -10 -66 -11l-14 -196h279l18 195c-18 2 -44 7 -57 12c-1 22 1 71 8 92h277
c1 -6 1 -11 1 -13c0 -24 -4 -62 -11 -79c-18 -5 -53 -10 -73 -11l-39 -500c25 -2 57 -8 77 -14c4 -22 2 -71 -4 -92h-315c4 25 16 70 26 90c14 6 45 13 63 16zM413 940h130l140 -108c-10 -26 -40 -65 -62 -79l-159 81l-190 -85c-13 24 -18 63 -18 90z" />
    <glyph glyph-name="hcircumflex" unicode="&#x125;" horiz-adv-x="563" 
d="M140 925h127l135 -105c-10 -26 -37 -61 -59 -75l-154 79l-186 -83c-13 24 -18 58 -18 85zM21 4l84 621l-68 -7c0 19 12 74 26 87c31 18 81 28 127 28c17 0 42 -4 60 -9l-15 -144c-5 -51 -18 -109 -34 -162h15c28 44 70 82 141 82c65 0 130 -33 130 -138
c0 -57 -20 -175 -31 -251c0 -5 3 -15 4 -17l73 7c0 -24 -14 -69 -27 -90c-34 -14 -113 -28 -154 -28c-19 18 -46 68 -46 92c13 69 37 209 37 261c0 37 -13 62 -45 62c-37 0 -73 -41 -93 -73l-35 -321c-22 -4 -54 -7 -85 -7c-24 0 -47 2 -64 7z" />
    <glyph glyph-name="Hbar" unicode="&#x126;" horiz-adv-x="833" 
d="M96 551h54l6 61c-20 2 -50 7 -64 11c-2 21 1 66 7 86h278v-4c0 -27 -3 -54 -11 -82c-16 -4 -47 -9 -65 -10l-5 -62h282l6 61c-18 2 -45 7 -58 11c-1 21 1 66 8 86h278v-4c0 -27 -3 -54 -11 -82c-18 -4 -52 -9 -72 -10l-5 -62h66c2 -23 0 -62 -7 -88h-66l-28 -357
c25 -2 57 -8 77 -14c4 -22 2 -71 -4 -92h-315c4 25 16 70 26 90c14 6 45 13 63 16l18 184h-280l-13 -184c23 -2 52 -8 70 -14c4 -22 2 -71 -4 -92h-316c4 25 17 70 28 90c15 6 50 13 69 16l34 357h-67c3 30 11 63 21 88zM283 389h281l6 74h-281z" />
    <glyph glyph-name="hbar" unicode="&#x127;" horiz-adv-x="566" 
d="M400 530h-168c-6 -41 -17 -83 -28 -121h15c28 44 70 82 141 82c65 0 130 -32 130 -135c0 -55 -20 -171 -31 -245c0 -5 3 -15 4 -17l73 7c0 -24 -14 -69 -27 -90c-34 -14 -113 -28 -154 -28c-19 18 -46 68 -46 92c13 67 37 203 37 254c0 36 -13 60 -45 60
c-37 0 -73 -40 -93 -71l-35 -314c-22 -4 -54 -7 -85 -7c-24 0 -47 2 -64 7l71 526h-62c2 24 9 52 17 72h54l5 32l-68 -7c0 17 12 66 25 78c31 18 81 28 127 28c17 0 42 -4 60 -9l-12 -122h165c2 -18 0 -50 -6 -72z" />
    <glyph glyph-name="Itilde" unicode="&#x128;" horiz-adv-x="394" 
d="M328 0h-323c4 25 17 70 28 90c15 6 49 13 69 16l47 499c-20 2 -49 7 -63 12c-2 22 1 71 7 92h286c1 -6 1 -11 1 -13c0 -24 -4 -62 -11 -79c-18 -5 -53 -10 -73 -11l-41 -500c25 -2 57 -8 77 -14c3 -22 2 -71 -4 -92zM391 926c28 0 59 -8 81 -20
c-9 -68 -61 -142 -169 -142c-74 0 -97 47 -161 47c-30 0 -51 -26 -58 -44c-32 5 -59 28 -74 51c19 61 71 112 159 112c82 0 100 -45 163 -45c30 0 49 18 59 41z" />
    <glyph glyph-name="itilde" unicode="&#x129;" horiz-adv-x="294" 
d="M81 385l-70 -6c0 18 12 74 25 87c31 18 81 28 128 28c17 0 44 -4 62 -9l-47 -374c0 -5 3 -15 4 -17l73 7c0 -24 -14 -69 -27 -90c-34 -14 -109 -28 -150 -28c-19 18 -46 68 -46 92zM282 724c25 0 57 -3 79 -17c-10 -64 -61 -133 -151 -133c-63 0 -83 43 -133 43
c-29 0 -44 -18 -52 -38c-27 4 -55 22 -65 43c15 59 61 107 139 107c68 0 83 -42 131 -42c29 0 42 17 52 37z" />
    <glyph glyph-name="Imacron" unicode="&#x12a;" horiz-adv-x="394" 
d="M430 788h-379c3 36 13 81 25 112h363c1 -7 1 -16 1 -25c0 -28 -3 -62 -10 -87zM328 0h-323c4 25 17 70 28 90c15 6 49 13 69 16l47 499c-20 2 -49 7 -63 12c-2 22 1 71 7 92h286c1 -6 1 -11 1 -13c0 -24 -4 -62 -11 -79c-18 -5 -53 -10 -73 -11l-41 -500
c25 -2 57 -8 77 -14c3 -22 2 -71 -4 -92z" />
    <glyph glyph-name="imacron" unicode="&#x12b;" horiz-adv-x="294" 
d="M309 597h-302c3 33 12 74 23 102h287c1 -7 1 -14 1 -23c0 -25 -3 -57 -9 -79zM81 385l-70 -6c0 18 12 74 25 87c31 18 81 28 128 28c17 0 44 -4 62 -9l-47 -374c0 -5 3 -15 4 -17l73 7c0 -24 -14 -69 -27 -90c-34 -14 -109 -28 -150 -28c-19 18 -46 68 -46 92z" />
    <glyph glyph-name="Ibreve" unicode="&#x12c;" horiz-adv-x="394" 
d="M328 0h-323c4 25 17 70 28 90c15 6 49 13 69 16l47 499c-20 2 -49 7 -63 12c-2 22 1 71 7 92h286c1 -6 1 -11 1 -13c0 -24 -4 -62 -11 -79c-18 -5 -53 -10 -73 -11l-41 -500c25 -2 57 -8 77 -14c3 -22 2 -71 -4 -92zM138 953c10 -51 44 -78 106 -78c59 0 106 25 131 71
c32 0 62 -12 85 -28c-25 -94 -109 -158 -235 -158c-115 0 -180 56 -188 150c18 20 64 39 101 43z" />
    <glyph glyph-name="ibreve" unicode="&#x12d;" horiz-adv-x="294" 
d="M81 385l-70 -6c0 18 12 74 25 87c31 18 81 28 128 28c17 0 44 -4 62 -9l-47 -374c0 -5 3 -15 4 -17l73 7c0 -24 -14 -69 -27 -90c-34 -14 -109 -28 -150 -28c-19 18 -46 68 -46 92zM80 751c4 -60 30 -91 81 -91c50 0 81 32 104 86c28 -2 65 -12 83 -25
c-28 -99 -99 -165 -203 -165c-99 0 -149 60 -151 158c17 17 55 32 86 37z" />
    <glyph glyph-name="Iogonek" unicode="&#x12e;" horiz-adv-x="394" 
d="M249 -148c8 -19 14 -55 14 -82c-24 -11 -65 -15 -89 -15c-71 0 -135 35 -135 106c0 64 36 111 119 130v9h-153c3 25 18 70 28 90c15 7 49 13 69 16l47 499c-21 3 -48 7 -63 12c-3 22 2 71 7 92h286c1 -6 1 -11 1 -13c0 -24 -4 -62 -11 -79c-19 -5 -53 -10 -73 -11
l-41 -500c25 -3 57 -7 77 -14c3 -22 1 -71 -4 -92h-48c-68 -32 -105 -65 -105 -113c0 -27 18 -39 45 -39c11 0 20 1 29 4z" />
    <glyph glyph-name="iogonek" unicode="&#x12f;" horiz-adv-x="294" 
d="M81 385l-70 -6c0 18 12 74 25 87c31 18 81 28 128 28c17 0 44 -4 62 -9l-44 -374c0 -5 3 -15 4 -17l70 7c0 -24 -14 -69 -27 -90c-71 -31 -117 -70 -117 -113c0 -25 18 -36 40 -36c9 0 19 2 25 4c9 -21 13 -47 13 -73c-19 -9 -58 -15 -81 -15c-60 0 -116 30 -116 96
c0 53 32 91 82 108v9c-19 12 -44 60 -44 84zM172 765c50 0 84 -31 84 -86c0 -58 -36 -92 -84 -92c-56 0 -86 31 -86 92c0 50 37 86 86 86z" />
    <glyph glyph-name="Idotaccent" unicode="&#x130;" horiz-adv-x="394" 
d="M328 0h-323c4 25 17 70 28 90c15 6 49 13 69 16l47 499c-20 2 -49 7 -63 12c-2 22 1 71 7 92h286c1 -6 1 -11 1 -13c0 -24 -4 -62 -11 -79c-18 -5 -53 -10 -73 -11l-41 -500c25 -2 57 -8 77 -14c3 -22 2 -71 -4 -92zM245 925c50 0 85 -30 85 -80c0 -55 -37 -86 -85 -86
c-56 0 -88 29 -88 86c0 46 38 80 88 80z" />
    <glyph glyph-name="dotlessi" unicode="&#x131;" horiz-adv-x="294" 
d="M81 385l-70 -6c0 18 12 74 25 87c31 18 81 28 128 28c17 0 44 -4 62 -9l-47 -374c0 -5 3 -15 4 -17l73 7c0 -24 -14 -69 -27 -90c-34 -14 -109 -28 -150 -28c-19 18 -46 68 -46 92z" />
    <glyph glyph-name="IJ" unicode="&#x132;" horiz-adv-x="755" 
d="M328 0h-323c4 25 17 70 28 90c15 6 49 13 69 16l47 499c-20 2 -49 7 -63 12c-2 22 1 71 7 92h286c1 -6 1 -11 1 -13c0 -24 -4 -62 -11 -79c-18 -5 -53 -10 -73 -11l-41 -500c25 -2 57 -8 77 -14c3 -22 2 -71 -4 -92zM682 606l-27 -364c-15 -198 -119 -344 -298 -425
c-17 18 -36 55 -40 80c119 67 173 182 185 319l34 389c-27 2 -63 7 -82 12c-3 22 1 71 7 92h303c1 -6 1 -11 1 -13c0 -24 -4 -62 -11 -79c-17 -5 -53 -10 -72 -11z" />
    <glyph glyph-name="ij" unicode="&#x133;" horiz-adv-x="576" 
d="M81 385l-70 -6c0 18 12 74 25 87c31 18 81 28 128 28c17 0 44 -4 62 -9l-44 -374c0 -5 3 -15 4 -17l70 7c0 -24 -14 -69 -27 -90c-34 -14 -110 -28 -152 -28c-19 18 -46 68 -46 92zM172 765c50 0 84 -31 84 -86c0 -58 -36 -92 -84 -92c-56 0 -86 31 -86 92
c0 50 37 86 86 86zM277 -237c-25 11 -57 36 -71 60c58 60 118 167 134 286l37 276l-70 -6c0 18 12 74 25 87c31 18 81 28 128 28c17 0 44 -4 62 -9l-38 -339c-17 -158 -100 -285 -207 -383zM456 765c50 0 84 -31 84 -86c0 -58 -36 -92 -84 -92c-56 0 -86 31 -86 92
c0 50 37 86 86 86z" />
    <glyph glyph-name="Jcircumflex" unicode="&#x134;" horiz-adv-x="361" 
d="M288 606l-27 -364c-15 -198 -119 -344 -298 -425c-17 18 -36 55 -40 80c119 67 173 182 185 319l34 389c-27 2 -63 7 -82 12c-3 22 1 71 7 92h303c1 -6 1 -11 1 -13c0 -24 -4 -62 -11 -79c-17 -5 -53 -10 -72 -11zM179 940h130l140 -108c-10 -26 -40 -65 -62 -79l-159 81
l-190 -85c-13 24 -18 63 -18 90z" />
    <glyph glyph-name="jcircumflex" unicode="&#x135;" horiz-adv-x="279" 
d="M-17 -237c-25 11 -57 36 -71 60c58 60 118 167 134 286l37 276l-70 -6c0 18 12 74 25 87c31 18 81 28 128 28c17 0 44 -4 62 -9l-38 -339c-17 -158 -100 -285 -207 -383zM139 756l102 6l114 -155c-14 -22 -47 -47 -73 -55l-102 105l-141 -107c-16 17 -32 57 -35 83z" />
    <glyph glyph-name="Kcommaaccent" unicode="&#x136;" horiz-adv-x="742" 
d="M282 405h61l117 148c12 17 34 41 51 53c-16 2 -40 7 -50 10c-5 25 -4 69 -1 93h279c-4 -27 -16 -72 -27 -99c-19 -4 -45 -6 -62 -7l-199 -235l185 -265l64 4c-2 -32 -20 -82 -36 -107c-35 -9 -95 -18 -139 -20l-209 333h-40l-17 -207c23 -2 51 -8 69 -14
c4 -22 2 -71 -4 -92h-316c4 25 17 70 28 90c15 6 51 13 69 16l47 499c-20 2 -49 7 -63 12c-2 22 1 71 7 92h278c2 -20 -4 -71 -11 -92c-16 -5 -47 -10 -65 -11zM319 -152l-51 11c11 29 34 69 52 88c16 4 34 6 52 6c32 0 65 -6 92 -16c-20 -82 -90 -217 -137 -279
c-22 6 -58 23 -69 34c23 46 50 109 61 156z" />
    <glyph glyph-name="kcommaaccent" unicode="&#x137;" horiz-adv-x="523" 
d="M18 4l77 621l-68 -7c0 19 12 74 26 87c31 18 81 28 127 28c17 0 44 -4 62 -9l-50 -469c54 34 109 78 148 120c0 6 -2 14 -4 18l-64 -3c3 27 18 72 35 87c30 11 105 17 137 17c16 -14 45 -75 45 -102c-38 -47 -85 -100 -156 -147c27 -56 68 -120 94 -155l59 7
c0 -25 -13 -74 -27 -100c-30 -11 -81 -18 -117 -21c-41 48 -87 133 -120 207c-9 -5 -28 -14 -38 -18l-17 -161c-22 -4 -54 -7 -85 -7c-24 0 -47 2 -64 7zM178 -154l-49 10c12 29 33 67 51 86c14 4 34 6 50 6c27 0 66 -5 90 -13c-22 -77 -88 -207 -131 -267
c-22 6 -54 25 -65 34c19 43 42 102 54 144z" />
    <glyph glyph-name="kgreenlandic" unicode="&#x138;" horiz-adv-x="542" 
d="M80 386l-68 -7c0 19 12 74 26 87c31 18 81 28 127 28c18 0 45 -4 62 -9l-23 -230c56 34 114 78 155 120c0 6 -2 14 -4 18l-64 -3c4 27 19 72 36 87c31 11 106 17 138 17c15 -14 43 -75 43 -102c-39 -48 -91 -100 -163 -147c28 -56 69 -120 99 -155l59 7
c0 -25 -14 -74 -28 -100c-30 -11 -82 -18 -118 -21c-42 48 -87 133 -121 207c-9 -5 -31 -14 -41 -18l-19 -161c-22 -4 -53 -7 -84 -7c-24 0 -47 2 -64 7z" />
    <glyph glyph-name="Lacute" unicode="&#x139;" horiz-adv-x="628" 
d="M104 106l47 499c-20 2 -49 7 -63 12c-2 22 1 71 7 92h313c2 -20 -4 -71 -12 -92c-23 -5 -73 -10 -100 -11l-40 -508h192c5 27 17 76 24 98c31 11 88 17 120 17l-19 -213h-566c4 25 17 70 28 90c16 6 49 13 69 16zM484 851l-296 -100c-5 18 -8 47 -8 71c0 4 0 13 1 23
l239 114c25 -22 54 -72 64 -108z" />
    <glyph glyph-name="lacute" unicode="&#x13a;" horiz-adv-x="285" 
d="M359 851l-296 -100c-7 25 -10 62 -8 87l243 116c25 -22 51 -67 61 -103zM244 724l-70 -613c0 -5 3 -15 4 -17l70 7c0 -24 -14 -69 -27 -90c-34 -14 -110 -28 -152 -28c-19 18 -46 68 -46 92l74 550l-68 -7c0 19 12 74 26 87c31 18 81 28 127 28c17 0 44 -4 62 -9z" />
    <glyph glyph-name="Lcommaaccent" unicode="&#x13b;" horiz-adv-x="628" 
d="M104 106l47 499c-20 2 -49 7 -63 12c-2 22 1 71 7 92h313c2 -20 -4 -71 -12 -92c-23 -5 -73 -10 -100 -11l-40 -508h192c5 27 17 76 24 98c31 11 88 17 120 17l-19 -213h-566c4 25 17 70 28 90c16 6 49 13 69 16zM280 -152l-51 11c11 29 34 69 52 88c16 4 34 6 52 6
c32 0 65 -6 92 -16c-20 -82 -90 -217 -137 -279c-22 6 -58 23 -69 34c23 46 50 109 61 156z" />
    <glyph glyph-name="lcommaaccent" unicode="&#x13c;" horiz-adv-x="285" 
d="M244 724l-70 -613c0 -5 3 -15 4 -17l70 7c0 -24 -14 -69 -27 -90c-34 -14 -110 -28 -152 -28c-19 18 -46 68 -46 92l74 550l-68 -7c0 19 12 74 26 87c31 18 81 28 127 28c17 0 44 -4 62 -9zM46 -154l-49 10c12 29 33 67 51 86c14 4 34 6 50 6c27 0 66 -5 90 -13
c-22 -77 -88 -207 -131 -267c-22 6 -54 25 -65 34c19 43 42 102 54 144z" />
    <glyph glyph-name="Lcaron" unicode="&#x13d;" horiz-adv-x="628" 
d="M512 612l-52 11c10 28 33 65 51 85c17 4 37 7 56 7c31 0 63 -6 90 -16c-22 -82 -95 -218 -144 -281c-24 6 -53 23 -65 36c25 46 52 110 64 158zM104 106l47 499c-20 2 -49 7 -63 12c-2 22 1 71 7 92h313c2 -20 -4 -71 -12 -92c-23 -5 -73 -10 -100 -11l-40 -508h192
c5 27 17 76 24 98c31 11 88 17 120 17l-19 -213h-566c4 25 17 70 28 90c16 6 49 13 69 16z" />
    <glyph glyph-name="lcaron" unicode="&#x13e;" horiz-adv-x="285" 
d="M244 724l-70 -613c0 -5 3 -15 4 -17l70 7c0 -24 -14 -69 -27 -90c-34 -14 -110 -28 -152 -28c-19 18 -46 68 -46 92l74 550l-68 -7c0 19 12 74 26 87c31 18 81 28 127 28c17 0 44 -4 62 -9zM330 644l-43 10c10 27 32 62 49 81c12 3 31 5 47 5c26 0 62 -6 85 -15
c-22 -76 -88 -199 -133 -258c-20 5 -52 23 -63 33c23 42 46 100 58 144z" />
    <glyph glyph-name="Ldot" unicode="&#x13f;" horiz-adv-x="628" 
d="M104 106l47 499c-20 2 -49 7 -63 12c-2 22 1 71 7 92h313c2 -20 -4 -71 -12 -92c-23 -5 -73 -10 -100 -11l-40 -508h192c5 27 17 76 24 98c31 11 88 17 120 17l-19 -213h-566c4 25 17 70 28 90c16 6 49 13 69 16zM516 453c50 0 85 -30 85 -80c0 -55 -37 -86 -85 -86
c-56 0 -88 29 -88 86c0 46 38 80 88 80z" />
    <glyph glyph-name="ldot" unicode="&#x140;" horiz-adv-x="467" 
d="M244 724l-70 -613c0 -5 3 -15 4 -17l70 7c0 -24 -14 -69 -27 -90c-34 -14 -110 -28 -152 -28c-19 18 -46 68 -46 92l74 550l-68 -7c0 19 12 74 26 87c31 18 81 28 127 28c17 0 44 -4 62 -9zM362 458c47 0 78 -29 78 -79c0 -54 -33 -85 -78 -85c-51 0 -79 29 -79 85
c0 46 34 79 79 79z" />
    <glyph glyph-name="Lslash" unicode="&#x141;" horiz-adv-x="633" 
d="M109 106l14 146l-66 -39c-12 25 -18 73 -18 104l96 57l21 231c-20 2 -49 7 -63 12c-2 22 1 71 7 92h313c2 -20 -4 -71 -12 -92c-23 -5 -73 -10 -100 -11l-14 -161l116 69c15 -16 38 -62 44 -85l-169 -102l-17 -229h192c5 27 17 76 24 98c31 11 88 17 120 17l-19 -213
h-566c4 25 17 70 28 90c16 6 49 13 69 16z" />
    <glyph glyph-name="lslash" unicode="&#x142;" horiz-adv-x="348" 
d="M272 724l-23 -204c-3 -26 -9 -60 -16 -86l67 37c13 -14 29 -52 31 -73l-102 -58l-27 -229c0 -5 3 -15 4 -17l70 7c0 -24 -14 -69 -27 -90c-34 -14 -110 -28 -152 -28c-19 18 -46 68 -46 92l15 122c3 27 10 61 17 84l-76 -43c-8 18 -15 65 -15 91l99 52l34 244l-68 -7
c0 19 12 74 26 87c31 18 81 28 127 28c17 0 44 -4 62 -9z" />
    <glyph glyph-name="Nacute" unicode="&#x143;" horiz-adv-x="772" 
d="M334 709l169 -390c18 -41 31 -101 35 -151h12l41 437c-24 2 -56 7 -73 12c-2 22 1 71 8 92h244c1 -6 1 -11 1 -13c0 -24 -4 -62 -11 -79c-15 -5 -49 -10 -66 -11l-52 -614h-160l-182 433c-17 40 -34 103 -37 146h-12l-37 -465c23 -2 53 -8 71 -14c4 -22 2 -71 -4 -92
h-276c4 25 16 70 25 90c16 6 47 13 64 16l47 499c-20 2 -49 7 -63 12c-2 22 1 71 7 92h249zM669 851l-296 -100c-5 18 -8 47 -8 71c0 4 0 13 1 23l239 114c25 -22 54 -72 64 -108z" />
    <glyph glyph-name="nacute" unicode="&#x144;" horiz-adv-x="564" 
d="M191 399h15c25 51 68 101 152 101c65 0 130 -33 130 -138c0 -57 -20 -175 -31 -251c0 -5 3 -15 4 -17l73 7c0 -24 -14 -69 -27 -90c-34 -14 -113 -28 -154 -28c-19 18 -46 68 -46 92c13 69 37 209 37 261c0 37 -13 62 -45 62c-35 0 -70 -37 -89 -68l-36 -326
c-22 -4 -54 -7 -85 -7c-24 0 -47 2 -64 7l57 381l-70 -6c0 18 12 74 25 87c28 18 67 28 107 28c19 0 38 -3 56 -9zM490 725l-205 -180c-24 9 -55 36 -65 56l141 169c37 0 107 -19 129 -45z" />
    <glyph glyph-name="Ncommaaccent" unicode="&#x145;" horiz-adv-x="772" 
d="M334 709l169 -390c18 -41 31 -101 35 -151h12l41 437c-24 2 -56 7 -73 12c-2 22 1 71 8 92h244c1 -6 1 -11 1 -13c0 -24 -4 -62 -11 -79c-15 -5 -49 -10 -66 -11l-52 -614h-160l-182 433c-17 40 -34 103 -37 146h-12l-37 -465c23 -2 53 -8 71 -14c4 -22 2 -71 -4 -92
h-276c4 25 16 70 25 90c16 6 47 13 64 16l47 499c-20 2 -49 7 -63 12c-2 22 1 71 7 92h249zM310 -152l-51 11c11 29 34 69 52 88c16 4 34 6 52 6c32 0 65 -6 92 -16c-20 -82 -90 -217 -137 -279c-22 6 -58 23 -69 34c23 46 50 109 61 156z" />
    <glyph glyph-name="ncommaaccent" unicode="&#x146;" horiz-adv-x="564" 
d="M191 399h15c25 51 68 101 152 101c65 0 130 -33 130 -138c0 -57 -20 -175 -31 -251c0 -5 3 -15 4 -17l73 7c0 -24 -14 -69 -27 -90c-34 -14 -113 -28 -154 -28c-19 18 -46 68 -46 92c13 69 37 209 37 261c0 37 -13 62 -45 62c-35 0 -70 -37 -89 -68l-36 -326
c-22 -4 -54 -7 -85 -7c-24 0 -47 2 -64 7l57 381l-70 -6c0 18 12 74 25 87c28 18 67 28 107 28c19 0 38 -3 56 -9zM189 -154l-49 10c12 29 33 67 51 86c14 4 34 6 50 6c27 0 66 -5 90 -13c-22 -77 -88 -207 -131 -267c-22 6 -54 25 -65 34c19 43 42 102 54 144z" />
    <glyph glyph-name="Ncaron" unicode="&#x147;" horiz-adv-x="772" 
d="M334 709l169 -390c18 -41 31 -101 35 -151h12l41 437c-24 2 -56 7 -73 12c-2 22 1 71 8 92h244c1 -6 1 -11 1 -13c0 -24 -4 -62 -11 -79c-15 -5 -49 -10 -66 -11l-52 -614h-160l-182 433c-17 40 -34 103 -37 146h-12l-37 -465c23 -2 53 -8 71 -14c4 -22 2 -71 -4 -92
h-276c4 25 16 70 25 90c16 6 47 13 64 16l47 499c-20 2 -49 7 -63 12c-2 22 1 71 7 92h249zM494 761h-134l-142 124c19 21 70 44 105 49l130 -76l144 72c23 -8 51 -35 63 -54z" />
    <glyph glyph-name="ncaron" unicode="&#x148;" horiz-adv-x="564" 
d="M191 399h15c25 51 68 101 152 101c65 0 130 -33 130 -138c0 -57 -20 -175 -31 -251c0 -5 3 -15 4 -17l73 7c0 -24 -14 -69 -27 -90c-34 -14 -113 -28 -154 -28c-19 18 -46 68 -46 92c13 69 37 209 37 261c0 37 -13 62 -45 62c-35 0 -70 -37 -89 -68l-36 -326
c-22 -4 -54 -7 -85 -7c-24 0 -47 2 -64 7l57 381l-70 -6c0 18 12 74 25 87c28 18 67 28 107 28c19 0 38 -3 56 -9zM356 558l-109 -5l-119 167c19 19 65 36 91 38l105 -97l132 98c23 -7 57 -29 72 -47z" />
    <glyph glyph-name="napostrophe" unicode="&#x149;" horiz-adv-x="716" 
d="M343 399h15c25 51 68 101 152 101c65 0 130 -33 130 -138c0 -57 -20 -175 -31 -251c0 -5 3 -15 4 -17l73 7c0 -24 -14 -69 -27 -90c-34 -14 -113 -28 -154 -28c-19 18 -46 68 -46 92c13 69 37 209 37 261c0 37 -13 62 -45 62c-35 0 -70 -37 -89 -68l-36 -326
c-22 -4 -54 -7 -85 -7c-24 0 -47 2 -64 7l57 381l-70 -6c0 18 12 74 25 87c28 18 67 28 107 28c19 0 38 -3 56 -9zM75 621l-56 13c12 31 36 75 57 95c15 4 36 7 55 7c31 0 68 -8 95 -18c-30 -104 -109 -249 -160 -319c-24 7 -52 25 -62 37c29 59 57 130 71 185z" />
    <glyph glyph-name="Eng" unicode="&#x14a;" horiz-adv-x="766" 
d="M311 709l186 -331c22 -40 36 -104 39 -155h12l35 382c-24 2 -56 7 -73 12c-2 22 1 71 8 92h247c1 -6 1 -11 1 -13c0 -24 -5 -60 -11 -79c-15 -5 -49 -10 -66 -11l-42 -490c-16 -183 -110 -309 -197 -377c-20 12 -42 39 -52 61c51 43 109 138 123 213l-214 372
c-24 42 -40 109 -43 154h-12l-37 -433c23 -2 53 -8 71 -14c4 -22 2 -71 -4 -92h-277c4 25 16 70 25 90c16 6 47 13 64 16l49 499c-20 2 -49 7 -63 12c-2 22 1 71 7 92h224z" />
    <glyph glyph-name="eng" unicode="&#x14b;" horiz-adv-x="530" 
d="M191 399h15c26 51 70 101 157 101c69 0 132 -30 132 -150c0 -55 -13 -164 -24 -217c-25 -122 -101 -249 -206 -334c-27 12 -53 40 -65 65c68 64 108 146 127 251c13 72 25 164 25 211s-12 72 -46 72c-40 0 -75 -36 -96 -68l-36 -326c-22 -4 -54 -7 -85 -7
c-24 0 -47 2 -64 7l57 381l-70 -6c0 18 12 74 25 87c28 18 67 28 107 28c19 0 38 -3 56 -9z" />
    <glyph glyph-name="Omacron" unicode="&#x14c;" horiz-adv-x="712" 
d="M636 788h-453c3 36 13 81 25 112h437c1 -12 1 -20 1 -25c0 -28 -3 -62 -10 -87zM407 729c173 0 280 -111 280 -327c0 -252 -145 -422 -364 -422c-178 0 -276 112 -276 321c0 249 143 428 360 428zM391 631c-125 0 -187 -158 -187 -323c0 -144 48 -229 138 -229
c118 0 190 148 190 321c0 144 -49 231 -141 231z" />
    <glyph glyph-name="omacron" unicode="&#x14d;" horiz-adv-x="521" 
d="M208 -17c-126 0 -192 70 -192 210c0 63 13 125 43 178c43 76 118 129 225 129c124 0 194 -70 194 -210c0 -68 -16 -137 -51 -192c-43 -68 -116 -115 -219 -115zM227 78c38 0 64 25 80 62c18 41 24 97 24 147c0 83 -17 119 -60 119c-36 0 -64 -26 -81 -64
c-20 -44 -26 -102 -26 -149c0 -82 21 -115 63 -115zM447 597h-328c3 33 12 74 23 102h313c1 -10 1 -19 1 -23c0 -25 -3 -57 -9 -79z" />
    <glyph glyph-name="Obreve" unicode="&#x14e;" horiz-adv-x="712" 
d="M407 729c173 0 280 -111 280 -327c0 -252 -145 -422 -364 -422c-178 0 -276 112 -276 321c0 249 143 428 360 428zM391 631c-125 0 -187 -158 -187 -323c0 -144 48 -229 138 -229c118 0 190 148 190 321c0 144 -49 231 -141 231zM310 953c10 -51 44 -78 106 -78
c59 0 106 25 131 71c32 0 62 -12 85 -28c-25 -94 -109 -158 -235 -158c-115 0 -180 56 -188 150c18 20 64 39 101 43z" />
    <glyph glyph-name="obreve" unicode="&#x14f;" horiz-adv-x="521" 
d="M208 -17c-126 0 -192 70 -192 210c0 63 13 125 43 178c43 76 118 129 225 129c124 0 194 -70 194 -210c0 -68 -16 -137 -51 -192c-43 -68 -116 -115 -219 -115zM227 78c38 0 64 25 80 62c18 41 24 97 24 147c0 83 -17 119 -60 119c-36 0 -64 -26 -81 -64
c-20 -44 -26 -102 -26 -149c0 -82 21 -115 63 -115zM208 751c4 -60 30 -91 81 -91c50 0 81 32 104 86c28 -2 65 -12 83 -25c-28 -99 -99 -165 -203 -165c-99 0 -149 60 -151 158c17 17 55 32 86 37z" />
    <glyph glyph-name="Ohungarumlaut" unicode="&#x150;" horiz-adv-x="712" 
d="M407 729c173 0 280 -111 280 -327c0 -252 -145 -422 -364 -422c-178 0 -276 112 -276 321c0 249 143 428 360 428zM391 631c-125 0 -187 -158 -187 -323c0 -144 48 -229 138 -229c118 0 190 148 190 321c0 144 -49 231 -141 231zM499 916l-241 -175c-20 15 -41 52 -48 79
l172 162c42 -6 93 -38 117 -66zM789 916l-241 -175c-20 15 -41 52 -48 79l172 162c42 -6 93 -38 117 -66z" />
    <glyph glyph-name="ohungarumlaut" unicode="&#x151;" horiz-adv-x="521" 
d="M208 -17c-126 0 -192 70 -192 210c0 63 13 125 43 178c43 76 118 129 225 129c124 0 194 -70 194 -210c0 -68 -16 -137 -51 -192c-43 -68 -116 -115 -219 -115zM227 78c38 0 64 25 80 62c18 41 24 97 24 147c0 83 -17 119 -60 119c-36 0 -64 -26 -81 -64
c-20 -44 -26 -102 -26 -149c0 -82 21 -115 63 -115zM344 725l-172 -187c-26 9 -54 38 -64 59l116 171c34 0 99 -20 120 -43zM569 725l-172 -187c-26 9 -54 38 -64 59l116 171c34 0 99 -20 120 -43z" />
    <glyph glyph-name="OE" unicode="&#x152;" horiz-adv-x="999" 
d="M923 0h-461c-40 -11 -77 -16 -120 -16c-190 0 -295 114 -295 320c0 250 157 422 369 422c40 0 77 -6 112 -17h447l-17 -181c-33 0 -80 5 -109 15c-3 18 -5 51 -5 72h-188l-14 -207h149c2 11 8 31 12 44c29 9 73 15 108 15l-14 -205c-33 -3 -79 -1 -107 8
c-3 12 -5 34 -5 46h-150l-17 -220h183c4 26 12 58 21 81c27 9 83 15 116 15zM370 87c36 0 73 8 100 21l44 491c-24 15 -62 25 -100 25c-145 0 -213 -143 -213 -312c0 -149 53 -225 169 -225z" />
    <glyph glyph-name="oe" unicode="&#x153;" horiz-adv-x="761" 
d="M203 -17c-122 0 -187 71 -187 210c0 65 13 125 43 179c41 75 115 128 219 128c64 0 120 -22 138 -58h9c26 40 93 58 150 58c95 0 149 -50 149 -129c0 -80 -54 -164 -268 -179v-13c0 -63 22 -80 69 -80c51 0 125 21 167 43c0 -28 -14 -74 -29 -100
c-37 -29 -100 -59 -176 -59c-73 0 -101 27 -123 59h-9c-30 -29 -74 -59 -152 -59zM224 78c36 0 62 25 78 62c18 41 24 97 24 147c0 83 -19 119 -60 119c-35 0 -61 -26 -77 -65c-19 -43 -27 -100 -27 -146c0 -85 21 -117 62 -117zM554 409c-25 0 -56 -22 -69 -47
c-10 -19 -19 -58 -22 -78c106 8 125 48 125 81c0 26 -12 44 -34 44z" />
    <glyph glyph-name="Racute" unicode="&#x154;" horiz-adv-x="690" 
d="M103 106l46 494c-19 0 -49 3 -64 7c-2 23 2 70 6 97c77 10 187 15 276 15c149 0 260 -59 260 -191c0 -103 -69 -182 -157 -212c45 -103 101 -191 128 -212l53 6c0 -31 -14 -80 -29 -104c-29 -9 -98 -20 -130 -22c-32 26 -114 180 -157 308c-26 0 -52 3 -68 7l-14 -193
c23 -2 53 -8 71 -14c4 -22 2 -71 -4 -92h-314c4 25 17 70 28 90c15 6 51 13 69 16zM292 619l-17 -227c18 -4 52 -6 77 -6c65 0 127 41 127 121c0 74 -53 116 -132 116c-19 0 -40 -2 -55 -4zM609 851l-296 -100c-5 18 -8 47 -8 71c0 4 0 13 1 23l239 114
c25 -22 54 -72 64 -108z" />
    <glyph glyph-name="racute" unicode="&#x155;" horiz-adv-x="392" 
d="M374 493c6 -17 10 -41 10 -66c0 -27 -4 -54 -11 -71c-19 11 -49 18 -71 18c-48 0 -85 -34 -106 -81l-27 -289c-21 -4 -53 -7 -84 -7c-23 0 -48 2 -64 7l51 381l-70 -6c0 18 12 74 25 87c28 18 67 28 107 28c19 0 38 -3 56 -9l-11 -106h15c17 62 53 121 131 121
c18 0 37 -3 49 -7zM447 725l-205 -180c-24 9 -55 36 -65 56l141 169c37 0 107 -19 129 -45z" />
    <glyph glyph-name="Rcommaaccent" unicode="&#x156;" horiz-adv-x="690" 
d="M103 106l46 494c-19 0 -49 3 -64 7c-2 23 2 70 6 97c77 10 187 15 276 15c149 0 260 -59 260 -191c0 -103 -69 -182 -157 -212c45 -103 101 -191 128 -212l53 6c0 -31 -14 -80 -29 -104c-29 -9 -98 -20 -130 -22c-32 26 -114 180 -157 308c-26 0 -52 3 -68 7l-14 -193
c23 -2 53 -8 71 -14c4 -22 2 -71 -4 -92h-314c4 25 17 70 28 90c15 6 51 13 69 16zM292 619l-17 -227c18 -4 52 -6 77 -6c65 0 127 41 127 121c0 74 -53 116 -132 116c-19 0 -40 -2 -55 -4zM292 -152l-51 11c11 29 34 69 52 88c16 4 34 6 52 6c32 0 65 -6 92 -16
c-20 -82 -90 -217 -137 -279c-22 6 -58 23 -69 34c23 46 50 109 61 156z" />
    <glyph glyph-name="rcommaaccent" unicode="&#x157;" horiz-adv-x="392" 
d="M374 493c6 -17 10 -41 10 -66c0 -27 -4 -54 -11 -71c-19 11 -49 18 -71 18c-48 0 -85 -34 -106 -81l-27 -289c-21 -4 -53 -7 -84 -7c-23 0 -48 2 -64 7l51 381l-70 -6c0 18 12 74 25 87c28 18 67 28 107 28c19 0 38 -3 56 -9l-11 -106h15c17 62 53 121 131 121
c18 0 37 -3 49 -7zM16 -154l-49 10c12 29 33 67 51 86c14 4 34 6 50 6c27 0 66 -5 90 -13c-22 -77 -88 -207 -131 -267c-22 6 -54 25 -65 34c19 43 42 102 54 144z" />
    <glyph glyph-name="Rcaron" unicode="&#x158;" horiz-adv-x="690" 
d="M103 106l46 494c-19 0 -49 3 -64 7c-2 23 2 70 6 97c77 10 187 15 276 15c149 0 260 -59 260 -191c0 -103 -69 -182 -157 -212c45 -103 101 -191 128 -212l53 6c0 -31 -14 -80 -29 -104c-29 -9 -98 -20 -130 -22c-32 26 -114 180 -157 308c-26 0 -52 3 -68 7l-14 -193
c23 -2 53 -8 71 -14c4 -22 2 -71 -4 -92h-314c4 25 17 70 28 90c15 6 51 13 69 16zM292 619l-17 -227c18 -4 52 -6 77 -6c65 0 127 41 127 121c0 74 -53 116 -132 116c-19 0 -40 -2 -55 -4zM434 761h-134l-142 124c19 21 70 44 105 49l130 -76l144 72c23 -8 51 -35 63 -54z
" />
    <glyph glyph-name="rcaron" unicode="&#x159;" horiz-adv-x="392" 
d="M374 493c6 -17 10 -41 10 -66c0 -27 -4 -54 -11 -71c-19 11 -49 18 -71 18c-48 0 -85 -34 -106 -81l-27 -289c-21 -4 -53 -7 -84 -7c-23 0 -48 2 -64 7l51 381l-70 -6c0 18 12 74 25 87c28 18 67 28 107 28c19 0 38 -3 56 -9l-11 -106h15c17 62 53 121 131 121
c18 0 37 -3 49 -7zM305 558l-109 -5l-119 167c19 19 65 36 91 38l105 -97l132 98c23 -7 57 -29 72 -47z" />
    <glyph glyph-name="Sacute" unicode="&#x15a;" horiz-adv-x="584" 
d="M408 540l8 82c-23 12 -42 16 -64 16c-67 0 -108 -39 -108 -90c0 -131 294 -115 294 -323c0 -182 -138 -245 -298 -245c-67 0 -148 11 -212 37c5 55 20 145 35 198c31 0 91 -7 121 -18l-9 -104c31 -12 63 -21 99 -21c71 0 120 36 120 105c0 136 -291 104 -291 328
c0 137 94 224 257 224c62 0 139 -13 198 -35c-4 -48 -21 -130 -38 -179c-32 0 -84 11 -112 25zM586 851l-296 -100c-5 18 -8 47 -8 71c0 4 0 13 1 23l239 114c25 -22 54 -72 64 -108z" />
    <glyph glyph-name="sacute" unicode="&#x15b;" horiz-adv-x="446" 
d="M264 364l4 42c-5 3 -20 8 -31 8c-24 0 -47 -17 -47 -45c0 -68 195 -79 195 -219c0 -119 -109 -167 -219 -167c-101 0 -166 33 -170 110c21 32 85 53 135 53c3 -48 28 -74 58 -74c26 0 54 20 54 52c0 70 -189 68 -189 225c0 87 77 151 198 151c44 0 99 -12 148 -34
c-1 -36 -13 -94 -27 -130c-37 0 -87 13 -109 28zM433 725l-205 -180c-24 9 -55 36 -65 56l141 169c37 0 107 -19 129 -45z" />
    <glyph glyph-name="Scircumflex" unicode="&#x15c;" horiz-adv-x="584" 
d="M408 540l8 82c-23 12 -42 16 -64 16c-67 0 -108 -39 -108 -90c0 -131 294 -115 294 -323c0 -182 -138 -245 -298 -245c-67 0 -148 11 -212 37c5 55 20 145 35 198c31 0 91 -7 121 -18l-9 -104c31 -12 63 -21 99 -21c71 0 120 36 120 105c0 136 -291 104 -291 328
c0 137 94 224 257 224c62 0 139 -13 198 -35c-4 -48 -21 -130 -38 -179c-32 0 -84 11 -112 25zM308 940h130l140 -108c-10 -26 -40 -65 -62 -79l-159 81l-190 -85c-13 24 -18 63 -18 90z" />
    <glyph glyph-name="scircumflex" unicode="&#x15d;" horiz-adv-x="446" 
d="M264 364l4 42c-5 3 -20 8 -31 8c-24 0 -47 -17 -47 -45c0 -68 195 -79 195 -219c0 -119 -109 -167 -219 -167c-101 0 -166 33 -170 110c21 32 85 53 135 53c3 -48 28 -74 58 -74c26 0 54 20 54 52c0 70 -189 68 -189 225c0 87 77 151 198 151c44 0 99 -12 148 -34
c-1 -36 -13 -94 -27 -130c-37 0 -87 13 -109 28zM217 756l102 6l114 -155c-14 -22 -47 -47 -73 -55l-102 105l-141 -107c-16 17 -32 57 -35 83z" />
    <glyph glyph-name="Scedilla" unicode="&#x15e;" horiz-adv-x="584" 
d="M180 -94l38 75c-62 2 -133 13 -190 36c5 55 20 145 35 198c31 0 91 -7 121 -18l-9 -104c31 -12 63 -21 99 -21c71 0 120 36 120 105c0 136 -291 104 -291 328c0 137 94 224 257 224c62 0 139 -13 198 -35c-4 -48 -21 -130 -38 -179c-32 0 -84 11 -112 25l8 82
c-23 12 -42 16 -64 16c-67 0 -108 -39 -108 -90c0 -131 294 -115 294 -323c0 -149 -93 -218 -214 -238l-12 -42c32 -6 64 -32 64 -77c0 -84 -92 -129 -171 -137c-20 13 -39 40 -47 65c41 6 75 25 75 62c0 27 -24 42 -53 48z" />
    <glyph glyph-name="scedilla" unicode="&#x15f;" horiz-adv-x="446" 
d="M102 -80l37 64c-86 6 -139 39 -143 109c21 32 85 53 135 53c3 -48 28 -74 58 -74c26 0 54 20 54 52c0 70 -189 68 -189 225c0 87 77 151 198 151c44 0 99 -12 148 -34c-1 -36 -13 -94 -27 -130c-37 0 -87 13 -109 28l4 42c-5 3 -20 8 -31 8c-24 0 -47 -17 -47 -45
c0 -68 195 -79 195 -219c0 -95 -69 -144 -153 -160l-14 -44c31 -6 57 -30 57 -67c0 -66 -83 -110 -154 -116c-19 13 -36 38 -43 61c38 5 75 23 75 55c0 23 -24 36 -51 41z" />
    <glyph glyph-name="Scaron" unicode="&#x160;" horiz-adv-x="584" 
d="M408 540l8 82c-23 12 -42 16 -64 16c-67 0 -108 -39 -108 -90c0 -131 294 -115 294 -323c0 -182 -138 -245 -298 -245c-67 0 -148 11 -212 37c5 55 20 145 35 198c31 0 91 -7 121 -18l-9 -104c31 -12 63 -21 99 -21c71 0 120 36 120 105c0 136 -291 104 -291 328
c0 137 94 224 257 224c62 0 139 -13 198 -35c-4 -48 -21 -130 -38 -179c-32 0 -84 11 -112 25zM411 761h-134l-142 124c19 21 70 44 105 49l130 -76l144 72c23 -8 51 -35 63 -54z" />
    <glyph glyph-name="scaron" unicode="&#x161;" horiz-adv-x="446" 
d="M264 364l4 42c-5 3 -20 8 -31 8c-24 0 -47 -17 -47 -45c0 -68 195 -79 195 -219c0 -119 -109 -167 -219 -167c-101 0 -166 33 -170 110c21 32 85 53 135 53c3 -48 28 -74 58 -74c26 0 54 20 54 52c0 70 -189 68 -189 225c0 87 77 151 198 151c44 0 99 -12 148 -34
c-1 -36 -13 -94 -27 -130c-37 0 -87 13 -109 28zM294 558l-109 -5l-119 167c19 19 65 36 91 38l105 -97l132 98c23 -7 57 -29 72 -47z" />
    <glyph glyph-name="Tcommaaccent" unicode="&#x162;" horiz-adv-x="627" 
d="M203 -85l48 85h-139c3 25 19 69 30 89c20 6 59 14 83 17l45 509h-102c-4 -21 -14 -61 -21 -81c-36 -12 -80 -14 -114 -14l16 189h608l-16 -192c-38 0 -82 4 -114 14c-4 22 -7 60 -6 84h-106l-37 -509c31 -2 71 -8 95 -14c5 -22 3 -71 -2 -92h-133l-19 -58
c29 -7 53 -31 53 -69c0 -67 -81 -112 -150 -118c-19 13 -36 38 -43 61c36 5 71 24 71 56c0 24 -22 37 -47 43z" />
    <glyph glyph-name="tcommaaccent" unicode="&#x163;" horiz-adv-x="379" 
d="M70 -82l41 73c-53 16 -76 58 -76 119c0 50 19 181 36 274h-77c4 31 18 71 29 90c17 8 40 16 60 20l31 106c25 13 85 26 122 26l-17 -143h135c2 -11 2 -20 2 -31c0 -23 -2 -49 -6 -68h-144l-22 -217c-5 -45 4 -68 50 -68c29 0 59 7 93 18c0 -29 -14 -78 -33 -103
c-32 -15 -65 -25 -95 -29l-13 -40c29 -7 53 -31 53 -69c0 -67 -81 -112 -150 -118c-19 13 -36 38 -43 61c36 5 71 24 71 56c0 24 -22 37 -47 43z" />
    <glyph glyph-name="Tcaron" unicode="&#x164;" horiz-adv-x="627" 
d="M415 615l-37 -509c31 -2 71 -8 95 -14c5 -22 3 -71 -2 -92h-359c3 25 19 69 30 89c20 6 59 14 83 17l45 509h-102c-4 -21 -14 -61 -21 -81c-36 -12 -80 -14 -114 -14l16 189h608l-16 -192c-38 0 -82 4 -114 14c-4 22 -7 60 -6 84h-106zM425 761h-134l-142 124
c19 21 70 44 105 49l130 -76l144 72c23 -8 51 -35 63 -54z" />
    <glyph glyph-name="tcaron" unicode="&#x165;" horiz-adv-x="379" 
d="M367 684l-43 10c10 27 32 62 49 81c12 3 31 5 47 5c26 0 62 -6 85 -15c-22 -76 -77 -178 -122 -237c-20 5 -52 23 -63 33c23 42 35 79 47 123zM83 494l31 106c25 13 85 26 122 26l-17 -143h135c2 -11 2 -20 2 -31c0 -23 -2 -49 -6 -68h-144l-22 -217c-5 -45 4 -68 50 -68
c29 0 59 7 93 18c0 -29 -14 -78 -33 -103c-44 -21 -89 -31 -126 -31c-94 0 -133 48 -133 127c0 50 19 181 36 274h-77c4 31 18 71 29 90c17 8 40 16 60 20z" />
    <glyph glyph-name="Tbar" unicode="&#x166;" horiz-adv-x="627" 
d="M510 311h-117l-15 -205c31 -2 71 -8 95 -14c5 -22 3 -71 -2 -92h-359c3 25 19 69 30 89c20 6 59 14 83 17l18 205h-122c3 30 11 68 21 93h109l19 211h-102c-4 -21 -14 -61 -21 -81c-36 -12 -80 -14 -114 -14l16 189h608l-16 -192c-38 0 -82 4 -114 14c-4 22 -7 60 -6 84
h-106l-16 -211h118c3 -24 0 -65 -7 -93z" />
    <glyph glyph-name="tbar" unicode="&#x167;" horiz-adv-x="379" 
d="M314 207h-122l-4 -40c-5 -45 4 -68 50 -68c29 0 59 7 93 18c0 -29 -14 -78 -33 -103c-44 -21 -89 -31 -126 -31c-94 0 -133 48 -133 127c0 21 3 56 8 97h-63c3 28 11 61 20 85h55c5 32 11 63 16 92h-77c4 31 18 71 29 90c17 8 40 16 60 20l31 106c25 13 85 26 122 26
l-17 -143h135c1 -7 2 -21 2 -32c0 -25 -3 -49 -6 -67h-144l-10 -92h121c2 -21 0 -59 -7 -85z" />
    <glyph glyph-name="Utilde" unicode="&#x168;" horiz-adv-x="717" 
d="M258 606l-24 -331c-1 -12 -1 -24 -1 -35c0 -105 38 -159 126 -159c108 0 156 82 166 194l28 330c-19 2 -45 7 -59 12c-2 22 0 71 7 92h238c1 -6 1 -11 1 -13c0 -24 -5 -63 -11 -79c-14 -5 -45 -10 -61 -11l-24 -324c-14 -179 -108 -302 -319 -302
c-168 0 -245 80 -245 240c0 15 1 31 2 47l29 341c-19 2 -46 6 -63 11c-2 13 -3 33 -3 52c0 14 1 28 2 38h289c2 -20 -3 -71 -10 -92c-17 -5 -49 -10 -68 -11zM580 926c28 0 59 -8 81 -20c-9 -68 -61 -142 -169 -142c-74 0 -97 47 -161 47c-30 0 -51 -26 -58 -44
c-32 5 -59 28 -74 51c19 61 71 112 159 112c82 0 100 -45 163 -45c30 0 49 18 59 41z" />
    <glyph glyph-name="utilde" unicode="&#x169;" horiz-adv-x="566" 
d="M225 485c-10 -74 -36 -286 -36 -338c0 -37 11 -62 40 -62c34 0 68 30 87 57l33 243l-62 -5c0 18 12 73 25 86c30 18 78 28 123 28c17 0 43 -4 60 -9l-36 -374c0 -5 3 -15 4 -17l69 7c0 -24 -14 -69 -27 -90c-34 -14 -112 -28 -153 -28c-13 23 -23 61 -26 86h-9
c-24 -42 -66 -86 -149 -86c-62 0 -126 33 -126 138c0 57 25 197 38 264l-70 -6c0 18 12 74 25 87c31 18 81 28 128 28c17 0 44 -4 62 -9zM410 724c25 0 57 -3 79 -17c-10 -64 -61 -133 -151 -133c-63 0 -83 43 -133 43c-29 0 -44 -18 -52 -38c-27 4 -55 22 -65 43
c15 59 61 107 139 107c68 0 83 -42 131 -42c29 0 42 17 52 37z" />
    <glyph glyph-name="Umacron" unicode="&#x16a;" horiz-adv-x="717" 
d="M258 606l-24 -331c-1 -12 -1 -24 -1 -35c0 -105 38 -159 126 -159c108 0 156 82 166 194l28 330c-19 2 -45 7 -59 12c-2 22 0 71 7 92h238c1 -6 1 -11 1 -13c0 -24 -5 -63 -11 -79c-14 -5 -45 -10 -61 -11l-24 -324c-14 -179 -108 -302 -319 -302
c-168 0 -245 80 -245 240c0 15 1 31 2 47l29 341c-19 2 -46 6 -63 11c-2 13 -3 33 -3 52c0 14 1 28 2 38h289c2 -20 -3 -71 -10 -92c-17 -5 -49 -10 -68 -11zM627 788h-413c3 36 13 81 25 112h397c1 -12 1 -20 1 -25c0 -28 -3 -62 -10 -87z" />
    <glyph glyph-name="umacron" unicode="&#x16b;" horiz-adv-x="566" 
d="M225 485c-10 -74 -36 -286 -36 -338c0 -37 11 -62 40 -62c34 0 68 30 87 57l33 243l-62 -5c0 18 12 73 25 86c30 18 78 28 123 28c17 0 43 -4 60 -9l-36 -374c0 -5 3 -15 4 -17l69 7c0 -24 -14 -69 -27 -90c-34 -14 -112 -28 -153 -28c-13 23 -23 61 -26 86h-9
c-24 -42 -66 -86 -149 -86c-62 0 -126 33 -126 138c0 57 25 197 38 264l-70 -6c0 18 12 74 25 87c31 18 81 28 128 28c17 0 44 -4 62 -9zM460 597h-328c3 33 12 74 23 102h313c1 -10 1 -19 1 -23c0 -25 -3 -57 -9 -79z" />
    <glyph glyph-name="Ubreve" unicode="&#x16c;" horiz-adv-x="717" 
d="M258 606l-24 -331c-1 -12 -1 -24 -1 -35c0 -105 38 -159 126 -159c108 0 156 82 166 194l28 330c-19 2 -45 7 -59 12c-2 22 0 71 7 92h238c1 -6 1 -11 1 -13c0 -24 -5 -63 -11 -79c-14 -5 -45 -10 -61 -11l-24 -324c-14 -179 -108 -302 -319 -302
c-168 0 -245 80 -245 240c0 15 1 31 2 47l29 341c-19 2 -46 6 -63 11c-2 13 -3 33 -3 52c0 14 1 28 2 38h289c2 -20 -3 -71 -10 -92c-17 -5 -49 -10 -68 -11zM321 953c10 -51 44 -78 106 -78c59 0 106 25 131 71c32 0 62 -12 85 -28c-25 -94 -109 -158 -235 -158
c-115 0 -180 56 -188 150c18 20 64 39 101 43z" />
    <glyph glyph-name="ubreve" unicode="&#x16d;" horiz-adv-x="566" 
d="M225 485c-10 -74 -36 -286 -36 -338c0 -37 11 -62 40 -62c34 0 68 30 87 57l33 243l-62 -5c0 18 12 73 25 86c30 18 78 28 123 28c17 0 43 -4 60 -9l-36 -374c0 -5 3 -15 4 -17l69 7c0 -24 -14 -69 -27 -90c-34 -14 -112 -28 -153 -28c-13 23 -23 61 -26 86h-9
c-24 -42 -66 -86 -149 -86c-62 0 -126 33 -126 138c0 57 25 197 38 264l-70 -6c0 18 12 74 25 87c31 18 81 28 128 28c17 0 44 -4 62 -9zM219 751c4 -60 30 -91 81 -91c50 0 81 32 104 86c28 -2 65 -12 83 -25c-28 -99 -99 -165 -203 -165c-99 0 -149 60 -151 158
c17 17 55 32 86 37z" />
    <glyph glyph-name="Uring" unicode="&#x16e;" horiz-adv-x="717" 
d="M258 606l-24 -331c-1 -12 -1 -24 -1 -35c0 -105 38 -159 126 -159c108 0 156 82 166 194l28 330c-19 2 -45 7 -59 12c-2 22 0 71 7 92h238c1 -6 1 -11 1 -13c0 -24 -5 -63 -11 -79c-14 -5 -45 -10 -61 -11l-24 -324c-14 -179 -108 -302 -319 -302
c-168 0 -245 80 -245 240c0 15 1 31 2 47l29 341c-19 2 -46 6 -63 11c-2 13 -3 33 -3 52c0 14 1 28 2 38h289c2 -20 -3 -71 -10 -92c-17 -5 -49 -10 -68 -11zM447 985c77 0 122 -32 122 -102c0 -84 -65 -132 -157 -132c-79 0 -121 36 -121 102c0 80 59 132 156 132zM436 913
c-35 0 -58 -21 -58 -50c0 -26 17 -40 45 -40c32 0 59 19 59 51c0 27 -21 39 -46 39z" />
    <glyph glyph-name="uring" unicode="&#x16f;" horiz-adv-x="566" 
d="M225 485c-10 -74 -36 -286 -36 -338c0 -37 11 -62 40 -62c34 0 68 30 87 57l33 243l-62 -5c0 18 12 73 25 86c30 18 78 28 123 28c17 0 43 -4 60 -9l-36 -374c0 -5 3 -15 4 -17l69 7c0 -24 -14 -69 -27 -90c-34 -14 -112 -28 -153 -28c-13 23 -23 61 -26 86h-9
c-24 -42 -66 -86 -149 -86c-62 0 -126 33 -126 138c0 57 25 197 38 264l-70 -6c0 18 12 74 25 87c31 18 81 28 128 28c17 0 44 -4 62 -9zM331 791c63 0 103 -29 103 -98c0 -80 -56 -133 -141 -133c-65 0 -102 30 -102 96c0 78 51 135 140 135zM324 728
c-37 0 -58 -28 -58 -64c0 -28 12 -40 36 -40c34 0 57 25 57 65c0 29 -12 39 -35 39z" />
    <glyph glyph-name="Uhungarumlaut" unicode="&#x170;" horiz-adv-x="717" 
d="M258 606l-24 -331c-1 -12 -1 -24 -1 -35c0 -105 38 -159 126 -159c108 0 156 82 166 194l28 330c-19 2 -45 7 -59 12c-2 22 0 71 7 92h238c1 -6 1 -11 1 -13c0 -24 -5 -63 -11 -79c-14 -5 -45 -10 -61 -11l-24 -324c-14 -179 -108 -302 -319 -302
c-168 0 -245 80 -245 240c0 15 1 31 2 47l29 341c-19 2 -46 6 -63 11c-2 13 -3 33 -3 52c0 14 1 28 2 38h289c2 -20 -3 -71 -10 -92c-17 -5 -49 -10 -68 -11zM519 916l-241 -175c-20 15 -41 52 -48 79l172 162c42 -6 93 -38 117 -66zM809 916l-241 -175
c-20 15 -41 52 -48 79l172 162c42 -6 93 -38 117 -66z" />
    <glyph glyph-name="uhungarumlaut" unicode="&#x171;" horiz-adv-x="566" 
d="M225 485c-10 -74 -36 -286 -36 -338c0 -37 11 -62 40 -62c34 0 68 30 87 57l33 243l-62 -5c0 18 12 73 25 86c30 18 78 28 123 28c17 0 43 -4 60 -9l-36 -374c0 -5 3 -15 4 -17l69 7c0 -24 -14 -69 -27 -90c-34 -14 -112 -28 -153 -28c-13 23 -23 61 -26 86h-9
c-24 -42 -66 -86 -149 -86c-62 0 -126 33 -126 138c0 57 25 197 38 264l-70 -6c0 18 12 74 25 87c31 18 81 28 128 28c17 0 44 -4 62 -9zM363 725l-172 -187c-26 9 -54 38 -64 59l116 171c34 0 99 -20 120 -43zM588 725l-172 -187c-26 9 -54 38 -64 59l116 171
c34 0 99 -20 120 -43z" />
    <glyph glyph-name="Uogonek" unicode="&#x172;" horiz-adv-x="717" 
d="M431 -148c8 -18 14 -55 14 -82c-24 -10 -65 -15 -89 -15c-71 0 -135 35 -135 106c0 53 26 93 85 110v9h-6c-139 0 -220 85 -220 240c0 15 1 31 2 47l29 341c-19 2 -46 6 -63 11c-2 13 -3 33 -3 52c0 14 1 28 2 38h289c2 -20 -3 -71 -10 -92c-17 -5 -49 -10 -68 -11
l-24 -331c-1 -12 -1 -24 -1 -35c0 -105 38 -159 126 -159c108 0 156 82 166 194l28 330c-19 2 -45 7 -59 12c-2 22 0 71 7 92h238c1 -6 1 -11 1 -13c0 -24 -4 -62 -11 -79c-14 -5 -45 -10 -61 -11l-24 -324c-9 -119 -54 -220 -149 -267c-85 -42 -138 -73 -138 -128
c0 -27 18 -39 45 -39c10 0 20 2 29 4z" />
    <glyph glyph-name="uogonek" unicode="&#x173;" horiz-adv-x="566" 
d="M225 485c-10 -74 -36 -286 -36 -338c0 -37 11 -62 40 -62c34 0 68 30 87 57l33 243l-62 -5c0 18 12 73 25 86c30 18 78 28 123 28c17 0 43 -4 60 -9l-36 -374c0 -5 3 -15 4 -17l69 7c0 -24 -14 -69 -27 -90c-70 -31 -109 -70 -109 -113c0 -25 18 -36 40 -36
c9 0 19 2 25 4c9 -21 13 -47 13 -73c-19 -9 -58 -15 -81 -15c-60 0 -116 30 -116 96c0 46 27 84 75 106v9c-13 17 -23 53 -26 80h-9c-24 -42 -66 -86 -149 -86c-62 0 -126 33 -126 138c0 57 25 197 38 264l-70 -6c0 18 12 74 25 87c31 18 81 28 128 28c17 0 44 -4 62 -9z
" />
    <glyph glyph-name="Wcircumflex" unicode="&#x174;" horiz-adv-x="1007" 
d="M301 127h11c4 53 21 140 38 190l140 401h137l55 -382c7 -48 9 -143 9 -201h12c7 59 24 139 40 182l70 184c13 35 32 76 51 105c-17 1 -39 5 -55 10c-6 23 -10 68 -10 93h245c-3 -27 -13 -73 -23 -96c-15 -4 -35 -7 -51 -8l-247 -616h-128l-54 414c-5 43 -8 122 -8 172
h-12c-5 -52 -18 -123 -33 -168l-145 -419h-142l-114 618c-15 2 -35 7 -48 12c-6 25 -9 67 -9 91h290c-3 -25 -14 -70 -25 -96c-13 -4 -51 -8 -66 -8c12 -25 24 -67 30 -104l27 -173c9 -55 15 -148 15 -201zM510 940h130l140 -108c-10 -26 -40 -65 -62 -79l-159 81l-190 -85
c-13 24 -18 63 -18 90z" />
    <glyph glyph-name="wcircumflex" unicode="&#x175;" horiz-adv-x="814" 
d="M571 103c35 89 70 190 95 276c0 4 -2 12 -4 17l-63 -5c2 27 15 73 31 89c25 10 92 20 117 20c17 -13 49 -73 49 -98c-51 -128 -123 -280 -201 -427l-152 23l-34 372h-12c-35 -125 -81 -266 -129 -395l-166 23l-50 389l-61 -6c0 19 11 75 22 89c30 14 66 24 109 24
c20 0 41 -3 60 -9l24 -253c4 -38 5 -91 5 -129h12c37 120 74 251 105 380l189 13l33 -260c5 -38 9 -94 9 -133h12zM397 756l102 6l114 -155c-14 -22 -47 -47 -73 -55l-102 105l-141 -107c-16 17 -32 57 -35 83z" />
    <glyph glyph-name="Ycircumflex" unicode="&#x176;" horiz-adv-x="642" 
d="M337 353h12c7 34 25 78 39 102l64 106c9 15 24 32 39 45c-15 2 -36 7 -47 12c-4 20 -9 70 -9 91h254c-3 -27 -13 -73 -23 -96c-16 -4 -36 -7 -52 -8l-227 -339l-11 -160c31 -2 71 -8 95 -14c5 -22 3 -71 -3 -92h-357c3 25 20 69 31 89c20 6 60 14 83 17l14 155l-151 345
c-15 2 -35 7 -48 12c-6 21 -7 63 -7 91h297c-3 -25 -15 -70 -24 -96c-15 -4 -43 -7 -59 -8c11 -10 23 -33 30 -51l38 -98c9 -23 21 -69 22 -103zM326 940h130l140 -108c-10 -26 -40 -65 -62 -79l-159 81l-190 -85c-13 24 -18 63 -18 90z" />
    <glyph glyph-name="ycircumflex" unicode="&#x177;" horiz-adv-x="489" 
d="M37 392l-61 -4c0 19 13 74 24 88c28 13 67 21 107 21c19 0 38 -4 55 -10l56 -256c7 -32 15 -93 16 -128h12c33 85 65 188 89 271c0 4 -2 12 -4 17l-68 -4c3 27 17 72 33 88c30 11 106 19 136 19c15 -13 42 -74 42 -99c-61 -161 -167 -375 -234 -455
c-63 -74 -134 -141 -230 -181c-20 26 -42 91 -42 127c68 20 132 52 175 101zM246 756l102 6l114 -155c-14 -22 -47 -47 -73 -55l-102 105l-141 -107c-16 17 -32 57 -35 83z" />
    <glyph glyph-name="Ydieresis" unicode="&#x178;" horiz-adv-x="642" 
d="M221 923c49 0 83 -29 83 -78c0 -53 -36 -83 -83 -83c-54 0 -85 28 -85 83c0 45 37 78 85 78zM530 923c49 0 83 -29 83 -78c0 -53 -36 -83 -83 -83c-54 0 -85 28 -85 83c0 45 37 78 85 78zM337 353h12c7 34 25 78 39 102l64 106c9 15 24 32 39 45c-15 2 -36 7 -47 12
c-4 20 -9 70 -9 91h254c-3 -27 -13 -73 -23 -96c-16 -4 -36 -7 -52 -8l-227 -339l-11 -160c31 -2 71 -8 95 -14c5 -22 3 -71 -3 -92h-357c3 25 20 69 31 89c20 6 60 14 83 17l14 155l-151 345c-15 2 -35 7 -48 12c-6 21 -7 63 -7 91h297c-3 -25 -15 -70 -24 -96
c-15 -4 -43 -7 -59 -8c11 -10 23 -33 30 -51l38 -98c9 -23 21 -69 22 -103z" />
    <glyph glyph-name="Zacute" unicode="&#x179;" horiz-adv-x="616" 
d="M10 0l6 89l386 513v12h-186c-4 -21 -15 -72 -22 -94c-31 -7 -85 -13 -122 -13l18 202h507l-8 -89l-375 -510v-12h204c6 28 19 74 26 98c27 11 85 18 120 18l-18 -214h-536zM586 851l-296 -100c-5 18 -8 47 -8 71c0 4 0 13 1 23l239 114c25 -22 54 -72 64 -108z" />
    <glyph glyph-name="zacute" unicode="&#x17a;" horiz-adv-x="485" 
d="M11 0l-6 66l257 318v12h-89c-6 -18 -20 -49 -31 -67c-30 0 -86 8 -108 18l21 136h390l6 -68l-258 -318v-12c34 1 76 4 111 7c6 21 16 47 26 66c26 5 83 7 114 0l-30 -158h-403zM451 725l-205 -180c-24 9 -55 36 -65 56l141 169c37 0 107 -19 129 -45z" />
    <glyph glyph-name="Zdotaccent" unicode="&#x17b;" horiz-adv-x="616" 
d="M10 0l6 89l386 513v12h-186c-4 -21 -15 -72 -22 -94c-31 -7 -85 -13 -122 -13l18 202h507l-8 -89l-375 -510v-12h204c6 28 19 74 26 98c27 11 85 18 120 18l-18 -214h-536zM366 925c50 0 85 -30 85 -80c0 -55 -37 -86 -85 -86c-56 0 -88 29 -88 86c0 46 38 80 88 80z" />
    <glyph glyph-name="zdotaccent" unicode="&#x17c;" horiz-adv-x="485" 
d="M11 0l-6 66l257 318v12h-89c-6 -18 -20 -49 -31 -67c-30 0 -86 8 -108 18l21 136h390l6 -68l-258 -318v-12c34 1 76 4 111 7c6 21 16 47 26 66c26 5 83 7 114 0l-30 -158h-403zM273 731c47 0 78 -29 78 -79c0 -54 -33 -85 -78 -85c-51 0 -79 29 -79 85c0 46 34 79 79 79z
" />
    <glyph glyph-name="Zcaron" unicode="&#x17d;" horiz-adv-x="616" 
d="M10 0l6 89l386 513v12h-186c-4 -21 -15 -72 -22 -94c-31 -7 -85 -13 -122 -13l18 202h507l-8 -89l-375 -510v-12h204c6 28 19 74 26 98c27 11 85 18 120 18l-18 -214h-536zM415 761h-134l-142 124c19 21 70 44 105 49l130 -76l144 72c23 -8 51 -35 63 -54z" />
    <glyph glyph-name="zcaron" unicode="&#x17e;" horiz-adv-x="485" 
d="M11 0l-6 66l257 318v12h-89c-6 -18 -20 -49 -31 -67c-30 0 -86 8 -108 18l21 136h390l6 -68l-258 -318v-12c34 1 76 4 111 7c6 21 16 47 26 66c26 5 83 7 114 0l-30 -158h-403zM313 558l-109 -5l-119 167c19 19 65 36 91 38l105 -97l132 98c23 -7 57 -29 72 -47z" />
    <glyph glyph-name="longs" unicode="&#x17f;" horiz-adv-x="290" 
d="M96 483l7 55c19 144 116 201 223 201c33 0 78 -7 129 -24c0 -40 -16 -105 -34 -143c-34 0 -83 14 -107 29l6 46c-5 2 -10 3 -15 3c-31 0 -62 -33 -70 -109l-73 -683c-20 -4 -53 -7 -82 -7c-22 0 -46 2 -62 7l66 519c-19 2 -50 9 -65 16v6c0 31 4 65 8 84h69z" />
    <glyph glyph-name="uni018F" unicode="&#x18f;" horiz-adv-x="667" 
d="M45 224c0 56 12 111 28 168h421c-1 133 -34 225 -179 225c-49 0 -139 -15 -198 -36c3 30 17 77 31 104c53 25 142 44 209 44c191 0 285 -147 285 -330c0 -209 -103 -419 -360 -419c-158 0 -237 93 -237 244zM202 288c-5 -21 -9 -44 -9 -70c0 -67 26 -135 113 -135
c116 0 164 104 180 205h-284z" />
    <glyph glyph-name="florin" unicode="&#x192;" horiz-adv-x="558" 
d="M450 191h-136l-23 -152c-23 -152 -132 -204 -236 -204c-46 0 -95 10 -132 26c5 43 26 115 45 160c28 -4 76 -18 99 -28l-8 -61c6 -3 19 -5 27 -5c28 0 50 39 61 101l30 163h-114c2 30 11 66 20 90h110l14 77c26 145 131 204 234 204c40 0 93 -9 126 -26
c-8 -44 -30 -109 -48 -149c-31 2 -77 17 -95 31l9 45c-6 3 -15 7 -26 7c-33 0 -57 -34 -66 -101l-12 -88h129c2 -23 0 -64 -8 -90z" />
    <glyph glyph-name="uni01B5" unicode="&#x1b5;" horiz-adv-x="616" 
d="M523 322h-153l-156 -212v-12h204c5 23 16 62 23 82c27 11 87 18 122 18l-17 -198h-536l6 89l175 233h-99c3 30 11 68 21 93h148l141 187v12h-186c-4 -21 -13 -59 -20 -79c-31 -7 -86 -13 -123 -13l17 187h507l-8 -89l-151 -205h92c3 -24 0 -65 -7 -93z" />
    <glyph glyph-name="uni01B6" unicode="&#x1b6;" horiz-adv-x="485" 
d="M409 206h-128l-88 -109v-12c34 1 76 4 111 7c5 16 12 35 20 50c26 5 86 7 117 0l-27 -142h-403l-6 66l112 140h-70c3 28 11 61 20 85h119l76 93v12h-89c-5 -14 -16 -38 -25 -52c-30 0 -90 8 -112 18l19 121h390l6 -68l-101 -124h66c2 -21 0 -59 -7 -85z" />
    <glyph glyph-name="Aringacute" unicode="&#x1fa;" horiz-adv-x="755" 
d="M458 938c77 0 122 -32 122 -102c0 -64 -38 -107 -97 -124l181 -604c16 -3 38 -9 51 -15c6 -27 8 -65 8 -93h-304c4 24 20 68 32 91c17 6 46 13 62 16c-12 18 -20 43 -27 66l-8 28h-237l-13 -33c-7 -17 -23 -47 -36 -65c21 -2 48 -7 65 -12c6 -23 12 -68 12 -91h-284
c6 31 20 65 32 90c13 6 33 12 49 15l303 606c-44 13 -67 46 -67 95c0 80 59 132 156 132zM401 573h-12c-6 -40 -31 -111 -45 -143l-60 -136h172l-35 136c-8 30 -20 102 -20 143zM447 866c-35 0 -58 -21 -58 -50c0 -26 17 -40 45 -40c32 0 59 19 59 51c0 27 -21 39 -46 39z
M630 1054l-296 -100c-5 18 -8 47 -8 71c0 4 0 13 1 23l239 114c25 -22 54 -72 64 -108z" />
    <glyph glyph-name="aringacute" unicode="&#x1fb;" horiz-adv-x="539" 
d="M297 64h-9c-26 -47 -72 -81 -137 -81c-79 0 -140 56 -140 190c0 80 25 162 74 225c48 61 121 102 218 102c66 0 127 -25 167 -52l-40 -337c0 -5 3 -15 4 -17l70 7c0 -24 -14 -69 -27 -90c-34 -14 -113 -28 -154 -28c-13 23 -23 58 -26 81zM288 138l39 268
c-10 3 -25 4 -34 4c-38 0 -75 -28 -97 -61c-28 -42 -40 -115 -40 -166c0 -70 19 -94 50 -94c30 0 57 16 82 49zM322 790c63 0 103 -29 103 -98c0 -80 -56 -133 -141 -133c-65 0 -102 30 -102 96c0 78 51 135 140 135zM315 727c-37 0 -58 -28 -58 -64c0 -28 12 -40 36 -40
c34 0 57 25 57 65c0 29 -12 39 -35 39zM468 988l-205 -180c-24 9 -55 36 -65 56l141 169c37 0 107 -19 129 -45z" />
    <glyph glyph-name="AEacute" unicode="&#x1fc;" horiz-adv-x="999" 
d="M975 709l-17 -181c-33 0 -80 5 -109 15c-3 18 -5 51 -5 72h-194l-14 -207h155c2 11 8 31 12 44c29 9 73 15 108 15l-14 -205c-33 -3 -79 -1 -107 8c-3 12 -5 34 -5 46h-156l-17 -220h189c4 26 12 58 21 81c27 9 83 15 116 15l-15 -192h-558c3 25 16 70 27 90
c15 6 48 13 68 16l12 130h-199l-45 -68c-11 -18 -36 -49 -52 -65c20 -2 50 -7 66 -12c8 -22 12 -66 11 -91h-273c5 31 17 65 28 90c13 6 33 12 48 15l336 500c-26 2 -60 7 -79 12c-2 22 -2 71 5 92h657zM429 481l-101 -154h156l24 276h-13c-16 -36 -42 -86 -66 -122z
M804 851l-296 -100c-5 18 -8 47 -8 71c0 4 0 13 1 23l239 114c25 -22 54 -72 64 -108z" />
    <glyph glyph-name="aeacute" unicode="&#x1fd;" horiz-adv-x="756" 
d="M445 192v-13c0 -60 23 -80 66 -80c56 0 130 19 176 43c0 -28 -14 -74 -29 -100c-38 -29 -101 -59 -177 -59c-78 0 -131 27 -157 80h-9c-28 -41 -72 -80 -154 -80c-81 0 -145 38 -145 129c0 117 99 186 211 186c35 0 59 -5 88 -16c3 16 6 38 6 51c0 40 -27 60 -74 60
c-49 0 -126 -21 -167 -42c-2 7 -3 20 -3 30c0 29 11 69 25 96c39 15 127 28 188 28c76 0 112 -30 134 -63h9c24 34 62 58 132 58c100 0 154 -48 154 -129c0 -80 -55 -164 -274 -179zM220 83c38 0 68 23 84 42c-2 15 -3 29 -3 47c0 14 0 28 2 42c-19 3 -44 5 -57 5
c-53 0 -86 -34 -86 -80c0 -40 27 -56 60 -56zM454 284c110 8 125 48 125 82c0 25 -9 43 -33 43c-27 0 -53 -21 -69 -48c-12 -21 -20 -55 -23 -77zM604 725l-205 -180c-24 9 -55 36 -65 56l141 169c37 0 107 -19 129 -45z" />
    <glyph glyph-name="Oslashacute" unicode="&#x1fe;" horiz-adv-x="761" 
d="M439 729c69 0 129 -18 175 -53l78 82c31 -6 89 -34 111 -51l-117 -119c24 -50 37 -112 37 -186c0 -252 -147 -422 -370 -422c-81 0 -146 22 -192 66l-113 -118c-23 14 -67 59 -78 81l128 134c-16 44 -25 97 -25 158c0 249 145 428 366 428zM568 400c0 27 -2 52 -6 75
l-306 -317c23 -51 62 -79 116 -79c122 0 196 148 196 321zM423 631c-129 0 -193 -158 -193 -323c0 -16 1 -31 2 -46l298 308c-24 39 -60 61 -107 61zM661 851l-296 -100c-5 18 -8 47 -8 71c0 4 0 13 1 23l239 114c25 -22 54 -72 64 -108z" />
    <glyph glyph-name="oslashacute" unicode="&#x1ff;" horiz-adv-x="550" 
d="M224 -17c-41 0 -75 7 -103 20l-69 -85c-15 14 -36 54 -45 77l52 65c-21 33 -31 78 -31 133c0 63 13 125 44 178c44 76 120 129 230 129c38 0 71 -7 99 -20l64 77c23 -9 57 -36 70 -54l-68 -81c21 -33 33 -77 33 -132c0 -68 -16 -137 -52 -192
c-44 -68 -119 -115 -224 -115zM243 78c40 0 68 25 85 62c19 41 25 97 25 147v9l-158 -196c11 -15 27 -22 48 -22zM176 193v-5l157 197c-10 14 -24 21 -44 21c-38 0 -67 -26 -85 -64c-22 -44 -28 -102 -28 -149zM496 725l-205 -180c-24 9 -55 36 -65 56l141 169
c37 0 107 -19 129 -45z" />
    <glyph glyph-name="Scommaaccent" unicode="&#x218;" horiz-adv-x="584" 
d="M408 540l8 82c-23 12 -42 16 -64 16c-67 0 -108 -39 -108 -90c0 -131 294 -115 294 -323c0 -182 -138 -245 -298 -245c-67 0 -148 11 -212 37c5 55 20 145 35 198c31 0 91 -7 121 -18l-9 -104c31 -12 63 -21 99 -21c71 0 120 36 120 105c0 136 -291 104 -291 328
c0 137 94 224 257 224c62 0 139 -13 198 -35c-4 -48 -21 -130 -38 -179c-32 0 -84 11 -112 25zM221 -152l-51 11c11 29 34 69 52 88c16 4 34 6 52 6c32 0 65 -6 92 -16c-20 -82 -90 -217 -137 -279c-22 6 -58 23 -69 34c23 46 50 109 61 156z" />
    <glyph glyph-name="scommaaccent" unicode="&#x219;" horiz-adv-x="446" 
d="M264 364l4 42c-5 3 -20 8 -31 8c-24 0 -47 -17 -47 -45c0 -68 195 -79 195 -219c0 -119 -109 -167 -219 -167c-101 0 -166 33 -170 110c21 32 85 53 135 53c3 -48 28 -74 58 -74c26 0 54 20 54 52c0 70 -189 68 -189 225c0 87 77 151 198 151c44 0 99 -12 148 -34
c-1 -36 -13 -94 -27 -130c-37 0 -87 13 -109 28zM125 -154l-49 10c12 29 33 67 51 86c14 4 34 6 50 6c27 0 66 -5 90 -13c-22 -77 -88 -207 -131 -267c-22 6 -54 25 -65 34c19 43 42 102 54 144z" />
    <glyph glyph-name="uni021A" unicode="&#x21a;" horiz-adv-x="627" 
d="M415 615l-37 -509c31 -2 71 -8 95 -14c5 -22 3 -71 -2 -92h-359c3 25 19 69 30 89c20 6 59 14 83 17l45 509h-102c-4 -21 -14 -61 -21 -81c-36 -12 -80 -14 -114 -14l16 189h608l-16 -192c-38 0 -82 4 -114 14c-4 22 -7 60 -6 84h-106zM227 -152l-51 11
c11 29 34 69 52 88c16 4 34 6 52 6c32 0 65 -6 92 -16c-20 -82 -90 -217 -137 -279c-22 6 -58 23 -69 34c23 46 50 109 61 156z" />
    <glyph glyph-name="uni021B" unicode="&#x21b;" horiz-adv-x="379" 
d="M83 494l31 106c25 13 85 26 122 26l-17 -143h135c2 -11 2 -20 2 -31c0 -23 -2 -49 -6 -68h-144l-22 -217c-5 -45 4 -68 50 -68c29 0 59 7 93 18c0 -29 -14 -78 -33 -103c-44 -21 -89 -31 -126 -31c-94 0 -133 48 -133 127c0 50 19 181 36 274h-77c4 31 18 71 29 90
c17 8 40 16 60 20zM92 -154l-49 10c12 29 33 67 51 86c14 4 34 6 50 6c27 0 66 -5 90 -13c-22 -77 -88 -207 -131 -267c-22 6 -54 25 -65 34c19 43 42 102 54 144z" />
    <glyph glyph-name="dotlessj" unicode="&#x237;" horiz-adv-x="279" 
d="M-17 -237c-25 11 -57 36 -71 60c58 60 118 167 134 286l37 276l-70 -6c0 18 12 74 25 87c31 18 81 28 128 28c17 0 44 -4 62 -9l-38 -339c-17 -158 -100 -285 -207 -383z" />
    <glyph glyph-name="uni0259" unicode="&#x259;" horiz-adv-x="476" 
d="M46 350c0 28 14 74 29 100c37 25 99 50 175 50c122 0 180 -66 180 -189c0 -82 -22 -178 -72 -241c-44 -54 -110 -87 -193 -87c-99 0 -154 49 -154 133c0 86 60 169 277 184v4c0 60 -24 84 -68 84c-57 0 -128 -17 -174 -38zM257 121c9 14 20 36 26 89
c-116 -8 -134 -49 -134 -90c0 -28 10 -46 35 -46c29 0 57 19 73 47z" />
    <glyph glyph-name="uni02BB" unicode="&#x2bb;" horiz-adv-x="258" 
d="M264 729c-34 -65 -81 -167 -98 -223l58 -14c-9 -25 -39 -73 -62 -93c-39 3 -104 26 -130 44c36 100 92 199 143 271c25 10 58 15 89 15z" />
    <glyph glyph-name="afii57929" unicode="&#x2bc;" horiz-adv-x="280" 
d="M116 621l-56 13c12 31 36 75 57 95c15 4 36 7 55 7c31 0 68 -8 95 -18c-30 -104 -109 -249 -160 -319c-24 7 -52 25 -62 37c29 59 57 130 71 185z" />
    <glyph glyph-name="circumflex" unicode="&#x2c6;" horiz-adv-x="530" 
d="M230 756l102 6l114 -155c-14 -22 -47 -47 -73 -55l-102 105l-141 -107c-16 17 -32 57 -35 83z" />
    <glyph glyph-name="caron" unicode="&#x2c7;" horiz-adv-x="530" 
d="M303 558l-109 -5l-119 167c19 19 65 36 91 38l105 -97l132 98c23 -7 57 -29 72 -47z" />
    <glyph glyph-name="breve" unicode="&#x2d8;" horiz-adv-x="530" 
d="M189 751c4 -60 30 -91 81 -91c50 0 81 32 104 86c28 -2 65 -12 83 -25c-28 -99 -99 -165 -203 -165c-99 0 -149 60 -151 158c17 17 55 32 86 37z" />
    <glyph glyph-name="dotaccent" unicode="&#x2d9;" horiz-adv-x="435" 
d="M220 731c47 0 78 -29 78 -79c0 -54 -33 -85 -78 -85c-51 0 -79 29 -79 85c0 46 34 79 79 79z" />
    <glyph glyph-name="ring" unicode="&#x2da;" horiz-adv-x="435" 
d="M249 790c63 0 103 -29 103 -98c0 -80 -56 -133 -141 -133c-65 0 -102 30 -102 96c0 78 51 135 140 135zM242 727c-37 0 -58 -28 -58 -64c0 -28 12 -40 36 -40c34 0 57 25 57 65c0 29 -12 39 -35 39z" />
    <glyph glyph-name="ogonek" unicode="&#x2db;" horiz-adv-x="435" 
d="M344 10c-71 -31 -120 -69 -120 -112c0 -25 18 -36 40 -36c9 0 19 2 25 4c9 -21 13 -47 13 -73c-19 -9 -58 -15 -81 -15c-60 0 -116 30 -116 96c0 53 37 106 119 132c24 3 82 4 120 4z" />
    <glyph glyph-name="tilde" unicode="&#x2dc;" horiz-adv-x="530" 
d="M394 724c25 0 57 -3 79 -17c-10 -64 -61 -133 -151 -133c-63 0 -83 43 -133 43c-29 0 -44 -18 -52 -38c-27 4 -55 22 -65 43c15 59 61 107 139 107c68 0 83 -42 131 -42c29 0 42 17 52 37z" />
    <glyph glyph-name="hungarumlaut" unicode="&#x2dd;" horiz-adv-x="530" 
d="M279 725l-172 -187c-26 9 -54 38 -64 59l116 171c34 0 99 -20 120 -43zM504 725l-172 -187c-26 9 -54 38 -64 59l116 171c34 0 99 -20 120 -43z" />
    <glyph glyph-name="gravecomb" unicode="&#x300;" horiz-adv-x="1" 
d="M-86 553l-147 182c26 21 91 42 131 42l103 -192c-19 -16 -64 -32 -87 -32z" />
    <glyph glyph-name="acutecomb" unicode="&#x301;" horiz-adv-x="1" 
d="M1 725l-205 -180c-24 9 -55 36 -65 56l141 169c37 0 107 -19 129 -45z" />
    <glyph glyph-name="uni0302" unicode="&#x302;" horiz-adv-x="1" 
d="M-215 756l102 6l114 -155c-14 -22 -47 -47 -73 -55l-102 105l-141 -107c-16 17 -32 57 -35 83z" />
    <glyph glyph-name="tildecomb" unicode="&#x303;" horiz-adv-x="1" 
d="M-78 724c25 0 57 -3 79 -17c-10 -64 -61 -133 -151 -133c-63 0 -83 43 -133 43c-29 0 -44 -18 -52 -38c-27 4 -55 22 -65 43c15 59 61 107 139 107c68 0 83 -42 131 -42c29 0 42 17 52 37z" />
    <glyph glyph-name="uni0304" unicode="&#x304;" horiz-adv-x="1" 
d="M-8 625h-328c3 33 12 74 23 102h313c1 -10 1 -19 1 -23c0 -25 -3 -57 -9 -79z" />
    <glyph glyph-name="uni0306" unicode="&#x306;" horiz-adv-x="1" 
d="M-267 748c4 -60 30 -91 81 -91c50 0 81 32 104 86c28 -2 65 -12 83 -25c-28 -99 -99 -165 -203 -165c-99 0 -149 60 -151 158c17 17 55 32 86 37z" />
    <glyph glyph-name="uni0307" unicode="&#x307;" horiz-adv-x="1" 
d="M-77 758c47 0 78 -29 78 -79c0 -54 -33 -85 -78 -85c-51 0 -79 29 -79 85c0 46 34 79 79 79z" />
    <glyph glyph-name="uni0308" unicode="&#x308;" horiz-adv-x="1" 
d="M-328 727c45 0 75 -28 75 -76c0 -52 -32 -82 -75 -82c-49 0 -76 28 -76 82c0 44 33 76 76 76zM-74 727c45 0 75 -28 75 -76c0 -52 -32 -82 -75 -82c-49 0 -76 28 -76 82c0 44 33 76 76 76z" />
    <glyph glyph-name="uni030A" unicode="&#x30a;" horiz-adv-x="1" 
d="M-102 790c63 0 103 -29 103 -98c0 -80 -56 -133 -141 -133c-65 0 -102 30 -102 96c0 78 51 135 140 135zM-109 727c-37 0 -58 -28 -58 -64c0 -28 12 -40 36 -40c34 0 57 25 57 65c0 29 -12 39 -35 39z" />
    <glyph glyph-name="uni030B" unicode="&#x30b;" horiz-adv-x="1" 
d="M-224 732l-172 -187c-26 9 -54 38 -64 59l116 171c34 0 99 -20 120 -43zM1 732l-172 -187c-26 9 -54 38 -64 59l116 171c34 0 99 -20 120 -43z" />
    <glyph glyph-name="uni030C" unicode="&#x30c;" horiz-adv-x="1" 
d="M-171 558l-109 -5l-119 167c19 19 65 36 91 38l105 -97l132 98c23 -7 57 -29 72 -47z" />
    <glyph glyph-name="uni0312" unicode="&#x312;" horiz-adv-x="1" 
d="M1 881c-21 -43 -50 -116 -62 -154l53 -13c-8 -24 -35 -66 -55 -85c-45 5 -100 21 -131 41c26 73 71 151 110 202c17 6 58 9 85 9z" />
    <glyph glyph-name="uni0313" unicode="&#x313;" horiz-adv-x="1" 
d="M-137 585l-43 10c10 27 32 62 49 81c12 3 31 5 47 5c26 0 62 -6 85 -15c-22 -76 -88 -199 -133 -258c-20 5 -52 23 -63 33c23 42 46 100 58 144z" />
    <glyph glyph-name="uni0326" unicode="&#x326;" horiz-adv-x="1" 
d="M-141 -154l-49 10c12 29 33 67 51 86c14 4 34 6 50 6c27 0 66 -5 90 -13c-22 -77 -88 -207 -131 -267c-22 6 -54 25 -65 34c19 43 42 102 54 144z" />
    <glyph glyph-name="uni0394" unicode="&#x394;" horiz-adv-x="657" 
d="M310 718h109l200 -643l-6 -75h-637l5 64zM136 95h312l-85 295c-11 37 -24 133 -24 176h-12c-6 -46 -33 -138 -50 -174z" />
    <glyph glyph-name="uni03A9" unicode="&#x3a9;" horiz-adv-x="821" 
d="M405 0l7 85c83 47 160 183 160 337c0 112 -41 212 -145 212c-129 0 -191 -154 -191 -296c0 -122 45 -208 105 -253l-8 -85h-358l15 162c30 0 80 -3 106 -10c4 -15 7 -43 7 -58h107v12c-68 48 -125 112 -125 244c0 218 157 375 354 375c173 0 286 -123 286 -297
c0 -158 -96 -278 -175 -322v-12h107c2 19 9 44 14 59c26 7 78 12 111 12l-15 -165h-362z" />
    <glyph glyph-name="uni03BC" unicode="&#x3bc;" horiz-adv-x="622" 
d="M134 74h-12c7 -57 14 -154 14 -225c0 -50 -4 -89 -8 -126c-55 2 -113 17 -141 35c35 231 76 513 101 721c31 11 115 18 143 18c-16 -79 -34 -187 -34 -264c0 -96 27 -146 77 -146c41 0 78 33 103 69c0 94 22 235 40 324c31 11 100 17 130 17c-19 -94 -44 -242 -44 -331
c0 -63 13 -79 32 -79c15 0 37 4 51 12c-1 -26 -15 -72 -28 -91c-20 -14 -52 -25 -82 -25c-58 0 -84 48 -86 93h-9c-19 -39 -54 -93 -134 -93c-63 0 -102 31 -113 91z" />
    <glyph glyph-name="pi" unicode="&#x3c0;" horiz-adv-x="611" 
d="M20 428c75 55 134 70 301 70c86 0 192 -4 282 -9c1 -7 2 -18 2 -29c0 -28 -4 -64 -12 -92c-27 2 -62 4 -100 5c-12 -53 -29 -135 -29 -208c0 -44 6 -71 35 -71c13 0 34 4 44 9c-1 -31 -13 -84 -30 -107c-18 -8 -54 -13 -78 -13c-78 0 -100 67 -100 155
c0 82 22 186 35 240c-22 3 -51 5 -80 5c-13 0 -27 -1 -39 -2c-5 -133 -35 -286 -78 -404c-61 5 -106 23 -130 43c41 96 75 231 80 350c-42 -6 -89 -28 -121 -53c-1 4 -2 16 -2 24c0 27 8 66 20 87z" />
    <glyph glyph-name="Wgrave" unicode="&#x1e80;" horiz-adv-x="1007" 
d="M301 127h11c4 53 21 140 38 190l140 401h137l55 -382c7 -48 9 -143 9 -201h12c7 59 24 139 40 182l70 184c13 35 32 76 51 105c-17 1 -39 5 -55 10c-6 23 -10 68 -10 93h245c-3 -27 -13 -73 -23 -96c-15 -4 -35 -7 -51 -8l-247 -616h-128l-54 414c-5 43 -8 122 -8 172
h-12c-5 -52 -18 -123 -33 -168l-145 -419h-142l-114 618c-15 2 -35 7 -48 12c-6 25 -9 67 -9 91h290c-3 -25 -14 -70 -25 -96c-13 -4 -51 -8 -66 -8c12 -25 24 -67 30 -104l27 -173c9 -55 15 -148 15 -201zM609 754l-271 108c23 32 79 78 115 92l200 -108
c-5 -27 -26 -72 -44 -92z" />
    <glyph glyph-name="wgrave" unicode="&#x1e81;" horiz-adv-x="814" 
d="M571 103c35 89 70 190 95 276c0 4 -2 12 -4 17l-63 -5c2 27 15 73 31 89c25 10 92 20 117 20c17 -13 49 -73 49 -98c-51 -128 -123 -280 -201 -427l-152 23l-34 372h-12c-35 -125 -81 -266 -129 -395l-166 23l-50 389l-61 -6c0 19 11 75 22 89c30 14 66 24 109 24
c20 0 41 -3 60 -9l24 -253c4 -38 5 -91 5 -129h12c37 120 74 251 105 380l189 13l33 -260c5 -38 9 -94 9 -133h12zM432 553l-147 182c26 21 91 42 131 42l103 -192c-19 -16 -64 -32 -87 -32z" />
    <glyph glyph-name="Wacute" unicode="&#x1e82;" horiz-adv-x="1007" 
d="M301 127h11c4 53 21 140 38 190l140 401h137l55 -382c7 -48 9 -143 9 -201h12c7 59 24 139 40 182l70 184c13 35 32 76 51 105c-17 1 -39 5 -55 10c-6 23 -10 68 -10 93h245c-3 -27 -13 -73 -23 -96c-15 -4 -35 -7 -51 -8l-247 -616h-128l-54 414c-5 43 -8 122 -8 172
h-12c-5 -52 -18 -123 -33 -168l-145 -419h-142l-114 618c-15 2 -35 7 -48 12c-6 25 -9 67 -9 91h290c-3 -25 -14 -70 -25 -96c-13 -4 -51 -8 -66 -8c12 -25 24 -67 30 -104l27 -173c9 -55 15 -148 15 -201zM779 851l-296 -100c-5 18 -8 47 -8 71c0 4 0 13 1 23l239 114
c25 -22 54 -72 64 -108z" />
    <glyph glyph-name="wacute" unicode="&#x1e83;" horiz-adv-x="814" 
d="M571 103c35 89 70 190 95 276c0 4 -2 12 -4 17l-63 -5c2 27 15 73 31 89c25 10 92 20 117 20c17 -13 49 -73 49 -98c-51 -128 -123 -280 -201 -427l-152 23l-34 372h-12c-35 -125 -81 -266 -129 -395l-166 23l-50 389l-61 -6c0 19 11 75 22 89c30 14 66 24 109 24
c20 0 41 -3 60 -9l24 -253c4 -38 5 -91 5 -129h12c37 120 74 251 105 380l189 13l33 -260c5 -38 9 -94 9 -133h12zM604 725l-205 -180c-24 9 -55 36 -65 56l141 169c37 0 107 -19 129 -45z" />
    <glyph glyph-name="Wdieresis" unicode="&#x1e84;" horiz-adv-x="1007" 
d="M301 127h11c4 53 21 140 38 190l140 401h137l55 -382c7 -48 9 -143 9 -201h12c7 59 24 139 40 182l70 184c13 35 32 76 51 105c-17 1 -39 5 -55 10c-6 23 -10 68 -10 93h245c-3 -27 -13 -73 -23 -96c-15 -4 -35 -7 -51 -8l-247 -616h-128l-54 414c-5 43 -8 122 -8 172
h-12c-5 -52 -18 -123 -33 -168l-145 -419h-142l-114 618c-15 2 -35 7 -48 12c-6 25 -9 67 -9 91h290c-3 -25 -14 -70 -25 -96c-13 -4 -51 -8 -66 -8c12 -25 24 -67 30 -104l27 -173c9 -55 15 -148 15 -201zM382 923c49 0 83 -29 83 -78c0 -53 -36 -83 -83 -83
c-54 0 -85 28 -85 83c0 45 37 78 85 78zM731 923c49 0 83 -29 83 -78c0 -53 -36 -83 -83 -83c-54 0 -85 28 -85 83c0 45 37 78 85 78z" />
    <glyph glyph-name="wdieresis" unicode="&#x1e85;" horiz-adv-x="814" 
d="M288 727c45 0 75 -28 75 -76c0 -52 -32 -82 -75 -82c-49 0 -76 28 -76 82c0 44 33 76 76 76zM582 727c45 0 75 -28 75 -76c0 -52 -32 -82 -75 -82c-49 0 -76 28 -76 82c0 44 33 76 76 76zM571 103c35 89 70 190 95 276c0 4 -2 12 -4 17l-63 -5c2 27 15 73 31 89
c25 10 92 20 117 20c17 -13 49 -73 49 -98c-51 -128 -123 -280 -201 -427l-152 23l-34 372h-12c-35 -125 -81 -266 -129 -395l-166 23l-50 389l-61 -6c0 19 11 75 22 89c30 14 66 24 109 24c20 0 41 -3 60 -9l24 -253c4 -38 5 -91 5 -129h12c37 120 74 251 105 380l189 13
l33 -260c5 -38 9 -94 9 -133h12z" />
    <glyph glyph-name="uni1E8A" unicode="&#x1e8a;" horiz-adv-x="726" 
d="M411 442l68 113c10 18 28 39 42 53c-13 1 -33 6 -43 10c-6 24 -10 67 -10 91h251c-3 -26 -15 -72 -27 -96c-13 -3 -38 -7 -52 -8l-179 -251l150 -248c14 -1 44 -7 63 -12c4 -22 9 -66 9 -94h-310c5 29 19 71 28 92c13 4 38 8 49 9c-16 13 -37 46 -50 69l-68 115l-65 -108
c-18 -29 -44 -56 -62 -74c15 -1 41 -6 54 -10c5 -22 9 -66 9 -93h-288c5 31 18 66 30 89c14 5 45 11 59 13l206 280l-128 222c-18 3 -42 9 -56 14c-7 26 -12 66 -12 91h311c-3 -25 -15 -70 -26 -96c-14 -4 -39 -7 -56 -8c13 -11 35 -40 45 -58zM431 925c50 0 85 -30 85 -80
c0 -55 -37 -86 -85 -86c-56 0 -88 29 -88 86c0 46 38 80 88 80z" />
    <glyph glyph-name="uni1E8B" unicode="&#x1e8b;" horiz-adv-x="532" 
d="M236 489c18 -46 32 -96 54 -147h9c21 38 47 96 62 137c24 6 52 8 77 8s54 -2 77 -8c-43 -72 -121 -180 -172 -247c25 -62 58 -121 75 -141l75 10c0 -26 -11 -70 -24 -95c-30 -14 -95 -24 -136 -29c-26 21 -64 96 -87 154h-9c-30 -47 -83 -111 -123 -154
c-41 11 -87 31 -110 47c-6 16 -8 38 -8 56c0 17 2 36 5 48l62 -25c32 30 85 85 121 133c-25 55 -46 108 -63 153l-60 -9c0 20 9 72 19 88c27 17 69 26 107 26c17 0 34 -1 49 -5zM316 758c47 0 78 -29 78 -79c0 -54 -33 -85 -78 -85c-51 0 -79 29 -79 85c0 46 34 79 79 79z
" />
    <glyph glyph-name="Ygrave" unicode="&#x1ef2;" horiz-adv-x="642" 
d="M337 353h12c7 34 25 78 39 102l64 106c9 15 24 32 39 45c-15 2 -36 7 -47 12c-4 20 -9 70 -9 91h254c-3 -27 -13 -73 -23 -96c-16 -4 -36 -7 -52 -8l-227 -339l-11 -160c31 -2 71 -8 95 -14c5 -22 3 -71 -3 -92h-357c3 25 20 69 31 89c20 6 60 14 83 17l14 155l-151 345
c-15 2 -35 7 -48 12c-6 21 -7 63 -7 91h297c-3 -25 -15 -70 -24 -96c-15 -4 -43 -7 -59 -8c11 -10 23 -33 30 -51l38 -98c9 -23 21 -69 22 -103zM423 754l-271 108c23 32 79 78 115 92l200 -108c-5 -27 -26 -72 -44 -92z" />
    <glyph glyph-name="ygrave" unicode="&#x1ef3;" horiz-adv-x="489" 
d="M37 392l-61 -4c0 19 13 74 24 88c28 13 67 21 107 21c19 0 38 -4 55 -10l56 -256c7 -32 15 -93 16 -128h12c33 85 65 188 89 271c0 4 -2 12 -4 17l-68 -4c3 27 17 72 33 88c30 11 106 19 136 19c15 -13 42 -74 42 -99c-61 -161 -167 -375 -234 -455
c-63 -74 -134 -141 -230 -181c-20 26 -42 91 -42 127c68 20 132 52 175 101zM288 553l-147 182c26 21 91 42 131 42l103 -192c-19 -16 -64 -32 -87 -32z" />
    <glyph glyph-name="uni2007" unicode="&#x2007;" horiz-adv-x="625" 
 />
    <glyph glyph-name="uni2008" unicode="&#x2008;" horiz-adv-x="281" 
 />
    <glyph glyph-name="uni200B" unicode="&#x200b;" horiz-adv-x="0" 
 />
    <glyph glyph-name="uniFEFF" unicode="&#xfeff;" horiz-adv-x="0" 
 />
    <glyph glyph-name="endash" unicode="&#x2013;" horiz-adv-x="500" 
d="M440 225h-410c3 34 12 77 24 106h395c0 -6 1 -14 1 -22c0 -27 -3 -60 -10 -84z" />
    <glyph glyph-name="emdash" unicode="&#x2014;" horiz-adv-x="1000" 
d="M897 225h-847c3 34 12 77 24 106h832c0 -6 1 -14 1 -22c0 -27 -3 -60 -10 -84z" />
    <glyph glyph-name="quoteleft" unicode="&#x2018;" horiz-adv-x="258" 
d="M264 729c-34 -65 -81 -167 -98 -223l58 -14c-9 -25 -39 -73 -62 -93c-39 3 -104 26 -130 44c36 100 92 199 143 271c25 10 58 15 89 15z" />
    <glyph glyph-name="quoteright" unicode="&#x2019;" horiz-adv-x="280" 
d="M116 621l-56 13c12 31 36 75 57 95c15 4 36 7 55 7c31 0 68 -8 95 -18c-30 -104 -109 -249 -160 -319c-24 7 -52 25 -62 37c29 59 57 130 71 185z" />
    <glyph glyph-name="quotesinglbase" unicode="&#x201a;" horiz-adv-x="276" 
d="M70 14l-55 13c11 31 34 74 55 94c17 5 38 7 56 7c34 0 67 -7 96 -17c-29 -104 -111 -257 -162 -327c-24 7 -54 25 -64 37c28 59 59 138 74 193z" />
    <glyph glyph-name="quotereversed" unicode="&#x201b;" horiz-adv-x="265" 
d="M220 635l-56 -13c2 -61 13 -139 26 -196c-16 -12 -55 -27 -81 -31c-34 75 -66 211 -73 319c31 12 74 20 110 20c13 0 27 -1 39 -3c18 -24 33 -64 35 -96z" />
    <glyph glyph-name="quotedblleft" unicode="&#x201c;" horiz-adv-x="494" 
d="M247 730c-34 -65 -81 -168 -98 -224l58 -14c-9 -25 -41 -75 -63 -95c-42 4 -101 27 -127 46c36 100 93 200 144 272c25 10 55 15 86 15zM479 730c-35 -65 -82 -168 -98 -224l58 -14c-9 -25 -42 -75 -64 -95c-41 4 -101 27 -127 46c37 100 94 200 144 272
c25 10 55 15 87 15z" />
    <glyph glyph-name="quotedblright" unicode="&#x201d;" horiz-adv-x="471" 
d="M107 621l-56 13c12 31 36 75 57 95c17 5 36 7 55 7c32 0 65 -7 93 -18c-30 -104 -109 -249 -160 -319c-24 7 -50 25 -60 37c30 59 57 130 71 185zM330 621l-56 13c12 31 37 75 57 95c17 5 36 7 55 7c32 0 65 -7 93 -18c-29 -104 -109 -249 -160 -319c-23 7 -50 25 -59 37
c30 59 57 130 70 185z" />
    <glyph glyph-name="quotedblbase" unicode="&#x201e;" horiz-adv-x="500" 
d="M67 14l-54 13c11 31 35 75 55 95c18 5 36 7 55 7c32 0 65 -7 93 -18c-29 -104 -108 -253 -159 -323c-24 7 -50 25 -60 37c28 59 57 134 70 189zM293 14l-55 13c12 31 35 75 56 95c17 5 35 7 54 7c32 0 66 -7 94 -18c-30 -104 -109 -253 -160 -323c-23 7 -50 25 -60 37
c29 59 57 134 71 189z" />
    <glyph glyph-name="dagger" unicode="&#x2020;" horiz-adv-x="500" 
d="M472 389h-149l-73 -564c-12 -3 -30 -5 -50 -5c-18 0 -36 2 -48 5l38 564h-143c3 33 12 73 23 101h127l12 200c41 12 101 20 152 20l-27 -220h146c1 -7 1 -14 1 -23c0 -25 -3 -56 -9 -78z" />
    <glyph glyph-name="daggerdbl" unicode="&#x2021;" horiz-adv-x="500" 
d="M443 99h-156l-35 -273c-12 -3 -30 -5 -50 -5c-18 0 -36 2 -48 5l18 273h-150c3 33 12 73 23 101h134l13 189h-143c3 33 12 73 23 101h127l12 199c41 12 101 20 152 20l-27 -219h143c1 -7 1 -14 1 -23c0 -25 -3 -56 -9 -78h-146l-25 -189h151c3 -26 0 -71 -8 -101z" />
    <glyph glyph-name="bullet" unicode="&#x2022;" horiz-adv-x="568" 
d="M269 423c103 0 172 -62 172 -178s-74 -186 -172 -186c-120 0 -182 62 -182 186c0 104 78 178 182 178z" />
    <glyph glyph-name="ellipsis" unicode="&#x2026;" horiz-adv-x="921" 
d="M435 175c53 0 89 -32 89 -91c0 -60 -38 -96 -89 -96c-61 0 -93 32 -93 96c0 53 40 91 93 91zM124 175c53 0 89 -32 89 -91c0 -60 -38 -96 -89 -96c-61 0 -93 32 -93 96c0 53 40 91 93 91zM748 175c53 0 89 -32 89 -91c0 -60 -38 -96 -89 -96c-61 0 -93 32 -93 96
c0 53 40 91 93 91z" />
    <glyph glyph-name="perthousand" unicode="&#x2030;" horiz-adv-x="1375" 
d="M756 546l-456 -595c-30 6 -79 40 -94 59l438 562c33 -1 82 -12 112 -26zM241 562c97 0 153 -49 153 -146c0 -117 -83 -188 -204 -188c-98 0 -152 47 -152 141c0 116 80 193 203 193zM226 476c-45 0 -68 -46 -68 -97c0 -42 17 -66 48 -66c43 0 66 45 66 98
c0 40 -13 65 -46 65zM759 314c97 0 153 -49 153 -146c0 -117 -83 -188 -204 -188c-98 0 -152 47 -152 141c0 116 80 193 203 193zM744 228c-45 0 -68 -46 -68 -97c0 -42 17 -66 48 -66c43 0 66 45 66 98c0 40 -13 65 -46 65zM1174 314c97 0 153 -49 153 -146
c0 -117 -83 -188 -204 -188c-98 0 -152 47 -152 141c0 116 80 193 203 193zM1159 228c-45 0 -68 -46 -68 -97c0 -42 17 -66 48 -66c43 0 66 45 66 98c0 40 -13 65 -46 65z" />
    <glyph glyph-name="guilsinglleft" unicode="&#x2039;" horiz-adv-x="360" 
d="M192 258c12 -65 35 -140 59 -199c-30 -15 -87 -29 -125 -29c-38 75 -74 159 -94 228c37 70 74 127 127 199c41 13 102 22 151 22c-46 -74 -85 -147 -118 -221z" />
    <glyph glyph-name="guilsinglright" unicode="&#x203a;" horiz-adv-x="353" 
d="M137 258c-15 66 -33 126 -57 192c31 17 84 33 122 33c41 -78 74 -158 94 -225c-37 -68 -96 -155 -151 -230c-38 3 -83 21 -111 38c40 64 73 126 103 192z" />
    <glyph glyph-name="uni203E" unicode="&#x203e;" horiz-adv-x="500" 
d="M-4 734h507c3 -14 6 -44 6 -71c0 -11 -1 -22 -2 -31h-527c0 29 7 75 16 102z" />
    <glyph glyph-name="fraction" unicode="&#x2044;" horiz-adv-x="192" 
d="M419 697l-566 -741c-38 9 -77 35 -94 61l546 702c36 0 83 -8 114 -22z" />
    <glyph glyph-name="uni2070" unicode="&#x2070;" horiz-adv-x="385" 
d="M205 775c86 0 140 -50 140 -167c0 -142 -74 -238 -190 -238c-86 0 -138 53 -138 168c0 136 69 237 188 237zM193 694c-41 0 -57 -86 -57 -156c0 -55 11 -85 33 -85c39 0 57 79 57 155c0 57 -7 86 -33 86z" />
    <glyph glyph-name="uni2074" unicode="&#x2074;" horiz-adv-x="385" 
d="M293 466l-8 -86c-11 -4 -33 -5 -54 -5c-22 0 -43 1 -58 5l9 86h-178l8 64l183 238h129l-24 -219h47c1 -5 1 -12 1 -20c0 -21 -3 -48 -7 -63h-48zM191 549l7 61c2 20 7 47 11 61h-7l-84 -118v-7c11 2 26 3 38 3h35z" />
    <glyph glyph-name="uni2075" unicode="&#x2075;" horiz-adv-x="385" 
d="M179 678l-8 -52c12 2 27 3 41 3c69 0 116 -28 116 -106c0 -106 -85 -153 -194 -153c-32 0 -78 4 -101 10c-7 18 -11 40 -11 61c0 12 1 23 4 35c30 -12 82 -22 113 -22s70 9 70 52c0 35 -25 43 -72 43c-23 0 -58 -2 -87 -7l39 226h265c-2 -24 -8 -63 -16 -90h-159z" />
    <glyph glyph-name="uni2076" unicode="&#x2076;" horiz-adv-x="385" 
d="M152 604h9c15 15 36 27 73 27c69 0 103 -42 103 -106c0 -97 -65 -155 -170 -155c-93 0 -140 47 -140 141c0 143 73 264 226 264c25 0 62 -2 84 -9c3 -14 5 -31 5 -49c0 -14 -2 -30 -4 -41c-25 11 -63 18 -95 18s-74 -15 -91 -90zM145 532c-2 -12 -2 -26 -2 -33
c0 -38 11 -53 33 -53c31 0 43 38 43 70c0 23 -10 35 -29 35c-18 0 -34 -10 -45 -19z" />
    <glyph glyph-name="uni2077" unicode="&#x2077;" horiz-adv-x="385" 
d="M372 768l-7 -79c-70 -109 -119 -203 -162 -310c-16 -4 -38 -5 -54 -5c-24 0 -50 2 -72 6c45 103 107 209 181 299v9h-107c-3 -16 -10 -40 -16 -56c-24 -6 -63 -11 -90 -11l18 147h309z" />
    <glyph glyph-name="uni2078" unicode="&#x2078;" horiz-adv-x="385" 
d="M98 573v9c-25 10 -46 35 -46 78c0 84 81 115 162 115c68 0 130 -22 130 -88c0 -41 -24 -75 -63 -90v-9c32 -13 58 -37 58 -89c0 -94 -86 -129 -181 -129c-76 0 -141 23 -141 98c0 49 29 92 81 105zM166 539c-15 -11 -33 -33 -33 -59s18 -37 42 -37c22 0 49 10 49 43
c0 29 -23 39 -58 53zM208 632c11 7 25 23 25 43c0 22 -15 29 -32 29c-16 0 -41 -7 -41 -32c0 -21 21 -29 48 -40z" />
    <glyph glyph-name="uni2079" unicode="&#x2079;" horiz-adv-x="385" 
d="M224 547h-9c-16 -15 -35 -28 -73 -28c-68 0 -99 41 -99 107c0 97 66 149 169 149c95 0 137 -45 137 -151c0 -131 -62 -254 -231 -254c-21 0 -66 2 -84 9c-5 17 -8 39 -8 59c0 14 1 27 5 39c24 -11 67 -20 100 -20c32 0 74 8 93 90zM235 618c1 10 2 20 2 28
c0 39 -15 55 -38 55c-33 0 -45 -37 -45 -66c0 -24 10 -36 32 -36c19 0 37 10 49 19z" />
    <glyph glyph-name="uni2080" unicode="&#x2080;" horiz-adv-x="385" 
d="M212 310c86 0 140 -50 140 -167c0 -142 -74 -238 -190 -238c-86 0 -138 53 -138 168c0 136 69 237 188 237zM200 229c-41 0 -57 -86 -57 -156c0 -55 11 -85 33 -85c39 0 57 79 57 155c0 57 -7 86 -33 86z" />
    <glyph glyph-name="uni2081" unicode="&#x2081;" horiz-adv-x="385" 
d="M279 310l-31 -318c16 -1 52 -6 69 -10c1 -16 1 -27 1 -31c0 -7 -1 -29 -2 -39h-271c3 22 13 50 23 68c16 5 45 11 62 13l24 222l-87 -7c3 21 12 52 25 75c43 10 127 24 187 27z" />
    <glyph glyph-name="uni2082" unicode="&#x2082;" horiz-adv-x="385" 
d="M12 -88l9 76c74 64 214 138 214 213c0 21 -13 32 -40 32c-14 0 -40 -4 -49 -8l-3 -44c-25 -9 -68 -14 -92 -14c-4 30 -5 73 -5 104c44 21 103 39 169 39c79 0 138 -25 138 -90c0 -99 -135 -173 -219 -217v-7c62 0 132 3 204 8c-3 -23 -12 -69 -19 -92h-307z" />
    <glyph glyph-name="uni2083" unicode="&#x2083;" horiz-adv-x="385" 
d="M91 70c0 24 7 62 16 82c37 0 121 1 121 47c0 22 -20 29 -38 29c-32 0 -80 -10 -112 -24c0 22 7 62 22 86c34 15 75 20 108 20c73 0 138 -27 138 -92c0 -45 -33 -81 -80 -94v-9c39 -8 67 -29 67 -79c0 -89 -91 -131 -188 -131c-30 0 -74 5 -99 13c-6 15 -11 43 -11 67
c0 6 1 20 3 29c32 -16 88 -26 119 -26s56 11 56 40c0 33 -30 42 -122 42z" />
    <glyph glyph-name="uni2084" unicode="&#x2084;" horiz-adv-x="385" 
d="M300 1l-8 -86c-11 -4 -33 -5 -54 -5c-22 0 -43 1 -58 5l9 86h-178l8 64l183 238h129l-24 -219h47c1 -5 1 -12 1 -20c0 -21 -3 -48 -7 -63h-48zM198 84l7 61c2 20 7 47 11 61h-7l-84 -118v-7c11 2 26 3 38 3h35z" />
    <glyph glyph-name="uni2085" unicode="&#x2085;" horiz-adv-x="385" 
d="M186 213l-8 -52c12 2 27 3 41 3c69 0 116 -28 116 -106c0 -106 -85 -153 -194 -153c-32 0 -78 4 -101 10c-7 18 -11 40 -11 61c0 12 1 23 4 35c30 -12 82 -22 113 -22s70 9 70 52c0 35 -25 43 -72 43c-23 0 -58 -2 -87 -7l39 226h265c-2 -24 -8 -63 -16 -90h-159z" />
    <glyph glyph-name="uni2086" unicode="&#x2086;" horiz-adv-x="385" 
d="M159 139h9c15 15 36 27 73 27c69 0 103 -42 103 -106c0 -97 -65 -155 -170 -155c-93 0 -140 47 -140 141c0 143 73 264 226 264c25 0 62 -2 84 -9c3 -14 5 -31 5 -49c0 -14 -2 -30 -4 -41c-25 11 -63 18 -95 18s-74 -15 -91 -90zM152 67c-2 -12 -2 -26 -2 -33
c0 -38 11 -53 33 -53c31 0 43 38 43 70c0 23 -10 35 -29 35c-18 0 -34 -10 -45 -19z" />
    <glyph glyph-name="uni2087" unicode="&#x2087;" horiz-adv-x="385" 
d="M379 304l-7 -79c-70 -109 -119 -203 -162 -310c-16 -4 -38 -5 -54 -5c-24 0 -50 2 -72 6c45 103 107 209 181 299v9h-107c-3 -16 -10 -40 -16 -56c-24 -6 -63 -11 -90 -11l18 147h309z" />
    <glyph glyph-name="uni2088" unicode="&#x2088;" horiz-adv-x="385" 
d="M105 108v9c-25 10 -46 35 -46 78c0 84 81 115 162 115c68 0 130 -22 130 -88c0 -41 -24 -75 -63 -90v-9c32 -13 58 -37 58 -89c0 -94 -86 -129 -181 -129c-76 0 -141 23 -141 98c0 49 29 92 81 105zM173 74c-15 -11 -33 -33 -33 -59s18 -37 42 -37c22 0 49 10 49 43
c0 29 -23 39 -58 53zM215 167c11 7 25 23 25 43c0 22 -15 29 -32 29c-16 0 -41 -7 -41 -32c0 -21 21 -29 48 -40z" />
    <glyph glyph-name="uni2089" unicode="&#x2089;" horiz-adv-x="385" 
d="M231 82h-9c-16 -15 -35 -28 -73 -28c-68 0 -99 41 -99 107c0 97 66 149 169 149c95 0 137 -45 137 -151c0 -131 -62 -254 -231 -254c-21 0 -66 2 -84 9c-5 17 -8 39 -8 59c0 14 1 27 5 39c24 -11 67 -20 100 -20c32 0 74 8 93 90zM242 153c1 10 2 20 2 28
c0 39 -15 55 -38 55c-33 0 -45 -37 -45 -66c0 -24 10 -36 32 -36c19 0 37 10 49 19z" />
    <glyph glyph-name="Euro" unicode="&#x20ac;" horiz-adv-x="626" 
d="M454 280h-422c2 25 9 55 17 76h61c50 123 173 206 326 206c67 0 125 -16 175 -46c0 -41 -16 -100 -30 -131c-37 0 -97 16 -124 31l5 42c-13 5 -36 8 -52 8c-61 0 -113 -42 -140 -110h190c2 -19 0 -54 -6 -76zM37 234h411c2 -19 0 -54 -6 -76h-182c20 -54 64 -73 128 -73
c47 0 116 11 168 29c0 -25 -15 -67 -34 -90c-46 -24 -122 -44 -190 -44c-126 0 -212 69 -238 178h-74c2 25 9 55 17 76z" />
    <glyph glyph-name="afii61289" unicode="&#x2113;" horiz-adv-x="509" 
d="M109 286l20 193c16 152 112 225 209 225c76 0 137 -45 137 -141c0 -120 -94 -224 -232 -323c-3 -26 -7 -62 -7 -90c0 -38 9 -67 48 -67c27 0 65 20 101 61c23 -13 56 -40 68 -59c-64 -79 -127 -105 -193 -105c-95 0 -166 48 -166 143c0 9 1 24 2 34
c-11 -7 -30 -17 -42 -23c-11 35 -13 77 -13 112c25 14 47 27 68 40zM257 383c59 55 89 113 89 172c0 36 -11 51 -27 51c-28 0 -50 -47 -55 -119z" />
    <glyph glyph-name="afii61352" unicode="&#x2116;" horiz-adv-x="1082" 
d="M309 539l127 -235c15 -28 42 -97 48 -139h12l33 275c-25 2 -61 9 -77 15c-3 23 0 63 5 84h250c1 -19 -6 -63 -11 -85c-15 -6 -43 -12 -60 -14l-49 -442l-148 -16l-149 275c-14 26 -37 91 -42 130h-12l-29 -282c17 -3 49 -11 65 -20c1 -20 -1 -65 -7 -85h-259
c5 26 16 62 25 79c18 12 40 22 60 29l40 332c-19 2 -48 9 -61 15c-2 23 1 63 6 84h233zM909 519c93 0 151 -49 151 -137c0 -56 -16 -103 -44 -138c-34 -42 -87 -66 -149 -66c-97 0 -152 52 -152 146c0 50 14 95 41 128c35 43 89 67 153 67zM900 442c-23 0 -42 -10 -54 -28
c-14 -21 -19 -51 -19 -82c0 -46 18 -75 50 -75c19 0 36 9 48 25c16 21 24 55 24 91c0 41 -19 69 -49 69zM998 54h-296c2 28 10 62 19 85h284c2 -22 0 -60 -7 -85z" />
    <glyph glyph-name="trademark" unicode="&#x2122;" horiz-adv-x="996" 
d="M289 649l-17 -178c16 -1 38 -4 53 -9c3 -12 0 -45 -5 -60h-209c3 16 12 44 21 59c14 4 27 7 43 9l21 179h-55c-4 -17 -10 -40 -15 -54c-22 -8 -52 -11 -76 -11l16 125h371l-15 -124c-22 0 -51 2 -72 6c-4 17 -4 39 -4 58h-57zM601 402h-153c2 15 11 46 17 60
c10 3 25 6 36 8l22 170c-12 2 -27 3 -41 8c0 14 3 45 7 61h181l35 -172c4 -20 7 -48 9 -70h9c5 22 12 45 21 64l79 178h168c0 -14 -5 -47 -9 -62c-11 -3 -29 -6 -41 -6l-16 -169c13 -1 34 -5 47 -10c3 -12 0 -45 -6 -60h-175c2 16 10 46 16 60c10 3 23 6 32 7l22 180h-9
c-6 -24 -25 -68 -39 -98l-70 -154h-100l-33 162c-6 30 -12 64 -12 90h-9l-18 -180c11 -1 26 -4 36 -8c2 -15 -2 -45 -6 -59z" />
    <glyph glyph-name="Omega" unicode="&#x2126;" horiz-adv-x="821" 
d="M405 0l7 85c83 47 160 183 160 337c0 112 -41 212 -145 212c-129 0 -191 -154 -191 -296c0 -122 45 -208 105 -253l-8 -85h-358l15 162c30 0 80 -3 106 -10c4 -15 7 -43 7 -58h107v12c-68 48 -125 112 -125 244c0 218 157 375 354 375c173 0 286 -123 286 -297
c0 -158 -96 -278 -175 -322v-12h107c2 19 9 44 14 59c26 7 78 12 111 12l-15 -165h-362z" />
    <glyph glyph-name="estimated" unicode="&#x212e;" horiz-adv-x="879" 
d="M845 332h-649c-3 0 -5 -1 -5 -4v-197c0 -8 3 -17 9 -23c60 -65 149 -107 246 -107c105 0 195 47 257 119h59c-73 -86 -188 -140 -317 -140c-223 0 -402 162 -402 361c0 200 179 363 402 363c220 0 400 -163 400 -363v-9zM698 359v195c0 11 -4 20 -11 26
c-60 62 -146 101 -241 101c-96 0 -184 -40 -245 -105c-7 -5 -10 -16 -10 -26v-191c0 -2 2 -5 5 -5h498c2 0 4 3 4 5z" />
    <glyph glyph-name="uni2150" unicode="&#x2150;" horiz-adv-x="962" 
d="M272 691l-31 -318c16 -1 52 -6 69 -10c1 -16 1 -27 1 -31c0 -7 -1 -29 -2 -39h-271c3 22 13 50 23 68c16 5 45 11 62 13l24 222l-87 -7c3 21 12 52 25 75c43 10 127 24 187 27zM804 697l-566 -741c-38 9 -77 35 -94 61l546 702c36 0 83 -8 114 -22zM949 391l-7 -79
c-70 -109 -119 -203 -162 -310c-16 -4 -38 -5 -54 -5c-24 0 -50 2 -72 6c45 103 107 209 181 299v9h-107c-3 -16 -10 -40 -16 -56c-24 -6 -63 -11 -90 -11l18 147h309z" />
    <glyph glyph-name="uni2151" unicode="&#x2151;" horiz-adv-x="962" 
d="M272 691l-31 -318c16 -1 52 -6 69 -10c1 -16 1 -27 1 -31c0 -7 -1 -29 -2 -39h-271c3 22 13 50 23 68c16 5 45 11 62 13l24 222l-87 -7c3 21 12 52 25 75c43 10 127 24 187 27zM804 697l-566 -741c-38 9 -77 35 -94 61l546 702c36 0 83 -8 114 -22zM801 170h-9
c-16 -15 -35 -28 -73 -28c-68 0 -99 41 -99 107c0 97 66 149 169 149c95 0 137 -45 137 -151c0 -131 -62 -254 -231 -254c-21 0 -66 2 -84 9c-5 17 -8 39 -8 59c0 14 1 27 5 39c24 -11 67 -20 100 -20c32 0 74 8 93 90zM812 241c1 10 2 20 2 28c0 39 -15 55 -38 55
c-33 0 -45 -37 -45 -66c0 -24 10 -36 32 -36c19 0 37 10 49 19z" />
    <glyph glyph-name="uni2152" unicode="&#x2152;" horiz-adv-x="1317" 
d="M272 691l-31 -318c16 -1 52 -6 69 -10c1 -16 1 -27 1 -31c0 -7 -1 -29 -2 -39h-271c3 22 13 50 23 68c16 5 45 11 62 13l24 222l-87 -7c3 21 12 52 25 75c43 10 127 24 187 27zM804 697l-566 -741c-38 9 -77 35 -94 61l546 702c36 0 83 -8 114 -22zM849 398l-31 -318
c16 -1 52 -6 69 -10c1 -16 1 -27 1 -31c0 -7 -1 -29 -2 -39h-271c3 22 13 50 23 68c16 5 45 11 62 13l24 222l-87 -7c3 21 12 52 25 75c43 10 127 24 187 27zM1137 398c86 0 140 -50 140 -167c0 -142 -74 -238 -190 -238c-86 0 -138 53 -138 168c0 136 69 237 188 237z
M1125 317c-41 0 -57 -86 -57 -156c0 -55 11 -85 33 -85c39 0 57 79 57 155c0 57 -7 86 -33 86z" />
    <glyph glyph-name="onethird" unicode="&#x2153;" horiz-adv-x="962" 
d="M272 691l-31 -318c16 -1 52 -6 69 -10c1 -16 1 -27 1 -31c0 -7 -1 -29 -2 -39h-271c3 22 13 50 23 68c16 5 45 11 62 13l24 222l-87 -7c3 21 12 52 25 75c43 10 127 24 187 27zM804 697l-566 -741c-38 9 -77 35 -94 61l546 702c36 0 83 -8 114 -22zM661 158
c0 24 7 62 16 82c37 0 121 1 121 47c0 22 -20 29 -38 29c-32 0 -80 -10 -112 -24c0 22 7 62 22 86c34 15 75 20 108 20c73 0 138 -27 138 -92c0 -45 -33 -81 -80 -94v-9c39 -8 67 -29 67 -79c0 -89 -91 -131 -188 -131c-30 0 -74 5 -99 13c-6 15 -11 43 -11 67
c0 6 1 20 3 29c32 -16 88 -26 119 -26s56 11 56 40c0 33 -30 42 -122 42z" />
    <glyph glyph-name="twothirds" unicode="&#x2154;" horiz-adv-x="962" 
d="M5 293l9 76c74 64 214 138 214 213c0 21 -13 32 -40 32c-14 0 -40 -4 -49 -8l-3 -44c-25 -9 -68 -14 -92 -14c-4 30 -5 73 -5 104c44 21 103 39 169 39c79 0 138 -25 138 -90c0 -99 -135 -173 -219 -217v-7c62 0 132 3 204 8c-3 -23 -12 -69 -19 -92h-307zM804 697
l-566 -741c-38 9 -77 35 -94 61l546 702c36 0 83 -8 114 -22zM661 158c0 24 7 62 16 82c37 0 121 1 121 47c0 22 -20 29 -38 29c-32 0 -80 -10 -112 -24c0 22 7 62 22 86c34 15 75 20 108 20c73 0 138 -27 138 -92c0 -45 -33 -81 -80 -94v-9c39 -8 67 -29 67 -79
c0 -89 -91 -131 -188 -131c-30 0 -74 5 -99 13c-6 15 -11 43 -11 67c0 6 1 20 3 29c32 -16 88 -26 119 -26s56 11 56 40c0 33 -30 42 -122 42z" />
    <glyph glyph-name="uni2155" unicode="&#x2155;" horiz-adv-x="962" 
d="M272 691l-31 -318c16 -1 52 -6 69 -10c1 -16 1 -27 1 -31c0 -7 -1 -29 -2 -39h-271c3 22 13 50 23 68c16 5 45 11 62 13l24 222l-87 -7c3 21 12 52 25 75c43 10 127 24 187 27zM804 697l-566 -741c-38 9 -77 35 -94 61l546 702c36 0 83 -8 114 -22zM756 301l-8 -52
c12 2 27 3 41 3c69 0 116 -28 116 -106c0 -106 -85 -153 -194 -153c-32 0 -78 4 -101 10c-7 18 -11 40 -11 61c0 12 1 23 4 35c30 -12 82 -22 113 -22s70 9 70 52c0 35 -25 43 -72 43c-23 0 -58 -2 -87 -7l39 226h265c-2 -24 -8 -63 -16 -90h-159z" />
    <glyph glyph-name="uni2156" unicode="&#x2156;" horiz-adv-x="962" 
d="M5 293l9 76c74 64 214 138 214 213c0 21 -13 32 -40 32c-14 0 -40 -4 -49 -8l-3 -44c-25 -9 -68 -14 -92 -14c-4 30 -5 73 -5 104c44 21 103 39 169 39c79 0 138 -25 138 -90c0 -99 -135 -173 -219 -217v-7c62 0 132 3 204 8c-3 -23 -12 -69 -19 -92h-307zM804 697
l-566 -741c-38 9 -77 35 -94 61l546 702c36 0 83 -8 114 -22zM756 301l-8 -52c12 2 27 3 41 3c69 0 116 -28 116 -106c0 -106 -85 -153 -194 -153c-32 0 -78 4 -101 10c-7 18 -11 40 -11 61c0 12 1 23 4 35c30 -12 82 -22 113 -22s70 9 70 52c0 35 -25 43 -72 43
c-23 0 -58 -2 -87 -7l39 226h265c-2 -24 -8 -63 -16 -90h-159z" />
    <glyph glyph-name="uni2157" unicode="&#x2157;" horiz-adv-x="962" 
d="M84 451c0 24 7 62 16 82c37 0 121 1 121 47c0 22 -20 29 -38 29c-32 0 -80 -10 -112 -24c0 22 7 62 22 86c34 15 75 20 108 20c73 0 138 -27 138 -92c0 -45 -33 -81 -80 -94v-9c39 -8 67 -29 67 -79c0 -89 -91 -131 -188 -131c-30 0 -74 5 -99 13c-6 15 -11 43 -11 67
c0 6 1 20 3 29c32 -16 88 -26 119 -26s56 11 56 40c0 33 -30 42 -122 42zM804 697l-566 -741c-38 9 -77 35 -94 61l546 702c36 0 83 -8 114 -22zM756 301l-8 -52c12 2 27 3 41 3c69 0 116 -28 116 -106c0 -106 -85 -153 -194 -153c-32 0 -78 4 -101 10c-7 18 -11 40 -11 61
c0 12 1 23 4 35c30 -12 82 -22 113 -22s70 9 70 52c0 35 -25 43 -72 43c-23 0 -58 -2 -87 -7l39 226h265c-2 -24 -8 -63 -16 -90h-159z" />
    <glyph glyph-name="uni2158" unicode="&#x2158;" horiz-adv-x="962" 
d="M293 382l-8 -86c-11 -4 -33 -5 -54 -5c-22 0 -43 1 -58 5l9 86h-178l8 64l183 238h129l-24 -219h47c1 -5 1 -12 1 -20c0 -21 -3 -48 -7 -63h-48zM191 465l7 61c2 20 7 47 11 61h-7l-84 -118v-7c11 2 26 3 38 3h35zM804 697l-566 -741c-38 9 -77 35 -94 61l546 702
c36 0 83 -8 114 -22zM756 301l-8 -52c12 2 27 3 41 3c69 0 116 -28 116 -106c0 -106 -85 -153 -194 -153c-32 0 -78 4 -101 10c-7 18 -11 40 -11 61c0 12 1 23 4 35c30 -12 82 -22 113 -22s70 9 70 52c0 35 -25 43 -72 43c-23 0 -58 -2 -87 -7l39 226h265
c-2 -24 -8 -63 -16 -90h-159z" />
    <glyph glyph-name="uni2159" unicode="&#x2159;" horiz-adv-x="962" 
d="M272 691l-31 -318c16 -1 52 -6 69 -10c1 -16 1 -27 1 -31c0 -7 -1 -29 -2 -39h-271c3 22 13 50 23 68c16 5 45 11 62 13l24 222l-87 -7c3 21 12 52 25 75c43 10 127 24 187 27zM804 697l-566 -741c-38 9 -77 35 -94 61l546 702c36 0 83 -8 114 -22zM729 227h9
c15 15 36 27 73 27c69 0 103 -42 103 -106c0 -97 -65 -155 -170 -155c-93 0 -140 47 -140 141c0 143 73 264 226 264c25 0 62 -2 84 -9c3 -14 5 -31 5 -49c0 -14 -2 -30 -4 -41c-25 11 -63 18 -95 18s-74 -15 -91 -90zM722 155c-2 -12 -2 -26 -2 -33c0 -38 11 -53 33 -53
c31 0 43 38 43 70c0 23 -10 35 -29 35c-18 0 -34 -10 -45 -19z" />
    <glyph glyph-name="uni215A" unicode="&#x215a;" horiz-adv-x="962" 
d="M179 594l-8 -52c12 2 27 3 41 3c69 0 116 -28 116 -106c0 -106 -85 -153 -194 -153c-32 0 -78 4 -101 10c-7 18 -11 40 -11 61c0 12 1 23 4 35c30 -12 82 -22 113 -22s70 9 70 52c0 35 -25 43 -72 43c-23 0 -58 -2 -87 -7l39 226h265c-2 -24 -8 -63 -16 -90h-159z
M804 697l-566 -741c-38 9 -77 35 -94 61l546 702c36 0 83 -8 114 -22zM729 227h9c15 15 36 27 73 27c69 0 103 -42 103 -106c0 -97 -65 -155 -170 -155c-93 0 -140 47 -140 141c0 143 73 264 226 264c25 0 62 -2 84 -9c3 -14 5 -31 5 -49c0 -14 -2 -30 -4 -41
c-25 11 -63 18 -95 18s-74 -15 -91 -90zM722 155c-2 -12 -2 -26 -2 -33c0 -38 11 -53 33 -53c31 0 43 38 43 70c0 23 -10 35 -29 35c-18 0 -34 -10 -45 -19z" />
    <glyph glyph-name="oneeighth" unicode="&#x215b;" horiz-adv-x="962" 
d="M272 691l-31 -318c16 -1 52 -6 69 -10c1 -16 1 -27 1 -31c0 -7 -1 -29 -2 -39h-271c3 22 13 50 23 68c16 5 45 11 62 13l24 222l-87 -7c3 21 12 52 25 75c43 10 127 24 187 27zM804 697l-566 -741c-38 9 -77 35 -94 61l546 702c36 0 83 -8 114 -22zM675 196v9
c-25 10 -46 35 -46 78c0 84 81 115 162 115c68 0 130 -22 130 -88c0 -41 -24 -75 -63 -90v-9c32 -13 58 -37 58 -89c0 -94 -86 -129 -181 -129c-76 0 -141 23 -141 98c0 49 29 92 81 105zM743 162c-15 -11 -33 -33 -33 -59s18 -37 42 -37c22 0 49 10 49 43
c0 29 -23 39 -58 53zM785 255c11 7 25 23 25 43c0 22 -15 29 -32 29c-16 0 -41 -7 -41 -32c0 -21 21 -29 48 -40z" />
    <glyph glyph-name="threeeighths" unicode="&#x215c;" horiz-adv-x="962" 
d="M84 451c0 24 7 62 16 82c37 0 121 1 121 47c0 22 -20 29 -38 29c-32 0 -80 -10 -112 -24c0 22 7 62 22 86c34 15 75 20 108 20c73 0 138 -27 138 -92c0 -45 -33 -81 -80 -94v-9c39 -8 67 -29 67 -79c0 -89 -91 -131 -188 -131c-30 0 -74 5 -99 13c-6 15 -11 43 -11 67
c0 6 1 20 3 29c32 -16 88 -26 119 -26s56 11 56 40c0 33 -30 42 -122 42zM804 697l-566 -741c-38 9 -77 35 -94 61l546 702c36 0 83 -8 114 -22zM675 196v9c-25 10 -46 35 -46 78c0 84 81 115 162 115c68 0 130 -22 130 -88c0 -41 -24 -75 -63 -90v-9c32 -13 58 -37 58 -89
c0 -94 -86 -129 -181 -129c-76 0 -141 23 -141 98c0 49 29 92 81 105zM743 162c-15 -11 -33 -33 -33 -59s18 -37 42 -37c22 0 49 10 49 43c0 29 -23 39 -58 53zM785 255c11 7 25 23 25 43c0 22 -15 29 -32 29c-16 0 -41 -7 -41 -32c0 -21 21 -29 48 -40z" />
    <glyph glyph-name="fiveeighths" unicode="&#x215d;" horiz-adv-x="962" 
d="M179 594l-8 -52c12 2 27 3 41 3c69 0 116 -28 116 -106c0 -106 -85 -153 -194 -153c-32 0 -78 4 -101 10c-7 18 -11 40 -11 61c0 12 1 23 4 35c30 -12 82 -22 113 -22s70 9 70 52c0 35 -25 43 -72 43c-23 0 -58 -2 -87 -7l39 226h265c-2 -24 -8 -63 -16 -90h-159z
M804 697l-566 -741c-38 9 -77 35 -94 61l546 702c36 0 83 -8 114 -22zM675 196v9c-25 10 -46 35 -46 78c0 84 81 115 162 115c68 0 130 -22 130 -88c0 -41 -24 -75 -63 -90v-9c32 -13 58 -37 58 -89c0 -94 -86 -129 -181 -129c-76 0 -141 23 -141 98c0 49 29 92 81 105z
M743 162c-15 -11 -33 -33 -33 -59s18 -37 42 -37c22 0 49 10 49 43c0 29 -23 39 -58 53zM785 255c11 7 25 23 25 43c0 22 -15 29 -32 29c-16 0 -41 -7 -41 -32c0 -21 21 -29 48 -40z" />
    <glyph glyph-name="seveneighths" unicode="&#x215e;" horiz-adv-x="912" 
d="M372 684l-7 -79c-70 -109 -119 -203 -162 -310c-16 -4 -38 -5 -54 -5c-24 0 -50 2 -72 6c45 103 107 209 181 299v9h-107c-3 -16 -10 -40 -16 -56c-24 -6 -63 -11 -90 -11l18 147h309zM754 697l-566 -741c-38 9 -77 35 -94 61l546 702c36 0 83 -8 114 -22zM625 196v9
c-25 10 -46 35 -46 78c0 84 81 115 162 115c68 0 130 -22 130 -88c0 -41 -24 -75 -63 -90v-9c32 -13 58 -37 58 -89c0 -94 -86 -129 -181 -129c-76 0 -141 23 -141 98c0 49 29 92 81 105zM693 162c-15 -11 -33 -33 -33 -59s18 -37 42 -37c22 0 49 10 49 43
c0 29 -23 39 -58 53zM735 255c11 7 25 23 25 43c0 22 -15 29 -32 29c-16 0 -41 -7 -41 -32c0 -21 21 -29 48 -40z" />
    <glyph glyph-name="uni215F" unicode="&#x215f;" horiz-adv-x="577" 
d="M272 691l-31 -318c16 -1 52 -6 69 -10c1 -16 1 -27 1 -31c0 -7 -1 -29 -2 -39h-271c3 22 13 50 23 68c16 5 45 11 62 13l24 222l-87 -7c3 21 12 52 25 75c43 10 127 24 187 27zM804 697l-566 -741c-38 9 -77 35 -94 61l546 702c36 0 83 -8 114 -22z" />
    <glyph glyph-name="uni2189" unicode="&#x2189;" horiz-adv-x="962" 
d="M205 691c86 0 140 -50 140 -167c0 -142 -74 -238 -190 -238c-86 0 -138 53 -138 168c0 136 69 237 188 237zM193 610c-41 0 -57 -86 -57 -156c0 -55 11 -85 33 -85c39 0 57 79 57 155c0 57 -7 86 -33 86zM804 697l-566 -741c-38 9 -77 35 -94 61l546 702
c36 0 83 -8 114 -22zM661 158c0 24 7 62 16 82c37 0 121 1 121 47c0 22 -20 29 -38 29c-32 0 -80 -10 -112 -24c0 22 7 62 22 86c34 15 75 20 108 20c73 0 138 -27 138 -92c0 -45 -33 -81 -80 -94v-9c39 -8 67 -29 67 -79c0 -89 -91 -131 -188 -131c-30 0 -74 5 -99 13
c-6 15 -11 43 -11 67c0 6 1 20 3 29c32 -16 88 -26 119 -26s56 11 56 40c0 33 -30 42 -122 42z" />
    <glyph glyph-name="partialdiff" unicode="&#x2202;" horiz-adv-x="579" 
d="M398 298c-28 29 -67 48 -102 48c-67 0 -102 -72 -102 -147c0 -69 30 -115 81 -115c77 0 113 102 123 214zM390 397h12c-11 185 -83 255 -168 255c-45 0 -104 -15 -139 -32c-7 34 3 94 18 123c36 10 92 17 134 17c149 0 292 -118 292 -401c0 -210 -85 -379 -265 -379
c-129 0 -222 89 -222 223c0 130 86 251 224 251c63 0 94 -23 114 -57z" />
    <glyph glyph-name="Delta" unicode="&#x2206;" horiz-adv-x="657" 
d="M310 718h109l200 -643l-6 -75h-637l5 64zM136 95h312l-85 295c-11 37 -24 133 -24 176h-12c-6 -46 -33 -138 -50 -174z" />
    <glyph glyph-name="product" unicode="&#x220f;" horiz-adv-x="828" 
d="M707 606v-668c25 -2 59 -8 80 -14c6 -22 8 -71 4 -92h-311c2 25 10 70 18 90c14 6 47 13 63 16v676h-294v-676c23 -2 54 -8 73 -14c6 -22 8 -71 4 -92h-312c2 25 11 70 20 90c15 6 51 13 69 16v667c-21 2 -50 7 -66 12c-4 22 -6 71 -1 92h728c4 -20 3 -71 -2 -92
c-17 -5 -53 -10 -73 -11z" />
    <glyph glyph-name="summation" unicode="&#x2211;" horiz-adv-x="660" 
d="M36 -168v82l266 346l-261 364v85h572v-182c-34 0 -82 5 -113 15c-5 18 -10 51 -12 72h-278v-12c29 -16 71 -57 92 -87l158 -227l-165 -219c-28 -37 -77 -86 -112 -106v-11h319c2 26 7 58 13 81c28 9 85 15 119 15v-216h-598z" />
    <glyph glyph-name="minus" unicode="&#x2212;" 
d="M52 324h456c4 -16 7 -49 7 -78c0 -12 -1 -23 -2 -33h-478c0 32 8 82 17 111z" />
    <glyph glyph-name="uni2219" unicode="&#x2219;" 
d="M290 448c103 0 172 -62 172 -178s-74 -186 -172 -186c-120 0 -182 62 -182 186c0 104 78 178 182 178z" />
    <glyph glyph-name="radical" unicode="&#x221a;" horiz-adv-x="626" 
d="M36 418l155 39l75 -224c13 -39 24 -118 26 -164h12c3 46 16 121 29 166l172 580c34 0 97 -13 126 -26l-264 -843l-141 -17l-137 387l-68 -16c0 36 6 87 15 118z" />
    <glyph glyph-name="infinity" unicode="&#x221e;" horiz-adv-x="900" 
d="M440 182c-51 -52 -121 -97 -208 -97c-116 0 -183 82 -183 180c0 100 68 193 199 193c91 0 159 -46 215 -99c48 52 127 98 210 98c110 0 178 -83 178 -178c0 -104 -84 -195 -200 -195c-88 0 -155 45 -211 98zM371 257c-44 46 -87 86 -131 86c-37 0 -64 -29 -64 -69
c0 -44 33 -78 78 -78c41 0 85 31 117 61zM531 286c41 -46 85 -86 130 -86c39 0 64 30 64 69c0 46 -35 77 -75 77c-38 0 -88 -29 -119 -60z" />
    <glyph glyph-name="integral" unicode="&#x222b;" horiz-adv-x="350" 
d="M346 806c7 -18 15 -64 15 -112c-21 22 -57 33 -81 33c-47 0 -56 -55 -56 -133c0 -152 26 -386 26 -541c0 -127 -44 -236 -174 -236c-31 0 -63 6 -98 24c0 24 14 77 31 110c19 -14 42 -22 62 -22c38 0 41 44 41 124c0 160 -27 388 -27 545c0 123 56 234 175 234
c37 0 68 -10 86 -26z" />
    <glyph glyph-name="approxequal" unicode="&#x2248;" 
d="M457 431c21 -17 46 -48 55 -71c-21 -34 -69 -74 -148 -74c-86 0 -125 49 -194 49c-35 0 -79 -21 -101 -44c-14 23 -26 59 -29 87c27 30 76 65 137 65c85 0 126 -50 194 -50c29 0 65 16 86 38zM457 228c21 -17 46 -48 55 -71c-21 -34 -69 -74 -148 -74
c-86 0 -125 49 -194 49c-35 0 -79 -21 -101 -44c-14 23 -26 59 -29 87c27 30 76 65 137 65c85 0 126 -50 194 -50c29 0 65 16 86 38z" />
    <glyph glyph-name="notequal" unicode="&#x2260;" 
d="M499 118h-276l-52 -84c-18 4 -55 25 -68 39l27 45h-85c0 30 8 77 16 104h131l57 93h-205c0 30 8 77 16 104h250l40 64c26 0 63 -7 84 -17l-30 -47l90 3c4 -16 7 -47 7 -75c0 -12 -1 -23 -2 -32h-156l-58 -93h209c4 -16 7 -44 7 -72c0 -12 -1 -23 -2 -32z" />
    <glyph glyph-name="lessequal" unicode="&#x2264;" 
d="M475 547l-233 -158v-12l231 -148c-7 -22 -56 -80 -77 -93l-320 214l4 69l297 205c31 -17 78 -54 98 -77zM65 103h416c4 -15 7 -45 7 -72c0 -11 -1 -22 -2 -31h-436c0 30 7 76 15 103z" />
    <glyph glyph-name="greaterequal" unicode="&#x2265;" 
d="M474 350l-325 -221c-20 15 -62 70 -72 97l231 150v12l-235 153c21 25 71 65 99 80l297 -201zM66 103h416c4 -15 7 -45 7 -72c0 -11 -1 -22 -2 -31h-436c0 30 7 76 15 103z" />
    <glyph glyph-name="dotmath" unicode="&#x22c5;" 
d="M273 363c54 0 91 -33 91 -93c0 -62 -39 -99 -91 -99c-63 0 -96 33 -96 99c0 54 41 93 96 93z" />
    <glyph glyph-name="H18543" unicode="&#x25aa;" 
d="M11 0l59 483h472l-52 -483h-479z" />
    <glyph glyph-name="H18551" unicode="&#x25ab;" 
d="M1 0l62 483h494l-51 -483h-505zM176 366l-24 -249h231l31 249h-238z" />
    <glyph glyph-name="uni25B8" unicode="&#x25b8;" 
d="M38 -32c3 134 36 419 66 547c118 -56 362 -196 462 -270c-119 -75 -396 -220 -528 -277z" />
    <glyph glyph-name="uni25B9" unicode="&#x25b9;" 
d="M41 -32c2 132 34 416 66 547c121 -55 367 -194 470 -269c-123 -79 -403 -222 -536 -278zM183 155c48 19 140 64 182 93c-35 26 -116 71 -159 88c-12 -49 -23 -131 -23 -181z" />
    <glyph glyph-name="uni25C2" unicode="&#x25c2;" 
d="M454 -32c-115 58 -352 203 -453 278c117 73 389 213 519 269c-4 -132 -38 -417 -66 -547z" />
    <glyph glyph-name="uni25C3" unicode="&#x25c3;" 
d="M460 -32c-122 56 -366 202 -470 281c121 75 402 211 535 266c-1 -134 -36 -418 -65 -547zM365 154c11 49 21 134 21 184c-47 -17 -143 -61 -186 -87c36 -29 121 -78 165 -97z" />
    <glyph glyph-name="lozenge" unicode="&#x25ca;" horiz-adv-x="564" 
d="M16 339l198 376l136 14l198 -377l-199 -377l-133 -12zM161 365l87 -160c19 -34 36 -93 40 -131h12c5 38 25 100 40 131l59 120l-91 187c-14 28 -26 71 -28 100h-12c-2 -30 -14 -73 -28 -100z" />
    <glyph glyph-name="circle" unicode="&#x25cb;" 
d="M317 500c135 0 221 -76 221 -221c0 -182 -136 -296 -297 -296c-133 0 -216 79 -216 219c0 166 117 298 292 298zM303 379c-91 0 -147 -69 -147 -157c0 -75 41 -118 106 -118c80 0 146 66 146 163c0 75 -39 112 -105 112z" />
    <glyph glyph-name="H18533" unicode="&#x25cf;" 
d="M310 500c136 0 221 -76 221 -220c0 -181 -135 -297 -297 -297c-133 0 -216 79 -216 219c0 168 117 298 292 298z" />
    <glyph glyph-name="uniFB00" unicode="&#xfb00;" horiz-adv-x="728" 
d="M584 483h131c3 -25 1 -73 -4 -99h-138l-52 -526c-20 -4 -53 -7 -82 -7c-22 0 -46 2 -62 7l65 526h-229l-38 -380c-20 -4 -51 -7 -80 -7c-22 0 -45 3 -60 7l47 380h-81c4 31 18 71 29 90c18 8 42 16 63 20l5 32c22 144 111 201 216 201c32 0 77 -7 127 -24
c0 -40 -16 -105 -34 -143c-34 0 -83 14 -107 29l6 46c-6 2 -11 3 -18 3c-28 0 -51 -32 -59 -109l-5 -46h228l8 55c20 139 115 201 222 201c33 0 78 -7 129 -24c0 -40 -16 -105 -34 -143c-34 0 -83 14 -107 29l6 46c-5 2 -10 3 -15 3c-31 0 -61 -33 -70 -109z" />
    <glyph glyph-name="fi" unicode="&#xfb01;" horiz-adv-x="664" 
d="M449 385l-67 -6c0 18 12 74 25 87c30 18 80 28 126 28c17 0 43 -4 61 -9l-44 -374c0 -5 3 -15 4 -17l70 7c0 -24 -14 -69 -27 -90c-34 -14 -110 -28 -152 -28c-19 18 -46 68 -46 92zM82 384h-81c4 31 18 71 29 90c18 8 42 16 63 20l4 25c24 149 146 220 305 220
c63 0 147 -10 215 -35c0 -42 -16 -114 -35 -154c-38 0 -96 14 -122 29l6 54c-22 8 -51 13 -79 13c-75 0 -149 -40 -159 -127l-4 -36h115c3 -25 1 -73 -4 -99h-122l-52 -526c-20 -4 -53 -7 -82 -7c-22 0 -46 2 -62 7z" />
    <glyph glyph-name="fl" unicode="&#xfb02;" horiz-adv-x="653" 
d="M224 483h131c3 -25 1 -73 -4 -99h-138l-52 -526c-20 -4 -53 -7 -82 -7c-22 0 -46 2 -62 7l65 526h-81c4 31 18 71 29 90c18 8 42 16 63 20l4 23c26 155 146 222 297 222c55 0 151 -10 215 -37l-67 -591c0 -5 3 -15 4 -17l70 7c0 -24 -14 -69 -27 -90
c-34 -14 -110 -28 -152 -28c-19 18 -46 68 -46 92l76 559c-26 8 -56 12 -81 12c-74 0 -148 -36 -158 -129z" />
    <glyph glyph-name="uniFB03" unicode="&#xfb03;" horiz-adv-x="1024" 
d="M229 529l-5 -46h227l6 36c23 149 146 220 305 220c63 0 147 -10 215 -35c0 -42 -16 -114 -35 -154c-38 0 -96 14 -122 29l6 54c-22 8 -51 13 -79 13c-75 0 -149 -40 -159 -127l-4 -36h115c3 -25 1 -73 -4 -99h-122l-52 -526c-20 -4 -53 -7 -82 -7c-22 0 -46 2 -62 7
l65 526h-229l-38 -380c-20 -4 -51 -7 -80 -7c-22 0 -45 3 -60 7l47 380h-81c4 31 18 71 29 90c18 8 42 16 63 20l5 32c22 144 111 201 216 201c32 0 77 -7 127 -24c0 -40 -16 -105 -34 -143c-34 0 -83 14 -107 29l6 46c-6 2 -11 3 -18 3c-28 0 -51 -32 -59 -109zM809 385
l-67 -6c0 18 12 74 25 87c30 18 80 28 126 28c17 0 43 -4 61 -9l-44 -374c0 -5 3 -15 4 -17l70 7c0 -24 -14 -69 -27 -90c-34 -14 -110 -28 -152 -28c-19 18 -46 68 -46 92z" />
    <glyph glyph-name="uniFB04" unicode="&#xfb04;" horiz-adv-x="1013" 
d="M584 483h131c3 -25 1 -73 -4 -99h-138l-52 -526c-20 -4 -53 -7 -82 -7c-22 0 -46 2 -62 7l65 526h-229l-38 -380c-20 -4 -51 -7 -80 -7c-22 0 -45 3 -60 7l47 380h-81c4 31 18 71 29 90c18 8 42 16 63 20l5 32c22 144 111 201 216 201c32 0 77 -7 127 -24
c0 -40 -16 -105 -34 -143c-34 0 -83 14 -107 29l6 46c-6 2 -11 3 -18 3c-28 0 -51 -32 -59 -109l-5 -46h227l6 34c28 154 146 222 297 222c55 0 151 -10 215 -37l-67 -591c0 -5 3 -15 4 -17l70 7c0 -24 -14 -69 -27 -90c-34 -14 -110 -28 -152 -28c-19 18 -46 68 -46 92
l76 559c-26 8 -56 12 -81 12c-74 0 -148 -36 -158 -129z" />
    <glyph glyph-name="uniFB06" unicode="&#xfb06;" horiz-adv-x="817" 
d="M525 494l23 88c-21 14 -41 21 -67 21c-62 0 -81 -43 -81 -116c0 -56 -11 -109 -27 -151c-37 0 -87 13 -109 28l4 42c-5 3 -20 8 -31 8c-24 0 -47 -17 -47 -45c0 -68 195 -79 195 -219c0 -119 -109 -167 -219 -167c-101 0 -166 33 -170 110c21 32 85 53 135 53
c3 -48 28 -74 58 -74c26 0 54 20 54 52c0 70 -189 68 -189 225c0 87 77 151 198 151c8 0 16 0 25 -1c-1 9 -2 23 -2 33c0 110 83 175 211 175c63 0 129 -16 191 -58l-16 -166h135c2 -11 2 -20 2 -31c0 -23 -2 -49 -6 -68h-144l-22 -217c-5 -45 4 -68 50 -68c29 0 59 7 93 18
c0 -29 -14 -78 -33 -103c-44 -21 -89 -31 -126 -31c-94 0 -133 48 -133 127c0 50 19 181 36 274h-74c4 31 18 71 29 90c16 8 38 16 57 20z" />
    <glyph glyph-name="i.latn_TRK" horiz-adv-x="294" 
d="M79 385l-70 -6c0 18 12 74 25 87c31 18 81 28 128 28c17 0 44 -4 62 -9l-44 -374c0 -5 3 -15 4 -17l70 7c0 -24 -14 -69 -27 -90c-34 -14 -110 -28 -152 -28c-19 18 -46 68 -46 92zM170 765c50 0 84 -31 84 -86c0 -58 -36 -92 -84 -92c-56 0 -86 31 -86 92
c0 50 37 86 86 86z" />
    </font>
</defs>
</svg>
