<?xml version="1.0" standalone="no"?>
<!DOCTYPE svg PUBLIC "-//W3C//DTD SVG 1.1//EN" "http://www.w3.org/Graphics/SVG/1.1/DTD/svg11.dtd" >
<svg xmlns="http://www.w3.org/2000/svg" width="100%" height="100%">
<metadata>
Created by FontXChange 20110222 at Mon Jun  4 14:03:13 2018
 By Suzi Rubino
2011 published by Monotype GmbH
</metadata>
<defs>
<font id="TisaSansPro-Bold" horiz-adv-x="570" >
  <font-face 
    font-family="TisaSansPro"
    font-weight="700"
    font-stretch="normal"
    units-per-em="1000"
    panose-1="2 11 8 4 2 2 1 2 1 4"
    ascent="729"
    descent="-271"
    x-height="498"
    cap-height="711"
    bbox="-481 -391 1481 1089"
    underline-thickness="122"
    underline-position="-72"
    stemh="124"
    stemv="145"
    unicode-range="U+000D-FEFF"
  />
<missing-glyph horiz-adv-x="736" 
d="M102 0v725h532v-725h-532zM221 491c37 28 85 46 129 46c42 0 55 -18 55 -36c0 -56 -124 -71 -124 -174c0 -33 17 -61 42 -79c32 2 65 17 84 40c-12 12 -16 21 -16 37c0 52 141 68 141 191c0 80 -55 119 -151 119c-61 0 -105 -16 -135 -36c-18 -24 -30 -74 -25 -108z
M370 212c-37 0 -64 -24 -64 -63c0 -42 23 -65 64 -65c37 0 63 23 63 66c0 40 -26 62 -63 62z" />
    <glyph glyph-name="I_J" unicode="IJ" horiz-adv-x="679" 
d="M86 9v693c15 8 41 13 76 13c36 0 61 -5 75 -13v-693c-14 -8 -39 -13 -75 -13c-35 0 -61 5 -76 13zM596 702v-530c0 -191 -70 -303 -215 -379c-40 20 -68 65 -75 116c101 58 139 128 139 246v547c15 8 41 13 76 13c36 0 61 -5 75 -13z" />
    <glyph glyph-name="f_b" unicode="fb" horiz-adv-x="928" 
d="M539 438h8c18 41 63 80 139 80c103 0 203 -64 203 -249c0 -190 -105 -289 -286 -289c-71 0 -145 15 -198 38v618c-19 10 -40 13 -63 13c-58 0 -106 -23 -106 -116v-35h106c6 -12 9 -36 9 -61s-3 -49 -9 -61h-106v-368c-13 -7 -37 -12 -72 -12s-59 5 -73 12v368h-77
c0 42 7 91 20 122h57v26c0 186 104 249 245 249c81 0 157 -22 214 -65v-123c0 -44 -4 -106 -11 -147zM548 345v-237c14 -4 37 -7 59 -7c94 0 133 57 133 155c0 91 -36 135 -100 135c-46 0 -73 -21 -92 -46z" />
    <glyph glyph-name="f_f" unicode="ff" horiz-adv-x="685" 
d="M34 498h57v47c0 151 72 206 174 206c37 0 65 -6 91 -20c22 -31 29 -85 23 -124c-24 15 -47 20 -71 20c-50 0 -72 -26 -72 -76v-53h177v62c0 158 78 214 191 214c43 0 76 -8 105 -24c21 -31 28 -87 22 -126c-32 18 -61 26 -95 26c-55 0 -78 -26 -78 -80v-72h122
c6 -12 9 -36 9 -61s-3 -49 -9 -61h-122v-368c-13 -7 -37 -12 -72 -12s-59 5 -73 12v368h-177v-368c-13 -7 -37 -12 -72 -12s-59 5 -73 12v368h-77c0 42 7 91 20 122z" />
    <glyph glyph-name="f_f_b" unicode="ffb" horiz-adv-x="1250" 
d="M861 438h8c18 41 63 80 139 80c103 0 203 -64 203 -249c0 -190 -105 -289 -286 -289c-71 0 -145 15 -198 38v618c-19 10 -40 13 -63 13c-58 0 -106 -23 -106 -116v-35h106c6 -12 9 -36 9 -61s-3 -49 -9 -61h-106v-368c-13 -7 -37 -12 -72 -12s-59 5 -73 12v368h-177v-368
c-13 -7 -37 -12 -72 -12s-59 5 -73 12v368h-77c0 42 7 91 20 122h57v47c0 151 72 206 174 206c37 0 65 -6 91 -20c22 -31 29 -85 23 -124c-24 15 -47 20 -71 20c-50 0 -72 -26 -72 -76v-53h177v26c0 186 104 249 245 249c81 0 157 -22 214 -65v-123c0 -44 -4 -106 -11 -147z
M870 345v-237c14 -4 37 -7 59 -7c94 0 133 57 133 155c0 91 -36 135 -100 135c-46 0 -73 -21 -92 -46z" />
    <glyph glyph-name="f_f_h" unicode="ffh" horiz-adv-x="1264" 
d="M728 636c-19 10 -41 13 -63 13c-59 0 -107 -23 -107 -116v-35h106c6 -12 9 -36 9 -61s-3 -49 -9 -61h-106v-368c-13 -7 -37 -12 -72 -12s-59 5 -73 12v368h-177v-368c-13 -7 -37 -12 -72 -12s-59 5 -73 12v368h-77c0 42 7 91 20 122h57v47c0 151 72 206 174 206
c37 0 65 -6 91 -20c22 -31 29 -85 23 -124c-24 15 -47 20 -71 20c-50 0 -72 -26 -72 -76v-53h177v26c0 186 105 249 246 249c81 0 157 -22 214 -65v-114c0 -57 -5 -118 -13 -164h8c22 50 70 88 162 88c78 0 169 -27 169 -192v-318c-13 -7 -37 -12 -72 -12s-59 5 -73 12v292
c0 53 -19 87 -79 87c-54 0 -83 -27 -102 -59v-320c-13 -7 -37 -12 -72 -12s-59 5 -73 12v628z" />
    <glyph glyph-name="f_f_i" unicode="ffi" horiz-adv-x="943" 
d="M413 498v25c0 151 65 250 241 250c52 0 107 -10 151 -40c21 -33 29 -92 22 -132c-45 28 -96 45 -153 45c-67 0 -116 -25 -116 -117v-31h107c6 -12 9 -36 9 -61s-3 -49 -9 -61h-107v-368c-13 -7 -37 -12 -72 -12s-59 5 -73 12v368h-177v-368c-13 -7 -37 -12 -72 -12
s-59 5 -73 12v368h-77c0 42 7 91 20 122h57v47c0 151 72 206 174 206c37 0 65 -6 91 -20c22 -31 29 -85 23 -124c-24 15 -47 20 -71 20c-50 0 -72 -26 -72 -76v-53h177zM727 8v482c14 7 38 12 73 12s59 -5 72 -12v-482c-13 -7 -37 -12 -72 -12s-59 5 -73 12z" />
    <glyph glyph-name="f_f_iogonek" unicode="ff&#x12f;" horiz-adv-x="943" 
d="M413 498v25c0 151 65 250 241 250c52 0 107 -10 151 -40c21 -33 29 -92 22 -132c-45 28 -96 45 -153 45c-67 0 -116 -25 -116 -117v-31h107c6 -12 9 -36 9 -61s-3 -49 -9 -61h-107v-368c-13 -7 -37 -12 -72 -12s-59 5 -73 12v368h-177v-368c-13 -7 -37 -12 -72 -12
s-59 5 -73 12v368h-77c0 42 7 91 20 122h57v47c0 151 72 206 174 206c37 0 65 -6 91 -20c22 -31 29 -85 23 -124c-24 15 -47 20 -71 20c-50 0 -72 -26 -72 -76v-53h177zM727 8v482c14 7 38 12 73 12s59 -5 72 -12v-482c-50 -30 -76 -69 -76 -104c0 -29 17 -41 43 -41
c7 0 13 1 19 3c15 -20 24 -64 24 -91c-21 -9 -45 -15 -76 -15c-71 0 -139 34 -139 117c0 67 36 105 88 114v8c-11 2 -21 5 -28 9z" />
    <glyph glyph-name="f_f_j" unicode="ffj" horiz-adv-x="949" 
d="M413 376h-177v-368c-13 -7 -37 -12 -72 -12s-59 5 -73 12v368h-77c0 42 7 91 20 122h57v47c0 151 72 206 174 206c37 0 65 -6 91 -20c22 -31 29 -85 23 -124c-24 15 -47 20 -71 20c-50 0 -72 -26 -72 -76v-53h177v22c0 153 66 253 247 253c53 0 109 -11 154 -43
c21 -33 29 -92 22 -132c-47 30 -99 48 -158 48c-69 0 -120 -26 -120 -120v-28h115c6 -12 9 -36 9 -61s-3 -49 -9 -61h-115v-368c-13 -7 -37 -12 -72 -12s-59 5 -73 12v368zM881 490v-331c0 -214 -52 -313 -160 -406c-41 11 -73 42 -89 86c66 60 104 130 104 276v375
c14 7 38 12 73 12s59 -5 72 -12z" />
    <glyph glyph-name="f_f_k" unicode="ffk" horiz-adv-x="1227" 
d="M728 636c-19 10 -41 13 -63 13c-59 0 -107 -23 -107 -116v-35h106c6 -12 9 -36 9 -61s-3 -49 -9 -61h-106v-368c-13 -7 -37 -12 -72 -12s-59 5 -73 12v368h-177v-368c-13 -7 -37 -12 -72 -12s-59 5 -73 12v368h-77c0 42 7 91 20 122h57v47c0 151 72 206 174 206
c37 0 65 -6 91 -20c22 -31 29 -85 23 -124c-24 15 -47 20 -71 20c-50 0 -72 -26 -72 -76v-53h177v26c0 186 105 249 246 249c81 0 157 -22 214 -65v-379h50l118 167c11 4 35 8 58 8c41 0 78 -8 94 -19l-152 -211c51 -89 107 -178 177 -266c-14 -9 -45 -13 -79 -13
c-38 0 -76 5 -93 13c-49 64 -88 126 -129 202h-44v-202c-13 -7 -37 -12 -72 -12s-59 5 -73 12v628z" />
    <glyph glyph-name="f_f_l" unicode="ffl" horiz-adv-x="983" 
d="M725 636c-19 10 -40 13 -62 13c-58 0 -105 -23 -105 -116v-35h106c6 -12 9 -36 9 -61s-3 -49 -9 -61h-106v-368c-13 -7 -37 -12 -72 -12s-59 5 -73 12v368h-177v-368c-13 -7 -37 -12 -72 -12s-59 5 -73 12v368h-77c0 42 7 91 20 122h57v47c0 151 72 206 174 206
c37 0 65 -6 91 -20c22 -31 29 -85 23 -124c-24 15 -47 20 -71 20c-50 0 -72 -26 -72 -76v-53h177v26c0 186 104 249 244 249c81 0 156 -22 213 -65v-550c0 -38 13 -48 42 -48c23 0 43 6 61 18c4 -42 -9 -96 -28 -125c-23 -14 -53 -23 -90 -23c-100 0 -130 65 -130 154v502z
" />
    <glyph glyph-name="f_f_lcaron" unicode="ff&#x13e;" horiz-adv-x="987" 
d="M725 636c-19 10 -40 13 -62 13c-58 0 -105 -23 -105 -116v-35h106c6 -12 9 -36 9 -61s-3 -49 -9 -61h-106v-368c-13 -7 -37 -12 -72 -12s-59 5 -73 12v368h-177v-368c-13 -7 -37 -12 -72 -12s-59 5 -73 12v368h-77c0 42 7 91 20 122h57v47c0 151 72 206 174 206
c37 0 65 -6 91 -20c22 -31 29 -85 23 -124c-24 15 -47 20 -71 20c-50 0 -72 -26 -72 -76v-53h177v26c0 186 104 249 244 249c81 0 156 -22 213 -65v-550c0 -38 13 -48 42 -48c23 0 43 6 61 18c4 -42 -9 -96 -28 -125c-23 -14 -53 -23 -90 -23c-100 0 -130 65 -130 154v502z
M940 728c31 18 69 27 120 27c-5 -88 -33 -186 -63 -241c-36 4 -72 21 -89 42c16 49 29 113 32 172z" />
    <glyph glyph-name="f_f_ldot" unicode="ff&#x140;" horiz-adv-x="1083" 
d="M725 636c-19 10 -40 13 -62 13c-58 0 -105 -23 -105 -116v-35h106c6 -12 9 -36 9 -61s-3 -49 -9 -61h-106v-368c-13 -7 -37 -12 -72 -12s-59 5 -73 12v368h-177v-368c-13 -7 -37 -12 -72 -12s-59 5 -73 12v368h-77c0 42 7 91 20 122h57v47c0 151 72 206 174 206
c37 0 65 -6 91 -20c22 -31 29 -85 23 -124c-24 15 -47 20 -71 20c-50 0 -72 -26 -72 -76v-53h177v26c0 186 104 249 244 249c81 0 156 -22 213 -65v-550c0 -38 13 -48 42 -48c23 0 43 6 61 18c4 -42 -9 -96 -28 -125c-23 -14 -53 -23 -90 -23c-100 0 -130 65 -130 154v502z
M1011 381c45 0 77 -26 77 -74c0 -51 -31 -78 -77 -78c-51 0 -79 27 -79 78c0 45 32 74 79 74z" />
    <glyph glyph-name="f_f_t" unicode="fft" horiz-adv-x="1061" 
d="M887 498h133c6 -12 9 -36 9 -61s-3 -49 -9 -61h-133v-190c0 -48 14 -73 68 -73c30 0 60 6 91 27c5 -42 -11 -101 -31 -127c-29 -21 -64 -33 -114 -33c-123 0 -159 74 -159 184v212h-184v-368c-13 -7 -37 -12 -72 -12s-59 5 -73 12v368h-177v-368c-13 -7 -37 -12 -72 -12
s-59 5 -73 12v368h-77c0 42 7 91 20 122h57v47c0 151 72 206 174 206c37 0 65 -6 91 -20c22 -31 29 -85 23 -124c-24 15 -47 20 -71 20c-50 0 -72 -26 -72 -76v-53h177v69c0 151 73 206 178 206c37 0 66 -6 93 -20c22 -31 29 -85 23 -124c-25 15 -49 20 -74 20
c-52 0 -75 -26 -75 -76v-75h184v108c36 26 89 39 145 40v-148z" />
    <glyph glyph-name="f_f_tbar" unicode="ff&#x167;" horiz-adv-x="1066" 
d="M890 498h133c6 -12 9 -36 9 -61s-3 -49 -9 -61h-133v-74h109c4 -7 8 -25 8 -45c0 -21 -4 -41 -8 -48h-109v-23c0 -48 14 -73 68 -73c30 0 60 6 91 27c5 -42 -11 -101 -31 -127c-29 -21 -64 -33 -114 -33c-123 0 -159 74 -159 184v45h-70c0 34 5 68 16 93h54v74h-187v-368
c-13 -7 -37 -12 -72 -12s-59 5 -73 12v368h-177v-368c-13 -7 -37 -12 -72 -12s-59 5 -73 12v368h-77c0 42 7 91 20 122h57v47c0 151 72 206 174 206c37 0 65 -6 91 -20c22 -31 29 -85 23 -124c-24 15 -47 20 -71 20c-50 0 -72 -26 -72 -76v-53h177v69c0 151 73 206 178 206
c37 0 66 -6 93 -20c22 -31 29 -85 23 -124c-25 15 -49 20 -74 20c-52 0 -75 -26 -75 -76v-75h187v108c36 26 89 39 145 40v-148z" />
    <glyph glyph-name="f_f_tcaron" unicode="ff&#x165;" horiz-adv-x="1064" 
d="M887 498h133c6 -12 9 -36 9 -61s-3 -49 -9 -61h-133v-190c0 -48 14 -73 68 -73c30 0 60 6 91 27c5 -42 -11 -101 -31 -127c-29 -21 -64 -33 -114 -33c-123 0 -159 74 -159 184v212h-184v-368c-13 -7 -37 -12 -72 -12s-59 5 -73 12v368h-177v-368c-13 -7 -37 -12 -72 -12
s-59 5 -73 12v368h-77c0 42 7 91 20 122h57v47c0 151 72 206 174 206c37 0 65 -6 91 -20c22 -31 29 -85 23 -124c-24 15 -47 20 -71 20c-50 0 -72 -26 -72 -76v-53h177v69c0 151 73 206 178 206c37 0 66 -6 93 -20c22 -31 29 -85 23 -124c-25 15 -49 20 -74 20
c-52 0 -75 -26 -75 -76v-75h184v108c36 26 89 39 145 40v-148zM1002 734c31 16 69 24 120 24c-5 -79 -31 -168 -57 -217c-36 4 -73 19 -90 38c12 44 24 101 27 155z" />
    <glyph glyph-name="f_f_uni0137" unicode="ff&#x137;" horiz-adv-x="1227" 
d="M906 -75c33 18 72 26 126 26c-5 -80 -32 -171 -59 -220c-39 4 -78 22 -95 43c14 43 25 98 28 151zM728 636c-19 10 -41 13 -63 13c-59 0 -107 -23 -107 -116v-35h106c6 -12 9 -36 9 -61s-3 -49 -9 -61h-106v-368c-13 -7 -37 -12 -72 -12s-59 5 -73 12v368h-177v-368
c-13 -7 -37 -12 -72 -12s-59 5 -73 12v368h-77c0 42 7 91 20 122h57v47c0 151 72 206 174 206c37 0 65 -6 91 -20c22 -31 29 -85 23 -124c-24 15 -47 20 -71 20c-50 0 -72 -26 -72 -76v-53h177v26c0 186 105 249 246 249c81 0 157 -22 214 -65v-379h50l118 167
c11 4 35 8 58 8c41 0 78 -8 94 -19l-152 -211c51 -89 107 -178 177 -266c-14 -9 -45 -13 -79 -13c-38 0 -76 5 -93 13c-49 64 -88 126 -129 202h-44v-202c-13 -7 -37 -12 -72 -12s-59 5 -73 12v628z" />
    <glyph glyph-name="f_f_uni013C" unicode="ff&#x13c;" horiz-adv-x="983" 
d="M783 -75c33 18 72 26 126 26c-5 -80 -32 -171 -59 -220c-39 4 -78 22 -95 43c14 43 25 98 28 151zM725 636c-19 10 -40 13 -62 13c-58 0 -105 -23 -105 -116v-35h106c6 -12 9 -36 9 -61s-3 -49 -9 -61h-106v-368c-13 -7 -37 -12 -72 -12s-59 5 -73 12v368h-177v-368
c-13 -7 -37 -12 -72 -12s-59 5 -73 12v368h-77c0 42 7 91 20 122h57v47c0 151 72 206 174 206c37 0 65 -6 91 -20c22 -31 29 -85 23 -124c-24 15 -47 20 -71 20c-50 0 -72 -26 -72 -76v-53h177v26c0 186 104 249 244 249c81 0 156 -22 213 -65v-550c0 -38 13 -48 42 -48
c23 0 43 6 61 18c4 -42 -9 -96 -28 -125c-23 -14 -53 -23 -90 -23c-100 0 -130 65 -130 154v502z" />
    <glyph glyph-name="f_f_uni0163" unicode="ff&#x163;" horiz-adv-x="1061" 
d="M887 498h133c6 -12 9 -36 9 -61s-3 -49 -9 -61h-133v-190c0 -48 14 -73 68 -73c30 0 60 6 91 27c5 -42 -11 -101 -31 -127c-21 -15 -44 -25 -73 -30l-6 -29c35 -13 61 -40 61 -87c0 -72 -63 -112 -125 -121c-28 13 -54 38 -66 69c34 5 66 21 66 49c0 25 -25 38 -54 44
l26 79c-77 20 -102 86 -102 177v212h-184v-368c-13 -7 -37 -12 -72 -12s-59 5 -73 12v368h-177v-368c-13 -7 -37 -12 -72 -12s-59 5 -73 12v368h-77c0 42 7 91 20 122h57v47c0 151 72 206 174 206c37 0 65 -6 91 -20c22 -31 29 -85 23 -124c-24 15 -47 20 -71 20
c-50 0 -72 -26 -72 -76v-53h177v69c0 151 73 206 178 206c37 0 66 -6 93 -20c22 -31 29 -85 23 -124c-25 15 -49 20 -74 20c-52 0 -75 -26 -75 -76v-75h184v108c36 26 89 39 145 40v-148z" />
    <glyph glyph-name="f_f_uni021B" unicode="ff&#x21b;" horiz-adv-x="1061" 
d="M833 -75c33 18 72 26 126 26c-5 -80 -32 -171 -59 -220c-39 4 -78 22 -95 43c14 43 25 98 28 151zM887 498h133c6 -12 9 -36 9 -61s-3 -49 -9 -61h-133v-190c0 -48 14 -73 68 -73c30 0 60 6 91 27c5 -42 -11 -101 -31 -127c-29 -21 -64 -33 -114 -33
c-123 0 -159 74 -159 184v212h-184v-368c-13 -7 -37 -12 -72 -12s-59 5 -73 12v368h-177v-368c-13 -7 -37 -12 -72 -12s-59 5 -73 12v368h-77c0 42 7 91 20 122h57v47c0 151 72 206 174 206c37 0 65 -6 91 -20c22 -31 29 -85 23 -124c-24 15 -47 20 -71 20
c-50 0 -72 -26 -72 -76v-53h177v69c0 151 73 206 178 206c37 0 66 -6 93 -20c22 -31 29 -85 23 -124c-25 15 -49 20 -74 20c-52 0 -75 -26 -75 -76v-75h184v108c36 26 89 39 145 40v-148z" />
    <glyph glyph-name="f_h" unicode="fh" horiz-adv-x="942" 
d="M406 636c-19 10 -41 13 -63 13c-59 0 -107 -23 -107 -116v-35h106c6 -12 9 -36 9 -61s-3 -49 -9 -61h-106v-368c-13 -7 -37 -12 -72 -12s-59 5 -73 12v368h-77c0 42 7 91 20 122h57v26c0 186 105 249 246 249c81 0 157 -22 214 -65v-114c0 -57 -5 -118 -13 -164h8
c22 50 70 88 162 88c78 0 169 -27 169 -192v-318c-13 -7 -37 -12 -72 -12s-59 5 -73 12v292c0 53 -19 87 -79 87c-54 0 -83 -27 -102 -59v-320c-13 -7 -37 -12 -72 -12s-59 5 -73 12v628z" />
    <glyph glyph-name="f_i" unicode="fi" horiz-adv-x="621" 
d="M91 498v25c0 151 65 250 241 250c52 0 107 -10 151 -40c21 -33 29 -92 22 -132c-45 28 -96 45 -153 45c-67 0 -116 -25 -116 -117v-31h107c6 -12 9 -36 9 -61s-3 -49 -9 -61h-107v-368c-13 -7 -37 -12 -72 -12s-59 5 -73 12v368h-77c0 42 7 91 20 122h57zM405 8v482
c14 7 38 12 73 12s59 -5 72 -12v-482c-13 -7 -37 -12 -72 -12s-59 5 -73 12z" />
    <glyph glyph-name="f_iacute" unicode="f&#xed;" horiz-adv-x="638" 
d="M91 374h-77c0 43 7 92 20 124h57v54c0 151 72 206 174 206c37 0 65 -6 91 -20c22 -31 29 -86 23 -126c-24 15 -47 20 -71 20c-50 0 -72 -25 -72 -74v-60h109c6 -12 9 -37 9 -62s-3 -50 -9 -62h-109v-366c-13 -7 -37 -12 -72 -12s-59 5 -73 12v366zM405 8v482
c14 7 38 12 73 12s59 -5 72 -12v-482c-13 -7 -37 -12 -72 -12s-59 5 -73 12zM650 735l-177 -171c-32 8 -60 31 -72 56l121 159c38 0 100 -15 128 -44z" />
    <glyph glyph-name="f_iogonek" unicode="f&#x12f;" horiz-adv-x="621" 
d="M405 8v482c14 7 38 12 73 12s59 -5 72 -12v-482c-50 -30 -76 -69 -76 -104c0 -29 17 -41 43 -41c7 0 13 1 19 3c15 -20 24 -64 24 -91c-21 -9 -45 -15 -76 -15c-71 0 -139 34 -139 117c0 67 36 105 88 114v8c-11 2 -21 5 -28 9zM91 498v25c0 151 65 250 241 250
c52 0 107 -10 151 -40c21 -33 29 -92 22 -132c-45 28 -96 45 -153 45c-67 0 -116 -25 -116 -117v-31h107c6 -12 9 -36 9 -61s-3 -49 -9 -61h-107v-368c-13 -7 -37 -12 -72 -12s-59 5 -73 12v368h-77c0 42 7 91 20 122h57z" />
    <glyph glyph-name="f_j" unicode="fj" horiz-adv-x="627" 
d="M91 498v22c0 153 66 253 247 253c53 0 109 -11 154 -43c21 -33 29 -92 22 -132c-47 30 -99 48 -158 48c-69 0 -120 -26 -120 -120v-28h115c6 -12 9 -36 9 -61s-3 -49 -9 -61h-115v-368c-13 -7 -37 -12 -72 -12s-59 5 -73 12v368h-77c0 42 7 91 20 122h57zM559 490v-331
c0 -214 -52 -313 -160 -406c-41 11 -73 42 -89 86c66 60 104 130 104 276v375c14 7 38 12 73 12s59 -5 72 -12z" />
    <glyph glyph-name="f_k" unicode="fk" horiz-adv-x="905" 
d="M406 636c-19 10 -41 13 -63 13c-59 0 -107 -23 -107 -116v-35h106c6 -12 9 -36 9 -61s-3 -49 -9 -61h-106v-368c-13 -7 -37 -12 -72 -12s-59 5 -73 12v368h-77c0 42 7 91 20 122h57v26c0 186 105 249 246 249c81 0 157 -22 214 -65v-379h50l118 167c11 4 35 8 58 8
c41 0 78 -8 94 -19l-152 -211c51 -89 107 -178 177 -266c-14 -9 -45 -13 -79 -13c-38 0 -76 5 -93 13c-49 64 -88 126 -129 202h-44v-202c-13 -7 -37 -12 -72 -12s-59 5 -73 12v628z" />
    <glyph glyph-name="f_l" unicode="fl" horiz-adv-x="661" 
d="M403 636c-19 10 -40 13 -62 13c-58 0 -105 -23 -105 -116v-35h106c6 -12 9 -36 9 -61s-3 -49 -9 -61h-106v-368c-13 -7 -37 -12 -72 -12s-59 5 -73 12v368h-77c0 42 7 91 20 122h57v26c0 186 104 249 244 249c81 0 156 -22 213 -65v-550c0 -38 13 -48 42 -48
c23 0 43 6 61 18c4 -42 -9 -96 -28 -125c-23 -14 -53 -23 -90 -23c-100 0 -130 65 -130 154v502z" />
    <glyph glyph-name="f_lcaron" unicode="f&#x13e;" horiz-adv-x="665" 
d="M403 636c-19 10 -40 13 -62 13c-58 0 -105 -23 -105 -116v-35h106c6 -12 9 -36 9 -61s-3 -49 -9 -61h-106v-368c-13 -7 -37 -12 -72 -12s-59 5 -73 12v368h-77c0 42 7 91 20 122h57v26c0 186 104 249 244 249c81 0 156 -22 213 -65v-550c0 -38 13 -48 42 -48
c23 0 43 6 61 18c4 -42 -9 -96 -28 -125c-23 -14 -53 -23 -90 -23c-100 0 -130 65 -130 154v502zM618 728c31 18 69 27 120 27c-5 -88 -33 -186 -63 -241c-36 4 -72 21 -89 42c16 49 29 113 32 172z" />
    <glyph glyph-name="f_ldot" unicode="f&#x140;" horiz-adv-x="761" 
d="M403 636c-19 10 -40 13 -62 13c-58 0 -105 -23 -105 -116v-35h106c6 -12 9 -36 9 -61s-3 -49 -9 -61h-106v-368c-13 -7 -37 -12 -72 -12s-59 5 -73 12v368h-77c0 42 7 91 20 122h57v26c0 186 104 249 244 249c81 0 156 -22 213 -65v-550c0 -38 13 -48 42 -48
c23 0 43 6 61 18c4 -42 -9 -96 -28 -125c-23 -14 -53 -23 -90 -23c-100 0 -130 65 -130 154v502zM689 381c45 0 77 -26 77 -74c0 -51 -31 -78 -77 -78c-51 0 -79 27 -79 78c0 45 32 74 79 74z" />
    <glyph glyph-name="f_t" unicode="ft" horiz-adv-x="739" 
d="M565 498h133c6 -12 9 -36 9 -61s-3 -49 -9 -61h-133v-190c0 -48 14 -73 68 -73c30 0 60 6 91 27c5 -42 -11 -101 -31 -127c-29 -21 -64 -33 -114 -33c-123 0 -159 74 -159 184v212h-184v-368c-13 -7 -37 -12 -72 -12s-59 5 -73 12v368h-77c0 42 7 91 20 122h57v69
c0 151 73 206 178 206c37 0 66 -6 93 -20c22 -31 29 -85 23 -124c-25 15 -49 20 -74 20c-52 0 -75 -26 -75 -76v-75h184v108c36 26 89 39 145 40v-148z" />
    <glyph glyph-name="f_tbar" unicode="f&#x167;" horiz-adv-x="744" 
d="M568 498h133c6 -12 9 -36 9 -61s-3 -49 -9 -61h-133v-74h109c4 -7 8 -25 8 -45c0 -21 -4 -41 -8 -48h-109v-23c0 -48 14 -73 68 -73c30 0 60 6 91 27c5 -42 -11 -101 -31 -127c-29 -21 -64 -33 -114 -33c-123 0 -159 74 -159 184v45h-70c0 34 5 68 16 93h54v74h-187v-368
c-13 -7 -37 -12 -72 -12s-59 5 -73 12v368h-77c0 42 7 91 20 122h57v69c0 151 73 206 178 206c37 0 66 -6 93 -20c22 -31 29 -85 23 -124c-25 15 -49 20 -74 20c-52 0 -75 -26 -75 -76v-75h187v108c36 26 89 39 145 40v-148z" />
    <glyph glyph-name="f_tcaron" unicode="f&#x165;" horiz-adv-x="742" 
d="M565 498h133c6 -12 9 -36 9 -61s-3 -49 -9 -61h-133v-190c0 -48 14 -73 68 -73c30 0 60 6 91 27c5 -42 -11 -101 -31 -127c-29 -21 -64 -33 -114 -33c-123 0 -159 74 -159 184v212h-184v-368c-13 -7 -37 -12 -72 -12s-59 5 -73 12v368h-77c0 42 7 91 20 122h57v69
c0 151 73 206 178 206c37 0 66 -6 93 -20c22 -31 29 -85 23 -124c-25 15 -49 20 -74 20c-52 0 -75 -26 -75 -76v-75h184v108c36 26 89 39 145 40v-148zM680 734c31 16 69 24 120 24c-5 -79 -31 -168 -57 -217c-36 4 -73 19 -90 38c12 44 24 101 27 155z" />
    <glyph glyph-name="f_uni0137" unicode="f&#x137;" horiz-adv-x="905" 
d="M584 -75c33 18 72 26 126 26c-5 -80 -32 -171 -59 -220c-39 4 -78 22 -95 43c14 43 25 98 28 151zM406 636c-19 10 -41 13 -63 13c-59 0 -107 -23 -107 -116v-35h106c6 -12 9 -36 9 -61s-3 -49 -9 -61h-106v-368c-13 -7 -37 -12 -72 -12s-59 5 -73 12v368h-77
c0 42 7 91 20 122h57v26c0 186 105 249 246 249c81 0 157 -22 214 -65v-379h50l118 167c11 4 35 8 58 8c41 0 78 -8 94 -19l-152 -211c51 -89 107 -178 177 -266c-14 -9 -45 -13 -79 -13c-38 0 -76 5 -93 13c-49 64 -88 126 -129 202h-44v-202c-13 -7 -37 -12 -72 -12
s-59 5 -73 12v628z" />
    <glyph glyph-name="f_uni013C" unicode="f&#x13c;" horiz-adv-x="661" 
d="M461 -75c33 18 72 26 126 26c-5 -80 -32 -171 -59 -220c-39 4 -78 22 -95 43c14 43 25 98 28 151zM403 636c-19 10 -40 13 -62 13c-58 0 -105 -23 -105 -116v-35h106c6 -12 9 -36 9 -61s-3 -49 -9 -61h-106v-368c-13 -7 -37 -12 -72 -12s-59 5 -73 12v368h-77
c0 42 7 91 20 122h57v26c0 186 104 249 244 249c81 0 156 -22 213 -65v-550c0 -38 13 -48 42 -48c23 0 43 6 61 18c4 -42 -9 -96 -28 -125c-23 -14 -53 -23 -90 -23c-100 0 -130 65 -130 154v502z" />
    <glyph glyph-name="f_uni0163" unicode="f&#x163;" horiz-adv-x="739" 
d="M565 498h133c6 -12 9 -36 9 -61s-3 -49 -9 -61h-133v-190c0 -48 14 -73 68 -73c30 0 60 6 91 27c5 -42 -11 -101 -31 -127c-21 -15 -44 -25 -73 -30l-6 -29c35 -13 61 -40 61 -87c0 -72 -63 -112 -125 -121c-28 13 -54 38 -66 69c34 5 66 21 66 49c0 25 -25 38 -54 44
l26 79c-77 20 -102 86 -102 177v212h-184v-368c-13 -7 -37 -12 -72 -12s-59 5 -73 12v368h-77c0 42 7 91 20 122h57v69c0 151 73 206 178 206c37 0 66 -6 93 -20c22 -31 29 -85 23 -124c-25 15 -49 20 -74 20c-52 0 -75 -26 -75 -76v-75h184v108c36 26 89 39 145 40v-148z
" />
    <glyph glyph-name="f_uni021B" unicode="f&#x21b;" horiz-adv-x="739" 
d="M511 -75c33 18 72 26 126 26c-5 -80 -32 -171 -59 -220c-39 4 -78 22 -95 43c14 43 25 98 28 151zM565 498h133c6 -12 9 -36 9 -61s-3 -49 -9 -61h-133v-190c0 -48 14 -73 68 -73c30 0 60 6 91 27c5 -42 -11 -101 -31 -127c-29 -21 -64 -33 -114 -33
c-123 0 -159 74 -159 184v212h-184v-368c-13 -7 -37 -12 -72 -12s-59 5 -73 12v368h-77c0 42 7 91 20 122h57v69c0 151 73 206 178 206c37 0 66 -6 93 -20c22 -31 29 -85 23 -124c-25 15 -49 20 -74 20c-52 0 -75 -26 -75 -76v-75h184v108c36 26 89 39 145 40v-148z" />
    <glyph glyph-name="i_j" unicode="ij" horiz-adv-x="580" 
d="M71 8v482c14 7 38 12 73 12s59 -5 72 -12v-482c-13 -7 -37 -12 -72 -12s-59 5 -73 12zM144 757c52 0 87 -31 87 -86c0 -59 -35 -91 -87 -91c-57 0 -88 31 -88 90c0 54 37 87 88 87zM512 490v-331c0 -214 -52 -313 -160 -406c-41 11 -73 42 -89 86c66 60 104 130 104 276
v375c14 7 38 12 73 12s59 -5 72 -12zM438 757c52 0 87 -31 87 -86c0 -59 -35 -91 -87 -91c-57 0 -88 31 -88 90c0 54 37 87 88 87z" />
    <glyph glyph-name=".notdef" horiz-adv-x="736" 
d="M102 0v725h532v-725h-532zM221 491c37 28 85 46 129 46c42 0 55 -18 55 -36c0 -56 -124 -71 -124 -174c0 -33 17 -61 42 -79c32 2 65 17 84 40c-12 12 -16 21 -16 37c0 52 141 68 141 191c0 80 -55 119 -151 119c-61 0 -105 -16 -135 -36c-18 -24 -30 -74 -25 -108z
M370 212c-37 0 -64 -24 -64 -63c0 -42 23 -65 64 -65c37 0 63 23 63 66c0 40 -26 62 -63 62z" />
    <glyph glyph-name=".null" horiz-adv-x="0" 
 />
    <glyph glyph-name=".null" horiz-adv-x="0" 
 />
    <glyph glyph-name="CR" unicode="&#xd;" horiz-adv-x="194" 
 />
    <glyph glyph-name="space" unicode=" " horiz-adv-x="194" 
 />
    <glyph glyph-name="exclam" unicode="!" horiz-adv-x="317" 
d="M244 709l-20 -475c-12 -6 -35 -11 -67 -11s-56 5 -68 11l-20 464c24 11 56 20 106 20c30 0 54 -3 69 -9zM157 157c51 0 86 -31 86 -85c0 -58 -35 -90 -86 -90c-56 0 -87 31 -87 89c0 53 37 86 87 86z" />
    <glyph glyph-name="quotedbl" unicode="&#x22;" horiz-adv-x="444" 
d="M378 460c-39 0 -82 3 -113 17c7 84 10 187 10 269c48 0 94 -5 135 -20c0 -68 -16 -194 -32 -266zM168 460c-39 0 -82 3 -113 17c7 84 10 187 10 269c48 0 94 -5 135 -20c0 -68 -16 -194 -32 -266z" />
    <glyph glyph-name="numbersign" unicode="#" horiz-adv-x="627" 
d="M71 442h87l19 100c26 13 72 21 119 21l-21 -121h137l17 100c26 13 72 21 119 21l-19 -121h79c5 -7 7 -22 7 -33c0 -23 -6 -47 -15 -64h-86l-19 -124h79c5 -7 7 -22 7 -33c0 -23 -6 -47 -15 -64h-86l-18 -117c-10 -6 -30 -11 -63 -11c-30 0 -50 5 -60 11l20 117h-139
l-21 -117c-10 -6 -30 -11 -63 -11c-30 0 -50 5 -60 11l22 117h-88c1 30 10 72 25 97h82l23 124h-94c1 30 10 72 25 97zM257 346l-22 -126h141l21 126h-140z" />
    <glyph glyph-name="dollar" unicode="$" horiz-adv-x="512" 
d="M43 141c46 -22 128 -42 196 -42c70 0 92 20 92 56c0 91 -274 32 -274 236c0 98 56 158 149 175v74c33 13 74 19 122 19v-89c37 -5 69 -16 97 -30c21 -32 33 -87 26 -127c-48 25 -102 43 -165 43s-81 -18 -81 -48c0 -86 273 -34 273 -237c0 -118 -70 -171 -167 -186v-78
c-10 -6 -31 -10 -61 -10c-28 0 -50 4 -61 10v76c-44 4 -83 13 -116 25c-24 36 -36 93 -30 133z" />
    <glyph glyph-name="percent" unicode="%" horiz-adv-x="981" 
d="M751 551l-403 -596c-39 6 -79 34 -94 67l378 564c44 -1 86 -12 119 -35zM205 573c106 0 174 -61 174 -172s-69 -177 -174 -177c-113 0 -175 65 -175 177c0 109 72 172 175 172zM146 401c0 -50 21 -83 59 -83s58 34 58 83s-21 79 -58 79c-39 0 -59 -30 -59 -79zM777 329
c106 0 174 -61 174 -172s-69 -177 -174 -177c-113 0 -175 65 -175 177c0 109 72 172 175 172zM718 157c0 -50 21 -83 59 -83s58 34 58 83s-21 79 -58 79c-39 0 -59 -30 -59 -79z" />
    <glyph glyph-name="ampersand" unicode="&#x26;" horiz-adv-x="765" 
d="M452 169c-62 62 -122 105 -179 138c-55 -21 -89 -58 -89 -112c0 -68 54 -94 121 -94s112 22 147 68zM316 436c48 18 72 53 72 93c0 49 -35 68 -75 68c-35 0 -78 -17 -78 -69c0 -44 29 -71 81 -92zM599 -3c-20 28 -38 50 -58 72c-60 -57 -138 -92 -250 -92
c-130 0 -258 47 -258 203c0 108 62 171 141 193v7c-50 27 -81 77 -81 148c0 129 107 181 221 181c110 0 211 -49 211 -170c0 -75 -37 -139 -104 -163v-7c34 -20 79 -52 112 -82c20 32 32 72 37 115c31 16 84 25 142 25c-6 -82 -32 -170 -79 -239c48 -54 94 -115 128 -174
c-22 -16 -59 -24 -102 -24c-26 0 -50 3 -60 7z" />
    <glyph glyph-name="quotesingle" unicode="'" horiz-adv-x="234" 
d="M168 460c-39 0 -82 3 -113 17c7 84 10 187 10 269c48 0 94 -5 135 -20c0 -68 -16 -194 -32 -266z" />
    <glyph glyph-name="parenleft" unicode="(" horiz-adv-x="354" 
d="M248 -228c-132 178 -181 357 -181 520c0 202 70 381 177 522c47 -12 78 -38 101 -73c-89 -134 -134 -290 -134 -447c0 -164 50 -312 152 -452c-22 -36 -69 -62 -115 -70z" />
    <glyph glyph-name="parenright" unicode=")" horiz-adv-x="354" 
d="M-4 -162c99 146 147 290 147 459c0 160 -46 312 -129 440c18 34 62 67 107 77c122 -165 166 -356 166 -510c0 -176 -55 -358 -181 -537c-45 9 -90 37 -110 71z" />
    <glyph glyph-name="asterisk" unicode="*" horiz-adv-x="455" 
d="M185 605l6 3c-11 20 -18 39 -19 57l-5 84c26 11 62 15 104 15l-5 -98c-1 -17 -10 -40 -20 -60l6 -3c12 18 25 35 41 46l76 50c24 -19 49 -52 66 -86l-94 -47c-13 -6 -43 -11 -61 -12v-7c19 -2 42 -7 59 -14l87 -40c-1 -35 -28 -80 -55 -97l-80 55c-13 9 -28 28 -38 44
l-5 -3c8 -16 16 -38 17 -55l8 -91c-9 -6 -27 -10 -53 -10s-45 4 -55 10l7 91c1 16 10 39 19 54l-6 3c-8 -14 -24 -32 -37 -42l-76 -54c-27 18 -50 62 -53 99l81 38c12 5 37 10 55 11v6c-18 1 -42 6 -55 12l-77 38c4 29 18 69 39 102l82 -54c16 -10 29 -25 41 -45z" />
    <glyph glyph-name="plus" unicode="+" 
d="M50 344h165v164c36 15 82 21 136 21v-185h176c5 -11 10 -36 10 -65c0 -28 -5 -53 -10 -64h-176v-173c-12 -7 -35 -12 -68 -12c-32 0 -55 5 -68 12v173h-186c0 41 8 100 21 129z" />
    <glyph glyph-name="comma" unicode="," horiz-adv-x="279" 
d="M74 105c38 19 86 28 148 28c-6 -112 -48 -248 -87 -316c-46 5 -90 24 -113 48c29 69 48 160 52 240z" />
    <glyph glyph-name="hyphen" unicode="-" horiz-adv-x="378" 
d="M56 345h274c6 -13 9 -39 9 -65s-3 -52 -9 -65h-295c0 45 7 96 21 130z" />
    <glyph glyph-name="period" unicode="." horiz-adv-x="277" 
d="M139 157c51 0 86 -31 86 -85c0 -58 -35 -90 -86 -90c-56 0 -87 31 -87 89c0 53 37 86 87 86z" />
    <glyph glyph-name="slash" unicode="/" horiz-adv-x="470" 
d="M459 734l-347 -918c-45 0 -94 21 -116 47l344 899c48 0 88 -9 119 -28z" />
    <glyph glyph-name="zero" unicode="0" horiz-adv-x="644" 
d="M322 573c169 0 278 -104 278 -294c0 -188 -109 -299 -278 -299c-178 0 -278 109 -278 298c0 187 117 295 278 295zM195 279c0 -108 45 -172 127 -172c84 0 127 68 127 172c0 103 -46 168 -127 168c-84 0 -127 -65 -127 -168z" />
    <glyph glyph-name="one" unicode="1" horiz-adv-x="415" 
d="M175 8v410l-154 -23c2 40 15 94 30 126c52 20 166 43 271 51v-564c-13 -7 -38 -12 -73 -12s-60 5 -74 12z" />
    <glyph glyph-name="two" unicode="2" horiz-adv-x="564" 
d="M278 133h245c0 -49 -5 -95 -18 -133h-447c-13 38 -20 82 -20 135c116 69 297 144 297 238c0 44 -40 66 -101 66c-62 0 -126 -22 -185 -58c-4 46 12 106 34 142c47 28 109 50 196 50c132 0 220 -51 220 -164c0 -133 -100 -218 -221 -268v-8z" />
    <glyph glyph-name="three" unicode="3" horiz-adv-x="568" 
d="M132 167c-10 31 -5 94 11 121c107 2 203 31 203 97c0 45 -44 61 -103 61c-60 0 -130 -17 -188 -46c-6 32 6 100 35 134c46 24 121 39 191 39c122 0 222 -48 222 -166c0 -86 -53 -143 -133 -161v-8c87 -15 151 -55 151 -156c0 -143 -138 -209 -291 -209
c-59 0 -118 9 -169 25c-24 38 -35 92 -29 134c52 -19 123 -29 179 -29c81 0 153 24 153 87c0 55 -55 77 -232 77z" />
    <glyph glyph-name="four" unicode="4" horiz-adv-x="631" 
d="M519 54v-145c-13 -7 -38 -12 -73 -12s-60 5 -74 12v145h-335c-13 32 -19 75 -19 117c91 135 204 271 332 399c55 -2 126 -14 169 -34v-357h82c6 -12 9 -37 9 -62s-3 -51 -9 -63h-82zM372 178v141c0 34 3 72 9 95h-8c-67 -67 -140 -161 -186 -234v-8c21 4 49 6 80 6h105z
" />
    <glyph glyph-name="five" unicode="5" horiz-adv-x="566" 
d="M99 553h427c0 -49 -5 -96 -18 -134h-288l-10 -120c19 6 57 9 90 9c135 0 222 -52 222 -188c0 -175 -142 -247 -304 -247c-56 0 -113 9 -145 19c-24 31 -39 93 -34 136c41 -16 112 -24 165 -24c95 0 166 26 166 100c0 59 -44 80 -139 80c-50 0 -108 -6 -163 -21z" />
    <glyph glyph-name="six" unicode="6" horiz-adv-x="617" 
d="M408 540c-115 0 -189 -58 -206 -193h8c24 44 70 78 159 78c138 0 209 -87 209 -208c0 -145 -101 -237 -264 -237c-177 0 -264 106 -264 304c0 256 142 383 338 383c55 0 99 -9 136 -28c23 -31 37 -101 31 -137c-45 26 -95 38 -147 38zM319 300c-50 0 -87 -18 -118 -51v-4
c0 -88 43 -141 119 -141c69 0 108 43 108 102c0 58 -39 94 -109 94z" />
    <glyph glyph-name="seven" unicode="7" horiz-adv-x="545" 
d="M358 417h-334c0 41 8 99 23 136h459c13 -28 23 -79 23 -120c-113 -161 -215 -353 -261 -522c-18 -8 -48 -14 -87 -14s-69 6 -81 12c52 185 151 360 258 500v8z" />
    <glyph glyph-name="eight" unicode="8" horiz-adv-x="606" 
d="M176 337v7c-66 22 -103 70 -103 144c0 129 113 179 236 179c116 0 227 -44 227 -166c0 -83 -49 -132 -98 -146v-7c70 -22 121 -74 121 -167c0 -140 -116 -201 -264 -201c-119 0 -249 39 -249 184c0 96 59 154 130 173zM279 278c-52 -18 -84 -46 -84 -96
c0 -65 54 -87 107 -87s104 22 104 79s-52 83 -127 104zM329 409c41 16 64 43 64 79c0 50 -45 67 -88 67c-46 0 -85 -18 -85 -63s41 -63 109 -83z" />
    <glyph glyph-name="nine" unicode="9" horiz-adv-x="610" 
d="M199 0c117 0 198 61 207 203h-8c-22 -41 -67 -79 -154 -79c-131 0 -202 88 -202 210c0 147 101 239 259 239c174 0 260 -113 260 -314c0 -263 -145 -386 -343 -386c-53 0 -101 9 -139 26c-26 30 -40 102 -35 138c43 -24 101 -37 155 -37zM297 249c49 0 83 20 113 51v7
c0 90 -44 142 -115 142c-65 0 -103 -44 -103 -104s38 -96 105 -96z" />
    <glyph glyph-name="colon" unicode=":" horiz-adv-x="293" 
d="M147 511c50 0 84 -30 84 -83c0 -57 -34 -88 -84 -88c-55 0 -85 30 -85 87c0 52 36 84 85 84zM147 157c51 0 86 -31 86 -85c0 -58 -35 -90 -86 -90c-56 0 -87 31 -87 89c0 53 37 86 87 86z" />
    <glyph glyph-name="semicolon" unicode=";" horiz-adv-x="296" 
d="M83 105c38 19 86 28 148 28c-6 -112 -48 -248 -87 -316c-46 5 -90 24 -113 48c29 69 48 160 52 240zM154 511c50 0 84 -30 84 -83c0 -57 -34 -88 -84 -88c-55 0 -85 30 -85 87c0 52 36 84 85 84z" />
    <glyph glyph-name="less" unicode="&#x3c;" 
d="M90 336l301 211c35 -14 79 -48 102 -82l-270 -180v-8l260 -177c-8 -40 -42 -88 -78 -105l-331 233c0 37 4 78 16 108z" />
    <glyph glyph-name="equal" unicode="=" 
d="M62 449h452c4 -10 9 -34 9 -61c0 -26 -5 -50 -9 -60h-471c0 38 7 94 19 121zM62 231h452c4 -10 9 -34 9 -61c0 -26 -5 -50 -9 -60h-471c0 38 7 94 19 121z" />
    <glyph glyph-name="greater" unicode="&#x3e;" 
d="M496 237l-332 -240c-37 18 -71 67 -79 106l261 173v8l-267 185c27 35 65 64 106 80l295 -205c11 -30 16 -71 16 -107z" />
    <glyph glyph-name="question" unicode="?" horiz-adv-x="439" 
d="M230 734c131 0 206 -53 206 -162c0 -169 -192 -187 -192 -267c0 -23 5 -35 22 -52c-26 -31 -70 -51 -112 -54c-34 25 -58 64 -58 111c0 143 170 163 170 241c0 26 -18 52 -79 52c-59 0 -125 -24 -176 -63c-6 45 10 112 34 145c42 27 101 49 185 49zM209 157
c51 0 86 -31 86 -85c0 -58 -35 -90 -86 -90c-56 0 -87 31 -87 89c0 53 37 86 87 86z" />
    <glyph glyph-name="at" unicode="@" horiz-adv-x="1033" 
d="M737 448l-36 -272c-7 -48 12 -63 41 -63c62 0 153 71 153 226c0 203 -162 291 -338 291c-247 0 -404 -170 -404 -411c0 -227 140 -362 369 -362c94 0 187 23 265 73c22 -15 46 -57 51 -86c-93 -62 -217 -91 -330 -91c-283 0 -466 182 -466 463c0 303 209 518 521 518
c248 0 441 -136 441 -391c0 -227 -157 -344 -291 -344c-64 0 -108 27 -123 74h-7c-20 -41 -63 -74 -134 -74c-91 0 -154 59 -154 191c0 76 22 156 70 215c45 55 112 92 205 92c71 0 128 -21 167 -49zM571 158l35 221c-11 7 -32 10 -47 10c-97 0 -129 -116 -129 -185
c0 -63 25 -86 64 -86c31 0 61 15 77 40z" />
    <glyph glyph-name="A" unicode="A" horiz-adv-x="692" 
d="M521 10l-50 154h-253l-50 -154c-17 -10 -44 -14 -78 -14c-38 0 -60 5 -76 14l242 698c21 6 54 10 90 10c37 0 70 -4 91 -10l240 -698c-14 -9 -40 -14 -78 -14s-61 5 -78 14zM255 287h177l-38 118c-20 62 -35 135 -46 205h-8c-11 -73 -29 -148 -48 -208z" />
    <glyph glyph-name="B" unicode="B" horiz-adv-x="681" 
d="M507 379v-8c83 -23 136 -70 136 -168c0 -156 -136 -212 -309 -212c-87 0 -183 4 -248 12v699c62 12 141 21 224 21c172 0 296 -53 296 -194c0 -78 -39 -133 -99 -150zM235 302v-179c27 -3 61 -5 99 -5c97 0 154 28 154 92s-58 92 -152 92h-101zM235 591v-164h100
c74 0 118 27 118 83c0 61 -52 87 -139 87c-32 0 -58 -2 -79 -6z" />
    <glyph glyph-name="C" unicode="C" horiz-adv-x="644" 
d="M592 566c-48 23 -92 35 -149 35c-141 0 -238 -72 -238 -246s96 -243 231 -243c63 0 125 16 168 34c2 -37 -16 -101 -40 -133c-43 -21 -105 -36 -175 -36c-214 0 -340 138 -340 368c0 248 147 389 363 389c57 0 115 -10 152 -32c23 -33 33 -92 28 -136z" />
    <glyph glyph-name="D" unicode="D" horiz-adv-x="732" 
d="M86 2v698c71 14 139 19 214 19c234 0 393 -113 393 -360c0 -251 -167 -367 -373 -367c-75 0 -158 2 -234 10zM237 584v-456c28 -3 59 -4 87 -4c133 0 213 74 213 228c0 166 -92 238 -232 238c-23 0 -46 -1 -68 -6z" />
    <glyph glyph-name="E" unicode="E" horiz-adv-x="620" 
d="M86 711h471c6 -12 10 -37 10 -64s-4 -52 -10 -64h-322v-161h297c6 -13 10 -36 10 -63c0 -26 -4 -50 -10 -63h-297v-167h330c6 -12 10 -37 10 -64s-4 -53 -10 -65h-479v711z" />
    <glyph glyph-name="F" unicode="F" horiz-adv-x="568" 
d="M86 9v702h447c6 -12 10 -38 10 -65s-4 -53 -10 -65h-296v-179h272c6 -12 10 -37 10 -65c0 -27 -4 -52 -10 -64h-272v-264c-14 -8 -39 -13 -75 -13c-35 0 -61 5 -76 13z" />
    <glyph glyph-name="G" unicode="G" horiz-adv-x="728" 
d="M670 31c-64 -30 -165 -54 -261 -54c-227 0 -360 134 -360 364c0 249 152 393 393 393c66 0 126 -11 170 -33c22 -35 32 -92 28 -136c-53 24 -112 37 -178 37c-156 0 -257 -71 -257 -252c0 -171 89 -242 220 -242c42 0 80 7 107 17v159h-139c-6 12 -10 37 -10 63
s4 51 10 63h277v-379z" />
    <glyph glyph-name="H" unicode="H" horiz-adv-x="773" 
d="M537 9v288h-301v-288c-15 -8 -40 -13 -75 -13s-60 5 -75 13v693c15 8 40 13 75 13s60 -5 75 -13v-274h301v274c15 8 40 13 75 13s60 -5 75 -13v-693c-15 -8 -40 -13 -75 -13s-60 5 -75 13z" />
    <glyph glyph-name="I" unicode="I" horiz-adv-x="323" 
d="M86 9v693c15 8 41 13 76 13c36 0 61 -5 75 -13v-693c-14 -8 -39 -13 -75 -13c-35 0 -61 5 -76 13z" />
    <glyph glyph-name="J" unicode="J" horiz-adv-x="356" 
d="M273 702v-530c0 -191 -70 -303 -215 -379c-40 20 -68 65 -75 116c101 58 139 128 139 246v547c15 8 41 13 76 13c36 0 61 -5 75 -13z" />
    <glyph glyph-name="K" unicode="K" horiz-adv-x="689" 
d="M236 702v-275h68l185 274c19 9 48 14 88 14s64 -5 77 -14l-227 -337l249 -354c-13 -9 -43 -14 -86 -14c-42 0 -74 5 -95 14l-199 287h-60v-288c-15 -8 -40 -13 -75 -13s-60 5 -75 13v693c15 8 40 13 75 13s60 -5 75 -13z" />
    <glyph glyph-name="L" unicode="L" horiz-adv-x="583" 
d="M545 0h-459v702c15 8 41 13 76 13c36 0 61 -5 75 -13v-568h308c6 -13 11 -39 11 -66c0 -28 -5 -55 -11 -68z" />
    <glyph glyph-name="M" unicode="M" horiz-adv-x="936" 
d="M715 7v587h-8c-8 -60 -32 -148 -48 -200l-119 -390c-15 -7 -38 -10 -73 -10c-31 0 -56 3 -71 10l-123 395c-15 47 -38 139 -44 195h-8v-587c-14 -8 -36 -11 -68 -11c-30 0 -53 3 -67 11v697c27 7 64 11 112 11c50 0 87 -4 113 -11l115 -368c17 -54 34 -130 42 -197h8
c9 67 24 145 39 195l110 370c26 7 63 11 113 11c48 0 85 -4 112 -11v-697c-14 -8 -35 -11 -67 -11c-30 0 -54 3 -68 11z" />
    <glyph glyph-name="N" unicode="N" horiz-adv-x="775" 
d="M229 557v-549c-14 -8 -37 -12 -72 -12c-33 0 -56 4 -71 12v698c24 6 56 10 99 10c44 0 75 -4 98 -10l193 -351c25 -46 51 -124 63 -183h8v531c14 8 36 12 71 12c33 0 56 -4 71 -12v-698c-20 -6 -50 -10 -93 -10c-44 0 -74 4 -93 10l-204 370c-23 41 -48 113 -62 182h-8z
" />
    <glyph glyph-name="O" unicode="O" horiz-adv-x="779" 
d="M390 734c202 0 338 -128 338 -371c0 -251 -133 -386 -338 -386c-218 0 -339 127 -339 386c0 233 142 371 339 371zM207 363c0 -163 67 -254 183 -254c119 0 182 91 182 254c0 150 -72 240 -182 240c-119 0 -183 -88 -183 -240z" />
    <glyph glyph-name="P" unicode="P" horiz-adv-x="637" 
d="M86 9v694c54 12 136 19 211 19c202 0 323 -69 323 -245c0 -179 -123 -257 -276 -257c-32 0 -82 3 -107 7v-218c-14 -8 -39 -13 -75 -13c-35 0 -61 5 -76 13zM308 593c-25 0 -50 -2 -72 -6v-232c21 -4 58 -7 88 -7c89 0 143 35 143 120c0 88 -57 125 -159 125z" />
    <glyph glyph-name="Q" unicode="Q" horiz-adv-x="779" 
d="M391 734c203 0 339 -128 339 -371c0 -149 -47 -257 -127 -319c27 -76 82 -109 165 -109c31 0 61 4 89 14c5 -38 -10 -97 -37 -125c-26 -11 -54 -17 -99 -17c-123 0 -213 70 -255 177c-23 -5 -49 -7 -75 -7c-219 0 -340 127 -340 386c0 233 142 371 340 371zM207 363
c0 -163 67 -254 184 -254c120 0 183 91 183 254c0 150 -72 240 -183 240c-120 0 -184 -88 -184 -240z" />
    <glyph glyph-name="R" unicode="R" horiz-adv-x="688" 
d="M86 9v694c53 12 135 19 209 19c200 0 320 -66 320 -234c0 -103 -44 -171 -113 -208l167 -270c-13 -9 -41 -14 -80 -14c-44 0 -73 5 -94 14l-139 234h-16c-34 0 -79 3 -103 7v-242c-14 -8 -39 -13 -75 -13c-35 0 -61 5 -76 13zM306 593c-24 0 -48 -2 -70 -6v-209
c20 -4 57 -7 86 -7c87 0 140 31 140 109c0 80 -56 113 -156 113z" />
    <glyph glyph-name="S" unicode="S" horiz-adv-x="577" 
d="M42 162c55 -33 150 -57 224 -57c89 0 124 34 124 87c0 147 -333 68 -333 324c0 143 94 218 248 218c67 0 124 -14 176 -44c22 -36 33 -93 27 -138c-54 33 -124 56 -192 56c-74 0 -107 -27 -107 -73c0 -138 331 -65 331 -324c0 -176 -121 -234 -272 -234
c-74 0 -144 14 -199 40c-24 39 -33 102 -27 145z" />
    <glyph glyph-name="T" unicode="T" horiz-adv-x="611" 
d="M582 578h-201v-569c-14 -8 -39 -13 -75 -13s-61 5 -76 13v569h-201c-6 13 -11 40 -11 67s5 53 11 66h553c6 -13 11 -39 11 -66s-5 -54 -11 -67z" />
    <glyph glyph-name="U" unicode="U" horiz-adv-x="740" 
d="M227 702v-433c0 -106 44 -156 144 -156c108 0 150 60 150 159v430c14 8 40 13 73 13c36 0 61 -5 74 -13v-420c0 -191 -91 -305 -304 -305c-196 0 -288 97 -288 279v446c15 8 41 13 76 13c36 0 61 -5 75 -13z" />
    <glyph glyph-name="V" unicode="V" horiz-adv-x="678" 
d="M340 113h8c9 68 22 136 41 197l123 391c17 10 43 14 77 14c38 0 60 -5 76 -14l-235 -697c-21 -6 -55 -10 -91 -10c-37 0 -71 4 -92 10l-233 697c14 9 41 14 80 14c37 0 62 -5 79 -14l125 -393c19 -60 32 -126 42 -195z" />
    <glyph glyph-name="W" unicode="W" horiz-adv-x="1008" 
d="M723 106h8c4 65 12 128 20 169l88 428c14 8 41 12 73 12c37 0 59 -4 72 -12l-153 -699c-23 -6 -58 -10 -103 -10c-46 0 -82 4 -105 10l-90 427c-9 44 -20 110 -24 175h-8c-5 -63 -18 -138 -27 -178l-92 -424c-23 -6 -59 -10 -104 -10s-80 4 -103 10l-150 697
c13 9 37 14 75 14c33 0 61 -4 77 -14l85 -423c8 -41 16 -108 21 -172h8c3 63 11 135 19 171l94 430c23 7 59 11 104 11c43 0 80 -4 103 -11l87 -428c10 -51 20 -109 25 -173z" />
    <glyph glyph-name="X" unicode="X" horiz-adv-x="668" 
d="M220 702l90 -149c15 -24 28 -47 34 -69h8c6 23 19 47 33 70l91 148c18 8 46 13 84 13c36 0 62 -5 74 -13l-208 -329l225 -364c-12 -9 -40 -13 -77 -13c-42 0 -70 5 -91 13l-113 188c-15 24 -27 46 -33 69h-8c-6 -23 -20 -47 -34 -70l-116 -187c-19 -8 -48 -13 -87 -13
c-35 0 -62 5 -74 13l234 369l-197 324c12 9 39 13 76 13c41 0 69 -5 89 -13z" />
    <glyph glyph-name="Y" unicode="Y" horiz-adv-x="629" 
d="M239 239l-228 462c14 9 41 14 80 14c37 0 63 -5 80 -14l93 -182c20 -39 43 -108 54 -164h8c8 54 28 124 48 164l92 182c17 10 43 14 78 14c38 0 59 -5 75 -14l-229 -460v-232c-14 -8 -39 -13 -75 -13c-35 0 -61 5 -76 13v230z" />
    <glyph glyph-name="Z" unicode="Z" horiz-adv-x="603" 
d="M549 595l-322 -457v-8h329c6 -13 11 -38 11 -64c0 -27 -5 -53 -11 -66h-499c-14 34 -18 74 -18 118l324 457v8h-303c-6 13 -11 37 -11 63c0 27 5 52 11 65h471c14 -34 18 -72 18 -116z" />
    <glyph glyph-name="bracketleft" unicode="[" horiz-adv-x="328" 
d="M73 -214v1002h233c10 -32 14 -79 14 -121h-108v-757h103c6 -12 9 -36 9 -62c0 -25 -3 -50 -9 -62h-242z" />
    <glyph glyph-name="backslash" unicode="\" horiz-adv-x="470" 
d="M122 783l353 -921c-28 -31 -72 -47 -119 -49l-338 894c20 31 62 64 104 76z" />
    <glyph glyph-name="bracketright" unicode="]" horiz-adv-x="328" 
d="M255 788v-1002h-242c-6 12 -9 37 -9 62c0 26 3 50 9 62h103v757h-108c0 42 4 89 14 121h233z" />
    <glyph glyph-name="asciicircum" unicode="^" 
d="M337 694l196 -330c-20 -30 -66 -55 -107 -60l-99 161c-23 37 -37 80 -48 129h-8c-10 -50 -31 -102 -49 -131l-105 -166c-36 22 -68 61 -83 97l178 285c32 10 83 15 125 15z" />
    <glyph glyph-name="underscore" unicode="_" horiz-adv-x="500" 
d="M-1 -133h502c6 -12 9 -36 9 -61s-3 -49 -9 -61h-522c0 43 7 90 20 122z" />
    <glyph glyph-name="grave" unicode="`" horiz-adv-x="470" 
d="M348 615c-16 -26 -46 -45 -84 -51l-162 174c26 27 81 43 128 43z" />
    <glyph glyph-name="a" unicode="a" horiz-adv-x="555" 
d="M341 52h-8c-22 -44 -69 -72 -138 -72c-88 0 -164 44 -164 160c0 122 88 169 204 169c33 0 62 -4 91 -13v14c0 61 -30 83 -96 83c-58 0 -115 -16 -160 -42c-12 39 -7 101 16 134c36 20 98 33 172 33c144 0 213 -51 213 -199v-173c0 -31 14 -38 34 -38c17 0 33 5 43 12
c4 -40 -8 -89 -26 -117c-21 -14 -49 -23 -83 -23c-58 0 -88 25 -98 72zM329 132v68c-20 8 -42 12 -66 12c-58 0 -87 -24 -87 -62c0 -39 29 -53 69 -53c32 0 64 10 84 35z" />
    <glyph glyph-name="b" unicode="b" horiz-adv-x="593" 
d="M204 438h8c18 41 63 80 139 80c103 0 203 -64 203 -249c0 -190 -105 -289 -286 -289c-71 0 -145 15 -198 38v699c34 19 81 29 145 29v-161c0 -44 -4 -106 -11 -147zM213 345v-237c14 -4 37 -7 59 -7c94 0 133 57 133 155c0 91 -36 135 -100 135c-46 0 -73 -21 -92 -46z
" />
    <glyph glyph-name="c" unicode="c" horiz-adv-x="495" 
d="M187 252c0 -100 58 -143 148 -143c48 0 90 11 126 29c6 -40 -12 -102 -39 -130c-33 -16 -77 -28 -134 -28c-162 0 -250 99 -250 262c0 186 112 276 264 276c49 0 93 -9 122 -27c22 -28 33 -88 26 -129c-36 21 -69 31 -115 31c-90 0 -148 -40 -148 -141z" />
    <glyph glyph-name="d" unicode="d" horiz-adv-x="595" 
d="M379 500v217c34 19 81 29 145 29v-733c-27 -15 -67 -23 -108 -23l-19 69h-8c-26 -52 -84 -79 -151 -79c-135 0 -199 101 -199 250c0 183 96 288 247 288c36 0 69 -6 93 -18zM381 148v231c-17 9 -40 13 -63 13c-90 0 -130 -61 -130 -152c0 -88 36 -129 102 -129
c44 0 71 20 91 37z" />
    <glyph glyph-name="e" unicode="e" horiz-adv-x="549" 
d="M493 202h-304c6 -70 56 -104 155 -104c64 0 120 14 156 30c3 -38 -13 -87 -36 -113c-33 -19 -89 -35 -158 -35c-175 0 -268 101 -268 263c0 167 100 275 257 275c146 0 213 -90 213 -222c0 -32 -6 -68 -15 -94zM185 307h187c8 52 -11 103 -83 103
c-62 0 -100 -40 -104 -103z" />
    <glyph glyph-name="f" unicode="f" horiz-adv-x="363" 
d="M34 498h57v46c0 158 78 214 191 214c43 0 76 -8 105 -24c21 -31 28 -88 22 -128c-32 18 -61 26 -95 26c-55 0 -78 -25 -78 -78v-56h122c6 -12 9 -37 9 -62s-3 -50 -9 -62h-122v-366c-13 -7 -37 -12 -72 -12s-59 5 -73 12v366h-77c0 43 7 92 20 124z" />
    <glyph glyph-name="g" unicode="g" horiz-adv-x="552" 
d="M111 177v7c-47 30 -65 86 -65 147c0 124 91 187 217 187c45 0 82 -8 111 -20h144c13 -30 18 -70 18 -106h-72v-5c9 -9 15 -33 15 -62c0 -115 -81 -181 -213 -181c-23 0 -46 4 -56 8c-11 -7 -17 -21 -17 -33c0 -28 34 -34 100 -34c143 0 245 -28 245 -160
c0 -135 -104 -189 -272 -189c-152 0 -249 43 -249 160c0 60 32 103 77 114v7c-28 14 -41 41 -41 75c0 45 25 76 58 85zM272 -31c-38 0 -63 2 -86 9c-22 -13 -34 -35 -34 -60c0 -55 55 -70 126 -70c80 0 125 21 125 69c0 37 -27 52 -131 52zM179 331c0 -51 28 -81 84 -81
c55 0 83 31 83 81c0 51 -29 81 -83 81c-56 0 -84 -31 -84 -81z" />
    <glyph glyph-name="h" unicode="h" horiz-adv-x="607" 
d="M216 328v-320c-13 -7 -37 -12 -72 -12s-59 5 -73 12v709c34 19 81 29 145 29v-152c0 -57 -5 -118 -13 -164h8c22 50 70 88 162 88c78 0 169 -27 169 -192v-318c-13 -7 -37 -12 -72 -12s-59 5 -73 12v292c0 53 -19 87 -79 87c-54 0 -83 -27 -102 -59z" />
    <glyph glyph-name="i" unicode="i" horiz-adv-x="287" 
d="M71 8v482c14 7 38 12 73 12s59 -5 72 -12v-482c-13 -7 -37 -12 -72 -12s-59 5 -73 12zM144 757c52 0 87 -31 87 -86c0 -59 -35 -91 -87 -91c-57 0 -88 31 -88 90c0 54 37 87 88 87z" />
    <glyph glyph-name="j" unicode="j" horiz-adv-x="293" 
d="M225 490v-331c0 -214 -52 -313 -160 -406c-41 11 -73 42 -89 86c66 60 104 130 104 276v375c14 7 38 12 73 12s59 -5 72 -12zM151 757c52 0 87 -31 87 -86c0 -59 -35 -91 -87 -91c-57 0 -88 31 -88 90c0 54 37 87 88 87z" />
    <glyph glyph-name="k" unicode="k" 
d="M216 329h50l118 167c11 4 35 8 58 8c41 0 78 -8 94 -19l-152 -211c51 -89 107 -178 177 -266c-14 -9 -45 -13 -79 -13c-38 0 -76 5 -93 13c-49 64 -88 126 -129 202h-44v-202c-13 -7 -37 -12 -72 -12s-59 5 -73 12v709c34 19 81 29 145 29v-417z" />
    <glyph glyph-name="l" unicode="l" horiz-adv-x="326" 
d="M288 3c-23 -14 -53 -23 -90 -23c-100 0 -130 65 -130 154v583c34 19 81 29 145 29v-588c0 -38 13 -48 42 -48c23 0 43 6 61 18c4 -42 -9 -96 -28 -125z" />
    <glyph glyph-name="m" unicode="m" horiz-adv-x="907" 
d="M216 328v-320c-13 -7 -37 -12 -72 -12s-59 5 -73 12v477c27 15 70 23 118 23l8 -82h8c23 49 72 92 162 92c59 0 118 -17 145 -87h8c21 47 70 87 159 87c75 0 163 -27 163 -192v-318c-13 -7 -37 -12 -72 -12s-59 5 -73 12v292c0 52 -17 85 -74 85c-50 0 -79 -26 -96 -57
c1 -9 2 -30 2 -51v-269c-13 -7 -36 -12 -71 -12s-58 5 -72 12v292c0 52 -17 85 -74 85c-51 0 -79 -26 -96 -57z" />
    <glyph glyph-name="n" unicode="n" horiz-adv-x="602" 
d="M216 328v-320c-13 -7 -37 -12 -72 -12s-59 5 -73 12v477c27 15 70 23 118 23l8 -82h8c24 52 75 92 166 92c76 0 166 -27 166 -192v-318c-13 -7 -37 -12 -72 -12s-59 5 -73 12v292c0 52 -18 85 -77 85c-52 0 -81 -26 -99 -57z" />
    <glyph glyph-name="o" unicode="o" horiz-adv-x="580" 
d="M290 518c151 0 249 -91 249 -261c0 -180 -95 -277 -249 -277c-161 0 -249 92 -249 277c0 164 101 261 249 261zM190 256c0 -99 34 -157 100 -157c69 0 100 58 100 157c0 88 -36 143 -100 143c-67 0 -100 -55 -100 -143z" />
    <glyph glyph-name="p" unicode="p" horiz-adv-x="595" 
d="M197 427h8c27 65 88 91 156 91c131 0 195 -103 195 -251c0 -181 -95 -287 -245 -287c-36 0 -71 6 -95 18v-231c-13 -7 -37 -12 -72 -12s-59 5 -73 12v718c29 15 74 23 118 23zM214 344v-224c17 -7 41 -12 66 -12c90 0 127 60 127 149c0 92 -38 132 -102 132
c-44 0 -73 -21 -91 -45z" />
    <glyph glyph-name="q" unicode="q" horiz-adv-x="591" 
d="M391 58h-8c-18 -40 -64 -78 -143 -78c-102 0 -201 66 -201 248c0 190 110 290 288 290c76 0 142 -18 196 -53v-698c-13 -7 -37 -12 -72 -12s-59 5 -73 12v124c0 53 4 120 13 167zM380 156v232c-14 7 -34 11 -58 11c-93 0 -134 -59 -134 -157c0 -92 35 -133 100 -133
c47 0 73 22 92 47z" />
    <glyph glyph-name="r" unicode="r" horiz-adv-x="408" 
d="M206 416c14 55 46 102 128 102c19 0 35 -3 47 -9c14 -25 21 -53 21 -91c0 -29 -4 -47 -9 -61c-19 11 -38 17 -69 17c-51 0 -89 -35 -108 -87v-279c-13 -7 -37 -12 -72 -12s-59 5 -73 12v477c27 15 69 23 117 23l10 -92h8z" />
    <glyph glyph-name="s" unicode="s" horiz-adv-x="461" 
d="M39 137c41 -26 114 -45 169 -45c51 0 71 16 71 46c0 79 -228 40 -228 218c0 102 65 162 186 162c50 0 103 -10 142 -34c18 -29 29 -84 24 -123c-45 28 -101 46 -150 46c-43 0 -56 -14 -56 -38c0 -74 229 -37 229 -214c0 -128 -89 -175 -213 -175c-52 0 -109 8 -152 28
c-21 34 -29 95 -22 129z" />
    <glyph glyph-name="t" unicode="t" horiz-adv-x="408" 
d="M234 498h133c6 -12 9 -37 9 -62s-3 -50 -9 -62h-133v-188c0 -48 14 -73 68 -73c30 0 60 6 91 27c5 -42 -11 -101 -31 -127c-29 -21 -64 -33 -114 -33c-123 0 -159 74 -159 184v210h-77c0 43 7 92 20 124h57v108c36 26 89 39 145 40v-148z" />
    <glyph glyph-name="u" unicode="u" horiz-adv-x="597" 
d="M396 60h-8c-22 -45 -69 -80 -157 -80c-78 0 -166 27 -166 193v305c34 19 82 30 145 30v-310c0 -54 17 -84 75 -84c47 0 78 20 96 43v333c14 7 38 12 73 12s59 -5 72 -12v-477c-26 -15 -67 -23 -113 -23z" />
    <glyph glyph-name="v" unicode="v" horiz-adv-x="535" 
d="M269 108h8c7 44 17 88 29 129l76 258c11 4 28 9 60 9c41 0 69 -8 87 -20l-158 -474c-53 -15 -127 -20 -198 -20l-164 494c18 12 46 20 88 20c30 0 51 -5 60 -9l81 -258c13 -42 23 -83 31 -129z" />
    <glyph glyph-name="w" unicode="w" horiz-adv-x="848" 
d="M610 108h8c8 61 19 133 32 186l48 201c9 4 26 9 57 9c37 0 62 -8 79 -19l-123 -479c-49 -14 -119 -20 -187 -20l-59 212c-15 53 -31 127 -39 188h-8c-7 -61 -20 -133 -35 -187l-52 -192c-51 -15 -121 -21 -189 -21l-126 498c17 12 44 20 84 20c29 0 49 -5 58 -9l48 -195
c13 -54 27 -130 33 -192h8c4 54 16 126 27 168l53 208c45 17 115 25 192 25l60 -244c11 -46 22 -98 31 -157z" />
    <glyph glyph-name="x" unicode="x" horiz-adv-x="549" 
d="M192 263l-148 221c18 12 48 20 90 20c32 0 54 -5 63 -9l54 -82c11 -16 22 -37 27 -55h8c4 19 15 39 25 55l50 82c9 4 30 9 61 9c41 0 70 -8 87 -20l-148 -227l170 -249c-13 -8 -41 -13 -74 -13c-37 0 -73 5 -87 12l-67 98c-12 18 -23 36 -28 55h-8
c-4 -18 -16 -38 -27 -55l-65 -98c-16 -7 -48 -12 -85 -12c-34 0 -59 5 -72 13z" />
    <glyph glyph-name="y" unicode="y" horiz-adv-x="533" 
d="M276 99h8c5 47 14 106 25 143l74 253c11 4 28 9 60 9c40 0 68 -8 86 -20l-73 -227c-36 -115 -74 -226 -126 -311c-57 -93 -132 -156 -249 -194c-34 26 -61 74 -66 122c80 21 135 65 172 118l-182 492c18 12 46 20 89 20c31 0 52 -5 61 -9l92 -256c11 -31 24 -92 29 -140z
" />
    <glyph glyph-name="z" unicode="z" horiz-adv-x="488" 
d="M442 396l-213 -268v-8h217c5 -12 9 -35 9 -60s-4 -48 -9 -60h-392c-11 27 -17 63 -17 99l220 273v8h-214c0 40 7 87 19 118h362c11 -28 18 -63 18 -102z" />
    <glyph glyph-name="braceleft" unicode="{" horiz-adv-x="347" 
d="M20 242c0 42 8 92 20 120c48 7 61 29 61 98v120c0 119 40 228 234 229c0 -47 -8 -89 -24 -120c-51 -4 -71 -28 -71 -85v-157c0 -74 -19 -123 -76 -141v-8c54 -15 76 -60 76 -133v-184c0 -65 27 -88 89 -90c10 -28 6 -98 -9 -123c-190 1 -219 95 -219 223v151
c0 57 -11 93 -81 100z" />
    <glyph glyph-name="bar" unicode="|" horiz-adv-x="284" 
d="M206 776v-965c-11 -6 -33 -10 -64 -10c-30 0 -52 4 -64 10v945c34 14 77 20 128 20z" />
    <glyph glyph-name="braceright" unicode="}" horiz-adv-x="347" 
d="M53 807c168 -21 193 -106 193 -224v-124c0 -56 11 -94 61 -97c13 -30 21 -76 21 -120c-68 -4 -82 -34 -82 -93v-150c0 -151 -39 -228 -218 -231c-16 25 -20 95 -9 123c68 1 88 29 88 101v165c0 80 23 124 76 140v8c-59 18 -76 65 -76 134v161c0 64 -24 86 -86 91
c0 40 13 87 32 116z" />
    <glyph glyph-name="asciitilde" unicode="~" 
d="M96 192c-28 18 -49 53 -58 89c18 59 68 95 138 95c91 0 120 -57 193 -57c35 0 53 18 61 45c36 -1 80 -14 100 -37c-22 -78 -78 -134 -161 -134c-101 0 -122 58 -199 58c-38 0 -62 -26 -74 -59z" />
    <glyph glyph-name="uni00A0" unicode="&#xa0;" horiz-adv-x="194" 
 />
    <glyph glyph-name="exclamdown" unicode="&#xa1;" horiz-adv-x="317" 
d="M160 516c51 0 86 -31 86 -85c0 -58 -35 -90 -86 -90c-56 0 -87 31 -87 89c0 53 37 86 87 86zM72 -206l19 465c20 10 45 16 81 16c22 0 40 -2 54 -8l21 -473c-16 -8 -45 -14 -87 -14s-71 6 -88 14z" />
    <glyph glyph-name="cent" unicode="&#xa2;" horiz-adv-x="495" 
d="M187 272c0 -90 58 -130 148 -130c48 0 90 11 126 29c6 -40 -12 -102 -39 -130c-21 -10 -43 -18 -71 -22v-83c-10 -6 -31 -10 -61 -10c-28 0 -50 4 -61 10v82c-125 20 -191 110 -191 245c0 147 78 232 192 255v81c33 13 74 19 122 19v-96c28 -4 53 -12 72 -23
c22 -28 33 -88 26 -129c-36 21 -69 31 -115 31c-90 0 -148 -37 -148 -129z" />
    <glyph glyph-name="sterling" unicode="&#xa3;" horiz-adv-x="529" 
d="M50 332h54c-5 17 -8 35 -8 56c0 112 71 185 211 185c57 0 105 -12 139 -33c25 -30 35 -98 32 -134c-43 26 -93 43 -148 43c-64 0 -87 -21 -87 -63c0 -19 3 -37 9 -54h176c5 -9 8 -29 8 -49c0 -21 -3 -41 -8 -50h-159c1 -6 1 -11 1 -16c0 -34 -14 -72 -47 -93v-8h276
c6 -11 9 -34 9 -58c0 -23 -3 -47 -9 -58h-414c-13 28 -19 65 -19 104c31 23 58 53 58 103c0 9 -1 20 -2 26h-88c0 36 6 72 16 99z" />
    <glyph glyph-name="currency" unicode="&#xa4;" horiz-adv-x="586" 
d="M293 498c36 0 70 -6 101 -18l63 80c41 -14 77 -43 97 -76l-67 -76c24 -33 38 -77 38 -127c0 -53 -14 -98 -38 -132l68 -77c-18 -33 -56 -64 -101 -77l-63 79c-29 -13 -63 -19 -98 -19c-38 0 -74 6 -103 19l-61 -80c-41 14 -77 44 -98 78l67 75c-25 36 -37 80 -37 134
c0 48 13 90 37 125l-67 77c18 34 56 64 101 77l63 -80c27 12 62 18 98 18zM293 389c-62 0 -105 -41 -105 -108c0 -76 41 -117 105 -117c61 0 105 43 105 117c0 71 -44 108 -105 108z" />
    <glyph glyph-name="yen" unicode="&#xa5;" horiz-adv-x="574" 
d="M56 200h142l-36 68h-120c0 32 5 65 14 89h59l-96 182c16 11 41 20 85 20c31 0 50 -5 64 -11l70 -127c18 -33 40 -95 47 -135h8c7 41 26 104 43 134l74 128c14 6 33 11 64 11c37 0 64 -7 80 -17l-101 -185h65c4 -8 7 -26 7 -44c0 -19 -3 -37 -7 -45h-113l-37 -68h150
c4 -8 7 -26 7 -44c0 -19 -3 -37 -7 -45h-162v-103c-13 -7 -38 -12 -73 -12s-60 5 -74 12v103h-167c0 32 5 65 14 89z" />
    <glyph glyph-name="brokenbar" unicode="&#xa6;" horiz-adv-x="284" 
d="M206 776v-372c-11 -6 -33 -10 -64 -10c-30 0 -52 4 -64 10v352c34 14 77 20 128 20zM206 198v-387c-11 -6 -33 -10 -64 -10c-30 0 -52 4 -64 10v367c34 14 77 20 128 20z" />
    <glyph glyph-name="section" unicode="&#xa7;" horiz-adv-x="495" 
d="M33 325c0 76 33 122 74 155c-3 9 -4 19 -4 29c0 105 73 158 186 158c49 0 96 -10 128 -29c23 -31 32 -81 27 -118c-40 24 -91 41 -145 41c-52 0 -70 -15 -70 -43c0 -86 241 -66 241 -265c0 -60 -28 -117 -63 -150c6 -17 10 -36 10 -58c0 -129 -94 -172 -213 -172
c-59 0 -111 11 -153 28c-21 33 -31 83 -26 120c38 -22 107 -40 171 -40c66 0 93 19 93 58c0 103 -256 84 -256 286zM157 336c0 -67 100 -92 176 -145c7 13 12 31 12 50c0 74 -101 95 -173 146c-9 -14 -15 -33 -15 -51z" />
    <glyph glyph-name="dieresis" unicode="&#xa8;" horiz-adv-x="470" 
d="M118 720c41 0 71 -24 71 -70c0 -48 -29 -73 -71 -73c-48 0 -74 25 -74 73c0 43 30 70 74 70zM355 720c42 0 71 -24 71 -70c0 -48 -29 -73 -71 -73c-47 0 -73 25 -73 73c0 43 30 70 73 70z" />
    <glyph glyph-name="copyright" unicode="&#xa9;" horiz-adv-x="813" 
d="M772 344c0 -212 -153 -367 -366 -367c-214 0 -365 150 -365 365c0 211 157 367 367 367c209 0 364 -155 364 -365zM691 343c0 164 -114 291 -284 291c-168 0 -285 -124 -285 -291c0 -170 116 -291 285 -291c170 0 284 121 284 291zM549 424c-30 14 -56 21 -92 21
c-70 0 -117 -30 -117 -100c0 -71 47 -99 116 -99c36 0 73 7 101 19c3 -30 -10 -83 -32 -108c-25 -13 -67 -20 -106 -20c-129 0 -204 76 -204 202c0 136 87 212 221 212c37 0 68 -6 90 -18c20 -28 28 -75 23 -109z" />
    <glyph glyph-name="ordfeminine" unicode="&#xaa;" horiz-adv-x="404" 
d="M243 356h-6c-18 -25 -47 -43 -94 -43c-57 0 -109 27 -109 103c0 82 58 115 138 115c20 0 44 -2 62 -8v13c0 29 -18 44 -65 44c-38 0 -82 -11 -109 -27c-8 27 -5 68 11 92c28 13 68 22 120 22c100 0 150 -34 150 -132v-109c0 -20 9 -25 22 -25c11 0 23 4 30 9
c5 -26 -4 -63 -17 -81c-15 -9 -33 -16 -62 -16c-43 0 -65 16 -71 43zM235 414v46c-10 4 -27 6 -41 6c-38 0 -56 -14 -56 -38c0 -23 17 -35 45 -35c19 0 37 5 52 21zM51 264h316c5 -8 8 -26 8 -43c0 -16 -3 -35 -8 -43h-330c0 27 4 64 14 86z" />
    <glyph glyph-name="guillemotleft" unicode="&#xab;" horiz-adv-x="623" 
d="M214 273c26 -63 59 -133 94 -196c-30 -33 -70 -48 -118 -55c-50 76 -101 165 -131 238c30 74 64 135 105 203c33 18 94 28 153 28c-39 -72 -73 -147 -103 -218zM469 273c26 -63 59 -133 94 -196c-30 -33 -70 -48 -118 -55c-50 76 -101 165 -131 238c30 74 64 135 105 203
c33 18 94 28 153 28c-39 -72 -73 -147 -103 -218z" />
    <glyph glyph-name="logicalnot" unicode="&#xac;" 
d="M516 369v-254c-13 -7 -37 -12 -69 -12s-56 5 -69 12v125h-343c0 41 7 100 20 129h461z" />
    <glyph glyph-name="uni00AD" unicode="&#xad;" horiz-adv-x="378" 
d="M56 345h274c6 -13 9 -39 9 -65s-3 -52 -9 -65h-295c0 45 7 96 21 130z" />
    <glyph glyph-name="registered" unicode="&#xae;" horiz-adv-x="604" 
d="M571 548c0 -156 -113 -272 -269 -272c-160 0 -269 111 -269 272c0 157 113 271 269 271s269 -113 269 -271zM504 548c0 120 -80 208 -202 208c-121 0 -201 -87 -201 -208c0 -123 79 -208 201 -208c123 0 202 85 202 208zM347 432l-37 66c-5 -1 -9 -1 -14 -1
c-9 0 -18 1 -22 2v-67c-5 -4 -17 -7 -41 -7s-36 3 -41 7v237c26 10 67 14 98 14c81 0 131 -27 131 -89c0 -33 -13 -56 -36 -72l54 -90c-6 -4 -22 -7 -43 -7c-22 0 -39 3 -49 7zM273 616v-52c5 -1 16 -2 26 -2c24 0 39 9 39 30c0 20 -15 27 -43 27c-8 0 -15 -1 -22 -3z" />
    <glyph glyph-name="macron" unicode="&#xaf;" horiz-adv-x="470" 
d="M85 697h304c7 -10 10 -30 10 -51c0 -20 -3 -42 -10 -51h-321c0 32 5 74 17 102z" />
    <glyph glyph-name="degree" unicode="&#xb0;" horiz-adv-x="404" 
d="M198 667c99 0 164 -54 164 -153s-66 -157 -164 -157c-106 0 -166 58 -166 157c0 97 70 153 166 153zM142 514c0 -39 19 -63 56 -63c36 0 54 25 54 63c0 37 -19 59 -54 59c-38 0 -56 -22 -56 -59z" />
    <glyph glyph-name="plusminus" unicode="&#xb1;" 
d="M84 453h135v134c33 15 81 20 131 20v-154h142c5 -10 10 -32 10 -60c0 -27 -5 -49 -10 -60h-142v-143c-9 -8 -34 -12 -65 -12s-55 4 -66 12v143h-155c0 39 7 93 20 120zM80 122h417c4 -9 9 -31 9 -61c0 -31 -5 -52 -9 -61h-436c0 38 7 95 19 122z" />
    <glyph glyph-name="twosuperior" unicode="&#xb2;" horiz-adv-x="385" 
d="M203 484h133c4 -9 8 -28 8 -49c0 -20 -3 -42 -7 -51h-289c-9 23 -12 51 -12 83c72 60 168 116 168 180c0 25 -15 39 -52 39s-77 -13 -108 -34c-4 36 6 75 23 102c27 17 66 29 116 29c86 0 147 -38 147 -121c0 -68 -49 -131 -127 -173v-5z" />
    <glyph glyph-name="threesuperior" unicode="&#xb3;" horiz-adv-x="385" 
d="M99 537c-9 25 -5 65 4 86c66 0 107 13 107 43c0 18 -16 25 -47 25c-39 0 -77 -11 -109 -26c-4 28 4 71 26 98c24 12 68 20 110 20c82 0 141 -29 141 -103c0 -45 -23 -78 -66 -87v-5c47 -12 76 -38 76 -92c0 -86 -76 -121 -175 -121c-36 0 -76 5 -106 14
c-17 30 -25 67 -21 100c30 -12 79 -21 120 -21c36 0 61 8 61 33s-24 36 -121 36z" />
    <glyph glyph-name="acute" unicode="&#xb4;" horiz-adv-x="470" 
d="M372 735l-177 -171c-32 8 -60 31 -72 56l121 159c38 0 100 -15 128 -44z" />
    <glyph glyph-name="mu" unicode="&#xb5;" horiz-adv-x="638" 
d="M399 162v328c14 7 38 12 73 12s59 -5 72 -12v-339c0 -34 15 -40 36 -40c19 0 37 7 48 15c5 -40 -9 -92 -27 -120c-21 -16 -49 -26 -85 -26c-59 0 -85 26 -94 58h-8c-13 -30 -50 -58 -117 -58c-50 0 -80 15 -95 46h-8c14 -42 22 -107 22 -170v-89c-13 -7 -37 -12 -72 -12
s-59 5 -73 12v711c34 19 82 30 145 30v-302c0 -56 23 -90 85 -90c48 0 82 20 98 46z" />
    <glyph glyph-name="paragraph" unicode="&#xb6;" horiz-adv-x="628" 
d="M367 625v-793c-8 -5 -27 -9 -52 -9s-43 4 -52 9v489c-14 -3 -27 -3 -42 -3c-97 0 -198 42 -198 192c0 139 89 213 301 213c82 0 162 -10 228 -34v-857c-8 -5 -27 -9 -52 -9s-43 4 -52 9v786c-27 5 -48 7 -81 7z" />
    <glyph glyph-name="periodcentered" unicode="&#xb7;" horiz-adv-x="277" 
d="M139 346c51 0 86 -31 86 -85c0 -58 -35 -90 -86 -90c-56 0 -87 31 -87 89c0 53 37 86 87 86z" />
    <glyph glyph-name="cedilla" unicode="&#xb8;" horiz-adv-x="470" 
d="M156 -92l31 95c25 10 61 16 100 16l-13 -65c35 -13 61 -40 61 -87c0 -72 -63 -112 -125 -121c-28 13 -54 38 -66 69c34 5 66 21 66 49c0 25 -25 38 -54 44z" />
    <glyph glyph-name="onesuperior" unicode="&#xb9;" horiz-adv-x="385" 
d="M149 391v274l-94 -13c2 35 13 77 24 98c36 12 113 27 188 33v-392c-8 -5 -27 -10 -58 -10s-51 5 -60 10z" />
    <glyph glyph-name="ordmasculine" unicode="&#xba;" horiz-adv-x="415" 
d="M60 264h302c5 -8 8 -26 8 -43c0 -16 -3 -35 -8 -43h-316c0 27 4 64 14 86zM208 667c107 0 175 -62 175 -176c0 -113 -69 -178 -175 -178c-114 0 -176 65 -176 178c0 112 73 176 176 176zM142 491c0 -55 22 -88 66 -88s65 34 65 88c0 53 -22 87 -65 87
c-45 0 -66 -34 -66 -87z" />
    <glyph glyph-name="guillemotright" unicode="&#xbb;" horiz-adv-x="623" 
d="M433 23c-49 4 -91 27 -115 56c35 62 65 121 89 181c-29 66 -60 134 -94 197c33 23 80 36 124 36c51 -80 97 -166 127 -232c-33 -72 -83 -160 -131 -238zM175 23c-49 4 -91 27 -115 56c35 62 65 121 89 181c-29 66 -60 134 -94 197c33 23 80 36 124 36
c51 -80 97 -166 127 -232c-33 -72 -83 -160 -131 -238z" />
    <glyph glyph-name="onequarter" unicode="&#xbc;" horiz-adv-x="905" 
d="M720 691l-479 -735c-42 8 -76 31 -94 64l458 705c45 0 83 -11 115 -34zM824 83v-77c-10 -5 -25 -9 -56 -9c-28 0 -48 3 -59 9v77h-173c-11 26 -14 61 -14 92l161 223c51 -1 102 -8 141 -23v-201h41c4 -9 7 -27 7 -44c0 -19 -3 -37 -8 -47h-40zM711 171v73c0 13 1 29 3 37
h-5l-73 -109v-5c10 3 25 4 39 4h36zM109 303v274l-94 -13c2 35 13 77 24 98c36 12 113 27 188 33v-392c-8 -5 -27 -10 -58 -10s-51 5 -60 10z" />
    <glyph glyph-name="onehalf" unicode="&#xbd;" horiz-adv-x="905" 
d="M109 303v274l-94 -13c2 35 13 77 24 98c36 12 113 27 188 33v-392c-8 -5 -27 -10 -58 -10s-51 5 -60 10zM716 691l-479 -735c-42 8 -76 31 -94 64l458 705c45 0 83 -11 115 -34zM736 100h133c4 -9 8 -28 8 -49c0 -20 -3 -42 -7 -51h-289c-9 23 -12 51 -12 83
c72 60 168 116 168 180c0 25 -15 39 -52 39s-77 -13 -108 -34c-4 36 6 75 23 102c27 17 66 29 116 29c86 0 147 -38 147 -121c0 -68 -49 -131 -127 -173v-5z" />
    <glyph glyph-name="threequarters" unicode="&#xbe;" horiz-adv-x="905" 
d="M760 691l-479 -735c-42 8 -76 31 -94 64l458 705c45 0 83 -11 115 -34zM838 83v-77c-10 -5 -25 -9 -56 -9c-28 0 -48 3 -59 9v77h-173c-11 26 -14 61 -14 92l161 223c51 -1 102 -8 141 -23v-201h41c4 -9 7 -27 7 -44c0 -19 -3 -37 -8 -47h-40zM725 171v73c0 13 1 29 3 37
h-5l-73 -109v-5c10 3 25 4 39 4h36zM91 449c-9 25 -5 65 4 86c66 0 107 13 107 43c0 18 -16 25 -47 25c-39 0 -77 -11 -109 -26c-4 28 4 71 26 98c24 12 68 20 110 20c82 0 141 -29 141 -103c0 -45 -23 -78 -66 -87v-5c47 -12 76 -38 76 -92c0 -86 -76 -121 -175 -121
c-36 0 -76 5 -106 14c-17 30 -25 67 -21 100c30 -12 79 -21 120 -21c36 0 61 8 61 33s-24 36 -121 36z" />
    <glyph glyph-name="questiondown" unicode="&#xbf;" horiz-adv-x="439" 
d="M209 -239c-131 0 -206 53 -206 162c0 169 192 187 192 267c0 23 -5 35 -22 52c26 31 70 51 112 54c34 -25 58 -64 58 -111c0 -143 -168 -163 -168 -241c0 -25 16 -49 77 -49c59 0 125 24 176 63c6 -46 -10 -115 -34 -148c-42 -27 -101 -49 -185 -49zM231 516
c51 0 86 -31 86 -85c0 -58 -35 -90 -86 -90c-56 0 -87 31 -87 89c0 53 37 86 87 86z" />
    <glyph glyph-name="Agrave" unicode="&#xc0;" horiz-adv-x="692" 
d="M521 10l-50 154h-253l-50 -154c-17 -10 -44 -14 -78 -14c-38 0 -60 5 -76 14l242 698c21 6 54 10 90 10c37 0 70 -4 91 -10l240 -698c-14 -9 -40 -14 -78 -14s-61 5 -78 14zM255 287h177l-38 118c-20 62 -35 135 -46 205h-8c-11 -73 -29 -148 -48 -208zM220 959l225 -112
c0 -33 -15 -72 -37 -95l-249 93c5 44 28 86 61 114z" />
    <glyph glyph-name="Aacute" unicode="&#xc1;" horiz-adv-x="692" 
d="M521 10l-50 154h-253l-50 -154c-17 -10 -44 -14 -78 -14c-38 0 -60 5 -76 14l242 698c21 6 54 10 90 10c37 0 70 -4 91 -10l240 -698c-14 -9 -40 -14 -78 -14s-61 5 -78 14zM255 287h177l-38 118c-20 62 -35 135 -46 205h-8c-11 -73 -29 -148 -48 -208zM486 959
c30 -28 46 -72 47 -116l-249 -92c-20 23 -30 60 -32 94z" />
    <glyph glyph-name="Acircumflex" unicode="&#xc2;" horiz-adv-x="692" 
d="M521 10l-50 154h-253l-50 -154c-17 -10 -44 -14 -78 -14c-38 0 -60 5 -76 14l242 698c21 6 54 10 90 10c37 0 70 -4 91 -10l240 -698c-14 -9 -40 -14 -78 -14s-61 5 -78 14zM255 287h177l-38 118c-20 62 -35 135 -46 205h-8c-11 -73 -29 -148 -48 -208zM343 829l-153 -71
c-20 20 -33 52 -34 91l119 75c14 6 36 13 68 13c28 0 49 -5 60 -8l133 -87c-6 -39 -26 -71 -48 -87z" />
    <glyph glyph-name="Atilde" unicode="&#xc3;" horiz-adv-x="692" 
d="M521 10l-50 154h-253l-50 -154c-17 -10 -44 -14 -78 -14c-38 0 -60 5 -76 14l242 698c21 6 54 10 90 10c37 0 70 -4 91 -10l240 -698c-14 -9 -40 -14 -78 -14s-61 5 -78 14zM255 287h177l-38 118c-20 62 -35 135 -46 205h-8c-11 -73 -29 -148 -48 -208zM129 804
c8 67 54 126 143 126c74 0 96 -47 152 -47c27 0 44 15 50 40c33 -1 62 -8 86 -25c-6 -65 -49 -130 -148 -130c-71 0 -91 49 -152 49c-24 0 -40 -16 -48 -42c-32 2 -60 10 -83 29z" />
    <glyph glyph-name="Adieresis" unicode="&#xc4;" horiz-adv-x="692" 
d="M521 10l-50 154h-253l-50 -154c-17 -10 -44 -14 -78 -14c-38 0 -60 5 -76 14l242 698c21 6 54 10 90 10c37 0 70 -4 91 -10l240 -698c-14 -9 -40 -14 -78 -14s-61 5 -78 14zM255 287h177l-38 118c-20 62 -35 135 -46 205h-8c-11 -73 -29 -148 -48 -208zM213 916
c41 0 73 -24 73 -72c0 -50 -31 -76 -73 -76c-50 0 -78 26 -78 76c0 44 32 72 78 72zM480 916c41 0 73 -24 73 -72c0 -50 -31 -76 -73 -76c-50 0 -78 26 -78 76c0 44 32 72 78 72z" />
    <glyph glyph-name="Aring" unicode="&#xc5;" horiz-adv-x="692" 
d="M344 899c82 0 135 -44 135 -121c0 -40 -13 -71 -37 -91l235 -677c-14 -9 -40 -14 -78 -14s-61 5 -78 14l-50 154h-253l-50 -154c-17 -10 -44 -14 -78 -14c-38 0 -60 5 -76 14l234 673c-26 21 -39 53 -39 97c0 71 52 119 135 119zM255 287h177l-38 118
c-20 62 -35 135 -46 205h-8c-11 -73 -29 -148 -48 -208zM344 824c-29 0 -49 -18 -49 -46c0 -31 18 -47 49 -47c29 0 48 16 48 47c0 29 -18 46 -48 46z" />
    <glyph glyph-name="AE" unicode="&#xc6;" horiz-adv-x="1039" 
d="M424 711h552c6 -12 10 -37 10 -64s-4 -52 -10 -64h-322v-161h297c6 -13 10 -36 10 -63c0 -26 -4 -50 -10 -63h-297v-167h330c6 -12 10 -37 10 -64s-4 -53 -10 -65h-479v185h-230l-103 -175c-20 -9 -53 -14 -92 -14c-40 0 -66 5 -77 14zM505 596h-8
c-12 -37 -39 -99 -61 -136l-90 -152h159v288z" />
    <glyph glyph-name="Ccedilla" unicode="&#xc7;" horiz-adv-x="644" 
d="M290 -96l26 79c-170 28 -267 159 -267 362c0 248 147 389 363 389c57 0 115 -10 152 -32c23 -33 33 -92 28 -136c-48 23 -92 35 -149 35c-141 0 -238 -72 -238 -246s96 -243 231 -243c63 0 125 16 168 34c2 -37 -16 -101 -40 -133c-36 -17 -83 -31 -138 -35l-5 -26
c37 -13 66 -42 66 -93c0 -79 -68 -122 -136 -132c-30 14 -58 42 -71 76c37 5 71 22 71 53c0 26 -27 40 -61 48z" />
    <glyph glyph-name="Egrave" unicode="&#xc8;" horiz-adv-x="620" 
d="M86 711h471c6 -12 10 -37 10 -64s-4 -52 -10 -64h-322v-161h297c6 -13 10 -36 10 -63c0 -26 -4 -50 -10 -63h-297v-167h330c6 -12 10 -37 10 -64s-4 -53 -10 -65h-479v711zM195 959l225 -112c0 -33 -15 -72 -37 -95l-249 93c5 44 28 86 61 114z" />
    <glyph glyph-name="Eacute" unicode="&#xc9;" horiz-adv-x="620" 
d="M86 711h471c6 -12 10 -37 10 -64s-4 -52 -10 -64h-322v-161h297c6 -13 10 -36 10 -63c0 -26 -4 -50 -10 -63h-297v-167h330c6 -12 10 -37 10 -64s-4 -53 -10 -65h-479v711zM469 959c30 -28 46 -72 47 -116l-249 -92c-20 23 -30 60 -32 94z" />
    <glyph glyph-name="Ecircumflex" unicode="&#xca;" horiz-adv-x="620" 
d="M86 711h471c6 -12 10 -37 10 -64s-4 -52 -10 -64h-322v-161h297c6 -13 10 -36 10 -63c0 -26 -4 -50 -10 -63h-297v-167h330c6 -12 10 -37 10 -64s-4 -53 -10 -65h-479v711zM331 829l-153 -71c-20 20 -33 52 -34 91l119 75c14 6 36 13 68 13c28 0 49 -5 60 -8l133 -87
c-6 -39 -26 -71 -48 -87z" />
    <glyph glyph-name="Edieresis" unicode="&#xcb;" horiz-adv-x="620" 
d="M86 711h471c6 -12 10 -37 10 -64s-4 -52 -10 -64h-322v-161h297c6 -13 10 -36 10 -63c0 -26 -4 -50 -10 -63h-297v-167h330c6 -12 10 -37 10 -64s-4 -53 -10 -65h-479v711zM196 916c41 0 73 -24 73 -72c0 -50 -31 -76 -73 -76c-50 0 -78 26 -78 76c0 44 32 72 78 72z
M463 916c41 0 73 -24 73 -72c0 -50 -31 -76 -73 -76c-50 0 -78 26 -78 76c0 44 32 72 78 72z" />
    <glyph glyph-name="Igrave" unicode="&#xcc;" horiz-adv-x="323" 
d="M86 9v693c15 8 41 13 76 13c36 0 61 -5 75 -13v-693c-14 -8 -39 -13 -75 -13c-35 0 -61 5 -76 13zM43 959l225 -112c0 -33 -15 -72 -37 -95l-249 93c5 44 28 86 61 114z" />
    <glyph glyph-name="Iacute" unicode="&#xcd;" horiz-adv-x="323" 
d="M86 9v693c15 8 41 13 76 13c36 0 61 -5 75 -13v-693c-14 -8 -39 -13 -75 -13c-35 0 -61 5 -76 13zM290 959c30 -28 46 -72 47 -116l-249 -92c-20 23 -30 60 -32 94z" />
    <glyph glyph-name="Icircumflex" unicode="&#xce;" horiz-adv-x="323" 
d="M86 9v693c15 8 41 13 76 13c36 0 61 -5 75 -13v-693c-14 -8 -39 -13 -75 -13c-35 0 -61 5 -76 13zM160 829l-153 -71c-20 20 -33 52 -34 91l119 75c14 6 36 13 68 13c28 0 49 -5 60 -8l133 -87c-6 -39 -26 -71 -48 -87z" />
    <glyph glyph-name="Idieresis" unicode="&#xcf;" horiz-adv-x="323" 
d="M86 9v693c15 8 41 13 76 13c36 0 61 -5 75 -13v-693c-14 -8 -39 -13 -75 -13c-35 0 -61 5 -76 13zM267 916c41 0 73 -24 73 -72c0 -50 -31 -76 -73 -76c-50 0 -78 26 -78 76c0 44 32 72 78 72zM60 916c41 0 73 -24 73 -72c0 -50 -31 -76 -73 -76c-50 0 -78 26 -78 76
c0 44 32 72 78 72z" />
    <glyph glyph-name="Eth" unicode="&#xd0;" horiz-adv-x="736" 
d="M15 416h75v284c71 14 139 19 214 19c234 0 393 -113 393 -360c0 -251 -167 -367 -373 -367c-75 0 -158 2 -234 10v299h-75c-7 14 -9 36 -9 57c0 22 2 44 9 58zM241 584v-168h168c7 -14 9 -36 9 -58c0 -21 -2 -43 -9 -57h-168v-173c28 -3 59 -4 87 -4
c133 0 213 74 213 228c0 166 -92 238 -232 238c-23 0 -46 -1 -68 -6z" />
    <glyph glyph-name="Ntilde" unicode="&#xd1;" horiz-adv-x="775" 
d="M229 557v-549c-14 -8 -37 -12 -72 -12c-33 0 -56 4 -71 12v698c24 6 56 10 99 10c44 0 75 -4 98 -10l193 -351c25 -46 51 -124 63 -183h8v531c14 8 36 12 71 12c33 0 56 -4 71 -12v-698c-20 -6 -50 -10 -93 -10c-44 0 -74 4 -93 10l-204 370c-23 41 -48 113 -62 182h-8z
M170 804c8 67 54 126 143 126c74 0 96 -47 152 -47c27 0 44 15 50 40c33 -1 62 -8 86 -25c-6 -65 -49 -130 -148 -130c-71 0 -91 49 -152 49c-24 0 -40 -16 -48 -42c-32 2 -60 10 -83 29z" />
    <glyph glyph-name="Ograve" unicode="&#xd2;" horiz-adv-x="779" 
d="M390 734c202 0 338 -128 338 -371c0 -251 -133 -386 -338 -386c-218 0 -339 127 -339 386c0 233 142 371 339 371zM207 363c0 -163 67 -254 183 -254c119 0 182 91 182 254c0 150 -72 240 -182 240c-119 0 -183 -88 -183 -240zM265 959l225 -112c0 -33 -15 -72 -37 -95
l-249 93c5 44 28 86 61 114z" />
    <glyph glyph-name="Oacute" unicode="&#xd3;" horiz-adv-x="779" 
d="M390 734c202 0 338 -128 338 -371c0 -251 -133 -386 -338 -386c-218 0 -339 127 -339 386c0 233 142 371 339 371zM207 363c0 -163 67 -254 183 -254c119 0 182 91 182 254c0 150 -72 240 -182 240c-119 0 -183 -88 -183 -240zM529 959c30 -28 46 -72 47 -116l-249 -92
c-20 23 -30 60 -32 94z" />
    <glyph glyph-name="Ocircumflex" unicode="&#xd4;" horiz-adv-x="779" 
d="M390 734c202 0 338 -128 338 -371c0 -251 -133 -386 -338 -386c-218 0 -339 127 -339 386c0 233 142 371 339 371zM207 363c0 -163 67 -254 183 -254c119 0 182 91 182 254c0 150 -72 240 -182 240c-119 0 -183 -88 -183 -240zM389 829l-153 -71c-20 20 -33 52 -34 91
l119 75c14 6 36 13 68 13c28 0 49 -5 60 -8l133 -87c-6 -39 -26 -71 -48 -87z" />
    <glyph glyph-name="Otilde" unicode="&#xd5;" horiz-adv-x="779" 
d="M390 734c202 0 338 -128 338 -371c0 -251 -133 -386 -338 -386c-218 0 -339 127 -339 386c0 233 142 371 339 371zM207 363c0 -163 67 -254 183 -254c119 0 182 91 182 254c0 150 -72 240 -182 240c-119 0 -183 -88 -183 -240zM175 804c8 67 54 126 143 126
c74 0 96 -47 152 -47c27 0 44 15 50 40c33 -1 62 -8 86 -25c-6 -65 -49 -130 -148 -130c-71 0 -91 49 -152 49c-24 0 -40 -16 -48 -42c-32 2 -60 10 -83 29z" />
    <glyph glyph-name="Odieresis" unicode="&#xd6;" horiz-adv-x="779" 
d="M390 734c202 0 338 -128 338 -371c0 -251 -133 -386 -338 -386c-218 0 -339 127 -339 386c0 233 142 371 339 371zM207 363c0 -163 67 -254 183 -254c119 0 182 91 182 254c0 150 -72 240 -182 240c-119 0 -183 -88 -183 -240zM245 916c41 0 73 -24 73 -72
c0 -50 -31 -76 -73 -76c-50 0 -78 26 -78 76c0 44 32 72 78 72zM540 916c41 0 73 -24 73 -72c0 -50 -31 -76 -73 -76c-50 0 -78 26 -78 76c0 44 32 72 78 72z" />
    <glyph glyph-name="multiply" unicode="&#xd7;" 
d="M528 434l-153 -151l151 -146c-13 -39 -49 -78 -92 -96l-149 148l-145 -148c-41 19 -77 55 -92 94l148 144l-156 152c28 33 66 61 113 76l133 -133l129 131c45 -12 84 -37 113 -71z" />
    <glyph glyph-name="Oslash" unicode="&#xd8;" horiz-adv-x="779" 
d="M390 734c74 0 140 -17 192 -52l71 83c42 -11 85 -44 102 -82l-82 -95c35 -56 55 -133 55 -225c0 -251 -133 -386 -338 -386c-81 0 -151 18 -200 53l-79 -91c-40 13 -83 50 -97 91l86 99c-32 60 -49 138 -49 234c0 233 142 371 339 371zM572 363c0 40 -5 77 -15 108
l-277 -323c29 -26 66 -39 110 -39c119 0 182 91 182 254zM207 363c0 -44 4 -83 14 -116l275 319c-29 24 -65 37 -106 37c-119 0 -183 -88 -183 -240z" />
    <glyph glyph-name="Ugrave" unicode="&#xd9;" horiz-adv-x="740" 
d="M227 702v-433c0 -106 44 -156 144 -156c108 0 150 60 150 159v430c14 8 40 13 73 13c36 0 61 -5 74 -13v-420c0 -191 -91 -305 -304 -305c-196 0 -288 97 -288 279v446c15 8 41 13 76 13c36 0 61 -5 75 -13zM249 959l225 -112c0 -33 -15 -72 -37 -95l-249 93
c5 44 28 86 61 114z" />
    <glyph glyph-name="Uacute" unicode="&#xda;" horiz-adv-x="740" 
d="M227 702v-433c0 -106 44 -156 144 -156c108 0 150 60 150 159v430c14 8 40 13 73 13c36 0 61 -5 74 -13v-420c0 -191 -91 -305 -304 -305c-196 0 -288 97 -288 279v446c15 8 41 13 76 13c36 0 61 -5 75 -13zM507 959c30 -28 46 -72 47 -116l-249 -92
c-20 23 -30 60 -32 94z" />
    <glyph glyph-name="Ucircumflex" unicode="&#xdb;" horiz-adv-x="740" 
d="M227 702v-433c0 -106 44 -156 144 -156c108 0 150 60 150 159v430c14 8 40 13 73 13c36 0 61 -5 74 -13v-420c0 -191 -91 -305 -304 -305c-196 0 -288 97 -288 279v446c15 8 41 13 76 13c36 0 61 -5 75 -13zM372 829l-153 -71c-20 20 -33 52 -34 91l119 75
c14 6 36 13 68 13c28 0 49 -5 60 -8l133 -87c-6 -39 -26 -71 -48 -87z" />
    <glyph glyph-name="Udieresis" unicode="&#xdc;" horiz-adv-x="740" 
d="M227 702v-433c0 -106 44 -156 144 -156c108 0 150 60 150 159v430c14 8 40 13 73 13c36 0 61 -5 74 -13v-420c0 -191 -91 -305 -304 -305c-196 0 -288 97 -288 279v446c15 8 41 13 76 13c36 0 61 -5 75 -13zM241 916c41 0 73 -24 73 -72c0 -50 -31 -76 -73 -76
c-50 0 -78 26 -78 76c0 44 32 72 78 72zM508 916c41 0 73 -24 73 -72c0 -50 -31 -76 -73 -76c-50 0 -78 26 -78 76c0 44 32 72 78 72z" />
    <glyph glyph-name="Yacute" unicode="&#xdd;" horiz-adv-x="629" 
d="M239 239l-228 462c14 9 41 14 80 14c37 0 63 -5 80 -14l93 -182c20 -39 43 -108 54 -164h8c8 54 28 124 48 164l92 182c17 10 43 14 78 14c38 0 59 -5 75 -14l-229 -460v-232c-14 -8 -39 -13 -75 -13c-35 0 -61 5 -76 13v230zM458 959c30 -28 46 -72 47 -116l-249 -92
c-20 23 -30 60 -32 94z" />
    <glyph glyph-name="Thorn" unicode="&#xde;" horiz-adv-x="617" 
d="M86 9v693c15 8 41 13 76 13c36 0 61 -5 75 -13v-114c17 3 42 5 77 5c166 0 295 -59 295 -232c0 -166 -120 -238 -268 -238c-31 0 -80 3 -104 7v-121c-14 -8 -39 -13 -75 -13c-35 0 -61 5 -76 13zM305 466c-24 0 -48 -2 -68 -6v-206c15 -4 56 -6 79 -6
c89 0 140 29 140 106c0 79 -54 112 -151 112z" />
    <glyph glyph-name="germandbls" unicode="&#xdf;" horiz-adv-x="690" 
d="M532 143c0 92 -221 67 -221 235c0 132 109 133 109 200c0 39 -35 57 -79 57c-76 0 -125 -52 -125 -190v-437c-13 -7 -37 -12 -72 -12s-59 5 -73 12v434c0 232 120 316 277 316c100 0 214 -35 214 -153c0 -126 -108 -125 -108 -205c0 -99 219 -57 219 -244
c0 -131 -89 -176 -215 -176c-53 0 -109 8 -150 29c-21 34 -28 94 -22 129c40 -25 110 -46 168 -46c54 0 78 17 78 51z" />
    <glyph glyph-name="agrave" unicode="&#xe0;" horiz-adv-x="555" 
d="M341 52h-8c-22 -44 -69 -72 -138 -72c-88 0 -164 44 -164 160c0 122 88 169 204 169c33 0 62 -4 91 -13v14c0 61 -30 83 -96 83c-58 0 -115 -16 -160 -42c-12 39 -7 101 16 134c36 20 98 33 172 33c144 0 213 -51 213 -199v-173c0 -31 14 -38 34 -38c17 0 33 5 43 12
c4 -40 -8 -89 -26 -117c-21 -14 -49 -23 -83 -23c-58 0 -88 25 -98 72zM329 132v68c-20 8 -42 12 -66 12c-58 0 -87 -24 -87 -62c0 -39 29 -53 69 -53c32 0 64 10 84 35zM352 615c-16 -26 -46 -45 -84 -51l-162 174c26 27 81 43 128 43z" />
    <glyph glyph-name="aacute" unicode="&#xe1;" horiz-adv-x="555" 
d="M341 52h-8c-22 -44 -69 -72 -138 -72c-88 0 -164 44 -164 160c0 122 88 169 204 169c33 0 62 -4 91 -13v14c0 61 -30 83 -96 83c-58 0 -115 -16 -160 -42c-12 39 -7 101 16 134c36 20 98 33 172 33c144 0 213 -51 213 -199v-173c0 -31 14 -38 34 -38c17 0 33 5 43 12
c4 -40 -8 -89 -26 -117c-21 -14 -49 -23 -83 -23c-58 0 -88 25 -98 72zM329 132v68c-20 8 -42 12 -66 12c-58 0 -87 -24 -87 -62c0 -39 29 -53 69 -53c32 0 64 10 84 35zM427 735l-177 -171c-32 8 -60 31 -72 56l121 159c38 0 100 -15 128 -44z" />
    <glyph glyph-name="acircumflex" unicode="&#xe2;" horiz-adv-x="555" 
d="M341 52h-8c-22 -44 -69 -72 -138 -72c-88 0 -164 44 -164 160c0 122 88 169 204 169c33 0 62 -4 91 -13v14c0 61 -30 83 -96 83c-58 0 -115 -16 -160 -42c-12 39 -7 101 16 134c36 20 98 33 172 33c144 0 213 -51 213 -199v-173c0 -31 14 -38 34 -38c17 0 33 5 43 12
c4 -40 -8 -89 -26 -117c-21 -14 -49 -23 -83 -23c-58 0 -88 25 -98 72zM329 132v68c-20 8 -42 12 -66 12c-58 0 -87 -24 -87 -62c0 -39 29 -53 69 -53c32 0 64 10 84 35zM96 637l114 126c26 8 70 12 107 12l130 -153c-14 -30 -42 -52 -74 -61l-109 109l-119 -115
c-28 21 -43 50 -49 82z" />
    <glyph glyph-name="atilde" unicode="&#xe3;" horiz-adv-x="555" 
d="M341 52h-8c-22 -44 -69 -72 -138 -72c-88 0 -164 44 -164 160c0 122 88 169 204 169c33 0 62 -4 91 -13v14c0 61 -30 83 -96 83c-58 0 -115 -16 -160 -42c-12 39 -7 101 16 134c36 20 98 33 172 33c144 0 213 -51 213 -199v-173c0 -31 14 -38 34 -38c17 0 33 5 43 12
c4 -40 -8 -89 -26 -117c-21 -14 -49 -23 -83 -23c-58 0 -88 25 -98 72zM329 132v68c-20 8 -42 12 -66 12c-58 0 -87 -24 -87 -62c0 -39 29 -53 69 -53c32 0 64 10 84 35zM452 697c-1 -63 -40 -123 -117 -123c-68 0 -87 41 -135 41c-23 0 -34 -17 -39 -36
c-30 1 -65 22 -80 46c10 58 54 100 115 100c69 0 92 -41 136 -41c20 0 33 12 37 35c31 -1 60 -8 83 -22z" />
    <glyph glyph-name="adieresis" unicode="&#xe4;" horiz-adv-x="555" 
d="M341 52h-8c-22 -44 -69 -72 -138 -72c-88 0 -164 44 -164 160c0 122 88 169 204 169c33 0 62 -4 91 -13v14c0 61 -30 83 -96 83c-58 0 -115 -16 -160 -42c-12 39 -7 101 16 134c36 20 98 33 172 33c144 0 213 -51 213 -199v-173c0 -31 14 -38 34 -38c17 0 33 5 43 12
c4 -40 -8 -89 -26 -117c-21 -14 -49 -23 -83 -23c-58 0 -88 25 -98 72zM329 132v68c-20 8 -42 12 -66 12c-58 0 -87 -24 -87 -62c0 -39 29 -53 69 -53c32 0 64 10 84 35zM149 720c41 0 71 -24 71 -70c0 -48 -29 -73 -71 -73c-48 0 -74 25 -74 73c0 43 30 70 74 70zM386 720
c42 0 71 -24 71 -70c0 -48 -29 -73 -71 -73c-47 0 -73 25 -73 73c0 43 30 70 73 70z" />
    <glyph glyph-name="aring" unicode="&#xe5;" horiz-adv-x="555" 
d="M341 52h-8c-22 -44 -69 -72 -138 -72c-88 0 -164 44 -164 160c0 122 88 169 204 169c33 0 62 -4 91 -13v14c0 61 -30 83 -96 83c-58 0 -115 -16 -160 -42c-12 39 -7 101 16 134c36 20 98 33 172 33c144 0 213 -51 213 -199v-173c0 -31 14 -38 34 -38c17 0 33 5 43 12
c4 -40 -8 -89 -26 -117c-21 -14 -49 -23 -83 -23c-58 0 -88 25 -98 72zM329 132v68c-20 8 -42 12 -66 12c-58 0 -87 -24 -87 -62c0 -39 29 -53 69 -53c32 0 64 10 84 35zM267 795c76 0 126 -42 126 -115c0 -77 -51 -116 -126 -116c-82 0 -127 39 -127 116
c0 69 50 115 127 115zM267 724c-28 0 -47 -17 -47 -44c0 -30 17 -45 47 -45c27 0 46 15 46 45c0 28 -18 44 -46 44z" />
    <glyph glyph-name="ae" unicode="&#xe6;" horiz-adv-x="835" 
d="M779 202h-304c6 -70 56 -104 155 -104c64 0 120 14 156 30c3 -38 -13 -87 -36 -113c-33 -19 -89 -35 -158 -35c-101 0 -176 33 -213 88h-8c-23 -46 -78 -88 -170 -88c-93 0 -170 41 -170 156c0 122 88 173 201 173c32 0 67 -4 94 -12v13c0 61 -30 83 -96 83
c-58 0 -115 -16 -160 -42c-12 39 -7 101 16 134c36 20 98 33 172 33c78 0 130 -14 163 -52c40 34 96 52 160 52c146 0 213 -90 213 -222c0 -32 -6 -68 -15 -94zM338 143c-6 19 -10 41 -12 60c-19 5 -39 9 -64 9c-60 0 -90 -22 -90 -61c0 -38 29 -54 71 -54s72 15 95 46z
M471 307h187c8 52 -11 103 -83 103c-62 0 -100 -40 -104 -103z" />
    <glyph glyph-name="ccedilla" unicode="&#xe7;" horiz-adv-x="495" 
d="M200 -92l25 78c-122 22 -187 115 -187 256c0 186 112 276 264 276c49 0 93 -9 122 -27c22 -28 33 -88 26 -129c-36 21 -69 31 -115 31c-90 0 -148 -40 -148 -141c0 -100 58 -143 148 -143c48 0 90 11 126 29c6 -40 -12 -102 -39 -130c-26 -12 -58 -23 -98 -26l-6 -28
c35 -13 61 -40 61 -87c0 -72 -63 -112 -125 -121c-28 13 -54 38 -66 69c34 5 66 21 66 49c0 25 -25 38 -54 44z" />
    <glyph glyph-name="egrave" unicode="&#xe8;" horiz-adv-x="549" 
d="M493 202h-304c6 -70 56 -104 155 -104c64 0 120 14 156 30c3 -38 -13 -87 -36 -113c-33 -19 -89 -35 -158 -35c-175 0 -268 101 -268 263c0 167 100 275 257 275c146 0 213 -90 213 -222c0 -32 -6 -68 -15 -94zM185 307h187c8 52 -11 103 -83 103
c-62 0 -100 -40 -104 -103zM367 615c-16 -26 -46 -45 -84 -51l-162 174c26 27 81 43 128 43z" />
    <glyph glyph-name="eacute" unicode="&#xe9;" horiz-adv-x="549" 
d="M493 202h-304c6 -70 56 -104 155 -104c64 0 120 14 156 30c3 -38 -13 -87 -36 -113c-33 -19 -89 -35 -158 -35c-175 0 -268 101 -268 263c0 167 100 275 257 275c146 0 213 -90 213 -222c0 -32 -6 -68 -15 -94zM185 307h187c8 52 -11 103 -83 103
c-62 0 -100 -40 -104 -103zM447 735l-177 -171c-32 8 -60 31 -72 56l121 159c38 0 100 -15 128 -44z" />
    <glyph glyph-name="ecircumflex" unicode="&#xea;" horiz-adv-x="549" 
d="M493 202h-304c6 -70 56 -104 155 -104c64 0 120 14 156 30c3 -38 -13 -87 -36 -113c-33 -19 -89 -35 -158 -35c-175 0 -268 101 -268 263c0 167 100 275 257 275c146 0 213 -90 213 -222c0 -32 -6 -68 -15 -94zM185 307h187c8 52 -11 103 -83 103
c-62 0 -100 -40 -104 -103zM115 637l114 126c26 8 70 12 107 12l130 -153c-14 -30 -42 -52 -74 -61l-109 109l-119 -115c-28 21 -43 50 -49 82z" />
    <glyph glyph-name="edieresis" unicode="&#xeb;" horiz-adv-x="549" 
d="M493 202h-304c6 -70 56 -104 155 -104c64 0 120 14 156 30c3 -38 -13 -87 -36 -113c-33 -19 -89 -35 -158 -35c-175 0 -268 101 -268 263c0 167 100 275 257 275c146 0 213 -90 213 -222c0 -32 -6 -68 -15 -94zM185 307h187c8 52 -11 103 -83 103
c-62 0 -100 -40 -104 -103zM167 720c41 0 71 -24 71 -70c0 -48 -29 -73 -71 -73c-48 0 -74 25 -74 73c0 43 30 70 74 70zM404 720c42 0 71 -24 71 -70c0 -48 -29 -73 -71 -73c-47 0 -73 25 -73 73c0 43 30 70 73 70z" />
    <glyph glyph-name="igrave" unicode="&#xec;" horiz-adv-x="287" 
d="M71 8v482c14 7 38 12 73 12s59 -5 72 -12v-482c-13 -7 -37 -12 -72 -12s-59 5 -73 12zM228 615c-16 -26 -46 -45 -84 -51l-162 174c26 27 81 43 128 43z" />
    <glyph glyph-name="iacute" unicode="&#xed;" horiz-adv-x="287" 
d="M71 8v482c14 7 38 12 73 12s59 -5 72 -12v-482c-13 -7 -37 -12 -72 -12s-59 5 -73 12zM299 735l-177 -171c-32 8 -60 31 -72 56l121 159c38 0 100 -15 128 -44z" />
    <glyph glyph-name="icircumflex" unicode="&#xee;" horiz-adv-x="287" 
d="M-26 637l114 126c26 8 70 12 107 12l130 -153c-14 -30 -42 -52 -74 -61l-109 109l-119 -115c-28 21 -43 50 -49 82zM71 8v482c14 7 38 12 73 12s59 -5 72 -12v-482c-13 -7 -37 -12 -72 -12s-59 5 -73 12z" />
    <glyph glyph-name="idieresis" unicode="&#xef;" horiz-adv-x="287" 
d="M71 8v482c14 7 38 12 73 12s59 -5 72 -12v-482c-13 -7 -37 -12 -72 -12s-59 5 -73 12zM247 720c41 0 71 -24 71 -70c0 -48 -29 -73 -71 -73c-48 0 -74 25 -74 73c0 43 30 70 74 70zM42 720c41 0 71 -24 71 -70c0 -48 -29 -73 -71 -73c-48 0 -74 25 -74 73
c0 43 30 70 74 70z" />
    <glyph glyph-name="eth" unicode="&#xf0;" horiz-adv-x="591" 
d="M165 759c71 -13 135 -35 186 -65l120 57c23 -21 40 -62 43 -94l-71 -34c71 -73 109 -177 109 -311c0 -191 -83 -332 -278 -332c-147 0 -237 82 -237 236c0 138 72 253 219 253c60 0 110 -13 141 -62h8c-7 68 -39 122 -86 164l-173 -82c-14 32 -18 70 -18 103l90 42
c-36 16 -72 28 -111 36c9 34 33 69 58 89zM407 302c-27 26 -66 43 -110 43c-75 0 -115 -49 -115 -123c0 -76 41 -114 107 -114c93 0 120 82 120 165c0 10 0 20 -2 29z" />
    <glyph glyph-name="ntilde" unicode="&#xf1;" horiz-adv-x="602" 
d="M216 328v-320c-13 -7 -37 -12 -72 -12s-59 5 -73 12v477c27 15 70 23 118 23l8 -82h8c24 52 75 92 166 92c76 0 166 -27 166 -192v-318c-13 -7 -37 -12 -72 -12s-59 5 -73 12v292c0 52 -18 85 -77 85c-52 0 -81 -26 -99 -57zM492 697c-1 -63 -40 -123 -117 -123
c-68 0 -87 41 -135 41c-23 0 -34 -17 -39 -36c-30 1 -65 22 -80 46c10 58 54 100 115 100c69 0 92 -41 136 -41c20 0 33 12 37 35c31 -1 60 -8 83 -22z" />
    <glyph glyph-name="ograve" unicode="&#xf2;" horiz-adv-x="580" 
d="M290 518c151 0 249 -91 249 -261c0 -180 -95 -277 -249 -277c-161 0 -249 92 -249 277c0 164 101 261 249 261zM190 256c0 -99 34 -157 100 -157c69 0 100 58 100 157c0 88 -36 143 -100 143c-67 0 -100 -55 -100 -143zM377 615c-16 -26 -46 -45 -84 -51l-162 174
c26 27 81 43 128 43z" />
    <glyph glyph-name="oacute" unicode="&#xf3;" horiz-adv-x="580" 
d="M290 518c151 0 249 -91 249 -261c0 -180 -95 -277 -249 -277c-161 0 -249 92 -249 277c0 164 101 261 249 261zM190 256c0 -99 34 -157 100 -157c69 0 100 58 100 157c0 88 -36 143 -100 143c-67 0 -100 -55 -100 -143zM452 735l-177 -171c-32 8 -60 31 -72 56l121 159
c38 0 100 -15 128 -44z" />
    <glyph glyph-name="ocircumflex" unicode="&#xf4;" horiz-adv-x="580" 
d="M290 518c151 0 249 -91 249 -261c0 -180 -95 -277 -249 -277c-161 0 -249 92 -249 277c0 164 101 261 249 261zM190 256c0 -99 34 -157 100 -157c69 0 100 58 100 157c0 88 -36 143 -100 143c-67 0 -100 -55 -100 -143zM118 637l114 126c26 8 70 12 107 12l130 -153
c-14 -30 -42 -52 -74 -61l-109 109l-119 -115c-28 21 -43 50 -49 82z" />
    <glyph glyph-name="otilde" unicode="&#xf5;" horiz-adv-x="580" 
d="M290 518c151 0 249 -91 249 -261c0 -180 -95 -277 -249 -277c-161 0 -249 92 -249 277c0 164 101 261 249 261zM190 256c0 -99 34 -157 100 -157c69 0 100 58 100 157c0 88 -36 143 -100 143c-67 0 -100 -55 -100 -143zM476 697c-1 -63 -40 -123 -117 -123
c-68 0 -87 41 -135 41c-23 0 -34 -17 -39 -36c-30 1 -65 22 -80 46c10 58 54 100 115 100c69 0 92 -41 136 -41c20 0 33 12 37 35c31 -1 60 -8 83 -22z" />
    <glyph glyph-name="odieresis" unicode="&#xf6;" horiz-adv-x="580" 
d="M290 518c151 0 249 -91 249 -261c0 -180 -95 -277 -249 -277c-161 0 -249 92 -249 277c0 164 101 261 249 261zM190 256c0 -99 34 -157 100 -157c69 0 100 58 100 157c0 88 -36 143 -100 143c-67 0 -100 -55 -100 -143zM171 720c41 0 71 -24 71 -70
c0 -48 -29 -73 -71 -73c-48 0 -74 25 -74 73c0 43 30 70 74 70zM412 720c41 0 71 -24 71 -70c0 -48 -29 -73 -71 -73c-48 0 -74 25 -74 73c0 43 30 70 74 70z" />
    <glyph glyph-name="divide" unicode="&#xf7;" 
d="M54 343h469c4 -9 9 -34 9 -63c0 -28 -5 -53 -9 -62h-489c0 39 7 97 20 125zM284 542c43 0 71 -24 71 -68c0 -47 -28 -72 -71 -72c-46 0 -71 25 -71 71c0 43 30 69 71 69zM284 157c43 0 71 -24 71 -68c0 -47 -28 -72 -71 -72c-46 0 -71 25 -71 71c0 43 30 69 71 69z" />
    <glyph glyph-name="oslash" unicode="&#xf8;" horiz-adv-x="580" 
d="M290 518c48 0 90 -9 126 -26l49 61c36 -10 73 -37 89 -67l-54 -67c27 -41 43 -96 43 -162c0 -180 -97 -277 -253 -277c-49 0 -92 9 -127 25l-68 -86c-25 19 -52 60 -62 99l48 59c-29 44 -44 104 -44 180c0 164 103 261 253 261zM186 256c0 -23 2 -44 6 -61l153 188
c-15 10 -32 16 -55 16c-70 0 -104 -55 -104 -143zM394 256c0 15 -1 30 -4 43l-151 -186c13 -9 31 -14 51 -14c72 0 104 58 104 157z" />
    <glyph glyph-name="ugrave" unicode="&#xf9;" horiz-adv-x="597" 
d="M396 60h-8c-22 -45 -69 -80 -157 -80c-78 0 -166 27 -166 193v305c34 19 82 30 145 30v-310c0 -54 17 -84 75 -84c47 0 78 20 96 43v333c14 7 38 12 73 12s59 -5 72 -12v-477c-26 -15 -67 -23 -113 -23zM379 615c-16 -26 -46 -45 -84 -51l-162 174c26 27 81 43 128 43z
" />
    <glyph glyph-name="uacute" unicode="&#xfa;" horiz-adv-x="597" 
d="M396 60h-8c-22 -45 -69 -80 -157 -80c-78 0 -166 27 -166 193v305c34 19 82 30 145 30v-310c0 -54 17 -84 75 -84c47 0 78 20 96 43v333c14 7 38 12 73 12s59 -5 72 -12v-477c-26 -15 -67 -23 -113 -23zM459 735l-177 -171c-32 8 -60 31 -72 56l121 159
c38 0 100 -15 128 -44z" />
    <glyph glyph-name="ucircumflex" unicode="&#xfb;" horiz-adv-x="597" 
d="M396 60h-8c-22 -45 -69 -80 -157 -80c-78 0 -166 27 -166 193v305c34 19 82 30 145 30v-310c0 -54 17 -84 75 -84c47 0 78 20 96 43v333c14 7 38 12 73 12s59 -5 72 -12v-477c-26 -15 -67 -23 -113 -23zM127 637l114 126c26 8 70 12 107 12l130 -153
c-14 -30 -42 -52 -74 -61l-109 109l-119 -115c-28 21 -43 50 -49 82z" />
    <glyph glyph-name="udieresis" unicode="&#xfc;" horiz-adv-x="597" 
d="M396 60h-8c-22 -45 -69 -80 -157 -80c-78 0 -166 27 -166 193v305c34 19 82 30 145 30v-310c0 -54 17 -84 75 -84c47 0 78 20 96 43v333c14 7 38 12 73 12s59 -5 72 -12v-477c-26 -15 -67 -23 -113 -23zM181 720c41 0 71 -24 71 -70c0 -48 -29 -73 -71 -73
c-48 0 -74 25 -74 73c0 43 30 70 74 70zM418 720c42 0 71 -24 71 -70c0 -48 -29 -73 -71 -73c-47 0 -73 25 -73 73c0 43 30 70 73 70z" />
    <glyph glyph-name="yacute" unicode="&#xfd;" horiz-adv-x="533" 
d="M276 99h8c5 47 14 106 25 143l74 253c11 4 28 9 60 9c40 0 68 -8 86 -20l-73 -227c-36 -115 -74 -226 -126 -311c-57 -93 -132 -156 -249 -194c-34 26 -61 74 -66 122c80 21 135 65 172 118l-182 492c18 12 46 20 89 20c31 0 52 -5 61 -9l92 -256c11 -31 24 -92 29 -140z
M431 735l-177 -171c-32 8 -60 31 -72 56l121 159c38 0 100 -15 128 -44z" />
    <glyph glyph-name="thorn" unicode="&#xfe;" horiz-adv-x="596" 
d="M216 746v-161c0 -44 -4 -106 -11 -147h8c19 42 65 80 148 80c132 0 196 -103 196 -251c0 -181 -95 -287 -246 -287c-36 0 -71 6 -95 18v-231c-13 -7 -37 -12 -72 -12s-59 5 -73 12v950c34 19 81 29 145 29zM214 344v-224c17 -7 41 -12 66 -12c91 0 128 60 128 149
c0 92 -38 132 -103 132c-44 0 -73 -21 -91 -45z" />
    <glyph glyph-name="ydieresis" unicode="&#xff;" horiz-adv-x="533" 
d="M276 99h8c5 47 14 106 25 143l74 253c11 4 28 9 60 9c40 0 68 -8 86 -20l-73 -227c-36 -115 -74 -226 -126 -311c-57 -93 -132 -156 -249 -194c-34 26 -61 74 -66 122c80 21 135 65 172 118l-182 492c18 12 46 20 89 20c31 0 52 -5 61 -9l92 -256c11 -31 24 -92 29 -140z
M159 720c41 0 71 -24 71 -70c0 -48 -29 -73 -71 -73c-48 0 -74 25 -74 73c0 43 30 70 74 70zM396 720c42 0 71 -24 71 -70c0 -48 -29 -73 -71 -73c-47 0 -73 25 -73 73c0 43 30 70 73 70z" />
    <glyph glyph-name="Amacron" unicode="&#x100;" horiz-adv-x="692" 
d="M521 10l-50 154h-253l-50 -154c-17 -10 -44 -14 -78 -14c-38 0 -60 5 -76 14l242 698c21 6 54 10 90 10c37 0 70 -4 91 -10l240 -698c-14 -9 -40 -14 -78 -14s-61 5 -78 14zM255 287h177l-38 118c-20 62 -35 135 -46 205h-8c-11 -73 -29 -148 -48 -208zM179 903h331
c7 -13 9 -35 9 -55s-2 -42 -9 -55h-331c-7 13 -9 35 -9 55s2 42 9 55z" />
    <glyph glyph-name="amacron" unicode="&#x101;" horiz-adv-x="555" 
d="M341 52h-8c-22 -44 -69 -72 -138 -72c-88 0 -164 44 -164 160c0 122 88 169 204 169c33 0 62 -4 91 -13v14c0 61 -30 83 -96 83c-58 0 -115 -16 -160 -42c-12 39 -7 101 16 134c36 20 98 33 172 33c144 0 213 -51 213 -199v-173c0 -31 14 -38 34 -38c17 0 33 5 43 12
c4 -40 -8 -89 -26 -117c-21 -14 -49 -23 -83 -23c-58 0 -88 25 -98 72zM329 132v68c-20 8 -42 12 -66 12c-58 0 -87 -24 -87 -62c0 -39 29 -53 69 -53c32 0 64 10 84 35zM117 697h304c7 -10 10 -30 10 -51c0 -20 -3 -42 -10 -51h-321c0 32 5 74 17 102z" />
    <glyph glyph-name="Abreve" unicode="&#x102;" horiz-adv-x="692" 
d="M521 10l-50 154h-253l-50 -154c-17 -10 -44 -14 -78 -14c-38 0 -60 5 -76 14l242 698c21 6 54 10 90 10c37 0 70 -4 91 -10l240 -698c-14 -9 -40 -14 -78 -14s-61 5 -78 14zM255 287h177l-38 118c-20 62 -35 135 -46 205h-8c-11 -73 -29 -148 -48 -208zM444 944
c34 0 66 -7 90 -27c-16 -88 -84 -149 -198 -149c-105 0 -168 53 -181 143c25 23 59 34 97 35c12 -52 42 -75 95 -75c49 0 79 25 97 73z" />
    <glyph glyph-name="abreve" unicode="&#x103;" horiz-adv-x="555" 
d="M341 52h-8c-22 -44 -69 -72 -138 -72c-88 0 -164 44 -164 160c0 122 88 169 204 169c33 0 62 -4 91 -13v14c0 61 -30 83 -96 83c-58 0 -115 -16 -160 -42c-12 39 -7 101 16 134c36 20 98 33 172 33c144 0 213 -51 213 -199v-173c0 -31 14 -38 34 -38c17 0 33 5 43 12
c4 -40 -8 -89 -26 -117c-21 -14 -49 -23 -83 -23c-58 0 -88 25 -98 72zM329 132v68c-20 8 -42 12 -66 12c-58 0 -87 -24 -87 -62c0 -39 29 -53 69 -53c32 0 64 10 84 35zM188 756c5 -59 35 -83 78 -83s73 29 83 78c34 0 68 -10 87 -26c-12 -94 -76 -155 -179 -155
c-93 0 -151 54 -165 146c18 22 57 39 96 40z" />
    <glyph glyph-name="Aogonek" unicode="&#x104;" horiz-adv-x="692" 
d="M642 -146c16 -21 25 -65 25 -93c-22 -9 -46 -15 -77 -15c-72 0 -142 35 -142 119c0 70 41 113 105 126v8c-11 2 -25 7 -32 11l-50 154h-253l-50 -154c-17 -10 -44 -14 -78 -14c-38 0 -60 5 -76 14l242 698c21 6 54 10 90 10c37 0 70 -4 91 -10l240 -698
c-62 -32 -98 -76 -98 -118c0 -29 18 -41 44 -41c7 0 13 1 19 3zM255 287h177l-38 118c-20 62 -35 135 -46 205h-8c-11 -73 -29 -148 -48 -208z" />
    <glyph glyph-name="aogonek" unicode="&#x105;" horiz-adv-x="555" 
d="M341 52h-8c-21 -43 -66 -72 -139 -72c-87 0 -163 44 -163 160c0 122 88 169 204 169c33 0 62 -4 91 -13v14c0 61 -30 83 -96 83c-58 0 -115 -16 -160 -42c-12 39 -7 101 16 134c36 20 98 33 172 33c144 0 213 -51 213 -199v-173c0 -31 14 -38 34 -38c17 0 33 5 43 12
c4 -40 -8 -89 -26 -117c-51 -28 -78 -64 -78 -99c0 -29 17 -41 43 -41c7 0 13 1 19 3c15 -20 24 -64 24 -91c-21 -9 -45 -15 -76 -15c-71 0 -139 34 -139 117c0 59 27 87 75 104v7c-29 11 -43 34 -49 64zM329 132v68c-20 8 -42 12 -66 12c-58 0 -87 -24 -87 -62
c0 -39 29 -53 69 -53c32 0 64 10 84 35z" />
    <glyph glyph-name="Cacute" unicode="&#x106;" horiz-adv-x="644" 
d="M592 566c-48 23 -92 35 -149 35c-141 0 -238 -72 -238 -246s96 -243 231 -243c63 0 125 16 168 34c2 -37 -16 -101 -40 -133c-43 -21 -105 -36 -175 -36c-214 0 -340 138 -340 368c0 248 147 389 363 389c57 0 115 -10 152 -32c23 -33 33 -92 28 -136zM523 959
c30 -28 46 -72 47 -116l-249 -92c-20 23 -30 60 -32 94z" />
    <glyph glyph-name="cacute" unicode="&#x107;" horiz-adv-x="495" 
d="M187 252c0 -100 58 -143 148 -143c48 0 90 11 126 29c6 -40 -12 -102 -39 -130c-33 -16 -77 -28 -134 -28c-162 0 -250 99 -250 262c0 186 112 276 264 276c49 0 93 -9 122 -27c22 -28 33 -88 26 -129c-36 21 -69 31 -115 31c-90 0 -148 -40 -148 -141zM443 735
l-177 -171c-32 8 -60 31 -72 56l121 159c38 0 100 -15 128 -44z" />
    <glyph glyph-name="Ccircumflex" unicode="&#x108;" horiz-adv-x="644" 
d="M592 566c-48 23 -92 35 -149 35c-141 0 -238 -72 -238 -246s96 -243 231 -243c63 0 125 16 168 34c2 -37 -16 -101 -40 -133c-43 -21 -105 -36 -175 -36c-214 0 -340 138 -340 368c0 248 147 389 363 389c57 0 115 -10 152 -32c23 -33 33 -92 28 -136zM386 829l-153 -71
c-20 20 -33 52 -34 91l119 75c14 6 36 13 68 13c28 0 49 -5 60 -8l133 -87c-6 -39 -26 -71 -48 -87z" />
    <glyph glyph-name="ccircumflex" unicode="&#x109;" horiz-adv-x="495" 
d="M187 252c0 -100 58 -143 148 -143c48 0 90 11 126 29c6 -40 -12 -102 -39 -130c-33 -16 -77 -28 -134 -28c-162 0 -250 99 -250 262c0 186 112 276 264 276c49 0 93 -9 122 -27c22 -28 33 -88 26 -129c-36 21 -69 31 -115 31c-90 0 -148 -40 -148 -141zM112 637l114 126
c26 8 70 12 107 12l130 -153c-14 -30 -42 -52 -74 -61l-109 109l-119 -115c-28 21 -43 50 -49 82z" />
    <glyph glyph-name="Cdotaccent" unicode="&#x10a;" horiz-adv-x="644" 
d="M592 566c-48 23 -92 35 -149 35c-141 0 -238 -72 -238 -246s96 -243 231 -243c63 0 125 16 168 34c2 -37 -16 -101 -40 -133c-43 -21 -105 -36 -175 -36c-214 0 -340 138 -340 368c0 248 147 389 363 389c57 0 115 -10 152 -32c23 -33 33 -92 28 -136zM389 930
c47 0 79 -26 79 -76c0 -53 -31 -80 -79 -80c-53 0 -81 27 -81 80c0 47 32 76 81 76z" />
    <glyph glyph-name="cdotaccent" unicode="&#x10b;" horiz-adv-x="495" 
d="M187 252c0 -100 58 -143 148 -143c48 0 90 11 126 29c6 -40 -12 -102 -39 -130c-33 -16 -77 -28 -134 -28c-162 0 -250 99 -250 262c0 186 112 276 264 276c49 0 93 -9 122 -27c22 -28 33 -88 26 -129c-36 21 -69 31 -115 31c-90 0 -148 -40 -148 -141zM285 733
c45 0 77 -26 77 -74c0 -51 -31 -78 -77 -78c-51 0 -79 27 -79 78c0 45 32 74 79 74z" />
    <glyph glyph-name="Ccaron" unicode="&#x10c;" horiz-adv-x="644" 
d="M592 566c-48 23 -92 35 -149 35c-141 0 -238 -72 -238 -246s96 -243 231 -243c63 0 125 16 168 34c2 -37 -16 -101 -40 -133c-43 -21 -105 -36 -175 -36c-214 0 -340 138 -340 368c0 248 147 389 363 389c57 0 115 -10 152 -32c23 -33 33 -92 28 -136zM252 951l136 -73
l142 66c24 -13 46 -43 54 -81l-137 -85c-11 -3 -32 -7 -60 -7c-27 0 -49 4 -59 7l-135 92c9 37 35 68 59 81z" />
    <glyph glyph-name="ccaron" unicode="&#x10d;" horiz-adv-x="495" 
d="M187 252c0 -100 58 -143 148 -143c48 0 90 11 126 29c6 -40 -12 -102 -39 -130c-33 -16 -77 -28 -134 -28c-162 0 -250 99 -250 262c0 186 112 276 264 276c49 0 93 -9 122 -27c22 -28 33 -88 26 -129c-36 21 -69 31 -115 31c-90 0 -148 -40 -148 -141zM230 568l-130 158
c18 25 57 45 87 48l98 -101l107 106c30 -7 57 -31 70 -57l-125 -142c-27 -9 -70 -12 -107 -12z" />
    <glyph glyph-name="Dcaron" unicode="&#x10e;" horiz-adv-x="732" 
d="M86 2v698c71 14 139 19 214 19c234 0 393 -113 393 -360c0 -251 -167 -367 -373 -367c-75 0 -158 2 -234 10zM237 584v-456c28 -3 59 -4 87 -4c133 0 213 74 213 228c0 166 -92 238 -232 238c-23 0 -46 -1 -68 -6zM235 951l136 -73l142 66c24 -13 46 -43 54 -81l-137 -85
c-11 -3 -32 -7 -60 -7c-27 0 -49 4 -59 7l-135 92c9 37 35 68 59 81z" />
    <glyph glyph-name="dcaron" unicode="&#x10f;" horiz-adv-x="603" 
d="M379 500v217c34 19 81 29 145 29v-733c-27 -15 -67 -23 -108 -23l-19 69h-8c-26 -52 -84 -79 -151 -79c-135 0 -199 101 -199 250c0 183 96 288 247 288c36 0 69 -6 93 -18zM381 148v231c-17 9 -40 13 -63 13c-90 0 -130 -61 -130 -152c0 -88 36 -129 102 -129
c44 0 71 20 91 37zM594 728c31 18 69 27 120 27c-5 -88 -33 -186 -63 -241c-36 4 -72 21 -89 42c16 49 29 113 32 172z" />
    <glyph glyph-name="Dcroat" unicode="&#x110;" horiz-adv-x="736" 
d="M15 416h75v284c71 14 139 19 214 19c234 0 393 -113 393 -360c0 -251 -167 -367 -373 -367c-75 0 -158 2 -234 10v299h-75c-7 14 -9 36 -9 57c0 22 2 44 9 58zM241 584v-168h168c7 -14 9 -36 9 -58c0 -21 -2 -43 -9 -57h-168v-173c28 -3 59 -4 87 -4
c133 0 213 74 213 228c0 166 -92 238 -232 238c-23 0 -46 -1 -68 -6z" />
    <glyph glyph-name="dcroat" unicode="&#x111;" horiz-adv-x="599" 
d="M231 650h149v67c34 19 81 29 145 29v-96h72c5 -8 9 -29 9 -51s-4 -44 -9 -52h-72v-534c-27 -15 -67 -23 -108 -23l-19 69h-8c-26 -52 -84 -79 -151 -79c-135 0 -199 98 -199 242c0 177 96 279 247 279c36 0 69 -6 93 -18v64h-166c0 37 6 76 17 103zM382 148v214
c-17 9 -40 13 -63 13c-90 0 -130 -57 -130 -143c0 -82 36 -121 102 -121c44 0 71 20 91 37z" />
    <glyph glyph-name="Emacron" unicode="&#x112;" horiz-adv-x="620" 
d="M86 711h471c6 -12 10 -37 10 -64s-4 -52 -10 -64h-322v-161h297c6 -13 10 -36 10 -63c0 -26 -4 -50 -10 -63h-297v-167h330c6 -12 10 -37 10 -64s-4 -53 -10 -65h-479v711zM165 903h331c7 -13 9 -35 9 -55s-2 -42 -9 -55h-331c-7 13 -9 35 -9 55s2 42 9 55z" />
    <glyph glyph-name="emacron" unicode="&#x113;" horiz-adv-x="549" 
d="M493 202h-304c6 -70 56 -104 155 -104c64 0 120 14 156 30c3 -38 -13 -87 -36 -113c-33 -19 -89 -35 -158 -35c-175 0 -268 101 -268 263c0 167 100 275 257 275c146 0 213 -90 213 -222c0 -32 -6 -68 -15 -94zM185 307h187c8 52 -11 103 -83 103
c-62 0 -100 -40 -104 -103zM135 697h304c7 -10 10 -30 10 -51c0 -20 -3 -42 -10 -51h-321c0 32 5 74 17 102z" />
    <glyph glyph-name="Ebreve" unicode="&#x114;" horiz-adv-x="620" 
d="M86 711h471c6 -12 10 -37 10 -64s-4 -52 -10 -64h-322v-161h297c6 -13 10 -36 10 -63c0 -26 -4 -50 -10 -63h-297v-167h330c6 -12 10 -37 10 -64s-4 -53 -10 -65h-479v711zM431 944c34 0 66 -7 90 -27c-16 -88 -84 -149 -198 -149c-105 0 -168 53 -181 143
c25 23 59 34 97 35c12 -52 42 -75 95 -75c49 0 79 25 97 73z" />
    <glyph glyph-name="ebreve" unicode="&#x115;" horiz-adv-x="549" 
d="M493 202h-304c6 -70 56 -104 155 -104c64 0 120 14 156 30c3 -38 -13 -87 -36 -113c-33 -19 -89 -35 -158 -35c-175 0 -268 101 -268 263c0 167 100 275 257 275c146 0 213 -90 213 -222c0 -32 -6 -68 -15 -94zM185 307h187c8 52 -11 103 -83 103
c-62 0 -100 -40 -104 -103zM211 756c5 -59 35 -83 78 -83s73 29 83 78c34 0 68 -10 87 -26c-12 -94 -76 -155 -179 -155c-93 0 -151 54 -165 146c18 22 57 39 96 40z" />
    <glyph glyph-name="Edotaccent" unicode="&#x116;" horiz-adv-x="620" 
d="M86 711h471c6 -12 10 -37 10 -64s-4 -52 -10 -64h-322v-161h297c6 -13 10 -36 10 -63c0 -26 -4 -50 -10 -63h-297v-167h330c6 -12 10 -37 10 -64s-4 -53 -10 -65h-479v711zM334 930c47 0 79 -26 79 -76c0 -53 -31 -80 -79 -80c-53 0 -81 27 -81 80c0 47 32 76 81 76z" />
    <glyph glyph-name="edotaccent" unicode="&#x117;" horiz-adv-x="549" 
d="M493 202h-304c6 -70 56 -104 155 -104c64 0 120 14 156 30c3 -38 -13 -87 -36 -113c-33 -19 -89 -35 -158 -35c-175 0 -268 101 -268 263c0 167 100 275 257 275c146 0 213 -90 213 -222c0 -32 -6 -68 -15 -94zM185 307h187c8 52 -11 103 -83 103
c-62 0 -100 -40 -104 -103zM286 733c45 0 77 -26 77 -74c0 -51 -31 -78 -77 -78c-51 0 -79 27 -79 78c0 45 32 74 79 74z" />
    <glyph glyph-name="Eogonek" unicode="&#x118;" horiz-adv-x="620" 
d="M86 711h471c6 -12 10 -37 10 -64s-4 -52 -10 -64h-322v-161h297c6 -13 10 -36 10 -63c0 -26 -4 -50 -10 -63h-297v-167h330c6 -12 10 -37 10 -64s-4 -53 -10 -65c-51 -31 -80 -70 -80 -108c0 -29 18 -41 44 -41c7 0 13 1 19 3c16 -21 25 -65 25 -93
c-22 -9 -46 -15 -77 -15c-72 0 -142 35 -142 119c0 72 44 115 108 128v7h-376v711z" />
    <glyph glyph-name="eogonek" unicode="&#x119;" horiz-adv-x="549" 
d="M438 -134c15 -20 24 -64 24 -91c-21 -9 -45 -15 -76 -15c-71 0 -139 34 -139 117c0 53 23 80 54 96v7c-168 1 -263 101 -263 263c0 167 100 275 257 275c146 0 213 -90 213 -222c0 -32 -6 -68 -15 -94h-304c6 -70 56 -104 155 -104c64 0 120 14 156 30
c3 -38 -13 -87 -36 -113l-6 -4c-54 -31 -82 -70 -82 -107c0 -29 17 -41 43 -41c7 0 13 1 19 3zM185 307h187c8 52 -11 103 -83 103c-62 0 -100 -40 -104 -103z" />
    <glyph glyph-name="Ecaron" unicode="&#x11a;" horiz-adv-x="620" 
d="M86 711h471c6 -12 10 -37 10 -64s-4 -52 -10 -64h-322v-161h297c6 -13 10 -36 10 -63c0 -26 -4 -50 -10 -63h-297v-167h330c6 -12 10 -37 10 -64s-4 -53 -10 -65h-479v711zM196 951l136 -73l142 66c24 -13 46 -43 54 -81l-137 -85c-11 -3 -32 -7 -60 -7
c-27 0 -49 4 -59 7l-135 92c9 37 35 68 59 81z" />
    <glyph glyph-name="ecaron" unicode="&#x11b;" horiz-adv-x="549" 
d="M493 202h-304c6 -70 56 -104 155 -104c64 0 120 14 156 30c3 -38 -13 -87 -36 -113c-33 -19 -89 -35 -158 -35c-175 0 -268 101 -268 263c0 167 100 275 257 275c146 0 213 -90 213 -222c0 -32 -6 -68 -15 -94zM185 307h187c8 52 -11 103 -83 103
c-62 0 -100 -40 -104 -103zM231 568l-130 158c18 25 57 45 87 48l98 -101l107 106c30 -7 57 -31 70 -57l-125 -142c-27 -9 -70 -12 -107 -12z" />
    <glyph glyph-name="Gcircumflex" unicode="&#x11c;" horiz-adv-x="728" 
d="M670 31c-64 -30 -165 -54 -261 -54c-227 0 -360 134 -360 364c0 249 152 393 393 393c66 0 126 -11 170 -33c22 -35 32 -92 28 -136c-53 24 -112 37 -178 37c-156 0 -257 -71 -257 -252c0 -171 89 -242 220 -242c42 0 80 7 107 17v159h-139c-6 12 -10 37 -10 63
s4 51 10 63h277v-379zM412 829l-153 -71c-20 20 -33 52 -34 91l119 75c14 6 36 13 68 13c28 0 49 -5 60 -8l133 -87c-6 -39 -26 -71 -48 -87z" />
    <glyph glyph-name="gcircumflex" unicode="&#x11d;" horiz-adv-x="552" 
d="M111 177v7c-47 30 -65 86 -65 147c0 124 91 187 217 187c45 0 82 -8 111 -20h144c13 -30 18 -70 18 -106h-72v-5c9 -9 15 -33 15 -62c0 -115 -81 -181 -213 -181c-23 0 -46 4 -56 8c-11 -7 -17 -21 -17 -33c0 -28 34 -34 100 -34c143 0 245 -28 245 -160
c0 -135 -104 -189 -272 -189c-152 0 -249 43 -249 160c0 60 32 103 77 114v7c-28 14 -41 41 -41 75c0 45 25 76 58 85zM272 -31c-38 0 -63 2 -86 9c-22 -13 -34 -35 -34 -60c0 -55 55 -70 126 -70c80 0 125 21 125 69c0 37 -27 52 -131 52zM179 331c0 -51 28 -81 84 -81
c55 0 83 31 83 81c0 51 -29 81 -83 81c-56 0 -84 -31 -84 -81zM97 637l114 126c26 8 70 12 107 12l130 -153c-14 -30 -42 -52 -74 -61l-109 109l-119 -115c-28 21 -43 50 -49 82z" />
    <glyph glyph-name="Gbreve" unicode="&#x11e;" horiz-adv-x="728" 
d="M670 31c-64 -30 -165 -54 -261 -54c-227 0 -360 134 -360 364c0 249 152 393 393 393c66 0 126 -11 170 -33c22 -35 32 -92 28 -136c-53 24 -112 37 -178 37c-156 0 -257 -71 -257 -252c0 -171 89 -242 220 -242c42 0 80 7 107 17v159h-139c-6 12 -10 37 -10 63
s4 51 10 63h277v-379zM519 944c34 0 66 -7 90 -27c-16 -88 -84 -149 -198 -149c-105 0 -168 53 -181 143c25 23 59 34 97 35c12 -52 42 -75 95 -75c49 0 79 25 97 73z" />
    <glyph glyph-name="gbreve" unicode="&#x11f;" horiz-adv-x="552" 
d="M111 177v7c-47 30 -65 86 -65 147c0 124 91 187 217 187c45 0 82 -8 111 -20h144c13 -30 18 -70 18 -106h-72v-5c9 -9 15 -33 15 -62c0 -115 -81 -181 -213 -181c-23 0 -46 4 -56 8c-11 -7 -17 -21 -17 -33c0 -28 34 -34 100 -34c143 0 245 -28 245 -160
c0 -135 -104 -189 -272 -189c-152 0 -249 43 -249 160c0 60 32 103 77 114v7c-28 14 -41 41 -41 75c0 45 25 76 58 85zM272 -31c-38 0 -63 2 -86 9c-22 -13 -34 -35 -34 -60c0 -55 55 -70 126 -70c80 0 125 21 125 69c0 37 -27 52 -131 52zM179 331c0 -51 28 -81 84 -81
c55 0 83 31 83 81c0 51 -29 81 -83 81c-56 0 -84 -31 -84 -81zM194 756c5 -59 35 -83 78 -83s73 29 83 78c34 0 68 -10 87 -26c-12 -94 -76 -155 -179 -155c-93 0 -151 54 -165 146c18 22 57 39 96 40z" />
    <glyph glyph-name="Gdotaccent" unicode="&#x120;" horiz-adv-x="728" 
d="M670 31c-64 -30 -165 -54 -261 -54c-227 0 -360 134 -360 364c0 249 152 393 393 393c66 0 126 -11 170 -33c22 -35 32 -92 28 -136c-53 24 -112 37 -178 37c-156 0 -257 -71 -257 -252c0 -171 89 -242 220 -242c42 0 80 7 107 17v159h-139c-6 12 -10 37 -10 63
s4 51 10 63h277v-379zM413 930c47 0 79 -26 79 -76c0 -53 -31 -80 -79 -80c-53 0 -81 27 -81 80c0 47 32 76 81 76z" />
    <glyph glyph-name="gdotaccent" unicode="&#x121;" horiz-adv-x="552" 
d="M111 177v7c-47 30 -65 86 -65 147c0 124 91 187 217 187c45 0 82 -8 111 -20h144c13 -30 18 -70 18 -106h-72v-5c9 -9 15 -33 15 -62c0 -115 -81 -181 -213 -181c-23 0 -46 4 -56 8c-11 -7 -17 -21 -17 -33c0 -28 34 -34 100 -34c143 0 245 -28 245 -160
c0 -135 -104 -189 -272 -189c-152 0 -249 43 -249 160c0 60 32 103 77 114v7c-28 14 -41 41 -41 75c0 45 25 76 58 85zM272 -31c-38 0 -63 2 -86 9c-22 -13 -34 -35 -34 -60c0 -55 55 -70 126 -70c80 0 125 21 125 69c0 37 -27 52 -131 52zM179 331c0 -51 28 -81 84 -81
c55 0 83 31 83 81c0 51 -29 81 -83 81c-56 0 -84 -31 -84 -81zM269 733c45 0 77 -26 77 -74c0 -51 -31 -78 -77 -78c-51 0 -79 27 -79 78c0 45 32 74 79 74z" />
    <glyph glyph-name="uni0122" unicode="&#x122;" horiz-adv-x="728" 
d="M670 31c-64 -30 -165 -54 -261 -54c-227 0 -360 134 -360 364c0 249 152 393 393 393c66 0 126 -11 170 -33c22 -35 32 -92 28 -136c-53 24 -112 37 -178 37c-156 0 -257 -71 -257 -252c0 -171 89 -242 220 -242c42 0 80 7 107 17v159h-139c-6 12 -10 37 -10 63
s4 51 10 63h277v-379zM345 -78c34 18 75 26 133 26c-6 -88 -34 -189 -62 -244c-41 5 -81 23 -100 46c14 48 26 111 29 172z" />
    <glyph glyph-name="uni0123" unicode="&#x123;" horiz-adv-x="552" 
d="M111 177v7c-47 30 -65 86 -65 147c0 124 91 187 217 187c45 0 82 -8 111 -20h144c13 -30 18 -70 18 -106h-72v-5c9 -9 15 -33 15 -62c0 -115 -81 -181 -213 -181c-23 0 -46 4 -56 8c-11 -7 -17 -21 -17 -33c0 -28 34 -34 100 -34c143 0 245 -28 245 -160
c0 -135 -104 -189 -272 -189c-152 0 -249 43 -249 160c0 60 32 103 77 114v7c-28 14 -41 41 -41 75c0 45 25 76 58 85zM272 -31c-38 0 -63 2 -86 9c-22 -13 -34 -35 -34 -60c0 -55 55 -70 126 -70c80 0 125 21 125 69c0 37 -27 52 -131 52zM179 331c0 -51 28 -81 84 -81
c55 0 83 31 83 81c0 51 -29 81 -83 81c-56 0 -84 -31 -84 -81zM205 584c4 64 24 132 47 178c27 17 66 26 117 26c-22 -60 -36 -137 -39 -198c-16 -8 -39 -14 -72 -14c-25 0 -44 3 -53 8z" />
    <glyph glyph-name="Hcircumflex" unicode="&#x124;" horiz-adv-x="773" 
d="M537 9v288h-301v-288c-15 -8 -40 -13 -75 -13s-60 5 -75 13v693c15 8 40 13 75 13s60 -5 75 -13v-274h301v274c15 8 40 13 75 13s60 -5 75 -13v-693c-15 -8 -40 -13 -75 -13s-60 5 -75 13zM385 829l-153 -71c-20 20 -33 52 -34 91l119 75c14 6 36 13 68 13
c28 0 49 -5 60 -8l133 -87c-6 -39 -26 -71 -48 -87z" />
    <glyph glyph-name="hcircumflex" unicode="&#x125;" horiz-adv-x="607" 
d="M216 328v-320c-13 -7 -37 -12 -72 -12s-59 5 -73 12v709c34 19 81 29 145 29v-152c0 -57 -5 -118 -13 -164h8c22 50 70 88 162 88c78 0 169 -27 169 -192v-318c-13 -7 -37 -12 -72 -12s-59 5 -73 12v292c0 53 -19 87 -79 87c-54 0 -83 -27 -102 -59zM144 823l-152 -71
c-19 28 -26 59 -26 92l112 70c27 9 68 13 112 13l140 -92c-6 -37 -25 -68 -46 -84z" />
    <glyph glyph-name="Hbar" unicode="&#x126;" horiz-adv-x="781" 
d="M21 597h69v105c15 8 40 13 75 13s60 -5 75 -13v-109h301v109c15 8 40 13 75 13s60 -5 75 -13v-105h69c7 -14 9 -36 9 -58c0 -21 -2 -43 -9 -57h-69v-473c-15 -8 -40 -13 -75 -13s-60 5 -75 13v256h-301v-256c-15 -8 -40 -13 -75 -13s-60 5 -75 13v473h-69
c-7 14 -9 36 -9 57c0 22 2 44 9 58zM541 395v91h-301v-91h301z" />
    <glyph glyph-name="hbar" unicode="&#x127;" horiz-adv-x="609" 
d="M218 309v-301c-13 -7 -37 -12 -72 -12s-59 5 -73 12v539h-75c0 37 6 76 17 103h58v67c34 19 81 29 145 29v-96h165c5 -8 9 -29 9 -51s-4 -44 -9 -52h-165c-1 -48 -7 -98 -13 -136h8c22 50 70 88 162 88c78 0 169 -27 169 -192v-299c-13 -7 -37 -12 -72 -12s-59 5 -73 12
v273c0 53 -19 87 -79 87c-54 0 -83 -27 -102 -59z" />
    <glyph glyph-name="Itilde" unicode="&#x128;" horiz-adv-x="323" 
d="M86 9v693c15 8 41 13 76 13c36 0 61 -5 75 -13v-693c-14 -8 -39 -13 -75 -13c-35 0 -61 5 -76 13zM-54 804c8 67 54 126 143 126c74 0 96 -47 152 -47c27 0 44 15 50 40c33 -1 62 -8 86 -25c-6 -65 -49 -130 -148 -130c-71 0 -91 49 -152 49c-24 0 -40 -16 -48 -42
c-32 2 -60 10 -83 29z" />
    <glyph glyph-name="itilde" unicode="&#x129;" horiz-adv-x="287" 
d="M71 8v482c14 7 38 12 73 12s59 -5 72 -12v-482c-13 -7 -37 -12 -72 -12s-59 5 -73 12zM329 697c-1 -63 -40 -123 -117 -123c-68 0 -87 41 -135 41c-23 0 -34 -17 -39 -36c-30 1 -65 22 -80 46c10 58 54 100 115 100c69 0 92 -41 136 -41c20 0 33 12 37 35
c31 -1 60 -8 83 -22z" />
    <glyph glyph-name="Imacron" unicode="&#x12a;" horiz-adv-x="323" 
d="M86 9v693c15 8 41 13 76 13c36 0 61 -5 75 -13v-693c-14 -8 -39 -13 -75 -13c-35 0 -61 5 -76 13zM22 903h277c7 -13 9 -35 9 -55s-2 -42 -9 -55h-277c-7 13 -9 35 -9 55s2 42 9 55z" />
    <glyph glyph-name="imacron" unicode="&#x12b;" horiz-adv-x="287" 
d="M71 8v482c14 7 38 12 73 12s59 -5 72 -12v-482c-13 -7 -37 -12 -72 -12s-59 5 -73 12zM24 697h244c7 -10 10 -30 10 -51c0 -20 -3 -42 -10 -51h-261c0 32 5 74 17 102z" />
    <glyph glyph-name="Ibreve" unicode="&#x12c;" horiz-adv-x="323" 
d="M86 9v693c15 8 41 13 76 13c36 0 61 -5 75 -13v-693c-14 -8 -39 -13 -75 -13c-35 0 -61 5 -76 13zM264 944c34 0 66 -7 90 -27c-16 -88 -84 -149 -198 -149c-105 0 -168 53 -181 143c25 23 59 34 97 35c12 -52 42 -75 95 -75c49 0 79 25 97 73z" />
    <glyph glyph-name="ibreve" unicode="&#x12d;" horiz-adv-x="287" 
d="M69 756c5 -59 35 -83 78 -83s73 29 83 78c34 0 68 -10 87 -26c-12 -94 -76 -155 -179 -155c-93 0 -151 54 -165 146c18 22 57 39 96 40zM71 8v482c14 7 38 12 73 12s59 -5 72 -12v-482c-13 -7 -37 -12 -72 -12s-59 5 -73 12z" />
    <glyph glyph-name="Iogonek" unicode="&#x12e;" horiz-adv-x="323" 
d="M86 9v693c15 8 41 13 76 13c36 0 61 -5 75 -13v-693c-61 -32 -96 -75 -96 -117c0 -29 18 -41 44 -41c7 0 13 1 19 3c16 -21 25 -65 25 -93c-22 -9 -46 -15 -77 -15c-72 0 -142 35 -142 119c0 70 42 114 106 127v7c-10 2 -24 6 -30 10z" />
    <glyph glyph-name="iogonek" unicode="&#x12f;" horiz-adv-x="287" 
d="M202 -134c15 -20 24 -64 24 -91c-21 -9 -45 -15 -76 -15c-71 0 -139 34 -139 117c0 69 38 106 90 115v7c-14 2 -23 5 -30 9v482c14 7 38 12 73 12s59 -5 72 -12v-482c-50 -30 -76 -69 -76 -104c0 -29 17 -41 43 -41c7 0 13 1 19 3zM144 757c52 0 87 -31 87 -86
c0 -59 -35 -91 -87 -91c-57 0 -88 31 -88 90c0 54 37 87 88 87z" />
    <glyph glyph-name="Idotaccent" unicode="&#x130;" horiz-adv-x="323" 
d="M86 9v693c15 8 41 13 76 13c36 0 61 -5 75 -13v-693c-14 -8 -39 -13 -75 -13c-35 0 -61 5 -76 13zM162 930c47 0 79 -26 79 -76c0 -53 -31 -80 -79 -80c-53 0 -81 27 -81 80c0 47 32 76 81 76z" />
    <glyph glyph-name="dotlessi" unicode="&#x131;" horiz-adv-x="287" 
d="M71 8v482c14 7 38 12 73 12s59 -5 72 -12v-482c-13 -7 -37 -12 -72 -12s-59 5 -73 12z" />
    <glyph glyph-name="IJ" unicode="&#x132;" horiz-adv-x="679" 
d="M86 9v693c15 8 41 13 76 13c36 0 61 -5 75 -13v-693c-14 -8 -39 -13 -75 -13c-35 0 -61 5 -76 13zM596 702v-530c0 -191 -70 -303 -215 -379c-40 20 -68 65 -75 116c101 58 139 128 139 246v547c15 8 41 13 76 13c36 0 61 -5 75 -13z" />
    <glyph glyph-name="ij" unicode="&#x133;" horiz-adv-x="580" 
d="M71 8v482c14 7 38 12 73 12s59 -5 72 -12v-482c-13 -7 -37 -12 -72 -12s-59 5 -73 12zM144 757c52 0 87 -31 87 -86c0 -59 -35 -91 -87 -91c-57 0 -88 31 -88 90c0 54 37 87 88 87zM512 490v-331c0 -214 -52 -313 -160 -406c-41 11 -73 42 -89 86c66 60 104 130 104 276
v375c14 7 38 12 73 12s59 -5 72 -12zM438 757c52 0 87 -31 87 -86c0 -59 -35 -91 -87 -91c-57 0 -88 31 -88 90c0 54 37 87 88 87z" />
    <glyph glyph-name="Jcircumflex" unicode="&#x134;" horiz-adv-x="356" 
d="M273 702v-530c0 -191 -70 -303 -215 -379c-40 20 -68 65 -75 116c101 58 139 128 139 246v547c15 8 41 13 76 13c36 0 61 -5 75 -13zM192 829l-153 -71c-20 20 -33 52 -34 91l119 75c14 6 36 13 68 13c28 0 49 -5 60 -8l133 -87c-6 -39 -26 -71 -48 -87z" />
    <glyph glyph-name="jcircumflex" unicode="&#x135;" horiz-adv-x="293" 
d="M-20 637l114 126c26 8 70 12 107 12l130 -153c-14 -30 -42 -52 -74 -61l-109 109l-119 -115c-28 21 -43 50 -49 82zM225 490v-331c0 -214 -52 -313 -160 -406c-41 11 -73 42 -89 86c66 60 104 130 104 276v375c14 7 38 12 73 12s59 -5 72 -12z" />
    <glyph glyph-name="uni0136" unicode="&#x136;" horiz-adv-x="689" 
d="M236 702v-275h68l185 274c19 9 48 14 88 14s64 -5 77 -14l-227 -337l249 -354c-13 -9 -43 -14 -86 -14c-42 0 -74 5 -95 14l-199 287h-60v-288c-15 -8 -40 -13 -75 -13s-60 5 -75 13v693c15 8 40 13 75 13s60 -5 75 -13zM310 -78c34 18 75 26 133 26
c-6 -88 -34 -189 -62 -244c-41 5 -81 23 -100 46c14 48 26 111 29 172z" />
    <glyph glyph-name="uni0137" unicode="&#x137;" 
d="M216 329h50l118 167c11 4 35 8 58 8c41 0 78 -8 94 -19l-152 -211c51 -89 107 -178 177 -266c-14 -9 -45 -13 -79 -13c-38 0 -76 5 -93 13c-49 64 -88 126 -129 202h-44v-202c-13 -7 -37 -12 -72 -12s-59 5 -73 12v709c34 19 81 29 145 29v-417zM249 -75
c33 18 72 26 126 26c-5 -80 -32 -171 -59 -220c-39 4 -78 22 -95 43c14 43 25 98 28 151z" />
    <glyph glyph-name="kgreenlandic" unicode="&#x138;" 
d="M71 8v482c14 7 38 12 73 12s59 -5 72 -12v-178h52l124 184c12 4 35 8 57 8c38 0 76 -8 93 -19l-158 -228c52 -82 108 -167 176 -249c-14 -9 -45 -13 -79 -13c-38 0 -76 5 -93 13c-49 58 -87 117 -129 186h-43v-186c-13 -7 -37 -12 -72 -12s-59 5 -73 12z" />
    <glyph glyph-name="Lacute" unicode="&#x139;" horiz-adv-x="583" 
d="M545 0h-459v702c15 8 41 13 76 13c36 0 61 -5 75 -13v-568h308c6 -13 11 -39 11 -66c0 -28 -5 -55 -11 -68zM310 959c30 -28 46 -72 47 -116l-249 -92c-20 23 -30 60 -32 94z" />
    <glyph glyph-name="lacute" unicode="&#x13a;" horiz-adv-x="326" 
d="M288 3c-23 -14 -53 -23 -90 -23c-100 0 -130 65 -130 154v583c34 19 81 29 145 29v-588c0 -38 13 -48 42 -48c23 0 43 6 61 18c4 -42 -9 -96 -28 -125zM281 955c29 -27 44 -69 45 -112l-246 -91c-16 23 -23 58 -23 94z" />
    <glyph glyph-name="uni013B" unicode="&#x13b;" horiz-adv-x="583" 
d="M545 0h-459v702c15 8 41 13 76 13c36 0 61 -5 75 -13v-568h308c6 -13 11 -39 11 -66c0 -28 -5 -55 -11 -68zM270 -78c34 18 75 26 133 26c-6 -88 -34 -189 -62 -244c-41 5 -81 23 -100 46c14 48 26 111 29 172z" />
    <glyph glyph-name="uni013C" unicode="&#x13c;" horiz-adv-x="326" 
d="M288 3c-23 -14 -53 -23 -90 -23c-100 0 -130 65 -130 154v583c34 19 81 29 145 29v-588c0 -38 13 -48 42 -48c23 0 43 6 61 18c4 -42 -9 -96 -28 -125zM126 -75c33 18 72 26 126 26c-5 -80 -32 -171 -59 -220c-39 4 -78 22 -95 43c14 43 25 98 28 151z" />
    <glyph glyph-name="Lcaron" unicode="&#x13d;" horiz-adv-x="587" 
d="M545 0h-459v702c15 8 41 13 76 13c36 0 61 -5 75 -13v-568h308c6 -13 11 -39 11 -66c0 -28 -5 -55 -11 -68zM399 691c34 18 75 26 133 26c-6 -88 -34 -189 -62 -244c-41 5 -81 23 -100 46c14 48 26 111 29 172z" />
    <glyph glyph-name="lcaron" unicode="&#x13e;" horiz-adv-x="330" 
d="M288 3c-23 -14 -53 -23 -90 -23c-100 0 -130 65 -130 154v583c34 19 81 29 145 29v-588c0 -38 13 -48 42 -48c23 0 43 6 61 18c4 -42 -9 -96 -28 -125zM283 728c31 18 69 27 120 27c-5 -88 -33 -186 -63 -241c-36 4 -72 21 -89 42c16 49 29 113 32 172z" />
    <glyph glyph-name="Ldot" unicode="&#x13f;" horiz-adv-x="590" 
d="M545 0h-459v702c15 8 41 13 76 13c36 0 61 -5 75 -13v-568h308c6 -13 11 -39 11 -66c0 -28 -5 -55 -11 -68zM457 473c47 0 79 -26 79 -76c0 -53 -31 -80 -79 -80c-53 0 -81 27 -81 80c0 47 32 76 81 76z" />
    <glyph glyph-name="ldot" unicode="&#x140;" horiz-adv-x="426" 
d="M288 3c-23 -14 -53 -23 -90 -23c-100 0 -130 65 -130 154v583c34 19 81 29 145 29v-588c0 -38 13 -48 42 -48c23 0 43 6 61 18c4 -42 -9 -96 -28 -125zM354 381c45 0 77 -26 77 -74c0 -51 -31 -78 -77 -78c-51 0 -79 27 -79 78c0 45 32 74 79 74z" />
    <glyph glyph-name="Lslash" unicode="&#x141;" horiz-adv-x="586" 
d="M548 0h-459v256l-58 -30c-22 27 -39 72 -41 109l99 51v316c15 8 41 13 76 13c36 0 61 -5 75 -13v-260l132 69c23 -24 45 -70 49 -105l-181 -93v-179h308c6 -13 11 -39 11 -66c0 -28 -5 -55 -11 -68z" />
    <glyph glyph-name="lslash" unicode="&#x142;" horiz-adv-x="330" 
d="M290 3c-23 -14 -53 -23 -90 -23c-100 0 -130 65 -130 154v130l-52 -27c-16 25 -27 75 -27 116l79 42v322c34 19 81 29 145 29v-298l57 31c25 -25 47 -68 52 -105l-109 -56v-160c0 -38 13 -48 42 -48c23 0 43 6 61 18c4 -42 -9 -96 -28 -125z" />
    <glyph glyph-name="Nacute" unicode="&#x143;" horiz-adv-x="775" 
d="M229 557v-549c-14 -8 -37 -12 -72 -12c-33 0 -56 4 -71 12v698c24 6 56 10 99 10c44 0 75 -4 98 -10l193 -351c25 -46 51 -124 63 -183h8v531c14 8 36 12 71 12c33 0 56 -4 71 -12v-698c-20 -6 -50 -10 -93 -10c-44 0 -74 4 -93 10l-204 370c-23 41 -48 113 -62 182h-8z
M518 959c30 -28 46 -72 47 -116l-249 -92c-20 23 -30 60 -32 94z" />
    <glyph glyph-name="nacute" unicode="&#x144;" horiz-adv-x="602" 
d="M216 328v-320c-13 -7 -37 -12 -72 -12s-59 5 -73 12v477c27 15 70 23 118 23l8 -82h8c24 52 75 92 166 92c76 0 166 -27 166 -192v-318c-13 -7 -37 -12 -72 -12s-59 5 -73 12v292c0 52 -18 85 -77 85c-52 0 -81 -26 -99 -57zM468 735l-177 -171c-32 8 -60 31 -72 56
l121 159c38 0 100 -15 128 -44z" />
    <glyph glyph-name="uni0145" unicode="&#x145;" horiz-adv-x="775" 
d="M229 557v-549c-14 -8 -37 -12 -72 -12c-33 0 -56 4 -71 12v698c24 6 56 10 99 10c44 0 75 -4 98 -10l193 -351c25 -46 51 -124 63 -183h8v531c14 8 36 12 71 12c33 0 56 -4 71 -12v-698c-20 -6 -50 -10 -93 -10c-44 0 -74 4 -93 10l-204 370c-23 41 -48 113 -62 182h-8z
M327 -78c34 18 75 26 133 26c-6 -88 -34 -189 -62 -244c-41 5 -81 23 -100 46c14 48 26 111 29 172z" />
    <glyph glyph-name="uni0146" unicode="&#x146;" horiz-adv-x="602" 
d="M216 328v-320c-13 -7 -37 -12 -72 -12s-59 5 -73 12v477c27 15 70 23 118 23l8 -82h8c24 52 75 92 166 92c76 0 166 -27 166 -192v-318c-13 -7 -37 -12 -72 -12s-59 5 -73 12v292c0 52 -18 85 -77 85c-52 0 -81 -26 -99 -57zM246 -75c33 18 72 26 126 26
c-5 -80 -32 -171 -59 -220c-39 4 -78 22 -95 43c14 43 25 98 28 151z" />
    <glyph glyph-name="Ncaron" unicode="&#x147;" horiz-adv-x="775" 
d="M229 557v-549c-14 -8 -37 -12 -72 -12c-33 0 -56 4 -71 12v698c24 6 56 10 99 10c44 0 75 -4 98 -10l193 -351c25 -46 51 -124 63 -183h8v531c14 8 36 12 71 12c33 0 56 -4 71 -12v-698c-20 -6 -50 -10 -93 -10c-44 0 -74 4 -93 10l-204 370c-23 41 -48 113 -62 182h-8z
M251 951l136 -73l142 66c24 -13 46 -43 54 -81l-137 -85c-11 -3 -32 -7 -60 -7c-27 0 -49 4 -59 7l-135 92c9 37 35 68 59 81z" />
    <glyph glyph-name="ncaron" unicode="&#x148;" horiz-adv-x="602" 
d="M216 328v-320c-13 -7 -37 -12 -72 -12s-59 5 -73 12v477c27 15 70 23 118 23l8 -82h8c24 52 75 92 166 92c76 0 166 -27 166 -192v-318c-13 -7 -37 -12 -72 -12s-59 5 -73 12v292c0 52 -18 85 -77 85c-52 0 -81 -26 -99 -57zM251 568l-130 158c18 25 57 45 87 48l98 -101
l107 106c30 -7 57 -31 70 -57l-125 -142c-27 -9 -70 -12 -107 -12z" />
    <glyph glyph-name="napostrophe" unicode="&#x149;" horiz-adv-x="642" 
d="M-8 713c33 18 72 27 126 27c-5 -88 -33 -187 -63 -242c-38 4 -77 22 -95 43c16 49 29 113 32 172zM256 328v-320c-13 -7 -37 -12 -72 -12s-59 5 -73 12v477c27 15 70 23 118 23l8 -82h8c24 52 75 92 166 92c76 0 166 -27 166 -192v-318c-13 -7 -37 -12 -72 -12
s-59 5 -73 12v292c0 52 -18 85 -77 85c-52 0 -81 -26 -99 -57z" />
    <glyph glyph-name="Eng" unicode="&#x14a;" horiz-adv-x="775" 
d="M229 556v-548c-14 -8 -37 -12 -72 -12c-33 0 -56 4 -71 12v698c23 6 55 10 96 10c43 0 74 -4 96 -10l200 -321c31 -49 55 -120 65 -179h8v497c14 8 36 12 71 12c33 0 56 -4 71 -12v-622c0 -181 -64 -287 -204 -360c-37 19 -64 62 -71 111c76 45 116 96 128 172l-242 382
c-27 42 -53 109 -67 170h-8z" />
    <glyph glyph-name="eng" unicode="&#x14b;" horiz-adv-x="598" 
d="M216 328v-320c-13 -7 -37 -12 -72 -12s-59 5 -73 12v477c27 15 70 23 118 23l8 -82h8c24 52 75 92 166 92c76 0 166 -27 166 -192v-160c0 -196 -52 -287 -160 -372c-41 11 -73 42 -89 86c66 57 104 122 104 260v160c0 52 -18 85 -77 85c-52 0 -81 -26 -99 -57z" />
    <glyph glyph-name="Omacron" unicode="&#x14c;" horiz-adv-x="779" 
d="M390 734c202 0 338 -128 338 -371c0 -251 -133 -386 -338 -386c-218 0 -339 127 -339 386c0 233 142 371 339 371zM207 363c0 -163 67 -254 183 -254c119 0 182 91 182 254c0 150 -72 240 -182 240c-119 0 -183 -88 -183 -240zM191 903h399c7 -13 9 -35 9 -55
s-2 -42 -9 -55h-399c-7 13 -9 35 -9 55s2 42 9 55z" />
    <glyph glyph-name="omacron" unicode="&#x14d;" horiz-adv-x="580" 
d="M290 518c151 0 249 -91 249 -261c0 -180 -95 -277 -249 -277c-161 0 -249 92 -249 277c0 164 101 261 249 261zM190 256c0 -99 34 -157 100 -157c69 0 100 58 100 157c0 88 -36 143 -100 143c-67 0 -100 -55 -100 -143zM120 697h346c7 -10 10 -30 10 -51
c0 -20 -3 -42 -10 -51h-363c0 32 5 74 17 102z" />
    <glyph glyph-name="Obreve" unicode="&#x14e;" horiz-adv-x="779" 
d="M390 734c202 0 338 -128 338 -371c0 -251 -133 -386 -338 -386c-218 0 -339 127 -339 386c0 233 142 371 339 371zM207 363c0 -163 67 -254 183 -254c119 0 182 91 182 254c0 150 -72 240 -182 240c-119 0 -183 -88 -183 -240zM493 944c34 0 66 -7 90 -27
c-16 -88 -84 -149 -198 -149c-105 0 -168 53 -181 143c25 23 59 34 97 35c12 -52 42 -75 95 -75c49 0 79 25 97 73z" />
    <glyph glyph-name="obreve" unicode="&#x14f;" horiz-adv-x="580" 
d="M290 518c151 0 249 -91 249 -261c0 -180 -95 -277 -249 -277c-161 0 -249 92 -249 277c0 164 101 261 249 261zM190 256c0 -99 34 -157 100 -157c69 0 100 58 100 157c0 88 -36 143 -100 143c-67 0 -100 -55 -100 -143zM217 756c5 -59 35 -83 78 -83s73 29 83 78
c34 0 68 -10 87 -26c-12 -94 -76 -155 -179 -155c-93 0 -151 54 -165 146c18 22 57 39 96 40z" />
    <glyph glyph-name="Ohungarumlaut" unicode="&#x150;" horiz-adv-x="779" 
d="M390 734c202 0 338 -128 338 -371c0 -251 -133 -386 -338 -386c-218 0 -339 127 -339 386c0 233 142 371 339 371zM207 363c0 -163 67 -254 183 -254c119 0 182 91 182 254c0 150 -72 240 -182 240c-119 0 -183 -88 -183 -240zM272 751c-29 15 -52 42 -62 76l157 155
c37 -12 70 -44 86 -82zM511 751c-29 15 -52 42 -62 76l157 155c37 -12 70 -44 86 -82z" />
    <glyph glyph-name="ohungarumlaut" unicode="&#x151;" horiz-adv-x="580" 
d="M290 518c151 0 249 -91 249 -261c0 -180 -95 -277 -249 -277c-161 0 -249 92 -249 277c0 164 101 261 249 261zM190 256c0 -99 34 -157 100 -157c69 0 100 58 100 157c0 88 -36 143 -100 143c-67 0 -100 -55 -100 -143zM539 744l-128 -179c-32 3 -61 19 -78 41l94 178
c39 0 84 -14 112 -40zM324 744l-128 -179c-32 3 -61 19 -78 41l94 178c39 0 84 -14 112 -40z" />
    <glyph glyph-name="OE" unicode="&#x152;" horiz-adv-x="1037" 
d="M509 711h465c6 -12 10 -37 10 -64s-4 -52 -10 -64h-322v-161h297c6 -13 10 -36 10 -63c0 -26 -4 -50 -10 -63h-297v-167h330c6 -12 10 -37 10 -64s-4 -53 -10 -65h-475c-30 -10 -71 -17 -120 -17c-213 0 -339 136 -339 365c0 240 137 380 341 380c45 0 88 -7 120 -17z
M503 131v448c-26 10 -58 18 -99 18c-137 0 -200 -88 -200 -243c0 -158 64 -239 201 -239c36 0 72 6 98 16z" />
    <glyph glyph-name="oe" unicode="&#x153;" horiz-adv-x="896" 
d="M642 518c146 0 213 -90 213 -222c0 -32 -6 -68 -15 -94h-304c6 -70 56 -104 155 -104c64 0 120 14 156 30c3 -38 -13 -87 -36 -113c-33 -19 -89 -35 -158 -35c-75 0 -159 24 -186 75h-8c-21 -44 -85 -75 -169 -75c-161 0 -249 92 -249 277c0 164 101 261 249 261
c93 0 153 -31 173 -77h8c23 46 84 77 171 77zM190 256c0 -99 34 -157 100 -157c69 0 100 58 100 157c0 88 -36 143 -100 143c-67 0 -100 -55 -100 -143zM532 307h187c8 52 -11 103 -83 103c-62 0 -100 -40 -104 -103z" />
    <glyph glyph-name="Racute" unicode="&#x154;" horiz-adv-x="688" 
d="M86 9v694c53 12 135 19 209 19c200 0 320 -66 320 -234c0 -103 -44 -171 -113 -208l167 -270c-13 -9 -41 -14 -80 -14c-44 0 -73 5 -94 14l-139 234h-16c-34 0 -79 3 -103 7v-242c-14 -8 -39 -13 -75 -13c-35 0 -61 5 -76 13zM306 593c-24 0 -48 -2 -70 -6v-209
c20 -4 57 -7 86 -7c87 0 140 31 140 109c0 80 -56 113 -156 113zM477 959c30 -28 46 -72 47 -116l-249 -92c-20 23 -30 60 -32 94z" />
    <glyph glyph-name="racute" unicode="&#x155;" horiz-adv-x="408" 
d="M206 416c14 55 46 102 128 102c19 0 35 -3 47 -9c14 -25 21 -53 21 -91c0 -29 -4 -47 -9 -61c-19 11 -38 17 -69 17c-51 0 -89 -35 -108 -87v-279c-13 -7 -37 -12 -72 -12s-59 5 -73 12v477c27 15 69 23 117 23l10 -92h8zM409 735l-177 -171c-32 8 -60 31 -72 56l121 159
c38 0 100 -15 128 -44z" />
    <glyph glyph-name="uni0156" unicode="&#x156;" horiz-adv-x="688" 
d="M86 9v694c53 12 135 19 209 19c200 0 320 -66 320 -234c0 -103 -44 -171 -113 -208l167 -270c-13 -9 -41 -14 -80 -14c-44 0 -73 5 -94 14l-139 234h-16c-34 0 -79 3 -103 7v-242c-14 -8 -39 -13 -75 -13c-35 0 -61 5 -76 13zM306 593c-24 0 -48 -2 -70 -6v-209
c20 -4 57 -7 86 -7c87 0 140 31 140 109c0 80 -56 113 -156 113zM303 -78c34 18 75 26 133 26c-6 -88 -34 -189 -62 -244c-41 5 -81 23 -100 46c14 48 26 111 29 172z" />
    <glyph glyph-name="uni0157" unicode="&#x157;" horiz-adv-x="408" 
d="M206 416c14 55 46 102 128 102c19 0 35 -3 47 -9c14 -25 21 -53 21 -91c0 -29 -4 -47 -9 -61c-19 11 -38 17 -69 17c-51 0 -89 -35 -108 -87v-279c-13 -7 -37 -12 -72 -12s-59 5 -73 12v477c27 15 69 23 117 23l10 -92h8zM79 -75c33 18 72 26 126 26
c-5 -80 -32 -171 -59 -220c-39 4 -78 22 -95 43c14 43 25 98 28 151z" />
    <glyph glyph-name="Rcaron" unicode="&#x158;" horiz-adv-x="688" 
d="M86 9v694c53 12 135 19 209 19c200 0 320 -66 320 -234c0 -103 -44 -171 -113 -208l167 -270c-13 -9 -41 -14 -80 -14c-44 0 -73 5 -94 14l-139 234h-16c-34 0 -79 3 -103 7v-242c-14 -8 -39 -13 -75 -13c-35 0 -61 5 -76 13zM306 593c-24 0 -48 -2 -70 -6v-209
c20 -4 57 -7 86 -7c87 0 140 31 140 109c0 80 -56 113 -156 113zM206 951l136 -73l142 66c24 -13 46 -43 54 -81l-137 -85c-11 -3 -32 -7 -60 -7c-27 0 -49 4 -59 7l-135 92c9 37 35 68 59 81z" />
    <glyph glyph-name="rcaron" unicode="&#x159;" horiz-adv-x="408" 
d="M206 416c14 55 46 102 128 102c19 0 35 -3 47 -9c14 -25 21 -53 21 -91c0 -29 -4 -47 -9 -61c-19 11 -38 17 -69 17c-51 0 -89 -35 -108 -87v-279c-13 -7 -37 -12 -72 -12s-59 5 -73 12v477c27 15 69 23 117 23l10 -92h8zM188 568l-130 158c18 25 57 45 87 48l98 -101
l107 106c30 -7 57 -31 70 -57l-125 -142c-27 -9 -70 -12 -107 -12z" />
    <glyph glyph-name="Sacute" unicode="&#x15a;" horiz-adv-x="577" 
d="M42 162c55 -33 150 -57 224 -57c89 0 124 34 124 87c0 147 -333 68 -333 324c0 143 94 218 248 218c67 0 124 -14 176 -44c22 -36 33 -93 27 -138c-54 33 -124 56 -192 56c-74 0 -107 -27 -107 -73c0 -138 331 -65 331 -324c0 -176 -121 -234 -272 -234
c-74 0 -144 14 -199 40c-24 39 -33 102 -27 145zM425 959c30 -28 46 -72 47 -116l-249 -92c-20 23 -30 60 -32 94z" />
    <glyph glyph-name="sacute" unicode="&#x15b;" horiz-adv-x="461" 
d="M39 137c41 -26 114 -45 169 -45c51 0 71 16 71 46c0 79 -228 40 -228 218c0 102 65 162 186 162c50 0 103 -10 142 -34c18 -29 29 -84 24 -123c-45 28 -101 46 -150 46c-43 0 -56 -14 -56 -38c0 -74 229 -37 229 -214c0 -128 -89 -175 -213 -175c-52 0 -109 8 -152 28
c-21 34 -29 95 -22 129zM400 735l-177 -171c-32 8 -60 31 -72 56l121 159c38 0 100 -15 128 -44z" />
    <glyph glyph-name="Scircumflex" unicode="&#x15c;" horiz-adv-x="577" 
d="M42 162c55 -33 150 -57 224 -57c89 0 124 34 124 87c0 147 -333 68 -333 324c0 143 94 218 248 218c67 0 124 -14 176 -44c22 -36 33 -93 27 -138c-54 33 -124 56 -192 56c-74 0 -107 -27 -107 -73c0 -138 331 -65 331 -324c0 -176 -121 -234 -272 -234
c-74 0 -144 14 -199 40c-24 39 -33 102 -27 145zM288 829l-153 -71c-20 20 -33 52 -34 91l119 75c14 6 36 13 68 13c28 0 49 -5 60 -8l133 -87c-6 -39 -26 -71 -48 -87z" />
    <glyph glyph-name="scircumflex" unicode="&#x15d;" horiz-adv-x="461" 
d="M39 137c41 -26 114 -45 169 -45c51 0 71 16 71 46c0 79 -228 40 -228 218c0 102 65 162 186 162c50 0 103 -10 142 -34c18 -29 29 -84 24 -123c-45 28 -101 46 -150 46c-43 0 -56 -14 -56 -38c0 -74 229 -37 229 -214c0 -128 -89 -175 -213 -175c-52 0 -109 8 -152 28
c-21 34 -29 95 -22 129zM64 637l114 126c26 8 70 12 107 12l130 -153c-14 -30 -42 -52 -74 -61l-109 109l-119 -115c-28 21 -43 50 -49 82z" />
    <glyph glyph-name="Scedilla" unicode="&#x15e;" horiz-adv-x="577" 
d="M196 -96l25 75c-59 5 -109 18 -152 38c-24 39 -33 102 -27 145c55 -33 150 -57 224 -57c89 0 124 34 124 87c0 147 -333 68 -333 324c0 143 94 218 248 218c67 0 124 -14 176 -44c22 -36 33 -93 27 -138c-54 33 -124 56 -192 56c-74 0 -107 -27 -107 -73
c0 -138 331 -65 331 -324c0 -150 -87 -214 -207 -230l-6 -29c37 -13 66 -42 66 -93c0 -79 -68 -122 -136 -132c-30 14 -58 42 -71 76c37 5 71 22 71 53c0 26 -27 40 -61 48z" />
    <glyph glyph-name="scedilla" unicode="&#x15f;" horiz-adv-x="461" 
d="M147 -92l24 74c-39 3 -79 12 -110 26c-21 34 -29 95 -22 129c41 -26 114 -45 169 -45c51 0 71 16 71 46c0 79 -228 40 -228 218c0 102 65 162 186 162c50 0 103 -10 142 -34c18 -29 29 -84 24 -123c-45 28 -101 46 -150 46c-43 0 -56 -14 -56 -38c0 -74 229 -37 229 -214
c0 -107 -62 -157 -155 -171l-6 -30c35 -13 61 -40 61 -87c0 -72 -63 -112 -125 -121c-28 13 -54 38 -66 69c34 5 66 21 66 49c0 25 -25 38 -54 44z" />
    <glyph glyph-name="Scaron" unicode="&#x160;" horiz-adv-x="577" 
d="M42 162c55 -33 150 -57 224 -57c89 0 124 34 124 87c0 147 -333 68 -333 324c0 143 94 218 248 218c67 0 124 -14 176 -44c22 -36 33 -93 27 -138c-54 33 -124 56 -192 56c-74 0 -107 -27 -107 -73c0 -138 331 -65 331 -324c0 -176 -121 -234 -272 -234
c-74 0 -144 14 -199 40c-24 39 -33 102 -27 145zM153 951l136 -73l142 66c24 -13 46 -43 54 -81l-137 -85c-11 -3 -32 -7 -60 -7c-27 0 -49 4 -59 7l-135 92c9 37 35 68 59 81z" />
    <glyph glyph-name="scaron" unicode="&#x161;" horiz-adv-x="461" 
d="M39 137c41 -26 114 -45 169 -45c51 0 71 16 71 46c0 79 -228 40 -228 218c0 102 65 162 186 162c50 0 103 -10 142 -34c18 -29 29 -84 24 -123c-45 28 -101 46 -150 46c-43 0 -56 -14 -56 -38c0 -74 229 -37 229 -214c0 -128 -89 -175 -213 -175c-52 0 -109 8 -152 28
c-21 34 -29 95 -22 129zM181 568l-130 158c18 25 57 45 87 48l98 -101l107 106c30 -7 57 -31 70 -57l-125 -142c-27 -9 -70 -12 -107 -12z" />
    <glyph glyph-name="uni0162" unicode="&#x162;" horiz-adv-x="611" 
d="M219 -96l32 97c-9 2 -16 5 -21 8v569h-201c-6 13 -11 40 -11 67s5 53 11 66h553c6 -13 11 -39 11 -66s-5 -54 -11 -67h-201v-569c-5 -3 -12 -6 -21 -8l-10 -49c37 -13 66 -42 66 -93c0 -79 -68 -122 -136 -132c-30 14 -58 42 -71 76c37 5 71 22 71 53c0 26 -27 40 -61 48
z" />
    <glyph glyph-name="uni0163" unicode="&#x163;" horiz-adv-x="408" 
d="M234 374v-188c0 -48 14 -73 68 -73c30 0 60 6 91 27c5 -42 -11 -101 -31 -127c-21 -15 -44 -25 -73 -30l-6 -29c35 -13 61 -40 61 -87c0 -72 -63 -112 -125 -121c-28 13 -54 38 -66 69c34 5 66 21 66 49c0 25 -25 38 -54 44l26 79c-77 20 -102 86 -102 177v210h-77
c0 43 7 92 20 124h57v108c36 26 89 39 145 40v-148h133c6 -12 9 -37 9 -62s-3 -50 -9 -62h-133z" />
    <glyph glyph-name="Tcaron" unicode="&#x164;" horiz-adv-x="611" 
d="M582 578h-201v-569c-14 -8 -39 -13 -75 -13s-61 5 -76 13v569h-201c-6 13 -11 40 -11 67s5 53 11 66h553c6 -13 11 -39 11 -66s-5 -54 -11 -67zM169 951l136 -73l142 66c24 -13 46 -43 54 -81l-137 -85c-11 -3 -32 -7 -60 -7c-27 0 -49 4 -59 7l-135 92c9 37 35 68 59 81
z" />
    <glyph glyph-name="tcaron" unicode="&#x165;" horiz-adv-x="411" 
d="M234 498h133c6 -12 9 -37 9 -62s-3 -50 -9 -62h-133v-188c0 -48 14 -73 68 -73c30 0 60 6 91 27c5 -42 -11 -101 -31 -127c-29 -21 -64 -33 -114 -33c-123 0 -159 74 -159 184v210h-77c0 43 7 92 20 124h57v108c36 26 89 39 145 40v-148zM349 734c31 16 69 24 120 24
c-5 -79 -31 -168 -57 -217c-36 4 -73 19 -90 38c12 44 24 101 27 155z" />
    <glyph glyph-name="Tbar" unicode="&#x166;" horiz-adv-x="611" 
d="M97 399h135v179h-201c-6 13 -11 40 -11 67s5 53 11 66h553c6 -13 11 -39 11 -66s-5 -54 -11 -67h-201v-179h135c7 -14 9 -36 9 -58c0 -21 -2 -43 -9 -57h-135v-275c-14 -8 -39 -13 -75 -13s-61 5 -76 13v275h-135c-7 14 -9 36 -9 57c0 22 2 44 9 58z" />
    <glyph glyph-name="tbar" unicode="&#x167;" horiz-adv-x="408" 
d="M35 302h54v72h-77c0 43 7 92 20 124h57v108c36 26 89 39 145 40v-148h133c6 -12 9 -37 9 -62s-3 -50 -9 -62h-133v-72h109c4 -7 8 -25 8 -45c0 -21 -4 -41 -8 -48h-109v-23c0 -48 14 -73 68 -73c30 0 60 6 91 27c5 -42 -11 -101 -31 -127c-29 -21 -64 -33 -114 -33
c-123 0 -159 74 -159 184v45h-70c0 34 5 68 16 93z" />
    <glyph glyph-name="Utilde" unicode="&#x168;" horiz-adv-x="740" 
d="M227 702v-433c0 -106 44 -156 144 -156c108 0 150 60 150 159v430c14 8 40 13 73 13c36 0 61 -5 74 -13v-420c0 -191 -91 -305 -304 -305c-196 0 -288 97 -288 279v446c15 8 41 13 76 13c36 0 61 -5 75 -13zM157 804c8 67 54 126 143 126c74 0 96 -47 152 -47
c27 0 44 15 50 40c33 -1 62 -8 86 -25c-6 -65 -49 -130 -148 -130c-71 0 -91 49 -152 49c-24 0 -40 -16 -48 -42c-32 2 -60 10 -83 29z" />
    <glyph glyph-name="utilde" unicode="&#x169;" horiz-adv-x="597" 
d="M396 60h-8c-22 -45 -69 -80 -157 -80c-78 0 -166 27 -166 193v305c34 19 82 30 145 30v-310c0 -54 17 -84 75 -84c47 0 78 20 96 43v333c14 7 38 12 73 12s59 -5 72 -12v-477c-26 -15 -67 -23 -113 -23zM484 697c-1 -63 -40 -123 -117 -123c-68 0 -87 41 -135 41
c-23 0 -34 -17 -39 -36c-30 1 -65 22 -80 46c10 58 54 100 115 100c69 0 92 -41 136 -41c20 0 33 12 37 35c31 -1 60 -8 83 -22z" />
    <glyph glyph-name="Umacron" unicode="&#x16a;" horiz-adv-x="740" 
d="M227 702v-433c0 -106 44 -156 144 -156c108 0 150 60 150 159v430c14 8 40 13 73 13c36 0 61 -5 74 -13v-420c0 -191 -91 -305 -304 -305c-196 0 -288 97 -288 279v446c15 8 41 13 76 13c36 0 61 -5 75 -13zM207 903h331c7 -13 9 -35 9 -55s-2 -42 -9 -55h-331
c-7 13 -9 35 -9 55s2 42 9 55z" />
    <glyph glyph-name="umacron" unicode="&#x16b;" horiz-adv-x="597" 
d="M396 60h-8c-22 -45 -69 -80 -157 -80c-78 0 -166 27 -166 193v305c34 19 82 30 145 30v-310c0 -54 17 -84 75 -84c47 0 78 20 96 43v333c14 7 38 12 73 12s59 -5 72 -12v-477c-26 -15 -67 -23 -113 -23zM151 697h304c7 -10 10 -30 10 -51c0 -20 -3 -42 -10 -51h-321
c0 32 5 74 17 102z" />
    <glyph glyph-name="Ubreve" unicode="&#x16c;" horiz-adv-x="740" 
d="M227 702v-433c0 -106 44 -156 144 -156c108 0 150 60 150 159v430c14 8 40 13 73 13c36 0 61 -5 74 -13v-420c0 -191 -91 -305 -304 -305c-196 0 -288 97 -288 279v446c15 8 41 13 76 13c36 0 61 -5 75 -13zM475 944c34 0 66 -7 90 -27c-16 -88 -84 -149 -198 -149
c-105 0 -168 53 -181 143c25 23 59 34 97 35c12 -52 42 -75 95 -75c49 0 79 25 97 73z" />
    <glyph glyph-name="ubreve" unicode="&#x16d;" horiz-adv-x="597" 
d="M396 60h-8c-22 -45 -69 -80 -157 -80c-78 0 -166 27 -166 193v305c34 19 82 30 145 30v-310c0 -54 17 -84 75 -84c47 0 78 20 96 43v333c14 7 38 12 73 12s59 -5 72 -12v-477c-26 -15 -67 -23 -113 -23zM224 756c5 -59 35 -83 78 -83s73 29 83 78c34 0 68 -10 87 -26
c-12 -94 -76 -155 -179 -155c-93 0 -151 54 -165 146c18 22 57 39 96 40z" />
    <glyph glyph-name="Uring" unicode="&#x16e;" horiz-adv-x="740" 
d="M227 702v-433c0 -106 44 -156 144 -156c108 0 150 60 150 159v430c14 8 40 13 73 13c36 0 61 -5 74 -13v-420c0 -191 -91 -305 -304 -305c-196 0 -288 97 -288 279v446c15 8 41 13 76 13c36 0 61 -5 75 -13zM374 992c82 0 135 -44 135 -121c0 -81 -54 -122 -135 -122
c-88 0 -135 41 -135 124c0 71 52 119 135 119zM374 917c-29 0 -49 -18 -49 -46c0 -31 18 -47 49 -47c29 0 48 16 48 47c0 29 -18 46 -48 46z" />
    <glyph glyph-name="uring" unicode="&#x16f;" horiz-adv-x="597" 
d="M396 60h-8c-22 -45 -69 -80 -157 -80c-78 0 -166 27 -166 193v305c34 19 82 30 145 30v-310c0 -54 17 -84 75 -84c47 0 78 20 96 43v333c14 7 38 12 73 12s59 -5 72 -12v-477c-26 -15 -67 -23 -113 -23zM299 795c76 0 126 -42 126 -115c0 -77 -51 -116 -126 -116
c-82 0 -127 39 -127 116c0 69 50 115 127 115zM299 724c-28 0 -47 -17 -47 -44c0 -30 17 -45 47 -45c27 0 46 15 46 45c0 28 -18 44 -46 44z" />
    <glyph glyph-name="Uhungarumlaut" unicode="&#x170;" horiz-adv-x="740" 
d="M227 702v-433c0 -106 44 -156 144 -156c108 0 150 60 150 159v430c14 8 40 13 73 13c36 0 61 -5 74 -13v-420c0 -191 -91 -305 -304 -305c-196 0 -288 97 -288 279v446c15 8 41 13 76 13c36 0 61 -5 75 -13zM248 751c-29 15 -52 42 -62 76l157 155c37 -12 70 -44 86 -82z
M487 751c-29 15 -52 42 -62 76l157 155c37 -12 70 -44 86 -82z" />
    <glyph glyph-name="uhungarumlaut" unicode="&#x171;" horiz-adv-x="597" 
d="M396 60h-8c-22 -45 -69 -80 -157 -80c-78 0 -166 27 -166 193v305c34 19 82 30 145 30v-310c0 -54 17 -84 75 -84c47 0 78 20 96 43v333c14 7 38 12 73 12s59 -5 72 -12v-477c-26 -15 -67 -23 -113 -23zM550 744l-128 -179c-32 3 -61 19 -78 41l94 178
c39 0 84 -14 112 -40zM335 744l-128 -179c-32 3 -61 19 -78 41l94 178c39 0 84 -14 112 -40z" />
    <glyph glyph-name="Uogonek" unicode="&#x172;" horiz-adv-x="740" 
d="M487 -146c16 -21 25 -65 25 -93c-22 -9 -46 -15 -77 -15c-72 0 -142 35 -142 119c0 60 30 91 66 105v7c-192 3 -283 96 -283 279v446c15 8 41 13 76 13c36 0 61 -5 75 -13v-433c0 -106 44 -156 144 -156c108 0 150 60 150 159v430c14 8 40 13 73 13c36 0 61 -5 74 -13
v-420c0 -132 -43 -228 -140 -273c-43 -20 -104 -58 -104 -117c0 -29 18 -41 44 -41c7 0 13 1 19 3z" />
    <glyph glyph-name="uogonek" unicode="&#x173;" horiz-adv-x="597" 
d="M526 13c-58 -33 -84 -74 -84 -109c0 -29 17 -41 43 -41c7 0 13 1 19 3c15 -20 24 -64 24 -91c-21 -9 -45 -15 -76 -15c-71 0 -139 34 -139 117c0 77 50 115 101 123l-18 60h-8c-22 -45 -70 -80 -157 -80c-78 0 -166 27 -166 193v305c34 19 82 30 145 30v-310
c0 -54 17 -84 75 -84c47 0 78 20 96 43v333c14 7 38 12 73 12s59 -5 72 -12v-477z" />
    <glyph glyph-name="Wcircumflex" unicode="&#x174;" horiz-adv-x="1008" 
d="M723 106h8c4 65 12 128 20 169l88 428c14 8 41 12 73 12c37 0 59 -4 72 -12l-153 -699c-23 -6 -58 -10 -103 -10c-46 0 -82 4 -105 10l-90 427c-9 44 -20 110 -24 175h-8c-5 -63 -18 -138 -27 -178l-92 -424c-23 -6 -59 -10 -104 -10s-80 4 -103 10l-150 697
c13 9 37 14 75 14c33 0 61 -4 77 -14l85 -423c8 -41 16 -108 21 -172h8c3 63 11 135 19 171l94 430c23 7 59 11 104 11c43 0 80 -4 103 -11l87 -428c10 -51 20 -109 25 -173zM503 829l-153 -71c-20 20 -33 52 -34 91l119 75c14 6 36 13 68 13c28 0 49 -5 60 -8l133 -87
c-6 -39 -26 -71 -48 -87z" />
    <glyph glyph-name="wcircumflex" unicode="&#x175;" horiz-adv-x="848" 
d="M610 108h8c8 61 19 133 32 186l48 201c9 4 26 9 57 9c37 0 62 -8 79 -19l-123 -479c-49 -14 -119 -20 -187 -20l-59 212c-15 53 -31 127 -39 188h-8c-7 -61 -20 -133 -35 -187l-52 -192c-51 -15 -121 -21 -189 -21l-126 498c17 12 44 20 84 20c29 0 49 -5 58 -9l48 -195
c13 -54 27 -130 33 -192h8c4 54 16 126 27 168l53 208c45 17 115 25 192 25l60 -244c11 -46 22 -98 31 -157zM253 637l114 126c26 8 70 12 107 12l130 -153c-14 -30 -42 -52 -74 -61l-109 109l-119 -115c-28 21 -43 50 -49 82z" />
    <glyph glyph-name="Ycircumflex" unicode="&#x176;" horiz-adv-x="629" 
d="M239 239l-228 462c14 9 41 14 80 14c37 0 63 -5 80 -14l93 -182c20 -39 43 -108 54 -164h8c8 54 28 124 48 164l92 182c17 10 43 14 78 14c38 0 59 -5 75 -14l-229 -460v-232c-14 -8 -39 -13 -75 -13c-35 0 -61 5 -76 13v230zM320 829l-153 -71c-20 20 -33 52 -34 91
l119 75c14 6 36 13 68 13c28 0 49 -5 60 -8l133 -87c-6 -39 -26 -71 -48 -87z" />
    <glyph glyph-name="ycircumflex" unicode="&#x177;" horiz-adv-x="533" 
d="M276 99h8c5 47 14 106 25 143l74 253c11 4 28 9 60 9c40 0 68 -8 86 -20l-73 -227c-36 -115 -74 -226 -126 -311c-57 -93 -132 -156 -249 -194c-34 26 -61 74 -66 122c80 21 135 65 172 118l-182 492c18 12 46 20 89 20c31 0 52 -5 61 -9l92 -256c11 -31 24 -92 29 -140z
M105 637l114 126c26 8 70 12 107 12l130 -153c-14 -30 -42 -52 -74 -61l-109 109l-119 -115c-28 21 -43 50 -49 82z" />
    <glyph glyph-name="Ydieresis" unicode="&#x178;" horiz-adv-x="629" 
d="M239 239l-228 462c14 9 41 14 80 14c37 0 63 -5 80 -14l93 -182c20 -39 43 -108 54 -164h8c8 54 28 124 48 164l92 182c17 10 43 14 78 14c38 0 59 -5 75 -14l-229 -460v-232c-14 -8 -39 -13 -75 -13c-35 0 -61 5 -76 13v230zM190 916c41 0 73 -24 73 -72
c0 -50 -31 -76 -73 -76c-50 0 -78 26 -78 76c0 44 32 72 78 72zM457 916c41 0 73 -24 73 -72c0 -50 -31 -76 -73 -76c-50 0 -78 26 -78 76c0 44 32 72 78 72z" />
    <glyph glyph-name="Zacute" unicode="&#x179;" horiz-adv-x="603" 
d="M549 595l-322 -457v-8h329c6 -13 11 -38 11 -64c0 -27 -5 -53 -11 -66h-499c-14 34 -18 74 -18 118l324 457v8h-303c-6 13 -11 37 -11 63c0 27 5 52 11 65h471c14 -34 18 -72 18 -116zM437 959c30 -28 46 -72 47 -116l-249 -92c-20 23 -30 60 -32 94z" />
    <glyph glyph-name="zacute" unicode="&#x17a;" horiz-adv-x="488" 
d="M442 396l-213 -268v-8h217c5 -12 9 -35 9 -60s-4 -48 -9 -60h-392c-11 27 -17 63 -17 99l220 273v8h-214c0 40 7 87 19 118h362c11 -28 18 -63 18 -102zM408 735l-177 -171c-32 8 -60 31 -72 56l121 159c38 0 100 -15 128 -44z" />
    <glyph glyph-name="Zdotaccent" unicode="&#x17b;" horiz-adv-x="603" 
d="M549 595l-322 -457v-8h329c6 -13 11 -38 11 -64c0 -27 -5 -53 -11 -66h-499c-14 34 -18 74 -18 118l324 457v8h-303c-6 13 -11 37 -11 63c0 27 5 52 11 65h471c14 -34 18 -72 18 -116zM302 930c47 0 79 -26 79 -76c0 -53 -31 -80 -79 -80c-53 0 -81 27 -81 80
c0 47 32 76 81 76z" />
    <glyph glyph-name="zdotaccent" unicode="&#x17c;" horiz-adv-x="488" 
d="M442 396l-213 -268v-8h217c5 -12 9 -35 9 -60s-4 -48 -9 -60h-392c-11 27 -17 63 -17 99l220 273v8h-214c0 40 7 87 19 118h362c11 -28 18 -63 18 -102zM247 733c45 0 77 -26 77 -74c0 -51 -31 -78 -77 -78c-51 0 -79 27 -79 78c0 45 32 74 79 74z" />
    <glyph glyph-name="Zcaron" unicode="&#x17d;" horiz-adv-x="603" 
d="M549 595l-322 -457v-8h329c6 -13 11 -38 11 -64c0 -27 -5 -53 -11 -66h-499c-14 34 -18 74 -18 118l324 457v8h-303c-6 13 -11 37 -11 63c0 27 5 52 11 65h471c14 -34 18 -72 18 -116zM164 951l136 -73l142 66c24 -13 46 -43 54 -81l-137 -85c-11 -3 -32 -7 -60 -7
c-27 0 -49 4 -59 7l-135 92c9 37 35 68 59 81z" />
    <glyph glyph-name="zcaron" unicode="&#x17e;" horiz-adv-x="488" 
d="M442 396l-213 -268v-8h217c5 -12 9 -35 9 -60s-4 -48 -9 -60h-392c-11 27 -17 63 -17 99l220 273v8h-214c0 40 7 87 19 118h362c11 -28 18 -63 18 -102zM192 568l-130 158c18 25 57 45 87 48l98 -101l107 106c30 -7 57 -31 70 -57l-125 -142c-27 -9 -70 -12 -107 -12z
" />
    <glyph glyph-name="longs" unicode="&#x17f;" horiz-adv-x="320" 
d="M71 8v536c0 160 73 214 182 214c37 0 70 -7 96 -19c21 -31 28 -88 22 -128c-28 14 -53 21 -81 21c-53 0 -74 -23 -74 -78v-546c-13 -7 -37 -12 -72 -12s-59 5 -73 12z" />
    <glyph glyph-name="uni018F" unicode="&#x18f;" horiz-adv-x="727" 
d="M92 402h437c-17 138 -88 206 -236 206c-62 0 -124 -11 -185 -39c-3 41 10 98 34 128c47 24 122 37 188 37c237 0 354 -175 354 -394c0 -237 -137 -363 -337 -363c-197 0 -282 126 -282 271c0 54 11 117 27 154zM528 283h-305c-3 -10 -5 -27 -5 -43
c0 -69 38 -140 144 -140c113 0 161 81 166 183z" />
    <glyph glyph-name="florin" unicode="&#x192;" horiz-adv-x="482" 
d="M64 314h112l4 45c14 159 91 214 198 214c40 0 76 -7 102 -23c19 -31 23 -87 12 -125c-30 16 -58 23 -89 23c-56 0 -79 -26 -84 -85l-4 -49h121c5 -8 7 -24 7 -37c0 -25 -6 -52 -16 -71h-120l-13 -159c-13 -160 -95 -214 -206 -214c-41 0 -75 7 -100 22
c-19 32 -24 90 -13 130c30 -16 59 -24 91 -24c56 0 76 26 82 81l17 164h-129c1 33 11 80 28 108z" />
    <glyph glyph-name="uni01B5" unicode="&#x1b5;" horiz-adv-x="603" 
d="M549 595l-125 -178h88c7 -14 9 -36 9 -58c0 -21 -2 -43 -9 -57h-169l-116 -164v-8h329c6 -13 11 -38 11 -64c0 -27 -5 -53 -11 -66h-499c-14 34 -18 74 -18 118l130 184h-85c-7 14 -9 36 -9 57c0 22 2 44 9 58h167l112 158v8h-303c-6 13 -11 37 -11 63c0 27 5 52 11 65
h471c14 -34 18 -72 18 -116z" />
    <glyph glyph-name="uni01B6" unicode="&#x1b6;" horiz-adv-x="488" 
d="M442 396l-76 -96h56c4 -7 8 -26 8 -47c0 -22 -4 -43 -8 -50h-133l-60 -75v-8h217c5 -12 9 -35 9 -60s-4 -48 -9 -60h-392c-11 27 -17 63 -17 99l84 104h-63c0 35 5 71 17 97h124l58 72v8h-214c0 40 7 87 19 118h362c11 -28 18 -63 18 -102z" />
    <glyph glyph-name="Aringacute" unicode="&#x1fa;" horiz-adv-x="692" 
d="M344 899c82 0 135 -44 135 -121c0 -40 -13 -71 -37 -91l235 -677c-14 -9 -40 -14 -78 -14s-61 5 -78 14l-50 154h-253l-50 -154c-17 -10 -44 -14 -78 -14c-38 0 -60 5 -76 14l234 673c-26 21 -39 53 -39 97c0 71 52 119 135 119zM255 287h177l-38 118
c-20 62 -35 135 -46 205h-8c-11 -73 -29 -148 -48 -208zM344 824c-29 0 -49 -18 -49 -46c0 -31 18 -47 49 -47c29 0 48 16 48 47c0 29 -18 46 -48 46zM434 1089c26 -25 40 -63 41 -102l-238 -87c-17 20 -26 52 -28 82z" />
    <glyph glyph-name="aringacute" unicode="&#x1fb;" horiz-adv-x="555" 
d="M341 52h-8c-22 -44 -69 -72 -138 -72c-88 0 -164 44 -164 160c0 122 88 169 204 169c33 0 62 -4 91 -13v14c0 61 -30 83 -96 83c-58 0 -115 -16 -160 -42c-12 39 -7 101 16 134c36 20 98 33 172 33c144 0 213 -51 213 -199v-173c0 -31 14 -38 34 -38c17 0 33 5 43 12
c4 -40 -8 -89 -26 -117c-21 -14 -49 -23 -83 -23c-58 0 -88 25 -98 72zM329 132v68c-20 8 -42 12 -66 12c-58 0 -87 -24 -87 -62c0 -39 29 -53 69 -53c32 0 64 10 84 35zM267 769c76 0 126 -42 126 -115c0 -77 -51 -116 -126 -116c-82 0 -127 39 -127 116
c0 69 50 115 127 115zM267 698c-28 0 -47 -17 -47 -44c0 -30 17 -45 47 -45c27 0 46 15 46 45c0 28 -18 44 -46 44zM347 956c26 -25 40 -63 41 -102l-224 -83c-15 21 -21 53 -21 86z" />
    <glyph glyph-name="AEacute" unicode="&#x1fc;" horiz-adv-x="1039" 
d="M424 711h552c6 -12 10 -37 10 -64s-4 -52 -10 -64h-322v-161h297c6 -13 10 -36 10 -63c0 -26 -4 -50 -10 -63h-297v-167h330c6 -12 10 -37 10 -64s-4 -53 -10 -65h-479v185h-230l-103 -175c-20 -9 -53 -14 -92 -14c-40 0 -66 5 -77 14zM505 596h-8
c-12 -37 -39 -99 -61 -136l-90 -152h159v288zM671 959c30 -28 46 -72 47 -116l-249 -92c-20 23 -30 60 -32 94z" />
    <glyph glyph-name="aeacute" unicode="&#x1fd;" horiz-adv-x="835" 
d="M779 202h-304c6 -70 56 -104 155 -104c64 0 120 14 156 30c3 -38 -13 -87 -36 -113c-33 -19 -89 -35 -158 -35c-101 0 -176 33 -213 88h-8c-23 -46 -78 -88 -170 -88c-93 0 -170 41 -170 156c0 122 88 173 201 173c32 0 67 -4 94 -12v13c0 61 -30 83 -96 83
c-58 0 -115 -16 -160 -42c-12 39 -7 101 16 134c36 20 98 33 172 33c78 0 130 -14 163 -52c40 34 96 52 160 52c146 0 213 -90 213 -222c0 -32 -6 -68 -15 -94zM338 143c-6 19 -10 41 -12 60c-19 5 -39 9 -64 9c-60 0 -90 -22 -90 -61c0 -38 29 -54 71 -54s72 15 95 46z
M471 307h187c8 52 -11 103 -83 103c-62 0 -100 -40 -104 -103zM564 735l-177 -171c-32 8 -60 31 -72 56l121 159c38 0 100 -15 128 -44z" />
    <glyph glyph-name="Oslashacute" unicode="&#x1fe;" horiz-adv-x="779" 
d="M390 734c74 0 140 -17 192 -52l71 83c42 -11 85 -44 102 -82l-82 -95c35 -56 55 -133 55 -225c0 -251 -133 -386 -338 -386c-81 0 -151 18 -200 53l-79 -91c-40 13 -83 50 -97 91l86 99c-32 60 -49 138 -49 234c0 233 142 371 339 371zM572 363c0 40 -5 77 -15 108
l-277 -323c29 -26 66 -39 110 -39c119 0 182 91 182 254zM207 363c0 -44 4 -83 14 -116l275 319c-29 24 -65 37 -106 37c-119 0 -183 -88 -183 -240zM521 959c30 -28 46 -72 47 -116l-249 -92c-20 23 -30 60 -32 94z" />
    <glyph glyph-name="oslashacute" unicode="&#x1ff;" horiz-adv-x="580" 
d="M290 518c48 0 90 -9 126 -26l49 61c36 -10 73 -37 89 -67l-54 -67c27 -41 43 -96 43 -162c0 -180 -97 -277 -253 -277c-49 0 -92 9 -127 25l-68 -86c-25 19 -52 60 -62 99l48 59c-29 44 -44 104 -44 180c0 164 103 261 253 261zM186 256c0 -23 2 -44 6 -61l153 188
c-15 10 -32 16 -55 16c-70 0 -104 -55 -104 -143zM394 256c0 15 -1 30 -4 43l-151 -186c13 -9 31 -14 51 -14c72 0 104 58 104 157zM453 735l-177 -171c-32 8 -60 31 -72 56l121 159c38 0 100 -15 128 -44z" />
    <glyph glyph-name="uni0218" unicode="&#x218;" horiz-adv-x="577" 
d="M42 162c55 -33 150 -57 224 -57c89 0 124 34 124 87c0 147 -333 68 -333 324c0 143 94 218 248 218c67 0 124 -14 176 -44c22 -36 33 -93 27 -138c-54 33 -124 56 -192 56c-74 0 -107 -27 -107 -73c0 -138 331 -65 331 -324c0 -176 -121 -234 -272 -234
c-74 0 -144 14 -199 40c-24 39 -33 102 -27 145zM222 -78c34 18 75 26 133 26c-6 -88 -34 -189 -62 -244c-41 5 -81 23 -100 46c14 48 26 111 29 172z" />
    <glyph glyph-name="uni0219" unicode="&#x219;" horiz-adv-x="461" 
d="M39 137c41 -26 114 -45 169 -45c51 0 71 16 71 46c0 79 -228 40 -228 218c0 102 65 162 186 162c50 0 103 -10 142 -34c18 -29 29 -84 24 -123c-45 28 -101 46 -150 46c-43 0 -56 -14 -56 -38c0 -74 229 -37 229 -214c0 -128 -89 -175 -213 -175c-52 0 -109 8 -152 28
c-21 34 -29 95 -22 129zM172 -75c33 18 72 26 126 26c-5 -80 -32 -171 -59 -220c-39 4 -78 22 -95 43c14 43 25 98 28 151z" />
    <glyph glyph-name="uni021A" unicode="&#x21a;" horiz-adv-x="611" 
d="M582 578h-201v-569c-14 -8 -39 -13 -75 -13s-61 5 -76 13v569h-201c-6 13 -11 40 -11 67s5 53 11 66h553c6 -13 11 -39 11 -66s-5 -54 -11 -67zM239 -78c34 18 75 26 133 26c-6 -88 -34 -189 -62 -244c-41 5 -81 23 -100 46c14 48 26 111 29 172z" />
    <glyph glyph-name="uni021B" unicode="&#x21b;" horiz-adv-x="408" 
d="M234 498h133c6 -12 9 -37 9 -62s-3 -50 -9 -62h-133v-188c0 -48 14 -73 68 -73c30 0 60 6 91 27c5 -42 -11 -101 -31 -127c-29 -21 -64 -33 -114 -33c-123 0 -159 74 -159 184v210h-77c0 43 7 92 20 124h57v108c36 26 89 39 145 40v-148zM180 -75c33 18 72 26 126 26
c-5 -80 -32 -171 -59 -220c-39 4 -78 22 -95 43c14 43 25 98 28 151z" />
    <glyph glyph-name="uni0237" unicode="&#x237;" horiz-adv-x="293" 
d="M225 490v-331c0 -214 -52 -313 -160 -406c-41 11 -73 42 -89 86c66 60 104 130 104 276v375c14 7 38 12 73 12s59 -5 72 -12z" />
    <glyph glyph-name="uni0259" unicode="&#x259;" horiz-adv-x="554" 
d="M61 302h306c-9 67 -53 100 -149 100c-59 0 -115 -13 -148 -28c-3 37 13 85 36 111c32 18 85 33 151 33c171 0 261 -100 261 -263c0 -169 -98 -275 -256 -275c-146 0 -219 89 -219 214c0 36 6 78 18 108zM371 197h-192c-8 -54 13 -105 88 -105c63 0 99 37 104 105z" />
    <glyph glyph-name="uni02BB" unicode="&#x2bb;" horiz-adv-x="252" 
d="M46 465c7 90 34 185 65 249c32 18 78 28 134 28c-34 -82 -57 -187 -62 -271c-17 -11 -49 -15 -79 -15c-26 0 -48 3 -58 9z" />
    <glyph glyph-name="uni02BC" unicode="&#x2bc;" horiz-adv-x="252" 
d="M90 713c35 17 79 27 138 27c-6 -106 -43 -232 -79 -296c-43 5 -86 23 -107 46c26 65 44 147 48 223z" />
    <glyph glyph-name="circumflex" unicode="&#x2c6;" horiz-adv-x="470" 
d="M58 637l114 126c26 8 70 12 107 12l130 -153c-14 -30 -42 -52 -74 -61l-109 109l-119 -115c-28 21 -43 50 -49 82z" />
    <glyph glyph-name="caron" unicode="&#x2c7;" horiz-adv-x="470" 
d="M185 568l-130 158c18 25 57 45 87 48l98 -101l107 106c30 -7 57 -31 70 -57l-125 -142c-27 -9 -70 -12 -107 -12z" />
    <glyph glyph-name="breve" unicode="&#x2d8;" horiz-adv-x="470" 
d="M158 756c5 -59 35 -83 78 -83s73 29 83 78c34 0 68 -10 87 -26c-12 -94 -76 -155 -179 -155c-93 0 -151 54 -165 146c18 22 57 39 96 40z" />
    <glyph glyph-name="dotaccent" unicode="&#x2d9;" horiz-adv-x="470" 
d="M236 733c45 0 77 -26 77 -74c0 -51 -31 -78 -77 -78c-51 0 -79 27 -79 78c0 45 32 74 79 74z" />
    <glyph glyph-name="ring" unicode="&#x2da;" horiz-adv-x="470" 
d="M235 795c76 0 126 -42 126 -115c0 -77 -51 -116 -126 -116c-82 0 -127 39 -127 116c0 69 50 115 127 115zM235 724c-28 0 -47 -17 -47 -44c0 -30 17 -45 47 -45c27 0 46 15 46 45c0 28 -18 44 -46 44z" />
    <glyph glyph-name="ogonek" unicode="&#x2db;" horiz-adv-x="470" 
d="M313 -134c15 -20 24 -64 24 -91c-21 -9 -45 -15 -76 -15c-71 0 -139 34 -139 117c0 52 26 102 82 125c36 14 96 20 149 20c-65 -30 -102 -77 -102 -118c0 -29 17 -41 43 -41c7 0 13 1 19 3z" />
    <glyph glyph-name="tilde" unicode="&#x2dc;" horiz-adv-x="470" 
d="M420 697c-1 -63 -40 -123 -117 -123c-68 0 -87 41 -135 41c-23 0 -34 -17 -39 -36c-30 1 -65 22 -80 46c10 58 54 100 115 100c69 0 92 -41 136 -41c20 0 33 12 37 35c31 -1 60 -8 83 -22z" />
    <glyph glyph-name="hungarumlaut" unicode="&#x2dd;" horiz-adv-x="470" 
d="M454 744l-128 -179c-32 3 -61 19 -78 41l94 178c39 0 84 -14 112 -40zM239 744l-128 -179c-32 3 -61 19 -78 41l94 178c39 0 84 -14 112 -40z" />
    <glyph glyph-name="gravecomb" unicode="&#x300;" horiz-adv-x="1" 
d="M1 615c-16 -26 -46 -45 -84 -51l-162 174c26 27 81 43 128 43z" />
    <glyph glyph-name="acutecomb" unicode="&#x301;" horiz-adv-x="1" 
d="M1 735l-177 -171c-32 8 -60 31 -72 56l121 159c38 0 100 -15 128 -44z" />
    <glyph glyph-name="uni0302" unicode="&#x302;" horiz-adv-x="1" 
d="M-350 637l114 126c26 8 70 12 107 12l130 -153c-14 -30 -42 -52 -74 -61l-109 109l-119 -115c-28 21 -43 50 -49 82z" />
    <glyph glyph-name="tildecomb" unicode="&#x303;" horiz-adv-x="1" 
d="M1 697c-1 -63 -40 -123 -117 -123c-68 0 -87 41 -135 41c-23 0 -34 -17 -39 -36c-30 1 -65 22 -80 46c10 58 54 100 115 100c69 0 92 -41 136 -41c20 0 33 12 37 35c31 -1 60 -8 83 -22z" />
    <glyph glyph-name="uni0304" unicode="&#x304;" horiz-adv-x="1" 
d="M-313 697h304c7 -10 10 -30 10 -51c0 -20 -3 -42 -10 -51h-321c0 32 5 74 17 102z" />
    <glyph glyph-name="uni0306" unicode="&#x306;" horiz-adv-x="1" 
d="M-247 756c5 -59 35 -83 78 -83s73 29 83 78c34 0 68 -10 87 -26c-12 -94 -76 -155 -179 -155c-93 0 -151 54 -165 146c18 22 57 39 96 40z" />
    <glyph glyph-name="uni0307" unicode="&#x307;" horiz-adv-x="1" 
d="M-76 733c45 0 77 -26 77 -74c0 -51 -31 -78 -77 -78c-51 0 -79 27 -79 78c0 45 32 74 79 74z" />
    <glyph glyph-name="uni0308" unicode="&#x308;" horiz-adv-x="1" 
d="M-307 720c41 0 71 -24 71 -70c0 -48 -29 -73 -71 -73c-48 0 -74 25 -74 73c0 43 30 70 74 70zM-70 720c42 0 71 -24 71 -70c0 -48 -29 -73 -71 -73c-47 0 -73 25 -73 73c0 43 30 70 73 70z" />
    <glyph glyph-name="uni030A" unicode="&#x30a;" horiz-adv-x="1" 
d="M-125 795c76 0 126 -42 126 -115c0 -77 -51 -116 -126 -116c-82 0 -127 39 -127 116c0 69 50 115 127 115zM-125 724c-28 0 -47 -17 -47 -44c0 -30 17 -45 47 -45c27 0 46 15 46 45c0 28 -18 44 -46 44z" />
    <glyph glyph-name="uni030B" unicode="&#x30b;" horiz-adv-x="1" 
d="M1 744l-128 -179c-32 3 -61 19 -78 41l94 178c39 0 84 -14 112 -40zM-214 744l-128 -179c-32 3 -61 19 -78 41l94 178c39 0 84 -14 112 -40z" />
    <glyph glyph-name="uni030C" unicode="&#x30c;" horiz-adv-x="1" 
d="M-231 568l-130 158c18 25 57 45 87 48l98 -101l107 106c30 -7 57 -31 70 -57l-125 -142c-27 -9 -70 -12 -107 -12z" />
    <glyph glyph-name="uni0312" unicode="&#x312;" horiz-adv-x="1" 
d="M-163 584c4 64 24 132 47 178c27 17 66 26 117 26c-22 -60 -36 -137 -39 -198c-16 -8 -39 -14 -72 -14c-25 0 -44 3 -53 8z" />
    <glyph glyph-name="uni0313" unicode="&#x313;" horiz-adv-x="1" 
d="M-119 713c31 16 69 24 120 24c-5 -79 -31 -168 -57 -217c-36 4 -73 19 -90 38c12 44 24 101 27 155z" />
    <glyph glyph-name="uni0326" unicode="&#x326;" horiz-adv-x="1" 
d="M-125 -75c33 18 72 26 126 26c-5 -80 -32 -171 -59 -220c-39 4 -78 22 -95 43c14 43 25 98 28 151z" />
    <glyph glyph-name="uni0327" unicode="&#x327;" horiz-adv-x="1" 
d="M-214 -92l31 95c25 10 61 16 100 16l-13 -65c35 -13 61 -40 61 -87c0 -72 -63 -112 -125 -121c-28 13 -54 38 -66 69c34 5 66 21 66 49c0 25 -25 38 -54 44z" />
    <glyph glyph-name="uni0328" unicode="&#x328;" horiz-adv-x="1" 
d="M76 -134c15 -20 24 -64 24 -91c-21 -9 -45 -15 -76 -15c-71 0 -139 34 -139 117c0 52 26 102 82 125c36 14 96 20 149 20c-65 -30 -102 -77 -102 -118c0 -29 17 -41 43 -41c7 0 13 1 19 3z" />
    <glyph glyph-name="uni037E" unicode="&#x37e;" horiz-adv-x="296" 
d="M83 105c38 19 86 28 148 28c-6 -112 -48 -248 -87 -316c-46 5 -90 24 -113 48c29 69 48 160 52 240zM154 511c50 0 84 -30 84 -83c0 -57 -34 -88 -84 -88c-55 0 -85 30 -85 87c0 52 36 84 85 84z" />
    <glyph glyph-name="tonos" unicode="&#x384;" horiz-adv-x="470" 
d="M363 750l-143 -198c-33 4 -67 23 -82 47l99 185c40 4 94 -4 126 -34z" />
    <glyph glyph-name="dieresistonos" unicode="&#x385;" horiz-adv-x="470" 
d="M333 752l-88 -187c-38 0 -71 10 -84 29l61 185c45 0 74 -4 111 -27zM87 715c37 0 63 -21 63 -62c0 -43 -26 -65 -63 -65c-41 0 -65 22 -65 65c0 38 27 62 65 62zM386 715c37 0 63 -21 63 -62c0 -43 -26 -65 -63 -65c-41 0 -65 22 -65 65c0 38 27 62 65 62z" />
    <glyph glyph-name="Alphatonos" unicode="&#x386;" horiz-adv-x="692" 
d="M521 10l-50 154h-253l-50 -154c-17 -10 -44 -14 -78 -14c-38 0 -60 5 -76 14l242 698c21 6 54 10 90 10c37 0 70 -4 91 -10l240 -698c-14 -9 -40 -14 -78 -14s-61 5 -78 14zM255 287h177l-38 118c-20 62 -35 135 -46 205h-8c-11 -73 -29 -148 -48 -208zM153 691l-81 -220
c-38 -3 -80 8 -96 26l52 225c56 0 89 -7 125 -31z" />
    <glyph glyph-name="anoteleia" unicode="&#x387;" horiz-adv-x="277" 
d="M139 514c51 0 86 -31 86 -85c0 -58 -35 -90 -86 -90c-56 0 -87 31 -87 89c0 53 37 86 87 86z" />
    <glyph glyph-name="Epsilontonos" unicode="&#x388;" horiz-adv-x="620" 
d="M86 711h471c6 -12 10 -37 10 -64s-4 -52 -10 -64h-322v-161h297c6 -13 10 -36 10 -63c0 -26 -4 -50 -10 -63h-297v-167h330c6 -12 10 -37 10 -64s-4 -53 -10 -65h-479v711zM51 691l-81 -220c-38 -3 -80 8 -96 26l52 225c56 0 89 -7 125 -31z" />
    <glyph glyph-name="Etatonos" unicode="&#x389;" horiz-adv-x="773" 
d="M537 9v288h-301v-288c-15 -8 -40 -13 -75 -13s-60 5 -75 13v693c15 8 40 13 75 13s60 -5 75 -13v-274h301v274c15 8 40 13 75 13s60 -5 75 -13v-693c-15 -8 -40 -13 -75 -13s-60 5 -75 13zM51 691l-81 -220c-38 -3 -80 8 -96 26l52 225c56 0 89 -7 125 -31z" />
    <glyph glyph-name="Iotatonos" unicode="&#x38a;" horiz-adv-x="323" 
d="M86 9v693c15 8 41 13 76 13c36 0 61 -5 75 -13v-693c-14 -8 -39 -13 -75 -13c-35 0 -61 5 -76 13zM51 691l-81 -220c-38 -3 -80 8 -96 26l52 225c56 0 89 -7 125 -31z" />
    <glyph glyph-name="Omicrontonos" unicode="&#x38c;" horiz-adv-x="779" 
d="M390 734c202 0 338 -128 338 -371c0 -251 -133 -386 -338 -386c-218 0 -339 127 -339 386c0 233 142 371 339 371zM207 363c0 -163 67 -254 183 -254c119 0 182 91 182 254c0 150 -72 240 -182 240c-119 0 -183 -88 -183 -240zM64 691l-81 -220c-38 -3 -80 8 -96 26
l52 225c56 0 89 -7 125 -31z" />
    <glyph glyph-name="Upsilontonos" unicode="&#x38e;" horiz-adv-x="636" 
d="M240 9v67c0 140 -20 191 -143 446l-86 179c14 9 41 14 80 14c37 0 63 -5 80 -14l57 -127c46 -103 72 -174 89 -261h8c14 86 38 152 90 264l58 124c17 10 43 14 78 14c38 0 59 -5 75 -14l-90 -179c-126 -250 -145 -301 -145 -443v-70c-14 -8 -39 -13 -75 -13
c-35 0 -61 5 -76 13zM-6 691l-81 -220c-38 -3 -80 8 -96 26l52 225c56 0 89 -7 125 -31z" />
    <glyph glyph-name="Omegatonos" unicode="&#x38f;" horiz-adv-x="831" 
d="M40 134h156v8c-71 38 -123 121 -123 251c0 207 138 341 345 341c212 0 341 -137 341 -335c0 -141 -65 -221 -127 -257v-8h159c6 -13 11 -39 11 -66c0 -28 -5 -55 -11 -68h-314c-14 39 -19 82 -19 132c81 42 145 115 145 246c0 116 -49 224 -187 224
c-132 0 -187 -99 -187 -218c0 -124 59 -211 147 -252c0 -51 -5 -92 -19 -132h-317c-6 13 -11 40 -11 68c0 27 5 53 11 66zM86 691l-81 -220c-38 -3 -80 8 -96 26l52 225c56 0 89 -7 125 -31z" />
    <glyph glyph-name="iotadieresistonos" unicode="&#x390;" horiz-adv-x="333" 
d="M68 138v352c14 7 38 12 73 12s59 -5 72 -12v-323c0 -47 14 -58 51 -58c20 0 41 6 61 17c4 -40 -10 -98 -28 -123c-23 -14 -55 -23 -92 -23c-104 0 -137 61 -137 158zM255 752l-88 -187c-38 0 -71 10 -84 29l61 185c45 0 74 -4 111 -27zM9 715c37 0 63 -21 63 -62
c0 -43 -26 -65 -63 -65c-41 0 -65 22 -65 65c0 38 27 62 65 62zM308 715c37 0 63 -21 63 -62c0 -43 -26 -65 -63 -65c-41 0 -65 22 -65 65c0 38 27 62 65 62z" />
    <glyph glyph-name="Alpha" unicode="&#x391;" horiz-adv-x="692" 
d="M521 10l-50 154h-253l-50 -154c-17 -10 -44 -14 -78 -14c-38 0 -60 5 -76 14l242 698c21 6 54 10 90 10c37 0 70 -4 91 -10l240 -698c-14 -9 -40 -14 -78 -14s-61 5 -78 14zM255 287h177l-38 118c-20 62 -35 135 -46 205h-8c-11 -73 -29 -148 -48 -208z" />
    <glyph glyph-name="Beta" unicode="&#x392;" horiz-adv-x="681" 
d="M507 379v-8c83 -23 136 -70 136 -168c0 -156 -136 -212 -309 -212c-87 0 -183 4 -248 12v699c62 12 141 21 224 21c172 0 296 -53 296 -194c0 -78 -39 -133 -99 -150zM235 302v-179c27 -3 61 -5 99 -5c97 0 154 28 154 92s-58 92 -152 92h-101zM235 591v-164h100
c74 0 118 27 118 83c0 61 -52 87 -139 87c-32 0 -58 -2 -79 -6z" />
    <glyph glyph-name="Gamma" unicode="&#x393;" horiz-adv-x="578" 
d="M237 577v-568c-14 -8 -39 -13 -75 -13c-35 0 -61 5 -76 13v702h464c6 -13 11 -39 11 -66c0 -28 -5 -55 -11 -68h-313z" />
    <glyph glyph-name="uni0394" unicode="&#x394;" horiz-adv-x="676" 
d="M626 0h-577c-15 39 -21 77 -21 127l204 580c23 7 61 11 102 11c42 0 80 -4 103 -11l210 -580c0 -50 -6 -88 -21 -127zM485 135l-97 279c-22 62 -40 133 -51 198h-8c-13 -66 -31 -130 -51 -192l-93 -285h300z" />
    <glyph glyph-name="Epsilon" unicode="&#x395;" horiz-adv-x="620" 
d="M86 711h471c6 -12 10 -37 10 -64s-4 -52 -10 -64h-322v-161h297c6 -13 10 -36 10 -63c0 -26 -4 -50 -10 -63h-297v-167h330c6 -12 10 -37 10 -64s-4 -53 -10 -65h-479v711z" />
    <glyph glyph-name="Zeta" unicode="&#x396;" horiz-adv-x="603" 
d="M549 595l-322 -457v-8h329c6 -13 11 -38 11 -64c0 -27 -5 -53 -11 -66h-499c-14 34 -18 74 -18 118l324 457v8h-303c-6 13 -11 37 -11 63c0 27 5 52 11 65h471c14 -34 18 -72 18 -116z" />
    <glyph glyph-name="Eta" unicode="&#x397;" horiz-adv-x="773" 
d="M537 9v288h-301v-288c-15 -8 -40 -13 -75 -13s-60 5 -75 13v693c15 8 40 13 75 13s60 -5 75 -13v-274h301v274c15 8 40 13 75 13s60 -5 75 -13v-693c-15 -8 -40 -13 -75 -13s-60 5 -75 13z" />
    <glyph glyph-name="Theta" unicode="&#x398;" horiz-adv-x="793" 
d="M398 734c206 0 344 -127 344 -370c0 -251 -135 -387 -344 -387c-223 0 -347 128 -347 387c0 233 145 370 347 370zM205 363c0 -165 71 -256 193 -256c124 0 190 91 190 256c0 152 -75 242 -190 242c-126 0 -193 -87 -193 -242zM522 426c6 -13 10 -36 10 -63
c0 -26 -4 -50 -10 -63h-248c-6 13 -10 37 -10 63c0 27 4 50 10 63h248z" />
    <glyph glyph-name="Iota" unicode="&#x399;" horiz-adv-x="323" 
d="M86 9v693c15 8 41 13 76 13c36 0 61 -5 75 -13v-693c-14 -8 -39 -13 -75 -13c-35 0 -61 5 -76 13z" />
    <glyph glyph-name="Kappa" unicode="&#x39a;" horiz-adv-x="689" 
d="M236 702v-275h68l185 274c19 9 48 14 88 14s64 -5 77 -14l-227 -337l249 -354c-13 -9 -43 -14 -86 -14c-42 0 -74 5 -95 14l-199 287h-60v-288c-15 -8 -40 -13 -75 -13s-60 5 -75 13v693c15 8 40 13 75 13s60 -5 75 -13z" />
    <glyph glyph-name="Lambda" unicode="&#x39b;" horiz-adv-x="683" 
d="M510 10l-131 420c-17 55 -29 117 -38 180h-8c-9 -63 -21 -128 -37 -181l-126 -419c-17 -10 -44 -14 -78 -14c-38 0 -60 5 -76 14l231 698c22 6 56 10 92 10c38 0 70 -4 92 -10l235 -698c-14 -9 -40 -14 -78 -14s-61 5 -78 14z" />
    <glyph glyph-name="Mu" unicode="&#x39c;" horiz-adv-x="936" 
d="M715 7v587h-8c-8 -60 -32 -148 -48 -200l-119 -390c-15 -7 -38 -10 -73 -10c-31 0 -56 3 -71 10l-123 395c-15 47 -38 139 -44 195h-8v-587c-14 -8 -36 -11 -68 -11c-30 0 -53 3 -67 11v697c27 7 64 11 112 11c50 0 87 -4 113 -11l115 -368c17 -54 34 -130 42 -197h8
c9 67 24 145 39 195l110 370c26 7 63 11 113 11c48 0 85 -4 112 -11v-697c-14 -8 -35 -11 -67 -11c-30 0 -54 3 -68 11z" />
    <glyph glyph-name="Nu" unicode="&#x39d;" horiz-adv-x="775" 
d="M229 557v-549c-14 -8 -37 -12 -72 -12c-33 0 -56 4 -71 12v698c24 6 56 10 99 10c44 0 75 -4 98 -10l193 -351c25 -46 51 -124 63 -183h8v531c14 8 36 12 71 12c33 0 56 -4 71 -12v-698c-20 -6 -50 -10 -93 -10c-44 0 -74 4 -93 10l-204 370c-23 41 -48 113 -62 182h-8z
" />
    <glyph glyph-name="Xi" unicode="&#x39e;" horiz-adv-x="614" 
d="M100 422h413c6 -13 10 -35 10 -62c0 -26 -4 -50 -10 -63h-413c-6 13 -10 37 -10 63c0 27 4 49 10 62zM68 711h478c6 -12 10 -37 10 -64s-4 -51 -10 -63h-478c-6 12 -10 36 -10 63s4 52 10 64zM60 128h494c6 -12 10 -37 10 -64s-4 -52 -10 -64h-494c-6 12 -10 37 -10 64
s4 52 10 64z" />
    <glyph glyph-name="Omicron" unicode="&#x39f;" horiz-adv-x="779" 
d="M390 734c202 0 338 -128 338 -371c0 -251 -133 -386 -338 -386c-218 0 -339 127 -339 386c0 233 142 371 339 371zM207 363c0 -163 67 -254 183 -254c119 0 182 91 182 254c0 150 -72 240 -182 240c-119 0 -183 -88 -183 -240z" />
    <glyph glyph-name="Pi" unicode="&#x3a0;" horiz-adv-x="759" 
d="M523 9v571h-287v-571c-15 -8 -40 -13 -75 -13s-60 5 -75 13v702h587v-702c-15 -8 -40 -13 -75 -13s-60 5 -75 13z" />
    <glyph glyph-name="Rho" unicode="&#x3a1;" horiz-adv-x="637" 
d="M86 9v694c54 12 136 19 211 19c202 0 323 -69 323 -245c0 -179 -123 -257 -276 -257c-32 0 -82 3 -107 7v-218c-14 -8 -39 -13 -75 -13c-35 0 -61 5 -76 13zM308 593c-25 0 -50 -2 -72 -6v-232c21 -4 58 -7 88 -7c89 0 143 35 143 120c0 88 -57 125 -159 125z" />
    <glyph glyph-name="Sigma" unicode="&#x3a3;" horiz-adv-x="613" 
d="M443 373l-207 -224v-8h322c7 -13 10 -41 10 -70c0 -28 -3 -58 -10 -71h-488c-17 36 -24 75 -24 117l210 241l-206 234c0 43 7 83 23 119h478c6 -12 10 -36 10 -61s-4 -50 -10 -62h-301v-8z" />
    <glyph glyph-name="Tau" unicode="&#x3a4;" horiz-adv-x="611" 
d="M582 578h-201v-569c-14 -8 -39 -13 -75 -13s-61 5 -76 13v569h-201c-6 13 -11 40 -11 67s5 53 11 66h553c6 -13 11 -39 11 -66s-5 -54 -11 -67z" />
    <glyph glyph-name="Upsilon" unicode="&#x3a5;" horiz-adv-x="636" 
d="M240 9v67c0 140 -20 191 -143 446l-86 179c14 9 41 14 80 14c37 0 63 -5 80 -14l57 -127c46 -103 72 -174 89 -261h8c14 86 38 152 90 264l58 124c17 10 43 14 78 14c38 0 59 -5 75 -14l-90 -179c-126 -250 -145 -301 -145 -443v-70c-14 -8 -39 -13 -75 -13
c-35 0 -61 5 -76 13z" />
    <glyph glyph-name="Phi" unicode="&#x3a6;" horiz-adv-x="871" 
d="M510 33v-69c-14 -8 -38 -13 -74 -13c-34 0 -59 5 -74 13v69c-211 17 -324 121 -324 330c0 186 130 294 324 314v70c15 8 40 13 74 13c36 0 60 -5 74 -13v-69c198 -17 323 -119 323 -315c0 -202 -123 -311 -323 -330zM683 363c0 111 -64 174 -176 190v-395
c118 16 176 80 176 205zM189 363c0 -122 60 -187 176 -204v394c-118 -14 -176 -77 -176 -190z" />
    <glyph glyph-name="Chi" unicode="&#x3a7;" horiz-adv-x="668" 
d="M220 702l90 -149c15 -24 28 -47 34 -69h8c6 23 19 47 33 70l91 148c18 8 46 13 84 13c36 0 62 -5 74 -13l-208 -329l225 -364c-12 -9 -40 -13 -77 -13c-42 0 -70 5 -91 13l-113 188c-15 24 -27 46 -33 69h-8c-6 -23 -20 -47 -34 -70l-116 -187c-19 -8 -48 -13 -87 -13
c-35 0 -62 5 -74 13l234 369l-197 324c12 9 39 13 76 13c41 0 69 -5 89 -13z" />
    <glyph glyph-name="Psi" unicode="&#x3a8;" horiz-adv-x="811" 
d="M189 702v-170c0 -146 25 -206 144 -218v388c15 8 40 13 73 13c35 0 59 -5 73 -13v-388c119 13 143 78 143 213v175c15 8 41 13 74 13c35 0 60 -5 74 -13v-171c0 -220 -58 -334 -291 -348v-174c-14 -8 -38 -13 -73 -13c-33 0 -58 5 -73 13v174c-240 14 -292 127 -292 335
v184c15 8 41 13 74 13c35 0 60 -5 74 -13z" />
    <glyph glyph-name="uni03A9" unicode="&#x3a9;" horiz-adv-x="831" 
d="M40 134h156v8c-71 38 -123 121 -123 251c0 207 138 341 345 341c212 0 341 -137 341 -335c0 -141 -65 -221 -127 -257v-8h159c6 -13 11 -39 11 -66c0 -28 -5 -55 -11 -68h-314c-14 39 -19 82 -19 132c81 42 145 115 145 246c0 116 -49 224 -187 224
c-132 0 -187 -99 -187 -218c0 -124 59 -211 147 -252c0 -51 -5 -92 -19 -132h-317c-6 13 -11 40 -11 68c0 27 5 53 11 66z" />
    <glyph glyph-name="Iotadieresis" unicode="&#x3aa;" horiz-adv-x="323" 
d="M86 9v693c15 8 41 13 76 13c36 0 61 -5 75 -13v-693c-14 -8 -39 -13 -75 -13c-35 0 -61 5 -76 13zM267 916c41 0 73 -24 73 -72c0 -50 -31 -76 -73 -76c-50 0 -78 26 -78 76c0 44 32 72 78 72zM60 916c41 0 73 -24 73 -72c0 -50 -31 -76 -73 -76c-50 0 -78 26 -78 76
c0 44 32 72 78 72z" />
    <glyph glyph-name="Upsilondieresis" unicode="&#x3ab;" horiz-adv-x="636" 
d="M240 9v67c0 140 -20 191 -143 446l-86 179c14 9 41 14 80 14c37 0 63 -5 80 -14l57 -127c46 -103 72 -174 89 -261h8c14 86 38 152 90 264l58 124c17 10 43 14 78 14c38 0 59 -5 75 -14l-90 -179c-126 -250 -145 -301 -145 -443v-70c-14 -8 -39 -13 -75 -13
c-35 0 -61 5 -76 13zM188 916c41 0 73 -24 73 -72c0 -50 -31 -76 -73 -76c-50 0 -78 26 -78 76c0 44 32 72 78 72zM455 916c41 0 73 -24 73 -72c0 -50 -31 -76 -73 -76c-50 0 -78 26 -78 76c0 44 32 72 78 72z" />
    <glyph glyph-name="alphatonos" unicode="&#x3ac;" horiz-adv-x="630" 
d="M548 491c-17 -60 -32 -157 -32 -248c0 -95 15 -134 68 -134c13 0 22 1 30 4c5 -40 -9 -97 -28 -125c-19 -7 -36 -8 -56 -8c-57 0 -109 27 -135 96h-8c-28 -67 -82 -96 -152 -96c-125 0 -189 91 -189 258c0 197 91 280 212 280c70 0 109 -26 132 -83h8c4 21 9 41 16 56
c16 9 38 13 67 13c21 0 50 -4 67 -13zM380 328c-13 43 -41 67 -86 67c-64 0 -99 -45 -99 -150c0 -94 28 -142 92 -142c46 0 74 25 90 62c-3 21 -4 42 -4 67c0 30 2 65 7 96zM467 750l-143 -198c-33 4 -67 23 -82 47l99 185c40 4 94 -4 126 -34z" />
    <glyph glyph-name="epsilontonos" unicode="&#x3ad;" horiz-adv-x="508" 
d="M146 256v8c-55 12 -79 49 -79 106c0 108 84 148 204 148c63 0 118 -11 160 -38c13 -26 21 -73 16 -110c-49 22 -89 35 -144 35c-64 0 -87 -16 -87 -49c0 -36 29 -51 93 -51h81c13 -25 17 -76 9 -102h-82c-86 0 -122 -15 -122 -56c0 -39 31 -52 96 -52c71 0 136 16 181 34
c4 -38 -14 -92 -40 -121c-49 -20 -109 -28 -169 -28c-132 0 -219 38 -219 148c0 72 38 111 102 128zM448 750l-143 -198c-33 4 -67 23 -82 47l99 185c40 4 94 -4 126 -34z" />
    <glyph glyph-name="etatonos" unicode="&#x3ae;" horiz-adv-x="622" 
d="M231 326v-318c-13 -7 -37 -12 -72 -12s-59 5 -73 12v328c0 34 -7 47 -42 47h-24c0 34 6 85 22 119h44c83 0 113 -27 126 -83h8c27 62 76 99 170 99c82 0 167 -28 167 -192v-559c-13 -7 -37 -12 -72 -12s-59 5 -73 12v528c0 54 -15 90 -78 90c-53 0 -85 -25 -103 -59z
M508 750l-143 -198c-33 4 -67 23 -82 47l99 185c40 4 94 -4 126 -34z" />
    <glyph glyph-name="iotatonos" unicode="&#x3af;" horiz-adv-x="333" 
d="M68 138v352c14 7 38 12 73 12s59 -5 72 -12v-323c0 -47 14 -58 51 -58c20 0 41 6 61 17c4 -40 -10 -98 -28 -123c-23 -14 -55 -23 -92 -23c-104 0 -137 61 -137 158zM327 750l-143 -198c-33 4 -67 23 -82 47l99 185c40 4 94 -4 126 -34z" />
    <glyph glyph-name="upsilondieresistonos" unicode="&#x3b0;" horiz-adv-x="589" 
d="M41 499h35c93 0 154 -18 154 -131c0 -63 -13 -102 -13 -164c0 -91 39 -103 78 -103c72 0 101 45 101 168c0 92 -22 166 -43 214c14 14 41 21 75 21c26 0 48 -3 62 -12c25 -45 53 -124 53 -215c0 -170 -45 -297 -262 -297c-113 0 -209 35 -209 209c0 61 13 91 13 149
c0 30 -9 42 -42 42h-24c0 34 6 85 22 119zM396 752l-88 -187c-38 0 -71 10 -84 29l61 185c45 0 74 -4 111 -27zM150 715c37 0 63 -21 63 -62c0 -43 -26 -65 -63 -65c-41 0 -65 22 -65 65c0 38 27 62 65 62zM449 715c37 0 63 -21 63 -62c0 -43 -26 -65 -63 -65
c-41 0 -65 22 -65 65c0 38 27 62 65 62z" />
    <glyph glyph-name="alpha" unicode="&#x3b1;" horiz-adv-x="630" 
d="M548 491c-17 -60 -32 -157 -32 -248c0 -95 15 -134 68 -134c13 0 22 1 30 4c5 -40 -9 -97 -28 -125c-19 -7 -36 -8 -56 -8c-57 0 -109 27 -135 96h-8c-28 -67 -82 -96 -152 -96c-125 0 -189 91 -189 258c0 197 91 280 212 280c70 0 109 -26 132 -83h8c4 21 9 41 16 56
c16 9 38 13 67 13c21 0 50 -4 67 -13zM380 328c-13 43 -41 67 -86 67c-64 0 -99 -45 -99 -150c0 -94 28 -142 92 -142c46 0 74 25 90 62c-3 21 -4 42 -4 67c0 30 2 65 7 96z" />
    <glyph glyph-name="beta" unicode="&#x3b2;" horiz-adv-x="626" 
d="M227 41h-9v-274c-13 -7 -37 -12 -72 -12s-59 5 -73 12v733c0 169 72 258 246 258c128 0 222 -57 222 -194c0 -78 -33 -146 -118 -168v-8c93 -18 159 -77 159 -189c0 -148 -80 -219 -215 -219c-70 0 -115 25 -140 61zM216 531v-398c23 -22 59 -35 101 -35
c78 0 119 39 119 117c0 84 -51 122 -127 122h-32c-1 33 4 74 17 105h13c50 0 95 32 95 105c0 64 -27 99 -91 99c-65 0 -95 -38 -95 -115z" />
    <glyph glyph-name="gamma" unicode="&#x3b3;" horiz-adv-x="495" 
d="M143 495c36 -58 68 -131 89 -205c13 -46 22 -85 25 -129h8c35 88 60 220 65 334c11 4 28 9 59 9c40 0 67 -8 85 -20c-20 -177 -83 -353 -180 -458c5 -36 7 -85 7 -126c0 -51 -2 -92 -7 -133c-13 -7 -36 -12 -68 -12c-30 0 -54 5 -69 12c4 42 5 87 5 139
c0 219 -56 406 -164 578c18 12 37 20 83 20c31 0 48 -4 62 -9z" />
    <glyph glyph-name="delta" unicode="&#x3b4;" horiz-adv-x="593" 
d="M47 189c0 112 55 171 152 209v8c-87 38 -125 82 -125 166c0 124 82 186 230 186c82 0 147 -15 196 -44c22 -29 31 -92 28 -126c-79 42 -131 61 -232 61c-64 0 -89 -25 -89 -64c0 -51 19 -61 167 -123c86 -36 177 -100 177 -243c0 -154 -99 -239 -266 -239
c-151 0 -238 69 -238 209zM407 201c0 80 -43 117 -107 147c-75 -32 -111 -69 -111 -144c0 -79 43 -107 108 -107c66 0 110 33 110 104z" />
    <glyph glyph-name="epsilon" unicode="&#x3b5;" horiz-adv-x="508" 
d="M146 256v8c-55 12 -79 49 -79 106c0 108 84 148 204 148c63 0 118 -11 160 -38c13 -26 21 -73 16 -110c-49 22 -89 35 -144 35c-64 0 -87 -16 -87 -49c0 -36 29 -51 93 -51h81c13 -25 17 -76 9 -102h-82c-86 0 -122 -15 -122 -56c0 -39 31 -52 96 -52c71 0 136 16 181 34
c4 -38 -14 -92 -40 -121c-49 -20 -109 -28 -169 -28c-132 0 -219 38 -219 148c0 72 38 111 102 128z" />
    <glyph glyph-name="zeta" unicode="&#x3b6;" horiz-adv-x="476" 
d="M94 726h104c86 0 152 8 222 26c20 -21 32 -76 29 -113c-142 -62 -264 -189 -264 -355c0 -91 18 -111 105 -140c98 -33 177 -67 177 -184c0 -85 -35 -136 -90 -182c-47 15 -68 35 -86 76c23 20 33 40 33 72c0 58 -24 75 -124 106c-86 27 -163 78 -163 222
c0 181 103 290 222 358v8c-38 -10 -70 -15 -125 -15h-60c0 42 7 90 20 121z" />
    <glyph glyph-name="eta" unicode="&#x3b7;" horiz-adv-x="622" 
d="M231 326v-318c-13 -7 -37 -12 -72 -12s-59 5 -73 12v328c0 34 -7 47 -42 47h-24c0 34 6 85 22 119h44c83 0 113 -27 126 -83h8c27 62 76 99 170 99c82 0 167 -28 167 -192v-559c-13 -7 -37 -12 -72 -12s-59 5 -73 12v528c0 54 -15 90 -78 90c-53 0 -85 -25 -103 -59z" />
    <glyph glyph-name="theta" unicode="&#x3b8;" horiz-adv-x="629" 
d="M314 758c167 0 264 -109 264 -381c0 -281 -93 -397 -264 -397c-179 0 -263 112 -263 397c0 259 98 381 263 381zM314 92c79 0 116 70 121 231h-241c5 -159 43 -231 120 -231zM314 647c-80 0 -116 -65 -120 -216h240c-5 149 -46 216 -120 216z" />
    <glyph glyph-name="iota" unicode="&#x3b9;" horiz-adv-x="333" 
d="M68 138v352c14 7 38 12 73 12s59 -5 72 -12v-323c0 -47 14 -58 51 -58c20 0 41 6 61 17c4 -40 -10 -98 -28 -123c-23 -14 -55 -23 -92 -23c-104 0 -137 61 -137 158z" />
    <glyph glyph-name="kappa" unicode="&#x3ba;" horiz-adv-x="593" 
d="M71 8v482c14 7 38 12 73 12s59 -5 72 -12v-186l116 118c74 75 107 89 200 89c6 -11 9 -35 9 -60c0 -24 -3 -48 -9 -59c-52 0 -66 -7 -116 -55l-38 -36c57 -102 117 -196 197 -293c-14 -9 -46 -13 -80 -13c-39 0 -77 5 -94 13c-50 63 -90 127 -131 208l-54 -51v-157
c-13 -7 -37 -12 -72 -12s-59 5 -73 12z" />
    <glyph glyph-name="lambda" unicode="&#x3bb;" horiz-adv-x="577" 
d="M25 8l194 527c-35 88 -52 104 -107 104c-30 0 -51 -8 -68 -19c-6 31 7 93 32 124c19 9 47 14 76 14c116 0 161 -73 202 -182l210 -568c-16 -8 -39 -12 -76 -12s-61 3 -78 12l-66 194c-20 58 -40 137 -50 199h-8c-8 -59 -26 -132 -46 -197l-62 -196
c-17 -9 -42 -12 -77 -12c-37 0 -62 4 -76 12z" />
    <glyph glyph-name="uni03BC" unicode="&#x3bc;" horiz-adv-x="638" 
d="M399 162v328c14 7 38 12 73 12s59 -5 72 -12v-339c0 -34 15 -40 36 -40c19 0 37 7 48 15c5 -40 -9 -92 -27 -120c-21 -16 -49 -26 -85 -26c-59 0 -85 26 -94 58h-8c-13 -30 -50 -58 -117 -58c-50 0 -80 15 -95 46h-8c14 -42 22 -107 22 -170v-89c-13 -7 -37 -12 -72 -12
s-59 5 -73 12v711c34 19 82 30 145 30v-302c0 -56 23 -90 85 -90c48 0 82 20 98 46z" />
    <glyph glyph-name="nu" unicode="&#x3bd;" horiz-adv-x="532" 
d="M294 -9c-51 0 -104 7 -141 21l-143 472c17 12 47 20 89 20c29 0 48 -5 58 -9l67 -257c12 -44 18 -74 24 -127h8c63 66 103 133 103 250c0 55 -6 93 -17 123c16 13 40 20 73 20c25 0 44 -4 59 -13c14 -29 23 -72 23 -121c0 -168 -89 -290 -203 -379z" />
    <glyph glyph-name="xi" unicode="&#x3be;" horiz-adv-x="500" 
d="M434 306h-97c-75 0 -144 -28 -144 -97c0 -53 21 -64 109 -84c96 -22 178 -62 178 -168c0 -84 -35 -134 -89 -179c-47 15 -68 35 -86 76c23 20 33 39 33 71c0 51 -35 67 -137 92c-94 23 -155 63 -155 157c0 95 50 144 133 170v8c-63 12 -101 41 -101 107
c0 73 47 123 143 149v8c-34 -9 -66 -11 -104 -11h-39c0 42 7 90 20 121h105c85 0 156 7 230 22c18 -20 31 -74 27 -110c-168 -31 -236 -78 -236 -151c0 -63 50 -79 132 -79h68c13 -25 18 -76 10 -102z" />
    <glyph glyph-name="omicron" unicode="&#x3bf;" horiz-adv-x="580" 
d="M290 518c151 0 249 -91 249 -261c0 -180 -95 -277 -249 -277c-161 0 -249 92 -249 277c0 164 101 261 249 261zM190 256c0 -99 34 -157 100 -157c69 0 100 58 100 157c0 88 -36 143 -100 143c-67 0 -100 -55 -100 -143z" />
    <glyph glyph-name="pi" unicode="&#x3c0;" horiz-adv-x="625" 
d="M24 498h578c6 -12 9 -37 9 -62s-3 -50 -9 -62h-87v-222c0 -32 12 -42 38 -42c16 0 31 5 44 14c6 -40 -11 -101 -31 -126c-18 -11 -43 -18 -76 -18c-87 0 -120 53 -120 137v257h-135v-366c-13 -7 -37 -12 -72 -12s-59 5 -73 12v366h-86c0 43 7 92 20 124z" />
    <glyph glyph-name="rho" unicode="&#x3c1;" horiz-adv-x="598" 
d="M204 46v-279c-13 -7 -37 -12 -72 -12s-59 5 -73 12v481c0 177 75 270 252 270c136 0 244 -61 244 -261c0 -174 -74 -277 -203 -277c-70 0 -117 25 -140 66h-8zM202 137c18 -21 52 -38 93 -38c73 0 113 49 113 154c0 97 -28 146 -104 146c-68 0 -102 -45 -102 -132v-130z
" />
    <glyph glyph-name="sigma1" unicode="&#x3c2;" horiz-adv-x="489" 
d="M187 276c0 -77 25 -102 86 -124c112 -41 186 -72 186 -192c0 -80 -34 -134 -93 -175c-47 15 -68 35 -86 76c23 20 35 38 35 70c0 45 -22 62 -82 86c-101 40 -195 73 -195 242c0 172 99 259 248 259c53 0 96 -10 125 -28c22 -30 32 -85 27 -127c-36 19 -72 30 -122 30
c-86 0 -129 -38 -129 -117z" />
    <glyph glyph-name="sigma" unicode="&#x3c3;" horiz-adv-x="635" 
d="M622 376h-103c-36 0 -62 7 -80 14v-9c52 -29 95 -74 95 -167c0 -159 -100 -234 -254 -234c-158 0 -242 81 -242 243c0 187 85 285 284 285c72 0 88 -10 210 -10h90c6 -12 9 -36 9 -61s-3 -49 -9 -61zM389 241c0 79 -27 124 -66 150h-13c-92 0 -123 -58 -123 -158
c0 -88 34 -134 98 -134c67 0 104 47 104 142z" />
    <glyph glyph-name="tau" unicode="&#x3c4;" horiz-adv-x="503" 
d="M28 498h444c6 -12 9 -36 9 -61s-3 -49 -9 -61h-174v-197c0 -51 12 -69 63 -69c28 0 51 6 77 23c5 -41 -9 -99 -28 -127c-28 -17 -60 -26 -105 -26c-120 0 -152 61 -152 172v224h-145c0 42 7 91 20 122z" />
    <glyph glyph-name="upsilon" unicode="&#x3c5;" horiz-adv-x="589" 
d="M41 499h35c93 0 154 -18 154 -131c0 -63 -13 -102 -13 -164c0 -91 39 -103 78 -103c72 0 101 45 101 168c0 92 -22 166 -43 214c14 14 41 21 75 21c26 0 48 -3 62 -12c25 -45 53 -124 53 -215c0 -170 -45 -297 -262 -297c-113 0 -209 35 -209 209c0 61 13 91 13 149
c0 30 -9 42 -42 42h-24c0 34 6 85 22 119z" />
    <glyph glyph-name="phi" unicode="&#x3c6;" horiz-adv-x="753" 
d="M377 -245c-35 0 -57 5 -71 12v217c-175 15 -273 102 -273 273c0 151 108 239 273 257v203c34 19 77 29 141 29v-231c166 -15 273 -100 273 -258c0 -167 -105 -257 -273 -273v-217c-15 -7 -36 -12 -70 -12zM589 256c0 88 -57 137 -146 147v-309c95 12 146 63 146 162z
M164 256c0 -98 53 -147 146 -160v307c-93 -10 -146 -61 -146 -147z" />
    <glyph glyph-name="chi" unicode="&#x3c7;" horiz-adv-x="525" 
d="M228 14h-8c-7 -40 -20 -76 -39 -117l-61 -132c-16 -8 -46 -12 -82 -12c-31 0 -56 4 -70 12l206 406l-35 134c-19 74 -43 87 -103 87h-11c0 38 7 84 23 115h8c130 0 177 -36 208 -170l18 -78h8c9 41 17 75 41 129l48 109c12 5 39 7 62 7c34 0 69 -6 86 -17l-195 -381
l45 -151c23 -78 43 -94 109 -94h25c5 -11 8 -34 8 -57s-3 -46 -8 -57h-40c-144 0 -187 39 -220 173z" />
    <glyph glyph-name="psi" unicode="&#x3c8;" horiz-adv-x="802" 
d="M173 492c22 -48 29 -99 29 -164v-92c0 -92 48 -131 133 -135v524c33 19 77 29 139 29v-552c92 8 139 61 139 167c0 96 -21 167 -43 214c14 14 41 21 75 21c26 0 48 -3 62 -12c34 -63 51 -136 51 -217c0 -186 -92 -279 -284 -294v-214c-13 -7 -35 -12 -69 -12
s-56 5 -70 12v214c-180 5 -274 84 -274 247v69c0 72 -6 134 -23 186c14 14 40 21 70 21c26 0 50 -2 65 -12z" />
    <glyph glyph-name="omega" unicode="&#x3c9;" horiz-adv-x="836" 
d="M486 376v-173c0 -88 35 -104 75 -104c51 0 81 34 81 141c0 97 -26 186 -56 244c15 13 40 21 74 21c27 0 49 -4 63 -12c35 -59 68 -149 68 -265c0 -134 -39 -248 -209 -248c-76 0 -138 28 -160 100h-8c-23 -73 -86 -100 -162 -100c-167 0 -207 114 -207 247
c0 114 31 206 67 266c13 7 36 12 63 12c35 0 60 -6 76 -21c-30 -59 -57 -144 -57 -243c0 -107 30 -142 83 -142c36 0 74 14 74 93v162c41 17 76 22 135 22z" />
    <glyph glyph-name="iotadieresis" unicode="&#x3ca;" horiz-adv-x="333" 
d="M68 138v352c14 7 38 12 73 12s59 -5 72 -12v-323c0 -47 14 -58 51 -58c20 0 41 6 61 17c4 -40 -10 -98 -28 -123c-23 -14 -55 -23 -92 -23c-104 0 -137 61 -137 158zM27 720c41 0 71 -24 71 -70c0 -48 -29 -73 -71 -73c-48 0 -74 25 -74 73c0 43 30 70 74 70zM264 720
c41 0 71 -24 71 -70c0 -48 -29 -73 -71 -73c-48 0 -74 25 -74 73c0 43 30 70 74 70z" />
    <glyph glyph-name="upsilondieresis" unicode="&#x3cb;" horiz-adv-x="589" 
d="M41 499h35c93 0 154 -18 154 -131c0 -63 -13 -102 -13 -164c0 -91 39 -103 78 -103c72 0 101 45 101 168c0 92 -22 166 -43 214c14 14 41 21 75 21c26 0 48 -3 62 -12c25 -45 53 -124 53 -215c0 -170 -45 -297 -262 -297c-113 0 -209 35 -209 209c0 61 13 91 13 149
c0 30 -9 42 -42 42h-24c0 34 6 85 22 119zM174 720c41 0 71 -24 71 -70c0 -48 -29 -73 -71 -73c-48 0 -74 25 -74 73c0 43 30 70 74 70zM411 720c42 0 71 -24 71 -70c0 -48 -29 -73 -71 -73c-47 0 -73 25 -73 73c0 43 30 70 73 70z" />
    <glyph glyph-name="omicrontonos" unicode="&#x3cc;" horiz-adv-x="580" 
d="M290 518c151 0 249 -91 249 -261c0 -180 -95 -277 -249 -277c-161 0 -249 92 -249 277c0 164 101 261 249 261zM190 256c0 -99 34 -157 100 -157c69 0 100 58 100 157c0 88 -36 143 -100 143c-67 0 -100 -55 -100 -143zM477 750l-143 -198c-33 4 -67 23 -82 47l99 185
c40 4 94 -4 126 -34z" />
    <glyph glyph-name="upsilontonos" unicode="&#x3cd;" horiz-adv-x="589" 
d="M468 750l-143 -198c-33 4 -67 23 -82 47l99 185c40 4 94 -4 126 -34zM41 499h35c93 0 154 -18 154 -131c0 -63 -13 -102 -13 -164c0 -91 39 -103 78 -103c72 0 101 45 101 168c0 92 -22 166 -43 214c14 14 41 21 75 21c26 0 48 -3 62 -12c25 -45 53 -124 53 -215
c0 -170 -45 -297 -262 -297c-113 0 -209 35 -209 209c0 61 13 91 13 149c0 30 -9 42 -42 42h-24c0 34 6 85 22 119z" />
    <glyph glyph-name="omegatonos" unicode="&#x3ce;" horiz-adv-x="836" 
d="M486 376v-173c0 -88 35 -104 75 -104c51 0 81 34 81 141c0 97 -26 186 -56 244c15 13 40 21 74 21c27 0 49 -4 63 -12c35 -59 68 -149 68 -265c0 -134 -39 -248 -209 -248c-76 0 -138 28 -160 100h-8c-23 -73 -86 -100 -162 -100c-167 0 -207 114 -207 247
c0 114 31 206 67 266c13 7 36 12 63 12c35 0 60 -6 76 -21c-30 -59 -57 -144 -57 -243c0 -107 30 -142 83 -142c36 0 74 14 74 93v162c41 17 76 22 135 22zM603 750l-143 -198c-33 4 -67 23 -82 47l99 185c40 4 94 -4 126 -34z" />
    <glyph glyph-name="uni03D0" unicode="&#x3d0;" horiz-adv-x="611" 
d="M532 586c0 -70 -26 -121 -70 -157v-8c70 -41 107 -113 107 -204c0 -148 -86 -237 -255 -237c-190 0 -267 134 -267 382c0 237 94 396 290 396c133 0 195 -68 195 -172zM371 354c-50 -30 -111 -52 -179 -72c9 -126 51 -185 129 -185c69 0 108 42 108 125
c0 56 -20 100 -58 132zM327 648c-80 0 -138 -75 -140 -256c137 43 208 99 208 183c0 51 -17 73 -68 73z" />
    <glyph glyph-name="theta1" unicode="&#x3d1;" horiz-adv-x="619" 
d="M427 330c-212 10 -331 94 -331 233c0 136 73 195 212 195c182 0 264 -135 264 -377c0 -270 -91 -401 -282 -401c-138 0 -212 59 -212 186v26c0 29 -8 37 -28 37c-14 0 -24 -5 -33 -12c-4 36 5 84 24 110c17 11 42 17 71 17c85 0 103 -49 103 -130v-28
c0 -63 27 -87 85 -87c88 0 124 84 127 231zM229 571c0 -81 66 -120 197 -128c-6 135 -42 205 -125 205c-46 0 -72 -22 -72 -77z" />
    <glyph glyph-name="phi1" unicode="&#x3d5;" horiz-adv-x="796" 
d="M189 274c0 -100 32 -156 135 -170v168c0 166 59 246 213 246c149 0 220 -83 220 -243c0 -182 -94 -277 -296 -293v-215c-13 -7 -34 -12 -68 -12s-55 5 -69 12v215c-197 13 -280 100 -280 276c0 95 27 179 64 234c14 9 35 12 61 12c32 0 58 -7 73 -21
c-33 -56 -53 -125 -53 -209zM459 290v-186c114 13 155 68 155 168c0 84 -27 128 -83 128c-51 0 -72 -27 -72 -110z" />
    <glyph glyph-name="uni0400" unicode="&#x400;" horiz-adv-x="620" 
d="M86 711h471c6 -12 10 -37 10 -64s-4 -52 -10 -64h-322v-161h297c6 -13 10 -36 10 -63c0 -26 -4 -50 -10 -63h-297v-167h330c6 -12 10 -37 10 -64s-4 -53 -10 -65h-479v711zM195 959l225 -112c0 -33 -15 -72 -37 -95l-249 93c5 44 28 86 61 114z" />
    <glyph glyph-name="uni0401" unicode="&#x401;" horiz-adv-x="620" 
d="M86 711h471c6 -12 10 -37 10 -64s-4 -52 -10 -64h-322v-161h297c6 -13 10 -36 10 -63c0 -26 -4 -50 -10 -63h-297v-167h330c6 -12 10 -37 10 -64s-4 -53 -10 -65h-479v711zM196 916c41 0 73 -24 73 -72c0 -50 -31 -76 -73 -76c-50 0 -78 26 -78 76c0 44 32 72 78 72z
M463 916c41 0 73 -24 73 -72c0 -50 -31 -76 -73 -76c-50 0 -78 26 -78 76c0 44 32 72 78 72z" />
    <glyph glyph-name="uni0402" unicode="&#x402;" horiz-adv-x="768" 
d="M401 103h11c109 0 164 34 164 113c0 85 -62 108 -149 108c-36 0 -75 -4 -100 -13v-302c-15 -8 -40 -13 -75 -13s-60 5 -75 13v575h-145c-6 12 -10 37 -10 64s4 51 10 63h566c6 -12 10 -36 10 -63s-4 -52 -10 -64h-271v-148c37 12 81 18 131 18c146 0 270 -50 270 -232
c0 -174 -115 -240 -291 -240h-11c-19 34 -25 72 -25 121z" />
    <glyph glyph-name="uni0403" unicode="&#x403;" horiz-adv-x="578" 
d="M237 577v-568c-14 -8 -39 -13 -75 -13c-35 0 -61 5 -76 13v702h464c6 -13 11 -39 11 -66c0 -28 -5 -55 -11 -68h-313zM464 959c30 -28 46 -72 47 -116l-249 -92c-20 23 -30 60 -32 94z" />
    <glyph glyph-name="uni0404" unicode="&#x404;" horiz-adv-x="655" 
d="M596 570c-52 25 -95 35 -159 35c-117 0 -209 -49 -228 -181h342c6 -13 10 -35 10 -62c0 -26 -4 -50 -10 -63h-344c14 -138 106 -190 227 -190c70 0 127 15 174 34c2 -35 -16 -101 -40 -131c-47 -22 -110 -35 -180 -35c-212 0 -339 136 -339 370c0 249 149 387 362 387
c61 0 115 -10 157 -32c22 -33 33 -90 28 -132z" />
    <glyph glyph-name="uni0405" unicode="&#x405;" horiz-adv-x="577" 
d="M42 162c55 -33 150 -57 224 -57c89 0 124 34 124 87c0 147 -333 68 -333 324c0 143 94 218 248 218c67 0 124 -14 176 -44c22 -36 33 -93 27 -138c-54 33 -124 56 -192 56c-74 0 -107 -27 -107 -73c0 -138 331 -65 331 -324c0 -176 -121 -234 -272 -234
c-74 0 -144 14 -199 40c-24 39 -33 102 -27 145z" />
    <glyph glyph-name="uni0406" unicode="&#x406;" horiz-adv-x="323" 
d="M86 9v693c15 8 41 13 76 13c36 0 61 -5 75 -13v-693c-14 -8 -39 -13 -75 -13c-35 0 -61 5 -76 13z" />
    <glyph glyph-name="uni0407" unicode="&#x407;" horiz-adv-x="323" 
d="M86 9v693c15 8 41 13 76 13c36 0 61 -5 75 -13v-693c-14 -8 -39 -13 -75 -13c-35 0 -61 5 -76 13zM267 916c41 0 73 -24 73 -72c0 -50 -31 -76 -73 -76c-50 0 -78 26 -78 76c0 44 32 72 78 72zM60 916c41 0 73 -24 73 -72c0 -50 -31 -76 -73 -76c-50 0 -78 26 -78 76
c0 44 32 72 78 72z" />
    <glyph glyph-name="uni0408" unicode="&#x408;" horiz-adv-x="356" 
d="M273 702v-530c0 -191 -70 -303 -215 -379c-40 20 -68 65 -75 116c101 58 139 128 139 246v547c15 8 41 13 76 13c36 0 61 -5 75 -13z" />
    <glyph glyph-name="uni0409" unicode="&#x409;" horiz-adv-x="1077" 
d="M676 711v-275c32 9 74 13 117 13c140 0 263 -53 263 -221c0 -172 -130 -233 -295 -233c-80 0 -167 3 -234 13v574h-205v-82c0 -301 -44 -499 -283 -522c-22 26 -33 85 -24 129c142 22 171 140 171 382v222h490zM674 313v-193c25 -4 56 -5 89 -5c91 0 143 32 143 104
c0 82 -58 105 -142 105c-34 0 -68 -4 -90 -11z" />
    <glyph glyph-name="uni040A" unicode="&#x40a;" horiz-adv-x="1076" 
d="M236 702v-274h290v274c15 8 39 13 74 13s60 -5 75 -13v-267c30 10 75 14 118 14c140 0 262 -53 262 -221c0 -172 -130 -233 -294 -233c-80 0 -168 3 -235 13v290h-290v-289c-15 -8 -40 -13 -75 -13s-60 5 -75 13v693c15 8 40 13 75 13s60 -5 75 -13zM673 313v-193
c25 -4 56 -5 89 -5c90 0 143 32 143 104c0 82 -59 105 -142 105c-33 0 -67 -4 -90 -11z" />
    <glyph glyph-name="uni040B" unicode="&#x40b;" horiz-adv-x="774" 
d="M592 584h-265v-154c36 14 89 22 148 22c157 0 238 -59 238 -219v-224c-15 -8 -40 -13 -75 -13s-60 5 -75 13v200c0 86 -37 110 -124 110c-46 0 -83 -7 -112 -18v-292c-15 -8 -40 -13 -75 -13s-60 5 -75 13v575h-145c-6 12 -10 37 -10 64s4 51 10 63h560
c6 -12 10 -36 10 -63s-4 -52 -10 -64z" />
    <glyph glyph-name="uni040C" unicode="&#x40c;" horiz-adv-x="715" 
d="M236 702v-280h54c70 0 102 24 122 84l21 63c37 112 84 155 197 155h18c5 -11 8 -35 8 -61c0 -25 -3 -50 -8 -61h-12c-38 0 -53 -17 -67 -62l-21 -67c-21 -67 -57 -93 -112 -108v-8c60 -22 83 -35 129 -118l126 -229c-14 -9 -42 -14 -83 -14c-44 0 -73 5 -94 14l-98 196
c-35 70 -61 88 -138 88h-42v-285c-15 -8 -40 -13 -75 -13s-60 5 -75 13v693c15 8 40 13 75 13s60 -5 75 -13zM490 959c30 -28 46 -72 47 -116l-249 -92c-20 23 -30 60 -32 94z" />
    <glyph glyph-name="uni040D" unicode="&#x40d;" horiz-adv-x="784" 
d="M562 8v579h-8c-14 -62 -49 -145 -74 -191l-214 -391c-22 -6 -42 -10 -84 -10c-40 0 -73 4 -96 10v698c14 8 34 12 68 12c33 0 53 -4 68 -12v-561h8c14 62 50 146 75 192l202 370c24 6 46 10 90 10c41 0 77 -4 101 -10v-696c-14 -8 -34 -12 -68 -12c-33 0 -53 4 -68 12z
M274 959l225 -112c0 -33 -15 -72 -37 -95l-249 93c5 44 28 86 61 114z" />
    <glyph glyph-name="uni040E" unicode="&#x40e;" horiz-adv-x="635" 
d="M63 128c30 -16 62 -22 95 -22c52 0 83 17 100 58l12 28l-235 509c14 9 40 14 79 14c37 0 62 -5 79 -14l100 -222c22 -48 43 -111 52 -168h8c7 58 24 125 43 171l91 219c17 10 42 14 76 14c37 0 57 -5 73 -14l-221 -520c-55 -129 -104 -204 -237 -204c-30 0 -63 3 -87 13
c-25 39 -33 95 -28 138zM452 955c37 0 68 -8 93 -27c-14 -102 -88 -162 -208 -162c-111 0 -179 51 -191 156c28 22 60 34 100 34c11 -67 44 -89 100 -89s89 22 106 88z" />
    <glyph glyph-name="uni040F" unicode="&#x40f;" horiz-adv-x="762" 
d="M236 702v-570h290v570c15 8 40 13 75 13s60 -5 75 -13v-702h-228v-192c-13 -7 -35 -11 -67 -11c-31 0 -53 4 -66 11v192h-229v702c15 8 40 13 75 13s60 -5 75 -13z" />
    <glyph glyph-name="uni0410" unicode="&#x410;" horiz-adv-x="692" 
d="M521 10l-50 154h-253l-50 -154c-17 -10 -44 -14 -78 -14c-38 0 -60 5 -76 14l242 698c21 6 54 10 90 10c37 0 70 -4 91 -10l240 -698c-14 -9 -40 -14 -78 -14s-61 5 -78 14zM255 287h177l-38 118c-20 62 -35 135 -46 205h-8c-11 -73 -29 -148 -48 -208z" />
    <glyph glyph-name="uni0411" unicode="&#x411;" horiz-adv-x="674" 
d="M235 584v-154c34 10 80 15 125 15c148 0 278 -52 278 -219c0 -172 -136 -231 -308 -231c-93 0 -179 5 -244 14v702h501c6 -12 10 -36 10 -63s-4 -52 -10 -64h-352zM233 313v-192c29 -4 62 -6 98 -6c99 0 155 31 155 104c0 82 -63 105 -154 105c-36 0 -75 -4 -99 -11z" />
    <glyph glyph-name="uni0412" unicode="&#x412;" horiz-adv-x="681" 
d="M507 379v-8c83 -23 136 -70 136 -168c0 -156 -136 -212 -309 -212c-87 0 -183 4 -248 12v699c62 12 141 21 224 21c172 0 296 -53 296 -194c0 -78 -39 -133 -99 -150zM235 302v-179c27 -3 61 -5 99 -5c97 0 154 28 154 92s-58 92 -152 92h-101zM235 591v-164h100
c74 0 118 27 118 83c0 61 -52 87 -139 87c-32 0 -58 -2 -79 -6z" />
    <glyph glyph-name="uni0413" unicode="&#x413;" horiz-adv-x="578" 
d="M237 577v-568c-14 -8 -39 -13 -75 -13c-35 0 -61 5 -76 13v702h464c6 -13 11 -39 11 -66c0 -28 -5 -55 -11 -68h-313z" />
    <glyph glyph-name="uni0414" unicode="&#x414;" horiz-adv-x="771" 
d="M609 0h-475v-192c-13 -7 -35 -11 -67 -11c-31 0 -53 4 -66 11v324h60c88 123 123 265 123 416v163h465v-579h93v-324c-13 -7 -35 -11 -67 -11c-31 0 -53 4 -66 11v192zM201 129h304v459h-186c0 -198 -31 -334 -118 -459z" />
    <glyph glyph-name="uni0415" unicode="&#x415;" horiz-adv-x="620" 
d="M86 711h471c6 -12 10 -37 10 -64s-4 -52 -10 -64h-322v-161h297c6 -13 10 -36 10 -63c0 -26 -4 -50 -10 -63h-297v-167h330c6 -12 10 -37 10 -64s-4 -53 -10 -65h-479v711z" />
    <glyph glyph-name="uni0416" unicode="&#x416;" horiz-adv-x="1049" 
d="M598 702v-281h35c69 0 99 25 118 88l18 61c32 110 85 154 197 154h16c5 -11 8 -35 8 -61c0 -25 -3 -50 -8 -61h-10c-36 0 -53 -17 -69 -72l-16 -53c-21 -70 -61 -99 -114 -111v-9c60 -21 88 -39 130 -118l122 -229c-13 -9 -41 -14 -81 -14c-43 0 -71 5 -91 14l-96 198
c-33 68 -59 87 -131 87h-28v-286c-15 -8 -39 -13 -74 -13s-59 5 -74 13v286h-25c-76 0 -103 -18 -135 -85l-97 -200c-20 -9 -48 -14 -90 -14c-39 0 -65 5 -79 14l122 228c40 75 71 96 131 117v9c-53 12 -96 40 -117 112l-17 57c-16 53 -31 69 -70 69h-6c-6 11 -9 36 -9 61
c0 26 3 50 9 61h18c109 0 161 -35 196 -151l19 -63c20 -68 50 -89 119 -89h31v281c15 8 39 13 74 13s59 -5 74 -13z" />
    <glyph glyph-name="uni0417" unicode="&#x417;" horiz-adv-x="631" 
d="M452 376v-8c81 -25 131 -75 131 -173c0 -158 -131 -218 -310 -218c-69 0 -139 9 -193 30c-23 40 -33 92 -28 137c58 -23 134 -37 213 -37c100 0 162 21 162 97c0 68 -47 99 -173 99h-96c-6 13 -10 36 -10 61c0 27 4 49 10 62h99c99 0 147 26 147 97c0 68 -49 83 -123 83
c-76 0 -143 -19 -203 -52c-6 35 7 102 35 135c51 31 123 45 199 45c148 0 247 -53 247 -193c0 -84 -37 -143 -107 -165z" />
    <glyph glyph-name="uni0418" unicode="&#x418;" horiz-adv-x="784" 
d="M562 8v579h-8c-14 -62 -49 -145 -74 -191l-214 -391c-22 -6 -42 -10 -84 -10c-40 0 -73 4 -96 10v698c14 8 34 12 68 12c33 0 53 -4 68 -12v-561h8c14 62 50 146 75 192l202 370c24 6 46 10 90 10c41 0 77 -4 101 -10v-696c-14 -8 -34 -12 -68 -12c-33 0 -53 4 -68 12z
" />
    <glyph glyph-name="uni0419" unicode="&#x419;" horiz-adv-x="784" 
d="M562 8v579h-8c-14 -62 -49 -145 -74 -191l-214 -391c-22 -6 -42 -10 -84 -10c-40 0 -73 4 -96 10v698c14 8 34 12 68 12c33 0 53 -4 68 -12v-561h8c14 62 50 146 75 192l202 370c24 6 46 10 90 10c41 0 77 -4 101 -10v-696c-14 -8 -34 -12 -68 -12c-33 0 -53 4 -68 12z
M499 955c37 0 68 -8 93 -27c-14 -102 -88 -162 -208 -162c-111 0 -179 51 -191 156c28 22 60 34 100 34c11 -67 44 -89 100 -89s89 22 106 88z" />
    <glyph glyph-name="uni041A" unicode="&#x41a;" horiz-adv-x="715" 
d="M236 702v-280h54c70 0 102 24 122 84l21 63c37 112 84 155 197 155h18c5 -11 8 -35 8 -61c0 -25 -3 -50 -8 -61h-12c-38 0 -53 -17 -67 -62l-21 -67c-21 -67 -57 -93 -112 -108v-8c60 -22 83 -35 129 -118l126 -229c-14 -9 -42 -14 -83 -14c-44 0 -73 5 -94 14l-98 196
c-35 70 -61 88 -138 88h-42v-285c-15 -8 -40 -13 -75 -13s-60 5 -75 13v693c15 8 40 13 75 13s60 -5 75 -13z" />
    <glyph glyph-name="uni041B" unicode="&#x41b;" horiz-adv-x="777" 
d="M691 711v-702c-15 -8 -40 -13 -75 -13s-60 5 -75 13v573h-219v-82c0 -301 -44 -499 -283 -522c-22 26 -33 85 -24 129c142 22 171 140 171 382v222h505z" />
    <glyph glyph-name="uni041C" unicode="&#x41c;" horiz-adv-x="936" 
d="M715 7v587h-8c-8 -60 -32 -148 -48 -200l-119 -390c-15 -7 -38 -10 -73 -10c-31 0 -56 3 -71 10l-123 395c-15 47 -38 139 -44 195h-8v-587c-14 -8 -36 -11 -68 -11c-30 0 -53 3 -67 11v697c27 7 64 11 112 11c50 0 87 -4 113 -11l115 -368c17 -54 34 -130 42 -197h8
c9 67 24 145 39 195l110 370c26 7 63 11 113 11c48 0 85 -4 112 -11v-697c-14 -8 -35 -11 -67 -11c-30 0 -54 3 -68 11z" />
    <glyph glyph-name="uni041D" unicode="&#x41d;" horiz-adv-x="773" 
d="M537 9v288h-301v-288c-15 -8 -40 -13 -75 -13s-60 5 -75 13v693c15 8 40 13 75 13s60 -5 75 -13v-274h301v274c15 8 40 13 75 13s60 -5 75 -13v-693c-15 -8 -40 -13 -75 -13s-60 5 -75 13z" />
    <glyph glyph-name="uni041E" unicode="&#x41e;" horiz-adv-x="779" 
d="M390 734c202 0 338 -128 338 -371c0 -251 -133 -386 -338 -386c-218 0 -339 127 -339 386c0 233 142 371 339 371zM207 363c0 -163 67 -254 183 -254c119 0 182 91 182 254c0 150 -72 240 -182 240c-119 0 -183 -88 -183 -240z" />
    <glyph glyph-name="uni041F" unicode="&#x41f;" horiz-adv-x="759" 
d="M523 9v571h-287v-571c-15 -8 -40 -13 -75 -13s-60 5 -75 13v702h587v-702c-15 -8 -40 -13 -75 -13s-60 5 -75 13z" />
    <glyph glyph-name="uni0420" unicode="&#x420;" horiz-adv-x="637" 
d="M86 9v694c54 12 136 19 211 19c202 0 323 -69 323 -245c0 -179 -123 -257 -276 -257c-32 0 -82 3 -107 7v-218c-14 -8 -39 -13 -75 -13c-35 0 -61 5 -76 13zM308 593c-25 0 -50 -2 -72 -6v-232c21 -4 58 -7 88 -7c89 0 143 35 143 120c0 88 -57 125 -159 125z" />
    <glyph glyph-name="uni0421" unicode="&#x421;" horiz-adv-x="644" 
d="M592 566c-48 23 -92 35 -149 35c-141 0 -238 -72 -238 -246s96 -243 231 -243c63 0 125 16 168 34c2 -37 -16 -101 -40 -133c-43 -21 -105 -36 -175 -36c-214 0 -340 138 -340 368c0 248 147 389 363 389c57 0 115 -10 152 -32c23 -33 33 -92 28 -136z" />
    <glyph glyph-name="uni0422" unicode="&#x422;" horiz-adv-x="611" 
d="M582 578h-201v-569c-14 -8 -39 -13 -75 -13s-61 5 -76 13v569h-201c-6 13 -11 40 -11 67s5 53 11 66h553c6 -13 11 -39 11 -66s-5 -54 -11 -67z" />
    <glyph glyph-name="uni0423" unicode="&#x423;" horiz-adv-x="635" 
d="M63 128c30 -16 62 -22 95 -22c52 0 83 17 100 58l12 28l-235 509c14 9 40 14 79 14c37 0 62 -5 79 -14l100 -222c22 -48 43 -111 52 -168h8c7 58 24 125 43 171l91 219c17 10 42 14 76 14c37 0 57 -5 73 -14l-221 -520c-55 -129 -104 -204 -237 -204c-30 0 -63 3 -87 13
c-25 39 -33 95 -28 138z" />
    <glyph glyph-name="uni0424" unicode="&#x424;" horiz-adv-x="840" 
d="M494 51v-87c-15 -8 -39 -13 -74 -13s-59 5 -74 13v87c-199 18 -304 115 -304 312c0 176 121 275 304 295v90c15 8 39 13 74 13s59 -5 74 -13v-88c187 -18 304 -113 304 -297c0 -191 -115 -293 -304 -312zM658 363c0 104 -61 164 -167 179v-374c112 15 167 79 167 195z
M182 363c0 -116 56 -178 167 -193v373c-113 -14 -167 -74 -167 -180z" />
    <glyph glyph-name="uni0425" unicode="&#x425;" horiz-adv-x="668" 
d="M220 702l90 -149c15 -24 28 -47 34 -69h8c6 23 19 47 33 70l91 148c18 8 46 13 84 13c36 0 62 -5 74 -13l-208 -329l225 -364c-12 -9 -40 -13 -77 -13c-42 0 -70 5 -91 13l-113 188c-15 24 -27 46 -33 69h-8c-6 -23 -20 -47 -34 -70l-116 -187c-19 -8 -48 -13 -87 -13
c-35 0 -62 5 -74 13l234 369l-197 324c12 9 39 13 76 13c41 0 69 -5 89 -13z" />
    <glyph glyph-name="uni0426" unicode="&#x426;" horiz-adv-x="789" 
d="M236 702v-570h281v570c15 8 40 13 75 13s60 -5 75 -13v-570h93v-324c-13 -7 -35 -11 -67 -11c-31 0 -53 4 -66 11v192h-541v702c15 8 40 13 75 13s60 -5 75 -13z" />
    <glyph glyph-name="uni0427" unicode="&#x427;" horiz-adv-x="695" 
d="M462 9v251c-52 -18 -107 -29 -168 -29c-156 0 -240 74 -240 234v237c15 8 41 13 76 13s60 -5 75 -13v-223c0 -86 42 -108 134 -108c47 0 83 7 123 21v310c15 8 41 13 76 13s60 -5 75 -13v-693c-14 -8 -39 -13 -75 -13c-35 0 -61 5 -76 13z" />
    <glyph glyph-name="uni0428" unicode="&#x428;" horiz-adv-x="1069" 
d="M236 702v-571h225v571c15 8 38 13 73 13s59 -5 74 -13v-571h225v571c15 8 40 13 75 13s60 -5 75 -13v-702h-897v702c15 8 40 13 75 13s60 -5 75 -13z" />
    <glyph glyph-name="uni0429" unicode="&#x429;" horiz-adv-x="1090" 
d="M236 702v-571h217v571c15 8 38 13 73 13s59 -5 74 -13v-571h218v571c15 8 40 13 75 13s60 -5 75 -13v-570h93v-325c-11 -6 -34 -10 -68 -10c-31 0 -54 4 -65 10v193h-842v702c15 8 40 13 75 13s60 -5 75 -13z" />
    <glyph glyph-name="uni042A" unicode="&#x42a;" horiz-adv-x="753" 
d="M349 711v-265c31 9 75 14 118 14c142 0 265 -55 265 -227c0 -176 -131 -238 -297 -238c-88 0 -172 3 -237 14v570h-175c-6 13 -11 38 -11 65c0 28 5 54 11 67h326zM347 322v-200c29 -4 56 -5 91 -5c92 0 143 32 143 108c0 85 -58 108 -143 108c-34 0 -69 -4 -91 -11z" />
    <glyph glyph-name="uni042B" unicode="&#x42b;" horiz-adv-x="938" 
d="M237 702v-252c30 9 77 14 121 14c146 0 271 -55 271 -229c0 -178 -133 -240 -301 -240c-83 0 -175 3 -242 12v695c15 8 41 13 76 13c36 0 61 -5 75 -13zM235 327v-206c27 -3 60 -5 95 -5c95 0 150 34 150 111c0 86 -63 111 -149 111c-36 0 -73 -5 -96 -11zM701 9v693
c15 8 41 13 76 13c36 0 61 -5 75 -13v-693c-14 -8 -39 -13 -75 -13c-35 0 -61 5 -76 13z" />
    <glyph glyph-name="uni042C" unicode="&#x42c;" horiz-adv-x="657" 
d="M234 702v-252c31 9 79 14 124 14c149 0 278 -55 278 -229c0 -178 -136 -240 -307 -240c-87 0 -173 2 -246 12v695c15 8 41 13 76 13c36 0 61 -5 75 -13zM232 325v-203c30 -4 62 -5 98 -5c99 0 155 33 155 110c0 86 -63 109 -154 109c-37 0 -75 -4 -99 -11z" />
    <glyph glyph-name="uni042D" unicode="&#x42d;" horiz-adv-x="658" 
d="M74 569c-4 42 9 99 34 131c42 21 95 34 161 34c212 0 340 -137 340 -374c0 -252 -139 -383 -351 -383c-61 0 -123 11 -167 30c-28 35 -38 88 -34 132c49 -19 102 -30 161 -30c122 0 219 48 233 190h-342c-6 13 -10 37 -10 63c0 27 4 49 10 62h341
c-17 133 -101 181 -220 181c-61 0 -111 -13 -156 -36z" />
    <glyph glyph-name="uni042E" unicode="&#x42e;" horiz-adv-x="1021" 
d="M652 734c191 0 317 -116 317 -370c0 -262 -124 -387 -317 -387c-188 0 -299 98 -315 321h-104v-289c-14 -8 -38 -13 -74 -13c-35 0 -58 5 -73 13v693c15 8 38 13 73 13c36 0 60 -5 74 -13v-279h104c19 210 145 311 315 311zM484 363c0 -174 61 -259 168 -259
c109 0 166 85 166 259c0 161 -65 245 -166 245c-110 0 -168 -82 -168 -245z" />
    <glyph glyph-name="uni042F" unicode="&#x42f;" horiz-adv-x="722" 
d="M636 695v-686c-15 -8 -40 -13 -75 -13s-60 5 -75 13v247h-70c-75 0 -103 -23 -134 -88l-76 -158c-20 -9 -50 -14 -93 -14c-41 0 -67 5 -80 14l90 165c40 73 63 92 111 111v8c-83 26 -136 69 -136 187c0 175 128 240 327 240c72 0 150 -8 211 -26zM488 380v211
c-25 5 -55 7 -82 7c-108 0 -160 -36 -160 -112c0 -80 56 -106 140 -106h102z" />
    <glyph glyph-name="uni0430" unicode="&#x430;" horiz-adv-x="555" 
d="M341 52h-8c-22 -44 -69 -72 -138 -72c-88 0 -164 44 -164 160c0 122 88 169 204 169c33 0 62 -4 91 -13v14c0 61 -30 83 -96 83c-58 0 -115 -16 -160 -42c-12 39 -7 101 16 134c36 20 98 33 172 33c144 0 213 -51 213 -199v-173c0 -31 14 -38 34 -38c17 0 33 5 43 12
c4 -40 -8 -89 -26 -117c-21 -14 -49 -23 -83 -23c-58 0 -88 25 -98 72zM329 132v68c-20 8 -42 12 -66 12c-58 0 -87 -24 -87 -62c0 -39 29 -53 69 -53c32 0 64 10 84 35z" />
    <glyph glyph-name="uni0431" unicode="&#x431;" horiz-adv-x="605" 
d="M222 411c28 52 81 75 149 75c115 0 197 -80 197 -238c0 -167 -99 -268 -265 -268c-187 0 -244 145 -244 325c0 140 20 251 83 323c60 67 150 100 261 110l103 10c17 -33 28 -80 28 -124l-107 -10c-142 -13 -202 -54 -213 -203h8zM316 361c-49 0 -84 -22 -108 -53
c1 -154 30 -206 105 -206c73 0 105 59 105 135c0 62 -20 124 -102 124z" />
    <glyph glyph-name="uni0432" unicode="&#x432;" horiz-adv-x="560" 
d="M421 265v-8c62 -14 102 -51 102 -119c0 -113 -107 -149 -241 -149c-85 0 -155 5 -211 14v482c59 16 120 24 196 24c129 0 228 -39 228 -140c0 -50 -24 -91 -74 -104zM205 206v-108c21 -3 44 -4 73 -4c66 0 106 15 106 56c0 38 -37 56 -105 56h-74zM205 401v-99h66
c55 0 88 16 88 52s-36 52 -100 52c-21 0 -39 -2 -54 -5z" />
    <glyph glyph-name="uni0433" unicode="&#x433;" horiz-adv-x="453" 
d="M216 372v-364c-13 -7 -37 -12 -72 -12s-59 5 -73 12v490h361c6 -12 9 -38 9 -63s-3 -51 -9 -63h-216z" />
    <glyph glyph-name="uni0434" unicode="&#x434;" horiz-adv-x="605" 
d="M10 -148v273h48c48 68 76 162 76 272v101h375v-373h72v-273c-11 -6 -32 -10 -63 -10c-30 0 -51 4 -62 10v148h-321v-148c-11 -6 -32 -10 -63 -10c-30 0 -51 4 -62 10zM373 385h-113c-3 -106 -20 -188 -68 -264h181v264z" />
    <glyph glyph-name="uni0435" unicode="&#x435;" horiz-adv-x="549" 
d="M493 202h-304c6 -70 56 -104 155 -104c64 0 120 14 156 30c3 -38 -13 -87 -36 -113c-33 -19 -89 -35 -158 -35c-175 0 -268 101 -268 263c0 167 100 275 257 275c146 0 213 -90 213 -222c0 -32 -6 -68 -15 -94zM185 307h187c8 52 -11 103 -83 103
c-62 0 -100 -40 -104 -103z" />
    <glyph glyph-name="uni0436" unicode="&#x436;" horiz-adv-x="831" 
d="M487 490v-180h19c51 0 73 19 87 68l7 25c21 75 63 108 147 108h11c13 -27 22 -67 22 -113h-11c-28 0 -38 -12 -48 -45l-6 -19c-14 -46 -37 -64 -81 -76v-8c40 -13 56 -29 77 -71c38 -74 62 -111 104 -172c-14 -8 -44 -12 -77 -12c-38 0 -72 5 -88 12
c-31 42 -63 104 -83 155c-11 28 -28 38 -60 38h-20v-192c-13 -7 -36 -12 -71 -12s-58 5 -72 12v192h-18c-37 0 -55 -15 -69 -50c-20 -49 -49 -103 -79 -143c-16 -7 -48 -12 -85 -12c-32 0 -63 2 -77 10c45 64 68 101 109 180c18 35 37 52 71 63v8c-43 9 -65 27 -80 74l-6 19
c-11 36 -20 49 -50 49h-9c0 46 10 86 23 113h12c82 0 124 -27 145 -103l7 -25c15 -54 37 -73 89 -73h17v180c13 7 36 12 71 12s58 -5 72 -12z" />
    <glyph glyph-name="uni0437" unicode="&#x437;" horiz-adv-x="518" 
d="M374 267v-8c63 -16 103 -54 103 -122c0 -110 -103 -157 -243 -157c-58 0 -116 8 -165 26c-18 33 -26 82 -22 120c46 -17 116 -31 174 -31c71 0 105 16 105 54s-37 55 -146 55h-59c-2 33 3 70 17 102h53c75 0 116 13 116 53c0 33 -27 44 -85 44c-50 0 -99 -10 -152 -35
c-4 31 5 87 29 117c43 22 96 33 157 33c116 0 201 -40 201 -140c0 -56 -27 -99 -83 -111z" />
    <glyph glyph-name="uni0438" unicode="&#x438;" horiz-adv-x="625" 
d="M431 7v369h-8c-28 -73 -48 -119 -76 -179l-97 -205c-65 0 -131 4 -179 24v475c11 6 30 11 61 11s51 -5 62 -11v-349h8c27 74 48 124 75 181l88 185c68 0 138 -7 189 -27v-474c-11 -6 -30 -11 -61 -11s-51 5 -62 11z" />
    <glyph glyph-name="uni0439" unicode="&#x439;" horiz-adv-x="625" 
d="M235 766c5 -70 37 -93 84 -93c46 0 78 28 87 88c34 0 69 -10 88 -26c-13 -107 -78 -165 -184 -165c-97 0 -156 51 -170 156c18 22 56 39 95 40zM431 7v369h-8c-28 -73 -48 -119 -76 -179l-97 -205c-65 0 -131 4 -179 24v475c11 6 30 11 61 11s51 -5 62 -11v-349h8
c27 74 48 124 75 181l88 185c68 0 138 -7 189 -27v-474c-11 -6 -30 -11 -61 -11s-51 5 -62 11z" />
    <glyph glyph-name="uni043A" unicode="&#x43a;" horiz-adv-x="580" 
d="M216 490v-179h32c57 0 77 24 92 72l6 19c23 74 66 109 152 109h11c14 -27 23 -67 23 -113h-12c-29 0 -44 -16 -52 -44l-6 -20c-14 -44 -35 -65 -80 -76v-8c39 -15 54 -28 76 -70c39 -74 64 -112 108 -173c-14 -8 -44 -12 -77 -12c-38 0 -75 5 -91 12
c-33 42 -65 103 -88 154c-13 29 -25 37 -65 37h-29v-190c-13 -7 -37 -12 -72 -12s-59 5 -73 12v482c13 7 37 12 72 12s59 -5 73 -12z" />
    <glyph glyph-name="uni043B" unicode="&#x43b;" horiz-adv-x="595" 
d="M132 498h392v-490c-13 -7 -37 -12 -72 -12s-59 5 -72 12v368h-115v-31c0 -199 -41 -349 -230 -367c-21 25 -32 84 -23 126c97 17 120 103 120 233v161z" />
    <glyph glyph-name="uni043C" unicode="&#x43c;" horiz-adv-x="793" 
d="M595 5v395h-8c-9 -40 -25 -98 -37 -136l-78 -258c-40 -10 -98 -15 -151 -15l-83 278c-11 37 -24 91 -32 131h-8v-395c-13 -6 -33 -9 -64 -9c-30 0 -49 3 -63 9v480c56 14 136 22 222 22l77 -265c11 -38 19 -84 24 -129h8c5 45 12 93 23 129l78 265c85 0 162 -8 219 -22
v-480c-13 -6 -32 -9 -63 -9c-30 0 -50 3 -64 9z" />
    <glyph glyph-name="uni043D" unicode="&#x43d;" horiz-adv-x="610" 
d="M395 8v187h-180v-187c-13 -7 -37 -12 -72 -12s-59 5 -72 12v482c13 7 37 12 72 12s59 -5 72 -12v-174h180v174c13 7 37 12 72 12s59 -5 72 -12v-482c-13 -7 -37 -12 -72 -12s-59 5 -72 12z" />
    <glyph glyph-name="uni043E" unicode="&#x43e;" horiz-adv-x="580" 
d="M290 518c151 0 249 -91 249 -261c0 -180 -95 -277 -249 -277c-161 0 -249 92 -249 277c0 164 101 261 249 261zM190 256c0 -99 34 -157 100 -157c69 0 100 58 100 157c0 88 -36 143 -100 143c-67 0 -100 -55 -100 -143z" />
    <glyph glyph-name="uni043F" unicode="&#x43f;" horiz-adv-x="601" 
d="M71 498h459v-490c-13 -7 -37 -12 -72 -12s-59 5 -72 12v366h-171v-366c-13 -7 -37 -12 -72 -12s-59 5 -72 12v490z" />
    <glyph glyph-name="uni0440" unicode="&#x440;" horiz-adv-x="595" 
d="M197 427h8c27 65 88 91 156 91c131 0 195 -103 195 -251c0 -181 -95 -287 -245 -287c-36 0 -71 6 -95 18v-231c-13 -7 -37 -12 -72 -12s-59 5 -73 12v718c29 15 74 23 118 23zM214 344v-224c17 -7 41 -12 66 -12c90 0 127 60 127 149c0 92 -38 132 -102 132
c-44 0 -73 -21 -91 -45z" />
    <glyph glyph-name="uni0441" unicode="&#x441;" horiz-adv-x="495" 
d="M187 252c0 -100 58 -143 148 -143c48 0 90 11 126 29c6 -40 -12 -102 -39 -130c-33 -16 -77 -28 -134 -28c-162 0 -250 99 -250 262c0 186 112 276 264 276c49 0 93 -9 122 -27c22 -28 33 -88 26 -129c-36 21 -69 31 -115 31c-90 0 -148 -40 -148 -141z" />
    <glyph glyph-name="uni0442" unicode="&#x442;" horiz-adv-x="500" 
d="M31 498h448c6 -12 9 -38 9 -63s-3 -51 -9 -63h-157v-364c-13 -7 -37 -12 -72 -12s-59 5 -73 12v364h-166c0 44 7 93 20 126z" />
    <glyph glyph-name="uni0443" unicode="&#x443;" horiz-adv-x="533" 
d="M276 99h8c5 47 14 106 25 143l74 253c11 4 28 9 60 9c40 0 68 -8 86 -20l-73 -227c-36 -115 -74 -226 -126 -311c-57 -93 -132 -156 -249 -194c-34 26 -61 74 -66 122c80 21 135 65 172 118l-182 492c18 12 46 20 89 20c31 0 52 -5 61 -9l92 -256c11 -31 24 -92 29 -140z
" />
    <glyph glyph-name="uni0444" unicode="&#x444;" horiz-adv-x="725" 
d="M292 -21c-167 18 -258 106 -258 278c0 152 100 241 258 261v199c34 19 76 29 140 29v-227c159 -17 259 -103 259 -262c0 -168 -98 -258 -259 -278v-212c-13 -7 -34 -12 -69 -12s-57 5 -71 12v212zM558 256c0 86 -40 139 -129 152v-320c93 14 129 71 129 168zM167 256
c0 -95 37 -150 128 -166v319c-90 -13 -128 -68 -128 -153z" />
    <glyph glyph-name="uni0445" unicode="&#x445;" horiz-adv-x="549" 
d="M192 263l-148 221c18 12 48 20 90 20c32 0 54 -5 63 -9l54 -82c11 -16 22 -37 27 -55h8c4 19 15 39 25 55l50 82c9 4 30 9 61 9c41 0 70 -8 87 -20l-148 -227l170 -249c-13 -8 -41 -13 -74 -13c-37 0 -73 5 -87 12l-67 98c-12 18 -23 36 -28 55h-8
c-4 -18 -16 -38 -27 -55l-65 -98c-16 -7 -48 -12 -85 -12c-34 0 -59 5 -72 13z" />
    </font>
</defs>
</svg>
