<?xml version="1.0" standalone="no"?>
<!DOCTYPE svg PUBLIC "-//W3C//DTD SVG 1.1//EN" "http://www.w3.org/Graphics/SVG/1.1/DTD/svg11.dtd" >
<svg xmlns="http://www.w3.org/2000/svg" width="100%" height="100%">
<metadata>
Created by FontXChange 20110222 at Mon Jun  4 13:41:35 2018
 By Suzi Rubino

</metadata>
<defs>
<font id="TisaPro-Ita" horiz-adv-x="570" >
  <font-face 
    font-family="TisaPro"
    font-weight="400"
    font-style="italic"
    font-stretch="normal"
    units-per-em="1000"
    panose-1="2 1 5 4 3 1 1 2 1 2"
    ascent="729"
    descent="-271"
    x-height="470"
    cap-height="694"
    bbox="-407 -269 1446 1082"
    underline-thickness="70"
    underline-position="-130"
    slope="-6.5"
    stemh="58"
    stemv="77"
    unicode-range="U+000D-FEFF"
  />
<missing-glyph horiz-adv-x="699" 
d="M334 257c17 1 47 9 60 17c-8 15 -12 33 -12 50c0 67 152 103 152 214c0 55 -44 88 -117 88c-42 0 -105 -11 -136 -23c-4 -40 -5 -73 -2 -105c16 0 40 4 54 13l6 55c14 7 39 11 55 11c44 0 61 -28 61 -54c0 -77 -142 -122 -142 -203c0 -20 10 -48 21 -63zM93 0l79 723h498
l-64 -723h-513zM366 197c-27 0 -49 -21 -49 -49c0 -36 17 -53 49 -53c28 0 48 19 48 53c0 31 -19 49 -48 49z" />
    <glyph glyph-name="f_b" unicode="fb" horiz-adv-x="821" 
d="M343 10l77 656c-21 7 -48 10 -70 10c-102 0 -154 -46 -169 -172l-4 -34h124c2 -16 0 -43 -3 -58h-125l-59 -562c-12 -2 -33 -4 -50 -4c-14 0 -30 1 -39 4l69 562h-77c2 16 11 39 19 52c18 7 46 14 64 17l2 18c18 158 103 231 252 231c45 0 97 -9 147 -26l-12 -127
c-5 -48 -17 -132 -29 -175h10c26 47 71 85 143 85s138 -44 138 -174c0 -99 -27 -194 -79 -254c-44 -50 -107 -76 -176 -76c-51 0 -113 13 -153 27zM460 338l-31 -283c18 -7 43 -12 68 -12c48 0 89 16 116 49c37 46 51 122 51 197c0 84 -28 130 -91 130
c-44 0 -93 -42 -113 -81z" />
    <glyph glyph-name="f_f" unicode="ff" horiz-adv-x="608" 
d="M485 470h123c2 -16 0 -43 -3 -58h-124l-59 -562c-12 -2 -33 -4 -50 -4c-14 0 -30 1 -39 4l69 562h-229l-43 -410c-12 -2 -32 -4 -49 -4c-14 0 -29 1 -38 4l51 410h-77c2 16 11 39 19 52c18 7 42 13 64 17l6 44c19 140 100 195 190 195c27 0 61 -5 94 -17
c0 -33 -14 -91 -27 -118c-14 0 -40 7 -51 16l9 63c-8 5 -21 7 -30 7c-44 0 -95 -30 -106 -130l-8 -71h229l9 65c19 140 103 195 195 195c28 0 63 -5 96 -17c0 -33 -14 -91 -27 -118c-15 0 -42 7 -53 16l9 63c-8 5 -22 7 -31 7c-46 0 -101 -30 -111 -130z" />
    <glyph glyph-name="f_f_b" unicode="ffb" horiz-adv-x="1129" 
d="M651 10l77 656c-21 7 -48 10 -70 10c-102 0 -154 -46 -169 -172l-4 -34h124c2 -16 0 -43 -3 -58h-125l-59 -562c-12 -2 -33 -4 -50 -4c-14 0 -30 1 -39 4l69 562h-229l-43 -410c-12 -2 -32 -4 -49 -4c-14 0 -29 1 -38 4l51 410h-77c2 16 11 39 19 52c18 7 42 13 64 17
l6 44c19 140 100 195 190 195c27 0 61 -5 94 -17c0 -33 -14 -91 -27 -118c-14 0 -40 7 -51 16l9 63c-8 5 -21 7 -30 7c-44 0 -95 -30 -106 -130l-8 -71h229l4 29c22 157 103 231 252 231c45 0 97 -9 147 -26l-12 -127c-5 -48 -17 -132 -29 -175h10c26 47 71 85 143 85
s138 -44 138 -174c0 -99 -27 -194 -79 -254c-44 -50 -107 -76 -176 -76c-51 0 -113 13 -153 27zM768 338l-31 -283c18 -7 43 -12 68 -12c48 0 89 16 116 49c37 46 51 122 51 197c0 84 -28 130 -91 130c-44 0 -93 -42 -113 -81z" />
    <glyph glyph-name="f_f_h" unicode="ffh" horiz-adv-x="1158" 
d="M648 2l83 664c-21 7 -50 10 -72 10c-102 0 -155 -46 -170 -172l-4 -34h124c2 -16 0 -43 -3 -58h-125l-59 -562c-12 -2 -33 -4 -50 -4c-14 0 -30 1 -39 4l69 562h-229l-43 -410c-12 -2 -32 -4 -49 -4c-14 0 -29 1 -38 4l51 410h-77c2 16 11 39 19 52c18 7 42 13 64 17
l6 44c19 140 100 195 190 195c27 0 61 -5 94 -17c0 -33 -14 -91 -27 -118c-14 0 -40 7 -51 16l9 63c-8 5 -21 7 -30 7c-44 0 -95 -30 -106 -130l-8 -71h230l3 29c16 158 102 231 250 231c45 0 101 -9 152 -26l-13 -127c-7 -71 -16 -117 -28 -170h10c23 36 67 80 151 80
c59 0 116 -24 116 -124c0 -60 -31 -246 -37 -292c0 -3 3 -14 5 -17l77 8c0 -15 -8 -43 -16 -56c-33 -13 -90 -23 -118 -23c-19 22 -35 57 -35 74c13 73 39 226 39 278s-23 86 -72 86c-58 0 -106 -55 -121 -93l-37 -326c-12 -2 -31 -4 -48 -4c-14 0 -28 1 -37 4z" />
    <glyph glyph-name="f_f_i" unicode="ffi" horiz-adv-x="889" 
d="M481 412l-59 -562c-12 -2 -33 -4 -50 -4c-14 0 -30 1 -39 4l68 562h-228l-43 -410c-12 -2 -32 -4 -49 -4c-14 0 -29 1 -38 4l51 410h-77c2 16 11 39 19 52c18 7 42 13 64 17l6 44c19 140 100 195 190 195c27 0 61 -5 94 -17c0 -33 -14 -91 -27 -118c-14 0 -40 7 -51 16
l9 63c-8 5 -21 7 -30 7c-44 0 -95 -30 -106 -130l-8 -71h230l3 28c17 161 102 232 252 232c44 0 96 -6 149 -23c0 -36 -16 -93 -31 -125c-17 0 -47 8 -59 17l10 66c-21 7 -49 10 -71 10c-102 0 -156 -45 -171 -171l-4 -34h115c2 -16 0 -43 -3 -58h-116zM703 415l-71 -8
c0 10 9 42 18 51c23 12 57 23 98 23c9 0 32 -2 40 -4l-50 -406c0 -3 3 -13 5 -17l78 8c0 -15 -8 -43 -16 -56c-32 -12 -90 -23 -119 -23c-19 22 -35 57 -35 74z" />
    <glyph glyph-name="f_f_j" unicode="ffj" horiz-adv-x="869" 
d="M485 470h115c2 -16 0 -43 -3 -58h-116l-43 -410c-12 -2 -32 -4 -49 -4c-14 0 -29 1 -38 4l51 410h-229l-59 -562c-12 -2 -33 -4 -50 -4c-14 0 -30 1 -39 4l69 562h-77c2 16 11 39 19 52c18 7 42 13 64 17l6 44c19 140 100 195 190 195c27 0 61 -5 94 -17
c0 -33 -14 -91 -27 -118c-14 0 -40 7 -51 16l9 63c-8 5 -21 7 -30 7c-44 0 -95 -30 -106 -130l-8 -71h230l3 28c17 161 105 232 259 232c46 0 98 -7 151 -25c0 -36 -16 -94 -31 -126c-17 0 -47 8 -59 17l10 66c-21 9 -50 13 -73 13c-106 0 -162 -45 -178 -171zM712 415
l-73 -8c0 10 9 42 18 51c24 12 58 23 99 23c10 0 33 -2 41 -4l-45 -375c-16 -133 -87 -246 -177 -331c-14 5 -34 22 -40 35c59 61 116 160 131 270z" />
    <glyph glyph-name="f_f_k" unicode="ffk" horiz-adv-x="1105" 
d="M651 2l80 664c-21 7 -50 10 -72 10c-102 0 -155 -46 -170 -172l-4 -34h124c2 -16 0 -43 -3 -58h-125l-59 -562c-12 -2 -33 -4 -50 -4c-14 0 -30 1 -39 4l69 562h-229l-43 -410c-12 -2 -32 -4 -49 -4c-14 0 -29 1 -38 4l51 410h-77c2 16 11 39 19 52c18 7 42 13 64 17
l6 44c19 140 100 195 190 195c27 0 61 -5 94 -17c0 -33 -14 -91 -27 -118c-14 0 -40 7 -51 16l9 63c-8 5 -21 7 -30 7c-44 0 -95 -30 -106 -130l-8 -71h230l3 29c16 158 102 231 250 231c45 0 101 -9 152 -26l-54 -487c82 51 165 129 207 182c0 4 -1 10 -3 15l-71 -3
c0 15 9 44 21 56c34 7 74 11 112 11c10 -13 26 -51 26 -64c-27 -49 -97 -125 -175 -181c38 -77 85 -154 112 -184l59 11c0 -15 -4 -41 -12 -56c-22 -12 -68 -24 -95 -27c-32 33 -84 132 -124 221c-19 -12 -45 -26 -62 -34l-17 -162c-12 -2 -31 -4 -48 -4c-14 0 -28 1 -37 4z
" />
    <glyph glyph-name="f_f_l" unicode="ffl" horiz-adv-x="893" 
d="M745 54l78 8c0 -15 -8 -43 -16 -56c-32 -12 -90 -23 -119 -23c-19 22 -35 57 -35 74l80 609c-21 7 -50 10 -72 10c-102 0 -157 -46 -172 -172l-4 -34h124c2 -16 0 -43 -3 -58h-125l-59 -562c-12 -2 -33 -4 -50 -4c-14 0 -30 1 -39 4l69 562h-229l-43 -410
c-12 -2 -32 -4 -49 -4c-14 0 -29 1 -38 4l51 410h-77c2 16 11 39 19 52c18 7 42 13 64 17l6 44c19 140 100 195 190 195c27 0 61 -5 94 -17c0 -33 -14 -91 -27 -118c-14 0 -40 7 -51 16l9 63c-8 5 -21 7 -30 7c-44 0 -95 -30 -106 -130l-8 -71h229l4 29
c22 159 103 231 252 231c45 0 102 -9 153 -26l-75 -633c0 -3 3 -13 5 -17z" />
    <glyph glyph-name="f_h" unicode="fh" horiz-adv-x="850" 
d="M340 2l83 664c-21 7 -50 10 -72 10c-102 0 -155 -46 -170 -172l-4 -34h124c2 -16 0 -43 -3 -58h-125l-59 -562c-12 -2 -33 -4 -50 -4c-14 0 -30 1 -39 4l69 562h-77c2 16 11 39 19 52c18 7 42 13 64 17l2 18c18 159 102 231 250 231c45 0 101 -9 152 -26l-13 -127
c-7 -71 -16 -117 -28 -170h10c23 36 67 80 151 80c59 0 116 -24 116 -124c0 -60 -31 -246 -37 -292c0 -3 3 -14 5 -17l77 8c0 -15 -8 -43 -16 -56c-33 -13 -90 -23 -118 -23c-19 22 -35 57 -35 74c13 73 39 226 39 278s-23 86 -72 86c-58 0 -106 -55 -121 -93l-37 -326
c-12 -2 -31 -4 -48 -4c-14 0 -28 1 -37 4z" />
    <glyph glyph-name="f_i" unicode="fi" horiz-adv-x="581" 
d="M173 412l-59 -562c-12 -2 -33 -4 -50 -4c-14 0 -30 1 -39 4l69 562h-77c2 16 11 39 19 52c18 7 42 13 64 17l2 17c19 163 102 232 252 232c44 0 96 -6 149 -23c0 -36 -16 -93 -31 -125c-17 0 -47 8 -59 17l10 66c-21 7 -49 10 -71 10c-102 0 -156 -45 -171 -171l-4 -34
h115c2 -16 0 -43 -3 -58h-116zM395 415l-71 -8c0 10 9 42 18 51c23 12 57 23 98 23c9 0 32 -2 40 -4l-50 -406c0 -3 3 -13 5 -17l78 8c0 -15 -8 -43 -16 -56c-32 -12 -90 -23 -119 -23c-19 22 -35 57 -35 74z" />
    <glyph glyph-name="f_iacute" unicode="f&#xed;" horiz-adv-x="581" 
d="M177 470h117c2 -16 0 -43 -3 -58h-118l-59 -562c-12 -2 -33 -4 -50 -4c-14 0 -30 1 -39 4l69 562h-77c2 16 11 39 19 52c18 7 42 13 64 17l7 54c18 140 101 195 192 195c27 0 62 -5 95 -17c0 -33 -15 -91 -28 -118c-15 0 -40 8 -53 16l9 63c-8 5 -21 7 -30 7
c-44 0 -93 -29 -105 -130zM395 415l-73 -8c0 10 9 42 18 51c24 12 58 23 99 23c10 0 33 -2 41 -4l-50 -406c0 -3 3 -13 5 -17l78 8c0 -15 -8 -43 -16 -56c-32 -12 -90 -23 -119 -23c-19 22 -35 57 -35 74zM622 702l-163 -166c-14 8 -32 29 -40 47l125 156
c25 -4 63 -22 78 -37z" />
    <glyph glyph-name="f_j" unicode="fj" horiz-adv-x="561" 
d="M177 470h115c2 -16 0 -43 -3 -58h-116l-43 -410c-12 -2 -32 -4 -49 -4c-14 0 -29 1 -38 4l51 410h-77c2 16 11 39 19 52c18 7 42 13 64 17l2 17c20 163 105 232 259 232c46 0 98 -7 151 -25c0 -36 -16 -94 -31 -126c-17 0 -47 8 -59 17l10 66c-21 9 -50 13 -73 13
c-106 0 -162 -45 -178 -171zM404 415l-73 -8c0 10 9 42 18 51c24 12 58 23 99 23c10 0 33 -2 41 -4l-45 -375c-16 -133 -87 -246 -177 -331c-14 5 -34 22 -40 35c59 61 116 160 131 270z" />
    <glyph glyph-name="f_k" unicode="fk" horiz-adv-x="797" 
d="M343 2l80 664c-21 7 -50 10 -72 10c-102 0 -155 -46 -170 -172l-4 -34h124c2 -16 0 -43 -3 -58h-125l-59 -562c-12 -2 -33 -4 -50 -4c-14 0 -30 1 -39 4l69 562h-77c2 16 11 39 19 52c18 7 42 13 64 17l2 18c18 159 102 231 250 231c45 0 101 -9 152 -26l-54 -487
c82 51 165 129 207 182c0 4 -1 10 -3 15l-71 -3c0 15 9 44 21 56c34 7 74 11 112 11c10 -13 26 -51 26 -64c-27 -49 -97 -125 -175 -181c38 -77 85 -154 112 -184l59 11c0 -15 -4 -41 -12 -56c-22 -12 -68 -24 -95 -27c-32 33 -84 132 -124 221c-19 -12 -45 -26 -62 -34
l-17 -162c-12 -2 -31 -4 -48 -4c-14 0 -28 1 -37 4z" />
    <glyph glyph-name="f_l" unicode="fl" horiz-adv-x="585" 
d="M437 54l78 8c0 -15 -8 -43 -16 -56c-32 -12 -90 -23 -119 -23c-19 22 -35 57 -35 74l80 609c-21 7 -50 10 -72 10c-102 0 -157 -46 -172 -172l-4 -34h124c2 -16 0 -43 -3 -58h-125l-59 -562c-12 -2 -33 -4 -50 -4c-14 0 -30 1 -39 4l69 562h-77c2 16 11 39 19 52
c18 7 42 13 64 17l2 18c18 159 103 231 252 231c45 0 102 -9 153 -26l-75 -633c0 -3 3 -13 5 -17z" />
    <glyph glyph-name=".notdef" horiz-adv-x="699" 
d="M334 257c17 1 47 9 60 17c-8 15 -12 33 -12 50c0 67 152 103 152 214c0 55 -44 88 -117 88c-42 0 -105 -11 -136 -23c-4 -40 -5 -73 -2 -105c16 0 40 4 54 13l6 55c14 7 39 11 55 11c44 0 61 -28 61 -54c0 -77 -142 -122 -142 -203c0 -20 10 -48 21 -63zM93 0l79 723h498
l-64 -723h-513zM366 197c-27 0 -49 -21 -49 -49c0 -36 17 -53 49 -53c28 0 48 19 48 53c0 31 -19 49 -48 49z" />
    <glyph glyph-name=".null" horiz-adv-x="0" 
 />
    <glyph glyph-name=".null" horiz-adv-x="0" 
 />
    <glyph glyph-name="CR" unicode="&#xd;" horiz-adv-x="191" 
 />
    <glyph glyph-name="space" unicode=" " horiz-adv-x="191" 
 />
    <glyph glyph-name="exclam" unicode="!" horiz-adv-x="271" 
d="M205 694l-66 -484c-8 -2 -21 -3 -33 -3s-24 1 -31 3l21 474c15 8 51 14 72 14c11 0 29 -2 37 -4zM93 118c37 0 62 -23 62 -62c0 -42 -26 -68 -62 -68c-41 0 -62 23 -62 68c0 35 28 62 62 62z" />
    <glyph glyph-name="quotedbl" unicode="&#x22;" horiz-adv-x="342" 
d="M244 484c-15 0 -44 5 -56 11c13 64 26 151 33 211c21 0 62 -4 83 -10c-6 -54 -38 -159 -60 -212zM79 484c-15 0 -44 5 -56 11c13 64 26 151 33 211c21 0 62 -4 83 -10c-6 -54 -38 -159 -60 -212z" />
    <glyph glyph-name="numbersign" unicode="#" horiz-adv-x="510" 
d="M49 410h93l26 107c17 4 48 7 67 7l-27 -114h134l26 107c17 4 48 7 67 7l-27 -114h87c0 -17 -4 -38 -9 -53h-93l-38 -166h94c0 -17 -4 -38 -9 -53h-100l-31 -136c-10 -2 -25 -3 -39 -3c-12 0 -24 1 -31 3l32 136h-131l-31 -136c-10 -2 -25 -3 -39 -3c-12 0 -24 1 -31 3
l32 136h-89c2 16 11 40 18 53h87l39 166h-95c2 16 11 40 18 53zM193 357l-38 -166h132l39 166h-133z" />
    <glyph glyph-name="dollar" unicode="$" horiz-adv-x="440" 
d="M305 399l7 71c-14 7 -45 16 -73 16c-61 0 -97 -34 -97 -77c0 -101 232 -106 232 -259c0 -96 -67 -149 -152 -164l-7 -85c-5 -1 -25 -2 -35 -2c-8 0 -27 1 -33 2l7 79c-58 1 -110 14 -153 40c-1 7 -2 19 -2 27c0 37 10 81 21 105c25 0 51 -2 72 -11l-8 -79
c25 -19 61 -26 97 -26c61 0 108 35 108 91c0 112 -234 104 -234 258c0 80 61 137 148 150l8 68c13 4 41 7 60 7l-7 -73c47 -3 92 -15 130 -31c0 -42 -10 -89 -23 -123c-23 0 -52 5 -66 16z" />
    <glyph glyph-name="percent" unicode="%" horiz-adv-x="867" 
d="M203 538c86 0 136 -44 136 -127c0 -116 -66 -181 -172 -181c-88 0 -137 42 -137 127c0 109 66 181 173 181zM173 279c60 0 89 50 89 127c0 50 -20 83 -64 83c-63 0 -92 -54 -92 -126c0 -53 24 -84 67 -84zM659 529l-414 -555c-15 3 -44 19 -52 29l411 541
c17 -1 40 -8 55 -15zM680 291c86 0 136 -44 136 -127c0 -116 -66 -181 -172 -181c-88 0 -137 42 -137 127c0 109 66 181 173 181zM650 32c60 0 89 50 89 127c0 50 -20 83 -64 83c-63 0 -92 -54 -92 -126c0 -53 24 -84 67 -84z" />
    <glyph glyph-name="ampersand" unicode="&#x26;" horiz-adv-x="788" 
d="M478 129c-64 77 -140 147 -221 206c-60 -31 -103 -87 -103 -166c0 -94 59 -124 139 -124c84 0 143 34 185 84zM233 534c0 -59 31 -92 81 -134c60 31 99 90 99 152c0 64 -40 81 -79 81c-45 0 -101 -21 -101 -99zM498 560c0 -91 -77 -169 -143 -191v-5
c62 -45 131 -111 178 -166c34 65 49 134 54 198l146 12c-1 -15 -9 -42 -17 -56c-16 -6 -39 -12 -62 -16c-14 -64 -39 -131 -77 -190c20 -26 39 -53 57 -81c23 -1 48 -3 75 -9c4 -13 6 -41 6 -56h-145c-17 27 -35 54 -54 80c-58 -60 -135 -100 -242 -100s-213 41 -213 169
c0 106 73 187 156 214v5c-44 31 -71 72 -71 137c0 131 105 184 199 184c74 0 153 -33 153 -129z" />
    <glyph glyph-name="quotesingle" unicode="'" horiz-adv-x="177" 
d="M79 484c-15 0 -44 5 -56 11c13 64 26 151 33 211c21 0 62 -4 83 -10c-6 -54 -38 -159 -60 -212z" />
    <glyph glyph-name="parenleft" unicode="(" horiz-adv-x="290" 
d="M205 -185c-14 -9 -44 -19 -64 -21c-42 129 -57 258 -57 375c0 195 41 367 136 570c18 10 59 18 80 18c-89 -177 -133 -422 -133 -630c0 -109 13 -217 38 -312z" />
    <glyph glyph-name="parenright" unicode=")" horiz-adv-x="290" 
d="M-21 -185c90 188 133 425 133 641c0 101 -8 195 -29 280c12 10 39 22 62 26c35 -112 50 -238 50 -346c0 -211 -43 -390 -155 -621c-20 3 -47 12 -61 20z" />
    <glyph glyph-name="asterisk" unicode="*" horiz-adv-x="382" 
d="M304 439l-77 60c-8 6 -17 16 -20 23l-5 -3c4 -9 8 -23 7 -32l-7 -103c-8 -2 -22 -3 -29 -3c-4 0 -20 1 -29 3l16 103c2 11 8 24 12 31l-4 3c-6 -6 -17 -18 -24 -22l-89 -58c-9 11 -21 35 -25 49l94 47c9 4 25 9 33 10v5c-7 1 -23 5 -30 9l-80 44c4 16 17 44 26 57l81 -57
c8 -6 17 -17 20 -22l5 3c-3 8 -7 22 -6 30l8 99c12 4 41 7 56 7l-15 -106c-1 -8 -7 -23 -12 -32l4 -3c7 8 16 17 25 23l85 54c10 -8 26 -30 32 -45l-99 -52c-8 -4 -22 -7 -31 -8v-5c8 -1 22 -5 29 -9l82 -45c-5 -15 -23 -45 -33 -55z" />
    <glyph glyph-name="plus" unicode="+" 
d="M309 304h197c2 -11 4 -30 4 -47c0 -7 0 -12 -1 -19h-200v-213c-10 -2 -22 -3 -38 -3s-32 1 -43 3v213h-201c0 18 5 52 9 66h192v204c17 3 59 6 81 6v-210z" />
    <glyph glyph-name="comma" unicode="," horiz-adv-x="182" 
d="M37 17l-38 10c9 21 27 52 41 67c12 3 26 4 39 4c25 0 50 -4 69 -12c-25 -74 -85 -187 -121 -236c-14 4 -38 16 -47 24c19 41 46 105 57 143z" />
    <glyph glyph-name="hyphen" unicode="-" horiz-adv-x="328" 
d="M253 234h-227c0 20 7 56 14 74h217c1 -7 1 -13 1 -20c0 -18 -2 -40 -5 -54z" />
    <glyph glyph-name="period" unicode="." horiz-adv-x="234" 
d="M92 115c36 0 60 -22 60 -61c0 -41 -25 -66 -60 -66c-40 0 -61 22 -61 66c0 35 27 61 61 61z" />
    <glyph glyph-name="slash" unicode="/" horiz-adv-x="409" 
d="M444 742l-414 -909c-16 2 -52 18 -62 27l411 894c21 0 47 -4 65 -12z" />
    <glyph glyph-name="zero" unicode="0" horiz-adv-x="594" 
d="M35 212c0 201 102 329 280 329c134 0 203 -74 203 -232c0 -197 -101 -329 -283 -329c-134 0 -200 75 -200 232zM126 219c0 -118 37 -176 121 -176c124 0 183 117 183 262c0 113 -38 174 -128 174c-128 0 -176 -119 -176 -260z" />
    <glyph glyph-name="one" unicode="1" horiz-adv-x="409" 
d="M138 74l46 383l-140 -18c3 20 12 44 22 62c39 13 126 36 209 40l-48 -472c32 -3 76 -9 104 -15c1 -7 2 -16 2 -26s-1 -21 -2 -28h-316c4 17 13 38 22 51c24 8 67 18 101 23z" />
    <glyph glyph-name="two" unicode="2" horiz-adv-x="517" 
d="M126 80v-7c97 1 199 5 300 12c-1 -23 -6 -63 -13 -85h-385l-4 72c90 76 320 215 320 329c0 52 -34 75 -94 75c-37 0 -69 -9 -101 -23l-10 -82c-16 -8 -45 -13 -66 -13c-3 15 -4 38 -4 54c0 30 4 61 11 86c46 22 107 43 182 43c102 0 176 -37 176 -120
c0 -146 -234 -282 -312 -341z" />
    <glyph glyph-name="three" unicode="3" horiz-adv-x="483" 
d="M265 231v-5c69 -8 132 -43 132 -129c0 -128 -141 -211 -263 -211c-47 0 -99 9 -132 19c-7 16 -12 38 -12 54c0 3 0 8 1 14c35 -11 97 -17 137 -17c87 0 174 38 174 128c0 72 -54 104 -199 104c0 21 5 49 13 64c96 4 204 50 204 145c0 61 -45 79 -96 79
c-32 0 -72 -8 -98 -18l-8 -72c-16 -9 -46 -13 -68 -13c-6 40 -4 92 4 131c56 24 127 37 184 37c94 0 175 -35 175 -129c0 -89 -72 -158 -148 -181z" />
    <glyph glyph-name="four" unicode="4" horiz-adv-x="512" 
d="M362 82l-16 -174c-6 -2 -27 -3 -43 -3c-15 0 -36 1 -43 3l19 174h-271l-8 52c94 136 204 276 315 407l89 -16l-36 -376h84c1 -7 1 -12 1 -18c0 -15 -2 -35 -5 -49h-86zM287 149l28 240c3 23 6 52 12 74h-7c-80 -91 -165 -214 -230 -309v-7c13 1 40 2 59 2h138z" />
    <glyph glyph-name="five" unicode="5" horiz-adv-x="480" 
d="M158 441l-26 -175c26 6 55 10 87 10c105 0 174 -47 174 -156c0 -150 -133 -234 -264 -234c-50 0 -104 12 -121 18c-7 15 -12 38 -12 56c0 3 0 6 1 11c28 -8 84 -17 121 -17c97 0 183 56 183 159c0 73 -44 101 -132 101c-36 0 -81 -5 -117 -13l53 320h328
c-2 -29 -9 -61 -20 -89c-83 5 -170 7 -255 9z" />
    <glyph glyph-name="six" unicode="6" horiz-adv-x="540" 
d="M139 308h7c23 41 72 75 146 75c111 0 171 -76 171 -177c0 -133 -97 -226 -228 -226c-123 0 -192 84 -192 239c0 224 147 416 327 416c34 0 64 -7 92 -18c8 -18 12 -42 12 -56c0 -4 0 -9 -1 -15c-26 13 -67 20 -100 20c-112 0 -202 -84 -234 -258zM265 320
c-53 0 -91 -23 -130 -66c-3 -23 -4 -44 -4 -55c0 -95 38 -159 111 -159c83 0 133 76 133 162c0 74 -39 118 -110 118z" />
    <glyph glyph-name="seven" unicode="7" horiz-adv-x="475" 
d="M436 521l7 -66c-126 -182 -232 -370 -293 -546c-11 -3 -27 -5 -45 -5c-19 0 -41 2 -54 5c66 165 184 367 304 522v7h-251c-5 -23 -21 -65 -32 -83c-15 0 -45 6 -57 12l28 154h393z" />
    <glyph glyph-name="eight" unicode="8" horiz-adv-x="532" 
d="M183 329v5c-48 20 -89 57 -89 127c0 120 111 174 209 174c82 0 165 -39 165 -136c0 -77 -53 -144 -124 -170v-5c59 -24 104 -62 104 -146c0 -135 -114 -198 -226 -198c-87 0 -190 38 -190 152c0 92 68 166 151 197zM231 305c-68 -28 -111 -82 -111 -157
c0 -83 50 -111 109 -111c63 0 134 32 134 124c0 81 -57 110 -132 144zM295 354c62 30 92 84 92 136c0 69 -53 93 -95 93c-38 0 -116 -19 -116 -103c0 -68 55 -95 119 -126z" />
    <glyph glyph-name="nine" unicode="9" horiz-adv-x="532" 
d="M361 213h-7c-22 -44 -73 -74 -146 -74c-113 0 -170 76 -170 176c0 133 98 226 227 226c124 0 189 -86 189 -246c0 -228 -133 -409 -318 -409c-43 0 -89 11 -113 21c-6 14 -11 36 -11 55c0 4 0 8 1 14c26 -9 81 -17 115 -17c115 0 205 83 233 254zM365 270c2 19 4 49 4 69
c0 90 -39 144 -111 144c-83 0 -133 -70 -133 -159c0 -73 35 -122 110 -122c55 0 97 25 130 68z" />
    <glyph glyph-name="colon" unicode=":" horiz-adv-x="217" 
d="M130 462c34 0 59 -22 59 -60c0 -40 -26 -64 -59 -64c-39 0 -60 22 -60 64c0 35 26 60 60 60zM98 131c36 0 60 -22 60 -61c0 -41 -25 -66 -60 -66c-40 0 -61 22 -61 66c0 35 27 61 61 61z" />
    <glyph glyph-name="semicolon" unicode=";" horiz-adv-x="221" 
d="M127 462c34 0 59 -22 59 -60c0 -40 -26 -64 -59 -64c-39 0 -60 22 -60 64c0 35 26 60 60 60zM49 17l-38 10c9 21 27 52 41 67c12 3 26 4 39 4c25 0 50 -4 69 -12c-25 -74 -85 -187 -121 -236c-14 4 -38 16 -47 24c19 41 46 105 57 143z" />
    <glyph glyph-name="less" unicode="&#x3c;" 
d="M448 473l-276 -201v-7l270 -196c-6 -15 -35 -48 -49 -56l-310 227l3 60l299 222c19 -11 50 -35 63 -49z" />
    <glyph glyph-name="equal" unicode="=" 
d="M484 323h-426c0 19 5 54 9 68h414c2 -11 4 -30 4 -48c0 -7 0 -14 -1 -20zM484 144h-427c0 19 5 54 9 68h415c2 -11 4 -30 4 -48c0 -7 0 -14 -1 -20z" />
    <glyph glyph-name="greater" unicode="&#x3e;" 
d="M451 240l-311 -232c-14 8 -43 42 -49 57l271 200v7l-278 196c13 14 43 38 64 49l300 -217z" />
    <glyph glyph-name="question" unicode="?" horiz-adv-x="443" 
d="M199 118c37 0 62 -23 62 -62c0 -42 -26 -68 -62 -68c-41 0 -62 23 -62 68c0 35 28 62 62 62zM159 628l-9 -95c-18 -10 -49 -16 -69 -16c-1 17 -1 35 -1 54c0 33 1 68 5 104c40 19 123 39 179 39c113 0 171 -52 171 -132c0 -153 -209 -195 -209 -307c0 -22 6 -42 15 -59
c-17 -13 -53 -26 -80 -29c-14 23 -24 58 -24 88c0 117 198 179 198 294c0 44 -25 83 -96 83c-24 0 -61 -11 -80 -24z" />
    <glyph glyph-name="at" unicode="@" horiz-adv-x="965" 
d="M669 -111c8 -10 19 -34 22 -48c-80 -43 -187 -67 -282 -67c-243 0 -380 151 -380 393c0 307 222 547 523 547c209 0 368 -114 368 -321c0 -187 -133 -370 -379 -388c-8 18 -16 46 -17 69h-5c-38 -49 -98 -69 -144 -69c-69 0 -113 43 -113 145c0 83 29 173 80 233
c45 54 108 88 187 88c59 0 109 -19 136 -42l-66 -328c0 -8 2 -18 4 -25c156 16 247 170 247 308c0 181 -150 266 -311 266c-250 0 -436 -205 -436 -469c0 -210 118 -344 330 -344c80 0 172 20 236 52zM530 139l54 266c-15 11 -44 16 -65 16c-53 0 -94 -30 -122 -70
c-35 -50 -52 -125 -52 -181c0 -70 25 -98 70 -98c42 0 88 25 115 67z" />
    <glyph glyph-name="A" unicode="A" horiz-adv-x="712" 
d="M474 224h-252l-37 -85c-9 -21 -26 -55 -40 -77c22 -1 50 -4 75 -9c3 -10 7 -42 7 -53h-230c3 17 11 39 19 53c14 5 35 9 50 11l309 644h57l178 -642c14 -1 42 -5 58 -9c3 -13 6 -42 6 -57h-240c3 17 9 39 16 54c15 4 55 10 74 12c-13 23 -25 57 -31 82zM388 605h-7
c-6 -24 -25 -70 -37 -97l-100 -227h218l-60 229c-6 24 -14 70 -14 95z" />
    <glyph glyph-name="B" unicode="B" horiz-adv-x="635" 
d="M430 372v-5c82 -17 134 -68 134 -146c0 -161 -131 -224 -282 -224c-90 0 -193 1 -270 5c3 18 9 39 15 53c18 5 54 11 75 13l58 566c-22 0 -49 0 -72 3c-1 14 1 45 5 60c79 5 161 8 234 8c131 0 234 -55 234 -164c0 -87 -54 -152 -131 -169zM217 333l-26 -270
c29 -3 61 -4 90 -4c123 0 192 48 192 153c0 84 -69 121 -164 121h-92zM244 642l-23 -248h91c102 0 161 42 161 139c0 75 -68 111 -165 111c-15 0 -44 0 -64 -2z" />
    <glyph glyph-name="C" unicode="C" horiz-adv-x="607" 
d="M484 526l10 102c-34 16 -68 22 -105 22c-147 0 -246 -129 -246 -350c0 -164 77 -242 195 -242c54 0 133 17 180 35c0 -17 -9 -50 -18 -64c-53 -26 -133 -49 -204 -49c-153 0 -249 125 -249 301c0 268 159 433 354 433c73 0 133 -14 179 -38c-5 -54 -17 -124 -28 -166
c-19 0 -52 7 -68 16z" />
    <glyph glyph-name="D" unicode="D" horiz-adv-x="703" 
d="M93 687c74 8 174 14 244 14c177 0 307 -105 307 -304c0 -277 -152 -402 -344 -402c-84 0 -213 4 -287 7c3 18 9 39 15 53c18 5 54 11 75 13l58 556c-22 0 -53 0 -72 3c-1 12 1 47 4 60zM244 635l-51 -573c29 -2 63 -3 91 -3c178 0 267 111 267 329
c0 167 -97 251 -240 251c-16 0 -51 -1 -67 -4z" />
    <glyph glyph-name="E" unicode="E" horiz-adv-x="577" 
d="M481 0h-474c3 18 9 39 15 53c18 5 56 11 77 13l58 564c-22 1 -57 4 -72 7c-2 15 1 46 4 57h451l-15 -147c-15 0 -41 3 -55 7c-3 21 -6 56 -6 79h-224l-24 -254h178c3 15 10 41 15 54c15 5 41 8 58 8l-18 -185c-17 -2 -45 0 -57 4c-2 13 -5 40 -5 59h-175l-23 -256h222
c5 25 14 65 21 86c15 4 48 7 64 7z" />
    <glyph glyph-name="F" unicode="F" horiz-adv-x="523" 
d="M101 66l58 564c-22 1 -57 4 -72 7c-2 15 1 46 4 57h434l-14 -150c-17 0 -42 2 -57 7c-2 16 -5 57 -6 82h-206l-24 -262h163c3 14 10 42 15 55c15 5 41 8 58 8l-18 -186c-17 -2 -43 0 -57 4c-2 12 -4 39 -4 59h-162l-22 -246c31 -2 68 -5 93 -10c3 -13 1 -42 -2 -55h-273
c3 18 9 39 15 53c18 5 56 11 77 13z" />
    <glyph glyph-name="G" unicode="G" horiz-adv-x="699" 
d="M470 64l19 208c-41 1 -89 4 -126 10c-4 14 -6 44 -6 59h305c-3 -20 -9 -44 -14 -61c-20 -4 -53 -7 -75 -8l-21 -244c-48 -18 -157 -48 -239 -48c-175 0 -266 111 -266 291c0 270 148 443 379 443c77 0 136 -18 186 -52c-4 -44 -17 -121 -28 -156c-18 0 -54 9 -68 16
l10 98c-38 23 -72 32 -115 32c-155 0 -271 -130 -271 -364c0 -160 85 -239 206 -239c37 0 83 6 124 15z" />
    <glyph glyph-name="H" unicode="H" horiz-adv-x="772" 
d="M521 66l25 263h-330l-24 -264c19 -1 57 -4 78 -10c3 -13 1 -42 -2 -55h-258c3 18 9 39 15 53c18 5 56 11 77 13l58 564c-22 1 -57 4 -72 7c-2 15 1 46 4 57h234c1 -14 -2 -43 -7 -56c-21 -4 -52 -7 -76 -8l-22 -236h333l25 236c-22 1 -54 4 -71 7c-2 15 1 46 4 57h235
c1 -5 1 -12 1 -16c0 -11 -3 -29 -7 -40c-22 -4 -54 -7 -79 -8l-51 -565c28 -2 61 -5 84 -10c3 -13 1 -42 -2 -55h-259c3 18 9 39 14 53c17 5 53 11 73 13z" />
    <glyph glyph-name="I" unicode="I" horiz-adv-x="350" 
d="M241 630l-51 -565c28 -2 61 -5 84 -10c3 -13 1 -42 -2 -55h-264c3 18 9 39 15 53c18 5 56 11 77 13l58 564c-22 1 -57 4 -72 7c-2 15 1 46 4 57h236c1 -5 1 -12 1 -16c0 -11 -3 -29 -7 -40c-22 -4 -54 -7 -79 -8z" />
    <glyph glyph-name="J" unicode="J" horiz-adv-x="339" 
d="M87 694h251c1 -5 1 -12 1 -16c0 -11 -3 -29 -7 -40c-22 -4 -54 -7 -79 -8l-34 -394c-16 -194 -109 -341 -264 -416c-9 10 -22 36 -26 50c121 72 185 184 200 341l39 419c-27 1 -65 4 -85 7c-2 15 1 46 4 57z" />
    <glyph glyph-name="K" unicode="K" horiz-adv-x="636" 
d="M223 382h55l148 189c12 16 41 48 55 58c-19 1 -47 4 -63 7c-3 17 -5 44 -5 58h216c-2 -16 -11 -45 -18 -59c-13 -3 -39 -5 -57 -6l-219 -264l195 -304l62 4c0 -19 -6 -50 -14 -65c-27 -6 -78 -14 -107 -17l-207 344h-45l-24 -262c25 -2 51 -5 72 -10c3 -13 1 -42 -2 -55
h-251c3 18 9 39 15 53c18 5 55 11 76 13l58 564c-22 1 -57 4 -72 7c-2 15 1 46 4 57h231c2 -14 -2 -43 -6 -56c-21 -4 -51 -7 -74 -8z" />
    <glyph glyph-name="L" unicode="L" horiz-adv-x="566" 
d="M244 630l-51 -566h228c4 30 15 76 23 100c15 4 47 7 64 7l-16 -171h-480c3 18 9 39 15 53c19 5 54 11 76 13l58 564c-22 1 -57 4 -72 7c-2 15 1 46 4 57h250c1 -14 -2 -43 -7 -56c-25 -4 -68 -8 -92 -8z" />
    <glyph glyph-name="M" unicode="M" horiz-adv-x="877" 
d="M358 -13l-115 481c-12 49 -22 111 -26 160h-7l-48 -565c22 -2 45 -5 63 -10c2 -11 0 -41 -3 -53h-214c3 18 9 39 13 51c18 5 52 11 71 13l56 566c-22 1 -55 4 -71 7c-2 15 1 46 4 57h194l115 -466c8 -33 14 -85 17 -128h7c10 35 27 85 44 124l206 470h192
c1 -5 1 -12 1 -16c0 -11 -3 -29 -7 -40c-22 -4 -56 -7 -81 -8l-48 -565c28 -2 59 -5 82 -10c3 -13 1 -42 -2 -55h-251c3 18 9 39 14 53c17 5 51 11 71 13l55 562h-7c-11 -47 -32 -105 -49 -144l-214 -497h-62z" />
    <glyph glyph-name="N" unicode="N" horiz-adv-x="730" 
d="M281 694l212 -500c11 -26 24 -72 30 -109h7l55 545c-22 1 -56 4 -72 7c-1 15 1 46 4 57h209c1 -5 1 -12 1 -16c0 -11 -3 -29 -7 -40c-19 -4 -49 -7 -71 -8l-58 -636h-111l-228 554c-7 18 -18 50 -23 70h-7l-50 -553c27 -2 57 -5 79 -10c3 -12 1 -43 -2 -55h-240
c3 18 9 39 14 53c18 5 54 11 74 13l59 564c-22 1 -54 4 -71 7c-2 15 1 46 4 57h192z" />
    <glyph glyph-name="O" unicode="O" horiz-adv-x="714" 
d="M645 417c0 -263 -124 -437 -332 -437c-171 0 -264 105 -264 303c0 257 128 431 334 431c160 0 262 -106 262 -297zM551 405c0 143 -66 243 -174 243c-162 0 -233 -157 -233 -353c0 -152 63 -248 176 -248c151 0 231 151 231 358z" />
    <glyph glyph-name="P" unicode="P" horiz-adv-x="573" 
d="M100 66l48 563c-22 0 -51 0 -71 3c-2 15 1 47 4 61c84 8 167 11 244 11c134 0 230 -61 230 -185c0 -158 -116 -243 -246 -243c-33 0 -70 3 -105 8l-14 -219c33 -2 70 -5 99 -10c3 -12 1 -44 -2 -55h-278c3 18 9 39 15 53c19 5 54 11 76 13zM231 637l-22 -294
c29 -3 67 -5 100 -5c93 0 157 54 157 171c0 89 -64 132 -164 132c-18 0 -53 -2 -71 -4z" />
    <glyph glyph-name="Q" unicode="Q" horiz-adv-x="722" 
d="M45 283c0 258 125 431 334 431c161 0 262 -106 262 -297c0 -181 -64 -323 -155 -379v-5c53 -39 142 -85 168 -85l66 9c0 -24 -8 -62 -17 -80c-17 -6 -49 -14 -65 -14c-46 0 -164 77 -229 133c-31 -10 -64 -16 -100 -16c-172 0 -264 105 -264 303zM547 405
c0 143 -63 243 -174 243c-163 0 -233 -154 -233 -353c0 -152 62 -248 176 -248c153 0 231 153 231 358z" />
    <glyph glyph-name="R" unicode="R" horiz-adv-x="629" 
d="M156 631c-22 0 -52 1 -72 3c-2 15 1 47 4 61c76 6 162 10 237 10c129 0 233 -56 233 -174c0 -112 -77 -184 -167 -212c48 -122 109 -246 123 -257l59 4c0 -19 -6 -51 -14 -66c-37 -10 -76 -14 -108 -17c-23 17 -78 143 -144 326c-31 0 -63 1 -93 5l-21 -249
c17 -1 54 -4 75 -9c3 -12 1 -45 -2 -56h-254c3 18 9 39 15 53c19 5 54 11 76 13zM240 640l-23 -272c33 -3 68 -3 98 -3c87 0 154 51 154 157c0 84 -71 121 -168 121c-17 0 -43 -1 -61 -3z" />
    <glyph glyph-name="S" unicode="S" horiz-adv-x="550" 
d="M409 546l9 87c-22 13 -54 20 -86 20c-90 0 -140 -50 -140 -118c0 -165 286 -127 286 -338c0 -162 -123 -217 -260 -217c-72 0 -137 14 -188 38c4 50 16 126 26 168c18 0 57 -5 72 -11l-9 -102c31 -20 76 -29 117 -29c95 0 150 48 150 133c0 161 -282 126 -282 333
c0 124 79 204 226 204c50 0 120 -12 172 -30c-5 -42 -16 -113 -29 -152c-19 0 -49 6 -64 14z" />
    <glyph glyph-name="T" unicode="T" horiz-adv-x="554" 
d="M343 633l-47 -568c30 -2 63 -5 88 -10c3 -13 1 -42 -2 -55h-274c3 18 10 39 16 53c19 5 60 11 82 13l54 567h-150c-4 -23 -16 -68 -21 -85c-14 -3 -46 -6 -62 -6l15 152h533l-15 -156c-19 0 -41 3 -58 7c-3 20 -6 62 -6 88h-153z" />
    <glyph glyph-name="U" unicode="U" horiz-adv-x="680" 
d="M478 694h203c1 -5 1 -12 1 -16c0 -13 -3 -30 -7 -40c-19 -4 -46 -7 -68 -8l-28 -364c-13 -169 -102 -286 -292 -286c-144 0 -213 77 -213 217c0 16 2 42 4 60l35 372c-23 1 -50 4 -70 8c-3 14 -4 46 -3 57h248c1 -12 -2 -43 -7 -56c-23 -4 -57 -7 -84 -8l-28 -365
c-1 -10 -3 -39 -3 -52c0 -108 50 -168 148 -168c115 0 178 97 189 214l36 371c-20 1 -50 4 -65 7c-2 13 0 45 4 57z" />
    <glyph glyph-name="V" unicode="V" horiz-adv-x="681" 
d="M315 62h7c8 31 24 78 36 108l148 367c14 34 31 69 47 92c-23 1 -52 5 -72 10c-3 12 -6 42 -6 55h221c-1 -15 -8 -44 -16 -59c-13 -2 -37 -4 -55 -5l-279 -643h-89l-158 642c-15 1 -42 6 -55 9c-4 15 -7 41 -7 56h254c-1 -16 -10 -43 -18 -58c-23 -3 -59 -5 -88 -6
c10 -20 26 -70 34 -105l80 -342c7 -32 14 -88 16 -121z" />
    <glyph glyph-name="W" unicode="W" horiz-adv-x="957" 
d="M257 65h7c5 25 14 59 20 77l184 560h102l62 -541c2 -19 5 -61 5 -91h7c4 23 13 55 19 74l138 411c7 21 20 54 31 74c-22 1 -50 5 -68 10c-3 15 -5 42 -5 55h207c-1 -15 -7 -43 -15 -59c-12 -2 -34 -4 -51 -5l-233 -643h-98l-60 555c-3 26 -3 68 -3 93h-7
c-4 -28 -16 -73 -23 -96l-177 -552h-106l-93 642c-14 1 -41 6 -52 9c-4 15 -7 41 -7 56h245c-1 -16 -10 -43 -17 -58c-24 -3 -58 -6 -86 -7c9 -25 17 -64 21 -92l48 -373c3 -22 5 -73 5 -99z" />
    <glyph glyph-name="X" unicode="X" horiz-adv-x="671" 
d="M57 62l222 305l-139 261c-14 1 -38 4 -52 8c-4 14 -8 41 -8 58h239c-1 -16 -9 -44 -15 -59c-19 -2 -50 -4 -75 -5c17 -20 35 -50 47 -72l82 -151l102 160c11 18 32 46 50 63c-19 1 -45 4 -61 7c-4 14 -6 44 -6 57h198c0 -15 -6 -45 -13 -60c-11 -2 -34 -3 -46 -3
l-196 -276l159 -291c15 -1 40 -4 57 -8c4 -14 8 -44 8 -56h-242c2 16 10 43 15 53c18 4 44 8 70 10c-21 20 -37 49 -50 73l-94 175l-115 -188c-12 -19 -32 -44 -49 -60c24 -1 50 -4 70 -9c4 -16 6 -42 6 -54h-235c3 17 10 39 16 52c16 5 39 8 55 10z" />
    <glyph glyph-name="Y" unicode="Y" horiz-adv-x="586" 
d="M290 334h7c6 17 21 46 32 65l95 162c12 20 35 54 49 69c-20 1 -47 4 -63 8c-4 15 -6 39 -6 56h196c0 -14 -6 -43 -12 -58c-11 -2 -32 -4 -47 -5l-225 -360l-16 -206c29 -2 61 -5 86 -10c3 -13 1 -42 -2 -55h-273c3 18 10 39 16 53c19 5 60 11 82 13l21 206l-139 356
c-13 1 -38 5 -49 8c-5 18 -6 40 -6 58h236c-1 -17 -8 -43 -14 -56c-22 -4 -55 -6 -81 -7c14 -22 25 -45 34 -68l62 -161c6 -16 15 -52 17 -68z" />
    <glyph glyph-name="Z" unicode="Z" horiz-adv-x="559" 
d="M13 0l7 70l400 551v7h-258c-4 -24 -17 -70 -25 -92c-16 -3 -49 -7 -67 -7l16 165h434l-7 -71l-386 -548v-7h275c5 26 17 77 24 98c16 5 50 9 67 9l-17 -175h-463z" />
    <glyph glyph-name="bracketleft" unicode="[" horiz-adv-x="293" 
d="M34 -193l96 942h144c1 -6 1 -13 1 -16c0 -12 -3 -28 -6 -39c-18 -4 -49 -7 -69 -8l-75 -816c24 -1 60 -5 77 -9c3 -13 1 -41 -2 -54h-166z" />
    <glyph glyph-name="backslash" unicode="\" horiz-adv-x="389" 
d="M85 766l241 -909c-13 -9 -47 -19 -69 -21l-230 893c10 12 39 32 58 37z" />
    <glyph glyph-name="bracketright" unicode="]" horiz-adv-x="293" 
d="M224 749l-88 -942h-165c0 13 4 41 10 55c19 3 53 6 77 7l83 817c-19 1 -50 4 -64 7c-2 15 0 44 4 56h143z" />
    <glyph glyph-name="asciicircum" unicode="^" 
d="M62 370l175 297l62 6l190 -308c-13 -9 -42 -24 -59 -30l-114 189c-13 21 -34 62 -44 84h-7c-10 -22 -29 -59 -43 -83l-116 -197c-13 8 -35 30 -44 42z" />
    <glyph glyph-name="underscore" unicode="_" horiz-adv-x="500" 
d="M-1 -172h502c2 -12 3 -28 3 -42c0 -5 0 -9 -1 -17h-512c0 14 3 44 8 59z" />
    <glyph glyph-name="grave" unicode="`" horiz-adv-x="419" 
d="M198 542l-119 154c20 14 62 25 93 25l90 -158c-12 -9 -46 -21 -64 -21z" />
    <glyph glyph-name="a" unicode="a" horiz-adv-x="522" 
d="M293 57h-5c-37 -53 -95 -74 -141 -74c-74 0 -129 52 -129 179c0 84 23 166 66 226c43 59 106 99 186 99c63 0 115 -21 149 -45l-48 -367c0 -3 3 -16 5 -21l78 7c0 -14 -8 -42 -16 -55c-30 -12 -91 -23 -119 -23c-11 19 -22 50 -26 74zM293 124l41 295
c-17 10 -43 15 -65 15c-54 0 -97 -34 -122 -75c-30 -50 -43 -130 -43 -186c0 -85 33 -122 84 -122c40 0 81 28 105 73z" />
    <glyph glyph-name="b" unicode="b" horiz-adv-x="518" 
d="M157 338l-31 -283c18 -7 43 -12 68 -12c48 0 89 16 116 49c37 46 51 122 51 197c0 84 -28 130 -91 130c-44 0 -93 -42 -113 -81zM157 402h10c26 47 71 85 143 85s138 -44 138 -174c0 -99 -27 -194 -79 -254c-44 -50 -107 -76 -176 -76c-51 0 -113 13 -153 27l76 650
l-72 -8c0 10 9 42 18 51c24 12 58 23 98 23c10 0 33 -2 41 -4l-15 -145c-5 -48 -17 -129 -29 -175z" />
    <glyph glyph-name="c" unicode="c" horiz-adv-x="443" 
d="M300 343l7 71c-14 9 -35 15 -51 15c-45 0 -84 -25 -109 -64c-28 -44 -41 -104 -41 -177c0 -94 31 -132 91 -132c46 0 112 25 147 44c0 -17 -7 -45 -14 -59c-36 -27 -100 -58 -166 -58c-100 0 -148 69 -148 182c0 89 25 169 69 229c42 56 112 93 184 93
c46 0 84 -14 112 -36c0 -41 -10 -86 -26 -121c-16 0 -43 5 -55 13z" />
    <glyph glyph-name="d" unicode="d" horiz-adv-x="529" 
d="M460 722l-80 -647c0 -3 3 -16 5 -21l77 7c0 -14 -8 -42 -16 -55c-31 -13 -90 -23 -118 -23c-10 19 -21 50 -25 74h-5c-40 -53 -99 -74 -148 -74c-76 0 -132 50 -132 177c0 83 22 167 65 226c43 61 108 101 186 101c28 0 55 -8 80 -19l26 192l-72 -8c0 10 9 42 18 51
c24 12 58 23 98 23c10 0 33 -2 41 -4zM303 124l38 290c-17 11 -46 18 -69 18c-55 0 -98 -34 -124 -75c-32 -49 -44 -129 -44 -184c0 -85 35 -120 88 -120c42 0 84 25 111 71z" />
    <glyph glyph-name="e" unicode="e" horiz-adv-x="439" 
d="M382 377c0 -80 -50 -161 -274 -170v-30c0 -82 28 -122 83 -122c44 0 107 19 150 47c0 -19 -5 -41 -12 -55c-38 -33 -100 -64 -174 -64c-89 0 -136 63 -136 170c0 88 20 185 75 251c40 48 101 83 173 83c71 0 115 -42 115 -110zM249 433c-41 0 -80 -25 -102 -63
c-18 -30 -28 -68 -33 -105c165 6 187 57 187 107c0 34 -15 61 -52 61z" />
    <glyph glyph-name="f" unicode="f" horiz-adv-x="301" 
d="M177 470h124c2 -16 0 -43 -3 -58h-125l-59 -562c-12 -2 -33 -4 -50 -4c-14 0 -30 1 -39 4l69 562h-77c2 16 11 39 19 52c18 7 42 13 64 17l7 54c18 140 103 195 195 195c28 0 63 -5 97 -17c0 -34 -14 -88 -28 -118c-15 0 -40 8 -53 16l9 63c-8 5 -22 7 -31 7
c-47 0 -98 -32 -110 -138z" />
    <glyph glyph-name="g" unicode="g" horiz-adv-x="508" 
d="M424 442l-43 -406c-16 -152 -67 -277 -230 -277c-47 0 -104 11 -143 27c-7 15 -12 36 -12 61c0 8 1 19 3 27c52 -31 105 -49 154 -49c90 0 127 66 141 158c5 31 12 65 19 86h-10c-39 -58 -98 -81 -147 -81c-76 0 -132 51 -132 177c0 83 23 165 66 224
c43 58 106 98 187 98c63 0 113 -21 147 -45zM307 132l35 286c-17 10 -44 16 -67 16c-54 0 -96 -34 -122 -74c-31 -49 -43 -128 -43 -184c0 -83 34 -120 87 -120c41 0 84 29 110 76z" />
    <glyph glyph-name="h" unicode="h" horiz-adv-x="549" 
d="M39 2l81 658l-72 -8c0 10 9 42 18 51c24 12 58 23 98 23c10 0 33 -2 41 -4l-15 -145c-7 -71 -16 -117 -28 -170h10c23 36 67 80 151 80c59 0 116 -24 116 -124c0 -60 -31 -246 -37 -292c0 -3 3 -14 5 -17l77 8c0 -15 -8 -43 -16 -56c-33 -13 -90 -23 -118 -23
c-19 22 -35 57 -35 74c13 73 39 226 39 278s-23 86 -72 86c-58 0 -106 -55 -121 -93l-37 -326c-12 -2 -31 -4 -48 -4c-14 0 -28 1 -37 4z" />
    <glyph glyph-name="i" unicode="i" horiz-adv-x="280" 
d="M94 415l-73 -8c0 10 9 42 18 51c24 12 58 23 99 23c10 0 33 -2 41 -4l-50 -406c0 -3 3 -13 5 -17l78 8c0 -15 -8 -43 -16 -56c-32 -12 -90 -23 -119 -23c-19 22 -35 57 -35 74zM159 707c32 0 54 -20 54 -55c0 -37 -23 -59 -54 -59c-36 0 -55 20 -55 59c0 32 24 55 55 55z
" />
    <glyph glyph-name="j" unicode="j" horiz-adv-x="275" 
d="M-18 -229c-14 5 -34 22 -40 35c59 60 117 158 131 270l41 339l-73 -8c0 10 9 42 18 51c24 12 58 23 99 23c10 0 33 -2 41 -4l-40 -375c-15 -138 -88 -246 -177 -331zM170 707c32 0 54 -20 54 -55c0 -37 -23 -59 -54 -59c-36 0 -55 20 -55 59c0 32 24 55 55 55z" />
    <glyph glyph-name="k" unicode="k" horiz-adv-x="498" 
d="M126 2c-12 -2 -31 -4 -48 -4c-14 0 -28 1 -37 4l78 658l-72 -8c0 10 9 42 18 51c24 12 57 23 97 23c10 0 33 -2 41 -4l-55 -505c82 51 168 132 210 185c0 4 -1 10 -3 15l-71 -3c0 15 9 44 21 56c34 7 74 11 112 11c10 -13 26 -51 26 -64c-27 -49 -100 -128 -178 -184
c38 -77 85 -154 112 -184l59 11c0 -15 -4 -41 -12 -56c-22 -12 -68 -24 -95 -27c-32 33 -84 132 -124 221c-19 -12 -45 -26 -62 -34z" />
    <glyph glyph-name="l" unicode="l" horiz-adv-x="284" 
d="M136 54l78 8c0 -15 -8 -43 -16 -56c-32 -12 -90 -23 -119 -23c-19 22 -35 57 -35 74l79 603l-72 -8c0 10 9 42 18 51c24 12 58 23 98 23c10 0 33 -2 41 -4l-77 -651c0 -3 3 -13 5 -17z" />
    <glyph glyph-name="m" unicode="m" horiz-adv-x="809" 
d="M159 396h10c21 43 71 91 152 91c51 0 101 -18 110 -91h5c19 46 72 91 152 91c59 0 113 -24 113 -122c0 -60 -31 -248 -37 -294c0 -3 3 -14 5 -17l77 8c0 -15 -8 -43 -16 -56c-32 -13 -90 -23 -118 -23c-19 22 -35 57 -35 74c13 74 39 228 39 280c0 51 -20 84 -68 84
c-49 0 -96 -48 -116 -90l-37 -329c-12 -2 -30 -4 -47 -4c-14 0 -27 1 -36 4c23 155 39 298 39 342c0 49 -23 77 -68 77c-53 0 -100 -50 -119 -90l-37 -329c-12 -2 -31 -4 -48 -4c-14 0 -28 1 -37 4l55 413l-73 -8c0 10 9 42 18 51c20 13 58 23 92 23c12 0 24 -1 34 -4z" />
    <glyph glyph-name="n" unicode="n" horiz-adv-x="545" 
d="M157 396h10c23 42 67 91 154 91c60 0 116 -24 116 -124c0 -60 -31 -246 -37 -292c0 -3 3 -14 5 -17l77 8c0 -15 -8 -43 -16 -56c-33 -13 -90 -23 -118 -23c-19 22 -35 57 -35 74c13 73 39 226 39 278s-20 86 -68 86c-55 0 -103 -50 -122 -90l-37 -329
c-12 -2 -31 -4 -48 -4c-14 0 -28 1 -37 4l55 413l-73 -8c0 10 9 42 18 51c20 13 58 23 92 23c12 0 24 -1 34 -4z" />
    <glyph glyph-name="o" unicode="o" horiz-adv-x="488" 
d="M184 -17c-107 0 -165 66 -165 192c0 78 17 148 50 202c42 67 109 110 188 110c102 0 165 -67 165 -187c0 -88 -22 -169 -62 -226s-104 -91 -176 -91zM194 42c44 0 79 27 103 69c27 47 39 115 39 180c0 81 -30 138 -87 138c-50 0 -89 -33 -113 -80
c-23 -46 -30 -105 -30 -165c0 -87 30 -142 88 -142z" />
    <glyph glyph-name="p" unicode="p" horiz-adv-x="530" 
d="M166 338l-34 -281c20 -8 47 -14 74 -14c48 0 87 16 114 49c38 45 50 121 50 196c0 84 -29 131 -90 131c-45 0 -93 -41 -114 -81zM127 3l-24 -227c-12 -2 -31 -4 -48 -4c-14 0 -28 1 -37 4l80 639l-71 -8c0 10 9 42 18 51c20 13 58 23 92 23c12 0 24 -1 34 -4l-10 -75h10
c30 44 72 85 149 85c71 0 137 -45 137 -175c0 -99 -26 -193 -78 -253c-42 -50 -104 -76 -170 -76c-28 0 -64 7 -82 20z" />
    <glyph glyph-name="q" unicode="q" horiz-adv-x="513" 
d="M427 442l-61 -596c0 -3 3 -13 5 -17l76 7c0 -14 -6 -41 -14 -54c-30 -11 -89 -23 -115 -23c-17 21 -34 58 -34 74l14 146c2 22 10 62 17 85h-10c-39 -59 -98 -81 -148 -81c-76 0 -133 52 -133 179c0 84 22 166 66 226c44 59 107 99 189 99c63 0 114 -21 148 -45zM310 127
l35 291c-17 10 -45 16 -68 16c-55 0 -97 -34 -123 -75c-32 -50 -44 -130 -44 -186c0 -85 35 -122 88 -122c42 0 86 28 112 76z" />
    <glyph glyph-name="r" unicode="r" horiz-adv-x="367" 
d="M149 376h10c19 57 64 111 133 111c17 0 35 -3 48 -9c5 -14 7 -31 7 -45s-3 -34 -7 -46c-23 15 -46 20 -68 20c-49 0 -94 -33 -118 -98l-31 -307c-12 -2 -31 -4 -48 -4c-14 0 -28 1 -37 4l54 413l-74 -8c0 10 9 42 18 51c20 13 58 23 92 23c12 0 24 -1 34 -4z" />
    <glyph glyph-name="s" unicode="s" horiz-adv-x="411" 
d="M272 366l5 55c-16 8 -35 13 -60 13c-39 0 -71 -21 -71 -60c0 -100 184 -115 184 -239c0 -105 -89 -152 -182 -152c-80 0 -142 28 -142 101c10 20 50 36 81 36c3 -59 31 -80 84 -80c43 0 79 25 79 67c0 98 -184 106 -184 239c0 79 56 141 165 141c38 0 80 -9 115 -25
c0 -33 -9 -79 -19 -111c-16 0 -44 7 -55 15z" />
    <glyph glyph-name="t" unicode="t" horiz-adv-x="347" 
d="M102 481l29 116c15 10 45 16 64 16l-15 -143h138c1 -7 1 -12 1 -18c0 -13 -2 -28 -4 -40h-144l-28 -284c-5 -53 7 -79 48 -79c26 0 61 9 85 19c0 -18 -6 -40 -13 -53c-37 -21 -82 -32 -116 -32c-65 0 -92 37 -92 99c0 56 26 230 43 330h-72c2 16 10 39 19 52
c14 7 40 14 57 17z" />
    <glyph glyph-name="u" unicode="u" horiz-adv-x="554" 
d="M329 60h-5c-30 -46 -80 -77 -155 -77c-57 0 -115 27 -115 122c0 66 30 254 40 310l-73 -8c0 10 9 42 18 51c24 12 58 23 99 23c10 0 33 -2 41 -4c-14 -106 -37 -301 -37 -341c0 -52 19 -85 70 -85c48 0 95 31 120 75l38 289l-69 -8c0 10 9 43 18 52c23 12 54 22 95 22
c10 0 32 -2 40 -4l-46 -403c0 -2 3 -16 5 -19l75 7c0 -15 -8 -43 -16 -56c-30 -11 -88 -23 -118 -23c-12 20 -22 52 -25 77z" />
    <glyph glyph-name="v" unicode="v" horiz-adv-x="476" 
d="M55 416l-69 -7c0 10 8 42 16 51c18 12 61 21 97 21c12 0 26 -2 36 -5l49 -324c4 -26 9 -73 10 -101h7c58 114 112 240 153 352c0 3 -2 13 -4 17l-82 -7c1 15 10 42 22 54c24 11 94 20 117 20c17 -17 32 -53 32 -66c-63 -142 -144 -303 -230 -446l-79 21z" />
    <glyph glyph-name="w" unicode="w" horiz-adv-x="725" 
d="M686 421c-52 -142 -124 -303 -196 -446l-88 21l-41 397h-7c-34 -121 -108 -317 -156 -418l-86 21l-40 420l-70 -7c0 10 8 42 16 51c18 12 60 21 96 21c11 0 25 -2 35 -5l24 -310c2 -21 2 -83 2 -114h7c46 115 108 308 139 420l105 10l36 -316c3 -28 4 -84 4 -114h7
c50 114 100 239 135 351c0 3 -2 13 -4 17l-67 -5c1 15 10 44 22 56c20 8 74 16 93 16c18 -17 34 -53 34 -66z" />
    <glyph glyph-name="x" unicode="x" horiz-adv-x="494" 
d="M187 477c24 -60 50 -130 68 -185h5c37 56 76 120 100 176c7 2 25 4 39 4c13 0 36 -2 46 -4c-38 -69 -109 -172 -162 -238c33 -79 76 -168 87 -176l69 13c0 -17 -5 -44 -12 -57c-22 -13 -75 -29 -105 -33c-17 6 -60 95 -99 193h-5c-42 -66 -100 -147 -148 -193
c-25 6 -63 24 -81 37c-3 9 -5 22 -5 33c0 9 1 18 4 27l58 -23c41 41 105 118 147 185c-25 61 -50 126 -71 182l-66 -9c0 10 9 42 17 51c15 11 50 21 79 21c11 0 26 -1 35 -4z" />
    <glyph glyph-name="y" unicode="y" horiz-adv-x="477" 
d="M61 417l-71 -7c0 10 8 41 16 50c18 12 59 21 95 21c12 0 26 -2 36 -5l63 -288c6 -28 12 -86 14 -122h7c57 109 109 228 142 337c0 3 -2 13 -4 17l-80 -7c1 15 10 42 22 54c24 11 90 20 113 20c17 -17 32 -53 32 -66c-63 -169 -181 -397 -243 -485s-125 -138 -199 -170
c-11 18 -22 51 -22 76c71 22 139 64 182 138z" />
    <glyph glyph-name="z" unicode="z" horiz-adv-x="450" 
d="M8 0l-4 43l283 364v7h-160c-5 -20 -17 -49 -28 -70c-17 0 -39 3 -54 9l18 117h329l4 -43l-284 -364v-7c60 0 129 3 182 9c5 20 17 50 27 70c14 3 43 4 57 1l-26 -136h-344z" />
    <glyph glyph-name="braceleft" unicode="{" horiz-adv-x="308" 
d="M211 -145c2 -14 0 -46 -5 -57c-110 4 -137 64 -130 152l14 182c6 81 4 123 -63 129c2 20 11 45 17 56c58 6 69 47 76 116l17 158c10 95 47 161 167 166c-1 -15 -11 -46 -19 -60c-44 -6 -61 -34 -68 -100l-15 -158c-7 -77 -31 -129 -89 -147v-5c54 -16 66 -61 60 -138
l-14 -184c-5 -68 9 -105 52 -110z" />
    <glyph glyph-name="bar" unicode="|" horiz-adv-x="300" 
d="M168 756v-940c-3 -1 -23 -2 -32 -2c-8 0 -30 1 -34 2v935c16 3 47 5 66 5z" />
    <glyph glyph-name="braceright" unicode="}" horiz-adv-x="308" 
d="M-24 -145c43 2 72 37 78 98l18 186c8 83 28 132 89 148v5c-52 18 -65 66 -60 141l11 156c6 79 -8 107 -60 112c2 17 15 45 23 56c106 -10 124 -81 119 -158l-11 -160c-5 -67 -6 -118 56 -122c4 -13 7 -39 7 -56c-64 -5 -85 -34 -93 -116l-19 -185
c-10 -93 -44 -156 -157 -162c-2 7 -3 19 -3 31c0 10 1 20 2 26z" />
    <glyph glyph-name="asciitilde" unicode="~" 
d="M88 213c-12 8 -28 28 -34 40c27 38 78 70 135 70c78 0 118 -49 185 -49c36 0 64 21 78 42c14 -3 39 -14 50 -21c-26 -48 -81 -84 -143 -84c-90 0 -114 49 -184 49c-39 0 -71 -25 -87 -47z" />
    <glyph glyph-name="uni00A0" unicode="&#xa0;" horiz-adv-x="191" 
 />
    <glyph glyph-name="exclamdown" unicode="&#xa1;" horiz-adv-x="271" 
d="M19 -213l64 468c12 5 41 9 63 9l-20 -477c-15 -4 -35 -6 -53 -6c-20 0 -38 2 -54 6zM125 482c37 0 62 -23 62 -62c0 -42 -26 -68 -62 -68c-41 0 -62 23 -62 68c0 35 28 62 62 62z" />
    <glyph glyph-name="cent" unicode="&#xa2;" horiz-adv-x="453" 
d="M324 364l7 71c-15 9 -37 15 -55 15c-44 0 -84 -22 -111 -58c-30 -39 -44 -94 -44 -160c0 -85 33 -120 96 -120c47 0 107 20 157 45c0 -17 -7 -45 -14 -59c-28 -20 -63 -40 -113 -52l-7 -85c-5 -1 -25 -2 -35 -2c-8 0 -25 1 -31 2l7 78c-101 1 -150 66 -150 170
c0 82 26 156 72 212c32 39 79 68 131 80l7 60c13 4 41 7 60 7l-5 -60c44 -2 81 -15 109 -36c0 -41 -10 -86 -26 -121c-16 0 -43 5 -55 13z" />
    <glyph glyph-name="sterling" unicode="&#xa3;" horiz-adv-x="508" 
d="M367 235h-174c-5 -68 -30 -140 -73 -169v-5h234c4 20 16 57 24 75c13 4 36 6 54 5l-17 -141h-435c2 12 11 37 18 48c16 9 42 17 63 21c34 48 51 106 53 166h-82c0 16 6 44 12 59h68c-2 24 -4 48 -4 69c0 116 65 180 205 180c50 0 91 -9 132 -25c0 -36 -13 -99 -23 -123
c-20 0 -47 5 -61 13l7 66c-25 9 -42 12 -64 12c-85 0 -113 -52 -113 -127c0 -20 2 -43 3 -65h176c3 -16 1 -43 -3 -59z" />
    <glyph glyph-name="currency" unicode="&#xa4;" horiz-adv-x="542" 
d="M114 404l-51 77c6 13 26 30 42 35l51 -76c32 21 72 33 118 33c43 0 80 -11 109 -31l61 71c17 -3 35 -17 42 -29l-68 -78c20 -28 31 -64 31 -107c0 -75 -22 -137 -60 -180l54 -79c-8 -13 -34 -29 -51 -33l-50 74c-31 -18 -68 -27 -109 -27c-44 0 -81 10 -109 29l-68 -78
c-15 4 -34 23 -40 37l70 80c-18 29 -27 65 -27 110c0 71 20 130 55 172zM238 109c90 0 138 78 138 182c0 73 -41 127 -107 127c-92 0 -139 -73 -139 -173c0 -81 41 -136 108 -136z" />
    <glyph glyph-name="yen" unicode="&#xa5;" horiz-adv-x="532" 
d="M257 252h7c6 13 15 31 25 45l73 107c11 16 30 39 44 51c-19 3 -43 8 -57 14c-4 14 -5 37 -3 52h176c-2 -15 -9 -41 -15 -54c-10 -4 -30 -9 -43 -10l-122 -178h95c2 -13 0 -35 -3 -48h-125l-24 -35l-3 -31h141c2 -13 0 -35 -3 -48h-143l-5 -53c24 -2 59 -7 79 -12
c3 -14 3 -39 0 -52h-253c2 12 11 37 18 48c19 9 46 17 70 21l5 48h-152c0 13 5 36 9 48h147l3 23l-19 43h-126c0 13 5 36 9 48h96l-75 172c-16 5 -35 13 -49 22c-1 7 -2 18 -2 29c0 7 0 12 1 19h221c-2 -17 -7 -39 -12 -52c-18 -6 -48 -12 -73 -14c12 -15 23 -35 30 -52
l44 -106c6 -14 11 -31 14 -45z" />
    <glyph glyph-name="brokenbar" unicode="&#xa6;" horiz-adv-x="300" 
d="M164 756v-342c-3 -1 -24 -2 -33 -2c-8 0 -31 1 -35 2v337c16 3 49 5 68 5zM164 186v-370c-3 -1 -24 -2 -33 -2c-8 0 -31 1 -35 2v365c16 3 49 5 68 5z" />
    <glyph glyph-name="section" unicode="&#xa7;" horiz-adv-x="473" 
d="M40 329c0 63 32 115 69 144c-1 6 -1 13 -1 20c0 89 72 142 181 142c54 0 110 -14 150 -32c-4 -43 -15 -91 -25 -126c-20 0 -49 6 -63 14l9 74c-17 7 -47 16 -77 16c-60 0 -96 -26 -96 -71c0 -96 220 -88 220 -294c0 -58 -26 -104 -57 -135c2 -11 4 -23 4 -35
c0 -107 -97 -160 -216 -160c-88 0 -148 36 -158 111c12 17 53 36 81 36c9 -55 36 -90 95 -90c74 0 121 37 121 90c0 119 -237 100 -237 296zM116 347c0 -105 135 -127 202 -204c8 18 14 38 14 58c0 120 -142 135 -200 215c-10 -21 -16 -45 -16 -69z" />
    <glyph glyph-name="dieresis" unicode="&#xa8;" horiz-adv-x="419" 
d="M115 669c29 0 50 -19 50 -51c0 -34 -22 -55 -50 -55c-33 0 -51 19 -51 55c0 29 22 51 51 51zM312 669c29 0 50 -19 50 -51c0 -34 -22 -55 -50 -55c-33 0 -51 19 -51 55c0 29 22 51 51 51z" />
    <glyph glyph-name="copyright" unicode="&#xa9;" horiz-adv-x="795" 
d="M358 -20c-178 0 -302 135 -302 314c0 220 166 395 373 395c181 0 310 -138 310 -316c0 -216 -167 -393 -381 -393zM370 31c174 0 310 152 310 337c0 149 -109 269 -259 269c-170 0 -306 -150 -306 -335c0 -152 108 -271 255 -271zM472 413l6 56c-13 7 -29 10 -43 10
c-68 0 -117 -62 -117 -160c0 -86 37 -121 98 -121c29 0 71 8 99 19c0 -14 -8 -39 -15 -51c-29 -14 -76 -28 -120 -28c-94 0 -148 66 -148 169c0 138 97 224 214 224c38 0 76 -9 100 -20c-4 -35 -12 -83 -19 -110c-15 0 -43 4 -55 12z" />
    <glyph glyph-name="ordfeminine" unicode="&#xaa;" horiz-adv-x="375" 
d="M224 358h-5c-26 -34 -67 -48 -100 -48c-51 0 -90 35 -90 122c0 52 17 104 48 141s77 62 135 62c50 0 85 -13 108 -29l-30 -225c0 -2 2 -10 3 -15l45 5c0 -13 -3 -30 -9 -42c-23 -10 -65 -18 -87 -18c-9 12 -17 31 -18 47zM224 411l24 169c-10 6 -28 10 -42 10
c-33 0 -57 -19 -74 -43c-21 -29 -30 -71 -30 -105c0 -53 23 -76 54 -76c26 0 52 17 68 45zM304 207h-262c0 15 5 44 11 59h254c2 -16 0 -44 -3 -59z" />
    <glyph glyph-name="guillemotleft" unicode="&#xab;" horiz-adv-x="520" 
d="M147 250c18 -65 40 -128 64 -190c-15 -8 -49 -16 -71 -18c-32 65 -64 143 -87 208c34 65 70 123 113 186c20 8 61 15 89 15c-38 -65 -77 -136 -108 -201zM329 254c18 -65 40 -127 63 -189c-15 -8 -49 -16 -71 -18c-32 65 -64 142 -87 207c34 65 70 123 114 186
c20 8 61 15 89 15c-39 -65 -77 -136 -108 -201z" />
    <glyph glyph-name="logicalnot" unicode="&#xac;" 
d="M56 305h432v-176c-9 -2 -22 -3 -37 -3s-30 1 -41 3v108h-363c0 19 5 53 9 68z" />
    <glyph glyph-name="uni00AD" unicode="&#xad;" horiz-adv-x="328" 
d="M253 234h-227c0 20 7 56 14 74h217c1 -7 1 -13 1 -20c0 -18 -2 -40 -5 -54z" />
    <glyph glyph-name="registered" unicode="&#xae;" horiz-adv-x="502" 
d="M247 330c-113 0 -184 76 -184 187c0 143 95 249 237 249c112 0 183 -74 183 -183c0 -160 -111 -253 -236 -253zM255 372c106 0 180 85 180 197c0 89 -55 154 -145 154c-111 0 -179 -87 -179 -198c0 -88 54 -153 144 -153zM194 468l17 165c-6 0 -19 1 -25 2
c-1 6 -1 21 1 28c23 2 66 4 88 4c59 0 97 -15 97 -63c0 -35 -29 -62 -57 -66c11 -25 21 -49 34 -71l26 1c-1 -9 -4 -20 -7 -27c-13 -3 -37 -7 -53 -8c-16 33 -30 66 -42 99c-8 0 -20 1 -27 2l-6 -66c6 0 22 -3 28 -5c1 -4 2 -18 1 -24h-110c1 7 4 16 7 22c9 4 19 6 28 7z
M254 635l-6 -72c4 -1 26 -2 32 -2c25 0 48 14 48 39c0 28 -20 36 -60 36c-2 0 -8 0 -14 -1z" />
    <glyph glyph-name="macron" unicode="&#xaf;" horiz-adv-x="419" 
d="M336 579h-246c0 17 6 49 12 65h238c1 -6 1 -12 1 -18c0 -17 -2 -35 -5 -47z" />
    <glyph glyph-name="degree" unicode="&#xb0;" horiz-adv-x="368" 
d="M214 635c70 0 115 -39 115 -108c0 -96 -55 -154 -143 -154c-75 0 -117 37 -117 110c0 91 59 152 145 152zM191 425c48 0 73 39 73 94c0 38 -20 64 -55 64c-49 0 -74 -36 -74 -89c0 -42 22 -69 56 -69z" />
    <glyph glyph-name="plusminus" unicode="&#xb1;" 
d="M312 401h161c2 -9 4 -26 4 -43c0 -6 0 -10 -1 -18h-164v-179c-3 -1 -26 -2 -36 -2c-11 0 -35 1 -40 2v179h-166c0 17 5 48 8 61h158v172c18 3 54 6 76 6v-178zM74 64h395c2 -9 4 -27 4 -45c0 -6 0 -11 -1 -19h-406c0 18 5 50 8 64z" />
    <glyph glyph-name="twosuperior" unicode="&#xb2;" horiz-adv-x="385" 
d="M33 380l6 60c61 58 208 141 208 232c0 32 -17 44 -58 44c-19 0 -44 -7 -61 -17l-2 -55c-14 -5 -41 -7 -56 -7c-2 31 -3 68 -3 102c32 16 78 32 133 32c78 0 127 -25 127 -91c0 -106 -150 -196 -201 -237v-5c56 0 126 3 193 8c-1 -21 -5 -47 -10 -66h-276z" />
    <glyph glyph-name="threesuperior" unicode="&#xb3;" horiz-adv-x="385" 
d="M93 550c0 16 3 37 10 53c86 0 141 20 141 72c0 38 -31 43 -59 43c-29 0 -80 -9 -114 -26c1 22 7 41 17 59c31 14 71 20 103 20c71 0 132 -23 132 -86c0 -51 -42 -95 -98 -100v-5c48 -4 90 -31 90 -86c0 -86 -84 -121 -177 -121c-31 0 -71 4 -95 11c-5 15 -7 35 -7 52
c0 7 0 11 1 18c25 -10 76 -24 116 -24c45 0 81 16 81 57c0 48 -38 63 -141 63z" />
    <glyph glyph-name="acute" unicode="&#xb4;" horiz-adv-x="419" 
d="M348 694l-163 -166c-14 8 -32 29 -40 47l125 156c25 -4 63 -22 78 -37z" />
    <glyph glyph-name="mu" unicode="&#xb5;" horiz-adv-x="566" 
d="M96 81h-7c4 -51 7 -103 7 -145c0 -70 -5 -143 -12 -205c-29 1 -71 13 -89 22c38 250 73 489 99 715c17 7 66 12 84 12c-12 -67 -36 -235 -36 -305c0 -78 26 -118 88 -118c53 0 104 39 126 78c7 104 24 243 41 333c14 6 60 12 78 12c-19 -122 -39 -282 -39 -354
c0 -48 8 -72 32 -72c17 0 37 6 50 12c-1 -20 -9 -49 -16 -62c-16 -10 -43 -21 -68 -21c-49 0 -69 37 -74 90h-5c-20 -43 -64 -90 -150 -90c-58 0 -99 29 -109 98z" />
    <glyph glyph-name="paragraph" unicode="&#xb6;" horiz-adv-x="544" 
d="M186 -112l47 468c-13 -1 -24 -1 -34 -1c-88 0 -174 39 -174 153c0 132 105 203 278 203c80 0 186 -4 237 -9c0 -15 -3 -46 -8 -58c-20 -1 -52 -1 -71 -1l-60 -672c-2 -1 -22 -2 -31 -2c-8 0 -31 1 -35 2l68 682c-19 1 -49 2 -76 3l-71 -756c0 -4 3 -14 5 -18l207 22
c0 -15 -7 -41 -14 -54c-61 -18 -181 -34 -233 -36c-19 22 -35 60 -35 74z" />
    <glyph glyph-name="periodcentered" unicode="&#xb7;" horiz-adv-x="295" 
d="M125 315c40 0 66 -24 66 -68c0 -45 -27 -73 -66 -73c-45 0 -68 24 -68 73c0 39 30 68 68 68z" />
    <glyph glyph-name="cedilla" unicode="&#xb8;" horiz-adv-x="398" 
d="M142 -77l42 84c16 4 36 6 54 6l-22 -72c25 -7 53 -29 53 -63c0 -61 -69 -103 -132 -108c-11 11 -18 22 -23 37c39 7 73 29 73 65c0 26 -19 45 -45 51z" />
    <glyph glyph-name="onesuperior" unicode="&#xb9;" horiz-adv-x="385" 
d="M59 380c2 14 10 35 18 47c16 4 41 7 63 9l27 270l-86 -8c2 16 7 37 17 53c25 7 81 16 148 20l-28 -337c21 -1 48 -3 70 -6c2 -7 3 -14 3 -26c0 -9 -1 -17 -2 -22h-230z" />
    <glyph glyph-name="ordmasculine" unicode="&#xba;" horiz-adv-x="382" 
d="M173 310c-76 0 -116 43 -116 126c0 47 13 96 35 128c30 44 78 71 136 71c74 0 117 -42 117 -125c0 -53 -18 -106 -44 -142c-29 -38 -75 -58 -128 -58zM185 359c27 0 46 16 63 42c18 27 24 67 24 103c0 50 -16 83 -53 83c-31 0 -56 -19 -70 -48c-13 -27 -19 -58 -19 -92
c0 -57 17 -88 55 -88zM316 207h-275c0 15 5 44 11 59h267c2 -16 0 -44 -3 -59z" />
    <glyph glyph-name="guillemotright" unicode="&#xbb;" horiz-adv-x="520" 
d="M151 250c-17 65 -38 125 -60 184c16 11 46 20 68 20c31 -65 65 -139 85 -204c-35 -65 -83 -139 -129 -208c-20 1 -51 11 -64 21c37 64 69 122 100 187zM335 254c-17 65 -39 126 -60 184c16 11 47 20 69 20c31 -65 65 -139 85 -204c-35 -65 -83 -140 -130 -209
c-20 1 -51 12 -64 22c37 64 69 122 100 187z" />
    <glyph glyph-name="onequarter" unicode="&#xbc;" horiz-adv-x="926" 
d="M780 686l-534 -714c-17 4 -41 22 -49 34l526 690c15 0 41 -4 57 -10zM90 285c2 14 10 35 18 47c16 4 41 7 63 9l27 270l-86 -8c2 16 7 37 17 53c25 7 81 16 148 20l-28 -337c21 -1 48 -3 70 -6c2 -7 3 -14 3 -26c0 -9 -1 -17 -2 -22h-230zM760 100l-7 -98
c-10 -2 -26 -3 -40 -3c-12 0 -24 1 -32 3l9 98h-181l5 48l182 236h88l-20 -228h53c1 -6 1 -12 1 -17c0 -14 -2 -29 -4 -39h-54zM694 156l13 111c2 16 5 38 10 59h-4l-125 -167v-4c14 1 31 1 44 1h62z" />
    <glyph glyph-name="onehalf" unicode="&#xbd;" horiz-adv-x="926" 
d="M748 686l-534 -714c-17 4 -41 22 -49 34l526 690c15 0 41 -4 57 -10zM85 285c2 14 10 35 18 47c16 4 41 7 63 9l27 270l-86 -8c2 16 7 37 17 53c25 7 81 16 148 20l-28 -337c21 -1 48 -3 70 -6c2 -7 3 -14 3 -26c0 -9 -1 -17 -2 -22h-230zM523 0l6 60
c61 58 208 141 208 232c0 32 -17 44 -58 44c-19 0 -44 -7 -61 -17l-2 -55c-14 -5 -41 -7 -56 -7c-2 31 -3 68 -3 102c32 16 78 32 133 32c78 0 127 -25 127 -91c0 -106 -150 -196 -201 -237v-5c56 0 126 3 193 8c-1 -21 -5 -47 -10 -66h-276z" />
    <glyph glyph-name="threequarters" unicode="&#xbe;" horiz-adv-x="926" 
d="M790 686l-534 -714c-17 4 -41 22 -49 34l526 690c15 0 41 -4 57 -10zM144 455c0 16 3 37 10 53c86 0 141 20 141 72c0 38 -31 43 -59 43c-29 0 -80 -9 -114 -26c1 22 7 41 17 59c31 14 71 20 103 20c71 0 132 -23 132 -86c0 -51 -42 -95 -98 -100v-5c48 -4 90 -31 90 -86
c0 -86 -84 -121 -177 -121c-31 0 -71 4 -95 11c-5 15 -7 35 -7 52c0 7 0 11 1 18c25 -10 76 -24 116 -24c45 0 81 16 81 57c0 48 -38 63 -141 63zM770 100l-7 -98c-10 -2 -26 -3 -40 -3c-12 0 -24 1 -32 3l9 98h-181l5 48l182 236h88l-20 -228h53c1 -6 1 -12 1 -17
c0 -14 -2 -29 -4 -39h-54zM704 156l13 111c2 16 5 38 10 59h-4l-125 -167v-4c14 1 31 1 44 1h62z" />
    <glyph glyph-name="questiondown" unicode="&#xbf;" horiz-adv-x="429" 
d="M221 482c37 0 62 -23 62 -62c0 -42 -26 -68 -62 -68c-41 0 -62 23 -62 68c0 35 28 62 62 62zM252 -151l9 95c18 10 49 16 69 16c1 -15 1 -32 1 -47c0 -34 -2 -73 -5 -111c-40 -19 -123 -38 -179 -38c-113 0 -171 51 -171 130c0 150 209 191 209 301c0 22 -6 41 -15 58
c17 13 53 26 80 29c14 -23 24 -57 24 -86c0 -115 -198 -176 -198 -289c0 -43 25 -81 96 -81c24 0 61 10 80 23z" />
    <glyph glyph-name="Agrave" unicode="&#xc0;" horiz-adv-x="712" 
d="M474 224h-252l-37 -85c-9 -21 -26 -55 -40 -77c22 -1 50 -4 75 -9c3 -10 7 -42 7 -53h-230c3 17 11 39 19 53c14 5 35 9 50 11l309 644h57l178 -642c14 -1 42 -5 58 -9c3 -13 6 -42 6 -57h-240c3 17 9 39 16 54c15 4 55 10 74 12c-13 23 -25 57 -31 82zM388 605h-7
c-6 -24 -25 -70 -37 -97l-100 -227h218l-60 229c-6 24 -14 70 -14 95zM443 749l-219 96c17 23 52 50 76 60l174 -98c-2 -16 -18 -47 -31 -58z" />
    <glyph glyph-name="Aacute" unicode="&#xc1;" horiz-adv-x="712" 
d="M474 224h-252l-37 -85c-9 -21 -26 -55 -40 -77c22 -1 50 -4 75 -9c3 -10 7 -42 7 -53h-230c3 17 11 39 19 53c14 5 35 9 50 11l309 644h57l178 -642c14 -1 42 -5 58 -9c3 -13 6 -42 6 -57h-240c3 17 9 39 16 54c15 4 55 10 74 12c-13 23 -25 57 -31 82zM388 605h-7
c-6 -24 -25 -70 -37 -97l-100 -227h218l-60 229c-6 24 -14 70 -14 95zM598 834l-240 -90c-4 12 -6 32 -6 48c0 7 0 12 1 19l201 101c18 -15 37 -52 44 -78z" />
    <glyph glyph-name="Acircumflex" unicode="&#xc2;" horiz-adv-x="712" 
d="M474 224h-252l-37 -85c-9 -21 -26 -55 -40 -77c22 -1 50 -4 75 -9c3 -10 7 -42 7 -53h-230c3 17 11 39 19 53c14 5 35 9 50 11l309 644h57l178 -642c14 -1 42 -5 58 -9c3 -13 6 -42 6 -57h-240c3 17 9 39 16 54c15 4 55 10 74 12c-13 23 -25 57 -31 82zM388 605h-7
c-6 -24 -25 -70 -37 -97l-100 -227h218l-60 229c-6 24 -14 70 -14 95zM363 892h101l112 -100c-7 -16 -25 -38 -40 -47l-129 76l-153 -82c-8 15 -13 44 -13 60z" />
    <glyph glyph-name="Atilde" unicode="&#xc3;" horiz-adv-x="712" 
d="M474 224h-252l-37 -85c-9 -21 -26 -55 -40 -77c22 -1 50 -4 75 -9c3 -10 7 -42 7 -53h-230c3 17 11 39 19 53c14 5 35 9 50 11l309 644h57l178 -642c14 -1 42 -5 58 -9c3 -13 6 -42 6 -57h-240c3 17 9 39 16 54c15 4 55 10 74 12c-13 23 -25 57 -31 82zM388 605h-7
c-6 -24 -25 -70 -37 -97l-100 -227h218l-60 229c-6 24 -14 70 -14 95zM535 873c17 0 40 -6 52 -11c-8 -53 -49 -110 -123 -110c-55 0 -92 44 -137 44c-32 0 -54 -24 -62 -47c-16 3 -37 18 -44 28c14 52 57 94 122 94c66 0 89 -42 137 -42c31 0 50 22 55 44z" />
    <glyph glyph-name="Adieresis" unicode="&#xc4;" horiz-adv-x="712" 
d="M474 224h-252l-37 -85c-9 -21 -26 -55 -40 -77c22 -1 50 -4 75 -9c3 -10 7 -42 7 -53h-230c3 17 11 39 19 53c14 5 35 9 50 11l309 644h57l178 -642c14 -1 42 -5 58 -9c3 -13 6 -42 6 -57h-240c3 17 9 39 16 54c15 4 55 10 74 12c-13 23 -25 57 -31 82zM388 605h-7
c-6 -24 -25 -70 -37 -97l-100 -227h218l-60 229c-6 24 -14 70 -14 95zM288 875c33 0 58 -21 58 -55c0 -36 -26 -59 -58 -59c-38 0 -59 21 -59 59c0 31 26 55 59 55zM519 875c33 0 58 -21 58 -55c0 -36 -26 -59 -58 -59c-38 0 -59 21 -59 59c0 31 26 55 59 55z" />
    <glyph glyph-name="Aring" unicode="&#xc5;" horiz-adv-x="712" 
d="M474 224h-252l-37 -85c-9 -21 -26 -55 -40 -77c22 -1 50 -4 75 -9c3 -10 7 -42 7 -53h-230c3 17 11 39 19 53c14 5 35 9 50 11l306 638c-56 7 -84 38 -84 90c0 71 47 117 135 117c68 0 112 -33 112 -91c0 -67 -41 -106 -102 -116l177 -636c14 -1 42 -5 58 -9
c3 -13 6 -42 6 -57h-240c3 17 9 39 16 54c15 4 55 10 74 12c-13 23 -25 57 -31 82zM388 605h-7c-6 -24 -25 -70 -37 -97l-100 -227h218l-60 229c-6 24 -14 70 -14 95zM417 859c-40 0 -64 -21 -64 -62c0 -30 18 -47 53 -47c38 0 61 21 61 62c0 32 -18 47 -50 47z" />
    <glyph glyph-name="AE" unicode="&#xc6;" horiz-adv-x="893" 
d="M797 0h-461c2 16 8 39 14 53c16 5 52 11 71 13l16 165h-196l-54 -91c-16 -26 -34 -55 -51 -77c22 -1 52 -3 70 -7c4 -13 6 -44 6 -56h-224c3 17 10 39 18 53c13 5 33 9 47 11l355 566c-26 1 -67 4 -84 7c-2 15 0 45 4 57h528l-15 -147c-15 0 -41 3 -55 7
c-3 21 -6 56 -6 79h-218l-25 -264h173c3 15 10 41 15 54c15 5 41 8 58 8l-18 -185c-17 -2 -45 0 -57 4c-2 13 -5 40 -5 59h-170l-22 -246h216c5 25 14 65 21 86c15 4 48 7 64 7zM429 544l-154 -256h168l36 345h-7c-9 -24 -27 -62 -43 -89z" />
    <glyph glyph-name="Ccedilla" unicode="&#xc7;" horiz-adv-x="607" 
d="M251 -85l30 66c-145 8 -234 130 -234 300c0 268 159 433 354 433c73 0 133 -14 179 -38c-5 -54 -17 -124 -28 -166c-19 0 -52 7 -68 16l10 102c-34 16 -68 22 -105 22c-147 0 -246 -129 -246 -350c0 -164 77 -242 195 -242c54 0 133 17 180 35c0 -17 -9 -50 -18 -64
c-41 -20 -99 -39 -156 -46l-11 -48c36 -6 64 -31 64 -68c0 -67 -74 -115 -141 -122c-11 11 -23 31 -27 44c44 12 77 30 77 73c0 28 -25 46 -55 53z" />
    <glyph glyph-name="Egrave" unicode="&#xc8;" horiz-adv-x="577" 
d="M481 0h-474c3 18 9 39 15 53c18 5 56 11 77 13l58 564c-22 1 -57 4 -72 7c-2 15 1 46 4 57h451l-15 -147c-15 0 -41 3 -55 7c-3 21 -6 56 -6 79h-224l-24 -254h178c3 15 10 41 15 54c15 5 41 8 58 8l-18 -185c-17 -2 -45 0 -57 4c-2 13 -5 40 -5 59h-175l-23 -256h222
c5 25 14 65 21 86c15 4 48 7 64 7zM376 749l-219 96c17 23 52 50 76 60l174 -98c-2 -16 -18 -47 -31 -58z" />
    <glyph glyph-name="Eacute" unicode="&#xc9;" horiz-adv-x="577" 
d="M481 0h-474c3 18 9 39 15 53c18 5 56 11 77 13l58 564c-22 1 -57 4 -72 7c-2 15 1 46 4 57h451l-15 -147c-15 0 -41 3 -55 7c-3 21 -6 56 -6 79h-224l-24 -254h178c3 15 10 41 15 54c15 5 41 8 58 8l-18 -185c-17 -2 -45 0 -57 4c-2 13 -5 40 -5 59h-175l-23 -256h222
c5 25 14 65 21 86c15 4 48 7 64 7zM530 834l-240 -90c-4 12 -6 32 -6 48c0 7 0 12 1 19l201 101c18 -15 37 -52 44 -78z" />
    <glyph glyph-name="Ecircumflex" unicode="&#xca;" horiz-adv-x="577" 
d="M481 0h-474c3 18 9 39 15 53c18 5 56 11 77 13l58 564c-22 1 -57 4 -72 7c-2 15 1 46 4 57h451l-15 -147c-15 0 -41 3 -55 7c-3 21 -6 56 -6 79h-224l-24 -254h178c3 15 10 41 15 54c15 5 41 8 58 8l-18 -185c-17 -2 -45 0 -57 4c-2 13 -5 40 -5 59h-175l-23 -256h222
c5 25 14 65 21 86c15 4 48 7 64 7zM293 892h101l112 -100c-7 -16 -25 -38 -40 -47l-129 76l-153 -82c-8 15 -13 44 -13 60z" />
    <glyph glyph-name="Edieresis" unicode="&#xcb;" horiz-adv-x="577" 
d="M481 0h-474c3 18 9 39 15 53c18 5 56 11 77 13l58 564c-22 1 -57 4 -72 7c-2 15 1 46 4 57h451l-15 -147c-15 0 -41 3 -55 7c-3 21 -6 56 -6 79h-224l-24 -254h178c3 15 10 41 15 54c15 5 41 8 58 8l-18 -185c-17 -2 -45 0 -57 4c-2 13 -5 40 -5 59h-175l-23 -256h222
c5 25 14 65 21 86c15 4 48 7 64 7zM221 875c33 0 58 -21 58 -55c0 -36 -26 -59 -58 -59c-38 0 -59 21 -59 59c0 31 26 55 59 55zM452 875c33 0 58 -21 58 -55c0 -36 -26 -59 -58 -59c-38 0 -59 21 -59 59c0 31 26 55 59 55z" />
    <glyph glyph-name="Igrave" unicode="&#xcc;" horiz-adv-x="350" 
d="M241 630l-51 -565c28 -2 61 -5 84 -10c3 -13 1 -42 -2 -55h-264c3 18 9 39 15 53c18 5 56 11 77 13l58 564c-22 1 -57 4 -72 7c-2 15 1 46 4 57h236c1 -5 1 -12 1 -16c0 -11 -3 -29 -7 -40c-22 -4 -54 -7 -79 -8zM247 749l-219 96c17 23 52 50 76 60l174 -98
c-2 -16 -18 -47 -31 -58z" />
    <glyph glyph-name="Iacute" unicode="&#xcd;" horiz-adv-x="350" 
d="M241 630l-51 -565c28 -2 61 -5 84 -10c3 -13 1 -42 -2 -55h-264c3 18 9 39 15 53c18 5 56 11 77 13l58 564c-22 1 -57 4 -72 7c-2 15 1 46 4 57h236c1 -5 1 -12 1 -16c0 -11 -3 -29 -7 -40c-22 -4 -54 -7 -79 -8zM405 834l-240 -90c-4 12 -6 32 -6 48c0 7 0 12 1 19
l201 101c18 -15 37 -52 44 -78z" />
    <glyph glyph-name="Icircumflex" unicode="&#xce;" horiz-adv-x="350" 
d="M241 630l-51 -565c28 -2 61 -5 84 -10c3 -13 1 -42 -2 -55h-264c3 18 9 39 15 53c18 5 56 11 77 13l58 564c-22 1 -57 4 -72 7c-2 15 1 46 4 57h236c1 -5 1 -12 1 -16c0 -11 -3 -29 -7 -40c-22 -4 -54 -7 -79 -8zM171 892h101l112 -100c-7 -16 -25 -38 -40 -47l-129 76
l-153 -82c-8 15 -13 44 -13 60z" />
    <glyph glyph-name="Idieresis" unicode="&#xcf;" horiz-adv-x="350" 
d="M116 875c33 0 58 -21 58 -55c0 -36 -26 -59 -58 -59c-38 0 -59 21 -59 59c0 31 26 55 59 55zM317 875c33 0 58 -21 58 -55c0 -36 -26 -59 -58 -59c-38 0 -59 21 -59 59c0 31 26 55 59 55zM241 630l-51 -565c28 -2 61 -5 84 -10c3 -13 1 -42 -2 -55h-264c3 18 9 39 15 53
c18 5 56 11 77 13l58 564c-22 1 -57 4 -72 7c-2 15 1 46 4 57h236c1 -5 1 -12 1 -16c0 -11 -3 -29 -7 -40c-22 -4 -54 -7 -79 -8z" />
    <glyph glyph-name="Eth" unicode="&#xd0;" horiz-adv-x="708" 
d="M104 687c74 8 174 14 244 14c177 0 307 -105 307 -304c0 -277 -152 -402 -344 -402c-84 0 -213 4 -287 7c3 18 9 39 15 53c18 5 54 11 75 13l26 250h-82c0 16 6 45 12 61h76l26 245c-22 0 -53 0 -72 3c-1 12 1 47 4 60zM255 635l-23 -256h180c3 -17 0 -45 -3 -61h-182
l-23 -256c29 -2 63 -3 91 -3c178 0 267 111 267 329c0 167 -97 251 -240 251c-16 0 -51 -1 -67 -4z" />
    <glyph glyph-name="Ntilde" unicode="&#xd1;" horiz-adv-x="730" 
d="M281 694l212 -500c11 -26 24 -72 30 -109h7l55 545c-22 1 -56 4 -72 7c-1 15 1 46 4 57h209c1 -5 1 -12 1 -16c0 -11 -3 -29 -7 -40c-19 -4 -49 -7 -71 -8l-58 -636h-111l-228 554c-7 18 -18 50 -23 70h-7l-50 -553c27 -2 57 -5 79 -10c3 -12 1 -43 -2 -55h-240
c3 18 9 39 14 53c18 5 54 11 74 13l59 564c-22 1 -54 4 -71 7c-2 15 1 46 4 57h192zM541 873c17 0 40 -6 52 -11c-8 -53 -49 -110 -123 -110c-55 0 -92 44 -137 44c-32 0 -54 -24 -62 -47c-16 3 -37 18 -44 28c14 52 57 94 122 94c66 0 89 -42 137 -42c31 0 50 22 55 44z
" />
    <glyph glyph-name="Ograve" unicode="&#xd2;" horiz-adv-x="714" 
d="M645 417c0 -263 -124 -437 -332 -437c-171 0 -264 105 -264 303c0 257 128 431 334 431c160 0 262 -106 262 -297zM551 405c0 143 -66 243 -174 243c-162 0 -233 -157 -233 -353c0 -152 63 -248 176 -248c151 0 231 151 231 358zM427 749l-219 96c17 23 52 50 76 60
l174 -98c-2 -16 -18 -47 -31 -58z" />
    <glyph glyph-name="Oacute" unicode="&#xd3;" horiz-adv-x="714" 
d="M645 417c0 -263 -124 -437 -332 -437c-171 0 -264 105 -264 303c0 257 128 431 334 431c160 0 262 -106 262 -297zM551 405c0 143 -66 243 -174 243c-162 0 -233 -157 -233 -353c0 -152 63 -248 176 -248c151 0 231 151 231 358zM572 834l-240 -90c-4 12 -6 32 -6 48
c0 7 0 12 1 19l201 101c18 -15 37 -52 44 -78z" />
    <glyph glyph-name="Ocircumflex" unicode="&#xd4;" horiz-adv-x="714" 
d="M645 417c0 -263 -124 -437 -332 -437c-171 0 -264 105 -264 303c0 257 128 431 334 431c160 0 262 -106 262 -297zM551 405c0 143 -66 243 -174 243c-162 0 -233 -157 -233 -353c0 -152 63 -248 176 -248c151 0 231 151 231 358zM345 892h101l112 -100
c-7 -16 -25 -38 -40 -47l-129 76l-153 -82c-8 15 -13 44 -13 60z" />
    <glyph glyph-name="Otilde" unicode="&#xd5;" horiz-adv-x="714" 
d="M645 417c0 -263 -124 -437 -332 -437c-171 0 -264 105 -264 303c0 257 128 431 334 431c160 0 262 -106 262 -297zM551 405c0 143 -66 243 -174 243c-162 0 -233 -157 -233 -353c0 -152 63 -248 176 -248c151 0 231 151 231 358zM524 873c17 0 40 -6 52 -11
c-8 -53 -49 -110 -123 -110c-55 0 -92 44 -137 44c-32 0 -54 -24 -62 -47c-16 3 -37 18 -44 28c14 52 57 94 122 94c66 0 89 -42 137 -42c31 0 50 22 55 44z" />
    <glyph glyph-name="Odieresis" unicode="&#xd6;" horiz-adv-x="714" 
d="M249 875c33 0 58 -21 58 -55c0 -36 -26 -59 -58 -59c-38 0 -59 21 -59 59c0 31 26 55 59 55zM526 875c33 0 58 -21 58 -55c0 -36 -26 -59 -58 -59c-38 0 -59 21 -59 59c0 31 26 55 59 55zM645 417c0 -263 -124 -437 -332 -437c-171 0 -264 105 -264 303
c0 257 128 431 334 431c160 0 262 -106 262 -297zM551 405c0 143 -66 243 -174 243c-162 0 -233 -157 -233 -353c0 -152 63 -248 176 -248c151 0 231 151 231 358z" />
    <glyph glyph-name="multiply" unicode="&#xd7;" 
d="M324 268l170 -168c-8 -13 -35 -39 -48 -48l-168 169l-168 -169c-15 10 -40 36 -48 49l169 167l-173 171c11 12 40 32 57 40l163 -164l162 164c16 -6 46 -27 58 -40z" />
    <glyph glyph-name="Oslash" unicode="&#xd8;" horiz-adv-x="741" 
d="M667 417c0 -263 -126 -437 -338 -437c-88 0 -155 27 -201 79l-105 -107c-10 12 -23 44 -26 64l96 98c-22 45 -32 101 -32 169c0 257 130 431 340 431c81 0 147 -27 194 -77l92 98c16 -8 41 -27 50 -43l-105 -110c23 -45 35 -100 35 -165zM573 405c0 38 -5 74 -15 105
l-364 -382c30 -52 78 -81 142 -81c155 0 237 151 237 358zM156 295c0 -41 4 -77 13 -109l362 385c-31 48 -78 77 -136 77c-166 0 -239 -157 -239 -353z" />
    <glyph glyph-name="Ugrave" unicode="&#xd9;" horiz-adv-x="680" 
d="M478 694h203c1 -5 1 -12 1 -16c0 -13 -3 -30 -7 -40c-19 -4 -46 -7 -68 -8l-28 -364c-13 -169 -102 -286 -292 -286c-144 0 -213 77 -213 217c0 16 2 42 4 60l35 372c-23 1 -50 4 -70 8c-3 14 -4 46 -3 57h248c1 -12 -2 -43 -7 -56c-23 -4 -57 -7 -84 -8l-28 -365
c-1 -10 -3 -39 -3 -52c0 -108 50 -168 148 -168c115 0 178 97 189 214l36 371c-20 1 -50 4 -65 7c-2 13 0 45 4 57zM423 749l-219 96c17 23 52 50 76 60l174 -98c-2 -16 -18 -47 -31 -58z" />
    <glyph glyph-name="Uacute" unicode="&#xda;" horiz-adv-x="680" 
d="M478 694h203c1 -5 1 -12 1 -16c0 -13 -3 -30 -7 -40c-19 -4 -46 -7 -68 -8l-28 -364c-13 -169 -102 -286 -292 -286c-144 0 -213 77 -213 217c0 16 2 42 4 60l35 372c-23 1 -50 4 -70 8c-3 14 -4 46 -3 57h248c1 -12 -2 -43 -7 -56c-23 -4 -57 -7 -84 -8l-28 -365
c-1 -10 -3 -39 -3 -52c0 -108 50 -168 148 -168c115 0 178 97 189 214l36 371c-20 1 -50 4 -65 7c-2 13 0 45 4 57zM573 834l-240 -90c-4 12 -6 32 -6 48c0 7 0 12 1 19l201 101c18 -15 37 -52 44 -78z" />
    <glyph glyph-name="Ucircumflex" unicode="&#xdb;" horiz-adv-x="680" 
d="M478 694h203c1 -5 1 -12 1 -16c0 -13 -3 -30 -7 -40c-19 -4 -46 -7 -68 -8l-28 -364c-13 -169 -102 -286 -292 -286c-144 0 -213 77 -213 217c0 16 2 42 4 60l35 372c-23 1 -50 4 -70 8c-3 14 -4 46 -3 57h248c1 -12 -2 -43 -7 -56c-23 -4 -57 -7 -84 -8l-28 -365
c-1 -10 -3 -39 -3 -52c0 -108 50 -168 148 -168c115 0 178 97 189 214l36 371c-20 1 -50 4 -65 7c-2 13 0 45 4 57zM343 892h101l112 -100c-7 -16 -25 -38 -40 -47l-129 76l-153 -82c-8 15 -13 44 -13 60z" />
    <glyph glyph-name="Udieresis" unicode="&#xdc;" horiz-adv-x="680" 
d="M478 694h203c1 -5 1 -12 1 -16c0 -13 -3 -30 -7 -40c-19 -4 -46 -7 -68 -8l-28 -364c-13 -169 -102 -286 -292 -286c-144 0 -213 77 -213 217c0 16 2 42 4 60l35 372c-23 1 -50 4 -70 8c-3 14 -4 46 -3 57h248c1 -12 -2 -43 -7 -56c-23 -4 -57 -7 -84 -8l-28 -365
c-1 -10 -3 -39 -3 -52c0 -108 50 -168 148 -168c115 0 178 97 189 214l36 371c-20 1 -50 4 -65 7c-2 13 0 45 4 57zM270 875c33 0 58 -21 58 -55c0 -36 -26 -59 -58 -59c-38 0 -59 21 -59 59c0 31 26 55 59 55zM501 875c33 0 58 -21 58 -55c0 -36 -26 -59 -58 -59
c-38 0 -59 21 -59 59c0 31 26 55 59 55z" />
    <glyph glyph-name="Yacute" unicode="&#xdd;" horiz-adv-x="586" 
d="M290 334h7c6 17 21 46 32 65l95 162c12 20 35 54 49 69c-20 1 -47 4 -63 8c-4 15 -6 39 -6 56h196c0 -14 -6 -43 -12 -58c-11 -2 -32 -4 -47 -5l-225 -360l-16 -206c29 -2 61 -5 86 -10c3 -13 1 -42 -2 -55h-273c3 18 10 39 16 53c19 5 60 11 82 13l21 206l-139 356
c-13 1 -38 5 -49 8c-5 18 -6 40 -6 58h236c-1 -17 -8 -43 -14 -56c-22 -4 -55 -6 -81 -7c14 -22 25 -45 34 -68l62 -161c6 -16 15 -52 17 -68zM523 834l-240 -90c-4 12 -6 32 -6 48c0 7 0 12 1 19l201 101c18 -15 37 -52 44 -78z" />
    <glyph glyph-name="Thorn" unicode="&#xde;" horiz-adv-x="573" 
d="M242 630l-6 -68c24 2 54 4 81 4c134 0 230 -61 230 -183c0 -159 -116 -245 -246 -245c-29 0 -71 2 -103 7l-7 -80c33 -2 70 -5 99 -10c3 -12 1 -44 -2 -55h-279c3 18 9 39 15 53c19 5 55 11 77 13l58 564c-22 1 -57 4 -72 7c-2 14 1 45 4 57h237c2 -14 -2 -43 -7 -56
c-22 -4 -54 -7 -79 -8zM230 499l-27 -295c29 -3 70 -4 98 -4c93 0 157 54 157 172c0 88 -64 131 -164 131c-16 0 -45 -2 -64 -4z" />
    <glyph glyph-name="germandbls" unicode="&#xdf;" horiz-adv-x="603" 
d="M54 470h72c22 176 111 260 257 260c72 0 160 -26 160 -109c0 -116 -133 -131 -133 -219c0 -97 152 -105 152 -233c0 -124 -85 -186 -200 -186c-79 0 -140 28 -140 101c10 20 52 36 81 36c3 -59 30 -80 82 -80c56 0 95 45 95 101c0 111 -155 114 -155 239
c0 137 140 146 140 227c0 49 -48 64 -91 64c-106 0 -155 -71 -170 -205l-67 -616c-12 -2 -33 -4 -50 -4c-14 0 -30 1 -39 4l70 556c-22 1 -50 3 -71 7c0 16 3 45 7 57z" />
    <glyph glyph-name="agrave" unicode="&#xe0;" horiz-adv-x="522" 
d="M293 57h-5c-37 -53 -95 -74 -141 -74c-74 0 -129 52 -129 179c0 84 23 166 66 226c43 59 106 99 186 99c63 0 115 -21 149 -45l-48 -367c0 -3 3 -16 5 -21l78 7c0 -14 -8 -42 -16 -55c-30 -12 -91 -23 -119 -23c-11 19 -22 50 -26 74zM293 124l41 295
c-17 10 -43 15 -65 15c-54 0 -97 -34 -122 -75c-30 -50 -43 -130 -43 -186c0 -85 33 -122 84 -122c40 0 81 28 105 73zM285 542l-119 154c20 14 62 25 93 25l90 -158c-12 -9 -46 -21 -64 -21z" />
    <glyph glyph-name="aacute" unicode="&#xe1;" horiz-adv-x="522" 
d="M293 57h-5c-37 -53 -95 -74 -141 -74c-74 0 -129 52 -129 179c0 84 23 166 66 226c43 59 106 99 186 99c63 0 115 -21 149 -45l-48 -367c0 -3 3 -16 5 -21l78 7c0 -14 -8 -42 -16 -55c-30 -12 -91 -23 -119 -23c-11 19 -22 50 -26 74zM293 124l41 295
c-17 10 -43 15 -65 15c-54 0 -97 -34 -122 -75c-30 -50 -43 -130 -43 -186c0 -85 33 -122 84 -122c40 0 81 28 105 73zM420 694l-163 -166c-14 8 -32 29 -40 47l125 156c25 -4 63 -22 78 -37z" />
    <glyph glyph-name="acircumflex" unicode="&#xe2;" horiz-adv-x="522" 
d="M293 57h-5c-37 -53 -95 -74 -141 -74c-74 0 -129 52 -129 179c0 84 23 166 66 226c43 59 106 99 186 99c63 0 115 -21 149 -45l-48 -367c0 -3 3 -16 5 -21l78 7c0 -14 -8 -42 -16 -55c-30 -12 -91 -23 -119 -23c-11 19 -22 50 -26 74zM293 124l41 295
c-17 10 -43 15 -65 15c-54 0 -97 -34 -122 -75c-30 -50 -43 -130 -43 -186c0 -85 33 -122 84 -122c40 0 81 28 105 73zM252 706l80 7l94 -141c-13 -17 -38 -30 -59 -34l-81 99l-119 -108c-11 9 -23 37 -26 57z" />
    <glyph glyph-name="atilde" unicode="&#xe3;" horiz-adv-x="522" 
d="M293 57h-5c-37 -53 -95 -74 -141 -74c-74 0 -129 52 -129 179c0 84 23 166 66 226c43 59 106 99 186 99c63 0 115 -21 149 -45l-48 -367c0 -3 3 -16 5 -21l78 7c0 -14 -8 -42 -16 -55c-30 -12 -91 -23 -119 -23c-11 19 -22 50 -26 74zM293 124l41 295
c-17 10 -43 15 -65 15c-54 0 -97 -34 -122 -75c-30 -50 -43 -130 -43 -186c0 -85 33 -122 84 -122c40 0 81 28 105 73zM396 669c12 0 26 -3 38 -9c-7 -49 -41 -105 -107 -105c-45 0 -77 44 -113 44c-26 0 -48 -22 -56 -42c-12 0 -27 11 -33 23c14 50 47 91 108 91
c49 0 70 -42 113 -42c27 0 43 18 50 40z" />
    <glyph glyph-name="adieresis" unicode="&#xe4;" horiz-adv-x="522" 
d="M293 57h-5c-37 -53 -95 -74 -141 -74c-74 0 -129 52 -129 179c0 84 23 166 66 226c43 59 106 99 186 99c63 0 115 -21 149 -45l-48 -367c0 -3 3 -16 5 -21l78 7c0 -14 -8 -42 -16 -55c-30 -12 -91 -23 -119 -23c-11 19 -22 50 -26 74zM293 124l41 295
c-17 10 -43 15 -65 15c-54 0 -97 -34 -122 -75c-30 -50 -43 -130 -43 -186c0 -85 33 -122 84 -122c40 0 81 28 105 73zM178 669c29 0 50 -19 50 -51c0 -34 -22 -55 -50 -55c-33 0 -51 19 -51 55c0 29 22 51 51 51zM375 669c29 0 50 -19 50 -51c0 -34 -22 -55 -50 -55
c-33 0 -51 19 -51 55c0 29 22 51 51 51z" />
    <glyph glyph-name="aring" unicode="&#xe5;" horiz-adv-x="522" 
d="M293 57h-5c-37 -53 -95 -74 -141 -74c-74 0 -129 52 -129 179c0 84 23 166 66 226c43 59 106 99 186 99c63 0 115 -21 149 -45l-48 -367c0 -3 3 -16 5 -21l78 7c0 -14 -8 -42 -16 -55c-30 -12 -91 -23 -119 -23c-11 19 -22 50 -26 74zM293 124l41 295
c-17 10 -43 15 -65 15c-54 0 -97 -34 -122 -75c-30 -50 -43 -130 -43 -186c0 -85 33 -122 84 -122c40 0 81 28 105 73zM293 741c53 0 92 -32 92 -83c0 -75 -49 -118 -116 -118c-61 0 -94 28 -94 82c0 71 44 119 118 119zM289 698c-40 0 -59 -26 -59 -68c0 -30 16 -46 45 -46
c35 0 57 25 57 70c0 27 -18 44 -43 44z" />
    <glyph glyph-name="ae" unicode="&#xe6;" horiz-adv-x="713" 
d="M653 377c0 -80 -48 -161 -274 -170v-30c0 -80 27 -122 83 -122c44 0 107 19 150 47c0 -19 -5 -41 -12 -55c-38 -33 -98 -64 -172 -64c-70 0 -107 39 -116 86h-5c-21 -42 -83 -86 -164 -86c-66 0 -122 35 -122 117c0 110 95 175 196 175c30 0 64 -6 86 -17c4 22 9 64 9 77
c0 56 -25 83 -78 83c-42 0 -107 -23 -143 -46c-2 7 -3 18 -3 28c0 16 4 37 9 48c34 19 110 39 162 39c71 0 110 -28 120 -76h5c20 37 81 76 156 76c70 0 113 -42 113 -110zM184 52c47 0 91 24 114 54c-2 14 -3 30 -3 47c0 19 1 39 3 59c-18 5 -47 8 -65 8
c-77 0 -128 -39 -128 -98c0 -51 33 -70 79 -70zM520 433c-41 0 -80 -25 -103 -63c-18 -30 -28 -68 -33 -105c167 6 190 57 190 107c0 34 -16 61 -54 61z" />
    <glyph glyph-name="ccedilla" unicode="&#xe7;" horiz-adv-x="443" 
d="M113 -77l30 61c-86 9 -127 76 -127 181c0 89 25 169 69 229c42 56 112 93 184 93c46 0 84 -14 112 -36c0 -41 -10 -86 -26 -121c-16 0 -43 5 -55 13l7 71c-14 9 -35 15 -51 15c-45 0 -84 -25 -109 -64c-28 -44 -41 -104 -41 -177c0 -94 31 -132 91 -132
c46 0 112 25 147 44c0 -17 -7 -45 -14 -59c-30 -22 -77 -46 -130 -55l-13 -45c25 -8 53 -31 53 -63c0 -58 -69 -103 -132 -108c-11 11 -18 22 -23 37c39 7 73 31 73 65c0 24 -20 44 -45 51z" />
    <glyph glyph-name="egrave" unicode="&#xe8;" horiz-adv-x="439" 
d="M382 377c0 -80 -50 -161 -274 -170v-30c0 -82 28 -122 83 -122c44 0 107 19 150 47c0 -19 -5 -41 -12 -55c-38 -33 -100 -64 -174 -64c-89 0 -136 63 -136 170c0 88 20 185 75 251c40 48 101 83 173 83c71 0 115 -42 115 -110zM249 433c-41 0 -80 -25 -102 -63
c-18 -30 -28 -68 -33 -105c165 6 187 57 187 107c0 34 -15 61 -52 61zM248 542l-119 154c20 14 62 25 93 25l90 -158c-12 -9 -46 -21 -64 -21z" />
    <glyph glyph-name="eacute" unicode="&#xe9;" horiz-adv-x="439" 
d="M382 377c0 -80 -50 -161 -274 -170v-30c0 -82 28 -122 83 -122c44 0 107 19 150 47c0 -19 -5 -41 -12 -55c-38 -33 -100 -64 -174 -64c-89 0 -136 63 -136 170c0 88 20 185 75 251c40 48 101 83 173 83c71 0 115 -42 115 -110zM249 433c-41 0 -80 -25 -102 -63
c-18 -30 -28 -68 -33 -105c165 6 187 57 187 107c0 34 -15 61 -52 61zM399 694l-163 -166c-14 8 -32 29 -40 47l125 156c25 -4 63 -22 78 -37z" />
    <glyph glyph-name="ecircumflex" unicode="&#xea;" horiz-adv-x="439" 
d="M382 377c0 -80 -50 -161 -274 -170v-30c0 -82 28 -122 83 -122c44 0 107 19 150 47c0 -19 -5 -41 -12 -55c-38 -33 -100 -64 -174 -64c-89 0 -136 63 -136 170c0 88 20 185 75 251c40 48 101 83 173 83c71 0 115 -42 115 -110zM249 433c-41 0 -80 -25 -102 -63
c-18 -30 -28 -68 -33 -105c165 6 187 57 187 107c0 34 -15 61 -52 61zM230 706l80 7l94 -141c-13 -17 -38 -30 -59 -34l-81 99l-119 -108c-11 9 -23 37 -26 57z" />
    <glyph glyph-name="edieresis" unicode="&#xeb;" horiz-adv-x="439" 
d="M382 377c0 -80 -50 -161 -274 -170v-30c0 -82 28 -122 83 -122c44 0 107 19 150 47c0 -19 -5 -41 -12 -55c-38 -33 -100 -64 -174 -64c-89 0 -136 63 -136 170c0 88 20 185 75 251c40 48 101 83 173 83c71 0 115 -42 115 -110zM249 433c-41 0 -80 -25 -102 -63
c-18 -30 -28 -68 -33 -105c165 6 187 57 187 107c0 34 -15 61 -52 61zM159 669c29 0 50 -19 50 -51c0 -34 -22 -55 -50 -55c-33 0 -51 19 -51 55c0 29 22 51 51 51zM356 669c29 0 50 -19 50 -51c0 -34 -22 -55 -50 -55c-33 0 -51 19 -51 55c0 29 22 51 51 51z" />
    <glyph glyph-name="igrave" unicode="&#xec;" horiz-adv-x="280" 
d="M94 415l-73 -8c0 10 9 42 18 51c24 12 58 23 99 23c10 0 33 -2 41 -4l-50 -406c0 -3 3 -13 5 -17l78 8c0 -15 -8 -43 -16 -56c-32 -12 -90 -23 -119 -23c-19 22 -35 57 -35 74zM136 542l-119 154c20 14 62 25 93 25l90 -158c-12 -9 -46 -21 -64 -21z" />
    <glyph glyph-name="iacute" unicode="&#xed;" horiz-adv-x="280" 
d="M94 415l-73 -8c0 10 9 42 18 51c24 12 58 23 99 23c10 0 33 -2 41 -4l-50 -406c0 -3 3 -13 5 -17l78 8c0 -15 -8 -43 -16 -56c-32 -12 -90 -23 -119 -23c-19 22 -35 57 -35 74zM288 694l-163 -166c-14 8 -32 29 -40 47l125 156c25 -4 63 -22 78 -37z" />
    <glyph glyph-name="icircumflex" unicode="&#xee;" horiz-adv-x="280" 
d="M94 415l-73 -8c0 10 9 42 18 51c24 12 58 23 99 23c10 0 33 -2 41 -4l-50 -406c0 -3 3 -13 5 -17l78 8c0 -15 -8 -43 -16 -56c-32 -12 -90 -23 -119 -23c-19 22 -35 57 -35 74zM121 706l80 7l94 -141c-13 -17 -38 -30 -59 -34l-81 99l-119 -108c-11 9 -23 37 -26 57z" />
    <glyph glyph-name="idieresis" unicode="&#xef;" horiz-adv-x="280" 
d="M61 669c30 0 50 -19 50 -51c0 -34 -21 -55 -50 -55c-33 0 -51 19 -51 55c0 30 22 51 51 51zM234 669c30 0 50 -19 50 -51c0 -34 -21 -55 -50 -55c-33 0 -51 19 -51 55c0 30 22 51 51 51zM94 415l-73 -8c0 10 9 42 18 51c24 12 58 23 99 23c10 0 33 -2 41 -4l-50 -406
c0 -3 3 -13 5 -17l78 8c0 -15 -8 -43 -16 -56c-32 -12 -90 -23 -119 -23c-19 22 -35 57 -35 74z" />
    <glyph glyph-name="eth" unicode="&#xf0;" horiz-adv-x="512" 
d="M294 575l-118 -66c-6 14 -10 42 -10 56l83 48c-46 30 -96 43 -143 53c6 20 22 45 36 57c65 -13 128 -33 181 -72l105 60c9 -10 23 -34 27 -47l-90 -51c47 -52 81 -136 81 -253c0 -186 -68 -377 -253 -377c-109 0 -176 71 -176 201c0 148 86 283 225 283
c61 0 101 -26 114 -51h7c-13 71 -37 124 -69 159zM256 403c-104 0 -155 -94 -155 -208c0 -97 37 -151 102 -151c124 0 161 177 161 315c-27 26 -62 44 -108 44z" />
    <glyph glyph-name="ntilde" unicode="&#xf1;" horiz-adv-x="545" 
d="M157 396h10c23 42 67 91 154 91c60 0 116 -24 116 -124c0 -60 -31 -246 -37 -292c0 -3 3 -14 5 -17l77 8c0 -15 -8 -43 -16 -56c-33 -13 -90 -23 -118 -23c-19 22 -35 57 -35 74c13 73 39 226 39 278s-20 86 -68 86c-55 0 -103 -50 -122 -90l-37 -329
c-12 -2 -31 -4 -48 -4c-14 0 -28 1 -37 4l55 413l-73 -8c0 10 9 42 18 51c20 13 58 23 92 23c12 0 24 -1 34 -4zM399 669c12 0 26 -3 38 -9c-7 -49 -41 -105 -107 -105c-45 0 -77 44 -113 44c-26 0 -48 -22 -56 -42c-12 0 -27 11 -33 23c14 50 47 91 108 91
c49 0 70 -42 113 -42c27 0 43 18 50 40z" />
    <glyph glyph-name="ograve" unicode="&#xf2;" horiz-adv-x="488" 
d="M184 -17c-107 0 -165 66 -165 192c0 78 17 148 50 202c42 67 109 110 188 110c102 0 165 -67 165 -187c0 -88 -22 -169 -62 -226s-104 -91 -176 -91zM194 42c44 0 79 27 103 69c27 47 39 115 39 180c0 81 -30 138 -87 138c-50 0 -89 -33 -113 -80
c-23 -46 -30 -105 -30 -165c0 -87 30 -142 88 -142zM274 542l-119 154c20 14 62 25 93 25l90 -158c-12 -9 -46 -21 -64 -21z" />
    <glyph glyph-name="oacute" unicode="&#xf3;" horiz-adv-x="488" 
d="M184 -17c-107 0 -165 66 -165 192c0 78 17 148 50 202c42 67 109 110 188 110c102 0 165 -67 165 -187c0 -88 -22 -169 -62 -226s-104 -91 -176 -91zM194 42c44 0 79 27 103 69c27 47 39 115 39 180c0 81 -30 138 -87 138c-50 0 -89 -33 -113 -80
c-23 -46 -30 -105 -30 -165c0 -87 30 -142 88 -142zM400 694l-163 -166c-14 8 -32 29 -40 47l125 156c25 -4 63 -22 78 -37z" />
    <glyph glyph-name="ocircumflex" unicode="&#xf4;" horiz-adv-x="488" 
d="M184 -17c-107 0 -165 66 -165 192c0 78 17 148 50 202c42 67 109 110 188 110c102 0 165 -67 165 -187c0 -88 -22 -169 -62 -226s-104 -91 -176 -91zM194 42c44 0 79 27 103 69c27 47 39 115 39 180c0 81 -30 138 -87 138c-50 0 -89 -33 -113 -80
c-23 -46 -30 -105 -30 -165c0 -87 30 -142 88 -142zM232 706l80 7l94 -141c-13 -17 -38 -30 -59 -34l-81 99l-119 -108c-11 9 -23 37 -26 57z" />
    <glyph glyph-name="otilde" unicode="&#xf5;" horiz-adv-x="488" 
d="M184 -17c-107 0 -165 66 -165 192c0 78 17 148 50 202c42 67 109 110 188 110c102 0 165 -67 165 -187c0 -88 -22 -169 -62 -226s-104 -91 -176 -91zM194 42c44 0 79 27 103 69c27 47 39 115 39 180c0 81 -30 138 -87 138c-50 0 -89 -33 -113 -80
c-23 -46 -30 -105 -30 -165c0 -87 30 -142 88 -142zM379 669c12 0 26 -3 38 -9c-7 -49 -41 -105 -107 -105c-45 0 -77 44 -113 44c-26 0 -48 -22 -56 -42c-12 0 -27 11 -33 23c14 50 47 91 108 91c49 0 70 -42 113 -42c27 0 43 18 50 40z" />
    <glyph glyph-name="odieresis" unicode="&#xf6;" horiz-adv-x="488" 
d="M184 -17c-107 0 -165 66 -165 192c0 78 17 148 50 202c42 67 109 110 188 110c102 0 165 -67 165 -187c0 -88 -22 -169 -62 -226s-104 -91 -176 -91zM194 42c44 0 79 27 103 69c27 47 39 115 39 180c0 81 -30 138 -87 138c-50 0 -89 -33 -113 -80
c-23 -46 -30 -105 -30 -165c0 -87 30 -142 88 -142zM167 669c29 0 50 -19 50 -51c0 -34 -22 -55 -50 -55c-33 0 -51 19 -51 55c0 29 22 51 51 51zM364 669c29 0 50 -19 50 -51c0 -34 -22 -55 -50 -55c-33 0 -51 19 -51 55c0 29 22 51 51 51z" />
    <glyph glyph-name="divide" unicode="&#xf7;" 
d="M504 236h-460c0 18 5 53 9 67h448c2 -11 4 -29 4 -47c0 -7 0 -14 -1 -20zM274 525c32 0 55 -20 55 -54c0 -37 -23 -58 -55 -58c-36 0 -56 20 -56 58c0 32 24 54 56 54zM274 125c32 0 55 -20 55 -54c0 -37 -23 -58 -55 -58c-36 0 -56 20 -56 58c0 32 24 54 56 54z" />
    <glyph glyph-name="oslash" unicode="&#xf8;" horiz-adv-x="516" 
d="M201 -17c-48 0 -86 14 -114 39l-69 -81c-10 10 -23 34 -27 50l64 75c-13 29 -20 65 -20 109c0 78 17 148 51 202c42 67 109 110 190 110c45 0 83 -13 111 -38l59 68c12 -6 34 -23 41 -34l-67 -78c14 -29 22 -64 22 -105c0 -88 -22 -169 -62 -226
c-41 -57 -105 -91 -179 -91zM211 42c46 0 81 27 106 69c27 47 40 115 40 180c0 15 -1 29 -3 42l-213 -248c15 -28 38 -43 70 -43zM121 184c0 -16 1 -30 3 -44l212 248c-15 26 -38 41 -68 41c-52 0 -91 -33 -116 -80c-23 -46 -31 -105 -31 -165z" />
    <glyph glyph-name="ugrave" unicode="&#xf9;" horiz-adv-x="554" 
d="M329 60h-5c-30 -46 -80 -77 -155 -77c-57 0 -115 27 -115 122c0 66 30 254 40 310l-73 -8c0 10 9 42 18 51c24 12 58 23 99 23c10 0 33 -2 41 -4c-14 -106 -37 -301 -37 -341c0 -52 19 -85 70 -85c48 0 95 31 120 75l38 289l-69 -8c0 10 9 43 18 52c23 12 54 22 95 22
c10 0 32 -2 40 -4l-46 -403c0 -2 3 -16 5 -19l75 7c0 -15 -8 -43 -16 -56c-30 -11 -88 -23 -118 -23c-12 20 -22 52 -25 77zM281 542l-119 154c20 14 62 25 93 25l90 -158c-12 -9 -46 -21 -64 -21z" />
    <glyph glyph-name="uacute" unicode="&#xfa;" horiz-adv-x="554" 
d="M329 60h-5c-30 -46 -80 -77 -155 -77c-57 0 -115 27 -115 122c0 66 30 254 40 310l-73 -8c0 10 9 42 18 51c24 12 58 23 99 23c10 0 33 -2 41 -4c-14 -106 -37 -301 -37 -341c0 -52 19 -85 70 -85c48 0 95 31 120 75l38 289l-69 -8c0 10 9 43 18 52c23 12 54 22 95 22
c10 0 32 -2 40 -4l-46 -403c0 -2 3 -16 5 -19l75 7c0 -15 -8 -43 -16 -56c-30 -11 -88 -23 -118 -23c-12 20 -22 52 -25 77zM415 694l-163 -166c-14 8 -32 29 -40 47l125 156c25 -4 63 -22 78 -37z" />
    <glyph glyph-name="ucircumflex" unicode="&#xfb;" horiz-adv-x="554" 
d="M329 60h-5c-30 -46 -80 -77 -155 -77c-57 0 -115 27 -115 122c0 66 30 254 40 310l-73 -8c0 10 9 42 18 51c24 12 58 23 99 23c10 0 33 -2 41 -4c-14 -106 -37 -301 -37 -341c0 -52 19 -85 70 -85c48 0 95 31 120 75l38 289l-69 -8c0 10 9 43 18 52c23 12 54 22 95 22
c10 0 32 -2 40 -4l-46 -403c0 -2 3 -16 5 -19l75 7c0 -15 -8 -43 -16 -56c-30 -11 -88 -23 -118 -23c-12 20 -22 52 -25 77zM258 706l80 7l94 -141c-13 -17 -38 -30 -59 -34l-81 99l-119 -108c-11 9 -23 37 -26 57z" />
    <glyph glyph-name="udieresis" unicode="&#xfc;" horiz-adv-x="554" 
d="M329 60h-5c-30 -46 -80 -77 -155 -77c-57 0 -115 27 -115 122c0 66 30 254 40 310l-73 -8c0 10 9 42 18 51c24 12 58 23 99 23c10 0 33 -2 41 -4c-14 -106 -37 -301 -37 -341c0 -52 19 -85 70 -85c48 0 95 31 120 75l38 289l-69 -8c0 10 9 43 18 52c23 12 54 22 95 22
c10 0 32 -2 40 -4l-46 -403c0 -2 3 -16 5 -19l75 7c0 -15 -8 -43 -16 -56c-30 -11 -88 -23 -118 -23c-12 20 -22 52 -25 77zM183 669c29 0 50 -19 50 -51c0 -34 -22 -55 -50 -55c-33 0 -51 19 -51 55c0 29 22 51 51 51zM380 669c29 0 50 -19 50 -51c0 -34 -22 -55 -50 -55
c-33 0 -51 19 -51 55c0 29 22 51 51 51z" />
    <glyph glyph-name="yacute" unicode="&#xfd;" horiz-adv-x="477" 
d="M61 417l-71 -7c0 10 8 41 16 50c18 12 59 21 95 21c12 0 26 -2 36 -5l63 -288c6 -28 12 -86 14 -122h7c57 109 109 228 142 337c0 3 -2 13 -4 17l-80 -7c1 15 10 42 22 54c24 11 90 20 113 20c17 -17 32 -53 32 -66c-63 -169 -181 -397 -243 -485s-125 -138 -199 -170
c-11 18 -22 51 -22 76c71 22 139 64 182 138zM394 694l-163 -166c-14 8 -32 29 -40 47l125 156c25 -4 63 -22 78 -37z" />
    <glyph glyph-name="thorn" unicode="&#xfe;" horiz-adv-x="536" 
d="M130 3l-24 -227c-12 -2 -31 -4 -48 -4c-14 0 -28 1 -37 4l107 884l-72 -8c0 10 9 42 18 51c24 12 58 23 98 23c10 0 33 -2 41 -4l-15 -145c-5 -47 -17 -131 -29 -175h10c28 44 66 85 146 85c71 0 138 -45 138 -175c0 -99 -27 -193 -79 -253c-43 -49 -105 -76 -171 -76
c-29 0 -65 7 -83 20zM169 338l-34 -281c20 -8 48 -14 75 -14c49 0 87 16 115 49c38 45 51 121 51 196c0 84 -29 131 -91 131c-46 0 -95 -41 -116 -81z" />
    <glyph glyph-name="ydieresis" unicode="&#xff;" horiz-adv-x="477" 
d="M61 417l-71 -7c0 10 8 41 16 50c18 12 59 21 95 21c12 0 26 -2 36 -5l63 -288c6 -28 12 -86 14 -122h7c57 109 109 228 142 337c0 3 -2 13 -4 17l-80 -7c1 15 10 42 22 54c24 11 90 20 113 20c17 -17 32 -53 32 -66c-63 -169 -181 -397 -243 -485s-125 -138 -199 -170
c-11 18 -22 51 -22 76c71 22 139 64 182 138zM153 669c29 0 50 -19 50 -51c0 -34 -22 -55 -50 -55c-33 0 -51 19 -51 55c0 29 22 51 51 51zM350 669c29 0 50 -19 50 -51c0 -34 -22 -55 -50 -55c-33 0 -51 19 -51 55c0 29 22 51 51 51z" />
    <glyph glyph-name="Amacron" unicode="&#x100;" horiz-adv-x="712" 
d="M474 224h-252l-37 -85c-9 -21 -26 -55 -40 -77c22 -1 50 -4 75 -9c3 -10 7 -42 7 -53h-230c3 17 11 39 19 53c14 5 35 9 50 11l309 644h57l178 -642c14 -1 42 -5 58 -9c3 -13 6 -42 6 -57h-240c3 17 9 39 16 54c15 4 55 10 74 12c-13 23 -25 57 -31 82zM388 605h-7
c-6 -24 -25 -70 -37 -97l-100 -227h218l-60 229c-6 24 -14 70 -14 95zM555 782h-315c0 19 7 54 13 72h306c1 -7 1 -13 1 -20c0 -18 -2 -38 -5 -52z" />
    <glyph glyph-name="amacron" unicode="&#x101;" horiz-adv-x="522" 
d="M293 57h-5c-37 -53 -95 -74 -141 -74c-74 0 -129 52 -129 179c0 84 23 166 66 226c43 59 106 99 186 99c63 0 115 -21 149 -45l-48 -367c0 -3 3 -16 5 -21l78 7c0 -14 -8 -42 -16 -55c-30 -12 -91 -23 -119 -23c-11 19 -22 50 -26 74zM293 124l41 295
c-17 10 -43 15 -65 15c-54 0 -97 -34 -122 -75c-30 -50 -43 -130 -43 -186c0 -85 33 -122 84 -122c40 0 81 28 105 73zM397 579h-246c0 17 6 49 12 65h238c1 -6 1 -12 1 -18c0 -17 -2 -35 -5 -47z" />
    <glyph glyph-name="Abreve" unicode="&#x102;" horiz-adv-x="712" 
d="M474 224h-252l-37 -85c-9 -21 -26 -55 -40 -77c22 -1 50 -4 75 -9c3 -10 7 -42 7 -53h-230c3 17 11 39 19 53c14 5 35 9 50 11l309 644h57l178 -642c14 -1 42 -5 58 -9c3 -13 6 -42 6 -57h-240c3 17 9 39 16 54c15 4 55 10 74 12c-13 23 -25 57 -31 82zM388 605h-7
c-6 -24 -25 -70 -37 -97l-100 -227h218l-60 229c-6 24 -14 70 -14 95zM302 887c11 -44 47 -62 97 -62c55 0 94 22 109 62c20 0 49 -8 63 -19c-21 -73 -85 -119 -177 -119s-148 41 -156 109c13 13 40 27 64 29z" />
    <glyph glyph-name="abreve" unicode="&#x103;" horiz-adv-x="522" 
d="M293 57h-5c-37 -53 -95 -74 -141 -74c-74 0 -129 52 -129 179c0 84 23 166 66 226c43 59 106 99 186 99c63 0 115 -21 149 -45l-48 -367c0 -3 3 -16 5 -21l78 7c0 -14 -8 -42 -16 -55c-30 -12 -91 -23 -119 -23c-11 19 -22 50 -26 74zM293 124l41 295
c-17 10 -43 15 -65 15c-54 0 -97 -34 -122 -75c-30 -50 -43 -130 -43 -186c0 -85 33 -122 84 -122c40 0 81 28 105 73zM197 700c3 -63 27 -92 71 -92c46 0 79 32 96 91c18 -1 41 -7 54 -16c-17 -84 -72 -143 -158 -143c-81 0 -120 49 -122 134c14 14 37 23 59 26z" />
    <glyph glyph-name="Aogonek" unicode="&#x104;" horiz-adv-x="712" 
d="M474 224h-252l-37 -85c-9 -21 -26 -55 -40 -77c22 -1 50 -4 75 -9c3 -10 7 -42 7 -53h-230c3 17 11 39 19 53c14 5 35 9 50 11l309 644h57l178 -642c14 -1 42 -5 58 -9c3 -13 6 -42 6 -57h-83c-69 -36 -105 -75 -105 -128c0 -38 28 -57 61 -57c7 0 18 1 24 3
c5 -10 10 -34 10 -49c-13 -5 -38 -9 -58 -9c-59 0 -114 32 -114 100c0 56 41 117 121 135v5h-96c3 17 9 39 16 54c15 4 55 10 74 12c-13 23 -25 57 -31 82zM388 605h-7c-6 -24 -25 -70 -37 -97l-100 -227h218l-60 229c-6 24 -14 70 -14 95z" />
    <glyph glyph-name="aogonek" unicode="&#x105;" horiz-adv-x="522" 
d="M400 -152c5 -9 9 -35 9 -50c-15 -6 -40 -10 -60 -10c-53 0 -100 30 -100 90c0 41 21 79 70 106c-11 19 -22 49 -26 73h-5c-37 -53 -95 -74 -141 -74c-74 0 -129 52 -129 179c0 84 23 166 66 226c43 59 106 99 186 99c63 0 115 -21 149 -45l-48 -366c0 -3 3 -16 5 -21
l78 7c0 -14 -8 -42 -16 -55c-73 -27 -113 -63 -113 -114c0 -34 23 -49 49 -49c10 0 18 2 26 4zM293 124l41 295c-17 10 -43 15 -65 15c-54 0 -97 -34 -122 -75c-30 -50 -43 -130 -43 -186c0 -85 33 -122 84 -122c40 0 81 28 105 73z" />
    <glyph glyph-name="Cacute" unicode="&#x106;" horiz-adv-x="607" 
d="M484 526l10 102c-34 16 -68 22 -105 22c-147 0 -246 -129 -246 -350c0 -164 77 -242 195 -242c54 0 133 17 180 35c0 -17 -9 -50 -18 -64c-53 -26 -133 -49 -204 -49c-153 0 -249 125 -249 301c0 268 159 433 354 433c73 0 133 -14 179 -38c-5 -54 -17 -124 -28 -166
c-19 0 -52 7 -68 16zM590 834l-240 -90c-4 12 -6 32 -6 48c0 7 0 12 1 19l201 101c18 -15 37 -52 44 -78z" />
    <glyph glyph-name="cacute" unicode="&#x107;" horiz-adv-x="443" 
d="M300 343l7 71c-14 9 -35 15 -51 15c-45 0 -84 -25 -109 -64c-28 -44 -41 -104 -41 -177c0 -94 31 -132 91 -132c46 0 112 25 147 44c0 -17 -7 -45 -14 -59c-36 -27 -100 -58 -166 -58c-100 0 -148 69 -148 182c0 89 25 169 69 229c42 56 112 93 184 93
c46 0 84 -14 112 -36c0 -41 -10 -86 -26 -121c-16 0 -43 5 -55 13zM417 694l-163 -166c-14 8 -32 29 -40 47l125 156c25 -4 63 -22 78 -37z" />
    <glyph glyph-name="Ccircumflex" unicode="&#x108;" horiz-adv-x="607" 
d="M484 526l10 102c-34 16 -68 22 -105 22c-147 0 -246 -129 -246 -350c0 -164 77 -242 195 -242c54 0 133 17 180 35c0 -17 -9 -50 -18 -64c-53 -26 -133 -49 -204 -49c-153 0 -249 125 -249 301c0 268 159 433 354 433c73 0 133 -14 179 -38c-5 -54 -17 -124 -28 -166
c-19 0 -52 7 -68 16zM359 892h101l112 -100c-7 -16 -25 -38 -40 -47l-129 76l-153 -82c-8 15 -13 44 -13 60z" />
    <glyph glyph-name="ccircumflex" unicode="&#x109;" horiz-adv-x="443" 
d="M300 343l7 71c-14 9 -35 15 -51 15c-45 0 -84 -25 -109 -64c-28 -44 -41 -104 -41 -177c0 -94 31 -132 91 -132c46 0 112 25 147 44c0 -17 -7 -45 -14 -59c-36 -27 -100 -58 -166 -58c-100 0 -148 69 -148 182c0 89 25 169 69 229c42 56 112 93 184 93
c46 0 84 -14 112 -36c0 -41 -10 -86 -26 -121c-16 0 -43 5 -55 13zM237 706l80 7l94 -141c-13 -17 -38 -30 -59 -34l-81 99l-119 -108c-11 9 -23 37 -26 57z" />
    <glyph glyph-name="Cdotaccent" unicode="&#x10a;" horiz-adv-x="607" 
d="M484 526l10 102c-34 16 -68 22 -105 22c-147 0 -246 -129 -246 -350c0 -164 77 -242 195 -242c54 0 133 17 180 35c0 -17 -9 -50 -18 -64c-53 -26 -133 -49 -204 -49c-153 0 -249 125 -249 301c0 268 159 433 354 433c73 0 133 -14 179 -38c-5 -54 -17 -124 -28 -166
c-19 0 -52 7 -68 16zM403 882c32 0 54 -19 54 -55c0 -37 -23 -58 -54 -58c-37 0 -57 19 -57 58c0 33 24 55 57 55z" />
    <glyph glyph-name="cdotaccent" unicode="&#x10b;" horiz-adv-x="443" 
d="M300 343l7 71c-14 9 -35 15 -51 15c-45 0 -84 -25 -109 -64c-28 -44 -41 -104 -41 -177c0 -94 31 -132 91 -132c46 0 112 25 147 44c0 -17 -7 -45 -14 -59c-36 -27 -100 -58 -166 -58c-100 0 -148 69 -148 182c0 89 25 169 69 229c42 56 112 93 184 93
c46 0 84 -14 112 -36c0 -41 -10 -86 -26 -121c-16 0 -43 5 -55 13zM271 670c31 0 52 -19 52 -54c0 -36 -22 -57 -52 -57c-35 0 -54 19 -54 57c0 32 23 54 54 54z" />
    <glyph glyph-name="Ccaron" unicode="&#x10c;" horiz-adv-x="607" 
d="M484 526l10 102c-34 16 -68 22 -105 22c-147 0 -246 -129 -246 -350c0 -164 77 -242 195 -242c54 0 133 17 180 35c0 -17 -9 -50 -18 -64c-53 -26 -133 -49 -204 -49c-153 0 -249 125 -249 301c0 268 159 433 354 433c73 0 133 -14 179 -38c-5 -54 -17 -124 -28 -166
c-19 0 -52 7 -68 16zM445 749h-104l-115 115c16 12 42 23 65 27l117 -72l122 70c13 -5 34 -24 40 -35z" />
    <glyph glyph-name="ccaron" unicode="&#x10d;" horiz-adv-x="443" 
d="M300 343l7 71c-14 9 -35 15 -51 15c-45 0 -84 -25 -109 -64c-28 -44 -41 -104 -41 -177c0 -94 31 -132 91 -132c46 0 112 25 147 44c0 -17 -7 -45 -14 -59c-36 -27 -100 -58 -166 -58c-100 0 -148 69 -148 182c0 89 25 169 69 229c42 56 112 93 184 93
c46 0 84 -14 112 -36c0 -41 -10 -86 -26 -121c-16 0 -43 5 -55 13zM297 542l-80 -7l-94 151c12 13 40 25 60 26l89 -104l110 105c15 -3 37 -15 46 -26z" />
    <glyph glyph-name="Dcaron" unicode="&#x10e;" horiz-adv-x="703" 
d="M93 687c74 8 174 14 244 14c177 0 307 -105 307 -304c0 -277 -152 -402 -344 -402c-84 0 -213 4 -287 7c3 18 9 39 15 53c18 5 54 11 75 13l58 556c-22 0 -53 0 -72 3c-1 12 1 47 4 60zM244 635l-51 -573c29 -2 63 -3 91 -3c178 0 267 111 267 329
c0 167 -97 251 -240 251c-16 0 -51 -1 -67 -4zM413 749h-104l-115 115c16 12 42 23 65 27l117 -72l122 70c13 -5 34 -24 40 -35z" />
    <glyph glyph-name="dcaron" unicode="&#x10f;" horiz-adv-x="529" 
d="M460 722l-80 -647c0 -3 3 -16 5 -21l77 7c0 -14 -8 -42 -16 -55c-31 -13 -90 -23 -118 -23c-10 19 -21 50 -25 74h-5c-40 -53 -99 -74 -148 -74c-76 0 -132 50 -132 177c0 83 22 167 65 226c43 61 108 101 186 101c28 0 55 -8 80 -19l26 192l-72 -8c0 10 9 42 18 51
c24 12 58 23 98 23c10 0 33 -2 41 -4zM303 124l38 290c-17 11 -46 18 -69 18c-55 0 -98 -34 -124 -75c-32 -49 -44 -129 -44 -184c0 -85 35 -120 88 -120c42 0 84 25 111 71zM537 649l-34 7c6 18 22 44 34 57c10 2 22 3 34 3c20 0 44 -4 61 -11c-19 -64 -75 -165 -106 -206
c-17 4 -35 15 -41 22c18 35 41 94 52 128z" />
    <glyph glyph-name="Dcroat" unicode="&#x110;" horiz-adv-x="708" 
d="M104 687c74 8 174 14 244 14c177 0 307 -105 307 -304c0 -277 -152 -402 -344 -402c-84 0 -213 4 -287 7c3 18 9 39 15 53c18 5 54 11 75 13l26 250h-82c0 16 6 45 12 61h76l26 245c-22 0 -53 0 -72 3c-1 12 1 47 4 60zM255 635l-23 -256h180c3 -17 0 -45 -3 -61h-182
l-23 -256c29 -2 63 -3 91 -3c178 0 267 111 267 329c0 167 -97 251 -240 251c-16 0 -51 -1 -67 -4z" />
    <glyph glyph-name="dcroat" unicode="&#x111;" horiz-adv-x="539" 
d="M465 722l-15 -116h74c1 -6 1 -11 1 -15c0 -14 -2 -29 -4 -39h-77l-59 -477c0 -3 3 -16 5 -21l77 7c0 -14 -8 -42 -16 -55c-31 -13 -90 -23 -118 -23c-10 19 -21 50 -25 74l-6 -2c-40 -53 -98 -74 -147 -74c-76 0 -132 52 -132 179c0 83 22 167 65 226
c43 61 108 101 186 101c28 0 55 -8 80 -19l12 84h-143c0 14 5 40 10 54h139l8 54l-72 -8c0 10 9 42 18 51c24 12 58 23 98 23c10 0 33 -2 41 -4zM308 124l38 290c-17 11 -46 18 -69 18c-55 0 -98 -34 -124 -75c-32 -49 -44 -129 -44 -184c0 -85 35 -122 88 -122
c42 0 84 27 111 73z" />
    <glyph glyph-name="Emacron" unicode="&#x112;" horiz-adv-x="577" 
d="M481 0h-474c3 18 9 39 15 53c18 5 56 11 77 13l58 564c-22 1 -57 4 -72 7c-2 15 1 46 4 57h451l-15 -147c-15 0 -41 3 -55 7c-3 21 -6 56 -6 79h-224l-24 -254h178c3 15 10 41 15 54c15 5 41 8 58 8l-18 -185c-17 -2 -45 0 -57 4c-2 13 -5 40 -5 59h-175l-23 -256h222
c5 25 14 65 21 86c15 4 48 7 64 7zM487 782h-315c0 19 7 54 13 72h306c1 -7 1 -13 1 -20c0 -18 -2 -38 -5 -52z" />
    <glyph glyph-name="emacron" unicode="&#x113;" horiz-adv-x="439" 
d="M382 377c0 -80 -50 -161 -274 -170v-30c0 -82 28 -122 83 -122c44 0 107 19 150 47c0 -19 -5 -41 -12 -55c-38 -33 -100 -64 -174 -64c-89 0 -136 63 -136 170c0 88 20 185 75 251c40 48 101 83 173 83c71 0 115 -42 115 -110zM249 433c-41 0 -80 -25 -102 -63
c-18 -30 -28 -68 -33 -105c165 6 187 57 187 107c0 34 -15 61 -52 61zM375 579h-246c0 17 6 49 12 65h238c1 -6 1 -12 1 -18c0 -17 -2 -35 -5 -47z" />
    <glyph glyph-name="Ebreve" unicode="&#x114;" horiz-adv-x="577" 
d="M481 0h-474c3 18 9 39 15 53c18 5 56 11 77 13l58 564c-22 1 -57 4 -72 7c-2 15 1 46 4 57h451l-15 -147c-15 0 -41 3 -55 7c-3 21 -6 56 -6 79h-224l-24 -254h178c3 15 10 41 15 54c15 5 41 8 58 8l-18 -185c-17 -2 -45 0 -57 4c-2 13 -5 40 -5 59h-175l-23 -256h222
c5 25 14 65 21 86c15 4 48 7 64 7zM232 887c11 -44 47 -62 97 -62c55 0 94 22 109 62c20 0 49 -8 63 -19c-21 -73 -85 -119 -177 -119s-148 41 -156 109c13 13 40 27 64 29z" />
    <glyph glyph-name="ebreve" unicode="&#x115;" horiz-adv-x="439" 
d="M382 377c0 -80 -50 -161 -274 -170v-30c0 -82 28 -122 83 -122c44 0 107 19 150 47c0 -19 -5 -41 -12 -55c-38 -33 -100 -64 -174 -64c-89 0 -136 63 -136 170c0 88 20 185 75 251c40 48 101 83 173 83c71 0 115 -42 115 -110zM249 433c-41 0 -80 -25 -102 -63
c-18 -30 -28 -68 -33 -105c165 6 187 57 187 107c0 34 -15 61 -52 61zM177 700c3 -63 27 -92 71 -92c46 0 79 32 96 91c18 -1 41 -7 54 -16c-17 -84 -72 -143 -158 -143c-81 0 -120 49 -122 134c14 14 37 23 59 26z" />
    <glyph glyph-name="Edotaccent" unicode="&#x116;" horiz-adv-x="577" 
d="M481 0h-474c3 18 9 39 15 53c18 5 56 11 77 13l58 564c-22 1 -57 4 -72 7c-2 15 1 46 4 57h451l-15 -147c-15 0 -41 3 -55 7c-3 21 -6 56 -6 79h-224l-24 -254h178c3 15 10 41 15 54c15 5 41 8 58 8l-18 -185c-17 -2 -45 0 -57 4c-2 13 -5 40 -5 59h-175l-23 -256h222
c5 25 14 65 21 86c15 4 48 7 64 7zM338 882c32 0 54 -19 54 -55c0 -37 -23 -58 -54 -58c-37 0 -57 19 -57 58c0 33 24 55 57 55z" />
    <glyph glyph-name="edotaccent" unicode="&#x117;" horiz-adv-x="439" 
d="M382 377c0 -80 -50 -161 -274 -170v-30c0 -82 28 -122 83 -122c44 0 107 19 150 47c0 -19 -5 -41 -12 -55c-38 -33 -100 -64 -174 -64c-89 0 -136 63 -136 170c0 88 20 185 75 251c40 48 101 83 173 83c71 0 115 -42 115 -110zM249 433c-41 0 -80 -25 -102 -63
c-18 -30 -28 -68 -33 -105c165 6 187 57 187 107c0 34 -15 61 -52 61zM257 670c31 0 52 -19 52 -54c0 -36 -22 -57 -52 -57c-35 0 -54 19 -54 57c0 32 23 54 54 54z" />
    <glyph glyph-name="Eogonek" unicode="&#x118;" horiz-adv-x="577" 
d="M427 -182c5 -10 10 -34 10 -49c-13 -5 -38 -9 -58 -9c-59 0 -114 32 -114 100c0 56 41 117 121 135v5h-379c3 18 9 39 15 53c18 5 56 11 77 13l58 564c-22 1 -57 4 -72 7c-2 15 1 46 4 57h451l-15 -147c-15 0 -41 3 -55 7c-3 21 -6 56 -6 79h-224l-24 -254h178
c3 15 10 41 15 54c15 5 41 8 58 8l-18 -185c-17 -2 -45 0 -57 4c-2 13 -5 40 -5 59h-175l-23 -256h222c5 25 14 65 21 86c15 4 48 7 64 7l-15 -156h-34c-69 -36 -105 -75 -105 -128c0 -38 28 -57 61 -57c7 0 18 1 24 3z" />
    <glyph glyph-name="eogonek" unicode="&#x119;" horiz-adv-x="439" 
d="M234 -152c5 -9 9 -35 9 -50c-15 -6 -40 -10 -60 -10c-53 0 -100 30 -100 90c0 43 24 84 71 100v5c-86 0 -135 64 -135 170c0 88 20 185 75 251c40 48 101 83 173 83c71 0 115 -42 115 -110c0 -80 -50 -161 -274 -170v-30c0 -82 28 -122 83 -122c44 0 107 19 150 47
c0 -19 -5 -41 -12 -55c-18 -15 -40 -29 -66 -41c-71 -33 -104 -64 -104 -113c0 -34 23 -49 49 -49c10 0 18 2 26 4zM249 433c-41 0 -80 -25 -102 -63c-18 -30 -28 -68 -33 -105c165 6 187 57 187 107c0 34 -15 61 -52 61z" />
    <glyph glyph-name="Ecaron" unicode="&#x11a;" horiz-adv-x="577" 
d="M481 0h-474c3 18 9 39 15 53c18 5 56 11 77 13l58 564c-22 1 -57 4 -72 7c-2 15 1 46 4 57h451l-15 -147c-15 0 -41 3 -55 7c-3 21 -6 56 -6 79h-224l-24 -254h178c3 15 10 41 15 54c15 5 41 8 58 8l-18 -185c-17 -2 -45 0 -57 4c-2 13 -5 40 -5 59h-175l-23 -256h222
c5 25 14 65 21 86c15 4 48 7 64 7zM381 749h-104l-115 115c16 12 42 23 65 27l117 -72l122 70c13 -5 34 -24 40 -35z" />
    <glyph glyph-name="ecaron" unicode="&#x11b;" horiz-adv-x="439" 
d="M382 377c0 -80 -50 -161 -274 -170v-30c0 -82 28 -122 83 -122c44 0 107 19 150 47c0 -19 -5 -41 -12 -55c-38 -33 -100 -64 -174 -64c-89 0 -136 63 -136 170c0 88 20 185 75 251c40 48 101 83 173 83c71 0 115 -42 115 -110zM249 433c-41 0 -80 -25 -102 -63
c-18 -30 -28 -68 -33 -105c165 6 187 57 187 107c0 34 -15 61 -52 61zM286 542l-80 -7l-94 151c12 13 40 25 60 26l89 -104l110 105c15 -3 37 -15 46 -26z" />
    <glyph glyph-name="Gcircumflex" unicode="&#x11c;" horiz-adv-x="699" 
d="M470 64l19 208c-41 1 -89 4 -126 10c-4 14 -6 44 -6 59h305c-3 -20 -9 -44 -14 -61c-20 -4 -53 -7 -75 -8l-21 -244c-48 -18 -157 -48 -239 -48c-175 0 -266 111 -266 291c0 270 148 443 379 443c77 0 136 -18 186 -52c-4 -44 -17 -121 -28 -156c-18 0 -54 9 -68 16
l10 98c-38 23 -72 32 -115 32c-155 0 -271 -130 -271 -364c0 -160 85 -239 206 -239c37 0 83 6 124 15zM376 892h101l112 -100c-7 -16 -25 -38 -40 -47l-129 76l-153 -82c-8 15 -13 44 -13 60z" />
    <glyph glyph-name="gcircumflex" unicode="&#x11d;" horiz-adv-x="508" 
d="M424 442l-43 -406c-16 -152 -67 -277 -230 -277c-47 0 -104 11 -143 27c-7 15 -12 36 -12 61c0 8 1 19 3 27c52 -31 105 -49 154 -49c90 0 127 66 141 158c5 31 12 65 19 86h-10c-39 -58 -98 -81 -147 -81c-76 0 -132 51 -132 177c0 83 23 165 66 224
c43 58 106 98 187 98c63 0 113 -21 147 -45zM307 132l35 286c-17 10 -44 16 -67 16c-54 0 -96 -34 -122 -74c-31 -49 -43 -128 -43 -184c0 -83 34 -120 87 -120c41 0 84 29 110 76zM246 706l80 7l94 -141c-13 -17 -38 -30 -59 -34l-81 99l-119 -108c-11 9 -23 37 -26 57z
" />
    <glyph glyph-name="Gbreve" unicode="&#x11e;" horiz-adv-x="699" 
d="M470 64l19 208c-41 1 -89 4 -126 10c-4 14 -6 44 -6 59h305c-3 -20 -9 -44 -14 -61c-20 -4 -53 -7 -75 -8l-21 -244c-48 -18 -157 -48 -239 -48c-175 0 -266 111 -266 291c0 270 148 443 379 443c77 0 136 -18 186 -52c-4 -44 -17 -121 -28 -156c-18 0 -54 9 -68 16
l10 98c-38 23 -72 32 -115 32c-155 0 -271 -130 -271 -364c0 -160 85 -239 206 -239c37 0 83 6 124 15zM314 887c11 -44 47 -62 97 -62c55 0 94 22 109 62c20 0 49 -8 63 -19c-21 -73 -85 -119 -177 -119s-148 41 -156 109c13 13 40 27 64 29z" />
    <glyph glyph-name="gbreve" unicode="&#x11f;" horiz-adv-x="508" 
d="M424 442l-43 -406c-16 -152 -67 -277 -230 -277c-47 0 -104 11 -143 27c-7 15 -12 36 -12 61c0 8 1 19 3 27c52 -31 105 -49 154 -49c90 0 127 66 141 158c5 31 12 65 19 86h-10c-39 -58 -98 -81 -147 -81c-76 0 -132 51 -132 177c0 83 23 165 66 224
c43 58 106 98 187 98c63 0 113 -21 147 -45zM307 132l35 286c-17 10 -44 16 -67 16c-54 0 -96 -34 -122 -74c-31 -49 -43 -128 -43 -184c0 -83 34 -120 87 -120c41 0 84 29 110 76zM195 700c3 -63 27 -92 71 -92c46 0 79 32 96 91c18 -1 41 -7 54 -16
c-17 -84 -72 -143 -158 -143c-81 0 -120 49 -122 134c14 14 37 23 59 26z" />
    <glyph glyph-name="Gdotaccent" unicode="&#x120;" horiz-adv-x="699" 
d="M470 64l19 208c-41 1 -89 4 -126 10c-4 14 -6 44 -6 59h305c-3 -20 -9 -44 -14 -61c-20 -4 -53 -7 -75 -8l-21 -244c-48 -18 -157 -48 -239 -48c-175 0 -266 111 -266 291c0 270 148 443 379 443c77 0 136 -18 186 -52c-4 -44 -17 -121 -28 -156c-18 0 -54 9 -68 16
l10 98c-38 23 -72 32 -115 32c-155 0 -271 -130 -271 -364c0 -160 85 -239 206 -239c37 0 83 6 124 15zM418 882c32 0 54 -19 54 -55c0 -37 -23 -58 -54 -58c-37 0 -57 19 -57 58c0 33 24 55 57 55z" />
    <glyph glyph-name="gdotaccent" unicode="&#x121;" horiz-adv-x="508" 
d="M424 442l-43 -406c-16 -152 -67 -277 -230 -277c-47 0 -104 11 -143 27c-7 15 -12 36 -12 61c0 8 1 19 3 27c52 -31 105 -49 154 -49c90 0 127 66 141 158c5 31 12 65 19 86h-10c-39 -58 -98 -81 -147 -81c-76 0 -132 51 -132 177c0 83 23 165 66 224
c43 58 106 98 187 98c63 0 113 -21 147 -45zM307 132l35 286c-17 10 -44 16 -67 16c-54 0 -96 -34 -122 -74c-31 -49 -43 -128 -43 -184c0 -83 34 -120 87 -120c41 0 84 29 110 76zM274 670c31 0 52 -19 52 -54c0 -36 -22 -57 -52 -57c-35 0 -54 19 -54 57c0 32 23 54 54 54
z" />
    <glyph glyph-name="Gcommaaccent" unicode="&#x122;" horiz-adv-x="699" 
d="M470 64l19 208c-41 1 -89 4 -126 10c-4 14 -6 44 -6 59h305c-3 -20 -9 -44 -14 -61c-20 -4 -53 -7 -75 -8l-21 -244c-48 -18 -157 -48 -239 -48c-175 0 -266 111 -266 291c0 270 148 443 379 443c77 0 136 -18 186 -52c-4 -44 -17 -121 -28 -156c-18 0 -54 9 -68 16
l10 98c-38 23 -72 32 -115 32c-155 0 -271 -130 -271 -364c0 -160 85 -239 206 -239c37 0 83 6 124 15zM302 -113l-37 8c7 18 24 46 37 59c10 2 24 4 36 4c22 0 49 -4 66 -12c-20 -66 -81 -167 -113 -210c-16 4 -38 15 -46 22c20 36 45 96 57 129z" />
    <glyph glyph-name="gcommaaccent" unicode="&#x123;" horiz-adv-x="508" 
d="M424 442l-43 -406c-16 -152 -67 -277 -230 -277c-47 0 -104 11 -143 27c-7 15 -12 36 -12 61c0 8 1 19 3 27c52 -31 105 -49 154 -49c90 0 127 66 141 158c5 31 12 65 19 86h-10c-39 -58 -98 -81 -147 -81c-76 0 -132 51 -132 177c0 83 23 165 66 224
c43 58 106 98 187 98c63 0 113 -21 147 -45zM307 132l35 286c-17 10 -44 16 -67 16c-54 0 -96 -34 -122 -74c-31 -49 -43 -128 -43 -184c0 -83 34 -120 87 -120c41 0 84 29 110 76zM371 737c-17 -35 -42 -95 -52 -127l41 -9c-5 -17 -28 -50 -43 -64c-32 4 -67 15 -88 31
c21 57 55 119 84 159c10 5 39 10 58 10z" />
    <glyph glyph-name="Hcircumflex" unicode="&#x124;" horiz-adv-x="772" 
d="M521 66l25 263h-330l-24 -264c19 -1 57 -4 78 -10c3 -13 1 -42 -2 -55h-258c3 18 9 39 15 53c18 5 56 11 77 13l58 564c-22 1 -57 4 -72 7c-2 15 1 46 4 57h234c1 -14 -2 -43 -7 -56c-21 -4 -52 -7 -76 -8l-22 -236h333l25 236c-22 1 -54 4 -71 7c-2 15 1 46 4 57h235
c1 -5 1 -12 1 -16c0 -11 -3 -29 -7 -40c-22 -4 -54 -7 -79 -8l-51 -565c28 -2 61 -5 84 -10c3 -13 1 -42 -2 -55h-259c3 18 9 39 14 53c17 5 53 11 73 13zM383 892h101l112 -100c-7 -16 -25 -38 -40 -47l-129 76l-153 -82c-8 15 -13 44 -13 60z" />
    <glyph glyph-name="hcircumflex" unicode="&#x125;" horiz-adv-x="549" 
d="M132 895h99l112 -100c-7 -16 -24 -34 -39 -43l-129 76l-153 -82c-8 15 -12 40 -12 56zM39 2l81 658l-72 -8c0 10 9 42 18 51c24 12 58 23 98 23c10 0 33 -2 41 -4l-15 -145c-7 -71 -16 -117 -28 -170h10c23 36 67 80 151 80c59 0 116 -24 116 -124
c0 -60 -31 -246 -37 -292c0 -3 3 -14 5 -17l77 8c0 -15 -8 -43 -16 -56c-33 -13 -90 -23 -118 -23c-19 22 -35 57 -35 74c13 73 39 226 39 278s-23 86 -72 86c-58 0 -106 -55 -121 -93l-37 -326c-12 -2 -31 -4 -48 -4c-14 0 -28 1 -37 4z" />
    <glyph glyph-name="Hbar" unicode="&#x126;" horiz-adv-x="788" 
d="M529 66l25 263h-330l-24 -264c19 -1 57 -4 78 -10c3 -13 1 -42 -2 -55h-258c3 18 9 39 15 53c18 5 56 11 77 13l44 428h-68c0 14 5 41 11 55h62l9 81c-22 1 -57 4 -72 7c-2 15 1 46 4 57h234c1 -14 -2 -43 -7 -56c-21 -4 -52 -7 -76 -8l-8 -81h335l9 81
c-22 1 -54 4 -71 7c-2 15 1 46 4 57h235c1 -5 1 -12 1 -16c0 -11 -3 -29 -7 -40c-22 -4 -54 -7 -79 -8l-8 -81h69c2 -15 0 -41 -3 -55h-71l-38 -429c28 -2 61 -5 84 -10c3 -13 1 -42 -2 -55h-259c3 18 9 39 14 53c17 5 53 11 73 13zM229 394h333l10 100h-334z" />
    <glyph glyph-name="hbar" unicode="&#x127;" horiz-adv-x="553" 
d="M43 2l67 547h-68c0 14 5 39 10 53h65l7 58l-72 -8c0 10 9 42 18 51c24 12 58 23 98 23c10 0 33 -2 41 -4l-13 -120h160c2 -15 0 -39 -3 -53h-162c-7 -55 -15 -97 -25 -142h10c23 36 67 80 151 80c59 0 116 -24 116 -124c0 -60 -31 -246 -37 -292c0 -3 3 -14 5 -17l77 8
c0 -15 -8 -43 -16 -56c-33 -13 -90 -23 -118 -23c-19 22 -35 57 -35 74c13 73 39 226 39 278s-23 86 -72 86c-58 0 -106 -55 -121 -93l-37 -326c-12 -2 -31 -4 -48 -4c-14 0 -28 1 -37 4z" />
    <glyph glyph-name="Itilde" unicode="&#x128;" horiz-adv-x="350" 
d="M241 630l-51 -565c28 -2 61 -5 84 -10c3 -13 1 -42 -2 -55h-264c3 18 9 39 15 53c18 5 56 11 77 13l58 564c-22 1 -57 4 -72 7c-2 15 1 46 4 57h236c1 -5 1 -12 1 -16c0 -11 -3 -29 -7 -40c-22 -4 -54 -7 -79 -8zM339 873c17 0 40 -6 52 -11c-8 -53 -49 -110 -123 -110
c-55 0 -92 44 -137 44c-32 0 -54 -24 -62 -47c-16 3 -37 18 -44 28c14 52 57 94 122 94c66 0 89 -42 137 -42c31 0 50 22 55 44z" />
    <glyph glyph-name="itilde" unicode="&#x129;" horiz-adv-x="280" 
d="M94 415l-73 -8c0 10 9 42 18 51c24 12 58 23 99 23c10 0 33 -2 41 -4l-50 -406c0 -3 3 -13 5 -17l78 8c0 -15 -8 -43 -16 -56c-32 -12 -90 -23 -119 -23c-19 22 -35 57 -35 74zM263 669c12 0 26 -3 38 -9c-7 -49 -41 -105 -107 -105c-45 0 -77 44 -113 44
c-26 0 -48 -22 -56 -42c-12 0 -27 11 -33 23c14 50 47 91 108 91c49 0 70 -42 113 -42c27 0 43 18 50 40z" />
    <glyph glyph-name="Imacron" unicode="&#x12a;" horiz-adv-x="350" 
d="M356 782h-287c0 19 7 54 13 72h278c2 -20 0 -53 -4 -72zM241 630l-51 -565c28 -2 61 -5 84 -10c3 -13 1 -42 -2 -55h-264c3 18 9 39 15 53c18 5 56 11 77 13l58 564c-22 1 -57 4 -72 7c-2 15 1 46 4 57h236c1 -5 1 -12 1 -16c0 -11 -3 -29 -7 -40c-22 -4 -54 -7 -79 -8z
" />
    <glyph glyph-name="imacron" unicode="&#x12b;" horiz-adv-x="280" 
d="M254 579h-222c0 17 6 49 12 65h214c2 -18 0 -48 -4 -65zM94 415l-73 -8c0 10 9 42 18 51c24 12 58 23 99 23c10 0 33 -2 41 -4l-50 -406c0 -3 3 -13 5 -17l78 8c0 -15 -8 -43 -16 -56c-32 -12 -90 -23 -119 -23c-19 22 -35 57 -35 74z" />
    <glyph glyph-name="Ibreve" unicode="&#x12c;" horiz-adv-x="350" 
d="M241 630l-51 -565c28 -2 61 -5 84 -10c3 -13 1 -42 -2 -55h-264c3 18 9 39 15 53c18 5 56 11 77 13l58 564c-22 1 -57 4 -72 7c-2 15 1 46 4 57h236c1 -5 1 -12 1 -16c0 -11 -3 -29 -7 -40c-22 -4 -54 -7 -79 -8zM111 887c11 -44 47 -62 97 -62c55 0 94 22 109 62
c20 0 49 -8 63 -19c-21 -73 -85 -119 -177 -119s-148 41 -156 109c13 13 40 27 64 29z" />
    <glyph glyph-name="ibreve" unicode="&#x12d;" horiz-adv-x="280" 
d="M94 415l-73 -8c0 10 9 42 18 51c24 12 58 23 99 23c10 0 33 -2 41 -4l-50 -406c0 -3 3 -13 5 -17l78 8c0 -15 -8 -43 -16 -56c-32 -12 -90 -23 -119 -23c-19 22 -35 57 -35 74zM68 700c3 -63 27 -92 71 -92c46 0 79 32 96 91c18 -1 41 -7 54 -16
c-17 -84 -72 -143 -158 -143c-81 0 -120 49 -122 134c14 14 37 23 59 26z" />
    <glyph glyph-name="Iogonek" unicode="&#x12e;" horiz-adv-x="350" 
d="M208 -182c5 -10 10 -34 10 -49c-13 -5 -38 -9 -58 -9c-59 0 -114 32 -114 100c0 58 42 116 121 135v5h-159c3 18 9 39 15 53c18 5 56 11 77 13l58 564c-22 1 -57 4 -72 7c-2 15 1 46 4 57h236c1 -5 1 -12 1 -16c0 -11 -3 -29 -7 -40c-22 -4 -54 -7 -79 -8l-51 -565
c28 -2 61 -5 84 -10c3 -13 1 -42 -2 -55h-44c-69 -36 -105 -75 -105 -128c0 -38 28 -57 61 -57c7 0 18 1 24 3z" />
    <glyph glyph-name="iogonek" unicode="&#x12f;" horiz-adv-x="280" 
d="M161 -152c5 -9 9 -35 9 -50c-15 -6 -40 -10 -60 -10c-53 0 -100 30 -100 90c0 44 23 81 69 101v5c-20 20 -37 55 -37 73l52 358l-73 -8c0 10 9 42 18 51c24 12 58 23 99 23c10 0 33 -2 41 -4l-50 -406c0 -3 3 -13 5 -17l78 8c0 -15 -8 -43 -16 -56
c-79 -32 -110 -67 -110 -113c0 -34 23 -49 49 -49c10 0 18 2 26 4zM159 707c32 0 54 -20 54 -55c0 -37 -23 -59 -54 -59c-36 0 -55 20 -55 59c0 32 24 55 55 55z" />
    <glyph glyph-name="Idotaccent" unicode="&#x130;" horiz-adv-x="350" 
d="M241 630l-51 -565c28 -2 61 -5 84 -10c3 -13 1 -42 -2 -55h-264c3 18 9 39 15 53c18 5 56 11 77 13l58 564c-22 1 -57 4 -72 7c-2 15 1 46 4 57h236c1 -5 1 -12 1 -16c0 -11 -3 -29 -7 -40c-22 -4 -54 -7 -79 -8zM211 882c32 0 54 -19 54 -55c0 -37 -23 -58 -54 -58
c-37 0 -57 19 -57 58c0 33 24 55 57 55z" />
    <glyph glyph-name="dotlessi" unicode="&#x131;" horiz-adv-x="280" 
d="M94 415l-73 -8c0 10 9 42 18 51c24 12 58 23 99 23c10 0 33 -2 41 -4l-50 -406c0 -3 3 -13 5 -17l78 8c0 -15 -8 -43 -16 -56c-32 -12 -90 -23 -119 -23c-19 22 -35 57 -35 74z" />
    <glyph glyph-name="IJ" unicode="&#x132;" horiz-adv-x="689" 
d="M241 630l-51 -565c28 -2 61 -5 84 -10c3 -13 1 -42 -2 -55h-264c3 18 9 39 15 53c18 5 56 11 77 13l58 564c-22 1 -57 4 -72 7c-2 15 1 46 4 57h236c1 -5 1 -12 1 -16c0 -11 -3 -29 -7 -40c-22 -4 -54 -7 -79 -8zM437 694h251c1 -5 1 -12 1 -16c0 -11 -3 -29 -7 -40
c-22 -4 -54 -7 -79 -8l-34 -394c-16 -194 -109 -341 -264 -416c-9 10 -22 36 -26 50c121 72 185 184 200 341l39 419c-27 1 -65 4 -85 7c-2 15 1 46 4 57z" />
    <glyph glyph-name="ij" unicode="&#x133;" horiz-adv-x="555" 
d="M94 415l-73 -8c0 10 9 42 18 51c24 12 58 23 99 23c10 0 33 -2 41 -4l-50 -406c0 -3 3 -13 5 -17l78 8c0 -15 -8 -43 -16 -56c-32 -12 -90 -23 -119 -23c-19 22 -35 57 -35 74zM159 707c32 0 54 -20 54 -55c0 -37 -23 -59 -54 -59c-36 0 -55 20 -55 59c0 32 24 55 55 55z
M262 -229c-14 5 -34 22 -40 35c59 60 117 158 131 270l41 339l-73 -8c0 10 9 42 18 51c24 12 58 23 99 23c10 0 33 -2 41 -4l-40 -375c-15 -138 -88 -246 -177 -331zM450 707c32 0 54 -20 54 -55c0 -37 -23 -59 -54 -59c-36 0 -55 20 -55 59c0 32 24 55 55 55z" />
    <glyph glyph-name="Jcircumflex" unicode="&#x134;" horiz-adv-x="339" 
d="M87 694h251c1 -5 1 -12 1 -16c0 -11 -3 -29 -7 -40c-22 -4 -54 -7 -79 -8l-34 -394c-16 -194 -109 -341 -264 -416c-9 10 -22 36 -26 50c121 72 185 184 200 341l39 419c-27 1 -65 4 -85 7c-2 15 1 46 4 57zM178 892h101l112 -100c-7 -16 -25 -38 -40 -47l-129 76
l-153 -82c-8 15 -13 44 -13 60z" />
    <glyph glyph-name="jcircumflex" unicode="&#x135;" horiz-adv-x="275" 
d="M130 706l80 7l94 -141c-13 -17 -38 -30 -59 -34l-81 99l-119 -108c-11 9 -23 37 -26 57zM-18 -229c-14 5 -34 22 -40 35c59 60 117 158 131 270l41 339l-73 -8c0 10 9 42 18 51c24 12 58 23 99 23c10 0 33 -2 41 -4l-40 -375c-15 -138 -88 -246 -177 -331z" />
    <glyph glyph-name="Kcommaaccent" unicode="&#x136;" horiz-adv-x="636" 
d="M223 382h55l148 189c12 16 41 48 55 58c-19 1 -47 4 -63 7c-3 17 -5 44 -5 58h216c-2 -16 -11 -45 -18 -59c-13 -3 -39 -5 -57 -6l-219 -264l195 -304l62 4c0 -19 -6 -50 -14 -65c-27 -6 -78 -14 -107 -17l-207 344h-45l-24 -262c25 -2 51 -5 72 -10c3 -13 1 -42 -2 -55
h-251c3 18 9 39 15 53c18 5 55 11 76 13l58 564c-22 1 -57 4 -72 7c-2 15 1 46 4 57h231c2 -14 -2 -43 -6 -56c-21 -4 -51 -7 -74 -8zM292 -113l-37 8c7 18 24 46 37 59c10 2 24 4 36 4c22 0 49 -4 66 -12c-20 -66 -81 -167 -113 -210c-16 4 -38 15 -46 22
c20 36 45 96 57 129z" />
    <glyph glyph-name="kcommaaccent" unicode="&#x137;" horiz-adv-x="498" 
d="M126 2c-12 -2 -31 -4 -48 -4c-14 0 -28 1 -37 4l78 658l-72 -8c0 10 9 42 18 51c24 12 57 23 97 23c10 0 33 -2 41 -4l-55 -505c82 51 168 132 210 185c0 4 -1 10 -3 15l-71 -3c0 15 9 44 21 56c34 7 74 11 112 11c10 -13 26 -51 26 -64c-27 -49 -100 -128 -178 -184
c38 -77 85 -154 112 -184l59 11c0 -15 -4 -41 -12 -56c-22 -12 -68 -24 -95 -27c-32 33 -84 132 -124 221c-19 -12 -45 -26 -62 -34zM181 -119l-35 7c7 18 22 43 34 56c11 3 23 4 36 4c21 0 42 -4 59 -11c-20 -61 -74 -161 -104 -201c-16 4 -33 15 -41 22
c17 34 39 90 51 123z" />
    <glyph glyph-name="kgreenlandic" unicode="&#x138;" horiz-adv-x="523" 
d="M144 2c-12 -2 -31 -4 -48 -4c-14 0 -28 1 -37 4l51 413l-71 -8c0 10 9 42 18 51c24 12 57 23 97 23c10 0 33 -2 41 -4l-30 -265c84 52 175 135 218 190c0 4 -1 10 -3 15l-71 -3c0 15 9 44 21 56c34 7 74 11 112 11c10 -13 26 -51 26 -64c-27 -49 -105 -132 -183 -188
c38 -75 87 -152 113 -180l61 11c0 -15 -5 -41 -12 -56c-24 -13 -68 -24 -96 -27c-32 31 -87 129 -128 216c-19 -12 -45 -26 -63 -35z" />
    <glyph glyph-name="Lacute" unicode="&#x139;" horiz-adv-x="566" 
d="M244 630l-51 -566h228c4 30 15 76 23 100c15 4 47 7 64 7l-16 -171h-480c3 18 9 39 15 53c19 5 54 11 76 13l58 564c-22 1 -57 4 -72 7c-2 15 1 46 4 57h250c1 -14 -2 -43 -7 -56c-25 -4 -68 -8 -92 -8zM389 834l-240 -90c-4 12 -6 32 -6 48c0 7 0 12 1 19l201 101
c18 -15 37 -52 44 -78z" />
    <glyph glyph-name="lacute" unicode="&#x13a;" horiz-adv-x="284" 
d="M350 848l-240 -90c-5 15 -8 41 -5 59l201 101c18 -15 37 -44 44 -70zM136 54l78 8c0 -15 -8 -43 -16 -56c-32 -12 -90 -23 -119 -23c-19 22 -35 57 -35 74l79 603l-72 -8c0 10 9 42 18 51c24 12 58 23 98 23c10 0 33 -2 41 -4l-77 -651c0 -3 3 -13 5 -17z" />
    <glyph glyph-name="Lcommaaccent" unicode="&#x13b;" horiz-adv-x="566" 
d="M244 630l-51 -566h228c4 30 15 76 23 100c15 4 47 7 64 7l-16 -171h-480c3 18 9 39 15 53c19 5 54 11 76 13l58 564c-22 1 -57 4 -72 7c-2 15 1 46 4 57h250c1 -14 -2 -43 -7 -56c-25 -4 -68 -8 -92 -8zM252 -113l-37 8c7 18 24 46 37 59c10 2 24 4 36 4
c22 0 49 -4 66 -12c-20 -66 -81 -167 -113 -210c-16 4 -38 15 -46 22c20 36 45 96 57 129z" />
    <glyph glyph-name="lcommaaccent" unicode="&#x13c;" horiz-adv-x="284" 
d="M136 54l78 8c0 -15 -8 -43 -16 -56c-32 -12 -90 -23 -119 -23c-19 22 -35 57 -35 74l79 603l-72 -8c0 10 9 42 18 51c24 12 58 23 98 23c10 0 33 -2 41 -4l-77 -651c0 -3 3 -13 5 -17zM53 -119l-35 7c7 18 22 43 34 56c11 3 23 4 36 4c21 0 42 -4 59 -11
c-20 -61 -74 -161 -104 -201c-16 4 -33 15 -41 22c17 34 39 90 51 123z" />
    <glyph glyph-name="Lcaron" unicode="&#x13d;" horiz-adv-x="566" 
d="M425 626l-35 8c6 18 23 46 36 59c11 3 24 4 38 4c23 0 47 -4 64 -12c-21 -69 -83 -177 -117 -222c-17 4 -39 15 -45 22c18 39 47 105 59 141zM244 630l-51 -566h228c4 30 15 76 23 100c15 4 47 7 64 7l-16 -171h-480c3 18 9 39 15 53c19 5 54 11 76 13l58 564
c-22 1 -57 4 -72 7c-2 15 1 46 4 57h250c1 -14 -2 -43 -7 -56c-25 -4 -68 -8 -92 -8z" />
    <glyph glyph-name="lcaron" unicode="&#x13e;" horiz-adv-x="284" 
d="M136 54l78 8c0 -15 -8 -43 -16 -56c-32 -12 -90 -23 -119 -23c-19 22 -35 57 -35 74l79 603l-72 -8c0 10 9 42 18 51c24 12 58 23 98 23c10 0 33 -2 41 -4l-77 -651c0 -3 3 -13 5 -17zM283 649l-34 7c6 18 22 44 34 57c10 2 22 3 34 3c20 0 44 -4 61 -11
c-19 -64 -75 -165 -106 -206c-17 4 -35 15 -41 22c18 35 41 94 52 128z" />
    <glyph glyph-name="Ldot" unicode="&#x13f;" horiz-adv-x="566" 
d="M244 630l-51 -566h228c4 30 15 76 23 100c15 4 47 7 64 7l-16 -171h-480c3 18 9 39 15 53c19 5 54 11 76 13l58 564c-22 1 -57 4 -72 7c-2 15 1 46 4 57h250c1 -14 -2 -43 -7 -56c-25 -4 -68 -8 -92 -8zM453 410c32 0 54 -19 54 -55c0 -37 -23 -58 -54 -58
c-37 0 -57 19 -57 58c0 33 24 55 57 55z" />
    <glyph glyph-name="ldot" unicode="&#x140;" horiz-adv-x="363" 
d="M303 397c31 0 52 -19 52 -54c0 -36 -22 -57 -52 -57c-35 0 -54 19 -54 57c0 32 23 54 54 54zM136 54l78 8c0 -15 -8 -43 -16 -56c-32 -12 -90 -23 -119 -23c-19 22 -35 57 -35 74l79 603l-72 -8c0 10 9 42 18 51c24 12 58 23 98 23c10 0 33 -2 41 -4l-77 -651
c0 -3 3 -13 5 -17z" />
    <glyph glyph-name="Lslash" unicode="&#x141;" horiz-adv-x="577" 
d="M255 630l-22 -244l169 102c10 -11 25 -36 29 -50l-205 -127l-22 -247h228c4 30 15 76 23 100c15 4 47 7 64 7l-16 -171h-480c3 18 9 39 15 53c19 5 54 11 76 13l21 202l-82 -51c-5 15 -9 51 -9 68l99 60l29 285c-22 1 -57 4 -72 7c-2 15 1 46 4 57h250
c1 -14 -2 -43 -7 -56c-25 -4 -68 -8 -92 -8z" />
    <glyph glyph-name="lslash" unicode="&#x142;" horiz-adv-x="308" 
d="M4 295l91 55l41 310l-72 -8c0 10 9 42 18 51c24 12 58 23 98 23c10 0 33 -2 41 -4l-31 -256c-2 -20 -8 -58 -13 -75l80 48c8 -9 21 -33 24 -44l-107 -65l-30 -259c0 -3 3 -13 5 -17l78 8c0 -15 -8 -43 -16 -56c-32 -12 -90 -23 -119 -23c-19 22 -35 57 -35 74l21 164
c3 20 8 51 13 67l-79 -48c-4 12 -8 39 -8 55z" />
    <glyph glyph-name="Nacute" unicode="&#x143;" horiz-adv-x="730" 
d="M281 694l212 -500c11 -26 24 -72 30 -109h7l55 545c-22 1 -56 4 -72 7c-1 15 1 46 4 57h209c1 -5 1 -12 1 -16c0 -11 -3 -29 -7 -40c-19 -4 -49 -7 -71 -8l-58 -636h-111l-228 554c-7 18 -18 50 -23 70h-7l-50 -553c27 -2 57 -5 79 -10c3 -12 1 -43 -2 -55h-240
c3 18 9 39 14 53c18 5 54 11 74 13l59 564c-22 1 -54 4 -71 7c-2 15 1 46 4 57h192zM606 834l-240 -90c-4 12 -6 32 -6 48c0 7 0 12 1 19l201 101c18 -15 37 -52 44 -78z" />
    <glyph glyph-name="nacute" unicode="&#x144;" horiz-adv-x="545" 
d="M157 396h10c23 42 67 91 154 91c60 0 116 -24 116 -124c0 -60 -31 -246 -37 -292c0 -3 3 -14 5 -17l77 8c0 -15 -8 -43 -16 -56c-33 -13 -90 -23 -118 -23c-19 22 -35 57 -35 74c13 73 39 226 39 278s-20 86 -68 86c-55 0 -103 -50 -122 -90l-37 -329
c-12 -2 -31 -4 -48 -4c-14 0 -28 1 -37 4l55 413l-73 -8c0 10 9 42 18 51c20 13 58 23 92 23c12 0 24 -1 34 -4zM426 694l-163 -166c-14 8 -32 29 -40 47l125 156c25 -4 63 -22 78 -37z" />
    <glyph glyph-name="Ncommaaccent" unicode="&#x145;" horiz-adv-x="730" 
d="M281 694l212 -500c11 -26 24 -72 30 -109h7l55 545c-22 1 -56 4 -72 7c-1 15 1 46 4 57h209c1 -5 1 -12 1 -16c0 -11 -3 -29 -7 -40c-19 -4 -49 -7 -71 -8l-58 -636h-111l-228 554c-7 18 -18 50 -23 70h-7l-50 -553c27 -2 57 -5 79 -10c3 -12 1 -43 -2 -55h-240
c3 18 9 39 14 53c18 5 54 11 74 13l59 564c-22 1 -54 4 -71 7c-2 15 1 46 4 57h192zM303 -113l-37 8c7 18 24 46 37 59c10 2 24 4 36 4c22 0 49 -4 66 -12c-20 -66 -81 -167 -113 -210c-16 4 -38 15 -46 22c20 36 45 96 57 129z" />
    <glyph glyph-name="ncommaaccent" unicode="&#x146;" horiz-adv-x="545" 
d="M157 396h10c23 42 67 91 154 91c60 0 116 -24 116 -124c0 -60 -31 -246 -37 -292c0 -3 3 -14 5 -17l77 8c0 -15 -8 -43 -16 -56c-33 -13 -90 -23 -118 -23c-19 22 -35 57 -35 74c13 73 39 226 39 278s-20 86 -68 86c-55 0 -103 -50 -122 -90l-37 -329
c-12 -2 -31 -4 -48 -4c-14 0 -28 1 -37 4l55 413l-73 -8c0 10 9 42 18 51c20 13 58 23 92 23c12 0 24 -1 34 -4zM186 -119l-35 7c7 18 22 43 34 56c11 3 23 4 36 4c21 0 42 -4 59 -11c-20 -61 -74 -161 -104 -201c-16 4 -33 15 -41 22c17 34 39 90 51 123z" />
    <glyph glyph-name="Ncaron" unicode="&#x147;" horiz-adv-x="730" 
d="M281 694l212 -500c11 -26 24 -72 30 -109h7l55 545c-22 1 -56 4 -72 7c-1 15 1 46 4 57h209c1 -5 1 -12 1 -16c0 -11 -3 -29 -7 -40c-19 -4 -49 -7 -71 -8l-58 -636h-111l-228 554c-7 18 -18 50 -23 70h-7l-50 -553c27 -2 57 -5 79 -10c3 -12 1 -43 -2 -55h-240
c3 18 9 39 14 53c18 5 54 11 74 13l59 564c-22 1 -54 4 -71 7c-2 15 1 46 4 57h192zM459 749h-104l-115 115c16 12 42 23 65 27l117 -72l122 70c13 -5 34 -24 40 -35z" />
    <glyph glyph-name="ncaron" unicode="&#x148;" horiz-adv-x="545" 
d="M157 396h10c23 42 67 91 154 91c60 0 116 -24 116 -124c0 -60 -31 -246 -37 -292c0 -3 3 -14 5 -17l77 8c0 -15 -8 -43 -16 -56c-33 -13 -90 -23 -118 -23c-19 22 -35 57 -35 74c13 73 39 226 39 278s-20 86 -68 86c-55 0 -103 -50 -122 -90l-37 -329
c-12 -2 -31 -4 -48 -4c-14 0 -28 1 -37 4l55 413l-73 -8c0 10 9 42 18 51c20 13 58 23 92 23c12 0 24 -1 34 -4zM315 542l-80 -7l-94 151c12 13 40 25 60 26l89 -104l110 105c15 -3 37 -15 46 -26z" />
    <glyph glyph-name="napostrophe" unicode="&#x149;" horiz-adv-x="561" 
d="M173 396h10c23 42 67 91 154 91c60 0 116 -24 116 -124c0 -60 -31 -246 -37 -292c0 -3 3 -14 5 -17l77 8c0 -15 -8 -43 -16 -56c-33 -13 -90 -23 -118 -23c-19 22 -35 57 -35 74c13 73 39 226 39 278s-20 86 -68 86c-55 0 -103 -50 -122 -90l-37 -329
c-12 -2 -31 -4 -48 -4c-14 0 -28 1 -37 4l55 413l-73 -8c0 10 9 42 18 51c20 13 58 23 92 23c12 0 24 -1 34 -4zM2 631l-36 10c9 21 25 51 38 66c11 3 22 4 34 4c25 0 49 -5 67 -12c-24 -76 -86 -193 -121 -243c-14 5 -31 17 -39 25c20 42 47 109 57 150z" />
    <glyph glyph-name="Eng" unicode="&#x14a;" horiz-adv-x="725" 
d="M287 694l191 -382c24 -47 46 -126 49 -166h7l49 484c-22 1 -56 4 -72 7c-1 15 1 46 4 57h209c1 -5 1 -12 1 -16c0 -11 -3 -29 -7 -40c-19 -4 -49 -7 -71 -8l-55 -565c-15 -149 -88 -244 -170 -312c-14 6 -26 17 -33 31c50 44 111 127 126 208l-263 556
c-11 24 -18 50 -23 70h-7l-50 -553c27 -2 57 -5 79 -10c3 -12 1 -43 -2 -55h-240c3 18 9 39 14 53c18 5 54 11 74 13l59 564c-22 1 -54 4 -71 7c-2 15 1 46 4 57h198z" />
    <glyph glyph-name="eng" unicode="&#x14b;" horiz-adv-x="517" 
d="M157 396h10c24 42 69 91 156 91c60 0 116 -24 116 -124c0 -57 -17 -176 -26 -219c-28 -135 -88 -247 -178 -332c-13 5 -32 21 -39 36c54 53 108 162 128 256c13 62 30 181 30 231c0 52 -20 86 -68 86c-55 0 -104 -50 -124 -90l-37 -329c-12 -2 -31 -4 -48 -4
c-14 0 -28 1 -37 4l55 413l-73 -8c0 10 9 42 18 51c20 13 58 23 92 23c12 0 24 -1 34 -4z" />
    <glyph glyph-name="Omacron" unicode="&#x14c;" horiz-adv-x="714" 
d="M569 782h-366c0 19 7 54 13 72h357c2 -20 0 -53 -4 -72zM645 417c0 -263 -124 -437 -332 -437c-171 0 -264 105 -264 303c0 257 128 431 334 431c160 0 262 -106 262 -297zM551 405c0 143 -66 243 -174 243c-162 0 -233 -157 -233 -353c0 -152 63 -248 176 -248
c151 0 231 151 231 358z" />
    <glyph glyph-name="omacron" unicode="&#x14d;" horiz-adv-x="488" 
d="M184 -17c-107 0 -165 66 -165 192c0 78 17 148 50 202c42 67 109 110 188 110c102 0 165 -67 165 -187c0 -88 -22 -169 -62 -226s-104 -91 -176 -91zM194 42c44 0 79 27 103 69c27 47 39 115 39 180c0 81 -30 138 -87 138c-50 0 -89 -33 -113 -80
c-23 -46 -30 -105 -30 -165c0 -87 30 -142 88 -142zM380 579h-246c0 17 6 49 12 65h238c1 -6 1 -12 1 -18c0 -17 -2 -35 -5 -47z" />
    <glyph glyph-name="Obreve" unicode="&#x14e;" horiz-adv-x="714" 
d="M645 417c0 -263 -124 -437 -332 -437c-171 0 -264 105 -264 303c0 257 128 431 334 431c160 0 262 -106 262 -297zM551 405c0 143 -66 243 -174 243c-162 0 -233 -157 -233 -353c0 -152 63 -248 176 -248c151 0 231 151 231 358zM292 887c11 -44 47 -62 97 -62
c55 0 94 22 109 62c20 0 49 -8 63 -19c-21 -73 -85 -119 -177 -119s-148 41 -156 109c13 13 40 27 64 29z" />
    <glyph glyph-name="obreve" unicode="&#x14f;" horiz-adv-x="488" 
d="M184 -17c-107 0 -165 66 -165 192c0 78 17 148 50 202c42 67 109 110 188 110c102 0 165 -67 165 -187c0 -88 -22 -169 -62 -226s-104 -91 -176 -91zM194 42c44 0 79 27 103 69c27 47 39 115 39 180c0 81 -30 138 -87 138c-50 0 -89 -33 -113 -80
c-23 -46 -30 -105 -30 -165c0 -87 30 -142 88 -142zM188 700c3 -63 27 -92 71 -92c46 0 79 32 96 91c18 -1 41 -7 54 -16c-17 -84 -72 -143 -158 -143c-81 0 -120 49 -122 134c14 14 37 23 59 26z" />
    <glyph glyph-name="Ohungarumlaut" unicode="&#x150;" horiz-adv-x="714" 
d="M645 417c0 -263 -124 -437 -332 -437c-171 0 -264 105 -264 303c0 257 128 431 334 431c160 0 262 -106 262 -297zM551 405c0 143 -66 243 -174 243c-162 0 -233 -157 -233 -353c0 -152 63 -248 176 -248c151 0 231 151 231 358zM457 870l-173 -135c-11 10 -26 36 -29 51
l130 130c27 -8 57 -29 72 -46zM663 870l-173 -135c-11 10 -26 36 -29 51l130 130c27 -8 57 -29 72 -46z" />
    <glyph glyph-name="ohungarumlaut" unicode="&#x151;" horiz-adv-x="488" 
d="M184 -17c-107 0 -165 66 -165 192c0 78 17 148 50 202c42 67 109 110 188 110c102 0 165 -67 165 -187c0 -88 -22 -169 -62 -226s-104 -91 -176 -91zM194 42c44 0 79 27 103 69c27 47 39 115 39 180c0 81 -30 138 -87 138c-50 0 -89 -33 -113 -80
c-23 -46 -30 -105 -30 -165c0 -87 30 -142 88 -142zM320 695l-144 -171c-15 7 -34 28 -41 43l105 159c25 -3 64 -17 80 -31zM489 695l-144 -171c-15 7 -34 27 -41 43l105 159c25 -3 64 -17 80 -31z" />
    <glyph glyph-name="OE" unicode="&#x152;" horiz-adv-x="925" 
d="M829 0h-383c-44 -15 -87 -17 -116 -17c-187 0 -281 100 -281 310c0 252 136 417 363 417c32 0 68 -4 103 -16h373l-15 -147c-15 0 -41 3 -55 7c-3 21 -6 56 -6 79h-218l-25 -254h173c3 15 10 41 15 54c15 5 41 8 58 8l-18 -185c-17 -2 -45 0 -57 4c-2 13 -5 40 -5 59
h-170l-22 -256h216c5 25 14 65 21 86c15 4 48 7 64 7zM343 47c30 0 73 4 110 20l56 548c-35 24 -77 33 -116 33c-168 0 -248 -152 -248 -343c0 -170 62 -258 198 -258z" />
    <glyph glyph-name="oe" unicode="&#x153;" horiz-adv-x="738" 
d="M184 -17c-107 0 -165 66 -165 192c0 78 17 148 50 202c42 67 109 110 188 110c74 0 122 -35 139 -86h5c28 46 95 86 169 86c70 0 114 -42 114 -110c0 -80 -49 -161 -273 -170v-30c0 -81 28 -122 82 -122c44 0 107 19 150 47c0 -19 -5 -41 -12 -55
c-38 -33 -98 -64 -172 -64c-62 0 -99 32 -112 76h-5c-31 -44 -87 -76 -158 -76zM194 42c44 0 79 27 103 69c27 47 39 115 39 180c0 81 -30 138 -87 138c-50 0 -89 -33 -113 -80c-23 -46 -30 -105 -30 -165c0 -87 30 -142 88 -142zM551 433c-41 0 -80 -25 -102 -63
c-18 -30 -28 -68 -33 -105c165 6 187 57 187 107c0 34 -15 61 -52 61z" />
    <glyph glyph-name="Racute" unicode="&#x154;" horiz-adv-x="629" 
d="M156 631c-22 0 -52 1 -72 3c-2 15 1 47 4 61c76 6 162 10 237 10c129 0 233 -56 233 -174c0 -112 -77 -184 -167 -212c48 -122 109 -246 123 -257l59 4c0 -19 -6 -51 -14 -66c-37 -10 -76 -14 -108 -17c-23 17 -78 143 -144 326c-31 0 -63 1 -93 5l-21 -249
c17 -1 54 -4 75 -9c3 -12 1 -45 -2 -56h-254c3 18 9 39 15 53c19 5 54 11 76 13zM240 640l-23 -272c33 -3 68 -3 98 -3c87 0 154 51 154 157c0 84 -71 121 -168 121c-17 0 -43 -1 -61 -3zM538 834l-240 -90c-4 12 -6 32 -6 48c0 7 0 12 1 19l201 101c18 -15 37 -52 44 -78z
" />
    <glyph glyph-name="racute" unicode="&#x155;" horiz-adv-x="367" 
d="M149 376h10c19 57 64 111 133 111c17 0 35 -3 48 -9c5 -14 7 -31 7 -45s-3 -34 -7 -46c-23 15 -46 20 -68 20c-49 0 -94 -33 -118 -98l-31 -307c-12 -2 -31 -4 -48 -4c-14 0 -28 1 -37 4l54 413l-74 -8c0 10 9 42 18 51c20 13 58 23 92 23c12 0 24 -1 34 -4zM384 694
l-163 -166c-14 8 -32 29 -40 47l125 156c25 -4 63 -22 78 -37z" />
    <glyph glyph-name="Rcommaaccent" unicode="&#x156;" horiz-adv-x="629" 
d="M156 631c-22 0 -52 1 -72 3c-2 15 1 47 4 61c76 6 162 10 237 10c129 0 233 -56 233 -174c0 -112 -77 -184 -167 -212c48 -122 109 -246 123 -257l59 4c0 -19 -6 -51 -14 -66c-37 -10 -76 -14 -108 -17c-23 17 -78 143 -144 326c-31 0 -63 1 -93 5l-21 -249
c17 -1 54 -4 75 -9c3 -12 1 -45 -2 -56h-254c3 18 9 39 15 53c19 5 54 11 76 13zM240 640l-23 -272c33 -3 68 -3 98 -3c87 0 154 51 154 157c0 84 -71 121 -168 121c-17 0 -43 -1 -61 -3zM268 -113l-37 8c7 18 24 46 37 59c10 2 24 4 36 4c22 0 49 -4 66 -12
c-20 -66 -81 -167 -113 -210c-16 4 -38 15 -46 22c20 36 45 96 57 129z" />
    <glyph glyph-name="rcommaaccent" unicode="&#x157;" horiz-adv-x="367" 
d="M149 376h10c19 57 64 111 133 111c17 0 35 -3 48 -9c5 -14 7 -31 7 -45s-3 -34 -7 -46c-23 15 -46 20 -68 20c-49 0 -94 -33 -118 -98l-31 -307c-12 -2 -31 -4 -48 -4c-14 0 -28 1 -37 4l54 413l-74 -8c0 10 9 42 18 51c20 13 58 23 92 23c12 0 24 -1 34 -4zM26 -119
l-35 7c7 18 22 43 34 56c11 3 23 4 36 4c21 0 42 -4 59 -11c-20 -61 -74 -161 -104 -201c-16 4 -33 15 -41 22c17 34 39 90 51 123z" />
    <glyph glyph-name="Rcaron" unicode="&#x158;" horiz-adv-x="629" 
d="M156 631c-22 0 -52 1 -72 3c-2 15 1 47 4 61c76 6 162 10 237 10c129 0 233 -56 233 -174c0 -112 -77 -184 -167 -212c48 -122 109 -246 123 -257l59 4c0 -19 -6 -51 -14 -66c-37 -10 -76 -14 -108 -17c-23 17 -78 143 -144 326c-31 0 -63 1 -93 5l-21 -249
c17 -1 54 -4 75 -9c3 -12 1 -45 -2 -56h-254c3 18 9 39 15 53c19 5 54 11 76 13zM240 640l-23 -272c33 -3 68 -3 98 -3c87 0 154 51 154 157c0 84 -71 121 -168 121c-17 0 -43 -1 -61 -3zM392 749h-104l-115 115c16 12 42 23 65 27l117 -72l122 70c13 -5 34 -24 40 -35z" />
    <glyph glyph-name="rcaron" unicode="&#x159;" horiz-adv-x="367" 
d="M149 376h10c19 57 64 111 133 111c17 0 35 -3 48 -9c5 -14 7 -31 7 -45s-3 -34 -7 -46c-23 15 -46 20 -68 20c-49 0 -94 -33 -118 -98l-31 -307c-12 -2 -31 -4 -48 -4c-14 0 -28 1 -37 4l54 413l-74 -8c0 10 9 42 18 51c20 13 58 23 92 23c12 0 24 -1 34 -4zM275 542
l-80 -7l-94 151c12 13 40 25 60 26l89 -104l110 105c15 -3 37 -15 46 -26z" />
    <glyph glyph-name="Sacute" unicode="&#x15a;" horiz-adv-x="550" 
d="M409 546l9 87c-22 13 -54 20 -86 20c-90 0 -140 -50 -140 -118c0 -165 286 -127 286 -338c0 -162 -123 -217 -260 -217c-72 0 -137 14 -188 38c4 50 16 126 26 168c18 0 57 -5 72 -11l-9 -102c31 -20 76 -29 117 -29c95 0 150 48 150 133c0 161 -282 126 -282 333
c0 124 79 204 226 204c50 0 120 -12 172 -30c-5 -42 -16 -113 -29 -152c-19 0 -49 6 -64 14zM511 834l-240 -90c-4 12 -6 32 -6 48c0 7 0 12 1 19l201 101c18 -15 37 -52 44 -78z" />
    <glyph glyph-name="sacute" unicode="&#x15b;" horiz-adv-x="411" 
d="M272 366l5 55c-16 8 -35 13 -60 13c-39 0 -71 -21 -71 -60c0 -100 184 -115 184 -239c0 -105 -89 -152 -182 -152c-80 0 -142 28 -142 101c10 20 50 36 81 36c3 -59 31 -80 84 -80c43 0 79 25 79 67c0 98 -184 106 -184 239c0 79 56 141 165 141c38 0 80 -9 115 -25
c0 -33 -9 -79 -19 -111c-16 0 -44 7 -55 15zM373 694l-163 -166c-14 8 -32 29 -40 47l125 156c25 -4 63 -22 78 -37z" />
    <glyph glyph-name="Scircumflex" unicode="&#x15c;" horiz-adv-x="550" 
d="M409 546l9 87c-22 13 -54 20 -86 20c-90 0 -140 -50 -140 -118c0 -165 286 -127 286 -338c0 -162 -123 -217 -260 -217c-72 0 -137 14 -188 38c4 50 16 126 26 168c18 0 57 -5 72 -11l-9 -102c31 -20 76 -29 117 -29c95 0 150 48 150 133c0 161 -282 126 -282 333
c0 124 79 204 226 204c50 0 120 -12 172 -30c-5 -42 -16 -113 -29 -152c-19 0 -49 6 -64 14zM283 892h101l112 -100c-7 -16 -25 -38 -40 -47l-129 76l-153 -82c-8 15 -13 44 -13 60z" />
    <glyph glyph-name="scircumflex" unicode="&#x15d;" horiz-adv-x="411" 
d="M272 366l5 55c-16 8 -35 13 -60 13c-39 0 -71 -21 -71 -60c0 -100 184 -115 184 -239c0 -105 -89 -152 -182 -152c-80 0 -142 28 -142 101c10 20 50 36 81 36c3 -59 31 -80 84 -80c43 0 79 25 79 67c0 98 -184 106 -184 239c0 79 56 141 165 141c38 0 80 -9 115 -25
c0 -33 -9 -79 -19 -111c-16 0 -44 7 -55 15zM202 706l80 7l94 -141c-13 -17 -38 -30 -59 -34l-81 99l-119 -108c-11 9 -23 37 -26 57z" />
    <glyph glyph-name="Scedilla" unicode="&#x15e;" horiz-adv-x="550" 
d="M172 -85l29 65c-65 2 -124 16 -171 38c4 50 16 126 26 168c18 0 57 -5 72 -11l-9 -102c31 -20 76 -29 117 -29c95 0 150 48 150 133c0 161 -282 126 -282 333c0 124 79 204 226 204c50 0 120 -12 172 -30c-5 -42 -16 -113 -29 -152c-19 0 -49 6 -64 14l9 87
c-22 13 -54 20 -86 20c-90 0 -140 -50 -140 -118c0 -165 286 -127 286 -338c0 -143 -96 -203 -213 -215l-11 -47c36 -6 64 -31 64 -68c0 -67 -74 -115 -141 -122c-11 11 -23 31 -27 44c44 12 77 30 77 73c0 28 -25 46 -55 53z" />
    <glyph glyph-name="scedilla" unicode="&#x15f;" horiz-adv-x="411" 
d="M102 -77l30 61c-72 3 -126 32 -126 100c10 20 50 36 81 36c3 -59 31 -80 84 -80c43 0 79 25 79 67c0 98 -184 106 -184 239c0 79 56 141 165 141c38 0 80 -9 115 -25c0 -33 -9 -79 -19 -111c-16 0 -44 7 -55 15l5 55c-16 8 -35 13 -60 13c-39 0 -71 -21 -71 -60
c0 -100 184 -115 184 -239c0 -89 -64 -136 -140 -149l-14 -45c25 -8 53 -31 53 -63c0 -58 -69 -103 -132 -108c-11 11 -18 22 -23 37c39 7 73 31 73 65c0 24 -20 44 -45 51z" />
    <glyph glyph-name="Scaron" unicode="&#x160;" horiz-adv-x="550" 
d="M409 546l9 87c-22 13 -54 20 -86 20c-90 0 -140 -50 -140 -118c0 -165 286 -127 286 -338c0 -162 -123 -217 -260 -217c-72 0 -137 14 -188 38c4 50 16 126 26 168c18 0 57 -5 72 -11l-9 -102c31 -20 76 -29 117 -29c95 0 150 48 150 133c0 161 -282 126 -282 333
c0 124 79 204 226 204c50 0 120 -12 172 -30c-5 -42 -16 -113 -29 -152c-19 0 -49 6 -64 14zM371 749h-104l-115 115c16 12 42 23 65 27l117 -72l122 70c13 -5 34 -24 40 -35z" />
    <glyph glyph-name="scaron" unicode="&#x161;" horiz-adv-x="411" 
d="M272 366l5 55c-16 8 -35 13 -60 13c-39 0 -71 -21 -71 -60c0 -100 184 -115 184 -239c0 -105 -89 -152 -182 -152c-80 0 -142 28 -142 101c10 20 50 36 81 36c3 -59 31 -80 84 -80c43 0 79 25 79 67c0 98 -184 106 -184 239c0 79 56 141 165 141c38 0 80 -9 115 -25
c0 -33 -9 -79 -19 -111c-16 0 -44 7 -55 15zM255 542l-80 -7l-94 151c12 13 40 25 60 26l89 -104l110 105c15 -3 37 -15 46 -26z" />
    <glyph glyph-name="Tcommaaccent" unicode="&#x162;" horiz-adv-x="554" 
d="M181 -77l38 77h-111c3 18 10 39 16 53c19 5 60 11 82 13l54 567h-150c-4 -23 -16 -68 -21 -85c-14 -3 -46 -6 -62 -6l15 152h533l-15 -156c-19 0 -41 3 -58 7c-3 20 -6 62 -6 88h-153l-47 -568c30 -2 63 -5 88 -10c3 -13 1 -42 -2 -55h-109l-18 -59c25 -7 53 -29 53 -63
c0 -61 -69 -103 -132 -108c-11 11 -18 22 -23 37c39 7 73 29 73 65c0 26 -19 45 -45 51z" />
    <glyph glyph-name="tcommaaccent" unicode="&#x163;" horiz-adv-x="347" 
d="M85 -77l31 64c-43 10 -61 44 -61 95c0 56 26 230 43 330h-72c2 16 10 39 19 52c14 7 40 14 57 17l29 116c15 10 45 16 64 16l-15 -143h138c1 -7 1 -12 1 -18c0 -13 -2 -28 -4 -40h-144l-28 -284c-5 -53 7 -79 48 -79c26 0 61 9 85 19c0 -18 -6 -40 -13 -53
c-29 -16 -62 -26 -91 -30l-13 -44c25 -7 53 -29 53 -63c0 -61 -69 -103 -132 -108c-11 11 -18 22 -23 37c39 7 73 29 73 65c0 26 -19 45 -45 51z" />
    <glyph glyph-name="Tcaron" unicode="&#x164;" horiz-adv-x="554" 
d="M343 633l-47 -568c30 -2 63 -5 88 -10c3 -13 1 -42 -2 -55h-274c3 18 10 39 16 53c19 5 60 11 82 13l54 567h-150c-4 -23 -16 -68 -21 -85c-14 -3 -46 -6 -62 -6l15 152h533l-15 -156c-19 0 -41 3 -58 7c-3 20 -6 62 -6 88h-153zM360 749h-104l-115 115
c16 12 42 23 65 27l117 -72l122 70c13 -5 34 -24 40 -35z" />
    <glyph glyph-name="tcaron" unicode="&#x165;" horiz-adv-x="368" 
d="M361 649l-34 7c6 18 22 44 34 57c10 2 22 3 34 3c20 0 44 -4 61 -11c-19 -64 -75 -165 -106 -206c-17 4 -35 15 -41 22c18 35 41 94 52 128zM102 481l29 116c15 10 45 16 64 16l-15 -143h138c1 -7 1 -12 1 -18c0 -13 -2 -28 -4 -40h-144l-28 -284c-5 -53 7 -79 48 -79
c26 0 61 9 85 19c0 -18 -6 -40 -13 -53c-37 -21 -82 -32 -116 -32c-65 0 -92 37 -92 99c0 56 26 230 43 330h-72c2 16 10 39 19 52c14 7 40 14 57 17z" />
    <glyph glyph-name="Tbar" unicode="&#x166;" horiz-adv-x="554" 
d="M343 633l-21 -249h121c3 -17 0 -45 -3 -61h-123l-21 -258c30 -2 63 -5 88 -10c3 -13 1 -42 -2 -55h-274c3 18 10 39 16 53c19 5 60 11 82 13l24 257h-122c0 16 6 45 12 61h116l24 249h-150c-4 -23 -16 -68 -21 -85c-14 -3 -46 -6 -62 -6l15 152h533l-15 -156
c-19 0 -41 3 -58 7c-3 20 -6 62 -6 88h-153z" />
    <glyph glyph-name="tbar" unicode="&#x167;" horiz-adv-x="347" 
d="M102 481l29 116c15 10 45 16 64 16l-15 -143h138c1 -7 1 -14 1 -19c0 -14 -2 -30 -4 -39h-144l-14 -138h128c2 -15 0 -39 -3 -53h-130l-9 -93c-5 -53 7 -79 48 -79c26 0 61 9 85 19c0 -18 -6 -40 -13 -53c-37 -21 -82 -32 -116 -32c-65 0 -92 37 -92 99c0 26 5 80 13 139
h-63c0 14 5 39 10 53h61c7 49 15 99 22 138h-72c2 16 10 39 19 52c14 7 40 14 57 17z" />
    <glyph glyph-name="Utilde" unicode="&#x168;" horiz-adv-x="680" 
d="M478 694h203c1 -5 1 -12 1 -16c0 -13 -3 -30 -7 -40c-19 -4 -46 -7 -68 -8l-28 -364c-13 -169 -102 -286 -292 -286c-144 0 -213 77 -213 217c0 16 2 42 4 60l35 372c-23 1 -50 4 -70 8c-3 14 -4 46 -3 57h248c1 -12 -2 -43 -7 -56c-23 -4 -57 -7 -84 -8l-28 -365
c-1 -10 -3 -39 -3 -52c0 -108 50 -168 148 -168c115 0 178 97 189 214l36 371c-20 1 -50 4 -65 7c-2 13 0 45 4 57zM515 873c17 0 40 -6 52 -11c-8 -53 -49 -110 -123 -110c-55 0 -92 44 -137 44c-32 0 -54 -24 -62 -47c-16 3 -37 18 -44 28c14 52 57 94 122 94
c66 0 89 -42 137 -42c31 0 50 22 55 44z" />
    <glyph glyph-name="utilde" unicode="&#x169;" horiz-adv-x="554" 
d="M329 60h-5c-30 -46 -80 -77 -155 -77c-57 0 -115 27 -115 122c0 66 30 254 40 310l-73 -8c0 10 9 42 18 51c24 12 58 23 99 23c10 0 33 -2 41 -4c-14 -106 -37 -301 -37 -341c0 -52 19 -85 70 -85c48 0 95 31 120 75l38 289l-69 -8c0 10 9 43 18 52c23 12 54 22 95 22
c10 0 32 -2 40 -4l-46 -403c0 -2 3 -16 5 -19l75 7c0 -15 -8 -43 -16 -56c-30 -11 -88 -23 -118 -23c-12 20 -22 52 -25 77zM400 669c12 0 26 -3 38 -9c-7 -49 -41 -105 -107 -105c-45 0 -77 44 -113 44c-26 0 -48 -22 -56 -42c-12 0 -27 11 -33 23c14 50 47 91 108 91
c49 0 70 -42 113 -42c27 0 43 18 50 40z" />
    <glyph glyph-name="Umacron" unicode="&#x16a;" horiz-adv-x="680" 
d="M478 694h203c1 -5 1 -12 1 -16c0 -13 -3 -30 -7 -40c-19 -4 -46 -7 -68 -8l-28 -364c-13 -169 -102 -286 -292 -286c-144 0 -213 77 -213 217c0 16 2 42 4 60l35 372c-23 1 -50 4 -70 8c-3 14 -4 46 -3 57h248c1 -12 -2 -43 -7 -56c-23 -4 -57 -7 -84 -8l-28 -365
c-1 -10 -3 -39 -3 -52c0 -108 50 -168 148 -168c115 0 178 97 189 214l36 371c-20 1 -50 4 -65 7c-2 13 0 45 4 57zM542 782h-315c0 19 7 54 13 72h306c1 -7 1 -13 1 -20c0 -18 -2 -38 -5 -52z" />
    <glyph glyph-name="umacron" unicode="&#x16b;" horiz-adv-x="554" 
d="M329 60h-5c-30 -46 -80 -77 -155 -77c-57 0 -115 27 -115 122c0 66 30 254 40 310l-73 -8c0 10 9 42 18 51c24 12 58 23 99 23c10 0 33 -2 41 -4c-14 -106 -37 -301 -37 -341c0 -52 19 -85 70 -85c48 0 95 31 120 75l38 289l-69 -8c0 10 9 43 18 52c23 12 54 22 95 22
c10 0 32 -2 40 -4l-46 -403c0 -2 3 -16 5 -19l75 7c0 -15 -8 -43 -16 -56c-30 -11 -88 -23 -118 -23c-12 20 -22 52 -25 77zM402 579h-246c0 17 6 49 12 65h238c1 -6 1 -12 1 -18c0 -17 -2 -35 -5 -47z" />
    <glyph glyph-name="Ubreve" unicode="&#x16c;" horiz-adv-x="680" 
d="M478 694h203c1 -5 1 -12 1 -16c0 -13 -3 -30 -7 -40c-19 -4 -46 -7 -68 -8l-28 -364c-13 -169 -102 -286 -292 -286c-144 0 -213 77 -213 217c0 16 2 42 4 60l35 372c-23 1 -50 4 -70 8c-3 14 -4 46 -3 57h248c1 -12 -2 -43 -7 -56c-23 -4 -57 -7 -84 -8l-28 -365
c-1 -10 -3 -39 -3 -52c0 -108 50 -168 148 -168c115 0 178 97 189 214l36 371c-20 1 -50 4 -65 7c-2 13 0 45 4 57zM286 887c11 -44 47 -62 97 -62c55 0 94 22 109 62c20 0 49 -8 63 -19c-21 -73 -85 -119 -177 -119s-148 41 -156 109c13 13 40 27 64 29z" />
    <glyph glyph-name="ubreve" unicode="&#x16d;" horiz-adv-x="554" 
d="M329 60h-5c-30 -46 -80 -77 -155 -77c-57 0 -115 27 -115 122c0 66 30 254 40 310l-73 -8c0 10 9 42 18 51c24 12 58 23 99 23c10 0 33 -2 41 -4c-14 -106 -37 -301 -37 -341c0 -52 19 -85 70 -85c48 0 95 31 120 75l38 289l-69 -8c0 10 9 43 18 52c23 12 54 22 95 22
c10 0 32 -2 40 -4l-46 -403c0 -2 3 -16 5 -19l75 7c0 -15 -8 -43 -16 -56c-30 -11 -88 -23 -118 -23c-12 20 -22 52 -25 77zM211 700c3 -63 27 -92 71 -92c46 0 79 32 96 91c18 -1 41 -7 54 -16c-17 -84 -72 -143 -158 -143c-81 0 -120 49 -122 134c14 14 37 23 59 26z" />
    <glyph glyph-name="Uring" unicode="&#x16e;" horiz-adv-x="680" 
d="M478 694h203c1 -5 1 -12 1 -16c0 -13 -3 -30 -7 -40c-19 -4 -46 -7 -68 -8l-28 -364c-13 -169 -102 -286 -292 -286c-144 0 -213 77 -213 217c0 16 2 42 4 60l35 372c-23 1 -50 4 -70 8c-3 14 -4 46 -3 57h248c1 -12 -2 -43 -7 -56c-23 -4 -57 -7 -84 -8l-28 -365
c-1 -10 -3 -39 -3 -52c0 -108 50 -168 148 -168c115 0 178 97 189 214l36 371c-20 1 -50 4 -65 7c-2 13 0 45 4 57zM403 943c68 0 112 -33 112 -91c0 -77 -55 -118 -132 -118s-115 31 -115 92c0 71 47 117 135 117zM397 893c-40 0 -64 -21 -64 -62c0 -30 18 -47 53 -47
c38 0 61 21 61 62c0 32 -18 47 -50 47z" />
    <glyph glyph-name="uring" unicode="&#x16f;" horiz-adv-x="554" 
d="M329 60h-5c-30 -46 -80 -77 -155 -77c-57 0 -115 27 -115 122c0 66 30 254 40 310l-73 -8c0 10 9 42 18 51c24 12 58 23 99 23c10 0 33 -2 41 -4c-14 -106 -37 -301 -37 -341c0 -52 19 -85 70 -85c48 0 95 31 120 75l38 289l-69 -8c0 10 9 43 18 52c23 12 54 22 95 22
c10 0 32 -2 40 -4l-46 -403c0 -2 3 -16 5 -19l75 7c0 -15 -8 -43 -16 -56c-30 -11 -88 -23 -118 -23c-12 20 -22 52 -25 77zM300 741c53 0 92 -32 92 -83c0 -75 -49 -118 -116 -118c-61 0 -94 28 -94 82c0 71 44 119 118 119zM296 698c-40 0 -59 -26 -59 -68
c0 -30 16 -46 45 -46c35 0 57 25 57 70c0 27 -18 44 -43 44z" />
    <glyph glyph-name="Uhungarumlaut" unicode="&#x170;" horiz-adv-x="680" 
d="M478 694h203c1 -5 1 -12 1 -16c0 -13 -3 -30 -7 -40c-19 -4 -46 -7 -68 -8l-28 -364c-13 -169 -102 -286 -292 -286c-144 0 -213 77 -213 217c0 16 2 42 4 60l35 372c-23 1 -50 4 -70 8c-3 14 -4 46 -3 57h248c1 -12 -2 -43 -7 -56c-23 -4 -57 -7 -84 -8l-28 -365
c-1 -10 -3 -39 -3 -52c0 -108 50 -168 148 -168c115 0 178 97 189 214l36 371c-20 1 -50 4 -65 7c-2 13 0 45 4 57zM448 870l-173 -135c-11 10 -26 36 -29 51l130 130c27 -8 57 -29 72 -46zM654 870l-173 -135c-11 10 -26 36 -29 51l130 130c27 -8 57 -29 72 -46z" />
    <glyph glyph-name="uhungarumlaut" unicode="&#x171;" horiz-adv-x="554" 
d="M329 60h-5c-30 -46 -80 -77 -155 -77c-57 0 -115 27 -115 122c0 66 30 254 40 310l-73 -8c0 10 9 42 18 51c24 12 58 23 99 23c10 0 33 -2 41 -4c-14 -106 -37 -301 -37 -341c0 -52 19 -85 70 -85c48 0 95 31 120 75l38 289l-69 -8c0 10 9 43 18 52c23 12 54 22 95 22
c10 0 32 -2 40 -4l-46 -403c0 -2 3 -16 5 -19l75 7c0 -15 -8 -43 -16 -56c-30 -11 -88 -23 -118 -23c-12 20 -22 52 -25 77zM351 695l-144 -171c-15 7 -34 28 -41 43l105 159c25 -3 64 -17 80 -31zM520 695l-144 -171c-15 7 -34 27 -41 43l105 159c25 -3 64 -17 80 -31z" />
    <glyph glyph-name="Uogonek" unicode="&#x172;" horiz-adv-x="680" 
d="M383 -182c5 -10 10 -34 10 -49c-13 -5 -38 -9 -58 -9c-59 0 -114 31 -114 97c0 47 27 94 83 118v5h-17c-144 0 -213 77 -213 216c0 16 2 42 4 60l35 373c-23 1 -50 4 -70 8c-3 14 -4 46 -3 57h248c1 -12 -2 -43 -7 -56c-23 -4 -57 -7 -84 -8l-28 -366
c-1 -10 -3 -39 -3 -52c0 -107 50 -167 148 -167c115 0 178 97 189 213l36 372c-20 1 -50 4 -65 7c-2 13 0 45 4 57h203c1 -5 1 -12 1 -16c0 -13 -3 -30 -7 -40c-19 -4 -46 -7 -68 -8l-28 -365c-10 -126 -61 -217 -164 -263c-76 -34 -117 -78 -117 -133c0 -36 28 -54 61 -54
c7 0 18 1 24 3z" />
    <glyph glyph-name="uogonek" unicode="&#x173;" horiz-adv-x="554" 
d="M439 -152c5 -9 9 -35 9 -50c-15 -6 -40 -10 -60 -10c-53 0 -100 30 -100 90c0 42 24 83 72 102v5c-15 13 -28 46 -31 75h-5c-30 -46 -80 -77 -155 -77c-57 0 -115 27 -115 122c0 66 30 254 40 310l-73 -8c0 10 9 42 18 51c24 12 58 23 99 23c10 0 33 -2 41 -4
c-14 -106 -37 -301 -37 -341c0 -52 19 -85 70 -85c48 0 95 31 120 75l38 289l-69 -8c0 10 9 43 18 52c23 12 54 22 95 22c10 0 32 -2 40 -4l-46 -403c0 -2 3 -16 5 -19l75 7c0 -15 -8 -43 -16 -56c-70 -26 -108 -64 -108 -113c0 -34 23 -49 49 -49c10 0 18 2 26 4z" />
    <glyph glyph-name="Wcircumflex" unicode="&#x174;" horiz-adv-x="957" 
d="M257 65h7c5 25 14 59 20 77l184 560h102l62 -541c2 -19 5 -61 5 -91h7c4 23 13 55 19 74l138 411c7 21 20 54 31 74c-22 1 -50 5 -68 10c-3 15 -5 42 -5 55h207c-1 -15 -7 -43 -15 -59c-12 -2 -34 -4 -51 -5l-233 -643h-98l-60 555c-3 26 -3 68 -3 93h-7
c-4 -28 -16 -73 -23 -96l-177 -552h-106l-93 642c-14 1 -41 6 -52 9c-4 15 -7 41 -7 56h245c-1 -16 -10 -43 -17 -58c-24 -3 -58 -6 -86 -7c9 -25 17 -64 21 -92l48 -373c3 -22 5 -73 5 -99zM482 892h101l112 -100c-7 -16 -25 -38 -40 -47l-129 76l-153 -82
c-8 15 -13 44 -13 60z" />
    <glyph glyph-name="wcircumflex" unicode="&#x175;" horiz-adv-x="725" 
d="M686 421c-52 -142 -124 -303 -196 -446l-88 21l-41 397h-7c-34 -121 -108 -317 -156 -418l-86 21l-40 420l-70 -7c0 10 8 42 16 51c18 12 60 21 96 21c11 0 25 -2 35 -5l24 -310c2 -21 2 -83 2 -114h7c46 115 108 308 139 420l105 10l36 -316c3 -28 4 -84 4 -114h7
c50 114 100 239 135 351c0 3 -2 13 -4 17l-67 -5c1 15 10 44 22 56c20 8 74 16 93 16c18 -17 34 -53 34 -66zM349 706l80 7l94 -141c-13 -17 -38 -30 -59 -34l-81 99l-119 -108c-11 9 -23 37 -26 57z" />
    <glyph glyph-name="Ycircumflex" unicode="&#x176;" horiz-adv-x="586" 
d="M290 334h7c6 17 21 46 32 65l95 162c12 20 35 54 49 69c-20 1 -47 4 -63 8c-4 15 -6 39 -6 56h196c0 -14 -6 -43 -12 -58c-11 -2 -32 -4 -47 -5l-225 -360l-16 -206c29 -2 61 -5 86 -10c3 -13 1 -42 -2 -55h-273c3 18 10 39 16 53c19 5 60 11 82 13l21 206l-139 356
c-13 1 -38 5 -49 8c-5 18 -6 40 -6 58h236c-1 -17 -8 -43 -14 -56c-22 -4 -55 -6 -81 -7c14 -22 25 -45 34 -68l62 -161c6 -16 15 -52 17 -68zM291 892h101l112 -100c-7 -16 -25 -38 -40 -47l-129 76l-153 -82c-8 15 -13 44 -13 60z" />
    <glyph glyph-name="ycircumflex" unicode="&#x177;" horiz-adv-x="477" 
d="M61 417l-71 -7c0 10 8 41 16 50c18 12 59 21 95 21c12 0 26 -2 36 -5l63 -288c6 -28 12 -86 14 -122h7c57 109 109 228 142 337c0 3 -2 13 -4 17l-80 -7c1 15 10 42 22 54c24 11 90 20 113 20c17 -17 32 -53 32 -66c-63 -169 -181 -397 -243 -485s-125 -138 -199 -170
c-11 18 -22 51 -22 76c71 22 139 64 182 138zM225 706l80 7l94 -141c-13 -17 -38 -30 -59 -34l-81 99l-119 -108c-11 9 -23 37 -26 57z" />
    <glyph glyph-name="Ydieresis" unicode="&#x178;" horiz-adv-x="586" 
d="M290 334h7c6 17 21 46 32 65l95 162c12 20 35 54 49 69c-20 1 -47 4 -63 8c-4 15 -6 39 -6 56h196c0 -14 -6 -43 -12 -58c-11 -2 -32 -4 -47 -5l-225 -360l-16 -206c29 -2 61 -5 86 -10c3 -13 1 -42 -2 -55h-273c3 18 10 39 16 53c19 5 60 11 82 13l21 206l-139 356
c-13 1 -38 5 -49 8c-5 18 -6 40 -6 58h236c-1 -17 -8 -43 -14 -56c-22 -4 -55 -6 -81 -7c14 -22 25 -45 34 -68l62 -161c6 -16 15 -52 17 -68zM216 875c33 0 58 -21 58 -55c0 -36 -26 -59 -58 -59c-38 0 -59 21 -59 59c0 31 26 55 59 55zM447 875c33 0 58 -21 58 -55
c0 -36 -26 -59 -58 -59c-38 0 -59 21 -59 59c0 31 26 55 59 55z" />
    <glyph glyph-name="Zacute" unicode="&#x179;" horiz-adv-x="559" 
d="M13 0l7 70l400 551v7h-258c-4 -24 -17 -70 -25 -92c-16 -3 -49 -7 -67 -7l16 165h434l-7 -71l-386 -548v-7h275c5 26 17 77 24 98c16 5 50 9 67 9l-17 -175h-463zM526 834l-240 -90c-4 12 -6 32 -6 48c0 7 0 12 1 19l201 101c18 -15 37 -52 44 -78z" />
    <glyph glyph-name="zacute" unicode="&#x17a;" horiz-adv-x="450" 
d="M8 0l-4 43l283 364v7h-160c-5 -20 -17 -49 -28 -70c-17 0 -39 3 -54 9l18 117h329l4 -43l-284 -364v-7c60 0 129 3 182 9c5 20 17 50 27 70c14 3 43 4 57 1l-26 -136h-344zM398 694l-163 -166c-14 8 -32 29 -40 47l125 156c25 -4 63 -22 78 -37z" />
    <glyph glyph-name="Zdotaccent" unicode="&#x17b;" horiz-adv-x="559" 
d="M13 0l7 70l400 551v7h-258c-4 -24 -17 -70 -25 -92c-16 -3 -49 -7 -67 -7l16 165h434l-7 -71l-386 -548v-7h275c5 26 17 77 24 98c16 5 50 9 67 9l-17 -175h-463zM330 882c32 0 54 -19 54 -55c0 -37 -23 -58 -54 -58c-37 0 -57 19 -57 58c0 33 24 55 57 55z" />
    <glyph glyph-name="zdotaccent" unicode="&#x17c;" horiz-adv-x="450" 
d="M8 0l-4 43l283 364v7h-160c-5 -20 -17 -49 -28 -70c-17 0 -39 3 -54 9l18 117h329l4 -43l-284 -364v-7c60 0 129 3 182 9c5 20 17 50 27 70c14 3 43 4 57 1l-26 -136h-344zM250 670c31 0 52 -19 52 -54c0 -36 -22 -57 -52 -57c-35 0 -54 19 -54 57c0 32 23 54 54 54z" />
    <glyph glyph-name="Zcaron" unicode="&#x17d;" horiz-adv-x="559" 
d="M13 0l7 70l400 551v7h-258c-4 -24 -17 -70 -25 -92c-16 -3 -49 -7 -67 -7l16 165h434l-7 -71l-386 -548v-7h275c5 26 17 77 24 98c16 5 50 9 67 9l-17 -175h-463zM374 749h-104l-115 115c16 12 42 23 65 27l117 -72l122 70c13 -5 34 -24 40 -35z" />
    <glyph glyph-name="zcaron" unicode="&#x17e;" horiz-adv-x="450" 
d="M8 0l-4 43l283 364v7h-160c-5 -20 -17 -49 -28 -70c-17 0 -39 3 -54 9l18 117h329l4 -43l-284 -364v-7c60 0 129 3 182 9c5 20 17 50 27 70c14 3 43 4 57 1l-26 -136h-344zM281 542l-80 -7l-94 151c12 13 40 25 60 26l89 -104l110 105c15 -3 37 -15 46 -26z" />
    <glyph glyph-name="longs" unicode="&#x17f;" horiz-adv-x="274" 
d="M186 543l-72 -693c-12 -2 -33 -4 -50 -4c-14 0 -30 1 -39 4l66 556c-22 1 -50 3 -71 7c0 16 3 45 7 57h72l8 65c18 140 103 195 195 195c28 0 63 -5 97 -17c0 -34 -14 -88 -28 -118c-15 0 -40 8 -53 16l9 63c-8 5 -22 7 -31 7c-47 0 -99 -32 -110 -138z" />
    <glyph glyph-name="uni018F" unicode="&#x18f;" horiz-adv-x="684" 
d="M58 227c0 49 8 98 25 152h444c-1 178 -56 258 -188 258c-54 0 -141 -12 -197 -27c1 20 8 43 20 60c42 22 135 44 210 44c179 0 253 -122 253 -320c0 -185 -92 -414 -339 -414c-153 0 -228 94 -228 247zM298 44c152 0 212 140 226 273h-361c-8 -30 -13 -63 -13 -98
c0 -95 37 -175 148 -175z" />
    <glyph glyph-name="florin" unicode="&#x192;" horiz-adv-x="473" 
d="M54 260h118l16 84c25 135 115 197 202 197c26 0 57 -5 87 -17c-7 -37 -21 -89 -35 -119c-14 1 -38 9 -48 16l11 62c-8 5 -19 7 -29 7c-40 0 -92 -29 -108 -130l-16 -100h137c3 -16 1 -43 -3 -59h-144l-26 -163c-23 -142 -118 -197 -207 -197c-27 0 -62 5 -93 17
c5 38 20 95 32 128c15 -2 42 -10 54 -16l-10 -72c5 -3 16 -6 28 -6c40 0 89 30 107 129l34 180h-119c0 16 6 44 12 59z" />
    <glyph glyph-name="uni01B5" unicode="&#x1b5;" horiz-adv-x="559" 
d="M104 384h144l172 237v7h-258c-4 -22 -16 -65 -23 -86c-16 -3 -50 -7 -68 -7l15 159h434l-7 -71l-169 -239h119c3 -17 0 -45 -3 -61h-159l-174 -248v-7h275c5 24 16 72 22 92c16 5 51 9 68 9l-16 -169h-463l7 70l183 253h-111c0 16 6 45 12 61z" />
    <glyph glyph-name="uni01B6" unicode="&#x1b6;" horiz-adv-x="450" 
d="M68 272h114l105 135v7h-160c-4 -17 -15 -43 -24 -61c-18 0 -41 3 -57 9l17 108h329l4 -43l-121 -155h83c2 -15 0 -39 -3 -53h-122l-121 -156v-7c60 0 129 3 182 9c4 17 14 44 23 61c14 3 45 4 59 1l-24 -127h-344l-4 43l137 176h-83c0 14 5 39 10 53z" />
    <glyph glyph-name="Aringacute" unicode="&#x1fa;" horiz-adv-x="712" 
d="M558 1004l-240 -90c-4 12 -6 32 -6 48c0 7 0 12 1 19l201 101c18 -15 37 -52 44 -78zM474 224h-252l-37 -85c-9 -21 -26 -55 -40 -77c22 -1 50 -4 75 -9c3 -10 7 -42 7 -53h-230c3 17 11 39 19 53c14 5 35 9 50 11l306 638c-56 7 -84 38 -84 90c0 71 47 117 135 117
c68 0 112 -33 112 -91c0 -67 -41 -106 -102 -116l177 -636c14 -1 42 -5 58 -9c3 -13 6 -42 6 -57h-240c3 17 9 39 16 54c15 4 55 10 74 12c-13 23 -25 57 -31 82zM388 605h-7c-6 -24 -25 -70 -37 -97l-100 -227h218l-60 229c-6 24 -14 70 -14 95zM417 859
c-40 0 -64 -21 -64 -62c0 -30 18 -47 53 -47c38 0 61 21 61 62c0 32 -18 47 -50 47z" />
    <glyph glyph-name="aringacute" unicode="&#x1fb;" horiz-adv-x="522" 
d="M293 57h-5c-37 -53 -95 -74 -141 -74c-74 0 -129 52 -129 179c0 84 23 166 66 226c43 59 106 99 186 99c63 0 115 -21 149 -45l-48 -367c0 -3 3 -16 5 -21l78 7c0 -14 -8 -42 -16 -55c-30 -12 -91 -23 -119 -23c-11 19 -22 50 -26 74zM293 124l41 295
c-17 10 -43 15 -65 15c-54 0 -97 -34 -122 -75c-30 -50 -43 -130 -43 -186c0 -85 33 -122 84 -122c40 0 81 28 105 73zM293 741c53 0 92 -32 92 -83c0 -75 -49 -118 -116 -118c-61 0 -94 28 -94 82c0 71 44 119 118 119zM289 698c-40 0 -59 -26 -59 -68c0 -30 16 -46 45 -46
c35 0 57 25 57 70c0 27 -18 44 -43 44zM418 927l-163 -166c-14 8 -32 29 -40 47l125 156c25 -4 63 -22 78 -37z" />
    <glyph glyph-name="AEacute" unicode="&#x1fc;" horiz-adv-x="893" 
d="M797 0h-461c2 16 8 39 14 53c16 5 52 11 71 13l16 165h-196l-54 -91c-16 -26 -34 -55 -51 -77c22 -1 52 -3 70 -7c4 -13 6 -44 6 -56h-224c3 17 10 39 18 53c13 5 33 9 47 11l355 566c-26 1 -67 4 -84 7c-2 15 0 45 4 57h528l-15 -147c-15 0 -41 3 -55 7
c-3 21 -6 56 -6 79h-218l-25 -264h173c3 15 10 41 15 54c15 5 41 8 58 8l-18 -185c-17 -2 -45 0 -57 4c-2 13 -5 40 -5 59h-170l-22 -246h216c5 25 14 65 21 86c15 4 48 7 64 7zM429 544l-154 -256h168l36 345h-7c-9 -24 -27 -62 -43 -89zM712 834l-240 -90
c-4 12 -6 32 -6 48c0 7 0 12 1 19l201 101c18 -15 37 -52 44 -78z" />
    <glyph glyph-name="aeacute" unicode="&#x1fd;" horiz-adv-x="713" 
d="M653 377c0 -80 -48 -161 -274 -170v-30c0 -80 27 -122 83 -122c44 0 107 19 150 47c0 -19 -5 -41 -12 -55c-38 -33 -98 -64 -172 -64c-70 0 -107 39 -116 86h-5c-21 -42 -83 -86 -164 -86c-66 0 -122 35 -122 117c0 110 95 175 196 175c30 0 64 -6 86 -17c4 22 9 64 9 77
c0 56 -25 83 -78 83c-42 0 -107 -23 -143 -46c-2 7 -3 18 -3 28c0 16 4 37 9 48c34 19 110 39 162 39c71 0 110 -28 120 -76h5c20 37 81 76 156 76c70 0 113 -42 113 -110zM184 52c47 0 91 24 114 54c-2 14 -3 30 -3 47c0 19 1 39 3 59c-18 5 -47 8 -65 8
c-77 0 -128 -39 -128 -98c0 -51 33 -70 79 -70zM520 433c-41 0 -80 -25 -103 -63c-18 -30 -28 -68 -33 -105c167 6 190 57 190 107c0 34 -16 61 -54 61zM535 694l-163 -166c-14 8 -32 29 -40 47l125 156c25 -4 63 -22 78 -37z" />
    <glyph glyph-name="Oslashacute" unicode="&#x1fe;" horiz-adv-x="741" 
d="M667 417c0 -263 -126 -437 -338 -437c-88 0 -155 27 -201 79l-105 -107c-10 12 -23 44 -26 64l96 98c-22 45 -32 101 -32 169c0 257 130 431 340 431c81 0 147 -27 194 -77l92 98c16 -8 41 -27 50 -43l-105 -110c23 -45 35 -100 35 -165zM573 405c0 38 -5 74 -15 105
l-364 -382c30 -52 78 -81 142 -81c155 0 237 151 237 358zM156 295c0 -41 4 -77 13 -109l362 385c-31 48 -78 77 -136 77c-166 0 -239 -157 -239 -353zM583 834l-240 -90c-4 12 -6 32 -6 48c0 7 0 12 1 19l201 101c18 -15 37 -52 44 -78z" />
    <glyph glyph-name="oslashacute" unicode="&#x1ff;" horiz-adv-x="516" 
d="M201 -17c-48 0 -86 14 -114 39l-69 -81c-10 10 -23 34 -27 50l64 75c-13 29 -20 65 -20 109c0 78 17 148 51 202c42 67 109 110 190 110c45 0 83 -13 111 -38l59 68c12 -6 34 -23 41 -34l-67 -78c14 -29 22 -64 22 -105c0 -88 -22 -169 -62 -226
c-41 -57 -105 -91 -179 -91zM211 42c46 0 81 27 106 69c27 47 40 115 40 180c0 15 -1 29 -3 42l-213 -248c15 -28 38 -43 70 -43zM121 184c0 -16 1 -30 3 -44l212 248c-15 26 -38 41 -68 41c-52 0 -91 -33 -116 -80c-23 -46 -31 -105 -31 -165zM416 694l-163 -166
c-14 8 -32 29 -40 47l125 156c25 -4 63 -22 78 -37z" />
    <glyph glyph-name="Scommaaccent" unicode="&#x218;" horiz-adv-x="550" 
d="M409 546l9 87c-22 13 -54 20 -86 20c-90 0 -140 -50 -140 -118c0 -165 286 -127 286 -338c0 -162 -123 -217 -260 -217c-72 0 -137 14 -188 38c4 50 16 126 26 168c18 0 57 -5 72 -11l-9 -102c31 -20 76 -29 117 -29c95 0 150 48 150 133c0 161 -282 126 -282 333
c0 124 79 204 226 204c50 0 120 -12 172 -30c-5 -42 -16 -113 -29 -152c-19 0 -49 6 -64 14zM216 -113l-37 8c7 18 24 46 37 59c10 2 24 4 36 4c22 0 49 -4 66 -12c-20 -66 -81 -167 -113 -210c-16 4 -38 15 -46 22c20 36 45 96 57 129z" />
    <glyph glyph-name="scommaaccent" unicode="&#x219;" horiz-adv-x="411" 
d="M272 366l5 55c-16 8 -35 13 -60 13c-39 0 -71 -21 -71 -60c0 -100 184 -115 184 -239c0 -105 -89 -152 -182 -152c-80 0 -142 28 -142 101c10 20 50 36 81 36c3 -59 31 -80 84 -80c43 0 79 25 79 67c0 98 -184 106 -184 239c0 79 56 141 165 141c38 0 80 -9 115 -25
c0 -33 -9 -79 -19 -111c-16 0 -44 7 -55 15zM141 -119l-35 7c7 18 22 43 34 56c11 3 23 4 36 4c21 0 42 -4 59 -11c-20 -61 -74 -161 -104 -201c-16 4 -33 15 -41 22c17 34 39 90 51 123z" />
    <glyph glyph-name="uni021A" unicode="&#x21a;" horiz-adv-x="554" 
d="M343 633l-47 -568c30 -2 63 -5 88 -10c3 -13 1 -42 -2 -55h-274c3 18 10 39 16 53c19 5 60 11 82 13l54 567h-150c-4 -23 -16 -68 -21 -85c-14 -3 -46 -6 -62 -6l15 152h533l-15 -156c-19 0 -41 3 -58 7c-3 20 -6 62 -6 88h-153zM191 -113l-37 8c7 18 24 46 37 59
c10 2 24 4 36 4c22 0 49 -4 66 -12c-20 -66 -81 -167 -113 -210c-16 4 -38 15 -46 22c20 36 45 96 57 129z" />
    <glyph glyph-name="uni021B" unicode="&#x21b;" horiz-adv-x="347" 
d="M102 481l29 116c15 10 45 16 64 16l-15 -143h138c1 -7 1 -12 1 -18c0 -13 -2 -28 -4 -40h-144l-28 -284c-5 -53 7 -79 48 -79c26 0 61 9 85 19c0 -18 -6 -40 -13 -53c-37 -21 -82 -32 -116 -32c-65 0 -92 37 -92 99c0 56 26 230 43 330h-72c2 16 10 39 19 52
c14 7 40 14 57 17zM108 -119l-35 7c7 18 22 43 34 56c11 3 23 4 36 4c21 0 42 -4 59 -11c-20 -61 -74 -161 -104 -201c-16 4 -33 15 -41 22c17 34 39 90 51 123z" />
    <glyph glyph-name="dotlessj" unicode="&#x237;" horiz-adv-x="275" 
d="M-18 -229c-14 5 -34 22 -40 35c59 60 117 158 131 270l41 339l-73 -8c0 10 9 42 18 51c24 12 58 23 99 23c10 0 33 -2 41 -4l-40 -375c-15 -138 -88 -246 -177 -331z" />
    <glyph glyph-name="uni0259" unicode="&#x259;" horiz-adv-x="434" 
d="M12 97c0 88 57 168 274 176c-1 102 -23 144 -83 144c-44 0 -107 -14 -150 -37c0 18 6 42 13 56c39 28 99 51 173 51c94 0 136 -66 136 -194c0 -82 -20 -172 -73 -233c-39 -45 -99 -77 -169 -77c-77 0 -121 43 -121 114zM249 96c13 22 28 56 34 119
c-162 -5 -190 -56 -190 -113c0 -35 15 -62 58 -62c39 0 77 23 98 56z" />
    <glyph glyph-name="uni02BB" unicode="&#x2bb;" horiz-adv-x="223" 
d="M221 709c-25 -47 -61 -126 -75 -168l38 -10c-6 -17 -30 -52 -45 -67c-33 4 -68 16 -89 32c28 73 73 153 110 204c11 3 43 9 61 9z" />
    <glyph glyph-name="afii57929" unicode="&#x2bc;" horiz-adv-x="253" 
d="M131 631l-36 10c9 21 25 51 38 66c11 3 22 4 34 4c25 0 49 -5 67 -12c-24 -76 -86 -193 -121 -243c-14 5 -31 17 -39 25c20 42 47 109 57 150z" />
    <glyph glyph-name="circumflex" unicode="&#x2c6;" horiz-adv-x="419" 
d="M177 706l80 7l94 -141c-13 -17 -38 -30 -59 -34l-81 99l-119 -108c-11 9 -23 37 -26 57z" />
    <glyph glyph-name="caron" unicode="&#x2c7;" horiz-adv-x="419" 
d="M249 542l-80 -7l-94 151c12 13 40 25 60 26l89 -104l110 105c15 -3 37 -15 46 -26z" />
    <glyph glyph-name="breve" unicode="&#x2d8;" horiz-adv-x="419" 
d="M151 700c3 -63 27 -92 71 -92c46 0 79 32 96 91c18 -1 41 -7 54 -16c-17 -84 -72 -143 -158 -143c-81 0 -120 49 -122 134c14 14 37 23 59 26z" />
    <glyph glyph-name="dotaccent" unicode="&#x2d9;" horiz-adv-x="419" 
d="M215 670c31 0 52 -19 52 -54c0 -36 -22 -57 -52 -57c-35 0 -54 19 -54 57c0 32 23 54 54 54z" />
    <glyph glyph-name="ring" unicode="&#x2da;" horiz-adv-x="419" 
d="M221 741c53 0 92 -32 92 -83c0 -75 -49 -118 -116 -118c-61 0 -94 28 -94 82c0 71 44 119 118 119zM217 698c-40 0 -59 -26 -59 -68c0 -30 16 -46 45 -46c35 0 57 25 57 70c0 27 -18 44 -43 44z" />
    <glyph glyph-name="ogonek" unicode="&#x2db;" horiz-adv-x="398" 
d="M234 -152c5 -9 9 -35 9 -50c-15 -6 -40 -10 -60 -10c-53 0 -100 30 -100 90c0 52 34 98 115 126c13 2 49 4 70 4c-73 -34 -109 -65 -109 -115c0 -34 23 -49 49 -49c10 0 18 2 26 4z" />
    <glyph glyph-name="tilde" unicode="&#x2dc;" horiz-adv-x="419" 
d="M341 669c12 0 26 -3 38 -9c-7 -49 -41 -105 -107 -105c-45 0 -77 44 -113 44c-26 0 -48 -22 -56 -42c-12 0 -27 11 -33 23c14 50 47 91 108 91c49 0 70 -42 113 -42c27 0 43 18 50 40z" />
    <glyph glyph-name="hungarumlaut" unicode="&#x2dd;" horiz-adv-x="398" 
d="M238 695l-144 -171c-15 7 -34 28 -41 43l105 159c25 -3 64 -17 80 -31zM407 695l-144 -171c-15 7 -34 27 -41 43l105 159c25 -3 64 -17 80 -31z" />
    <glyph glyph-name="gravecomb" unicode="&#x300;" horiz-adv-x="1" 
d="M-63 542l-119 154c20 14 62 25 93 25l90 -158c-12 -9 -46 -21 -64 -21z" />
    <glyph glyph-name="acutecomb" unicode="&#x301;" horiz-adv-x="1" 
d="M1 694l-163 -166c-14 8 -32 29 -40 47l125 156c25 -4 63 -22 78 -37z" />
    <glyph glyph-name="uni0302" unicode="&#x302;" horiz-adv-x="1" 
d="M-173 706l80 7l94 -141c-13 -17 -38 -30 -59 -34l-81 99l-119 -108c-11 9 -23 37 -26 57z" />
    <glyph glyph-name="tildecomb" unicode="&#x303;" horiz-adv-x="1" 
d="M-37 669c12 0 26 -3 38 -9c-7 -49 -41 -105 -107 -105c-45 0 -77 44 -113 44c-26 0 -48 -22 -56 -42c-12 0 -27 11 -33 23c14 50 47 91 108 91c49 0 70 -42 113 -42c27 0 43 18 50 40z" />
    <glyph glyph-name="uni0304" unicode="&#x304;" horiz-adv-x="1" 
d="M-4 579h-246c0 17 6 49 12 65h238c1 -6 1 -12 1 -18c0 -17 -2 -35 -5 -47z" />
    <glyph glyph-name="uni0306" unicode="&#x306;" horiz-adv-x="1" 
d="M-220 700c3 -63 27 -92 71 -92c46 0 79 32 96 91c18 -1 41 -7 54 -16c-17 -84 -72 -143 -158 -143c-81 0 -120 49 -122 134c14 14 37 23 59 26z" />
    <glyph glyph-name="uni0307" unicode="&#x307;" horiz-adv-x="1" 
d="M-51 670c31 0 52 -19 52 -54c0 -36 -22 -57 -52 -57c-35 0 -54 19 -54 57c0 32 23 54 54 54z" />
    <glyph glyph-name="uni0308" unicode="&#x308;" horiz-adv-x="1" 
d="M-246 669c29 0 50 -19 50 -51c0 -34 -22 -55 -50 -55c-33 0 -51 19 -51 55c0 29 22 51 51 51zM-49 669c29 0 50 -19 50 -51c0 -34 -22 -55 -50 -55c-33 0 -51 19 -51 55c0 29 22 51 51 51z" />
    <glyph glyph-name="uni030A" unicode="&#x30a;" horiz-adv-x="1" 
d="M-91 741c53 0 92 -32 92 -83c0 -75 -49 -118 -116 -118c-61 0 -94 28 -94 82c0 71 44 119 118 119zM-95 698c-40 0 -59 -26 -59 -68c0 -30 16 -46 45 -46c35 0 57 25 57 70c0 27 -18 44 -43 44z" />
    <glyph glyph-name="uni030B" unicode="&#x30b;" horiz-adv-x="1" 
d="M-168 695l-144 -171c-15 7 -34 28 -41 43l105 159c25 -3 64 -17 80 -31zM1 695l-144 -171c-15 7 -34 27 -41 43l105 159c25 -3 64 -17 80 -31z" />
    <glyph glyph-name="uni030C" unicode="&#x30c;" horiz-adv-x="1" 
d="M-130 542l-80 -7l-94 151c12 13 40 25 60 26l89 -104l110 105c15 -3 37 -15 46 -26z" />
    <glyph glyph-name="uni0312" unicode="&#x312;" horiz-adv-x="1" 
d="M1 737c-17 -35 -42 -95 -52 -127l41 -9c-5 -17 -28 -50 -43 -64c-32 4 -67 15 -88 31c21 57 55 119 84 159c10 5 39 10 58 10z" />
    <glyph glyph-name="uni0313" unicode="&#x313;" horiz-adv-x="1" 
d="M-94 649l-34 7c6 18 22 44 34 57c10 2 22 3 34 3c20 0 44 -4 61 -11c-19 -64 -75 -165 -106 -206c-17 4 -35 15 -41 22c18 35 41 94 52 128z" />
    <glyph glyph-name="uni0326" unicode="&#x326;" horiz-adv-x="1" 
d="M-93 -119l-35 7c7 18 22 43 34 56c11 3 23 4 36 4c21 0 42 -4 59 -11c-20 -61 -74 -161 -104 -201c-16 4 -33 15 -41 22c17 34 39 90 51 123z" />
    <glyph glyph-name="uni0394" unicode="&#x394;" horiz-adv-x="613" 
d="M303 704h78l179 -646l-4 -58h-571l4 47zM83 62h372l-104 404c-12 46 -26 109 -26 144h-7c-9 -35 -34 -95 -55 -141z" />
    <glyph glyph-name="uni03A9" unicode="&#x3a9;" horiz-adv-x="777" 
d="M409 0l6 64c93 52 169 189 169 349c0 124 -50 237 -177 237c-163 0 -231 -167 -231 -332c0 -116 46 -207 107 -254l-6 -64h-293l15 153c18 0 49 -3 62 -6c3 -20 5 -55 5 -76h126v7c-60 39 -109 126 -109 247c0 235 134 389 330 389c164 0 265 -116 265 -290
c0 -164 -86 -305 -171 -346v-7h134c4 23 12 57 18 78c17 4 46 7 65 7l-14 -156h-301z" />
    <glyph glyph-name="uni03BC" unicode="&#x3bc;" horiz-adv-x="566" 
d="M96 81h-7c4 -51 7 -103 7 -145c0 -70 -5 -143 -12 -205c-29 1 -71 13 -89 22c38 250 73 489 99 715c17 7 66 12 84 12c-12 -67 -36 -235 -36 -305c0 -78 26 -118 88 -118c53 0 104 39 126 78c7 104 24 243 41 333c14 6 60 12 78 12c-19 -122 -39 -282 -39 -354
c0 -48 8 -72 32 -72c17 0 37 6 50 12c-1 -20 -9 -49 -16 -62c-16 -10 -43 -21 -68 -21c-49 0 -69 37 -74 90h-5c-20 -43 -64 -90 -150 -90c-58 0 -99 29 -109 98z" />
    <glyph glyph-name="pi" unicode="&#x3c0;" horiz-adv-x="556" 
d="M128 394c-46 -5 -96 -28 -126 -61c-1 5 -2 13 -2 18c0 19 4 44 11 60c38 46 112 70 237 70c81 0 189 -2 272 -7c1 -8 1 -12 1 -18c0 -22 -3 -50 -8 -67c-34 2 -67 5 -102 6c-14 -76 -29 -202 -29 -269c0 -45 7 -65 28 -65c11 0 26 4 36 8c0 -24 -8 -60 -17 -75
c-12 -6 -33 -11 -53 -11c-52 0 -71 48 -71 127c0 77 21 211 37 287c-26 2 -57 3 -89 3c-18 0 -35 0 -53 -1c-8 -140 -30 -312 -75 -423c-29 4 -64 19 -81 32c46 101 75 254 84 386z" />
    <glyph glyph-name="Wgrave" unicode="&#x1e80;" horiz-adv-x="957" 
d="M257 65h7c5 25 14 59 20 77l184 560h102l62 -541c2 -19 5 -61 5 -91h7c4 23 13 55 19 74l138 411c7 21 20 54 31 74c-22 1 -50 5 -68 10c-3 15 -5 42 -5 55h207c-1 -15 -7 -43 -15 -59c-12 -2 -34 -4 -51 -5l-233 -643h-98l-60 555c-3 26 -3 68 -3 93h-7
c-4 -28 -16 -73 -23 -96l-177 -552h-106l-93 642c-14 1 -41 6 -52 9c-4 15 -7 41 -7 56h245c-1 -16 -10 -43 -17 -58c-24 -3 -58 -6 -86 -7c9 -25 17 -64 21 -92l48 -373c3 -22 5 -73 5 -99zM556 749l-219 96c17 23 52 50 76 60l174 -98c-2 -16 -18 -47 -31 -58z" />
    <glyph glyph-name="wgrave" unicode="&#x1e81;" horiz-adv-x="725" 
d="M686 421c-52 -142 -124 -303 -196 -446l-88 21l-41 397h-7c-34 -121 -108 -317 -156 -418l-86 21l-40 420l-70 -7c0 10 8 42 16 51c18 12 60 21 96 21c11 0 25 -2 35 -5l24 -310c2 -21 2 -83 2 -114h7c46 115 108 308 139 420l105 10l36 -316c3 -28 4 -84 4 -114h7
c50 114 100 239 135 351c0 3 -2 13 -4 17l-67 -5c1 15 10 44 22 56c20 8 74 16 93 16c18 -17 34 -53 34 -66zM384 542l-119 154c20 14 62 25 93 25l90 -158c-12 -9 -46 -21 -64 -21z" />
    <glyph glyph-name="Wacute" unicode="&#x1e82;" horiz-adv-x="957" 
d="M257 65h7c5 25 14 59 20 77l184 560h102l62 -541c2 -19 5 -61 5 -91h7c4 23 13 55 19 74l138 411c7 21 20 54 31 74c-22 1 -50 5 -68 10c-3 15 -5 42 -5 55h207c-1 -15 -7 -43 -15 -59c-12 -2 -34 -4 -51 -5l-233 -643h-98l-60 555c-3 26 -3 68 -3 93h-7
c-4 -28 -16 -73 -23 -96l-177 -552h-106l-93 642c-14 1 -41 6 -52 9c-4 15 -7 41 -7 56h245c-1 -16 -10 -43 -17 -58c-24 -3 -58 -6 -86 -7c9 -25 17 -64 21 -92l48 -373c3 -22 5 -73 5 -99zM710 834l-240 -90c-4 12 -6 32 -6 48c0 7 0 12 1 19l201 101
c18 -15 37 -52 44 -78z" />
    <glyph glyph-name="wacute" unicode="&#x1e83;" horiz-adv-x="725" 
d="M686 421c-52 -142 -124 -303 -196 -446l-88 21l-41 397h-7c-34 -121 -108 -317 -156 -418l-86 21l-40 420l-70 -7c0 10 8 42 16 51c18 12 60 21 96 21c11 0 25 -2 35 -5l24 -310c2 -21 2 -83 2 -114h7c46 115 108 308 139 420l105 10l36 -316c3 -28 4 -84 4 -114h7
c50 114 100 239 135 351c0 3 -2 13 -4 17l-67 -5c1 15 10 44 22 56c20 8 74 16 93 16c18 -17 34 -53 34 -66zM521 694l-163 -166c-14 8 -32 29 -40 47l125 156c25 -4 63 -22 78 -37z" />
    <glyph glyph-name="Wdieresis" unicode="&#x1e84;" horiz-adv-x="957" 
d="M380 875c33 0 58 -21 58 -55c0 -36 -26 -59 -58 -59c-38 0 -59 21 -59 59c0 31 26 55 59 55zM651 875c33 0 58 -21 58 -55c0 -36 -26 -59 -58 -59c-38 0 -59 21 -59 59c0 31 26 55 59 55zM257 65h7c5 25 14 59 20 77l184 560h102l62 -541c2 -19 5 -61 5 -91h7
c4 23 13 55 19 74l138 411c7 21 20 54 31 74c-22 1 -50 5 -68 10c-3 15 -5 42 -5 55h207c-1 -15 -7 -43 -15 -59c-12 -2 -34 -4 -51 -5l-233 -643h-98l-60 555c-3 26 -3 68 -3 93h-7c-4 -28 -16 -73 -23 -96l-177 -552h-106l-93 642c-14 1 -41 6 -52 9c-4 15 -7 41 -7 56
h245c-1 -16 -10 -43 -17 -58c-24 -3 -58 -6 -86 -7c9 -25 17 -64 21 -92l48 -373c3 -22 5 -73 5 -99z" />
    <glyph glyph-name="wdieresis" unicode="&#x1e85;" horiz-adv-x="725" 
d="M259 669c29 0 50 -19 50 -51c0 -34 -22 -55 -50 -55c-33 0 -51 19 -51 55c0 29 22 51 51 51zM490 669c29 0 50 -19 50 -51c0 -34 -22 -55 -50 -55c-33 0 -51 19 -51 55c0 29 22 51 51 51zM686 421c-52 -142 -124 -303 -196 -446l-88 21l-41 397h-7
c-34 -121 -108 -317 -156 -418l-86 21l-40 420l-70 -7c0 10 8 42 16 51c18 12 60 21 96 21c11 0 25 -2 35 -5l24 -310c2 -21 2 -83 2 -114h7c46 115 108 308 139 420l105 10l36 -316c3 -28 4 -84 4 -114h7c50 114 100 239 135 351c0 3 -2 13 -4 17l-67 -5c1 15 10 44 22 56
c20 8 74 16 93 16c18 -17 34 -53 34 -66z" />
    <glyph glyph-name="uni1E8A" unicode="&#x1e8a;" horiz-adv-x="671" 
d="M57 62l222 305l-139 261c-14 1 -38 4 -52 8c-4 14 -8 41 -8 58h239c-1 -16 -9 -44 -15 -59c-19 -2 -50 -4 -75 -5c17 -20 35 -50 47 -72l82 -151l102 160c11 18 32 46 50 63c-19 1 -45 4 -61 7c-4 14 -6 44 -6 57h198c0 -15 -6 -45 -13 -60c-11 -2 -34 -3 -46 -3
l-196 -276l159 -291c15 -1 40 -4 57 -8c4 -14 8 -44 8 -56h-242c2 16 10 43 15 53c18 4 44 8 70 10c-21 20 -37 49 -50 73l-94 175l-115 -188c-12 -19 -32 -44 -49 -60c24 -1 50 -4 70 -9c4 -16 6 -42 6 -54h-235c3 17 10 39 16 52c16 5 39 8 55 10zM391 882
c32 0 54 -19 54 -55c0 -37 -23 -58 -54 -58c-37 0 -57 19 -57 58c0 33 24 55 57 55z" />
    <glyph glyph-name="uni1E8B" unicode="&#x1e8b;" horiz-adv-x="494" 
d="M187 477c24 -60 50 -130 68 -185h5c37 56 76 120 100 176c7 2 25 4 39 4c13 0 36 -2 46 -4c-38 -69 -109 -172 -162 -238c33 -79 76 -168 87 -176l69 13c0 -17 -5 -44 -12 -57c-22 -13 -75 -29 -105 -33c-17 6 -60 95 -99 193h-5c-42 -66 -100 -147 -148 -193
c-25 6 -63 24 -81 37c-3 9 -5 22 -5 33c0 9 1 18 4 27l58 -23c41 41 105 118 147 185c-25 61 -50 126 -71 182l-66 -9c0 10 9 42 17 51c15 11 50 21 79 21c11 0 26 -1 35 -4zM282 670c31 0 52 -19 52 -54c0 -36 -22 -57 -52 -57c-35 0 -54 19 -54 57c0 32 23 54 54 54z" />
    <glyph glyph-name="Ygrave" unicode="&#x1ef2;" horiz-adv-x="586" 
d="M290 334h7c6 17 21 46 32 65l95 162c12 20 35 54 49 69c-20 1 -47 4 -63 8c-4 15 -6 39 -6 56h196c0 -14 -6 -43 -12 -58c-11 -2 -32 -4 -47 -5l-225 -360l-16 -206c29 -2 61 -5 86 -10c3 -13 1 -42 -2 -55h-273c3 18 10 39 16 53c19 5 60 11 82 13l21 206l-139 356
c-13 1 -38 5 -49 8c-5 18 -6 40 -6 58h236c-1 -17 -8 -43 -14 -56c-22 -4 -55 -6 -81 -7c14 -22 25 -45 34 -68l62 -161c6 -16 15 -52 17 -68zM369 749l-219 96c17 23 52 50 76 60l174 -98c-2 -16 -18 -47 -31 -58z" />
    <glyph glyph-name="ygrave" unicode="&#x1ef3;" horiz-adv-x="477" 
d="M61 417l-71 -7c0 10 8 41 16 50c18 12 59 21 95 21c12 0 26 -2 36 -5l63 -288c6 -28 12 -86 14 -122h7c57 109 109 228 142 337c0 3 -2 13 -4 17l-80 -7c1 15 10 42 22 54c24 11 90 20 113 20c17 -17 32 -53 32 -66c-63 -169 -181 -397 -243 -485s-125 -138 -199 -170
c-11 18 -22 51 -22 76c71 22 139 64 182 138zM251 542l-119 154c20 14 62 25 93 25l90 -158c-12 -9 -46 -21 -64 -21z" />
    <glyph glyph-name="uni2007" unicode="&#x2007;" horiz-adv-x="594" 
 />
    <glyph glyph-name="uni2008" unicode="&#x2008;" horiz-adv-x="234" 
 />
    <glyph glyph-name="uni200B" unicode="&#x200b;" horiz-adv-x="0" 
 />
    <glyph glyph-name="uniFEFF" unicode="&#xfeff;" horiz-adv-x="0" 
 />
    <glyph glyph-name="endash" unicode="&#x2013;" horiz-adv-x="500" 
d="M20 307h422c1 -6 1 -12 1 -18c0 -17 -2 -37 -5 -50h-431c0 18 6 51 13 68z" />
    <glyph glyph-name="emdash" unicode="&#x2014;" horiz-adv-x="1000" 
d="M20 307h922c1 -6 1 -12 1 -18c0 -17 -2 -37 -5 -50h-931c0 18 6 51 13 68z" />
    <glyph glyph-name="quoteleft" unicode="&#x2018;" horiz-adv-x="223" 
d="M221 709c-25 -47 -61 -126 -75 -168l38 -10c-6 -17 -30 -52 -45 -67c-33 4 -68 16 -89 32c28 73 73 153 110 204c11 3 43 9 61 9z" />
    <glyph glyph-name="quoteright" unicode="&#x2019;" horiz-adv-x="253" 
d="M131 631l-36 10c9 21 25 51 38 66c11 3 22 4 34 4c25 0 49 -5 67 -12c-24 -76 -86 -193 -121 -243c-14 5 -31 17 -39 25c20 42 47 109 57 150z" />
    <glyph glyph-name="quotesinglbase" unicode="&#x201a;" horiz-adv-x="253" 
d="M62 18l-39 10c9 21 26 51 40 66c11 3 23 4 36 4c25 0 50 -5 69 -12c-25 -76 -89 -193 -125 -243c-15 5 -33 17 -41 25c21 43 49 109 60 150z" />
    <glyph glyph-name="quotereversed" unicode="&#x201b;" horiz-adv-x="258" 
d="M185 642l-44 -11c1 -39 11 -109 19 -150c-9 -7 -33 -17 -47 -20c-20 52 -48 163 -55 239c20 6 47 10 72 10c12 0 22 -1 31 -3c10 -15 20 -44 24 -65z" />
    <glyph glyph-name="quotedblleft" unicode="&#x201c;" horiz-adv-x="387" 
d="M193 709c-24 -47 -59 -126 -72 -168l35 -10c-7 -18 -29 -52 -43 -67c-32 4 -65 17 -85 32c27 73 70 153 106 204c11 3 42 9 59 9zM363 709c-24 -47 -59 -126 -72 -168l35 -10c-7 -18 -29 -52 -43 -67c-32 4 -64 17 -84 32c27 73 70 153 106 204c11 3 41 9 58 9z" />
    <glyph glyph-name="quotedblright" unicode="&#x201d;" horiz-adv-x="387" 
d="M111 631l-35 10c8 21 24 51 37 66c10 3 20 4 32 4c24 0 47 -5 65 -12c-24 -76 -83 -192 -117 -242c-13 5 -30 17 -38 25c20 42 46 108 56 149zM287 631l-35 10c9 21 25 51 37 66c10 3 21 4 33 4c23 0 47 -5 64 -12c-23 -76 -83 -192 -116 -242c-14 5 -31 17 -38 25
c20 42 46 108 55 149z" />
    <glyph glyph-name="quotedblbase" unicode="&#x201e;" horiz-adv-x="424" 
d="M57 18l-36 10c9 21 25 51 38 66c10 3 21 4 33 4c24 0 48 -5 66 -12c-24 -76 -85 -193 -119 -243c-14 5 -31 17 -39 25c20 43 47 109 57 150zM231 18l-36 10c9 21 25 51 38 66c10 3 21 4 33 4c24 0 48 -5 66 -12c-24 -76 -85 -193 -119 -243c-14 5 -31 17 -39 25
c20 43 47 109 57 150z" />
    <glyph glyph-name="dagger" unicode="&#x2020;" horiz-adv-x="500" 
d="M452 417h-161l-66 -582c-7 -2 -17 -3 -28 -3c-12 0 -22 1 -29 3l45 582h-143c0 15 5 43 11 58h138l17 211c20 6 62 11 90 11l-26 -222h155c1 -7 1 -12 1 -17c0 -13 -1 -27 -4 -41z" />
    <glyph glyph-name="daggerdbl" unicode="&#x2021;" horiz-adv-x="500" 
d="M264 121l-32 -286c-7 -2 -17 -3 -28 -3c-12 0 -22 1 -29 3l22 286h-150c0 15 5 42 11 57h145l17 240h-143c0 15 5 42 11 57h138l17 211c20 6 62 11 90 11l-26 -222h151c1 -7 1 -12 1 -17c0 -13 -1 -26 -4 -40h-157l-26 -240h160c2 -16 0 -42 -3 -57h-165z" />
    <glyph glyph-name="bullet" unicode="&#x2022;" horiz-adv-x="531" 
d="M249 376c77 0 126 -45 126 -130c0 -86 -51 -139 -126 -139c-87 0 -130 45 -130 139c0 75 57 130 130 130z" />
    <glyph glyph-name="ellipsis" unicode="&#x2026;" horiz-adv-x="741" 
d="M347 115c36 0 60 -22 60 -61c0 -41 -25 -66 -60 -66c-40 0 -61 22 -61 66c0 35 27 61 61 61zM92 115c36 0 60 -22 60 -61c0 -41 -25 -66 -60 -66c-40 0 -61 22 -61 66c0 35 27 61 61 61zM599 115c36 0 60 -22 60 -61c0 -41 -25 -66 -60 -66c-40 0 -61 22 -61 66
c0 35 27 61 61 61z" />
    <glyph glyph-name="perthousand" unicode="&#x2030;" horiz-adv-x="1252" 
d="M203 538c86 0 136 -44 136 -127c0 -116 -66 -181 -172 -181c-88 0 -137 42 -137 127c0 109 66 181 173 181zM173 279c60 0 89 50 89 127c0 50 -20 83 -64 83c-63 0 -92 -54 -92 -126c0 -53 24 -84 67 -84zM659 529l-414 -555c-15 3 -44 19 -52 29l411 541
c17 -1 40 -8 55 -15zM670 291c86 0 136 -44 136 -127c0 -116 -66 -181 -172 -181c-88 0 -137 42 -137 127c0 109 66 181 173 181zM640 32c60 0 89 50 89 127c0 50 -20 83 -64 83c-63 0 -92 -54 -92 -126c0 -53 24 -84 67 -84zM1065 291c86 0 136 -44 136 -127
c0 -116 -66 -181 -172 -181c-88 0 -137 42 -137 127c0 109 66 181 173 181zM1035 32c60 0 89 50 89 127c0 50 -20 83 -64 83c-63 0 -92 -54 -92 -126c0 -53 24 -84 67 -84z" />
    <glyph glyph-name="guilsinglleft" unicode="&#x2039;" horiz-adv-x="338" 
d="M147 250c18 -65 39 -125 64 -190c-15 -8 -48 -16 -70 -18c-32 65 -65 143 -88 208c34 65 69 121 114 187c20 8 60 15 88 15c-38 -65 -77 -137 -108 -202z" />
    <glyph glyph-name="guilsinglright" unicode="&#x203a;" horiz-adv-x="335" 
d="M151 250c-17 65 -36 119 -60 184c16 11 46 20 68 20c31 -65 65 -139 85 -204c-35 -65 -85 -143 -129 -208c-20 1 -51 11 -64 21c37 64 69 122 100 187z" />
    <glyph glyph-name="uni203E" unicode="&#x203e;" horiz-adv-x="500" 
d="M-1 723h503c2 -12 3 -28 3 -42c0 -5 0 -9 -1 -17h-513c0 14 3 44 8 59z" />
    <glyph glyph-name="fraction" unicode="&#x2044;" horiz-adv-x="112" 
d="M353 686l-534 -714c-17 4 -41 22 -49 34l526 690c15 0 41 -4 57 -10z" />
    <glyph glyph-name="uni2070" unicode="&#x2070;" horiz-adv-x="385" 
d="M202 771c84 0 130 -50 130 -157c0 -113 -47 -241 -179 -241c-86 0 -129 54 -129 160c0 111 47 238 178 238zM163 423c74 0 92 117 92 185c0 72 -18 113 -62 113c-76 0 -93 -118 -93 -186c0 -74 20 -112 63 -112z" />
    <glyph glyph-name="uni2074" unicode="&#x2074;" horiz-adv-x="385" 
d="M273 480l-7 -98c-10 -2 -26 -3 -40 -3c-12 0 -24 1 -32 3l9 98h-181l5 48l182 236h88l-20 -228h53c1 -6 1 -12 1 -17c0 -14 -2 -29 -4 -39h-54zM207 536l13 111c2 16 5 38 10 59h-4l-125 -167v-4c14 1 31 1 44 1h62z" />
    <glyph glyph-name="uni2075" unicode="&#x2075;" horiz-adv-x="385" 
d="M156 697l-11 -78c17 3 33 5 51 5c72 0 118 -30 118 -106c0 -98 -76 -145 -180 -145c-30 0 -72 4 -95 11c-6 17 -8 33 -8 51c0 4 0 11 2 19c24 -10 72 -24 110 -24c45 0 90 19 90 79c0 48 -30 63 -76 63c-26 0 -67 -4 -93 -9l36 201h238c-1 -21 -5 -46 -12 -67h-170z" />
    <glyph glyph-name="uni2076" unicode="&#x2076;" horiz-adv-x="385" 
d="M119 587h5c12 24 40 42 88 42c74 0 111 -43 111 -111c0 -89 -65 -145 -161 -145c-89 0 -131 48 -131 145c0 127 75 253 216 253c25 0 60 -4 77 -10c4 -9 7 -23 7 -38c0 -10 -1 -23 -3 -31c-20 11 -59 20 -89 20c-57 0 -103 -38 -120 -125zM115 543c-2 -14 -3 -30 -3 -39
c0 -54 19 -82 58 -82c47 0 74 44 74 90c0 41 -21 63 -59 63c-29 0 -50 -13 -70 -32z" />
    <glyph glyph-name="uni2077" unicode="&#x2077;" horiz-adv-x="385" 
d="M352 764l-6 -62c-85 -112 -134 -212 -177 -320c-14 -2 -30 -3 -45 -3s-31 1 -45 3c47 106 118 214 196 311v5h-143c-1 -10 -10 -35 -15 -45c-17 -4 -43 -7 -63 -7l11 118h287z" />
    <glyph glyph-name="uni2078" unicode="&#x2078;" horiz-adv-x="385" 
d="M325 685c0 -43 -33 -78 -67 -95v-5c31 -17 59 -42 59 -88c0 -86 -72 -124 -164 -124c-67 0 -136 21 -136 94c0 49 36 93 85 110v5c-26 16 -48 38 -48 78c0 80 69 111 146 111c61 0 125 -25 125 -86zM159 423c35 0 77 16 77 63c0 37 -43 56 -88 73
c-25 -14 -52 -43 -52 -82s26 -54 63 -54zM195 725c-29 0 -63 -15 -63 -52c0 -30 35 -46 78 -61c19 14 39 38 39 68c0 35 -24 45 -54 45z" />
    <glyph glyph-name="uni2079" unicode="&#x2079;" horiz-adv-x="385" 
d="M241 561h-5c-12 -24 -40 -42 -87 -42c-73 0 -110 41 -110 107c0 89 65 145 160 145c87 0 130 -51 130 -145c0 -129 -68 -253 -219 -253c-25 0 -61 4 -78 10c-4 10 -7 25 -7 41c0 8 1 20 3 28c20 -11 61 -19 92 -19c62 0 108 36 121 128zM246 605c2 14 3 30 3 39
c0 54 -20 82 -58 82c-46 0 -74 -44 -74 -90c0 -41 22 -63 59 -63c29 0 50 13 70 32z" />
    <glyph glyph-name="uni2080" unicode="&#x2080;" horiz-adv-x="385" 
d="M208 298c84 0 130 -50 130 -157c0 -113 -47 -241 -179 -241c-86 0 -129 54 -129 160c0 111 47 238 178 238zM169 -50c74 0 92 117 92 185c0 72 -18 113 -62 113c-76 0 -93 -118 -93 -186c0 -74 20 -112 63 -112z" />
    <glyph glyph-name="uni2081" unicode="&#x2081;" horiz-adv-x="385" 
d="M65 -93c2 14 10 35 18 47c16 4 41 7 63 9l27 270l-86 -8c2 16 7 37 17 53c25 7 81 16 148 20l-28 -337c21 -1 48 -3 70 -6c2 -7 3 -14 3 -26c0 -9 -1 -17 -2 -22h-230z" />
    <glyph glyph-name="uni2082" unicode="&#x2082;" horiz-adv-x="385" 
d="M39 -93l6 60c61 58 208 141 208 232c0 32 -17 44 -58 44c-19 0 -44 -7 -61 -17l-2 -55c-14 -5 -41 -7 -56 -7c-2 31 -3 68 -3 102c32 16 78 32 133 32c78 0 127 -25 127 -91c0 -106 -150 -196 -201 -237v-5c56 0 126 3 193 8c-1 -21 -5 -47 -10 -66h-276z" />
    <glyph glyph-name="uni2083" unicode="&#x2083;" horiz-adv-x="385" 
d="M99 77c0 16 3 37 10 53c86 0 141 20 141 72c0 38 -31 43 -59 43c-29 0 -80 -9 -114 -26c1 22 7 41 17 59c31 14 71 20 103 20c71 0 132 -23 132 -86c0 -51 -42 -95 -98 -100v-5c48 -4 90 -31 90 -86c0 -86 -84 -121 -177 -121c-31 0 -71 4 -95 11c-5 15 -7 35 -7 52
c0 7 0 11 1 18c25 -10 76 -24 116 -24c45 0 81 16 81 57c0 48 -38 63 -141 63z" />
    <glyph glyph-name="uni2084" unicode="&#x2084;" horiz-adv-x="385" 
d="M279 7l-7 -98c-10 -2 -26 -3 -40 -3c-12 0 -24 1 -32 3l9 98h-181l5 48l182 236h88l-20 -228h53c1 -6 1 -12 1 -17c0 -14 -2 -29 -4 -39h-54zM213 63l13 111c2 16 5 38 10 59h-4l-125 -167v-4c14 1 31 1 44 1h62z" />
    <glyph glyph-name="uni2085" unicode="&#x2085;" horiz-adv-x="385" 
d="M162 224l-11 -78c17 3 33 5 51 5c72 0 118 -30 118 -106c0 -98 -76 -145 -180 -145c-30 0 -72 4 -95 11c-6 17 -8 33 -8 51c0 4 0 11 2 19c24 -10 72 -24 110 -24c45 0 90 19 90 79c0 48 -30 63 -76 63c-26 0 -67 -4 -93 -9l36 201h238c-1 -21 -5 -46 -12 -67h-170z" />
    <glyph glyph-name="uni2086" unicode="&#x2086;" horiz-adv-x="385" 
d="M125 114h5c12 24 40 42 88 42c74 0 111 -43 111 -111c0 -89 -65 -145 -161 -145c-89 0 -131 48 -131 145c0 127 75 253 216 253c25 0 60 -4 77 -10c4 -9 7 -23 7 -38c0 -10 -1 -23 -3 -31c-20 11 -59 20 -89 20c-57 0 -103 -38 -120 -125zM121 70c-2 -14 -3 -30 -3 -39
c0 -54 19 -82 58 -82c47 0 74 44 74 90c0 41 -21 63 -59 63c-29 0 -50 -13 -70 -32z" />
    <glyph glyph-name="uni2087" unicode="&#x2087;" horiz-adv-x="385" 
d="M358 291l-6 -62c-85 -112 -134 -212 -177 -320c-14 -2 -30 -3 -45 -3s-31 1 -45 3c47 106 118 214 196 311v5h-143c-1 -10 -10 -35 -15 -45c-17 -4 -43 -7 -63 -7l11 118h287z" />
    <glyph glyph-name="uni2088" unicode="&#x2088;" horiz-adv-x="385" 
d="M331 212c0 -43 -33 -78 -67 -95v-5c31 -17 59 -42 59 -88c0 -86 -72 -124 -164 -124c-67 0 -136 21 -136 94c0 49 36 93 85 110v5c-26 16 -48 38 -48 78c0 80 69 111 146 111c61 0 125 -25 125 -86zM165 -50c35 0 77 16 77 63c0 37 -43 56 -88 73
c-25 -14 -52 -43 -52 -82s26 -54 63 -54zM201 252c-29 0 -63 -15 -63 -52c0 -30 35 -46 78 -61c19 14 39 38 39 68c0 35 -24 45 -54 45z" />
    <glyph glyph-name="uni2089" unicode="&#x2089;" horiz-adv-x="385" 
d="M247 88h-5c-12 -24 -40 -42 -87 -42c-73 0 -110 41 -110 107c0 89 65 145 160 145c87 0 130 -51 130 -145c0 -129 -68 -253 -219 -253c-25 0 -61 4 -78 10c-4 10 -7 25 -7 41c0 8 1 20 3 28c20 -11 61 -19 92 -19c62 0 108 36 121 128zM252 132c2 14 3 30 3 39
c0 54 -20 82 -58 82c-46 0 -74 -44 -74 -90c0 -41 22 -63 59 -63c29 0 50 13 70 32z" />
    <glyph glyph-name="Euro" unicode="&#x20ac;" horiz-adv-x="575" 
d="M386 283h-361c0 14 5 38 10 51h67c43 122 149 207 278 207c57 0 103 -15 138 -39c0 -42 -7 -86 -25 -123c-18 0 -48 5 -62 13l8 71c-24 14 -43 19 -69 19c-85 0 -150 -55 -178 -148h197c2 -14 0 -37 -3 -51zM377 163h-192c19 -72 71 -106 143 -106c44 0 94 9 148 26
c0 -17 -9 -50 -18 -64c-43 -21 -112 -39 -170 -39c-113 0 -186 77 -203 183h-72c0 14 5 38 10 51h357c2 -14 0 -37 -3 -51z" />
    <glyph glyph-name="afii61289" unicode="&#x2113;" horiz-adv-x="496" 
d="M114 264l22 216c15 144 97 206 176 206c58 0 104 -38 104 -120c0 -125 -89 -236 -224 -332c-5 -29 -9 -68 -9 -97c0 -64 27 -90 69 -90c47 0 78 15 115 58c11 -6 29 -20 37 -30c-47 -69 -104 -92 -165 -92c-78 0 -138 41 -138 141c0 14 2 43 5 62
c-18 -10 -35 -20 -54 -29c-6 18 -8 48 -8 65c25 14 49 28 70 42zM200 318c95 76 138 150 138 239c0 49 -19 70 -42 70c-38 0 -70 -44 -79 -139z" />
    <glyph glyph-name="afii61352" unicode="&#x2116;" horiz-adv-x="1008" 
d="M799 178c-76 0 -116 43 -116 126c0 47 13 96 35 128c30 44 78 71 136 71c74 0 117 -42 117 -125c0 -53 -18 -106 -44 -142c-29 -38 -75 -58 -128 -58zM811 227c27 0 46 16 63 42c18 27 24 67 24 103c0 50 -16 83 -53 83c-31 0 -56 -19 -70 -48c-13 -27 -19 -58 -19 -92
c0 -57 17 -88 55 -88zM942 75h-275c0 15 5 44 11 59h267c2 -16 0 -44 -3 -59zM263 521l143 -347c12 -28 24 -69 30 -102h7l41 388c-26 1 -60 4 -77 7c-1 13 1 43 6 54h206c0 -11 -6 -44 -10 -56c-17 -2 -43 -4 -61 -5l-49 -458l-107 -13l-164 404c-7 18 -14 37 -19 55h-7
l-41 -384c23 -2 52 -7 72 -12c3 -14 3 -39 0 -52h-222c2 12 11 37 18 48c16 9 43 17 63 21l46 391c-22 1 -48 4 -65 7c-1 13 0 43 5 54h185z" />
    <glyph glyph-name="trademark" unicode="&#x2122;" horiz-adv-x="864" 
d="M506 409h-135c1 9 6 26 11 35c11 3 31 6 41 7l23 199c-12 1 -36 3 -45 5c0 9 1 29 4 39h130l46 -174c6 -22 10 -48 11 -70h5c7 22 16 48 27 70l87 174h123c0 -9 -3 -30 -6 -39c-13 -2 -31 -4 -44 -4l-16 -200c17 -1 38 -4 48 -7c1 -9 0 -27 -2 -35h-156c1 9 6 26 11 35
c11 3 31 6 41 7l21 200h-5c-6 -24 -19 -56 -33 -85l-77 -162h-64l-44 163c-8 30 -12 58 -13 84h-5l-19 -201c7 0 30 -3 37 -5c1 -8 1 -26 -2 -36zM247 654l-16 -202c20 -1 39 -3 57 -7c1 -8 1 -28 -2 -36h-180c1 9 7 26 12 35c11 3 35 6 50 7l21 203h-59
c-3 -16 -10 -46 -15 -58c-14 -7 -30 -7 -40 -7l11 105h278l-10 -104c-10 0 -29 1 -41 3c-3 18 -4 42 -4 61h-62z" />
    <glyph glyph-name="Omega" unicode="&#x2126;" horiz-adv-x="777" 
d="M409 0l6 64c93 52 169 189 169 349c0 124 -50 237 -177 237c-163 0 -231 -167 -231 -332c0 -116 46 -207 107 -254l-6 -64h-293l15 153c18 0 49 -3 62 -6c3 -20 5 -55 5 -76h126v7c-60 39 -109 126 -109 247c0 235 134 389 330 389c164 0 265 -116 265 -290
c0 -164 -86 -305 -171 -346v-7h134c4 23 12 57 18 78c17 4 46 7 65 7l-14 -156h-301z" />
    <glyph glyph-name="estimated" unicode="&#x212e;" horiz-adv-x="879" 
d="M836 325h-633c-3 0 -5 -1 -5 -4v-191c0 -8 3 -16 9 -22c59 -65 145 -105 240 -105c102 0 190 45 252 117h56c-70 -84 -183 -137 -309 -137c-217 0 -392 158 -392 351c0 196 175 355 392 355c216 0 390 -159 390 -355v-9zM694 353v190c0 10 -4 18 -11 24
c-60 62 -143 100 -236 100c-94 0 -179 -39 -239 -104c-7 -5 -10 -14 -10 -24v-186c0 -2 2 -5 5 -5h487c2 0 4 3 4 5z" />
    <glyph glyph-name="uni2150" unicode="&#x2150;" horiz-adv-x="882" 
d="M59 285c2 14 10 35 18 47c16 4 41 7 63 9l27 270l-86 -8c2 16 7 37 17 53c25 7 81 16 148 20l-28 -337c21 -1 48 -3 70 -6c2 -7 3 -14 3 -26c0 -9 -1 -17 -2 -22h-230zM738 686l-534 -714c-17 4 -41 22 -49 34l526 690c15 0 41 -4 57 -10zM849 384l-6 -62
c-85 -112 -134 -212 -177 -320c-14 -2 -30 -3 -45 -3s-31 1 -45 3c47 106 118 214 196 311v5h-143c-1 -10 -10 -35 -15 -45c-17 -4 -43 -7 -63 -7l11 118h287z" />
    <glyph glyph-name="uni2151" unicode="&#x2151;" horiz-adv-x="882" 
d="M59 285c2 14 10 35 18 47c16 4 41 7 63 9l27 270l-86 -8c2 16 7 37 17 53c25 7 81 16 148 20l-28 -337c21 -1 48 -3 70 -6c2 -7 3 -14 3 -26c0 -9 -1 -17 -2 -22h-230zM738 686l-534 -714c-17 4 -41 22 -49 34l526 690c15 0 41 -4 57 -10zM738 181h-5
c-12 -24 -40 -42 -87 -42c-73 0 -110 41 -110 107c0 89 65 145 160 145c87 0 130 -51 130 -145c0 -129 -68 -253 -219 -253c-25 0 -61 4 -78 10c-4 10 -7 25 -7 41c0 8 1 20 3 28c20 -11 61 -19 92 -19c62 0 108 36 121 128zM743 225c2 14 3 30 3 39c0 54 -20 82 -58 82
c-46 0 -74 -44 -74 -90c0 -41 22 -63 59 -63c29 0 50 13 70 32z" />
    <glyph glyph-name="uni2152" unicode="&#x2152;" horiz-adv-x="1217" 
d="M59 285c2 14 10 35 18 47c16 4 41 7 63 9l27 270l-86 -8c2 16 7 37 17 53c25 7 81 16 148 20l-28 -337c21 -1 48 -3 70 -6c2 -7 3 -14 3 -26c0 -9 -1 -17 -2 -22h-230zM738 686l-534 -714c-17 4 -41 22 -49 34l526 690c15 0 41 -4 57 -10zM556 0c2 14 10 35 18 47
c16 4 41 7 63 9l27 270l-86 -8c2 16 7 37 17 53c25 7 81 16 148 20l-28 -337c21 -1 48 -3 70 -6c2 -7 3 -14 3 -26c0 -9 -1 -17 -2 -22h-230zM1034 391c84 0 130 -50 130 -157c0 -113 -47 -241 -179 -241c-86 0 -129 54 -129 160c0 111 47 238 178 238zM995 43
c74 0 92 117 92 185c0 72 -18 113 -62 113c-76 0 -93 -118 -93 -186c0 -74 20 -112 63 -112z" />
    <glyph glyph-name="onethird" unicode="&#x2153;" horiz-adv-x="882" 
d="M59 285c2 14 10 35 18 47c16 4 41 7 63 9l27 270l-86 -8c2 16 7 37 17 53c25 7 81 16 148 20l-28 -337c21 -1 48 -3 70 -6c2 -7 3 -14 3 -26c0 -9 -1 -17 -2 -22h-230zM738 686l-534 -714c-17 4 -41 22 -49 34l526 690c15 0 41 -4 57 -10zM590 170c0 16 3 37 10 53
c86 0 141 20 141 72c0 38 -31 43 -59 43c-29 0 -80 -9 -114 -26c1 22 7 41 17 59c31 14 71 20 103 20c71 0 132 -23 132 -86c0 -51 -42 -95 -98 -100v-5c48 -4 90 -31 90 -86c0 -86 -84 -121 -177 -121c-31 0 -71 4 -95 11c-5 15 -7 35 -7 52c0 7 0 11 1 18
c25 -10 76 -24 116 -24c45 0 81 16 81 57c0 48 -38 63 -141 63z" />
    <glyph glyph-name="twothirds" unicode="&#x2154;" horiz-adv-x="882" 
d="M33 285l6 60c61 58 208 141 208 232c0 32 -17 44 -58 44c-19 0 -44 -7 -61 -17l-2 -55c-14 -5 -41 -7 -56 -7c-2 31 -3 68 -3 102c32 16 78 32 133 32c78 0 127 -25 127 -91c0 -106 -150 -196 -201 -237v-5c56 0 126 3 193 8c-1 -21 -5 -47 -10 -66h-276zM738 686
l-534 -714c-17 4 -41 22 -49 34l526 690c15 0 41 -4 57 -10zM590 170c0 16 3 37 10 53c86 0 141 20 141 72c0 38 -31 43 -59 43c-29 0 -80 -9 -114 -26c1 22 7 41 17 59c31 14 71 20 103 20c71 0 132 -23 132 -86c0 -51 -42 -95 -98 -100v-5c48 -4 90 -31 90 -86
c0 -86 -84 -121 -177 -121c-31 0 -71 4 -95 11c-5 15 -7 35 -7 52c0 7 0 11 1 18c25 -10 76 -24 116 -24c45 0 81 16 81 57c0 48 -38 63 -141 63z" />
    <glyph glyph-name="uni2155" unicode="&#x2155;" horiz-adv-x="882" 
d="M59 285c2 14 10 35 18 47c16 4 41 7 63 9l27 270l-86 -8c2 16 7 37 17 53c25 7 81 16 148 20l-28 -337c21 -1 48 -3 70 -6c2 -7 3 -14 3 -26c0 -9 -1 -17 -2 -22h-230zM738 686l-534 -714c-17 4 -41 22 -49 34l526 690c15 0 41 -4 57 -10zM653 317l-11 -78
c17 3 33 5 51 5c72 0 118 -30 118 -106c0 -98 -76 -145 -180 -145c-30 0 -72 4 -95 11c-6 17 -8 33 -8 51c0 4 0 11 2 19c24 -10 72 -24 110 -24c45 0 90 19 90 79c0 48 -30 63 -76 63c-26 0 -67 -4 -93 -9l36 201h238c-1 -21 -5 -46 -12 -67h-170z" />
    <glyph glyph-name="uni2156" unicode="&#x2156;" horiz-adv-x="882" 
d="M33 285l6 60c61 58 208 141 208 232c0 32 -17 44 -58 44c-19 0 -44 -7 -61 -17l-2 -55c-14 -5 -41 -7 -56 -7c-2 31 -3 68 -3 102c32 16 78 32 133 32c78 0 127 -25 127 -91c0 -106 -150 -196 -201 -237v-5c56 0 126 3 193 8c-1 -21 -5 -47 -10 -66h-276zM738 686
l-534 -714c-17 4 -41 22 -49 34l526 690c15 0 41 -4 57 -10zM653 317l-11 -78c17 3 33 5 51 5c72 0 118 -30 118 -106c0 -98 -76 -145 -180 -145c-30 0 -72 4 -95 11c-6 17 -8 33 -8 51c0 4 0 11 2 19c24 -10 72 -24 110 -24c45 0 90 19 90 79c0 48 -30 63 -76 63
c-26 0 -67 -4 -93 -9l36 201h238c-1 -21 -5 -46 -12 -67h-170z" />
    <glyph glyph-name="uni2157" unicode="&#x2157;" horiz-adv-x="882" 
d="M93 455c0 16 3 37 10 53c86 0 141 20 141 72c0 38 -31 43 -59 43c-29 0 -80 -9 -114 -26c1 22 7 41 17 59c31 14 71 20 103 20c71 0 132 -23 132 -86c0 -51 -42 -95 -98 -100v-5c48 -4 90 -31 90 -86c0 -86 -84 -121 -177 -121c-31 0 -71 4 -95 11c-5 15 -7 35 -7 52
c0 7 0 11 1 18c25 -10 76 -24 116 -24c45 0 81 16 81 57c0 48 -38 63 -141 63zM738 686l-534 -714c-17 4 -41 22 -49 34l526 690c15 0 41 -4 57 -10zM653 317l-11 -78c17 3 33 5 51 5c72 0 118 -30 118 -106c0 -98 -76 -145 -180 -145c-30 0 -72 4 -95 11c-6 17 -8 33 -8 51
c0 4 0 11 2 19c24 -10 72 -24 110 -24c45 0 90 19 90 79c0 48 -30 63 -76 63c-26 0 -67 -4 -93 -9l36 201h238c-1 -21 -5 -46 -12 -67h-170z" />
    <glyph glyph-name="uni2158" unicode="&#x2158;" horiz-adv-x="882" 
d="M273 385l-7 -98c-10 -2 -26 -3 -40 -3c-12 0 -24 1 -32 3l9 98h-181l5 48l182 236h88l-20 -228h53c1 -6 1 -12 1 -17c0 -14 -2 -29 -4 -39h-54zM207 441l13 111c2 16 5 38 10 59h-4l-125 -167v-4c14 1 31 1 44 1h62zM738 686l-534 -714c-17 4 -41 22 -49 34l526 690
c15 0 41 -4 57 -10zM653 317l-11 -78c17 3 33 5 51 5c72 0 118 -30 118 -106c0 -98 -76 -145 -180 -145c-30 0 -72 4 -95 11c-6 17 -8 33 -8 51c0 4 0 11 2 19c24 -10 72 -24 110 -24c45 0 90 19 90 79c0 48 -30 63 -76 63c-26 0 -67 -4 -93 -9l36 201h238
c-1 -21 -5 -46 -12 -67h-170z" />
    <glyph glyph-name="uni2159" unicode="&#x2159;" horiz-adv-x="882" 
d="M59 285c2 14 10 35 18 47c16 4 41 7 63 9l27 270l-86 -8c2 16 7 37 17 53c25 7 81 16 148 20l-28 -337c21 -1 48 -3 70 -6c2 -7 3 -14 3 -26c0 -9 -1 -17 -2 -22h-230zM738 686l-534 -714c-17 4 -41 22 -49 34l526 690c15 0 41 -4 57 -10zM616 207h5c12 24 40 42 88 42
c74 0 111 -43 111 -111c0 -89 -65 -145 -161 -145c-89 0 -131 48 -131 145c0 127 75 253 216 253c25 0 60 -4 77 -10c4 -9 7 -23 7 -38c0 -10 -1 -23 -3 -31c-20 11 -59 20 -89 20c-57 0 -103 -38 -120 -125zM612 163c-2 -14 -3 -30 -3 -39c0 -54 19 -82 58 -82
c47 0 74 44 74 90c0 41 -21 63 -59 63c-29 0 -50 -13 -70 -32z" />
    <glyph glyph-name="uni215A" unicode="&#x215a;" horiz-adv-x="882" 
d="M156 602l-11 -78c17 3 33 5 51 5c72 0 118 -30 118 -106c0 -98 -76 -145 -180 -145c-30 0 -72 4 -95 11c-6 17 -8 33 -8 51c0 4 0 11 2 19c24 -10 72 -24 110 -24c45 0 90 19 90 79c0 48 -30 63 -76 63c-26 0 -67 -4 -93 -9l36 201h238c-1 -21 -5 -46 -12 -67h-170z
M738 686l-534 -714c-17 4 -41 22 -49 34l526 690c15 0 41 -4 57 -10zM616 207h5c12 24 40 42 88 42c74 0 111 -43 111 -111c0 -89 -65 -145 -161 -145c-89 0 -131 48 -131 145c0 127 75 253 216 253c25 0 60 -4 77 -10c4 -9 7 -23 7 -38c0 -10 -1 -23 -3 -31
c-20 11 -59 20 -89 20c-57 0 -103 -38 -120 -125zM612 163c-2 -14 -3 -30 -3 -39c0 -54 19 -82 58 -82c47 0 74 44 74 90c0 41 -21 63 -59 63c-29 0 -50 -13 -70 -32z" />
    <glyph glyph-name="oneeighth" unicode="&#x215b;" horiz-adv-x="882" 
d="M59 285c2 14 10 35 18 47c16 4 41 7 63 9l27 270l-86 -8c2 16 7 37 17 53c25 7 81 16 148 20l-28 -337c21 -1 48 -3 70 -6c2 -7 3 -14 3 -26c0 -9 -1 -17 -2 -22h-230zM738 686l-534 -714c-17 4 -41 22 -49 34l526 690c15 0 41 -4 57 -10zM822 305c0 -43 -33 -78 -67 -95
v-5c31 -17 59 -42 59 -88c0 -86 -72 -124 -164 -124c-67 0 -136 21 -136 94c0 49 36 93 85 110v5c-26 16 -48 38 -48 78c0 80 69 111 146 111c61 0 125 -25 125 -86zM656 43c35 0 77 16 77 63c0 37 -43 56 -88 73c-25 -14 -52 -43 -52 -82s26 -54 63 -54zM692 345
c-29 0 -63 -15 -63 -52c0 -30 35 -46 78 -61c19 14 39 38 39 68c0 35 -24 45 -54 45z" />
    <glyph glyph-name="threeeighths" unicode="&#x215c;" horiz-adv-x="882" 
d="M93 455c0 16 3 37 10 53c86 0 141 20 141 72c0 38 -31 43 -59 43c-29 0 -80 -9 -114 -26c1 22 7 41 17 59c31 14 71 20 103 20c71 0 132 -23 132 -86c0 -51 -42 -95 -98 -100v-5c48 -4 90 -31 90 -86c0 -86 -84 -121 -177 -121c-31 0 -71 4 -95 11c-5 15 -7 35 -7 52
c0 7 0 11 1 18c25 -10 76 -24 116 -24c45 0 81 16 81 57c0 48 -38 63 -141 63zM738 686l-534 -714c-17 4 -41 22 -49 34l526 690c15 0 41 -4 57 -10zM822 305c0 -43 -33 -78 -67 -95v-5c31 -17 59 -42 59 -88c0 -86 -72 -124 -164 -124c-67 0 -136 21 -136 94
c0 49 36 93 85 110v5c-26 16 -48 38 -48 78c0 80 69 111 146 111c61 0 125 -25 125 -86zM656 43c35 0 77 16 77 63c0 37 -43 56 -88 73c-25 -14 -52 -43 -52 -82s26 -54 63 -54zM692 345c-29 0 -63 -15 -63 -52c0 -30 35 -46 78 -61c19 14 39 38 39 68c0 35 -24 45 -54 45z
" />
    <glyph glyph-name="fiveeighths" unicode="&#x215d;" horiz-adv-x="882" 
d="M156 602l-11 -78c17 3 33 5 51 5c72 0 118 -30 118 -106c0 -98 -76 -145 -180 -145c-30 0 -72 4 -95 11c-6 17 -8 33 -8 51c0 4 0 11 2 19c24 -10 72 -24 110 -24c45 0 90 19 90 79c0 48 -30 63 -76 63c-26 0 -67 -4 -93 -9l36 201h238c-1 -21 -5 -46 -12 -67h-170z
M738 686l-534 -714c-17 4 -41 22 -49 34l526 690c15 0 41 -4 57 -10zM822 305c0 -43 -33 -78 -67 -95v-5c31 -17 59 -42 59 -88c0 -86 -72 -124 -164 -124c-67 0 -136 21 -136 94c0 49 36 93 85 110v5c-26 16 -48 38 -48 78c0 80 69 111 146 111c61 0 125 -25 125 -86z
M656 43c35 0 77 16 77 63c0 37 -43 56 -88 73c-25 -14 -52 -43 -52 -82s26 -54 63 -54zM692 345c-29 0 -63 -15 -63 -52c0 -30 35 -46 78 -61c19 14 39 38 39 68c0 35 -24 45 -54 45z" />
    <glyph glyph-name="seveneighths" unicode="&#x215e;" horiz-adv-x="822" 
d="M352 669l-6 -62c-85 -112 -134 -212 -177 -320c-14 -2 -30 -3 -45 -3s-31 1 -45 3c47 106 118 214 196 311v5h-143c-1 -10 -10 -35 -15 -45c-17 -4 -43 -7 -63 -7l11 118h287zM678 686l-534 -714c-17 4 -41 22 -49 34l526 690c15 0 41 -4 57 -10zM762 305
c0 -43 -33 -78 -67 -95v-5c31 -17 59 -42 59 -88c0 -86 -72 -124 -164 -124c-67 0 -136 21 -136 94c0 49 36 93 85 110v5c-26 16 -48 38 -48 78c0 80 69 111 146 111c61 0 125 -25 125 -86zM596 43c35 0 77 16 77 63c0 37 -43 56 -88 73c-25 -14 -52 -43 -52 -82
s26 -54 63 -54zM632 345c-29 0 -63 -15 -63 -52c0 -30 35 -46 78 -61c19 14 39 38 39 68c0 35 -24 45 -54 45z" />
    <glyph glyph-name="uni215F" unicode="&#x215f;" horiz-adv-x="497" 
d="M59 285c2 14 10 35 18 47c16 4 41 7 63 9l27 270l-86 -8c2 16 7 37 17 53c25 7 81 16 148 20l-28 -337c21 -1 48 -3 70 -6c2 -7 3 -14 3 -26c0 -9 -1 -17 -2 -22h-230zM738 686l-534 -714c-17 4 -41 22 -49 34l526 690c15 0 41 -4 57 -10z" />
    <glyph glyph-name="uni2189" unicode="&#x2189;" horiz-adv-x="882" 
d="M202 676c84 0 130 -50 130 -157c0 -113 -47 -241 -179 -241c-86 0 -129 54 -129 160c0 111 47 238 178 238zM163 328c74 0 92 117 92 185c0 72 -18 113 -62 113c-76 0 -93 -118 -93 -186c0 -74 20 -112 63 -112zM738 686l-534 -714c-17 4 -41 22 -49 34l526 690
c15 0 41 -4 57 -10zM590 170c0 16 3 37 10 53c86 0 141 20 141 72c0 38 -31 43 -59 43c-29 0 -80 -9 -114 -26c1 22 7 41 17 59c31 14 71 20 103 20c71 0 132 -23 132 -86c0 -51 -42 -95 -98 -100v-5c48 -4 90 -31 90 -86c0 -86 -84 -121 -177 -121c-31 0 -71 4 -95 11
c-5 15 -7 35 -7 52c0 7 0 11 1 18c25 -10 76 -24 116 -24c45 0 81 16 81 57c0 48 -38 63 -141 63z" />
    <glyph glyph-name="partialdiff" unicode="&#x2202;" horiz-adv-x="536" 
d="M397 423c0 187 -85 240 -177 240c-37 0 -87 -16 -118 -32c-2 25 8 65 21 88c32 13 75 21 115 21c125 0 239 -97 239 -318c0 -209 -78 -437 -267 -437c-116 0 -189 67 -189 178c0 142 94 275 232 275c73 0 122 -37 136 -69h7c1 18 1 37 1 54zM266 371
c-108 0 -161 -101 -161 -209c0 -72 35 -116 104 -116c109 0 160 133 178 261c-28 38 -68 64 -121 64z" />
    <glyph glyph-name="Delta" unicode="&#x2206;" horiz-adv-x="613" 
d="M303 704h78l179 -646l-4 -58h-571l4 47zM83 62h372l-104 404c-12 46 -26 109 -26 144h-7c-9 -35 -34 -95 -55 -141z" />
    <glyph glyph-name="product" unicode="&#x220f;" horiz-adv-x="766" 
d="M736 -168h-258c1 15 7 39 11 53c16 5 51 11 71 13v733h-354v-734c26 -2 58 -5 81 -10c4 -12 5 -44 3 -55h-258c1 15 7 39 11 53c17 5 53 11 74 13v730c-23 1 -52 3 -72 6c-3 13 -4 48 -2 60h687c2 -12 1 -45 -2 -58c-19 -4 -56 -7 -79 -8v-731c27 -2 61 -5 84 -10
c3 -11 4 -25 4 -39c0 -6 0 -11 -1 -16z" />
    <glyph glyph-name="summation" unicode="&#x2211;" horiz-adv-x="605" 
d="M23 -168v63l287 362l-269 378v59h527v-162c-18 0 -43 3 -60 8c-6 24 -13 67 -14 91h-346v-7c25 -22 59 -64 86 -103l173 -248l-200 -258c-31 -41 -62 -77 -90 -100v-6h373c2 29 8 71 13 95c14 4 47 7 66 7v-179h-546z" />
    <glyph glyph-name="minus" unicode="&#x2212;" 
d="M54 303h440c2 -12 4 -31 4 -49c0 -7 0 -12 -1 -20h-452c0 19 5 54 9 69z" />
    <glyph glyph-name="uni2219" unicode="&#x2219;" 
d="M287 401c77 0 126 -45 126 -130c0 -86 -51 -139 -126 -139c-87 0 -130 45 -130 139c0 75 57 130 130 130z" />
    <glyph glyph-name="radical" unicode="&#x221a;" horiz-adv-x="513" 
d="M14 388l119 29l92 -281c12 -38 21 -82 26 -118h7c6 35 17 82 29 121l199 638c17 0 56 -7 73 -12l-255 -814l-102 -12l-133 392l-64 -16c0 23 4 54 9 73z" />
    <glyph glyph-name="infinity" unicode="&#x221e;" horiz-adv-x="829" 
d="M421 322c63 69 135 118 217 118c95 0 144 -62 144 -146c0 -109 -78 -204 -193 -204c-82 0 -141 49 -201 122c-66 -71 -136 -121 -222 -121c-95 0 -144 65 -144 149c0 104 71 201 193 201c79 0 135 -36 206 -119zM352 256c-61 76 -110 108 -153 108
c-58 0 -104 -41 -104 -104c0 -56 38 -98 98 -98c59 0 116 41 159 94zM457 279c50 -64 91 -112 150 -112c67 0 103 50 103 108c0 59 -40 94 -97 94c-56 0 -108 -37 -156 -90z" />
    <glyph glyph-name="integral" unicode="&#x222b;" horiz-adv-x="342" 
d="M320 800c6 -17 11 -46 11 -69c-16 11 -45 17 -65 17c-70 0 -81 -68 -81 -164c0 -139 22 -387 22 -531c0 -122 -37 -229 -158 -229c-25 0 -52 5 -70 14c0 18 9 56 18 73c18 -11 36 -17 55 -17c60 0 71 59 71 155c0 146 -23 391 -23 532c0 127 46 229 159 229
c22 0 48 -4 61 -10z" />
    <glyph glyph-name="approxequal" unicode="&#x2248;" 
d="M496 347c-29 -28 -71 -54 -127 -54c-97 0 -121 52 -205 52c-41 0 -73 -19 -94 -35c-9 16 -16 42 -19 59c30 24 68 47 121 47c92 0 129 -53 204 -53c34 0 57 12 87 35c11 -10 29 -38 33 -51zM496 165c-29 -28 -71 -54 -127 -54c-97 0 -121 52 -205 52
c-41 0 -73 -19 -94 -35c-9 16 -16 42 -19 59c30 24 68 47 121 47c92 0 129 -53 204 -53c34 0 57 12 87 35c11 -10 29 -38 33 -51z" />
    <glyph glyph-name="notequal" unicode="&#x2260;" 
d="M414 463l-44 -73h110c2 -11 4 -29 4 -46c0 -7 0 -13 -1 -19h-148l-69 -115h214c2 -11 4 -29 4 -46c0 -7 0 -13 -1 -19h-252l-57 -96c-12 4 -39 18 -48 27l41 69h-110c0 18 5 52 9 65h136l70 115h-215c0 18 5 52 9 65h241l51 84c17 0 42 -5 56 -11z" />
    <glyph glyph-name="lessequal" unicode="&#x2264;" 
d="M452 561l-272 -188v-7l268 -184c-5 -13 -36 -49 -47 -56l-310 218l3 54l298 211c17 -9 46 -34 60 -48zM70 64h395c2 -11 4 -28 4 -45c0 -7 0 -13 -1 -19h-406c0 18 5 50 8 64z" />
    <glyph glyph-name="greaterequal" unicode="&#x2265;" 
d="M450 344l-311 -221c-12 8 -41 42 -47 56l270 187v7l-277 184c12 13 46 38 63 48l299 -208zM76 64h395c2 -11 4 -28 4 -45c0 -7 0 -13 -1 -19h-406c0 18 5 50 8 64z" />
    <glyph glyph-name="dotmath" unicode="&#x22c5;" 
d="M253 338c40 0 66 -24 66 -68c0 -45 -27 -73 -66 -73c-45 0 -68 24 -68 73c0 39 30 68 68 68z" />
    <glyph glyph-name="H18543" unicode="&#x25aa;" 
d="M11 0l55 475h451l-56 -475h-450z" />
    <glyph glyph-name="H18551" unicode="&#x25ab;" 
d="M16 0l55 475h451l-56 -475h-450zM141 409l-40 -343h296l40 343h-296z" />
    <glyph glyph-name="uni25B8" unicode="&#x25b8;" 
d="M37 -32c4 131 36 413 63 539c111 -56 340 -194 434 -266c-113 -74 -374 -216 -497 -273z" />
    <glyph glyph-name="uni25B9" unicode="&#x25b9;" 
d="M36 -32c7 130 38 413 63 539c111 -56 340 -194 434 -266c-113 -74 -374 -216 -497 -273zM122 92c64 30 220 111 279 149c-50 36 -186 114 -243 143c-16 -71 -32 -221 -36 -292z" />
    <glyph glyph-name="uni25C2" unicode="&#x25c2;" 
d="M425 -32c-110 57 -338 199 -434 273c111 72 372 210 497 266c-6 -128 -38 -411 -63 -539z" />
    <glyph glyph-name="uni25C3" unicode="&#x25c3;" 
d="M432 -32c-110 57 -338 199 -434 273c111 72 372 210 497 266c-7 -128 -39 -411 -63 -539zM374 92c13 70 30 220 34 292c-65 -29 -219 -107 -278 -143c50 -38 186 -119 244 -149z" />
    <glyph glyph-name="lozenge" unicode="&#x25ca;" horiz-adv-x="509" 
d="M16 338l215 363l90 11l148 -361l-212 -364l-102 -9zM106 355l86 -222c11 -28 19 -59 24 -83h7c8 23 26 60 42 88l113 197l-83 211c-11 27 -22 65 -28 90h-7c-9 -25 -26 -61 -44 -92z" />
    <glyph glyph-name="circle" unicode="&#x25cb;" 
d="M306 487c120 0 207 -76 207 -203c0 -182 -123 -301 -267 -301c-141 0 -219 70 -219 212c0 163 108 292 279 292zM297 418c-115 0 -189 -95 -189 -211c0 -104 53 -155 146 -155c99 0 178 94 178 226c0 90 -56 140 -135 140z" />
    <glyph glyph-name="H18533" unicode="&#x25cf;" 
d="M303 487c120 0 207 -76 207 -203c0 -185 -123 -301 -267 -301c-141 0 -219 70 -219 212c0 172 118 292 279 292z" />
    <glyph glyph-name="uniFB00" unicode="&#xfb00;" horiz-adv-x="608" 
d="M485 470h123c2 -16 0 -43 -3 -58h-124l-59 -562c-12 -2 -33 -4 -50 -4c-14 0 -30 1 -39 4l69 562h-229l-43 -410c-12 -2 -32 -4 -49 -4c-14 0 -29 1 -38 4l51 410h-77c2 16 11 39 19 52c18 7 42 13 64 17l6 44c19 140 100 195 190 195c27 0 61 -5 94 -17
c0 -33 -14 -91 -27 -118c-14 0 -40 7 -51 16l9 63c-8 5 -21 7 -30 7c-44 0 -95 -30 -106 -130l-8 -71h229l9 65c19 140 103 195 195 195c28 0 63 -5 96 -17c0 -33 -14 -91 -27 -118c-15 0 -42 7 -53 16l9 63c-8 5 -22 7 -31 7c-46 0 -101 -30 -111 -130z" />
    <glyph glyph-name="fi" unicode="&#xfb01;" horiz-adv-x="581" 
d="M173 412l-59 -562c-12 -2 -33 -4 -50 -4c-14 0 -30 1 -39 4l69 562h-77c2 16 11 39 19 52c18 7 42 13 64 17l2 17c19 163 102 232 252 232c44 0 96 -6 149 -23c0 -36 -16 -93 -31 -125c-17 0 -47 8 -59 17l10 66c-21 7 -49 10 -71 10c-102 0 -156 -45 -171 -171l-4 -34
h115c2 -16 0 -43 -3 -58h-116zM395 415l-71 -8c0 10 9 42 18 51c23 12 57 23 98 23c9 0 32 -2 40 -4l-50 -406c0 -3 3 -13 5 -17l78 8c0 -15 -8 -43 -16 -56c-32 -12 -90 -23 -119 -23c-19 22 -35 57 -35 74z" />
    <glyph glyph-name="fl" unicode="&#xfb02;" horiz-adv-x="585" 
d="M437 54l78 8c0 -15 -8 -43 -16 -56c-32 -12 -90 -23 -119 -23c-19 22 -35 57 -35 74l80 609c-21 7 -50 10 -72 10c-102 0 -157 -46 -172 -172l-4 -34h124c2 -16 0 -43 -3 -58h-125l-59 -562c-12 -2 -33 -4 -50 -4c-14 0 -30 1 -39 4l69 562h-77c2 16 11 39 19 52
c18 7 42 13 64 17l2 18c18 159 103 231 252 231c45 0 102 -9 153 -26l-75 -633c0 -3 3 -13 5 -17z" />
    <glyph glyph-name="uniFB03" unicode="&#xfb03;" horiz-adv-x="889" 
d="M481 412l-59 -562c-12 -2 -33 -4 -50 -4c-14 0 -30 1 -39 4l68 562h-228l-43 -410c-12 -2 -32 -4 -49 -4c-14 0 -29 1 -38 4l51 410h-77c2 16 11 39 19 52c18 7 42 13 64 17l6 44c19 140 100 195 190 195c27 0 61 -5 94 -17c0 -33 -14 -91 -27 -118c-14 0 -40 7 -51 16
l9 63c-8 5 -21 7 -30 7c-44 0 -95 -30 -106 -130l-8 -71h230l3 28c17 161 102 232 252 232c44 0 96 -6 149 -23c0 -36 -16 -93 -31 -125c-17 0 -47 8 -59 17l10 66c-21 7 -49 10 -71 10c-102 0 -156 -45 -171 -171l-4 -34h115c2 -16 0 -43 -3 -58h-116zM703 415l-71 -8
c0 10 9 42 18 51c23 12 57 23 98 23c9 0 32 -2 40 -4l-50 -406c0 -3 3 -13 5 -17l78 8c0 -15 -8 -43 -16 -56c-32 -12 -90 -23 -119 -23c-19 22 -35 57 -35 74z" />
    <glyph glyph-name="uniFB04" unicode="&#xfb04;" horiz-adv-x="893" 
d="M745 54l78 8c0 -15 -8 -43 -16 -56c-32 -12 -90 -23 -119 -23c-19 22 -35 57 -35 74l80 609c-21 7 -50 10 -72 10c-102 0 -157 -46 -172 -172l-4 -34h124c2 -16 0 -43 -3 -58h-125l-59 -562c-12 -2 -33 -4 -50 -4c-14 0 -30 1 -39 4l69 562h-229l-43 -410
c-12 -2 -32 -4 -49 -4c-14 0 -29 1 -38 4l51 410h-77c2 16 11 39 19 52c18 7 42 13 64 17l6 44c19 140 100 195 190 195c27 0 61 -5 94 -17c0 -33 -14 -91 -27 -118c-14 0 -40 7 -51 16l9 63c-8 5 -21 7 -30 7c-44 0 -95 -30 -106 -130l-8 -71h229l4 29
c22 159 103 231 252 231c45 0 102 -9 153 -26l-75 -633c0 -3 3 -13 5 -17z" />
    <glyph glyph-name="uniFB06" unicode="&#xfb06;" horiz-adv-x="750" 
d="M505 481l20 120c-23 16 -49 22 -78 22c-88 0 -101 -60 -101 -133c0 -63 -7 -100 -19 -139c-16 0 -44 7 -55 15l5 55c-16 8 -35 13 -60 13c-39 0 -71 -21 -71 -60c0 -100 184 -115 184 -239c0 -105 -89 -152 -182 -152c-80 0 -142 28 -142 101c10 20 50 36 81 36
c3 -59 31 -80 84 -80c43 0 79 25 79 67c0 98 -184 106 -184 239c0 79 56 141 165 141c16 0 36 -2 49 -5c0 11 -1 20 -1 33c0 96 54 169 174 169c46 0 97 -11 147 -44l-17 -170h138c1 -7 1 -12 1 -18c0 -13 -2 -31 -4 -40h-144l-28 -284c-5 -53 7 -79 48 -79c26 0 61 9 85 19
c0 -18 -6 -40 -13 -53c-37 -21 -82 -32 -116 -32c-65 0 -92 37 -92 99c0 56 26 230 43 330h-72c2 16 10 39 19 52c14 7 40 14 57 17z" />
    <glyph glyph-name="i.latn_TRK" horiz-adv-x="280" 
d="M94 415l-73 -8c0 10 9 42 18 51c24 12 58 23 99 23c10 0 33 -2 41 -4l-50 -406c0 -3 3 -13 5 -17l78 8c0 -15 -8 -43 -16 -56c-32 -12 -90 -23 -119 -23c-19 22 -35 57 -35 74zM159 707c32 0 54 -20 54 -55c0 -37 -23 -59 -54 -59c-36 0 -55 20 -55 59c0 32 24 55 55 55z
" />
    <glyph glyph-name="Ldot.latn_CAT" horiz-adv-x="566" 
d="M244 630l-51 -566h228c4 30 15 76 23 100c15 4 47 7 64 7l-16 -171h-480c3 18 9 39 15 53c19 5 54 11 76 13l58 564c-22 1 -57 4 -72 7c-2 15 1 46 4 57h250c1 -14 -2 -43 -7 -56c-25 -4 -68 -8 -92 -8zM453 410c32 0 54 -19 54 -55c0 -37 -23 -58 -54 -58
c-37 0 -57 19 -57 58c0 33 24 55 57 55z" />
    <glyph glyph-name="ldot.latn_CAT" horiz-adv-x="363" 
d="M303 397c31 0 52 -19 52 -54c0 -36 -22 -57 -52 -57c-35 0 -54 19 -54 57c0 32 23 54 54 54zM136 54l78 8c0 -15 -8 -43 -16 -56c-32 -12 -90 -23 -119 -23c-19 22 -35 57 -35 74l79 603l-72 -8c0 10 9 42 18 51c24 12 58 23 98 23c10 0 33 -2 41 -4l-77 -651
c0 -3 3 -13 5 -17z" />
    <glyph glyph-name="zero.numr" horiz-adv-x="385" 
d="M202 676c84 0 130 -50 130 -157c0 -113 -47 -241 -179 -241c-86 0 -129 54 -129 160c0 111 47 238 178 238zM163 328c74 0 92 117 92 185c0 72 -18 113 -62 113c-76 0 -93 -118 -93 -186c0 -74 20 -112 63 -112z" />
    <glyph glyph-name="one.numr" horiz-adv-x="385" 
d="M59 285c2 14 10 35 18 47c16 4 41 7 63 9l27 270l-86 -8c2 16 7 37 17 53c25 7 81 16 148 20l-28 -337c21 -1 48 -3 70 -6c2 -7 3 -14 3 -26c0 -9 -1 -17 -2 -22h-230z" />
    <glyph glyph-name="two.numr" horiz-adv-x="385" 
d="M33 285l6 60c61 58 208 141 208 232c0 32 -17 44 -58 44c-19 0 -44 -7 -61 -17l-2 -55c-14 -5 -41 -7 -56 -7c-2 31 -3 68 -3 102c32 16 78 32 133 32c78 0 127 -25 127 -91c0 -106 -150 -196 -201 -237v-5c56 0 126 3 193 8c-1 -21 -5 -47 -10 -66h-276z" />
    <glyph glyph-name="three.numr" horiz-adv-x="385" 
d="M93 455c0 16 3 37 10 53c86 0 141 20 141 72c0 38 -31 43 -59 43c-29 0 -80 -9 -114 -26c1 22 7 41 17 59c31 14 71 20 103 20c71 0 132 -23 132 -86c0 -51 -42 -95 -98 -100v-5c48 -4 90 -31 90 -86c0 -86 -84 -121 -177 -121c-31 0 -71 4 -95 11c-5 15 -7 35 -7 52
c0 7 0 11 1 18c25 -10 76 -24 116 -24c45 0 81 16 81 57c0 48 -38 63 -141 63z" />
    <glyph glyph-name="four.numr" horiz-adv-x="385" 
d="M273 385l-7 -98c-10 -2 -26 -3 -40 -3c-12 0 -24 1 -32 3l9 98h-181l5 48l182 236h88l-20 -228h53c1 -6 1 -12 1 -17c0 -14 -2 -29 -4 -39h-54zM207 441l13 111c2 16 5 38 10 59h-4l-125 -167v-4c14 1 31 1 44 1h62z" />
    <glyph glyph-name="five.numr" horiz-adv-x="385" 
d="M156 602l-11 -78c17 3 33 5 51 5c72 0 118 -30 118 -106c0 -98 -76 -145 -180 -145c-30 0 -72 4 -95 11c-6 17 -8 33 -8 51c0 4 0 11 2 19c24 -10 72 -24 110 -24c45 0 90 19 90 79c0 48 -30 63 -76 63c-26 0 -67 -4 -93 -9l36 201h238c-1 -21 -5 -46 -12 -67h-170z" />
    </font>
</defs>
</svg>
